<?xml version="1.0" encoding="UTF-8" standalone="no"?>
<!DOCTYPE svg PUBLIC "-//W3C//DTD SVG 20010904//EN"
"http://www.w3.org/TR/2001/REC-SVG-20010904/DTD/svg10.dtd">
<!-- Created with Sodipodi ("http://www.sodipodi.com/") --><svg height="216" id="svg1358" sodipodi:docbase="/home/meuserj/" sodipodi:docname="/home/meuserj/aw.svg" sodipodi:version="0.33pre" width="324" xmlns="http://www.w3.org/2000/svg" xmlns:sodipodi="http://sodipodi.sourceforge.net/DTD/sodipodi-0.dtd" xmlns:xlink="http://www.w3.org/1999/xlink">
  <metadata>
    <rdf:RDF xmlns:cc="http://web.resource.org/cc/" xmlns:dc="http://purl.org/dc/elements/1.1/" xmlns:rdf="http://www.w3.org/1999/02/22-rdf-syntax-ns#">
      <cc:Work rdf:about="">
        <dc:title>Aruba</dc:title>
        <dc:description></dc:description>
        <dc:subject>
          <rdf:Bag>
            <rdf:li></rdf:li>
            <rdf:li>caribbean</rdf:li>
            <rdf:li>america</rdf:li>
            <rdf:li>flag</rdf:li>
            <rdf:li>sign</rdf:li>
          </rdf:Bag>
        </dc:subject>
        <dc:publisher>
          <cc:Agent rdf:about="http://www.openclipart.org">
            <dc:title>John C Meuser</dc:title>
          </cc:Agent>
        </dc:publisher>
        <dc:creator>
          <cc:Agent>
            <dc:title>John C Meuser</dc:title>
          </cc:Agent>
        </dc:creator>
        <dc:rights>
          <cc:Agent>
            <dc:title>John C Meuser</dc:title>
          </cc:Agent>
        </dc:rights>
        <dc:date></dc:date>
        <dc:format>image/svg+xml</dc:format>
        <dc:type rdf:resource="http://purl.org/dc/dcmitype/StillImage"/>
        <cc:license rdf:resource="http://web.resource.org/cc/PublicDomain"/>
        <dc:language>en</dc:language>
      </cc:Work>
      <cc:License rdf:about="http://web.resource.org/cc/PublicDomain">
        <cc:permits rdf:resource="http://web.resource.org/cc/Reproduction"/>
        <cc:permits rdf:resource="http://web.resource.org/cc/Distribution"/>
        <cc:permits rdf:resource="http://web.resource.org/cc/DerivativeWorks"/>
      </cc:License>
    </rdf:RDF>
  </metadata>
  <defs id="defs1558"/>
  <sodipodi:namedview gridspacingx="1mm" gridspacingy="1mm" gridtolerance="0.5px" id="base" showgrid="true" snaptogrid="true"/>
  <path d="M 0 -6.41853e-05 L 0 216 L 324 216 L 324 -6.41853e-05 L 0 -6.41853e-05 z " id="path1359" style="fill:#3399cc; stroke:none;"/>
  <path d="M48 12L49 13L48 12z" id="path1360" style="fill:#99cccc; stroke:none;"/>
  <path d="M47 14L48 15L47 14M49 14L50 15L49 14z" id="path1362" style="fill:#99cccc; stroke:none;"/>
  <path d="M47 15L48 16L47 15M49 15L50 16L49 15z" id="path1363" style="fill:#ccccff; stroke:none;"/>
  <path d="M46 17L47 18L46 17z" id="path1364" style="fill:#66cccc; stroke:none;"/>
  <path d="M48 17L49 18L48 17z" id="path1365" style="fill:#cc6666; stroke:none;"/>
  <path d="M50 17L51 18L50 17z" id="path1366" style="fill:#66cccc; stroke:none;"/>
  <path d="M46 18L47 19L46 18z" id="path1367" style="fill:#ccccff; stroke:none;"/>
  <path d="M50 18L51 19L50 18z" id="path1369" style="fill:#ccccff; stroke:none;"/>
  <path d="M47 19L48 20L47 19M49 19L50 20L49 19z" id="path1370" style="fill:#ffcccc; stroke:none;"/>
  <path d="M45 20L46 21L45 20z" id="path1371" style="fill:#66cccc; stroke:none;"/>
  <path d="M 47.8346 14.0315 L 40.825 40.6063 L 14.1732 47.8437 L 40.748 54.7795 L 47.8346 81.3543 L 54.9213 54.7795 L 81.4961 47.6929 L 54.9213 40.6063 L 47.8346 14.0315 z " id="path1372" sodipodi:nodetypes="ccccccccc" style="fill:#cc0000;stroke:#ffffff;stroke-opacity:1;stroke-width:1.25;stroke-dasharray:none;" transform=""/>
  <path d="M51 20L52 21L51 20z" id="path1373" style="fill:#66cccc; stroke:none;"/>
  <path d="M45 21L46 22L45 21M51 21L52 22L51 21z" id="path1374" style="fill:#99ccff; stroke:none;"/>
  <path d="M46 22L47 23L46 22M50 22L51 23L50 22z" id="path1375" style="fill:#ffcccc; stroke:none;"/>
  <path d="M44 23L45 24L44 23z" id="path1376" style="fill:#6699cc; stroke:none;"/>
  <path d="M46.3333 23.6667L46.6667 24.3333L46.3333 23.6667M50.3333 23.6667L50.6667 24.3333L50.3333 23.6667z" id="path1377" style="fill:#cc3333; stroke:none;"/>
  <path d="M52 23L53 24L52 23z" id="path1378" style="fill:#6699cc; stroke:none;"/>
  <path d="M44 24L45 25L44 24M52 24L53 25L52 24z" id="path1379" style="fill:#99ccff; stroke:none;"/>
  <path d="M45 25L46 26L45 25M51 25L52 26L51 25z" id="path1380" style="fill:#ffcccc; stroke:none;"/>
  <path d="M43 26L44 27L43 26z" id="path1381" style="fill:#6699cc; stroke:none;"/>
  <path d="M53 26L54 27L53 26z" id="path1383" style="fill:#6699cc; stroke:none;"/>
  <path d="M43 27L44 28L43 27M53 27L54 28L53 27z" id="path1384" style="fill:#99cccc; stroke:none;"/>
  <path d="M43 28L44 29L43 28M53 28L54 29L53 28z" id="path1385" style="fill:#ccffff; stroke:none;"/>
  <path d="M42 29L43 30L42 29z" id="path1386" style="fill:#6699cc; stroke:none;"/>
  <path d="M44 29L45 30L44 29M52 29L53 30L52 29z" id="path1387" style="fill:#ffcccc; stroke:none;"/>
  <path d="M54 29L55 30L54 29z" id="path1388" style="fill:#6699cc; stroke:none;"/>
  <path d="M42 30L43 31L42 30z" id="path1389" style="fill:#99cccc; stroke:none;"/>
  <path d="M44.3333 30.6667L44.6667 31.3333L44.3333 30.6667M52.3333 30.6667L52.6667 31.3333L52.3333 30.6667z" id="path1390" style="fill:#cc3333; stroke:none;"/>
  <path d="M54 30L55 31L54 30z" id="path1391" style="fill:#99cccc; stroke:none;"/>
  <path d="M42 31L43 32L42 31M54 31L55 32L54 31z" id="path1392" style="fill:#ccffff; stroke:none;"/>
  <path d="M43 32L44 33L43 32M53 32L54 33L53 32z" id="path1393" style="fill:#ffcccc; stroke:none;"/>
  <path d="M41 33L42 34L41 33z" id="path1394" style="fill:#99cccc; stroke:none;"/>
  <path d="M43.3333 33.6667L43.6667 34.3333L43.3333 33.6667M53.3333 33.6667L53.6667 34.3333L53.3333 33.6667z" id="path1395" style="fill:#cc3333; stroke:none;"/>
  <path d="M55 33L56 34L55 33z" id="path1396" style="fill:#99cccc; stroke:none;"/>
  <path d="M41 34L42 35L41 34M55 34L56 35L55 34z" id="path1397" style="fill:#ccccff; stroke:none;"/>
  <path d="M42 35L43 36L42 35M54 35L55 36L54 35z" id="path1398" style="fill:#ffcccc; stroke:none;"/>
  <path d="M40 36L41 37L40 36z" id="path1399" style="fill:#99cccc; stroke:none;"/>
  <path d="M42.3333 36.6667L42.6667 37.3333L42.3333 36.6667M54.3333 36.6667L54.6667 37.3333L54.3333 36.6667z" id="path1400" style="fill:#cc3333; stroke:none;"/>
  <path d="M56 36L57 37L56 36z" id="path1401" style="fill:#99cccc; stroke:none;"/>
  <path d="M40 37L41 38L40 37M56 37L57 38L56 37z" id="path1402" style="fill:#ccccff; stroke:none;"/>
  <path d="M41 38L42 39L41 38M55 38L56 39L55 38z" id="path1403" style="fill:#ffcccc; stroke:none;"/>
  <path d="M39 39L40 40L39 39z" id="path1404" style="fill:#99cccc; stroke:none;"/>
  <path d="M41 39L42 40L41 39M55 39L56 40L55 39z" id="path1405" style="fill:#cc3333; stroke:none;"/>
  <path d="M57 39L58 40L57 39M36 40L37 41L36 40z" id="path1406" style="fill:#99cccc; stroke:none;"/>
  <path d="M37 40L38 41L37 40M59 40L60 41L59 40z" id="path1407" style="fill:#ccccff; stroke:none;"/>
  <path d="M60 40L61 41L60 40M33 41L34 42L33 41z" id="path1408" style="fill:#99cccc; stroke:none;"/>
  <path d="M34 41L35 42L34 41z" id="path1409" style="fill:#ccccff; stroke:none;"/>
  <path d="M38 41L39 42L38 41z" id="path1410" style="fill:#ffcccc; stroke:none;"/>
  <path d="M39 41L40 42L39 41M57 41L58 42L57 41z" id="path1411" style="fill:#cc3333; stroke:none;"/>
  <path d="M58 41L59 42L58 41z" id="path1412" style="fill:#ffcccc; stroke:none;"/>
  <path d="M62 41L63 42L62 41z" id="path1413" style="fill:#ccccff; stroke:none;"/>
  <path d="M63 41L64 42L63 41z" id="path1414" style="fill:#99cccc; stroke:none;"/>
  <path d="M29 42L30 43L29 42z" id="path1415" style="fill:#6699cc; stroke:none;"/>
  <path d="M30 42L31 43L30 42z" id="path1416" style="fill:#99cccc; stroke:none;"/>
  <path d="M31 42L32 43L31 42z" id="path1417" style="fill:#ccffff; stroke:none;"/>
  <path d="M35 42L36 43L35 42z" id="path1418" style="fill:#ffcccc; stroke:none;"/>
  <path d="M36.6667 42.3333L37.3333 42.6667L36.6667 42.3333M59.6667 42.3333L60.3333 42.6667L59.6667 42.3333z" id="path1419" style="fill:#cc3333; stroke:none;"/>
  <path d="M61 42L62 43L61 42z" id="path1420" style="fill:#ffcccc; stroke:none;"/>
  <path d="M65 42L66 43L65 42z" id="path1421" style="fill:#ccffff; stroke:none;"/>
  <path d="M66 42L67 43L66 42z" id="path1422" style="fill:#99cccc; stroke:none;"/>
  <path d="M67 42L68 43L67 42M26 43L27 44L26 43z" id="path1423" style="fill:#6699cc; stroke:none;"/>
  <path d="M27 43L28 44L27 43z" id="path1424" style="fill:#99cccc; stroke:none;"/>
  <path d="M28 43L29 44L28 43z" id="path1425" style="fill:#ccffff; stroke:none;"/>
  <path d="M32 43L33 44L32 43z" id="path1426" style="fill:#ffcccc; stroke:none;"/>
  <path d="M33.6667 43.3333L34.3333 43.6667L33.6667 43.3333M62.6667 43.3333L63.3333 43.6667L62.6667 43.3333z" id="path1427" style="fill:#cc3333; stroke:none;"/>
  <path d="M64 43L65 44L64 43z" id="path1428" style="fill:#ffcccc; stroke:none;"/>
  <path d="M68 43L69 44L68 43z" id="path1429" style="fill:#ccffff; stroke:none;"/>
  <path d="M69 43L70 44L69 43z" id="path1430" style="fill:#99cccc; stroke:none;"/>
  <path d="M70 43L71 44L70 43M23 44L24 45L23 44z" id="path1431" style="fill:#6699cc; stroke:none;"/>
  <path d="M24 44L25 45L24 44z" id="path1432" style="fill:#99ccff; stroke:none;"/>
  <path d="M29 44L30 45L29 44z" id="path1433" style="fill:#ffcccc; stroke:none;"/>
  <path d="M30.6667 44.3333L31.3333 44.6667L30.6667 44.3333M65.6667 44.3333L66.3333 44.6667L65.6667 44.3333z" id="path1434" style="fill:#cc3333; stroke:none;"/>
  <path d="M67 44L68 45L67 44z" id="path1435" style="fill:#ffcccc; stroke:none;"/>
  <path d="M72 44L73 45L72 44z" id="path1436" style="fill:#99ccff; stroke:none;"/>
  <path d="M73 44L74 45L73 44z" id="path1437" style="fill:#6699cc; stroke:none;"/>
  <path d="M20 45L21 46L20 45z" id="path1438" style="fill:#66cccc; stroke:none;"/>
  <path d="M21 45L22 46L21 45z" id="path1439" style="fill:#99ccff; stroke:none;"/>
  <path d="M25 45L26 46L25 45z" id="path1440" style="fill:#ffcccc; stroke:none;"/>
  <path d="M71 45L72 46L71 45z" id="path1442" style="fill:#ffcccc; stroke:none;"/>
  <path d="M75 45L76 46L75 45z" id="path1443" style="fill:#99ccff; stroke:none;"/>
  <path d="M76 45L77 46L76 45M17 46L18 47L17 46z" id="path1444" style="fill:#66cccc; stroke:none;"/>
  <path d="M18 46L19 47L18 46z" id="path1445" style="fill:#ccccff; stroke:none;"/>
  <path d="M22 46L23 47L22 46z" id="path1446" style="fill:#ffcccc; stroke:none;"/>
  <path d="M23.6667 46.3333L24.3333 46.6667L23.6667 46.3333M72.6667 46.3333L73.3333 46.6667L72.6667 46.3333z" id="path1447" style="fill:#cc3333; stroke:none;"/>
  <path d="M74 46L75 47L74 46z" id="path1448" style="fill:#ffcccc; stroke:none;"/>
  <path d="M78 46L79 47L78 46z" id="path1449" style="fill:#ccccff; stroke:none;"/>
  <path d="M79 46L80 47L79 46z" id="path1450" style="fill:#66cccc; stroke:none;"/>
  <path d="M14 47L15 48L14 47z" id="path1451" style="fill:#99cccc; stroke:none;"/>
  <path d="M15 47L16 48L15 47z" id="path1452" style="fill:#ccccff; stroke:none;"/>
  <path d="M19 47L20 48L19 47z" id="path1453" style="fill:#ffcccc; stroke:none;"/>
  <path d="M77 47L78 48L77 47z" id="path1455" style="fill:#ffcccc; stroke:none;"/>
  <path d="M81 47L82 48L81 47z" id="path1456" style="fill:#ccccff; stroke:none;"/>
  <path d="M82 47L83 48L82 47M12 48L13 49L12 48z" id="path1457" style="fill:#99cccc; stroke:none;"/>
  <path d="M17 48L18 49L17 48z" id="path1458" style="fill:#cc6666; stroke:none;"/>
  <path d="M79 48L80 49L79 48z" id="path1460" style="fill:#cc6666; stroke:none;"/>
  <path d="M84 48L85 49L84 48M14 49L15 50L14 49z" id="path1461" style="fill:#99cccc; stroke:none;"/>
  <path d="M15 49L16 50L15 49z" id="path1462" style="fill:#ccccff; stroke:none;"/>
  <path d="M19 49L20 50L19 49M77 49L78 50L77 49z" id="path1463" style="fill:#ffcccc; stroke:none;"/>
  <path d="M81 49L82 50L81 49z" id="path1464" style="fill:#ccccff; stroke:none;"/>
  <path d="M82 49L83 50L82 49z" id="path1465" style="fill:#99cccc; stroke:none;"/>
  <path d="M17 50L18 51L17 50z" id="path1466" style="fill:#66cccc; stroke:none;"/>
  <path d="M18 50L19 51L18 50z" id="path1467" style="fill:#ccccff; stroke:none;"/>
  <path d="M22 50L23 51L22 50z" id="path1468" style="fill:#ffcccc; stroke:none;"/>
  <path d="M23.6667 50.3333L24.3333 50.6667L23.6667 50.3333M72.6667 50.3333L73.3333 50.6667L72.6667 50.3333z" id="path1469" style="fill:#cc3333; stroke:none;"/>
  <path d="M74 50L75 51L74 50z" id="path1470" style="fill:#ffcccc; stroke:none;"/>
  <path d="M78 50L79 51L78 50z" id="path1471" style="fill:#ccccff; stroke:none;"/>
  <path d="M79 50L80 51L79 50M20 51L21 52L20 51z" id="path1472" style="fill:#66cccc; stroke:none;"/>
  <path d="M21 51L22 52L21 51z" id="path1473" style="fill:#99ccff; stroke:none;"/>
  <path d="M25 51L26 52L25 51z" id="path1474" style="fill:#ffcccc; stroke:none;"/>
  <path d="M71 51L72 52L71 51z" id="path1476" style="fill:#ffcccc; stroke:none;"/>
  <path d="M75 51L76 52L75 51z" id="path1477" style="fill:#99ccff; stroke:none;"/>
  <path d="M76 51L77 52L76 51z" id="path1478" style="fill:#66cccc; stroke:none;"/>
  <path d="M23 52L24 53L23 52z" id="path1479" style="fill:#6699cc; stroke:none;"/>
  <path d="M24 52L25 53L24 52z" id="path1480" style="fill:#99ccff; stroke:none;"/>
  <path d="M29 52L30 53L29 52z" id="path1481" style="fill:#ffcccc; stroke:none;"/>
  <path d="M30.6667 52.3333L31.3333 52.6667L30.6667 52.3333M65.6667 52.3333L66.3333 52.6667L65.6667 52.3333z" id="path1482" style="fill:#cc3333; stroke:none;"/>
  <path d="M67 52L68 53L67 52z" id="path1483" style="fill:#ffcccc; stroke:none;"/>
  <path d="M72 52L73 53L72 52z" id="path1484" style="fill:#99ccff; stroke:none;"/>
  <path d="M73 52L74 53L73 52M26 53L27 54L26 53z" id="path1485" style="fill:#6699cc; stroke:none;"/>
  <path d="M27 53L28 54L27 53z" id="path1486" style="fill:#99cccc; stroke:none;"/>
  <path d="M28 53L29 54L28 53z" id="path1487" style="fill:#ccffff; stroke:none;"/>
  <path d="M32 53L33 54L32 53z" id="path1488" style="fill:#ffcccc; stroke:none;"/>
  <path d="M33.6667 53.3333L34.3333 53.6667L33.6667 53.3333M62.6667 53.3333L63.3333 53.6667L62.6667 53.3333z" id="path1489" style="fill:#cc3333; stroke:none;"/>
  <path d="M64 53L65 54L64 53z" id="path1490" style="fill:#ffcccc; stroke:none;"/>
  <path d="M68 53L69 54L68 53z" id="path1491" style="fill:#ccffff; stroke:none;"/>
  <path d="M69 53L70 54L69 53z" id="path1492" style="fill:#99cccc; stroke:none;"/>
  <path d="M70 53L71 54L70 53M29 54L30 55L29 54z" id="path1493" style="fill:#6699cc; stroke:none;"/>
  <path d="M30 54L31 55L30 54z" id="path1494" style="fill:#99cccc; stroke:none;"/>
  <path d="M31 54L32 55L31 54z" id="path1495" style="fill:#ccffff; stroke:none;"/>
  <path d="M35 54L36 55L35 54z" id="path1496" style="fill:#ffcccc; stroke:none;"/>
  <path d="M36.6667 54.3333L37.3333 54.6667L36.6667 54.3333M59.6667 54.3333L60.3333 54.6667L59.6667 54.3333z" id="path1497" style="fill:#cc3333; stroke:none;"/>
  <path d="M61 54L62 55L61 54z" id="path1498" style="fill:#ffcccc; stroke:none;"/>
  <path d="M65 54L66 55L65 54z" id="path1499" style="fill:#ccffff; stroke:none;"/>
  <path d="M66 54L67 55L66 54z" id="path1500" style="fill:#99cccc; stroke:none;"/>
  <path d="M67 54L68 55L67 54z" id="path1501" style="fill:#6699cc; stroke:none;"/>
  <path d="M33 55L34 56L33 55z" id="path1502" style="fill:#99cccc; stroke:none;"/>
  <path d="M34 55L35 56L34 55z" id="path1503" style="fill:#ccccff; stroke:none;"/>
  <path d="M38 55L39 56L38 55z" id="path1504" style="fill:#ffcccc; stroke:none;"/>
  <path d="M39 55L40 56L39 55M57 55L58 56L57 55z" id="path1505" style="fill:#cc3333; stroke:none;"/>
  <path d="M58 55L59 56L58 55z" id="path1506" style="fill:#ffcccc; stroke:none;"/>
  <path d="M62 55L63 56L62 55z" id="path1507" style="fill:#ccccff; stroke:none;"/>
  <path d="M63 55L64 56L63 55M36 56L37 57L36 56z" id="path1508" style="fill:#99cccc; stroke:none;"/>
  <path d="M37 56L38 57L37 56M59 56L60 57L59 56z" id="path1509" style="fill:#ccccff; stroke:none;"/>
  <path d="M60 56L61 57L60 56M39 57L40 58L39 57z" id="path1510" style="fill:#99cccc; stroke:none;"/>
  <path d="M41 57L42 58L41 57M55 57L56 58L55 57z" id="path1511" style="fill:#cc3333; stroke:none;"/>
  <path d="M57 57L58 58L57 57z" id="path1512" style="fill:#99cccc; stroke:none;"/>
  <path d="M41 58L42 59L41 58M55 58L56 59L55 58z" id="path1513" style="fill:#ffcccc; stroke:none;"/>
  <path d="M40 59L41 60L40 59z" id="path1514" style="fill:#ccccff; stroke:none;"/>
  <path d="M42.3333 59.6667L42.6667 60.3333L42.3333 59.6667M54.3333 59.6667L54.6667 60.3333L54.3333 59.6667z" id="path1515" style="fill:#cc3333; stroke:none;"/>
  <path d="M56 59L57 60L56 59z" id="path1516" style="fill:#ccccff; stroke:none;"/>
  <path d="M40 60L41 61L40 60M56 60L57 61L56 60z" id="path1517" style="fill:#99cccc; stroke:none;"/>
  <path d="M42 61L43 62L42 61M54 61L55 62L54 61z" id="path1518" style="fill:#ffcccc; stroke:none;"/>
  <path d="M41 62L42 63L41 62z" id="path1519" style="fill:#ccccff; stroke:none;"/>
  <path d="M43.3333 62.6667L43.6667 63.3333L43.3333 62.6667M53.3333 62.6667L53.6667 63.3333L53.3333 62.6667z" id="path1520" style="fill:#cc3333; stroke:none;"/>
  <path d="M55 62L56 63L55 62z" id="path1521" style="fill:#ccccff; stroke:none;"/>
  <path d="M41 63L42 64L41 63M55 63L56 64L55 63z" id="path1522" style="fill:#99cccc; stroke:none;"/>
  <path d="M43 64L44 65L43 64M53 64L54 65L53 64z" id="path1523" style="fill:#ffcccc; stroke:none;"/>
  <path d="M42 65L43 66L42 65z" id="path1524" style="fill:#ccffff; stroke:none;"/>
  <path d="M44.3333 65.6667L44.6667 66.3333L44.3333 65.6667M52.3333 65.6667L52.6667 66.3333L52.3333 65.6667z" id="path1525" style="fill:#cc3333; stroke:none;"/>
  <path d="M54 65L55 66L54 65z" id="path1526" style="fill:#ccffff; stroke:none;"/>
  <path d="M42 66L43 67L42 66M54 66L55 67L54 66z" id="path1527" style="fill:#99cccc; stroke:none;"/>
  <path d="M42 67L43 68L42 67z" id="path1528" style="fill:#6699cc; stroke:none;"/>
  <path d="M44 67L45 68L44 67M52 67L53 68L52 67z" id="path1529" style="fill:#ffcccc; stroke:none;"/>
  <path d="M54 67L55 68L54 67z" id="path1530" style="fill:#6699cc; stroke:none;"/>
  <path d="M43 68L44 69L43 68z" id="path1531" style="fill:#ccffff; stroke:none;"/>
  <path d="M53 68L54 69L53 68z" id="path1533" style="fill:#ccffff; stroke:none;"/>
  <path d="M43 69L44 70L43 69M53 69L54 70L53 69z" id="path1534" style="fill:#99cccc; stroke:none;"/>
  <path d="M43 70L44 71L43 70M53 70L54 71L53 70z" id="path1535" style="fill:#6699cc; stroke:none;"/>
  <path d="M45 71L46 72L45 71M51 71L52 72L51 71z" id="path1536" style="fill:#ffcccc; stroke:none;"/>
  <path d="M44 72L45 73L44 72z" id="path1537" style="fill:#99ccff; stroke:none;"/>
  <path d="M46.3333 72.6667L46.6667 73.3333L46.3333 72.6667M50.3333 72.6667L50.6667 73.3333L50.3333 72.6667z" id="path1538" style="fill:#cc3333; stroke:none;"/>
  <path d="M52 72L53 73L52 72z" id="path1539" style="fill:#99ccff; stroke:none;"/>
  <path d="M44 73L45 74L44 73M52 73L53 74L52 73z" id="path1540" style="fill:#6699cc; stroke:none;"/>
  <path d="M46 74L47 75L46 74M50 74L51 75L50 74z" id="path1541" style="fill:#ffcccc; stroke:none;"/>
  <path d="M45 75L46 76L45 75z" id="path1542" style="fill:#99ccff; stroke:none;"/>
  <path d="M51 75L52 76L51 75z" id="path1544" style="fill:#99ccff; stroke:none;"/>
  <path d="M45 76L46 77L45 76M51 76L52 77L51 76z" id="path1545" style="fill:#66cccc; stroke:none;"/>
  <path d="M47 77L48 78L47 77M49 77L50 78L49 77z" id="path1546" style="fill:#ffcccc; stroke:none;"/>
  <path d="M46 78L47 79L46 78M50 78L51 79L50 78z" id="path1547" style="fill:#ccccff; stroke:none;"/>
  <path d="M46 79L47 80L46 79z" id="path1548" style="fill:#66cccc; stroke:none;"/>
  <path d="M48 79L49 80L48 79z" id="path1549" style="fill:#cc6666; stroke:none;"/>
  <path d="M50 79L51 80L50 79z" id="path1550" style="fill:#66cccc; stroke:none;"/>
  <path d="M47 81L48 82L47 81M49 81L50 82L49 81z" id="path1551" style="fill:#ccccff; stroke:none;"/>
  <path d="M47 82L48 83L47 82M49 82L50 83L49 82M48 84L49 85L48 84z" id="path1552" style="fill:#99cccc; stroke:none;"/>
  <path d="M0 144L0 156L324 156L324 144L0 144z" id="path1553" style="fill:#ffff00; stroke:none;"/>
  <path d="M0 168L0 180L324 180L324 168L0 168z" id="path1555" style="fill:#ffff00; stroke:none;"/>
</svg>
