<?xml version="1.0" encoding="UTF-8" standalone="no"?>
<!DOCTYPE svg PUBLIC "-//W3C//DTD SVG 1.0//EN"
"http://www.w3.org/TR/2001/REC-SVG-20010904/DTD/svg10.dtd">
<!-- Created with Sodipodi ("http://www.sodipodi.com/") --><svg height="500" id="svg618" version="1.0" width="1000" x="0" xmlns="http://www.w3.org/2000/svg" xmlns:xlink="http://www.w3.org/1999/xlink" y="0">
  <metadata>
    <rdf:RDF xmlns:cc="http://web.resource.org/cc/" xmlns:dc="http://purl.org/dc/elements/1.1/" xmlns:rdf="http://www.w3.org/1999/02/22-rdf-syntax-ns#">
      <cc:Work rdf:about="">
        <dc:title>Azerbaijan</dc:title>
        <dc:description></dc:description>
        <dc:subject>
          <rdf:Bag>
            <rdf:li></rdf:li>
            <rdf:li>asia</rdf:li>
            <rdf:li>united_nations_member</rdf:li>
            <rdf:li>flag</rdf:li>
            <rdf:li>sign</rdf:li>
          </rdf:Bag>
        </dc:subject>
        <dc:publisher>
          <cc:Agent rdf:about="http://www.openclipart.org">
            <dc:title>Daniel McRae</dc:title>
          </cc:Agent>
        </dc:publisher>
        <dc:creator>
          <cc:Agent>
            <dc:title>Daniel McRae</dc:title>
          </cc:Agent>
        </dc:creator>
        <dc:rights>
          <cc:Agent>
            <dc:title>Daniel McRae</dc:title>
          </cc:Agent>
        </dc:rights>
        <dc:date></dc:date>
        <dc:format>image/svg+xml</dc:format>
        <dc:type rdf:resource="http://purl.org/dc/dcmitype/StillImage"/>
        <cc:license rdf:resource="http://web.resource.org/cc/PublicDomain"/>
        <dc:language>en</dc:language>
      </cc:Work>
      <cc:License rdf:about="http://web.resource.org/cc/PublicDomain">
        <cc:permits rdf:resource="http://web.resource.org/cc/Reproduction"/>
        <cc:permits rdf:resource="http://web.resource.org/cc/Distribution"/>
        <cc:permits rdf:resource="http://web.resource.org/cc/DerivativeWorks"/>
      </cc:License>
    </rdf:RDF>
  </metadata>
  <defs id="defs620"/>
  <g id="g580" style="font-size:12;" transform="scale(8.333333,8.333333)">
    <g id="g646">
      <rect height="20" id="rect622" style="fill:#cc3333;fill-rule:evenodd;stroke-width:1pt;" width="120.000000" x="0" y="20"/>
      <rect height="20" id="rect621" style="fill:#0099cc;fill-rule:evenodd;stroke-width:1pt;" width="120.000000" x="0" y="0"/>
      <rect height="20" id="rect623" style="fill:#009933;fill-rule:evenodd;stroke-width:1pt;" width="120.000000" x="0" y="40.0000000"/>
    </g>
    <g id="g575">
      <g id="g638">
        <path d="M 66 30 C 66.004 34.968 61.9752 39 57.0072 39 C 52.0392 39.0079 48.004 34.9823 48 30.0143 C 47.9881 25.0463 52.0105 21.0079 56.9785 21 C 61.9465 20.9842 65.9881 25.0033 66 29.9713 C 66 29.9814 66 29.9899 66 30 z " id="path637" style="fill:#ffffff;stroke-width:1pt;"/>
        <path d="M 66.5 30 C 66.5033 34.0848 63.1907 37.4 59.1059 37.4 C 55.0211 37.4065 51.7033 34.0966 51.7 30.0118 C 51.6902 25.927 54.9975 22.6065 59.0823 22.6 C 63.1671 22.587 66.4902 25.8916 66.5 29.9764 C 66.5 29.9847 66.5 29.9917 66.5 30 z " id="path636" style="fill:#cc3333;stroke-width:1pt;"/>
      </g>
      <polygon id="polygon574" points="67,25 67.9567,27.6903 70.5355,26.4645 69.3097,29.0433 72,30 69.3097,30.9567 70.5355,33.5355 67.9567,32.3097 67,35 66.0433,32.3097 63.4645,33.5355 64.6903,30.9567 62,30 64.6903,29.0433 63.4645,26.4645 66.0433,27.6903 67,25 " style="fill:#ffffff;fill-rule:evenodd;stroke-width:1pt;"/>
    </g>
  </g>
</svg>
