<?xml version="1.0" encoding="UTF-8" standalone="no"?>
<!DOCTYPE svg PUBLIC "-//W3C//DTD SVG 1.0//EN"
"http://www.w3.org/TR/2001/REC-SVG-20010904/DTD/svg10.dtd">
<!-- Created with Sodipodi ("http://www.sodipodi.com/") --><!-- /Creative Commons Public Domain --><!--

--><svg height="500" id="svg609" version="1.0" width="1000" x="0" xmlns="http://www.w3.org/2000/svg" xmlns:xlink="http://www.w3.org/1999/xlink" y="0">
  <metadata>
    <rdf:RDF xmlns:cc="http://web.resource.org/cc/" xmlns:dc="http://purl.org/dc/elements/1.1/" xmlns:rdf="http://www.w3.org/1999/02/22-rdf-syntax-ns#">
      <cc:Work rdf:about="">
        <dc:title> bosnia_and_herzegovina</dc:title>
        <dc:description></dc:description>
        <dc:subject>
          <rdf:Bag>
            <rdf:li></rdf:li>
            <rdf:li>europe</rdf:li>
            <rdf:li>united_nations_member</rdf:li>
            <rdf:li>flag</rdf:li>
            <rdf:li>sign</rdf:li>
          </rdf:Bag>
        </dc:subject>
        <dc:publisher>
          <cc:Agent rdf:about="http://www.openclipart.org">
            <dc:title> Daniel McRae</dc:title>
          </cc:Agent>
        </dc:publisher>
        <dc:creator>
          <cc:Agent>
            <dc:title>Daniel McRae</dc:title>
          </cc:Agent>
        </dc:creator>
        <dc:rights>
          <cc:Agent>
            <dc:title> Daniel McRae</dc:title>
          </cc:Agent>
        </dc:rights>
        <dc:date></dc:date>
        <dc:format>image/svg+xml</dc:format>
        <dc:type rdf:resource="http://purl.org/dc/dcmitype/StillImage"/>
        <cc:license rdf:resource="http://web.resource.org/cc/PublicDomain"/>
        <dc:language>en</dc:language>
      </cc:Work>
      <cc:License rdf:about="http://web.resource.org/cc/PublicDomain">
        <cc:permits rdf:resource="http://web.resource.org/cc/Reproduction"/>
        <cc:permits rdf:resource="http://web.resource.org/cc/Distribution"/>
        <cc:permits rdf:resource="http://web.resource.org/cc/DerivativeWorks"/>
      </cc:License>
    </rdf:RDF>
  </metadata>
  <defs id="defs611"/>
  <g id="g579" style="font-size:12;" transform="scale(0.500000,0.500000)">
    <g id="g617">
      <rect height="1000" id="rect614" style="fill:#000099;fill-rule:evenodd;stroke-width:1pt;" width="2000.00000" x="0" y="0"/>
      <path d="M 530 0 L 1530 1000 L 1530 0 L 530 0 z " id="path615" style="fill:#ffcc00;fill-rule:evenodd;stroke-width:1pt;"/>
    </g>
    <g id="g629" transform="translate(15.45776,2.761536)">
      <polygon id="polygon621" points="326,-109 347.329,-43.3566 416.35,-43.3566 360.511,-2.78677 381.84,62.8566 326,22.2868 270.16,62.8566 291.489,-2.78677 235.65,-43.3566 304.671,-43.3566 326,-109 " style="fill:#ffffff;fill-rule:evenodd;stroke-width:1pt;"/>
      <polygon id="polygon622" points="326,-109 347.329,-43.3566 416.35,-43.3566 360.511,-2.78677 381.84,62.8566 326,22.2868 270.16,62.8566 291.489,-2.78677 235.65,-43.3566 304.671,-43.3566 326,-109 " style="fill:#ffffff;fill-rule:evenodd;stroke-width:1pt;" transform="translate(125.0000,125.0000)"/>
      <polygon id="polygon616" points="326,-109 347.329,-43.3566 416.35,-43.3566 360.511,-2.78677 381.84,62.8566 326,22.2868 270.16,62.8566 291.489,-2.78677 235.65,-43.3566 304.671,-43.3566 326,-109 " style="fill:#ffffff;fill-rule:evenodd;stroke-width:1pt;" transform="translate(250.0000,250.0000)"/>
      <polygon id="polygon623" points="326,-109 347.329,-43.3566 416.35,-43.3566 360.511,-2.78677 381.84,62.8566 326,22.2868 270.16,62.8566 291.489,-2.78677 235.65,-43.3566 304.671,-43.3566 326,-109 " style="fill:#ffffff;fill-rule:evenodd;stroke-width:1pt;" transform="translate(375.0000,375.0000)"/>
      <polygon id="polygon624" points="326,-109 347.329,-43.3566 416.35,-43.3566 360.511,-2.78677 381.84,62.8566 326,22.2868 270.16,62.8566 291.489,-2.78677 235.65,-43.3566 304.671,-43.3566 326,-109 " style="fill:#ffffff;fill-rule:evenodd;stroke-width:1pt;" transform="translate(500.0000,500.0000)"/>
      <polygon id="polygon625" points="326,-109 347.329,-43.3566 416.35,-43.3566 360.511,-2.78677 381.84,62.8566 326,22.2868 270.16,62.8566 291.489,-2.78677 235.65,-43.3566 304.671,-43.3566 326,-109 " style="fill:#ffffff;fill-rule:evenodd;stroke-width:1pt;" transform="translate(625.0000,625.0000)"/>
      <polygon id="polygon626" points="326,-109 347.329,-43.3566 416.35,-43.3566 360.511,-2.78677 381.84,62.8566 326,22.2868 270.16,62.8566 291.489,-2.78677 235.65,-43.3566 304.671,-43.3566 326,-109 " style="fill:#ffffff;fill-rule:evenodd;stroke-width:1pt;" transform="translate(750.0000,750.0000)"/>
      <polygon id="polygon627" points="326,-109 347.329,-43.3566 416.35,-43.3566 360.511,-2.78677 381.84,62.8566 326,22.2868 270.16,62.8566 291.489,-2.78677 235.65,-43.3566 304.671,-43.3566 326,-109 " style="fill:#ffffff;fill-rule:evenodd;stroke-width:1pt;" transform="translate(875.0000,875.0000)"/>
      <polygon id="polygon628" points="326,-109 347.329,-43.3566 416.35,-43.3566 360.511,-2.78677 381.84,62.8566 326,22.2868 270.16,62.8566 291.489,-2.78677 235.65,-43.3566 304.671,-43.3566 326,-109 " style="fill:#ffffff;fill-rule:evenodd;stroke-width:1pt;" transform="translate(1000.000,1000.000)"/>
    </g>
  </g>
</svg>
