<?xml version="1.0" encoding="UTF-8" standalone="no"?>
<!DOCTYPE svg PUBLIC "-//W3C//DTD SVG 20010904//EN"
"http://www.w3.org/TR/2001/REC-SVG-20010904/DTD/svg10.dtd">
<!-- Created with Sodipodi ("http://www.sodipodi.com/") --><svg height="140pt" id="svg548" sodipodi:docbase="/home/yemu/clipart/newnewnew" sodipodi:docname="/home/yemu/clipart/newnewnew/burundi.svg" sodipodi:version="0.33pre" width="234.5pt" xmlns="http://www.w3.org/2000/svg" xmlns:sodipodi="http://sodipodi.sourceforge.net/DTD/sodipodi-0.dtd" xmlns:xlink="http://www.w3.org/1999/xlink">
  <metadata>
    <rdf:RDF xmlns:cc="http://web.resource.org/cc/" xmlns:dc="http://purl.org/dc/elements/1.1/" xmlns:rdf="http://www.w3.org/1999/02/22-rdf-syntax-ns#">
      <cc:Work rdf:about="">
        <dc:title> burundi</dc:title>
        <dc:description></dc:description>
        <dc:subject>
          <rdf:Bag>
            <rdf:li></rdf:li>
            <rdf:li>united_nations_member</rdf:li>
            <rdf:li>flag</rdf:li>
            <rdf:li>africa</rdf:li>
            <rdf:li>sign</rdf:li>
          </rdf:Bag>
        </dc:subject>
        <dc:publisher>
          <cc:Agent rdf:about="http://www.openclipart.org">
            <dc:title> Cezary Biele</dc:title>
          </cc:Agent>
        </dc:publisher>
        <dc:creator>
          <cc:Agent>
            <dc:title>Cezary Biele</dc:title>
          </cc:Agent>
        </dc:creator>
        <dc:rights>
          <cc:Agent>
            <dc:title> Cezary Biele</dc:title>
          </cc:Agent>
        </dc:rights>
        <dc:date></dc:date>
        <dc:format>image/svg+xml</dc:format>
        <dc:type rdf:resource="http://purl.org/dc/dcmitype/StillImage"/>
        <cc:license rdf:resource="http://web.resource.org/cc/PublicDomain"/>
        <dc:language>en</dc:language>
      </cc:Work>
      <cc:License rdf:about="http://web.resource.org/cc/PublicDomain">
        <cc:permits rdf:resource="http://web.resource.org/cc/Reproduction"/>
        <cc:permits rdf:resource="http://web.resource.org/cc/Distribution"/>
        <cc:permits rdf:resource="http://web.resource.org/cc/DerivativeWorks"/>
      </cc:License>
    </rdf:RDF>
  </metadata>
  <defs id="defs550"/>
  <sodipodi:namedview id="base"/>
  <path d="M 0 0 L 60 30 L 0 60 z " id="path551" style="font-size:12;fill-rule:evenodd;stroke-width:1pt;fill:#00cf00;fill-opacity:1;" transform="matrix(2.442708,0.000000,0.000000,2.916667,1.907349e-5,0.000000)"/>
  <path d="M 120 0 L 60 30 L 120 60 z" id="path552" style="font-size:12;fill-rule:evenodd;stroke-width:1pt;fill:#00cf00;fill-opacity:1;" transform="matrix(2.442708,0.000000,0.000000,2.916667,1.907349e-5,0.000000)"/>
  <path d="M 0 0 L 60 30 L 120 0 z " id="path556" style="font-size:12;fill:#ff0000;fill-rule:evenodd;stroke-width:1pt;fill-opacity:1;" transform="matrix(2.442708,0.000000,0.000000,2.916667,1.907349e-5,0.000000)"/>
  <path d="M 0 60 L 60 30 L 120 60 z " id="path557" style="font-size:12;fill:#ff0000;fill-rule:evenodd;stroke-width:1pt;fill-opacity:1;" transform="matrix(2.442708,0.000000,0.000000,2.916667,1.907349e-5,0.000000)"/>
  <path d="M 120 0 L 108.81966011250105151795413165634 0 L 0 54.409830056250525758977065828172 L 0 60 L 11.180339887498948482045868343656 60 L 120 5.5901699437494742410229341718282 z" id="path558" style="font-size:12;fill:#ffffff;fill-rule:evenodd;stroke-width:1pt;fill-opacity:1;" transform="matrix(2.442708,0.000000,0.000000,2.916667,1.907349e-5,0.000000)"/>
  <path d="M 196.839005 88.135818 A 50.604351 50.604351 0 1 0 95.630295,88.135818 A 50.6044 50.6044 0 1 0 196.839 88.1358 L 146.234650 88.135818 z" id="path571" sodipodi:cx="146.234650" sodipodi:cy="88.135818" sodipodi:rx="50.604351" sodipodi:ry="50.604351" sodipodi:type="arc" style="fill-rule:evenodd;stroke:none;fill:#ffffff;fill-opacity:1;stroke-opacity:1;stroke-width:1pt;stroke-linejoin:miter;stroke-linecap:butt;" transform="translate(0.327845,-0.635834)"/>
  <path d="M 0 0 L 0 5.5901699437494742410229341718282 L 108.81966011250105151795413165634 60 L 120 60 L 120 54.409830056250525758977065828172 L 11.180339887498948482045868343656 0 z" id="path566" style="font-size:12;fill:#ffffff;fill-rule:evenodd;stroke-width:1pt;fill-opacity:1;" transform="matrix(2.442708,0.000000,0.000000,2.916667,1.907349e-5,0.000000)"/>
  <polygon id="polygon576" points="134.281,105.867 127.705,105.98 124.297,111.605 120.911,105.967 114.335,105.828 117.525,100.076 114.358,94.3119 120.934,94.1988 124.342,88.5739 127.728,94.2123 134.304,94.3515 131.114,100.103 134.281,105.867 " sodipodi:arg1="0.52558392" sodipodi:arg2="1.04918265" sodipodi:cx="124.319382" sodipodi:cy="100.089600" sodipodi:r1="11.5157557" sodipodi:r2="6.79429579" sodipodi:sides="6" sodipodi:type="star" style="font-size:12;fill:#ff0000;fill-rule:evenodd;stroke-width:1pt;fill-opacity:1;stroke:#00de00;stroke-opacity:1;" transform="translate(22.24312,-37.45520)"/>
  <polygon id="polygon577" points="134.281,105.867 127.705,105.98 124.297,111.605 120.911,105.967 114.335,105.828 117.525,100.076 114.358,94.3119 120.934,94.1988 124.342,88.5739 127.728,94.2123 134.304,94.3515 131.114,100.103 134.281,105.867 " sodipodi:arg1="0.52558392" sodipodi:arg2="1.04918265" sodipodi:cx="124.319382" sodipodi:cy="100.089600" sodipodi:r1="11.5157557" sodipodi:r2="6.79429579" sodipodi:sides="6" sodipodi:type="star" style="font-size:12;fill:#ff0000;fill-rule:evenodd;stroke-width:1pt;fill-opacity:1;stroke:#00de00;stroke-opacity:1;" transform="translate(0.199236,0.697308)"/>
  <polygon id="polygon578" points="134.281,105.867 127.705,105.98 124.297,111.605 120.911,105.967 114.335,105.828 117.525,100.076 114.358,94.3119 120.934,94.1988 124.342,88.5739 127.728,94.2123 134.304,94.3515 131.114,100.103 134.281,105.867 " sodipodi:arg1="0.52558392" sodipodi:arg2="1.04918265" sodipodi:cx="124.319382" sodipodi:cy="100.089600" sodipodi:r1="11.5157557" sodipodi:r2="6.79429579" sodipodi:sides="6" sodipodi:type="star" style="font-size:12;fill:#ff0000;fill-rule:evenodd;stroke-width:1pt;fill-opacity:1;stroke:#00de00;stroke-opacity:1;" transform="translate(44.82670,0.697308)"/>
</svg>
