<?xml version="1.0" encoding="UTF-8" standalone="no"?>
<!DOCTYPE svg PUBLIC "-//W3C//DTD SVG 20010904//EN"
"http://www.w3.org/TR/2001/REC-SVG-20010904/DTD/svg10.dtd">
<!-- Created with Sodipodi ("http://www.sodipodi.com/") --><svg height="140mm" id="svg548" sodipodi:docbase="/home/scarlet/" sodipodi:docname="/home/scarlet/Belarus-normal.svg" sodipodi:version="0.32" width="280mm" xmlns="http://www.w3.org/2000/svg" xmlns:sodipodi="http://sodipodi.sourceforge.net/DTD/sodipodi-0.dtd" xmlns:xlink="http://www.w3.org/1999/xlink">
  <metadata>
    <rdf:RDF xmlns:cc="http://web.resource.org/cc/" xmlns:dc="http://purl.org/dc/elements/1.1/" xmlns:rdf="http://www.w3.org/1999/02/22-rdf-syntax-ns#">
      <cc:Work rdf:about="">
        <dc:title> belarus</dc:title>
        <dc:description></dc:description>
        <dc:subject>
          <rdf:Bag>
            <rdf:li></rdf:li>
            <rdf:li>europe</rdf:li>
            <rdf:li>united_nations_member</rdf:li>
            <rdf:li>flag</rdf:li>
            <rdf:li>sign</rdf:li>
          </rdf:Bag>
        </dc:subject>
        <dc:publisher>
          <cc:Agent rdf:about="http://www.openclipart.org">
            <dc:title> Caleb Moore</dc:title>
          </cc:Agent>
        </dc:publisher>
        <dc:creator>
          <cc:Agent>
            <dc:title>Caleb Moore</dc:title>
          </cc:Agent>
        </dc:creator>
        <dc:rights>
          <cc:Agent>
            <dc:title> Caleb Moore</dc:title>
          </cc:Agent>
        </dc:rights>
        <dc:date></dc:date>
        <dc:format>image/svg+xml</dc:format>
        <dc:type rdf:resource="http://purl.org/dc/dcmitype/StillImage"/>
        <cc:license rdf:resource="http://web.resource.org/cc/PublicDomain"/>
        <dc:language>en</dc:language>
      </cc:Work>
      <cc:License rdf:about="http://web.resource.org/cc/PublicDomain">
        <cc:permits rdf:resource="http://web.resource.org/cc/Reproduction"/>
        <cc:permits rdf:resource="http://web.resource.org/cc/Distribution"/>
        <cc:permits rdf:resource="http://web.resource.org/cc/DerivativeWorks"/>
      </cc:License>
    </rdf:RDF>
  </metadata>
  <defs id="defs550"/>
  <sodipodi:namedview gridspacingx="1mm" gridspacingy="2mm" id="base" showgrid="false" snaptogrid="false"/>
  <rect height="329.527527" id="rect1535" style="font-size:12;fill:#b20000;fill-rule:evenodd;stroke-width:1pt;" transform="translate(0.000000,-1.525879e-5)" width="992.125916" x="0.000000" y="0.000043"/>
  <rect height="166.535451" id="rect2026" style="font-size:12;fill:#429f00;fill-rule:evenodd;stroke-width:1pt;" transform="translate(0.000000,-1.525879e-5)" width="992.125977" x="0.000000" y="329.527581"/>
  <rect height="496.062988" id="rect1291" style="font-size:12;fill:#ffffff;fill-rule:evenodd;stroke-width:1.00035pt;" transform="translate(0.000000,-3.051758e-5)" width="109.842523" x="0.000000" y="-0.000105"/>
  <g id="g1528" transform="matrix(0.295238,0.000000,0.000000,0.237288,141.2251,142.9333)">
    <rect height="7.086561" id="rect557" style="font-size:12;fill:#b20000;fill-rule:evenodd;stroke-width:1pt;" transform="matrix(4.999998,0.000000,0.000000,5.000001,549.2122,-35.43306)" width="3.543293" x="-201.968475" y="-106.299180"/>
    <rect height="7.086561" id="rect560" style="font-size:12;fill:#b20000;fill-rule:evenodd;stroke-width:1pt;" transform="matrix(4.999998,0.000000,0.000000,5.000001,549.2122,-35.43306)" width="10.629917" x="-191.338562" y="-106.299180"/>
    <rect height="7.086636" id="rect561" style="font-size:12;fill:#b20000;fill-rule:evenodd;stroke-width:1pt;" transform="matrix(4.999998,0.000000,0.000000,5.000001,549.2122,-35.43306)" width="3.543300" x="-187.795273" y="-113.385819"/>
    <rect height="7.086561" id="rect562" style="font-size:12;fill:#b20000;fill-rule:evenodd;stroke-width:1pt;" transform="matrix(4.999998,0.000000,0.000000,5.000001,549.2122,-35.43306)" width="3.543300" x="-170.078751" y="-113.385774"/>
    <rect height="7.086561" id="rect563" style="font-size:12;fill:#b20000;fill-rule:evenodd;stroke-width:1pt;" transform="matrix(4.999998,0.000000,0.000000,5.000001,549.2122,-35.43306)" width="10.629917" x="-155.905563" y="-106.299165"/>
    <rect height="7.086636" id="rect564" style="font-size:12;fill:#b20000;fill-rule:evenodd;stroke-width:1pt;" transform="matrix(4.999998,0.000000,0.000000,5.000001,549.2122,-35.43306)" width="3.543300" x="-152.362228" y="-113.385804"/>
    <rect height="7.086636" id="rect565" style="font-size:12;fill:#b20000;fill-rule:evenodd;stroke-width:1pt;" transform="matrix(4.999998,0.000000,0.000000,5.000001,549.2122,-35.43306)" width="7.086601" x="-194.881866" y="-99.212618"/>
    <rect height="7.086636" id="rect566" style="font-size:12;fill:#b20000;fill-rule:evenodd;stroke-width:1pt;" transform="matrix(4.999998,0.000000,0.000000,5.000001,549.2122,-35.43306)" width="7.086601" x="-184.251968" y="-99.212618"/>
    <rect height="7.086636" id="rect567" style="font-size:12;fill:#b20000;fill-rule:evenodd;stroke-width:1pt;" transform="matrix(4.999998,0.000000,0.000000,5.000001,549.2122,-35.43306)" width="7.086616" x="-159.448853" y="-99.212610"/>
    <rect height="7.086636" id="rect568" style="font-size:12;fill:#b20000;fill-rule:evenodd;stroke-width:1pt;" transform="matrix(4.999998,0.000000,0.000000,5.000001,549.2122,-35.43306)" width="7.086601" x="-148.818924" y="-99.212610"/>
    <rect height="7.086636" id="rect569" style="font-size:12;fill:#b20000;fill-rule:evenodd;stroke-width:1pt;" transform="matrix(4.999998,0.000000,0.000000,5.000001,549.2122,-35.43306)" width="7.086609" x="-198.425186" y="-92.125979"/>
    <rect height="7.086636" id="rect570" style="font-size:12;fill:#b20000;fill-rule:evenodd;stroke-width:1pt;" transform="matrix(4.999998,0.000000,0.000000,5.000001,549.2122,-35.43306)" width="7.086601" x="-180.708649" y="-92.125979"/>
    <rect height="7.086636" id="rect571" style="font-size:12;fill:#b20000;fill-rule:evenodd;stroke-width:1pt;" transform="matrix(4.999998,0.000000,0.000000,5.000001,549.2122,-35.43306)" width="7.086601" x="-162.992142" y="-92.125948"/>
    <rect height="7.086636" id="rect572" style="font-size:12;fill:#b20000;fill-rule:evenodd;stroke-width:1pt;" transform="matrix(4.999998,0.000000,0.000000,5.000001,549.2122,-35.43306)" width="7.086601" x="-145.275635" y="-92.125971"/>
    <rect height="7.086561" id="rect573" style="font-size:12;fill:#b20000;fill-rule:evenodd;stroke-width:1pt;" transform="matrix(4.999998,0.000000,0.000000,5.000001,549.2122,-35.43306)" width="3.543316" x="-138.189041" y="-106.299165"/>
    <rect height="7.086561" id="rect574" style="font-size:12;fill:#b20000;fill-rule:evenodd;stroke-width:1pt;" transform="matrix(4.999998,0.000000,0.000000,5.000001,549.2122,-35.43306)" width="7.086601" x="-201.968475" y="-85.039347"/>
    <rect height="7.086561" id="rect575" style="font-size:12;fill:#b20000;fill-rule:evenodd;stroke-width:1pt;" transform="matrix(4.999998,0.000000,0.000000,5.000001,549.2122,-35.43306)" width="7.086620" x="-177.165359" y="-85.039363"/>
    <rect height="7.086561" id="rect576" style="font-size:12;fill:#b20000;fill-rule:evenodd;stroke-width:1pt;" transform="matrix(4.999998,0.000000,0.000000,5.000001,549.2122,-35.43306)" width="7.086616" x="-141.732346" y="-85.039332"/>
    <rect height="7.086636" id="rect577" style="font-size:12;fill:#b20000;fill-rule:evenodd;stroke-width:1pt;" transform="matrix(4.999998,0.000000,0.000000,5.000001,549.2122,-35.43306)" width="7.086609" x="-198.425186" y="-63.779518"/>
    <rect height="7.086636" id="rect578" style="font-size:12;fill:#b20000;fill-rule:evenodd;stroke-width:1pt;" transform="matrix(4.999998,0.000000,0.000000,5.000001,549.2122,-35.43306)" width="7.086601" x="-194.881882" y="-56.692879"/>
    <rect height="7.086636" id="rect580" style="font-size:12;fill:#b20000;fill-rule:evenodd;stroke-width:1pt;" transform="matrix(4.999998,0.000000,0.000000,5.000001,549.2122,-35.43306)" width="7.086601" x="-180.708664" y="-63.779518"/>
    <rect height="7.086636" id="rect581" style="font-size:12;fill:#b20000;fill-rule:evenodd;stroke-width:1pt;" transform="matrix(4.999998,0.000000,0.000000,5.000001,549.2122,-35.43306)" width="7.086601" x="-184.251999" y="-56.692879"/>
    <rect height="7.086561" id="rect582" style="font-size:12;fill:#b20000;fill-rule:evenodd;stroke-width:1pt;" transform="matrix(4.999998,0.000000,0.000000,5.000001,549.2122,-35.43306)" width="10.629917" x="-191.338577" y="-49.606248"/>
    <rect height="7.086636" id="rect583" style="font-size:12;fill:#b20000;fill-rule:evenodd;stroke-width:1pt;" transform="matrix(4.999998,0.000000,0.000000,5.000001,549.2122,-35.43306)" width="3.543300" x="-187.795288" y="-42.519685"/>
    <rect height="7.086636" id="rect584" style="font-size:12;fill:#b20000;fill-rule:evenodd;stroke-width:1pt;" transform="matrix(4.999998,0.000000,0.000000,5.000001,549.2122,-35.43306)" width="7.086601" x="-162.992172" y="-63.779495"/>
    <rect height="7.086636" id="rect585" style="font-size:12;fill:#b20000;fill-rule:evenodd;stroke-width:1pt;" transform="matrix(4.999998,0.000000,0.000000,5.000001,549.2122,-35.43306)" width="7.086616" x="-159.448868" y="-56.692872"/>
    <rect height="7.086636" id="rect587" style="font-size:12;fill:#b20000;fill-rule:evenodd;stroke-width:1pt;" transform="matrix(4.999998,0.000000,0.000000,5.000001,549.2122,-35.43306)" width="7.086601" x="-145.275650" y="-63.779511"/>
    <rect height="7.086636" id="rect588" style="font-size:12;fill:#b20000;fill-rule:evenodd;stroke-width:1pt;" transform="matrix(4.999998,0.000000,0.000000,5.000001,549.2122,-35.43306)" width="7.086601" x="-148.818954" y="-56.692872"/>
    <rect height="7.086561" id="rect589" style="font-size:12;fill:#b20000;fill-rule:evenodd;stroke-width:1pt;" transform="matrix(4.999998,0.000000,0.000000,5.000001,549.2122,-35.43306)" width="10.629917" x="-155.905579" y="-49.606240"/>
    <rect height="7.086636" id="rect590" style="font-size:12;fill:#b20000;fill-rule:evenodd;stroke-width:1pt;" transform="matrix(4.999998,0.000000,0.000000,5.000001,549.2122,-35.43306)" width="3.543300" x="-152.362259" y="-42.519677"/>
    <rect height="7.086561" id="rect591" style="font-size:12;fill:#b20000;fill-rule:evenodd;stroke-width:1pt;" transform="matrix(4.999998,0.000000,0.000000,5.000001,549.2122,-35.43306)" width="3.543300" x="-170.078751" y="-49.606263"/>
    <rect height="7.086639" id="rect592" style="font-size:12;fill:#b20000;fill-rule:evenodd;stroke-width:1pt;" transform="matrix(4.999998,0.000000,0.000000,5.000001,549.2122,-35.43306)" width="3.543293" x="-205.511780" y="-49.606286"/>
    <rect height="7.086639" id="rect593" style="font-size:12;fill:#b20000;fill-rule:evenodd;stroke-width:1pt;" transform="matrix(4.999998,0.000000,0.000000,5.000001,549.2122,-35.43306)" width="3.543316" x="-134.645737" y="-49.606278"/>
    <rect height="7.086608" id="rect594" style="font-size:12;fill:#b20000;fill-rule:evenodd;stroke-width:1pt;" transform="matrix(4.999998,0.000000,0.000000,5.000001,549.2122,-35.43306)" width="3.543300" x="-187.795288" y="-14.173196"/>
    <rect height="7.086639" id="rect595" style="font-size:12;fill:#b20000;fill-rule:evenodd;stroke-width:1pt;" transform="matrix(4.999998,0.000000,0.000000,5.000001,549.2122,-35.43306)" width="10.629917" x="-191.338577" y="-7.086587"/>
    <rect height="7.086595" id="rect596" style="font-size:12;fill:#b20000;fill-rule:evenodd;stroke-width:1pt;" transform="matrix(4.999998,0.000000,0.000000,5.000001,549.2122,-35.43306)" width="17.716503" x="-194.881882" y="0.000068"/>
    <rect height="7.086608" id="rect597" style="font-size:12;fill:#b20000;fill-rule:evenodd;stroke-width:1pt;" transform="matrix(4.999998,0.000000,0.000000,5.000001,549.2122,-35.43306)" width="3.543300" x="-152.362259" y="-14.173212"/>
    <rect height="7.086639" id="rect598" style="font-size:12;fill:#b20000;fill-rule:evenodd;stroke-width:1pt;" transform="matrix(4.999998,0.000000,0.000000,5.000001,549.2122,-35.43306)" width="10.629917" x="-155.905563" y="-7.086556"/>
    <rect height="7.086595" id="rect599" style="font-size:12;fill:#b20000;fill-rule:evenodd;stroke-width:1pt;" transform="matrix(4.999998,0.000000,0.000000,5.000001,549.2122,-35.43306)" width="17.716518" x="-159.448853" y="0.000068"/>
    <rect height="7.086608" id="rect600" style="font-size:12;fill:#b20000;fill-rule:evenodd;stroke-width:1pt;" transform="matrix(4.999998,0.000000,0.000000,5.000001,549.2122,-35.43306)" width="17.716515" x="-155.905563" y="35.433080"/>
    <rect height="7.086608" id="rect601" style="font-size:12;fill:#b20000;fill-rule:evenodd;stroke-width:1pt;" transform="matrix(4.999998,0.000000,0.000000,5.000001,549.2122,-35.43306)" width="24.803135" x="-162.992134" y="7.086631"/>
    <rect height="7.086639" id="rect602" style="font-size:12;fill:#b20000;fill-rule:evenodd;stroke-width:1pt;" transform="matrix(4.999998,0.000000,0.000000,5.000001,549.2122,-35.43306)" width="24.803129" x="-198.425186" y="7.086646"/>
    <rect height="7.086624" id="rect604" style="font-size:12;fill:#b20000;fill-rule:evenodd;stroke-width:1pt;" transform="matrix(4.999998,0.000000,0.000000,5.000001,549.2122,-35.43306)" width="10.629893" x="-194.881882" y="42.519689"/>
    <rect height="7.086595" id="rect605" style="font-size:12;fill:#b20000;fill-rule:evenodd;stroke-width:1pt;" transform="matrix(4.999998,0.000000,0.000000,5.000001,549.2122,-35.43306)" width="17.716545" x="-198.425201" y="35.433096"/>
    <rect height="7.086595" id="rect606" style="font-size:12;fill:#b20000;fill-rule:evenodd;stroke-width:1pt;" transform="matrix(4.999998,0.000000,0.000000,5.000001,549.2122,-35.43306)" width="17.716503" x="-148.818924" y="21.259862"/>
    <rect height="7.086624" id="rect607" style="font-size:12;fill:#b20000;fill-rule:evenodd;stroke-width:1pt;" transform="matrix(4.999998,0.000000,0.000000,5.000001,549.2122,-35.43306)" width="10.629920" x="-152.362274" y="42.519674"/>
    <rect height="7.086608" id="rect609" style="font-size:12;fill:#b20000;fill-rule:evenodd;stroke-width:1pt;" transform="matrix(4.999998,0.000000,0.000000,5.000001,549.2122,-35.43306)" width="3.543291" x="-191.338562" y="49.606316"/>
    <rect height="7.086608" id="rect610" style="font-size:12;fill:#b20000;fill-rule:evenodd;stroke-width:1pt;" transform="matrix(4.999998,0.000000,0.000000,5.000001,549.2122,-35.43306)" width="3.543300" x="-148.818924" y="49.606297"/>
    <rect height="7.086639" id="rect611" style="font-size:12;fill:#b20000;fill-rule:evenodd;stroke-width:1pt;" transform="matrix(4.999998,0.000000,0.000000,5.000001,549.2122,-35.43306)" width="17.716515" x="-205.511780" y="21.259846"/>
    <rect height="7.086595" id="rect612" style="font-size:12;fill:#b20000;fill-rule:evenodd;stroke-width:1pt;" transform="matrix(4.999998,0.000000,0.000000,5.000001,549.2122,-35.43306)" width="10.629893" x="-173.622055" y="35.433130"/>
    <rect height="7.086624" id="rect614" style="font-size:12;fill:#b20000;fill-rule:evenodd;stroke-width:1pt;" transform="matrix(4.999998,0.000000,0.000000,5.000001,549.2122,-35.43306)" width="3.543300" x="-170.078781" y="42.519765"/>
    <rect height="7.086624" id="rect615" style="font-size:12;fill:#b20000;fill-rule:evenodd;stroke-width:1pt;" transform="matrix(4.999998,0.000000,0.000000,5.000001,549.2122,-35.43306)" width="24.803106" x="-180.708649" y="21.259835"/>
    <rect height="7.086639" id="rect616" style="font-size:12;fill:#b20000;fill-rule:evenodd;stroke-width:1pt;" transform="matrix(4.999998,0.000000,0.000000,5.000001,549.2122,-35.43306)" width="7.086616" x="-166.535446" y="-85.039378"/>
    <rect height="7.086602" id="rect617" style="font-size:12;fill:#b20000;fill-rule:evenodd;stroke-width:1pt;" transform="matrix(4.999998,0.000000,0.000000,5.000001,549.2122,-35.43306)" width="10.629901" x="-173.622055" y="-77.952739"/>
    <rect height="7.086602" id="rect618" style="font-size:12;fill:#b20000;fill-rule:evenodd;stroke-width:1pt;" transform="matrix(4.999998,0.000000,0.000000,5.000001,549.2122,-35.43306)" width="7.086616" x="-177.165359" y="-70.866130"/>
    <rect height="7.086602" id="rect619" style="font-size:12;fill:#b20000;fill-rule:evenodd;stroke-width:1pt;" transform="matrix(4.999998,0.000000,0.000000,5.000001,549.2122,-35.43306)" width="7.086616" x="-166.535446" y="-70.866130"/>
    <rect height="7.086602" id="rect620" style="font-size:12;fill:#b20000;fill-rule:evenodd;stroke-width:1pt;" transform="matrix(4.999998,0.000000,0.000000,5.000001,549.2122,-35.43306)" width="7.086601" x="-205.511780" y="-77.952739"/>
    <rect height="7.086602" id="rect621" style="font-size:12;fill:#b20000;fill-rule:evenodd;stroke-width:1pt;" transform="matrix(4.999998,0.000000,0.000000,5.000001,549.2122,-35.43306)" width="7.086601" x="-201.968475" y="-70.866130"/>
    <rect height="7.086602" id="rect622" style="font-size:12;fill:#b20000;fill-rule:evenodd;stroke-width:1pt;" transform="matrix(4.999998,0.000000,0.000000,5.000001,549.2122,-35.43306)" width="7.086616" x="-138.189026" y="-77.952739"/>
    <rect height="7.086602" id="rect623" style="font-size:12;fill:#b20000;fill-rule:evenodd;stroke-width:1pt;" transform="matrix(4.999998,0.000000,0.000000,5.000001,549.2122,-35.43306)" width="7.086585" x="-141.732315" y="-70.866130"/>
    <rect height="7.086639" id="rect624" style="font-size:12;fill:#b20000;fill-rule:evenodd;stroke-width:1pt;" transform="matrix(4.999998,0.000000,0.000000,5.000001,549.2122,-35.43306)" width="3.543293" x="-205.511780" y="-7.086618"/>
    <rect height="7.086639" id="rect625" style="font-size:12;fill:#b20000;fill-rule:evenodd;stroke-width:1pt;" transform="matrix(4.999998,0.000000,0.000000,5.000001,549.2122,-35.43306)" width="3.543285" x="-134.645737" y="-7.086649"/>
    <rect height="7.086624" id="rect664" style="font-size:12;fill:#b20000;fill-rule:evenodd;stroke-width:1pt;" transform="matrix(4.999998,0.000000,0.000000,5.000001,549.2122,-35.43306)" width="10.629901" x="-173.622070" y="49.606316"/>
    <rect height="7.086624" id="rect665" style="font-size:12;fill:#b20000;fill-rule:evenodd;stroke-width:1pt;" transform="matrix(4.999998,0.000000,0.000000,5.000001,549.2122,-35.43306)" width="7.086616" x="-177.165390" y="56.692940"/>
    <rect height="7.086624" id="rect666" style="font-size:12;fill:#b20000;fill-rule:evenodd;stroke-width:1pt;" transform="matrix(4.999998,0.000000,0.000000,5.000001,549.2122,-35.43306)" width="7.086616" x="-166.535477" y="56.692940"/>
    <rect height="7.086595" id="rect667" style="font-size:12;fill:#b20000;fill-rule:evenodd;stroke-width:1pt;" transform="matrix(4.999998,0.000000,0.000000,5.000001,549.2122,-35.43306)" width="7.086601" x="-180.708664" y="63.779564"/>
    <rect height="7.086595" id="rect668" style="font-size:12;fill:#b20000;fill-rule:evenodd;stroke-width:1pt;" transform="matrix(4.999998,0.000000,0.000000,5.000001,549.2122,-35.43306)" width="7.086616" x="-162.992172" y="63.779564"/>
    <rect height="7.086624" id="rect669" style="font-size:12;fill:#b20000;fill-rule:evenodd;stroke-width:1pt;" transform="matrix(4.999998,0.000000,0.000000,5.000001,549.2122,-35.43306)" width="7.086601" x="-184.251999" y="70.866153"/>
    <rect height="7.086624" id="rect670" style="font-size:12;fill:#b20000;fill-rule:evenodd;stroke-width:1pt;" transform="matrix(4.999998,0.000000,0.000000,5.000001,549.2122,-35.43306)" width="7.086601" x="-159.448853" y="70.866153"/>
    <rect height="7.086624" id="rect671" style="font-size:12;fill:#b20000;fill-rule:evenodd;stroke-width:1pt;" transform="matrix(4.999998,0.000000,0.000000,5.000001,549.2122,-35.43306)" width="7.086616" x="-187.795288" y="77.952777"/>
    <rect height="7.086624" id="rect672" style="font-size:12;fill:#b20000;fill-rule:evenodd;stroke-width:1pt;" transform="matrix(4.999998,0.000000,0.000000,5.000001,549.2122,-35.43306)" width="7.086601" x="-155.905563" y="77.952777"/>
    <rect height="7.086595" id="rect673" style="font-size:12;fill:#b20000;fill-rule:evenodd;stroke-width:1pt;" transform="matrix(4.999998,0.000000,0.000000,5.000001,549.2122,-35.43306)" width="10.629901" x="-194.881882" y="85.039408"/>
    <rect height="7.086595" id="rect674" style="font-size:12;fill:#b20000;fill-rule:evenodd;stroke-width:1pt;" transform="matrix(4.999998,0.000000,0.000000,5.000001,549.2122,-35.43306)" width="10.629917" x="-152.362259" y="85.039408"/>
    <rect height="7.086624" id="rect675" style="font-size:12;fill:#b20000;fill-rule:evenodd;stroke-width:1pt;" transform="matrix(4.999998,0.000000,0.000000,5.000001,549.2122,-35.43306)" width="7.086616" x="-145.275650" y="77.952777"/>
    <rect height="7.086624" id="rect676" style="font-size:12;fill:#b20000;fill-rule:evenodd;stroke-width:1pt;" transform="matrix(4.999998,0.000000,0.000000,5.000001,549.2122,-35.43306)" width="7.086586" x="-141.732346" y="70.866153"/>
    <rect height="7.086595" id="rect677" style="font-size:12;fill:#b20000;fill-rule:evenodd;stroke-width:1pt;" transform="matrix(4.999998,0.000000,0.000000,5.000001,549.2122,-35.43306)" width="7.086635" x="-138.189041" y="63.779530"/>
    <rect height="7.086624" id="rect680" style="font-size:12;fill:#b20000;fill-rule:evenodd;stroke-width:1pt;" transform="matrix(4.999998,0.000000,0.000000,5.000001,549.2122,-35.43306)" width="7.086609" x="-198.425201" y="77.952777"/>
    <rect height="7.086624" id="rect681" style="font-size:12;fill:#b20000;fill-rule:evenodd;stroke-width:1pt;" transform="matrix(4.999998,0.000000,0.000000,5.000001,549.2122,-35.43306)" width="7.086601" x="-201.968491" y="70.866153"/>
    <rect height="7.086595" id="rect682" style="font-size:12;fill:#b20000;fill-rule:evenodd;stroke-width:1pt;" transform="matrix(4.999998,0.000000,0.000000,5.000001,549.2122,-35.43306)" width="7.086586" x="-205.511780" y="63.779549"/>
    <rect height="7.086624" id="rect683" style="font-size:12;fill:#b20000;fill-rule:evenodd;stroke-width:1pt;" transform="matrix(4.999998,0.000000,0.000000,5.000001,549.2122,-35.43306)" width="3.543300" x="-191.338593" y="92.125986"/>
    <rect height="7.086624" id="rect685" style="font-size:12;fill:#b20000;fill-rule:evenodd;stroke-width:1pt;" transform="matrix(4.999998,0.000000,0.000000,5.000001,549.2122,-35.43306)" width="3.543300" x="-148.818954" y="92.125986"/>
    <rect height="7.086624" id="rect708" style="font-size:12;fill:#b20000;fill-rule:evenodd;stroke-width:1pt;" transform="matrix(4.999998,0.000000,0.000000,5.000001,549.2122,-35.43306)" width="3.543300" x="-170.078781" y="70.866153"/>
    <rect height="7.086624" id="rect709" style="font-size:12;fill:#b20000;fill-rule:evenodd;stroke-width:1pt;" transform="matrix(4.999998,0.000000,0.000000,5.000001,549.2122,-35.43306)" width="3.543285" x="-180.708664" y="92.125986"/>
    <rect height="7.086624" id="rect711" style="font-size:12;fill:#b20000;fill-rule:evenodd;stroke-width:1pt;" transform="matrix(4.999998,0.000000,0.000000,5.000001,549.2122,-35.43306)" width="3.543300" x="-159.448853" y="92.125986"/>
    <rect height="7.086624" id="rect712" style="font-size:12;fill:#b20000;fill-rule:evenodd;stroke-width:1pt;" transform="matrix(4.999998,0.000000,0.000000,5.000001,549.2122,-35.43306)" width="3.543300" x="-170.078781" y="92.125986"/>
    <rect height="7.086624" id="rect721" style="font-size:12;fill:#b20000;fill-rule:evenodd;stroke-width:1pt;" transform="matrix(4.999998,0.000000,0.000000,5.000001,549.2122,-35.43306)" width="3.543293" x="-205.511780" y="92.125986"/>
    <rect height="7.086624" id="rect722" style="font-size:12;fill:#b20000;fill-rule:evenodd;stroke-width:1pt;" transform="matrix(4.999998,0.000000,0.000000,5.000001,549.2122,-35.43306)" width="3.543285" x="-134.645737" y="92.125986"/>
    <rect height="7.086561" id="rect723" style="font-size:12;fill:#b20000;fill-rule:evenodd;stroke-width:1pt;" transform="matrix(4.999998,0.000000,0.000000,5.000001,549.2122,-35.43306)" width="3.543300" x="-170.078751" y="-7.086603"/>
    <rect height="7.086602" id="rect881" style="font-size:12;fill:#b20000;fill-rule:evenodd;stroke-width:1pt;" transform="matrix(4.999998,0.000000,0.000000,5.000001,549.2122,-35.43306)" width="3.543300" x="-187.795273" y="-77.952739"/>
    <rect height="7.086602" id="rect882" style="font-size:12;fill:#b20000;fill-rule:evenodd;stroke-width:1pt;" transform="matrix(4.999998,0.000000,0.000000,5.000001,549.2122,-35.43306)" width="3.543300" x="-152.362228" y="-77.952739"/>
    <rect height="7.086608" id="rect883" style="font-size:12;fill:#b20000;fill-rule:evenodd;stroke-width:1pt;" transform="matrix(4.999998,0.000000,0.000000,5.000001,549.2122,-35.43306)" width="10.629901" x="-173.622055" y="-28.346461"/>
    <rect height="7.086639" id="rect887" style="font-size:12;fill:#b20000;fill-rule:evenodd;stroke-width:1pt;" transform="matrix(4.999998,0.000000,0.000000,5.000001,549.2122,-35.43306)" width="10.629901" x="-180.708649" y="-21.259850"/>
    <rect height="7.086595" id="rect888" style="font-size:12;fill:#b20000;fill-rule:evenodd;stroke-width:1pt;" transform="matrix(4.999998,0.000000,0.000000,5.000001,549.2122,-35.43306)" width="3.543315" x="-177.165359" y="-14.173212"/>
    <rect height="7.086608" id="rect889" style="font-size:12;fill:#b20000;fill-rule:evenodd;stroke-width:1pt;" transform="matrix(4.999998,0.000000,0.000000,5.000001,549.2122,-35.43306)" width="7.086601" x="-184.251968" y="-28.346461"/>
    <rect height="7.086595" id="rect890" style="font-size:12;fill:#b20000;fill-rule:evenodd;stroke-width:1pt;" transform="matrix(4.999998,0.000000,0.000000,5.000001,549.2122,-35.43306)" width="10.629901" x="-180.708649" y="-35.433054"/>
    <rect height="7.086639" id="rect891" style="font-size:12;fill:#b20000;fill-rule:evenodd;stroke-width:1pt;" transform="matrix(4.999998,0.000000,0.000000,5.000001,549.2122,-35.43306)" width="3.543315" x="-177.165359" y="-42.519693"/>
    <rect height="7.086595" id="rect893" style="font-size:12;fill:#b20000;fill-rule:evenodd;stroke-width:1pt;" transform="matrix(4.999998,0.000000,0.000000,5.000001,549.2122,-35.43306)" width="10.629917" x="-166.535446" y="-35.433054"/>
    <rect height="7.086639" id="rect894" style="font-size:12;fill:#b20000;fill-rule:evenodd;stroke-width:1pt;" transform="matrix(4.999998,0.000000,0.000000,5.000001,549.2122,-35.43306)" width="3.543315" x="-162.992142" y="-42.519693"/>
    <rect height="7.086608" id="rect895" style="font-size:12;fill:#b20000;fill-rule:evenodd;stroke-width:1pt;" transform="matrix(4.999998,0.000000,0.000000,5.000001,549.2122,-35.43306)" width="7.086601" x="-159.448837" y="-28.346461"/>
    <rect height="7.086639" id="rect896" style="font-size:12;fill:#b20000;fill-rule:evenodd;stroke-width:1pt;" transform="matrix(4.999998,0.000000,0.000000,5.000001,549.2122,-35.43306)" width="10.629917" x="-166.535446" y="-21.259850"/>
    <rect height="7.086595" id="rect897" style="font-size:12;fill:#b20000;fill-rule:evenodd;stroke-width:1pt;" transform="matrix(4.999998,0.000000,0.000000,5.000001,549.2122,-35.43306)" width="3.543315" x="-162.992142" y="-14.173212"/>
    <rect height="7.086608" id="rect898" style="font-size:12;fill:#b20000;fill-rule:evenodd;stroke-width:1pt;" transform="matrix(4.999998,0.000000,0.000000,5.000001,549.2122,-35.43306)" width="7.086616" x="-148.818924" y="-28.346461"/>
    <rect height="7.086595" id="rect901" style="font-size:12;fill:#b20000;fill-rule:evenodd;stroke-width:1pt;" transform="matrix(4.999998,0.000000,0.000000,5.000001,549.2122,-35.43306)" width="10.629901" x="-145.275635" y="-35.433054"/>
    <rect height="7.086608" id="rect902" style="font-size:12;fill:#b20000;fill-rule:evenodd;stroke-width:1pt;" transform="matrix(4.999998,0.000000,0.000000,5.000001,549.2122,-35.43306)" width="7.086616" x="-138.189026" y="-28.346461"/>
    <rect height="7.086639" id="rect903" style="font-size:12;fill:#b20000;fill-rule:evenodd;stroke-width:1pt;" transform="matrix(4.999998,0.000000,0.000000,5.000001,549.2122,-35.43306)" width="10.629901" x="-145.275635" y="-21.259850"/>
    <rect height="7.086595" id="rect904" style="font-size:12;fill:#b20000;fill-rule:evenodd;stroke-width:1pt;" transform="matrix(4.999998,0.000000,0.000000,5.000001,549.2122,-35.43306)" width="3.543300" x="-141.732315" y="-14.173212"/>
    <rect height="7.086639" id="rect905" style="font-size:12;fill:#b20000;fill-rule:evenodd;stroke-width:1pt;" transform="matrix(4.999998,0.000000,0.000000,5.000001,549.2122,-35.43306)" width="3.543300" x="-141.732315" y="-42.519693"/>
    <rect height="7.086608" id="rect907" style="font-size:12;fill:#b20000;fill-rule:evenodd;stroke-width:1pt;" transform="matrix(4.999998,0.000000,0.000000,5.000001,549.2122,-35.43306)" width="7.086616" x="-205.511826" y="-28.346445"/>
    <rect height="7.086595" id="rect908" style="font-size:12;fill:#b20000;fill-rule:evenodd;stroke-width:1pt;" transform="matrix(4.999998,0.000000,0.000000,5.000001,549.2122,-35.43306)" width="10.629901" x="-201.968506" y="-35.433023"/>
    <rect height="7.086608" id="rect909" style="font-size:12;fill:#b20000;fill-rule:evenodd;stroke-width:1pt;" transform="matrix(4.999998,0.000000,0.000000,5.000001,549.2122,-35.43306)" width="7.086616" x="-194.881897" y="-28.346445"/>
    <rect height="7.086639" id="rect910" style="font-size:12;fill:#b20000;fill-rule:evenodd;stroke-width:1pt;" transform="matrix(4.999998,0.000000,0.000000,5.000001,549.2122,-35.43306)" width="10.629901" x="-201.968506" y="-21.259837"/>
    <rect height="7.086595" id="rect911" style="font-size:12;fill:#b20000;fill-rule:evenodd;stroke-width:1pt;" transform="matrix(4.999998,0.000000,0.000000,5.000001,549.2122,-35.43306)" width="3.543300" x="-198.425201" y="-14.173196"/>
    <rect height="7.086639" id="rect912" style="font-size:12;fill:#b20000;fill-rule:evenodd;stroke-width:1pt;" transform="matrix(4.999998,0.000000,0.000000,5.000001,549.2122,-35.43306)" width="3.543300" x="-198.425201" y="-42.519670"/>
    <rect height="7.086624" id="rect913" style="font-size:12;fill:#b20000;fill-rule:evenodd;stroke-width:1pt;" transform="matrix(4.999998,0.000000,0.000000,5.000001,549.2122,-35.43306)" width="14.173203" x="-201.968475" y="14.173224"/>
    <rect height="7.086624" id="rect914" style="font-size:12;fill:#b20000;fill-rule:evenodd;stroke-width:1pt;" transform="matrix(4.999998,0.000000,0.000000,5.000001,549.2122,-35.43306)" width="14.173217" x="-184.251968" y="14.173224"/>
    <rect height="7.086624" id="rect915" style="font-size:12;fill:#b20000;fill-rule:evenodd;stroke-width:1pt;" transform="matrix(4.999998,0.000000,0.000000,5.000001,549.2122,-35.43306)" width="14.173217" x="-166.535446" y="14.173224"/>
    <rect height="7.086624" id="rect918" style="font-size:12;fill:#b20000;fill-rule:evenodd;stroke-width:1pt;" transform="matrix(4.999998,0.000000,0.000000,5.000001,549.2122,-35.43306)" width="14.173203" x="-148.818924" y="14.173224"/>
    <rect height="7.086595" id="rect919" style="font-size:12;fill:#b20000;fill-rule:evenodd;stroke-width:1pt;" transform="matrix(4.999998,0.000000,0.000000,5.000001,549.2122,-35.43306)" width="17.716532" x="-177.165359" y="28.346472"/>
    <rect height="7.086595" id="rect920" style="font-size:12;fill:#b20000;fill-rule:evenodd;stroke-width:1pt;" transform="matrix(4.999998,0.000000,0.000000,5.000001,549.2122,-35.43306)" width="17.716503" x="-201.968475" y="28.346472"/>
    <rect height="7.086595" id="rect921" style="font-size:12;fill:#b20000;fill-rule:evenodd;stroke-width:1pt;" transform="matrix(4.999998,0.000000,0.000000,5.000001,549.2122,-35.43306)" width="17.716503" x="-152.362228" y="28.346472"/>
    <rect height="7.086624" id="rect922" style="font-size:12;fill:#b20000;fill-rule:evenodd;stroke-width:1pt;" transform="matrix(4.999998,0.000000,0.000000,5.000001,549.2122,-35.43306)" width="3.543331" x="-134.645737" y="56.692906"/>
    <rect height="7.086624" id="rect923" style="font-size:12;fill:#b20000;fill-rule:evenodd;stroke-width:1pt;" transform="matrix(4.999998,0.000000,0.000000,5.000001,549.2122,-35.43306)" width="3.543308" x="-205.511780" y="56.692906"/>
    <rect height="7.086561" id="rect924" style="font-size:12;fill:#b20000;fill-rule:evenodd;stroke-width:1pt;" transform="matrix(4.999998,0.000000,0.000000,-5.000001,549.2122,-35.43306)" width="3.543293" x="-201.968430" y="-297.637792"/>
    <rect height="7.086561" id="rect925" style="font-size:12;fill:#b20000;fill-rule:evenodd;stroke-width:1pt;" transform="matrix(4.999998,0.000000,0.000000,-5.000001,549.2122,-35.43306)" width="10.629917" x="-191.338531" y="-297.637792"/>
    <rect height="7.086636" id="rect926" style="font-size:12;fill:#b20000;fill-rule:evenodd;stroke-width:1pt;" transform="matrix(4.999998,0.000000,0.000000,-5.000001,549.2122,-35.43306)" width="3.543300" x="-187.795227" y="-304.724370"/>
    <rect height="7.086561" id="rect927" style="font-size:12;fill:#b20000;fill-rule:evenodd;stroke-width:1pt;" transform="matrix(4.999998,0.000000,0.000000,-5.000001,549.2122,-35.43306)" width="3.543300" x="-170.078720" y="-304.724370"/>
    <rect height="7.086561" id="rect928" style="font-size:12;fill:#b20000;fill-rule:evenodd;stroke-width:1pt;" transform="matrix(4.999998,0.000000,0.000000,-5.000001,549.2122,-35.43306)" width="10.629917" x="-155.905502" y="-297.637792"/>
    <rect height="7.086636" id="rect929" style="font-size:12;fill:#b20000;fill-rule:evenodd;stroke-width:1pt;" transform="matrix(4.999998,0.000000,0.000000,-5.000001,549.2122,-35.43306)" width="3.543300" x="-152.362198" y="-304.724370"/>
    <rect height="7.086636" id="rect930" style="font-size:12;fill:#b20000;fill-rule:evenodd;stroke-width:1pt;" transform="matrix(4.999998,0.000000,0.000000,-5.000001,549.2122,-35.43306)" width="7.086602" x="-194.881851" y="-290.551184"/>
    <rect height="7.086636" id="rect931" style="font-size:12;fill:#b20000;fill-rule:evenodd;stroke-width:1pt;" transform="matrix(4.999998,0.000000,0.000000,-5.000001,549.2122,-35.43306)" width="7.086602" x="-184.251999" y="-290.551184"/>
    <rect height="7.086636" id="rect932" style="font-size:12;fill:#b20000;fill-rule:evenodd;stroke-width:1pt;" transform="matrix(4.999998,0.000000,0.000000,-5.000001,549.2122,-35.43306)" width="7.086617" x="-159.448837" y="-290.551184"/>
    <rect height="7.086636" id="rect933" style="font-size:12;fill:#b20000;fill-rule:evenodd;stroke-width:1pt;" transform="matrix(4.999998,0.000000,0.000000,-5.000001,549.2122,-35.43306)" width="7.086602" x="-148.818954" y="-290.551184"/>
    <rect height="7.086636" id="rect935" style="font-size:12;fill:#b20000;fill-rule:evenodd;stroke-width:1pt;" transform="matrix(4.999998,0.000000,0.000000,-5.000001,549.2122,-35.43306)" width="7.086602" x="-180.708618" y="-283.464636"/>
    <rect height="7.086636" id="rect936" style="font-size:12;fill:#b20000;fill-rule:evenodd;stroke-width:1pt;" transform="matrix(4.999998,0.000000,0.000000,-5.000001,549.2122,-35.43306)" width="7.086602" x="-162.992142" y="-283.464514"/>
    <rect height="7.086636" id="rect937" style="font-size:12;fill:#b20000;fill-rule:evenodd;stroke-width:1pt;" transform="matrix(4.999998,0.000000,0.000000,-5.000001,549.2122,-35.43306)" width="7.086602" x="-145.275635" y="-283.464636"/>
    <rect height="7.086561" id="rect938" style="font-size:12;fill:#b20000;fill-rule:evenodd;stroke-width:1pt;" transform="matrix(4.999998,0.000000,0.000000,-5.000001,549.2122,-35.43306)" width="3.543316" x="-138.188995" y="-297.637792"/>
    <rect height="7.086561" id="rect939" style="font-size:12;fill:#b20000;fill-rule:evenodd;stroke-width:1pt;" transform="matrix(4.999998,0.000000,0.000000,-5.000001,549.2122,-35.43306)" width="7.086602" x="-201.968445" y="-276.377906"/>
    <rect height="7.086561" id="rect940" style="font-size:12;fill:#b20000;fill-rule:evenodd;stroke-width:1pt;" transform="matrix(4.999998,0.000000,0.000000,-5.000001,549.2122,-35.43306)" width="7.086622" x="-177.165344" y="-276.378028"/>
    <rect height="7.086561" id="rect941" style="font-size:12;fill:#b20000;fill-rule:evenodd;stroke-width:1pt;" transform="matrix(4.999998,0.000000,0.000000,-5.000001,549.2122,-35.43306)" width="7.086617" x="-141.732300" y="-276.377906"/>
    <rect height="7.086636" id="rect942" style="font-size:12;fill:#b20000;fill-rule:evenodd;stroke-width:1pt;" transform="matrix(4.999998,0.000000,0.000000,-5.000001,549.2122,-35.43306)" width="7.086610" x="-198.425186" y="-255.118141"/>
    <rect height="7.086636" id="rect943" style="font-size:12;fill:#b20000;fill-rule:evenodd;stroke-width:1pt;" transform="matrix(4.999998,0.000000,0.000000,-5.000001,549.2122,-35.43306)" width="7.086602" x="-194.881851" y="-248.031411"/>
    <rect height="7.086636" id="rect944" style="font-size:12;fill:#b20000;fill-rule:evenodd;stroke-width:1pt;" transform="matrix(4.999998,0.000000,0.000000,-5.000001,549.2122,-35.43306)" width="7.086602" x="-180.708649" y="-255.118141"/>
    <rect height="7.086636" id="rect945" style="font-size:12;fill:#b20000;fill-rule:evenodd;stroke-width:1pt;" transform="matrix(4.999998,0.000000,0.000000,-5.000001,549.2122,-35.43306)" width="7.086602" x="-184.251999" y="-248.031411"/>
    <rect height="7.086561" id="rect946" style="font-size:12;fill:#b20000;fill-rule:evenodd;stroke-width:1pt;" transform="matrix(4.999998,0.000000,0.000000,-5.000001,549.2122,-35.43306)" width="10.629917" x="-191.338547" y="-240.944863"/>
    <rect height="7.086636" id="rect947" style="font-size:12;fill:#b20000;fill-rule:evenodd;stroke-width:1pt;" transform="matrix(4.999998,0.000000,0.000000,-5.000001,549.2122,-35.43306)" width="3.543300" x="-187.795242" y="-233.858301"/>
    <rect height="7.086636" id="rect948" style="font-size:12;fill:#b20000;fill-rule:evenodd;stroke-width:1pt;" transform="matrix(4.999998,0.000000,0.000000,-5.000001,549.2122,-35.43306)" width="7.086602" x="-162.992142" y="-255.118034"/>
    <rect height="7.086636" id="rect949" style="font-size:12;fill:#b20000;fill-rule:evenodd;stroke-width:1pt;" transform="matrix(4.999998,0.000000,0.000000,-5.000001,549.2122,-35.43306)" width="7.086617" x="-159.448883" y="-248.031411"/>
    <rect height="7.086636" id="rect950" style="font-size:12;fill:#b20000;fill-rule:evenodd;stroke-width:1pt;" transform="matrix(4.999998,0.000000,0.000000,-5.000001,549.2122,-35.43306)" width="7.086602" x="-145.275635" y="-255.118141"/>
    <rect height="7.086636" id="rect951" style="font-size:12;fill:#b20000;fill-rule:evenodd;stroke-width:1pt;" transform="matrix(4.999998,0.000000,0.000000,-5.000001,549.2122,-35.43306)" width="7.086602" x="-148.818954" y="-248.031411"/>
    <rect height="7.086561" id="rect952" style="font-size:12;fill:#b20000;fill-rule:evenodd;stroke-width:1pt;" transform="matrix(4.999998,0.000000,0.000000,-5.000001,549.2122,-35.43306)" width="10.629917" x="-155.905518" y="-240.944863"/>
    <rect height="7.086636" id="rect953" style="font-size:12;fill:#b20000;fill-rule:evenodd;stroke-width:1pt;" transform="matrix(4.999998,0.000000,0.000000,-5.000001,549.2122,-35.43306)" width="3.543300" x="-152.362213" y="-233.858301"/>
    <rect height="7.086561" id="rect954" style="font-size:12;fill:#b20000;fill-rule:evenodd;stroke-width:1pt;" transform="matrix(4.999998,0.000000,0.000000,-5.000001,549.2122,-35.43306)" width="3.543300" x="-170.078720" y="-240.944863"/>
    <rect height="7.086639" id="rect955" style="font-size:12;fill:#b20000;fill-rule:evenodd;stroke-width:1pt;" transform="matrix(4.999998,0.000000,0.000000,-5.000001,549.2122,-35.43306)" width="3.543293" x="-205.511734" y="-240.944940"/>
    <rect height="7.086639" id="rect956" style="font-size:12;fill:#b20000;fill-rule:evenodd;stroke-width:1pt;" transform="matrix(4.999998,0.000000,0.000000,-5.000001,549.2122,-35.43306)" width="3.543316" x="-134.645691" y="-240.944940"/>
    <rect height="7.086608" id="rect957" style="font-size:12;fill:#b20000;fill-rule:evenodd;stroke-width:1pt;" transform="matrix(4.999998,0.000000,0.000000,-5.000001,549.2122,-35.43306)" width="3.543300" x="-187.795242" y="-205.511806"/>
    <rect height="7.086639" id="rect958" style="font-size:12;fill:#b20000;fill-rule:evenodd;stroke-width:1pt;" transform="matrix(4.999998,0.000000,0.000000,-5.000001,549.2122,-35.43306)" width="10.629917" x="-191.338547" y="-198.425212"/>
    <rect height="7.086595" id="rect959" style="font-size:12;fill:#b20000;fill-rule:evenodd;stroke-width:1pt;" transform="matrix(4.999998,0.000000,0.000000,-5.000001,549.2122,-35.43306)" width="17.716503" x="-194.881851" y="-191.338543"/>
    <rect height="7.086608" id="rect960" style="font-size:12;fill:#b20000;fill-rule:evenodd;stroke-width:1pt;" transform="matrix(4.999998,0.000000,0.000000,-5.000001,549.2122,-35.43306)" width="3.543300" x="-152.362213" y="-205.511836"/>
    <rect height="7.086639" id="rect961" style="font-size:12;fill:#b20000;fill-rule:evenodd;stroke-width:1pt;" transform="matrix(4.999998,0.000000,0.000000,-5.000001,549.2122,-35.43306)" width="10.629917" x="-155.905502" y="-198.425182"/>
    <rect height="7.086595" id="rect962" style="font-size:12;fill:#b20000;fill-rule:evenodd;stroke-width:1pt;" transform="matrix(4.999998,0.000000,0.000000,-5.000001,549.2122,-35.43306)" width="17.716518" x="-159.448822" y="-191.338543"/>
    <rect height="7.086608" id="rect963" style="font-size:12;fill:#b20000;fill-rule:evenodd;stroke-width:1pt;" transform="matrix(4.999998,0.000000,0.000000,-5.000001,549.2122,-35.43306)" width="17.716515" x="-155.905502" y="-155.905516"/>
    <rect height="7.086608" id="rect964" style="font-size:12;fill:#b20000;fill-rule:evenodd;stroke-width:1pt;" transform="matrix(4.999998,0.000000,0.000000,-5.000001,549.2122,-35.43306)" width="24.803135" x="-162.992126" y="-184.251996"/>
    <rect height="7.086639" id="rect965" style="font-size:12;fill:#b20000;fill-rule:evenodd;stroke-width:1pt;" transform="matrix(4.999998,0.000000,0.000000,-5.000001,549.2122,-35.43306)" width="24.803129" x="-198.425140" y="-184.251996"/>
    <rect height="7.090536" id="rect966" style="font-size:12;fill:#b20000;fill-rule:evenodd;stroke-width:1pt;" transform="matrix(4.999998,0.000000,0.000000,-5.000001,549.2122,-35.43306)" width="10.629893" x="-194.881866" y="-148.816878"/>
    <rect height="7.086595" id="rect967" style="font-size:12;fill:#b20000;fill-rule:evenodd;stroke-width:1pt;" transform="matrix(4.999998,0.000000,0.000000,-5.000001,549.2122,-35.43306)" width="17.716545" x="-198.425171" y="-155.905516"/>
    <rect height="7.086595" id="rect968" style="font-size:12;fill:#b20000;fill-rule:evenodd;stroke-width:1pt;" transform="matrix(4.999998,0.000000,0.000000,-5.000001,549.2122,-35.43306)" width="17.716533" x="-148.818901" y="-170.078751"/>
    <rect height="7.086624" id="rect969" style="font-size:12;fill:#b20000;fill-rule:evenodd;stroke-width:1pt;" transform="matrix(4.999998,0.000000,0.000000,-5.000001,549.2122,-35.43306)" width="10.629920" x="-152.362228" y="-148.818938"/>
    <rect height="7.086639" id="rect970" style="font-size:12;fill:#b20000;fill-rule:evenodd;stroke-width:1pt;" transform="matrix(4.999998,0.000000,0.000000,-5.000001,549.2122,-35.43306)" width="17.716515" x="-205.511749" y="-170.078763"/>
    <rect height="7.086595" id="rect971" style="font-size:12;fill:#b20000;fill-rule:evenodd;stroke-width:1pt;" transform="matrix(4.999998,0.000000,0.000000,-5.000001,549.2122,-35.43306)" width="10.629893" x="-173.622009" y="-155.905501"/>
    <rect height="7.086624" id="rect972" style="font-size:12;fill:#b20000;fill-rule:evenodd;stroke-width:1pt;" transform="matrix(4.999998,0.000000,0.000000,-5.000001,549.2122,-35.43306)" width="3.543300" x="-170.078735" y="-148.818846"/>
    <rect height="7.086624" id="rect973" style="font-size:12;fill:#b20000;fill-rule:evenodd;stroke-width:1pt;" transform="matrix(4.999998,0.000000,0.000000,-5.000001,549.2122,-35.43306)" width="24.803106" x="-180.708618" y="-170.078763"/>
    <rect height="7.086639" id="rect974" style="font-size:12;fill:#b20000;fill-rule:evenodd;stroke-width:1pt;" transform="matrix(4.999998,0.000000,0.000000,-5.000001,549.2122,-35.43306)" width="7.086617" x="-166.535416" y="-276.378028"/>
    <rect height="7.086600" id="rect975" style="font-size:12;fill:#b20000;fill-rule:evenodd;stroke-width:1pt;" transform="matrix(4.999998,0.000000,0.000000,-5.000001,549.2122,-35.43306)" width="10.629902" x="-173.622009" y="-269.291328"/>
    <rect height="7.086600" id="rect976" style="font-size:12;fill:#b20000;fill-rule:evenodd;stroke-width:1pt;" transform="matrix(4.999998,0.000000,0.000000,-5.000001,549.2122,-35.43306)" width="7.086617" x="-177.165344" y="-262.204658"/>
    <rect height="7.086600" id="rect977" style="font-size:12;fill:#b20000;fill-rule:evenodd;stroke-width:1pt;" transform="matrix(4.999998,0.000000,0.000000,-5.000001,549.2122,-35.43306)" width="7.086617" x="-166.535416" y="-262.204658"/>
    <rect height="7.086600" id="rect978" style="font-size:12;fill:#b20000;fill-rule:evenodd;stroke-width:1pt;" transform="matrix(4.999998,0.000000,0.000000,-5.000001,549.2122,-35.43306)" width="7.086602" x="-205.511780" y="-269.291328"/>
    <rect height="7.086600" id="rect979" style="font-size:12;fill:#b20000;fill-rule:evenodd;stroke-width:1pt;" transform="matrix(4.999998,0.000000,0.000000,-5.000001,549.2122,-35.43306)" width="7.086602" x="-201.968445" y="-262.204658"/>
    <rect height="7.086601" id="rect980" style="font-size:12;fill:#b20000;fill-rule:evenodd;stroke-width:1pt;" transform="matrix(4.999998,0.000000,0.000000,-5.000001,549.2122,-35.43306)" width="7.086608" x="-138.188980" y="-269.291319"/>
    <rect height="7.086600" id="rect981" style="font-size:12;fill:#b20000;fill-rule:evenodd;stroke-width:1pt;" transform="matrix(4.999998,0.000000,0.000000,-5.000001,549.2122,-35.43306)" width="7.086587" x="-141.732300" y="-262.204658"/>
    <rect height="7.086639" id="rect982" style="font-size:12;fill:#b20000;fill-rule:evenodd;stroke-width:1pt;" transform="matrix(4.999998,0.000000,0.000000,-5.000001,549.2122,-35.43306)" width="3.543293" x="-205.511734" y="-198.425228"/>
    <rect height="7.086639" id="rect983" style="font-size:12;fill:#b20000;fill-rule:evenodd;stroke-width:1pt;" transform="matrix(4.999998,0.000000,0.000000,-5.000001,549.2122,-35.43306)" width="3.543285" x="-134.645691" y="-198.425258"/>
    <rect height="7.086624" id="rect984" style="font-size:12;fill:#b20000;fill-rule:evenodd;stroke-width:1pt;" transform="matrix(4.999998,0.000000,0.000000,-5.000001,549.2122,-35.43306)" width="7.086616" x="-177.165344" y="-134.645675"/>
    <rect height="7.086624" id="rect985" style="font-size:12;fill:#b20000;fill-rule:evenodd;stroke-width:1pt;" transform="matrix(4.999998,0.000000,0.000000,-5.000001,549.2122,-35.43306)" width="7.086616" x="-166.535431" y="-134.645675"/>
    <rect height="7.086595" id="rect986" style="font-size:12;fill:#b20000;fill-rule:evenodd;stroke-width:1pt;" transform="matrix(4.999998,0.000000,0.000000,-5.000001,549.2122,-35.43306)" width="7.086601" x="-180.708633" y="-127.559052"/>
    <rect height="7.086595" id="rect987" style="font-size:12;fill:#b20000;fill-rule:evenodd;stroke-width:1pt;" transform="matrix(4.999998,0.000000,0.000000,-5.000001,549.2122,-35.43306)" width="7.086616" x="-162.992126" y="-127.559052"/>
    <rect height="7.086624" id="rect988" style="font-size:12;fill:#b20000;fill-rule:evenodd;stroke-width:1pt;" transform="matrix(4.999998,0.000000,0.000000,-5.000001,549.2122,-35.43306)" width="7.086601" x="-184.251938" y="-120.472451"/>
    <rect height="7.086624" id="rect989" style="font-size:12;fill:#b20000;fill-rule:evenodd;stroke-width:1pt;" transform="matrix(4.999998,0.000000,0.000000,-5.000001,549.2122,-35.43306)" width="7.086601" x="-159.448822" y="-120.472451"/>
    <rect height="7.086624" id="rect990" style="font-size:12;fill:#b20000;fill-rule:evenodd;stroke-width:1pt;" transform="matrix(4.999998,0.000000,0.000000,-5.000001,549.2122,-35.43306)" width="7.086616" x="-187.795258" y="-113.385835"/>
    <rect height="7.086624" id="rect991" style="font-size:12;fill:#b20000;fill-rule:evenodd;stroke-width:1pt;" transform="matrix(4.999998,0.000000,0.000000,-5.000001,549.2122,-35.43306)" width="7.086601" x="-155.905502" y="-113.385835"/>
    <rect height="7.086595" id="rect992" style="font-size:12;fill:#b20000;fill-rule:evenodd;stroke-width:1pt;" transform="matrix(4.999998,0.000000,0.000000,-5.000001,549.2122,-35.43306)" width="10.629901" x="-194.881851" y="-106.299234"/>
    <rect height="7.086595" id="rect993" style="font-size:12;fill:#b20000;fill-rule:evenodd;stroke-width:1pt;" transform="matrix(4.999998,0.000000,0.000000,-5.000001,549.2122,-35.43306)" width="10.629917" x="-152.362213" y="-106.299234"/>
    <rect height="7.086624" id="rect994" style="font-size:12;fill:#b20000;fill-rule:evenodd;stroke-width:1pt;" transform="matrix(4.999998,0.000000,0.000000,-5.000001,549.2122,-35.43306)" width="7.086616" x="-145.275620" y="-113.385835"/>
    <rect height="7.086624" id="rect995" style="font-size:12;fill:#b20000;fill-rule:evenodd;stroke-width:1pt;" transform="matrix(4.999998,0.000000,0.000000,-5.000001,549.2122,-35.43306)" width="7.086586" x="-141.732285" y="-120.472451"/>
    <rect height="7.086595" id="rect996" style="font-size:12;fill:#b20000;fill-rule:evenodd;stroke-width:1pt;" transform="matrix(4.999998,0.000000,0.000000,-5.000001,549.2122,-35.43306)" width="7.086635" x="-138.188995" y="-127.559090"/>
    <rect height="7.086624" id="rect997" style="font-size:12;fill:#b20000;fill-rule:evenodd;stroke-width:1pt;" transform="matrix(4.999998,0.000000,0.000000,-5.000001,549.2122,-35.43306)" width="7.086609" x="-198.425171" y="-113.385835"/>
    <rect height="7.086624" id="rect998" style="font-size:12;fill:#b20000;fill-rule:evenodd;stroke-width:1pt;" transform="matrix(4.999998,0.000000,0.000000,-5.000001,549.2122,-35.43306)" width="7.086601" x="-201.968445" y="-120.472451"/>
    <rect height="7.086595" id="rect999" style="font-size:12;fill:#b20000;fill-rule:evenodd;stroke-width:1pt;" transform="matrix(4.999998,0.000000,0.000000,-5.000001,549.2122,-35.43306)" width="7.086586" x="-205.511749" y="-127.559052"/>
    <rect height="7.086624" id="rect1000" style="font-size:12;fill:#b20000;fill-rule:evenodd;stroke-width:1pt;" transform="matrix(4.999998,0.000000,0.000000,-5.000001,549.2122,-35.43306)" width="3.543300" x="-191.338562" y="-99.212656"/>
    <rect height="7.086624" id="rect1002" style="font-size:12;fill:#b20000;fill-rule:evenodd;stroke-width:1pt;" transform="matrix(4.999998,0.000000,0.000000,-5.000001,549.2122,-35.43306)" width="3.543300" x="-170.078720" y="-120.472451"/>
    <rect height="7.086561" id="rect1011" style="font-size:12;fill:#b20000;fill-rule:evenodd;stroke-width:1pt;" transform="matrix(4.999998,0.000000,0.000000,-5.000001,549.2122,-35.43306)" width="3.543300" x="-170.078720" y="-198.425212"/>
    <rect height="7.086600" id="rect1012" style="font-size:12;fill:#b20000;fill-rule:evenodd;stroke-width:1pt;" transform="matrix(4.999998,0.000000,0.000000,-5.000001,549.2122,-35.43306)" width="3.543301" x="-187.795258" y="-269.291328"/>
    <rect height="7.086600" id="rect1013" style="font-size:12;fill:#b20000;fill-rule:evenodd;stroke-width:1pt;" transform="matrix(4.999998,0.000000,0.000000,-5.000001,549.2122,-35.43306)" width="3.543301" x="-152.362213" y="-269.291328"/>
    <rect height="7.086608" id="rect1014" style="font-size:12;fill:#b20000;fill-rule:evenodd;stroke-width:1pt;" transform="matrix(4.999998,0.000000,0.000000,-5.000001,549.2122,-35.43306)" width="10.629901" x="-173.622009" y="-219.685068"/>
    <rect height="7.086639" id="rect1015" style="font-size:12;fill:#b20000;fill-rule:evenodd;stroke-width:1pt;" transform="matrix(4.999998,0.000000,0.000000,-5.000001,549.2122,-35.43306)" width="10.629901" x="-180.708618" y="-212.598475"/>
    <rect height="7.086595" id="rect1016" style="font-size:12;fill:#b20000;fill-rule:evenodd;stroke-width:1pt;" transform="matrix(4.999998,0.000000,0.000000,-5.000001,549.2122,-35.43306)" width="3.543316" x="-177.165329" y="-205.511836"/>
    <rect height="7.086608" id="rect1017" style="font-size:12;fill:#b20000;fill-rule:evenodd;stroke-width:1pt;" transform="matrix(4.999998,0.000000,0.000000,-5.000001,549.2122,-35.43306)" width="7.086601" x="-184.251938" y="-219.685068"/>
    <rect height="7.086595" id="rect1018" style="font-size:12;fill:#b20000;fill-rule:evenodd;stroke-width:1pt;" transform="matrix(4.999998,0.000000,0.000000,-5.000001,549.2122,-35.43306)" width="10.629901" x="-180.708618" y="-226.771677"/>
    <rect height="7.086639" id="rect1019" style="font-size:12;fill:#b20000;fill-rule:evenodd;stroke-width:1pt;" transform="matrix(4.999998,0.000000,0.000000,-5.000001,549.2122,-35.43306)" width="3.543316" x="-177.165329" y="-233.858301"/>
    <rect height="7.086595" id="rect1020" style="font-size:12;fill:#b20000;fill-rule:evenodd;stroke-width:1pt;" transform="matrix(4.999998,0.000000,0.000000,-5.000001,549.2122,-35.43306)" width="10.629917" x="-166.535416" y="-226.771677"/>
    <rect height="7.086639" id="rect1021" style="font-size:12;fill:#b20000;fill-rule:evenodd;stroke-width:1pt;" transform="matrix(4.999998,0.000000,0.000000,-5.000001,549.2122,-35.43306)" width="3.543316" x="-162.992126" y="-233.858301"/>
    <rect height="7.086608" id="rect1022" style="font-size:12;fill:#b20000;fill-rule:evenodd;stroke-width:1pt;" transform="matrix(4.999998,0.000000,0.000000,-5.000001,549.2122,-35.43306)" width="7.086601" x="-159.448792" y="-219.685068"/>
    <rect height="7.086639" id="rect1023" style="font-size:12;fill:#b20000;fill-rule:evenodd;stroke-width:1pt;" transform="matrix(4.999998,0.000000,0.000000,-5.000001,549.2122,-35.43306)" width="10.629917" x="-166.535416" y="-212.598475"/>
    <rect height="7.086595" id="rect1024" style="font-size:12;fill:#b20000;fill-rule:evenodd;stroke-width:1pt;" transform="matrix(4.999998,0.000000,0.000000,-5.000001,549.2122,-35.43306)" width="3.543316" x="-162.992126" y="-205.511836"/>
    <rect height="7.086608" id="rect1025" style="font-size:12;fill:#b20000;fill-rule:evenodd;stroke-width:1pt;" transform="matrix(4.999998,0.000000,0.000000,-5.000001,549.2122,-35.43306)" width="7.086616" x="-148.818909" y="-219.685068"/>
    <rect height="7.086595" id="rect1026" style="font-size:12;fill:#b20000;fill-rule:evenodd;stroke-width:1pt;" transform="matrix(4.999998,0.000000,0.000000,-5.000001,549.2122,-35.43306)" width="10.629901" x="-145.275604" y="-226.771677"/>
    <rect height="7.086608" id="rect1027" style="font-size:12;fill:#b20000;fill-rule:evenodd;stroke-width:1pt;" transform="matrix(4.999998,0.000000,0.000000,-5.000001,549.2122,-35.43306)" width="7.086616" x="-138.188980" y="-219.685068"/>
    <rect height="7.086639" id="rect1028" style="font-size:12;fill:#b20000;fill-rule:evenodd;stroke-width:1pt;" transform="matrix(4.999998,0.000000,0.000000,-5.000001,549.2122,-35.43306)" width="10.629901" x="-145.275604" y="-212.598475"/>
    <rect height="7.086595" id="rect1029" style="font-size:12;fill:#b20000;fill-rule:evenodd;stroke-width:1pt;" transform="matrix(4.999998,0.000000,0.000000,-5.000001,549.2122,-35.43306)" width="3.543300" x="-141.732285" y="-205.511836"/>
    <rect height="7.086639" id="rect1030" style="font-size:12;fill:#b20000;fill-rule:evenodd;stroke-width:1pt;" transform="matrix(4.999998,0.000000,0.000000,-5.000001,549.2122,-35.43306)" width="3.543300" x="-141.732285" y="-233.858301"/>
    <rect height="7.086608" id="rect1031" style="font-size:12;fill:#b20000;fill-rule:evenodd;stroke-width:1pt;" transform="matrix(4.999998,0.000000,0.000000,-5.000001,549.2122,-35.43306)" width="7.086616" x="-205.511780" y="-219.685068"/>
    <rect height="7.086595" id="rect1032" style="font-size:12;fill:#b20000;fill-rule:evenodd;stroke-width:1pt;" transform="matrix(4.999998,0.000000,0.000000,-5.000001,549.2122,-35.43306)" width="10.629901" x="-201.968475" y="-226.771646"/>
    <rect height="7.086608" id="rect1033" style="font-size:12;fill:#b20000;fill-rule:evenodd;stroke-width:1pt;" transform="matrix(4.999998,0.000000,0.000000,-5.000001,549.2122,-35.43306)" width="7.086616" x="-194.881851" y="-219.685068"/>
    <rect height="7.086639" id="rect1034" style="font-size:12;fill:#b20000;fill-rule:evenodd;stroke-width:1pt;" transform="matrix(4.999998,0.000000,0.000000,-5.000001,549.2122,-35.43306)" width="10.629901" x="-201.968475" y="-212.598475"/>
    <rect height="7.086595" id="rect1035" style="font-size:12;fill:#b20000;fill-rule:evenodd;stroke-width:1pt;" transform="matrix(4.999998,0.000000,0.000000,-5.000001,549.2122,-35.43306)" width="3.543300" x="-198.425171" y="-205.511806"/>
    <rect height="7.086639" id="rect1036" style="font-size:12;fill:#b20000;fill-rule:evenodd;stroke-width:1pt;" transform="matrix(4.999998,0.000000,0.000000,-5.000001,549.2122,-35.43306)" width="3.543300" x="-198.425171" y="-233.858301"/>
    <rect height="7.086624" id="rect1037" style="font-size:12;fill:#b20000;fill-rule:evenodd;stroke-width:1pt;" transform="matrix(4.999998,0.000000,0.000000,-5.000001,549.2122,-35.43306)" width="14.173203" x="-201.968430" y="-177.165387"/>
    <rect height="7.086624" id="rect1038" style="font-size:12;fill:#b20000;fill-rule:evenodd;stroke-width:1pt;" transform="matrix(4.999998,0.000000,0.000000,-5.000001,549.2122,-35.43306)" width="14.173217" x="-184.251938" y="-177.165387"/>
    <rect height="7.086624" id="rect1039" style="font-size:12;fill:#b20000;fill-rule:evenodd;stroke-width:1pt;" transform="matrix(4.999998,0.000000,0.000000,-5.000001,549.2122,-35.43306)" width="14.173217" x="-166.535416" y="-177.165387"/>
    <rect height="7.086624" id="rect1040" style="font-size:12;fill:#b20000;fill-rule:evenodd;stroke-width:1pt;" transform="matrix(4.999998,0.000000,0.000000,-5.000001,549.2122,-35.43306)" width="14.173203" x="-148.818909" y="-177.165387"/>
    <rect height="7.086595" id="rect1041" style="font-size:12;fill:#b20000;fill-rule:evenodd;stroke-width:1pt;" transform="matrix(4.999998,0.000000,0.000000,-5.000001,549.2122,-35.43306)" width="17.716532" x="-177.165329" y="-162.992140"/>
    <rect height="7.086595" id="rect1042" style="font-size:12;fill:#b20000;fill-rule:evenodd;stroke-width:1pt;" transform="matrix(4.999998,0.000000,0.000000,-5.000001,549.2122,-35.43306)" width="17.716503" x="-201.968430" y="-162.992140"/>
    <rect height="7.086595" id="rect1043" style="font-size:12;fill:#b20000;fill-rule:evenodd;stroke-width:1pt;" transform="matrix(4.999998,0.000000,0.000000,-5.000001,549.2122,-35.43306)" width="17.716503" x="-152.362198" y="-162.992140"/>
    <rect height="7.086624" id="rect1044" style="font-size:12;fill:#b20000;fill-rule:evenodd;stroke-width:1pt;" transform="matrix(4.999998,0.000000,0.000000,-5.000001,549.2122,-35.43306)" width="3.543331" x="-134.645691" y="-134.645721"/>
    <rect height="7.086624" id="rect1045" style="font-size:12;fill:#b20000;fill-rule:evenodd;stroke-width:1pt;" transform="matrix(4.999998,0.000000,0.000000,-5.000001,549.2122,-35.43306)" width="3.543308" x="-205.511749" y="-134.645721"/>
    <rect height="7.086639" id="rect1046" style="font-size:12;fill:#b20000;fill-rule:evenodd;stroke-width:1pt;" transform="matrix(4.999998,0.000000,0.000000,5.000001,549.2122,-35.43306)" width="3.543300" x="-173.622055" y="99.212587"/>
    <rect height="7.086639" id="rect1047" style="font-size:12;fill:#b20000;fill-rule:evenodd;stroke-width:1pt;" transform="matrix(4.999998,0.000000,0.000000,5.000001,549.2122,-35.43306)" width="3.543300" x="-166.535446" y="99.212587"/>
    <rect height="7.086608" id="rect1048" style="font-size:12;fill:#b20000;fill-rule:evenodd;stroke-width:1pt;" transform="matrix(4.999998,0.000000,0.000000,5.000001,549.2122,-35.43306)" width="3.543300" x="-166.535446" y="85.039378"/>
    <rect height="7.086608" id="rect1049" style="font-size:12;fill:#b20000;fill-rule:evenodd;stroke-width:1pt;" transform="matrix(4.999998,0.000000,0.000000,5.000001,549.2122,-35.43306)" width="3.543300" x="-173.622055" y="85.039378"/>
    <rect height="7.086608" id="rect1050" style="font-size:12;fill:#b20000;fill-rule:evenodd;stroke-width:1pt;" transform="matrix(4.999998,0.000000,0.000000,5.000001,549.2122,-35.43306)" width="7.086609" x="-198.425186" y="276.377967"/>
    <rect height="7.086555" id="rect1521" style="font-size:12;fill:#b20000;fill-rule:evenodd;stroke-width:1pt;" transform="matrix(4.999998,0.000000,0.000000,-5.000001,549.2122,-35.43306)" width="3.543289" x="-148.818878" y="-141.732241"/>
    <rect height="7.086555" id="rect1522" style="font-size:12;fill:#b20000;fill-rule:evenodd;stroke-width:1pt;" transform="matrix(4.999998,0.000000,0.000000,-5.000001,549.2122,-35.43306)" width="3.543289" x="-191.338562" y="-141.732224"/>
    <rect height="35.432982" id="rect1527" style="font-size:12;fill:#b20000;fill-rule:evenodd;stroke-width:1pt;" width="53.149446" x="-318.897603" y="637.795345"/>
  </g>
</svg>
