<?xml version="1.0" encoding="UTF-8" standalone="no"?>
<!-- Created with Inkscape (http://www.inkscape.org/) -->
<svg
   xmlns:dc="http://purl.org/dc/elements/1.1/"
   xmlns:cc="http://web.resource.org/cc/"
   xmlns:rdf="http://www.w3.org/1999/02/22-rdf-syntax-ns#"
   xmlns:svg="http://www.w3.org/2000/svg"
   xmlns="http://www.w3.org/2000/svg"
   xmlns:sodipodi="http://inkscape.sourceforge.net/DTD/sodipodi-0.dtd"
   xmlns:inkscape="http://www.inkscape.org/namespaces/inkscape"
   width="600"
   height="300"
   id="svg5778"
   sodipodi:version="0.32"
   inkscape:version="0.43"
   version="1.0"
   sodipodi:docbase="C:\Documents and Settings\David Nelson\Archives\Svg"
   sodipodi:docname="Flag of the Cocos (Keeling) Islands.svg">
  <defs
     id="defs5780" />
  <sodipodi:namedview
     id="base"
     pagecolor="#ffffff"
     bordercolor="#666666"
     borderopacity="1.0"
     inkscape:pageopacity="0.0"
     inkscape:pageshadow="2"
     inkscape:zoom="1.1083332"
     inkscape:cx="300.00003"
     inkscape:cy="149.99998"
     inkscape:document-units="px"
     inkscape:current-layer="layer1"
     inkscape:window-width="756"
     inkscape:window-height="540"
     inkscape:window-x="83"
     inkscape:window-y="187" />
  <metadata
     id="metadata5783">
    <rdf:RDF>
      <cc:Work
         rdf:about="">
        <dc:format>image/svg+xml</dc:format>
        <dc:type
           rdf:resource="http://purl.org/dc/dcmitype/StillImage" />
      </cc:Work>
    </rdf:RDF>
  </metadata>
  <g
     inkscape:label="Layer 1"
     inkscape:groupmode="layer"
     id="layer1">
    <rect
       style="fill:#008000;fill-opacity:1;fill-rule:evenodd;stroke:none;stroke-width:1;stroke-linecap:butt;stroke-linejoin:miter;stroke-miterlimit:4;stroke-dasharray:none;stroke-dashoffset:0;stroke-opacity:1"
       id="rect5930"
       width="600.00006"
       height="300.00003"
       x="0"
       y="2.3706079e-006" />
    <path
       sodipodi:type="arc"
       style="fill:#ffe000;fill-opacity:1;fill-rule:evenodd;stroke:none;stroke-width:0.25;stroke-linecap:butt;stroke-linejoin:miter;stroke-miterlimit:4;stroke-dasharray:none;stroke-dashoffset:0;stroke-opacity:1"
       id="path5927"
       sodipodi:cx="73.407516"
       sodipodi:cy="62.039097"
       sodipodi:rx="46.12331"
       sodipodi:ry="46.12331"
       d="M 119.53083 62.039097 A 46.12331 46.12331 0 1 1  27.284206,62.039097 A 46.12331 46.12331 0 1 1  119.53083 62.039097 z"
       transform="matrix(1.415289,0,0,1.415289,-1.115035,-0.303262)" />
    <path
       style="fill:#802000;fill-opacity:1;fill-rule:evenodd;stroke:#7b3100;stroke-width:1.38888896;stroke-linecap:butt;stroke-linejoin:miter;stroke-miterlimit:4;stroke-dasharray:none;stroke-opacity:1"
       d="M 98.458269,136.87176 L 114.80743,136.87176 C 114.80743,136.87176 115.54541,135.37309 114.6428,134.62375 C 113.74019,133.87442 110.22443,133.70946 111.17428,131.05873 C 113.1271,125.60901 113.39958,127.28934 114.62577,114.34625 C 115.85196,101.40317 116.44234,81.102963 116.44234,81.102963 L 114.0808,81.102963 C 114.0808,81.102963 114.53494,87.415555 113.17251,95.635548 C 111.81008,103.85554 111.40135,104.58217 109.90268,110.89476 C 108.40401,117.20736 108.17694,117.75233 106.81451,121.43089 C 105.45208,125.10945 105.31583,125.29111 103.18136,128.69718 C 101.04689,132.10326 101.81893,130.83166 100.63816,132.8753 C 100.04777,133.89712 99.321141,133.62464 98.923766,134.3683 C 98.52639,135.11196 98.458269,136.87176 98.458269,136.87176 z "
       id="path5923"
       sodipodi:nodetypes="ccsssccssssssc" />
    <g
       style="font-size:12px;fill:#ffe000;fill-opacity:1;stroke:none;stroke-opacity:1"
       id="g596"
       transform="matrix(5,0,0,5,0,-1.481079e-5)">
      <polygon
         id="polygon590"
         points="90,45.7143 90.8264,48.2839 93.3507,47.3279 91.857,49.5761 94.1783,50.9537 91.4892,51.1876 91.8595,53.8613 90,51.9048 88.1405,53.8613 88.5108,51.1876 85.8217,50.9537 88.143,49.5761 86.6493,47.3279 89.1736,48.2839 90,45.7143 "
         style="fill:#ffe000;fill-opacity:1;fill-rule:evenodd;stroke:none;stroke-width:1pt;stroke-opacity:1" />
      <polygon
         id="polygon592"
         points="90,5.71429 90.8264,8.28387 93.3507,7.3279 91.857,9.57615 94.1783,10.9537 91.4892,11.1876 91.8595,13.8613 90,11.9048 88.1405,13.8613 88.5108,11.1876 85.8217,10.9537 88.143,9.57615 86.6493,7.3279 89.1736,8.28387 90,5.71429 "
         style="fill:#ffe000;fill-opacity:1;fill-rule:evenodd;stroke:none;stroke-width:1pt;stroke-opacity:1" />
      <polygon
         id="polygon593"
         points="75,21.9643 75.8264,24.5339 78.3507,23.5779 76.857,25.8262 79.1783,27.2037 76.4892,27.4376 76.8595,30.1113 75,28.1548 73.1405,30.1113 73.5108,27.4376 70.8217,27.2037 73.143,25.8262 71.6493,23.5779 74.1736,24.5339 75,21.9643 "
         style="fill:#ffe000;fill-opacity:1;fill-rule:evenodd;stroke:none;stroke-width:1pt;stroke-opacity:1" />
      <polygon
         id="polygon594"
         points="103.333,17.9643 104.16,20.5339 106.684,19.5779 105.19,21.8262 107.512,23.2037 104.823,23.4376 105.193,26.1113 103.333,24.1548 101.474,26.1113 101.844,23.4376 99.1551,23.2037 101.476,21.8262 99.9826,19.5779 102.507,20.5339 103.333,17.9643 "
         style="fill:#ffe000;fill-opacity:1;fill-rule:evenodd;stroke:none;stroke-width:1pt;stroke-opacity:1" />
      <polygon
         id="polygon595"
         points="96,30 96.6531,31.6011 98.3776,31.7275 97.0567,32.8434 97.4695,34.5225 96,33.6111 94.5305,34.5225 94.9433,32.8434 93.6224,31.7275 95.3469,31.6011 96,30 "
         style="fill:#ffe000;fill-opacity:1;fill-rule:evenodd;stroke:none;stroke-width:1pt;stroke-opacity:1" />
    </g>
    <path
       style="fill:#ffe000;fill-opacity:1;fill-rule:evenodd;stroke:none;stroke-width:0.5;stroke-linecap:butt;stroke-linejoin:miter;stroke-miterlimit:4;stroke-dasharray:none;stroke-dashoffset:0;stroke-opacity:1"
       d="M 300.00002,87.50002 C 265.50001,87.50002 237.50002,115.5 237.50002,150.00002 C 237.50002,184.50004 265.49999,212.50003 300.00002,212.50003 C 316.17491,212.50003 330.782,206.18738 341.88371,196.09378 C 341.06617,196.4925 340.33762,197.03992 339.49655,197.39586 C 336.42049,198.69765 333.20801,199.70521 329.86114,200.39065 C 326.51426,201.0761 323.03644,201.43232 319.48787,201.43232 C 315.9393,201.43232 312.46148,201.0761 309.11461,200.39065 C 305.76773,199.70521 302.55526,198.69765 299.47919,197.39586 C 296.40312,196.09407 293.4914,194.47057 290.75523,192.62156 C 288.01906,190.77254 285.44348,188.69869 283.11634,186.37156 C 280.7892,184.04442 278.67195,181.46883 276.82294,178.73267 C 274.97392,175.9965 273.39383,173.08478 272.09204,170.00871 C 270.79024,166.93264 269.78269,163.72016 269.09724,160.37329 C 268.4118,157.02641 268.05558,153.54859 268.05558,150.00002 C 268.05558,146.45146 268.4118,142.97364 269.09724,139.62676 C 269.78269,136.27988 270.79024,133.06741 272.09204,129.99134 C 273.39383,126.91527 274.97392,124.00355 276.82294,121.26738 C 278.67195,118.53122 280.7892,115.95564 283.11634,113.62849 C 285.44348,111.30135 288.01906,109.22751 290.75523,107.37849 C 293.4914,105.52948 296.40312,103.90597 299.47919,102.60419 C 302.55526,101.3024 305.76773,100.29484 309.11461,99.609396 C 312.46148,98.92395 315.9393,98.567729 319.48787,98.567729 C 323.03644,98.567729 326.51426,98.92395 329.86114,99.609396 C 333.20801,100.29484 336.42049,101.3024 339.49655,102.60419 C 340.33762,102.96013 341.06617,103.50754 341.88371,103.90627 C 330.782,93.812668 316.17491,87.50002 300.00002,87.50002 z "
       id="path5893" />
    <path
       style="fill:#008000;fill-opacity:1;fill-rule:evenodd;stroke:none;stroke-width:0.25;stroke-linecap:butt;stroke-linejoin:miter;stroke-miterlimit:4;stroke-dasharray:none;stroke-opacity:1"
       d="M 110.93751,39.800362 C 111.07332,42.339714 110.81805,45.701466 109.76563,48.437517 C 108.69851,51.486066 107.53808,54.524877 107.59549,57.682309 C 105.89896,58.259363 104.15042,54.011024 102.51737,56.510434 C 103.74498,59.963791 106.57924,62.698225 108.52122,65.809544 C 108.84873,66.774141 111.64252,69.292762 110.02605,69.878491 C 105.94587,68.482057 104.9569,63.312615 102.426,60.172866 C 99.486736,54.889732 94.00673,51.155668 87.90233,50.897997 C 85.609261,50.958074 78.153325,50.329661 80.09322,54.256278 C 82.950162,56.198684 86.470493,57.465211 89.291672,59.64539 C 91.393433,59.842007 95.202992,63.350655 94.980924,64.676347 C 91.284395,63.179164 89.554205,61.384757 85.571547,59.809783 C 80.175214,57.725601 72.711129,58.979198 69.723184,64.334822 C 69.166211,65.729652 68.343896,69.794989 70.095492,70.18231 C 72.142161,66.986757 75.069862,63.414653 79.407795,64.372767 C 82.815189,64.638796 75.605613,70.720613 78.363502,69.496838 C 79.237398,69.109058 81.255368,67.784406 82.655267,67.64607 C 84.055165,67.507734 84.836993,68.555715 85.899127,68.70071 C 88.023394,68.9907 88.608365,69.881239 88.411465,70.399324 C 88.179158,71.010572 87.504254,70.488688 85.344781,71.173365 C 84.265045,71.515704 83.701007,72.464534 82.441583,72.898917 C 81.182159,73.333299 78.562219,73.364088 77.583173,72.978894 C 74.157774,71.491018 68.542162,71.750047 67.474374,76.042437 C 67.473436,77.930014 65.793677,75.833873 65.017366,76.649325 C 64.435252,78.70905 64.2847,80.823874 61.229678,80.636815 C 59.375194,82.582307 57.476117,84.596737 55.121532,85.980923 C 56.503371,89.152585 61.978538,82.795473 61.722581,85.475938 C 59.329098,88.739769 62.954075,89.426524 64.540893,86.914364 C 67.224689,84.07864 70.548878,80.627102 74.553411,83.48474 C 76.460792,85.280503 77.569109,82.535299 78.949659,82.682311 C 79.819439,84.912986 80.913824,82.792097 81.901048,82.161478 C 83.51709,81.960145 83.062409,84.179903 84.982646,82.81252 C 88.809614,80.279728 93.518001,82.407997 97.256355,79.943666 C 101.23562,78.130663 97.815035,81.403927 96.716717,82.683444 C 94.968329,86.074513 96.484596,90.526597 92.692124,92.632311 C 91.168741,96.673672 94.491966,102.00164 91.102438,104.99134 C 90.609367,106.86613 95.461627,106.65142 96.823458,107.4218 C 99.209779,107.51629 96.720903,101.96001 99.08855,101.2153 C 102.26377,103.18073 102.11512,97.700462 101.45942,96.010111 C 101.76723,92.167745 101.98408,87.966463 103.89345,84.486076 C 105.92336,80.220515 107.80215,86.223326 105.52981,87.91212 C 104.23904,91.834517 102.36019,96.742959 105.29515,100.39065 C 106.14103,100.57995 106.83559,102.63025 107.93081,103.26042 C 109.02604,103.89059 110.52195,103.10064 110.79499,101.23532 C 112.19979,95.61813 111.49211,89.577374 113.49827,84.114603 C 114.91425,82.422354 116.86752,83.841743 117.74558,85.397902 C 120.55691,88.661748 122.53305,92.741844 125.93682,95.431096 C 129.03583,96.881246 131.77645,99.074617 133.20474,102.26523 C 133.18563,104.72673 140.19605,105.10402 138.10105,102.36804 C 136.09103,99.70451 137.41727,97.040443 139.45314,95.269118 C 140.54353,95.538053 140.22125,93.58523 139.36633,94.357659 C 137.99756,94.034777 137.91002,91.529591 139.81256,92.720359 C 143.01706,93.754832 139.56274,90.401193 138.4045,90.298317 C 135.69499,88.618829 132.58196,86.686621 131.25001,83.767381 C 134.77714,83.80335 138.43845,85.705707 142.04295,84.525728 C 144.93209,83.041394 147.86255,84.64954 148.87154,87.1962 C 151.10487,86.83981 150.15271,84.600124 148.87154,83.854186 C 150.50506,83.180104 151.63476,81.782457 149.65409,80.549723 C 148.60801,79.184588 151.05683,76.856126 148.04689,76.953144 C 148.14516,74.653938 147.23999,72.550013 144.73377,71.755643 C 142.22315,69.629657 134.85564,74.887788 135.06946,70.095505 C 134.32712,67.48729 138.0622,69.747058 139.10591,68.446199 C 140.18438,65.69658 133.96682,65.964887 136.0184,63.833116 C 137.35833,62.970393 143.64621,61.73108 138.7152,60.808101 C 136.25405,61.484529 134.14184,60.983628 132.20487,59.765643 C 130.43955,62.718191 125.39878,58.162209 126.29703,63.411556 C 125.60745,65.389512 121.10193,70.528861 119.88287,66.591507 C 120.91992,63.505482 126.25761,62.496447 124.60259,58.335729 C 124.34853,55.738359 122.19507,58.78744 121.18057,58.593768 C 120.66683,56.977011 122.73432,55.071288 124.17536,54.687517 C 127.03475,56.886793 127.12136,51.91284 129.84074,52.317495 C 131.82616,51.876372 129.19961,51.024762 128.64584,50.651059 C 129.18993,49.197742 132.23786,48.455087 129.24916,47.193112 C 126.61212,45.236423 124.65758,49.140746 122.48265,49.348975 C 120.39505,46.992111 124.37798,45.85919 125.47744,44.618072 C 125.53651,43.692879 123.15502,44.338944 123.87154,43.533003 C 124.4939,42.420533 128.71089,42.337678 126.73612,40.668419 C 123.76201,39.647401 119.92449,39.901979 117.07077,41.224737 C 115.27296,41.806721 114.74403,45.871677 113.19445,45.703142 C 112.46587,43.893758 113.43167,40.323869 110.93751,39.800362 z M 125.00001,79.513908 C 127.26622,79.130157 125.04812,82.955437 123.95834,82.899325 C 124.05467,81.52482 120.68067,81.657104 122.77399,80.459545 C 123.45285,80.021184 124.20922,79.686813 125.00001,79.513908 z "
       id="path5908"
       sodipodi:nodetypes="cccccccccccccccsssssscccccccccccccccccccccsccccccccccccccccccccccccccccccccccccccccc" />
  </g>
</svg>
