<?xml version="1.0" encoding="UTF-8" standalone="no"?>
<!DOCTYPE svg PUBLIC "-//W3C//DTD SVG 1.0//EN"
"http://www.w3.org/TR/2001/REC-SVG-20010904/DTD/svg10.dtd">
<!-- Created with Sodipodi ("http://www.sodipodi.com/") --><svg height="140mm" id="svg548" sodipodi:docbase="/home/tobias/Desktop/Flags" sodipodi:docname="/home/tobias/Desktop/Flags/Congo-Kinshasa.svg" sodipodi:version="0.33pre" width="210mm" xmlns="http://www.w3.org/2000/svg" xmlns:sodipodi="http://sodipodi.sourceforge.net/DTD/sodipodi-0.dtd" xmlns:xlink="http://www.w3.org/1999/xlink">
  <metadata>
    <rdf:RDF xmlns:cc="http://web.resource.org/cc/" xmlns:dc="http://purl.org/dc/elements/1.1/" xmlns:rdf="http://www.w3.org/1999/02/22-rdf-syntax-ns#">
      <cc:Work rdf:about="">
        <dc:title> congo_kinshasa</dc:title>
        <dc:description></dc:description>
        <dc:subject>
          <rdf:Bag>
            <rdf:li></rdf:li>
            <rdf:li>united_nations_member</rdf:li>
            <rdf:li>flag</rdf:li>
            <rdf:li>africa</rdf:li>
            <rdf:li>sign</rdf:li>
          </rdf:Bag>
        </dc:subject>
        <dc:publisher>
          <cc:Agent rdf:about="http://www.openclipart.org">
            <dc:title> Tobias Jakobs</dc:title>
          </cc:Agent>
        </dc:publisher>
        <dc:creator>
          <cc:Agent>
            <dc:title>Tobias Jakobs</dc:title>
          </cc:Agent>
        </dc:creator>
        <dc:rights>
          <cc:Agent>
            <dc:title> Tobias Jakobs</dc:title>
          </cc:Agent>
        </dc:rights>
        <dc:date></dc:date>
        <dc:format>image/svg+xml</dc:format>
        <dc:type rdf:resource="http://purl.org/dc/dcmitype/StillImage"/>
        <cc:license rdf:resource="http://web.resource.org/cc/PublicDomain"/>
        <dc:language>en</dc:language>
      </cc:Work>
      <cc:License rdf:about="http://web.resource.org/cc/PublicDomain">
        <cc:permits rdf:resource="http://web.resource.org/cc/Reproduction"/>
        <cc:permits rdf:resource="http://web.resource.org/cc/Distribution"/>
        <cc:permits rdf:resource="http://web.resource.org/cc/DerivativeWorks"/>
      </cc:License>
    </rdf:RDF>
  </metadata>
  <defs id="defs550"/>
  <sodipodi:namedview id="base"/>
  <rect height="496.063028" id="rect551" sodipodi:fill-cmyk="(1 0.8 0 0)" style="font-size:12;fill:#0033ff;fill-rule:evenodd;stroke-width:1pt;fill-opacity:1;" width="744.094482" x="0.000000" y="-0.000145"/>
  <polygon id="polygon555" points="192.261,142.49 163.16,121.316 133.996,142.404 145.14,108.184 116.073,86.9639 152.062,86.9881 163.261,52.7857 174.359,87.0209 210.348,87.1025 181.218,108.237 192.261,142.49 " sodipodi:arg1="0.94394743" sodipodi:arg2="1.57226598" sodipodi:cx="163.187744" sodipodi:cy="102.349113" sodipodi:fill-cmyk="(0 0.13 1 0)" sodipodi:r1="49.5634193" sodipodi:r2="18.9669762" sodipodi:sides="5" sodipodi:type="star" style="font-size:12;fill:#ffde00;fill-rule:evenodd;stroke-width:1pt;fill-opacity:1;" transform="matrix(2.324757,0.000000,0.000000,2.328328,-6.617898,-1.763741)"/>
  <polygon id="polygon556" points="192.261,142.49 163.16,121.316 133.996,142.404 145.14,108.184 116.073,86.9639 152.062,86.9881 163.261,52.7857 174.359,87.0209 210.348,87.1025 181.218,108.237 192.261,142.49 " sodipodi:arg1="0.94394743" sodipodi:arg2="1.57226598" sodipodi:cx="163.187744" sodipodi:cy="102.349113" sodipodi:fill-cmyk="(0 0.13 1 0)" sodipodi:r1="49.5634193" sodipodi:r2="18.9669762" sodipodi:sides="5" sodipodi:type="star" style="font-size:12;fill:#ffde00;fill-rule:evenodd;stroke-width:1pt;fill-opacity:1;" transform="matrix(0.702023,0.000000,0.000000,0.703102,-54.03374,378.0264)"/>
  <polygon id="polygon557" points="192.261,142.49 163.16,121.316 133.996,142.404 145.14,108.184 116.073,86.9639 152.062,86.9881 163.261,52.7857 174.359,87.0209 210.348,87.1025 181.218,108.237 192.261,142.49 " sodipodi:arg1="0.94394743" sodipodi:arg2="1.57226598" sodipodi:cx="163.187744" sodipodi:cy="102.349113" sodipodi:fill-cmyk="(0 0.13 1 0)" sodipodi:r1="49.5634193" sodipodi:r2="18.9669762" sodipodi:sides="5" sodipodi:type="star" style="font-size:12;fill:#ffde00;fill-rule:evenodd;stroke-width:1pt;fill-opacity:1;" transform="matrix(0.702023,0.000000,0.000000,0.703102,-54.03374,298.4176)"/>
  <polygon id="polygon558" points="192.261,142.49 163.16,121.316 133.996,142.404 145.14,108.184 116.073,86.9639 152.062,86.9881 163.261,52.7857 174.359,87.0209 210.348,87.1025 181.218,108.237 192.261,142.49 " sodipodi:arg1="0.94394743" sodipodi:arg2="1.57226598" sodipodi:cx="163.187744" sodipodi:cy="102.349113" sodipodi:fill-cmyk="(0 0.13 1 0)" sodipodi:r1="49.5634193" sodipodi:r2="18.9669762" sodipodi:sides="5" sodipodi:type="star" style="font-size:12;fill:#ffde00;fill-rule:evenodd;stroke-width:1pt;fill-opacity:1;" transform="matrix(0.702023,0.000000,0.000000,0.703102,-54.03374,220.2996)"/>
  <polygon id="polygon559" points="192.261,142.49 163.16,121.316 133.996,142.404 145.14,108.184 116.073,86.9639 152.062,86.9881 163.261,52.7857 174.359,87.0209 210.348,87.1025 181.218,108.237 192.261,142.49 " sodipodi:arg1="0.94394743" sodipodi:arg2="1.57226598" sodipodi:cx="163.187744" sodipodi:cy="102.349113" sodipodi:fill-cmyk="(0 0.13 1 0)" sodipodi:r1="49.5634193" sodipodi:r2="18.9669762" sodipodi:sides="5" sodipodi:type="star" style="font-size:12;fill:#ffde00;fill-rule:evenodd;stroke-width:1pt;fill-opacity:1;" transform="matrix(0.702023,0.000000,0.000000,0.703102,-54.03374,140.6908)"/>
  <polygon id="polygon560" points="192.261,142.49 163.16,121.316 133.996,142.404 145.14,108.184 116.073,86.9639 152.062,86.9881 163.261,52.7857 174.359,87.0209 210.348,87.1025 181.218,108.237 192.261,142.49 " sodipodi:arg1="0.94394743" sodipodi:arg2="1.57226598" sodipodi:cx="163.187744" sodipodi:cy="102.349113" sodipodi:fill-cmyk="(0 0.13 1 0)" sodipodi:r1="49.5634193" sodipodi:r2="18.9669762" sodipodi:sides="5" sodipodi:type="star" style="font-size:12;fill:#ffde00;fill-rule:evenodd;stroke-width:1pt;fill-opacity:1;" transform="matrix(0.702023,0.000000,0.000000,0.703102,-54.03374,60.48590)"/>
  <polygon id="polygon561" points="192.261,142.49 163.16,121.316 133.996,142.404 145.14,108.184 116.073,86.9639 152.062,86.9881 163.261,52.7857 174.359,87.0209 210.348,87.1025 181.218,108.237 192.261,142.49 " sodipodi:arg1="0.94394743" sodipodi:arg2="1.57226598" sodipodi:cx="163.187744" sodipodi:cy="102.349113" sodipodi:fill-cmyk="(0 0.13 1 0)" sodipodi:r1="49.5634193" sodipodi:r2="18.9669762" sodipodi:sides="5" sodipodi:type="star" style="font-size:12;fill:#ffde00;fill-rule:evenodd;stroke-width:1pt;fill-opacity:1;" transform="matrix(0.702023,0.000000,0.000000,0.703102,-54.03374,-19.71944)"/>
</svg>
