<?xml version="1.0" encoding="UTF-8" standalone="no"?>
<!DOCTYPE svg PUBLIC "-//W3C//DTD SVG 20010904//EN"
"http://www.w3.org/TR/2001/REC-SVG-20010904/DTD/svg10.dtd">
<!-- Created with Sodipodi ("http://www.sodipodi.com/") --><svg height="140mm" id="svg1" sodipodi:docbase="/home/scarlet" sodipodi:docname="/home/scarlet/cook_islands.svg" sodipodi:version="0.32" width="280mm" xmlns="http://www.w3.org/2000/svg" xmlns:sodipodi="http://sodipodi.sourceforge.net/DTD/sodipodi-0.dtd" xmlns:xlink="http://www.w3.org/1999/xlink">
  <metadata>
    <rdf:RDF xmlns:cc="http://web.resource.org/cc/" xmlns:dc="http://purl.org/dc/elements/1.1/" xmlns:rdf="http://www.w3.org/1999/02/22-rdf-syntax-ns#">
      <cc:Work rdf:about="">
        <dc:title>Cook Islands</dc:title>
        <dc:description></dc:description>
        <dc:subject>
          <rdf:Bag>
            <rdf:li></rdf:li>
            <rdf:li>polynesia</rdf:li>
            <rdf:li>oceania</rdf:li>
            <rdf:li>flag</rdf:li>
            <rdf:li>sign</rdf:li>
          </rdf:Bag>
        </dc:subject>
        <dc:publisher>
          <cc:Agent rdf:about="http://www.openclipart.org">
            <dc:title>Caleb Moore</dc:title>
          </cc:Agent>
        </dc:publisher>
        <dc:creator>
          <cc:Agent>
            <dc:title>Caleb Moore</dc:title>
          </cc:Agent>
        </dc:creator>
        <dc:rights>
          <cc:Agent>
            <dc:title>Caleb Moore</dc:title>
          </cc:Agent>
        </dc:rights>
        <dc:date></dc:date>
        <dc:format>image/svg+xml</dc:format>
        <dc:type rdf:resource="http://purl.org/dc/dcmitype/StillImage"/>
        <cc:license rdf:resource="http://web.resource.org/cc/PublicDomain"/>
        <dc:language>en</dc:language>
      </cc:Work>
      <cc:License rdf:about="http://web.resource.org/cc/PublicDomain">
        <cc:permits rdf:resource="http://web.resource.org/cc/Reproduction"/>
        <cc:permits rdf:resource="http://web.resource.org/cc/Distribution"/>
        <cc:permits rdf:resource="http://web.resource.org/cc/DerivativeWorks"/>
      </cc:License>
    </rdf:RDF>
  </metadata>
  <defs id="defs3">
    <linearGradient id="linearGradient1108">
      <stop id="stop1109" offset="0" style="stop-color:#000;stop-opacity:1;"/>
      <stop id="stop1110" offset="1" style="stop-color:#fff;stop-opacity:1;"/>
    </linearGradient>
    <linearGradient id="linearGradient1111" xlink:href="#linearGradient1108"/>
    <linearGradient id="linearGradient1112" xlink:href="#linearGradient1108"/>
    <linearGradient id="linearGradient1113" xlink:href="#linearGradient1108"/>
    <linearGradient id="linearGradient1114" xlink:href="#linearGradient1108"/>
    <linearGradient id="linearGradient1115" xlink:href="#linearGradient1108"/>
    <linearGradient id="linearGradient1116" xlink:href="#linearGradient1108"/>
    <linearGradient id="linearGradient1117" xlink:href="#linearGradient1108"/>
    <linearGradient id="linearGradient1118" xlink:href="#linearGradient1108"/>
    <linearGradient id="linearGradient1119" xlink:href="#linearGradient1108"/>
    <linearGradient id="linearGradient1120" xlink:href="#linearGradient1108"/>
    <linearGradient id="linearGradient1121" xlink:href="#linearGradient1108"/>
    <linearGradient id="linearGradient1122" xlink:href="#linearGradient1108"/>
    <linearGradient id="linearGradient1123" xlink:href="#linearGradient1108"/>
    <linearGradient id="linearGradient1124" xlink:href="#linearGradient1108"/>
    <linearGradient id="linearGradient1125" xlink:href="#linearGradient1108"/>
    <linearGradient id="linearGradient1126" xlink:href="#linearGradient1108"/>
    <linearGradient id="linearGradient1127" xlink:href="#linearGradient1108"/>
    <linearGradient id="linearGradient1128" xlink:href="#linearGradient1108"/>
    <linearGradient id="linearGradient1129" xlink:href="#linearGradient1108"/>
    <linearGradient id="linearGradient1130" xlink:href="#linearGradient1108"/>
    <linearGradient id="linearGradient1131" xlink:href="#linearGradient1108"/>
    <linearGradient id="linearGradient1132" xlink:href="#linearGradient1108"/>
    <linearGradient id="linearGradient1133" xlink:href="#linearGradient1108"/>
    <linearGradient id="linearGradient1134" xlink:href="#linearGradient1108"/>
    <linearGradient id="linearGradient1135" xlink:href="#linearGradient1108"/>
    <linearGradient id="linearGradient1136" xlink:href="#linearGradient1108"/>
    <linearGradient id="linearGradient1137" xlink:href="#linearGradient1108"/>
    <linearGradient id="linearGradient1138" xlink:href="#linearGradient1108"/>
    <linearGradient id="linearGradient1139" xlink:href="#linearGradient1108"/>
    <linearGradient id="linearGradient1140" xlink:href="#linearGradient1108"/>
    <linearGradient id="linearGradient1141" xlink:href="#linearGradient1108"/>
    <linearGradient id="linearGradient1142" xlink:href="#linearGradient1108"/>
    <linearGradient id="linearGradient1143" xlink:href="#linearGradient1108"/>
    <linearGradient id="linearGradient1144" xlink:href="#linearGradient1108"/>
    <linearGradient id="linearGradient1145" xlink:href="#linearGradient1108"/>
    <linearGradient id="linearGradient1146" xlink:href="#linearGradient1108"/>
    <linearGradient id="linearGradient1147" xlink:href="#linearGradient1108"/>
    <linearGradient id="linearGradient1148" xlink:href="#linearGradient1108"/>
    <linearGradient id="linearGradient1149" xlink:href="#linearGradient1108"/>
    <linearGradient id="linearGradient1150" xlink:href="#linearGradient1108"/>
    <linearGradient id="linearGradient1151" xlink:href="#linearGradient1108"/>
    <linearGradient id="linearGradient1152" xlink:href="#linearGradient1108"/>
    <linearGradient id="linearGradient1153" xlink:href="#linearGradient1108"/>
    <linearGradient id="linearGradient1154" xlink:href="#linearGradient1108"/>
    <linearGradient id="linearGradient1155" xlink:href="#linearGradient1108"/>
    <linearGradient id="linearGradient1156" xlink:href="#linearGradient1108"/>
    <linearGradient id="linearGradient1157" xlink:href="#linearGradient1108"/>
    <linearGradient id="linearGradient1158" xlink:href="#linearGradient1108"/>
    <linearGradient id="linearGradient1159" xlink:href="#linearGradient1108"/>
    <linearGradient id="linearGradient1160" xlink:href="#linearGradient1108"/>
    <linearGradient id="linearGradient1161" xlink:href="#linearGradient1108"/>
    <linearGradient id="linearGradient1162" xlink:href="#linearGradient1108"/>
    <linearGradient id="linearGradient1163" xlink:href="#linearGradient1108"/>
    <linearGradient id="linearGradient1164" xlink:href="#linearGradient1108"/>
    <linearGradient id="linearGradient1165" xlink:href="#linearGradient1108"/>
    <linearGradient id="linearGradient1166" xlink:href="#linearGradient1108"/>
    <linearGradient id="linearGradient1167" xlink:href="#linearGradient1108"/>
    <linearGradient id="linearGradient1168" xlink:href="#linearGradient1108"/>
    <linearGradient id="linearGradient1169" xlink:href="#linearGradient1108"/>
    <linearGradient id="linearGradient1170" xlink:href="#linearGradient1108"/>
    <linearGradient id="linearGradient1171" xlink:href="#linearGradient1108"/>
    <linearGradient id="linearGradient1172" xlink:href="#linearGradient1108"/>
  </defs>
  <sodipodi:namedview id="base" showgrid="false"/>
  <rect height="496.063019" id="rect124" style="font-size:12;fill:#000066;stroke-width:1pt;" width="992.125978" x="0.000000" y="-0.000037"/>
  <g id="g584" style="font-size:12;" transform="matrix(8.267716,0.000000,0.000000,8.267716,0.000000,2.288818e-5)">
    <path d="M 0 0 L 0 3.3541 L 53.2918 30 L 60 30 L 60 26.6459 L 6.7082 0 L 0 0 z M 60 0 L 60 3.35405 L 6.7082 30 L 0 30 L 0 26.6458 L 53.2918 0 L 60 0 z " id="path146" style="font-size:12;fill:#ffffff;stroke-width:1pt;"/>
    <path d="M 25 0 L 25 30 L 35 30 L 35 0 L 25 0 z M 0 10 L 0 20 L 60 20 L 60 10 L 0 10 z " id="path136" style="font-size:12;fill:#ffffff;stroke-width:1pt;"/>
    <path d="M 0 12 L 0 18 L 60 18 L 60 12 L 0 12 z M 27 0 L 27 30 L 33 30 L 33 0 L 27 0 z " id="path141" style="font-size:12;fill:#cc0000;stroke-width:1pt;"/>
    <path d="M 0 30 L 20 20 L 24.4721 20 L 4.47214 30 L 0 30 z M 0 0 L 20 10 L 15.5279 10 L 0 2.23607 L 0 0 z M 35.5279 10 L 55.5279 0 L 60 0 L 40 10 L 35.5279 10 z M 60 30 L 40 20 L 44.4721 20 L 60 27.7639 L 60 30 z " id="path150" style="font-size:12;fill:#cc0000;stroke-width:1pt;"/>
  </g>
  <g id="g808" transform="matrix(1.072863,0.000000,0.000000,1.088248,-61.95463,-33.88618)">
    <polygon id="polygon791" points="659.701,186.567 667.432,156.723 642.135,139.104 672.907,137.234 681.847,107.73 693.134,136.418 723.957,135.803 700.161,155.403 710.27,184.527 684.276,167.953 659.701,186.567 " sodipodi:arg1="2.15879941" sodipodi:arg2="2.78711796" sodipodi:cx="683.582092" sodipodi:cy="150.746277" sodipodi:r1="43.0513649" sodipodi:r2="17.2205467" sodipodi:sides="5" sodipodi:type="star" style="font-size:12;fill:#ffffff;fill-rule:evenodd;stroke-width:1pt;stroke:none;stroke-opacity:1;fill-opacity:1;" transform="matrix(0.818718,3.817616e-2,-3.719042e-2,0.797578,211.4686,-51.03146)"/>
    <polygon id="polygon794" points="659.701,186.567 667.432,156.723 642.135,139.104 672.907,137.234 681.847,107.73 693.134,136.418 723.957,135.803 700.161,155.403 710.27,184.527 684.276,167.953 659.701,186.567 " sodipodi:arg1="2.15879941" sodipodi:arg2="2.78711796" sodipodi:cx="683.582092" sodipodi:cy="150.746277" sodipodi:r1="43.0513649" sodipodi:r2="17.2205467" sodipodi:sides="5" sodipodi:type="star" style="font-size:12;fill:#ffffff;fill-rule:evenodd;stroke-width:1pt;stroke:none;stroke-opacity:1;fill-opacity:1;" transform="matrix(0.758488,0.310568,-0.302549,0.738903,360.2272,-215.1602)"/>
    <polygon id="polygon795" points="659.701,186.567 667.432,156.723 642.135,139.104 672.907,137.234 681.847,107.73 693.134,136.418 723.957,135.803 700.161,155.403 710.27,184.527 684.276,167.953 659.701,186.567 " sodipodi:arg1="2.15879941" sodipodi:arg2="2.78711796" sodipodi:cx="683.582092" sodipodi:cy="150.746277" sodipodi:r1="43.0513649" sodipodi:r2="17.2205467" sodipodi:sides="5" sodipodi:type="star" style="font-size:12;fill:#ffffff;fill-rule:evenodd;stroke-width:1pt;stroke:none;stroke-opacity:1;fill-opacity:1;" transform="matrix(0.782988,-0.242252,0.235997,0.762770,127.0784,160.0798)"/>
    <polygon id="polygon796" points="659.701,186.567 667.432,156.723 642.135,139.104 672.907,137.234 681.847,107.73 693.134,136.418 723.957,135.803 700.161,155.403 710.27,184.527 684.276,167.953 659.701,186.567 " sodipodi:arg1="2.15879941" sodipodi:arg2="2.78711796" sodipodi:cx="683.582092" sodipodi:cy="150.746277" sodipodi:r1="43.0513649" sodipodi:r2="17.2205467" sodipodi:sides="5" sodipodi:type="star" style="font-size:12;fill:#ffffff;fill-rule:evenodd;stroke-width:1pt;stroke:none;stroke-opacity:1;fill-opacity:1;" transform="matrix(0.627278,-0.527521,0.513900,0.611080,136.0141,414.0626)"/>
    <polygon id="polygon797" points="659.701,186.567 667.432,156.723 642.135,139.104 672.907,137.234 681.847,107.73 693.134,136.418 723.957,135.803 700.161,155.403 710.27,184.527 684.276,167.953 659.701,186.567 " sodipodi:arg1="2.15879941" sodipodi:arg2="2.78711796" sodipodi:cx="683.582092" sodipodi:cy="150.746277" sodipodi:r1="43.0513649" sodipodi:r2="17.2205467" sodipodi:sides="5" sodipodi:type="star" style="font-size:12;fill:#ffffff;fill-rule:evenodd;stroke-width:1pt;stroke:none;stroke-opacity:1;fill-opacity:1;" transform="matrix(0.340585,-0.745492,0.726242,0.331790,266.3795,664.0245)"/>
    <polygon id="polygon798" points="659.701,186.567 667.432,156.723 642.135,139.104 672.907,137.234 681.847,107.73 693.134,136.418 723.957,135.803 700.161,155.403 710.27,184.527 684.276,167.953 659.701,186.567 " sodipodi:arg1="2.15879941" sodipodi:arg2="2.78711796" sodipodi:cx="683.582092" sodipodi:cy="150.746277" sodipodi:r1="43.0513649" sodipodi:r2="17.2205467" sodipodi:sides="5" sodipodi:type="star" style="font-size:12;fill:#ffffff;fill-rule:evenodd;stroke-width:1pt;stroke:none;stroke-opacity:1;fill-opacity:1;" transform="matrix(1.584355e-2,-0.819454,0.798294,1.543402e-2,466.7071,832.5574)"/>
    <polygon id="polygon799" points="659.701,186.567 667.432,156.723 642.135,139.104 672.907,137.234 681.847,107.73 693.134,136.418 723.957,135.803 700.161,155.403 710.27,184.527 684.276,167.953 659.701,186.567 " sodipodi:arg1="2.15879941" sodipodi:arg2="2.78711796" sodipodi:cx="683.582092" sodipodi:cy="150.746277" sodipodi:r1="43.0513649" sodipodi:r2="17.2205467" sodipodi:sides="5" sodipodi:type="star" style="font-size:12;fill:#ffffff;fill-rule:evenodd;stroke-width:1pt;stroke:none;stroke-opacity:1;fill-opacity:1;" transform="matrix(-0.317066,-0.755795,0.736278,-0.308879,725.6567,902.3774)"/>
    <polygon id="polygon800" points="659.701,186.567 667.432,156.723 642.135,139.104 672.907,137.234 681.847,107.73 693.134,136.418 723.957,135.803 700.161,155.403 710.27,184.527 684.276,167.953 659.701,186.567 " sodipodi:arg1="2.15879941" sodipodi:arg2="2.78711796" sodipodi:cx="683.582092" sodipodi:cy="150.746277" sodipodi:r1="43.0513649" sodipodi:r2="17.2205467" sodipodi:sides="5" sodipodi:type="star" style="font-size:12;fill:#ffffff;fill-rule:evenodd;stroke-width:1pt;stroke:none;stroke-opacity:1;fill-opacity:1;" transform="matrix(-0.558515,-0.599848,0.584358,-0.544093,956.2336,884.0917)"/>
    <polygon id="polygon801" points="659.701,186.567 667.432,156.723 642.135,139.104 672.907,137.234 681.847,107.73 693.134,136.418 723.957,135.803 700.161,155.403 710.27,184.527 684.276,167.953 659.701,186.567 " sodipodi:arg1="2.15879941" sodipodi:arg2="2.78711796" sodipodi:cx="683.582092" sodipodi:cy="150.746277" sodipodi:r1="43.0513649" sodipodi:r2="17.2205467" sodipodi:sides="5" sodipodi:type="star" style="font-size:12;fill:#ffffff;fill-rule:evenodd;stroke-width:1pt;stroke:none;stroke-opacity:1;fill-opacity:1;" transform="matrix(-0.795614,-0.196862,0.191778,-0.775070,1238.307,669.3665)"/>
    <polygon id="polygon802" points="659.701,186.567 667.432,156.723 642.135,139.104 672.907,137.234 681.847,107.73 693.134,136.418 723.957,135.803 700.161,155.403 710.27,184.527 684.276,167.953 659.701,186.567 " sodipodi:arg1="2.15879941" sodipodi:arg2="2.78711796" sodipodi:cx="683.582092" sodipodi:cy="150.746277" sodipodi:r1="43.0513649" sodipodi:r2="17.2205467" sodipodi:sides="5" sodipodi:type="star" style="font-size:12;fill:#ffffff;fill-rule:evenodd;stroke-width:1pt;stroke:none;stroke-opacity:1;fill-opacity:1;" transform="matrix(-0.798057,0.186712,-0.181891,-0.777450,1368.536,407.8535)"/>
    <polygon id="polygon803" points="659.701,186.567 667.432,156.723 642.135,139.104 672.907,137.234 681.847,107.73 693.134,136.418 723.957,135.803 700.161,155.403 710.27,184.527 684.276,167.953 659.701,186.567 " sodipodi:arg1="2.15879941" sodipodi:arg2="2.78711796" sodipodi:cx="683.582092" sodipodi:cy="150.746277" sodipodi:r1="43.0513649" sodipodi:r2="17.2205467" sodipodi:sides="5" sodipodi:type="star" style="font-size:12;fill:#ffffff;fill-rule:evenodd;stroke-width:1pt;stroke:none;stroke-opacity:1;fill-opacity:1;" transform="matrix(-0.425137,0.700725,-0.682632,-0.414158,1277.556,-266.6207)"/>
    <polygon id="polygon804" points="659.701,186.567 667.432,156.723 642.135,139.104 672.907,137.234 681.847,107.73 693.134,136.418 723.957,135.803 700.161,155.403 710.27,184.527 684.276,167.953 659.701,186.567 " sodipodi:arg1="2.15879941" sodipodi:arg2="2.78711796" sodipodi:cx="683.582092" sodipodi:cy="150.746277" sodipodi:r1="43.0513649" sodipodi:r2="17.2205467" sodipodi:sides="5" sodipodi:type="star" style="font-size:12;fill:#ffffff;fill-rule:evenodd;stroke-width:1pt;stroke:none;stroke-opacity:1;fill-opacity:1;" transform="matrix(-0.685666,0.449020,-0.437427,-0.667960,1454.923,1.486130)"/>
    <polygon id="polygon805" points="659.701,186.567 667.432,156.723 642.135,139.104 672.907,137.234 681.847,107.73 693.134,136.418 723.957,135.803 700.161,155.403 710.27,184.527 684.276,167.953 659.701,186.567 " sodipodi:arg1="2.15879941" sodipodi:arg2="2.78711796" sodipodi:cx="683.582092" sodipodi:cy="150.746277" sodipodi:r1="43.0513649" sodipodi:r2="17.2205467" sodipodi:sides="5" sodipodi:type="star" style="font-size:12;fill:#ffffff;fill-rule:evenodd;stroke-width:1pt;stroke:none;stroke-opacity:1;fill-opacity:1;" transform="matrix(-0.811223,0.116937,-0.113919,-0.790275,1496.591,313.6963)"/>
    <polygon id="polygon806" points="659.701,186.567 667.432,156.723 642.135,139.104 672.907,137.234 681.847,107.73 693.134,136.418 723.957,135.803 700.161,155.403 710.27,184.527 684.276,167.953 659.701,186.567 " sodipodi:arg1="2.15879941" sodipodi:arg2="2.78711796" sodipodi:cx="683.582092" sodipodi:cy="150.746277" sodipodi:r1="43.0513649" sodipodi:r2="17.2205467" sodipodi:sides="5" sodipodi:type="star" style="font-size:12;fill:#ffffff;fill-rule:evenodd;stroke-width:1pt;stroke:none;stroke-opacity:1;fill-opacity:1;" transform="matrix(-0.801995,-0.169001,0.164635,-0.781286,1424.992,574.3793)"/>
    <polygon id="polygon807" points="659.701,186.567 667.432,156.723 642.135,139.104 672.907,137.234 681.847,107.73 693.134,136.418 723.957,135.803 700.161,155.403 710.27,184.527 684.276,167.953 659.701,186.567 " sodipodi:arg1="2.15879941" sodipodi:arg2="2.78711796" sodipodi:cx="683.582092" sodipodi:cy="150.746277" sodipodi:r1="43.0513649" sodipodi:r2="17.2205467" sodipodi:sides="5" sodipodi:type="star" style="font-size:12;fill:#ffffff;fill-rule:evenodd;stroke-width:1pt;stroke:none;stroke-opacity:1;fill-opacity:1;" transform="matrix(-0.594733,-0.563959,0.549395,-0.579377,1179.569,862.8326)"/>
  </g>
</svg>
