<?xml version="1.0" encoding="UTF-8" standalone="no"?>
<!DOCTYPE svg PUBLIC "-//W3C//DTD SVG 20010904//EN"
"http://www.w3.org/TR/2001/REC-SVG-20010904/DTD/svg10.dtd">
<!-- Created with Sodipodi ("http://www.sodipodi.com/") --><svg height="140mm" id="svg153" sodipodi:docbase="/home/cschalle/sodipodi-flags/nations" sodipodi:docname="/home/cschalle/sodipodi-flags/nations/capeverde.svg" sodipodi:version="0.32" width="232mm" xmlns="http://www.w3.org/2000/svg" xmlns:sodipodi="http://sodipodi.sourceforge.net/DTD/sodipodi-0.dtd" xmlns:xlink="http://www.w3.org/1999/xlink">
  <metadata>
    <rdf:RDF xmlns:cc="http://web.resource.org/cc/" xmlns:dc="http://purl.org/dc/elements/1.1/" xmlns:rdf="http://www.w3.org/1999/02/22-rdf-syntax-ns#">
      <cc:Work rdf:about="">
        <dc:title></dc:title>
        <dc:description></dc:description>
        <dc:subject>
          <rdf:Bag>
            <rdf:li></rdf:li>
            <rdf:li>flag</rdf:li>
            <rdf:li>africa</rdf:li>
            <rdf:li>sign</rdf:li>
          </rdf:Bag>
        </dc:subject>
        <dc:publisher>
          <cc:Agent rdf:about="http://www.openclipart.org">
            <dc:title></dc:title>
          </cc:Agent>
        </dc:publisher>
        <dc:creator>
          <cc:Agent>
            <dc:title></dc:title>
          </cc:Agent>
        </dc:creator>
        <dc:rights>
          <cc:Agent>
            <dc:title></dc:title>
          </cc:Agent>
        </dc:rights>
        <dc:date></dc:date>
        <dc:format>image/svg+xml</dc:format>
        <dc:type rdf:resource="http://purl.org/dc/dcmitype/StillImage"/>
        <cc:license rdf:resource=""/>
        <dc:language>en</dc:language>
      </cc:Work>
    </rdf:RDF>
  </metadata>
  <desc id="desc549">
The United States of America flag, produced by Daniel McRae</desc>
  <defs id="defs155"/>
  <sodipodi:namedview gridoriginx="-1mm" gridoriginy="2mm" gridspacingx="10mm" gridspacingy="10mm" id="base" showgrid="true" snaptogrid="false"/>
  <rect height="200.000168" id="rect808" style="font-size:12;fill:#ffffff;fill-rule:evenodd;stroke-width:1pt;fill-opacity:1;" width="821.998596" x="0.570595" y="229.364044"/>
  <rect height="249.205817" id="rect200" style="font-size:12;fill:#081873;fill-rule:evenodd;stroke-width:1pt;" width="821.431274" x="1.222717" y="3.067216"/>
  <rect height="210.440518" id="rect648" style="font-size:12;fill:#081873;fill-rule:evenodd;stroke-width:1pt;" transform="matrix(0.582013,0.000000,0.000000,0.582013,-0.608890,2.961983)" width="1421.652740" x="3.543290" y="643.951006"/>
  <rect height="38.500375" id="rect728" style="font-size:12;fill:#de3929;fill-rule:evenodd;stroke-width:1pt;" width="821.431214" x="1.453355" y="296.852461"/>
  <polygon id="polygon723" points="0,-4.004 0.898954009,-1.2373040455 3.808030291,-1.2373040455 1.454538141067,0.4726080910 2.35349215,3.2393040455 0,1.529391909 -2.35349215,3.2393040455 -1.454538141067,0.472608091 -3.808030291,-1.2373040455 -0.898954009,-1.2373040455 0,-4.004 " sodipodi:arg1="-1.570796" sodipodi:arg2="-0.942477796" sodipodi:cx="0.000000" sodipodi:cy="0.000000" sodipodi:r1="4.004000" sodipodi:r2="1.529391909" sodipodi:sides="5" sodipodi:type="star" style="font-size:12;fill:#ffce08;fill-rule:evenodd;stroke-width:0.125;" transform="matrix(7.183647,0.000000,0.000000,7.183652,247.5460,419.4284)"/>
  <polygon id="polygon730" points="0,-4.004 0.898954009,-1.2373040455 3.808030291,-1.2373040455 1.454538141067,0.4726080910 2.35349215,3.2393040455 0,1.529391909 -2.35349215,3.2393040455 -1.454538141067,0.472608091 -3.808030291,-1.2373040455 -0.898954009,-1.2373040455 0,-4.004 " sodipodi:arg1="-1.570796" sodipodi:arg2="-0.942477796" sodipodi:cx="0.000000" sodipodi:cy="0.000000" sodipodi:r1="4.004000" sodipodi:r2="1.529391909" sodipodi:sides="5" sodipodi:type="star" style="font-size:12;fill:#ffce08;fill-rule:evenodd;stroke-width:0.125;" transform="matrix(7.183647,0.000000,0.000000,7.183652,428.1523,275.0709)"/>
  <polygon id="polygon731" points="0,-4.004 0.898954009,-1.2373040455 3.808030291,-1.2373040455 1.454538141067,0.4726080910 2.35349215,3.2393040455 0,1.529391909 -2.35349215,3.2393040455 -1.454538141067,0.472608091 -3.808030291,-1.2373040455 -0.898954009,-1.2373040455 0,-4.004 " sodipodi:arg1="-1.570796" sodipodi:arg2="-0.942477796" sodipodi:cx="0.000000" sodipodi:cy="0.000000" sodipodi:r1="4.004000" sodipodi:r2="1.529391909" sodipodi:sides="5" sodipodi:type="star" style="font-size:12;fill:#ffce08;fill-rule:evenodd;stroke-width:0.125;" transform="matrix(7.183647,0.000000,0.000000,7.183652,206.1356,357.5609)"/>
  <polygon id="polygon732" points="0,-4.004 0.898954009,-1.2373040455 3.808030291,-1.2373040455 1.454538141067,0.4726080910 2.35349215,3.2393040455 0,1.529391909 -2.35349215,3.2393040455 -1.454538141067,0.472608091 -3.808030291,-1.2373040455 -0.898954009,-1.2373040455 0,-4.004 " sodipodi:arg1="-1.570796" sodipodi:arg2="-0.942477796" sodipodi:cx="0.000000" sodipodi:cy="0.000000" sodipodi:r1="4.004000" sodipodi:r2="1.529391909" sodipodi:sides="5" sodipodi:type="star" style="font-size:12;fill:#ffce08;fill-rule:evenodd;stroke-width:0.125;" transform="matrix(7.183647,0.000000,0.000000,7.183652,428.1523,351.7408)"/>
  <polygon id="polygon733" points="0,-4.004 0.898954009,-1.2373040455 3.808030291,-1.2373040455 1.454538141067,0.4726080910 2.35349215,3.2393040455 0,1.529391909 -2.35349215,3.2393040455 -1.454538141067,0.472608091 -3.808030291,-1.2373040455 -0.898954009,-1.2373040455 0,-4.004 " sodipodi:arg1="-1.570796" sodipodi:arg2="-0.942477796" sodipodi:cx="0.000000" sodipodi:cy="0.000000" sodipodi:r1="4.004000" sodipodi:r2="1.529391909" sodipodi:sides="5" sodipodi:type="star" style="font-size:12;fill:#ffce08;fill-rule:evenodd;stroke-width:0.125;" transform="matrix(7.183647,0.000000,0.000000,7.183652,382.4235,214.5598)"/>
  <polygon id="polygon734" points="0,-4.004 0.898954009,-1.2373040455 3.808030291,-1.2373040455 1.454538141067,0.4726080910 2.35349215,3.2393040455 0,1.529391909 -2.35349215,3.2393040455 -1.454538141067,0.472608091 -3.808030291,-1.2373040455 -0.898954009,-1.2373040455 0,-4.004 " sodipodi:arg1="-1.570796" sodipodi:arg2="-0.942477796" sodipodi:cx="0.000000" sodipodi:cy="0.000000" sodipodi:r1="4.004000" sodipodi:r2="1.529391909" sodipodi:sides="5" sodipodi:type="star" style="font-size:12;fill:#ffce08;fill-rule:evenodd;stroke-width:0.125;" transform="matrix(7.183647,0.000000,0.000000,7.183652,313.3994,190.5227)"/>
  <polygon id="polygon735" points="0,-4.004 0.898954009,-1.2373040455 3.808030291,-1.2373040455 1.454538141067,0.4726080910 2.35349215,3.2393040455 0,1.529391909 -2.35349215,3.2393040455 -1.454538141067,0.472608091 -3.808030291,-1.2373040455 -0.898954009,-1.2373040455 0,-4.004 " sodipodi:arg1="-1.570796" sodipodi:arg2="-0.942477796" sodipodi:cx="0.000000" sodipodi:cy="0.000000" sodipodi:r1="4.004000" sodipodi:r2="1.529391909" sodipodi:sides="5" sodipodi:type="star" style="font-size:12;fill:#ffce08;fill-rule:evenodd;stroke-width:0.125;" transform="matrix(7.183647,0.000000,0.000000,7.183652,244.3772,213.2034)"/>
  <polygon id="polygon736" points="0,-4.004 0.898954009,-1.2373040455 3.808030291,-1.2373040455 1.454538141067,0.4726080910 2.35349215,3.2393040455 0,1.529391909 -2.35349215,3.2393040455 -1.454538141067,0.472608091 -3.808030291,-1.2373040455 -0.898954009,-1.2373040455 0,-4.004 " sodipodi:arg1="-1.570796" sodipodi:arg2="-0.942477796" sodipodi:cx="0.000000" sodipodi:cy="0.000000" sodipodi:r1="4.004000" sodipodi:r2="1.529391909" sodipodi:sides="5" sodipodi:type="star" style="font-size:12;fill:#ffce08;fill-rule:evenodd;stroke-width:0.125;" transform="matrix(7.183647,0.000000,0.000000,7.183652,204.1093,275.0709)"/>
  <polygon id="polygon737" points="0,-4.004 0.898954009,-1.2373040455 3.808030291,-1.2373040455 1.454538141067,0.4726080910 2.35349215,3.2393040455 0,1.529391909 -2.35349215,3.2393040455 -1.454538141067,0.472608091 -3.808030291,-1.2373040455 -0.898954009,-1.2373040455 0,-4.004 " sodipodi:arg1="-1.570796" sodipodi:arg2="-0.942477796" sodipodi:cx="0.000000" sodipodi:cy="0.000000" sodipodi:r1="4.004000" sodipodi:r2="1.529391909" sodipodi:sides="5" sodipodi:type="star" style="font-size:12;fill:#ffce08;fill-rule:evenodd;stroke-width:0.125;" transform="matrix(7.183647,0.000000,0.000000,7.183652,313.3995,440.0509)"/>
  <polygon id="polygon738" points="0,-4.004 0.898954009,-1.2373040455 3.808030291,-1.2373040455 1.454538141067,0.4726080910 2.35349215,3.2393040455 0,1.529391909 -2.35349215,3.2393040455 -1.454538141067,0.472608091 -3.808030291,-1.2373040455 -0.898954009,-1.2373040455 0,-4.004 " sodipodi:arg1="-1.570796" sodipodi:arg2="-0.942477796" sodipodi:cx="0.000000" sodipodi:cy="0.000000" sodipodi:r1="4.004000" sodipodi:r2="1.529391909" sodipodi:sides="5" sodipodi:type="star" style="font-size:12;fill:#ffce08;fill-rule:evenodd;stroke-width:0.125;" transform="matrix(7.183647,0.000000,0.000000,7.183652,386.7384,419.4284)"/>
</svg>
