<?xml version="1.0" encoding="UTF-8" standalone="no"?>
<!DOCTYPE svg PUBLIC "-//W3C//DTD SVG 20010904//EN"
"http://www.w3.org/TR/2001/REC-SVG-20010904/DTD/svg10.dtd"
[
 <!ATTLIST svg
  xmlns:xlink CDATA #FIXED "http://www.w3.org/1999/xlink">
]>
<!-- Created with Sodipodi ("http://www.sodipodi.com/") --><svg height="496.062988" id="svg5907" version="1" width="992.125977" x="0.00000000" xmlns="http://www.w3.org/2000/svg" xmlns:xlink="http://www.w3.org/1999/xlink" y="0.00000000">
  <metadata>
    <rdf:RDF xmlns:cc="http://web.resource.org/cc/" xmlns:dc="http://purl.org/dc/elements/1.1/" xmlns:rdf="http://www.w3.org/1999/02/22-rdf-syntax-ns#">
      <cc:Work rdf:about="">
        <dc:title>Dominica</dc:title>
        <dc:description></dc:description>
        <dc:subject>
          <rdf:Bag>
            <rdf:li></rdf:li>
            <rdf:li>united_nations_member</rdf:li>
            <rdf:li>caribbean</rdf:li>
            <rdf:li>america</rdf:li>
            <rdf:li>flag</rdf:li>
            <rdf:li>sign</rdf:li>
          </rdf:Bag>
        </dc:subject>
        <dc:publisher>
          <cc:Agent rdf:about="http://www.openclipart.org">
            <dc:title>Caleb Moore and Christian Schaller</dc:title>
          </cc:Agent>
        </dc:publisher>
        <dc:creator>
          <cc:Agent>
            <dc:title>Caleb Moore and Christian Schaller</dc:title>
          </cc:Agent>
        </dc:creator>
        <dc:rights>
          <cc:Agent>
            <dc:title>Caleb Moore and Christian Schaller</dc:title>
          </cc:Agent>
        </dc:rights>
        <dc:date></dc:date>
        <dc:format>image/svg+xml</dc:format>
        <dc:type rdf:resource="http://purl.org/dc/dcmitype/StillImage"/>
        <cc:license rdf:resource="http://web.resource.org/cc/PublicDomain"/>
        <dc:language>en</dc:language>
      </cc:Work>
      <cc:License rdf:about="http://web.resource.org/cc/PublicDomain">
        <cc:permits rdf:resource="http://web.resource.org/cc/Reproduction"/>
        <cc:permits rdf:resource="http://web.resource.org/cc/Distribution"/>
        <cc:permits rdf:resource="http://web.resource.org/cc/DerivativeWorks"/>
      </cc:License>
    </rdf:RDF>
  </metadata>
  <defs id="defs5909"/>
  <g id="g1188" style="font-size:12;">
    <rect height="492.772858" id="rect8587" style="fill:#108c00;fill-rule:evenodd;stroke-width:1pt;" width="992.227417" x="0.00000000" y="3.29010797"/>
    <rect height="48.4420776" id="rect8594" style="fill:#ffd600;fill-rule:evenodd;stroke-width:1pt;" width="997.238586" x="-1.67041647" y="173.672623"/>
    <rect height="492.772980" id="rect8595" style="fill:#ffd600;fill-rule:evenodd;stroke-width:1pt;" width="46.7716522" x="424.285767" y="1.61957800"/>
    <rect height="492.772980" id="rect8596" style="fill-rule:evenodd;stroke-width:1pt;" width="46.7716522" x="469.387024" y="1.61954796"/>
    <rect height="48.4420776" id="rect8597" style="fill-rule:evenodd;stroke-width:1pt;" width="997.238586" x="-1.67041600" y="220.444260"/>
    <rect height="48.4420776" id="rect8598" style="fill:#ffffff;fill-rule:evenodd;stroke-width:1pt;" width="997.238586" x="-1.67041600" y="268.886353"/>
    <rect height="492.772980" id="rect8599" style="fill:#ffffff;fill-rule:evenodd;stroke-width:1pt;" width="46.7716522" x="516.158691" y="3.28998089"/>
    <rect height="265.596222" id="rect8601" ry="132.798111" style="fill:#e72910;fill-rule:evenodd;stroke-width:1pt;" transform="scale(-1.000000,-1.000000)" width="264.358307" x="-630.440491" y="-381.986145"/>
    <g id="g597" transform="matrix(0.340980,0.000000,0.000000,0.340980,329.0622,174.4058)">
      <path d="M 130.3 124.25 C 130.3 123.42 148.559 72.7941 148.559 72.7941 L 165.158 123.42 C 165.158 123.42 220.764 125.08 220.764 124.25 C 220.764 123.42 176.777 157.448 176.777 157.448 C 176.777 157.448 197.525 215.544 196.696 213.884 C 195.866 212.224 148.559 179.026 148.559 179.026 C 148.559 179.026 100.423 212.224 101.253 212.224 C 102.083 212.224 119.511 157.448 119.511 157.448 L 76.3544 125.08 L 130.3 124.25 z " id="path598" style="fill-rule:evenodd;stroke-width:1pt;" transform="matrix(0.869967,0.000000,0.000000,0.880476,362.5389,-228.3465)"/>
      <g id="g599" transform="translate(27.95990,-31.86637)">
        <rect height="0.00000000" id="rect600" style="fill:#108c00;fill-rule:evenodd;stroke-width:1pt;" width="1.67041016" x="233.858307" y="177.013443"/>
        <path d="M 130.3 124.25 C 130.3 123.42 148.559 72.7941 148.559 72.7941 L 165.158 123.42 C 165.158 123.42 220.764 125.08 220.764 124.25 C 220.764 123.42 176.777 157.448 176.777 157.448 C 176.777 157.448 197.525 215.544 196.696 213.884 C 195.866 212.224 148.559 179.026 148.559 179.026 C 148.559 179.026 100.423 212.224 101.253 212.224 C 102.083 212.224 119.511 157.448 119.511 157.448 L 76.3544 125.08 L 130.3 124.25 z " id="path601" style="fill:#ffe700;fill-rule:evenodd;stroke-width:1pt;" transform="matrix(0.753475,0.000000,0.000000,0.762576,351.9197,-179.5669)"/>
        <path d="M 130.3 124.25 C 130.3 123.42 148.559 72.7941 148.559 72.7941 L 165.158 123.42 C 165.158 123.42 220.764 125.08 220.764 124.25 C 220.764 123.42 176.777 157.448 176.777 157.448 C 176.777 157.448 197.525 215.544 196.696 213.884 C 195.866 212.224 148.559 179.026 148.559 179.026 C 148.559 179.026 100.423 212.224 101.253 212.224 C 102.083 212.224 119.511 157.448 119.511 157.448 L 76.3544 125.08 L 130.3 124.25 z " id="path602" style="fill:#108c00;fill-rule:evenodd;stroke-width:1pt;" transform="matrix(0.434443,0.000000,0.000000,0.439691,399.3148,-133.0273)"/>
      </g>
    </g>
    <g id="g625" transform="matrix(0.340980,0.000000,0.000000,0.340980,431.7819,246.7194)">
      <path d="M 130.3 124.25 C 130.3 123.42 148.559 72.7941 148.559 72.7941 L 165.158 123.42 C 165.158 123.42 220.764 125.08 220.764 124.25 C 220.764 123.42 176.777 157.448 176.777 157.448 C 176.777 157.448 197.525 215.544 196.696 213.884 C 195.866 212.224 148.559 179.026 148.559 179.026 C 148.559 179.026 100.423 212.224 101.253 212.224 C 102.083 212.224 119.511 157.448 119.511 157.448 L 76.3544 125.08 L 130.3 124.25 z " id="path626" style="fill-rule:evenodd;stroke-width:1pt;" transform="matrix(0.869967,0.000000,0.000000,0.880476,362.5389,-228.3465)"/>
      <g id="g627" transform="translate(27.95990,-31.86637)">
        <rect height="0.00000000" id="rect628" style="fill:#108c00;fill-rule:evenodd;stroke-width:1pt;" width="1.67041016" x="233.858307" y="177.013443"/>
        <path d="M 130.3 124.25 C 130.3 123.42 148.559 72.7941 148.559 72.7941 L 165.158 123.42 C 165.158 123.42 220.764 125.08 220.764 124.25 C 220.764 123.42 176.777 157.448 176.777 157.448 C 176.777 157.448 197.525 215.544 196.696 213.884 C 195.866 212.224 148.559 179.026 148.559 179.026 C 148.559 179.026 100.423 212.224 101.253 212.224 C 102.083 212.224 119.511 157.448 119.511 157.448 L 76.3544 125.08 L 130.3 124.25 z " id="path629" style="fill:#ffe700;fill-rule:evenodd;stroke-width:1pt;" transform="matrix(0.753475,0.000000,0.000000,0.762576,351.9197,-179.5669)"/>
        <path d="M 130.3 124.25 C 130.3 123.42 148.559 72.7941 148.559 72.7941 L 165.158 123.42 C 165.158 123.42 220.764 125.08 220.764 124.25 C 220.764 123.42 176.777 157.448 176.777 157.448 C 176.777 157.448 197.525 215.544 196.696 213.884 C 195.866 212.224 148.559 179.026 148.559 179.026 C 148.559 179.026 100.423 212.224 101.253 212.224 C 102.083 212.224 119.511 157.448 119.511 157.448 L 76.3544 125.08 L 130.3 124.25 z " id="path630" style="fill:#108c00;fill-rule:evenodd;stroke-width:1pt;" transform="matrix(0.434443,0.000000,0.000000,0.439691,399.3148,-133.0273)"/>
      </g>
    </g>
    <g id="g631" transform="matrix(0.340980,0.000000,0.000000,0.340980,401.8453,361.4925)">
      <path d="M 130.3 124.25 C 130.3 123.42 148.559 72.7941 148.559 72.7941 L 165.158 123.42 C 165.158 123.42 220.764 125.08 220.764 124.25 C 220.764 123.42 176.777 157.448 176.777 157.448 C 176.777 157.448 197.525 215.544 196.696 213.884 C 195.866 212.224 148.559 179.026 148.559 179.026 C 148.559 179.026 100.423 212.224 101.253 212.224 C 102.083 212.224 119.511 157.448 119.511 157.448 L 76.3544 125.08 L 130.3 124.25 z " id="path632" style="fill-rule:evenodd;stroke-width:1pt;" transform="matrix(0.869967,0.000000,0.000000,0.880476,362.5389,-228.3465)"/>
      <g id="g633" transform="translate(27.95990,-31.86637)">
        <rect height="0.00000000" id="rect634" style="fill:#108c00;fill-rule:evenodd;stroke-width:1pt;" width="1.67041016" x="233.858307" y="177.013443"/>
        <path d="M 130.3 124.25 C 130.3 123.42 148.559 72.7941 148.559 72.7941 L 165.158 123.42 C 165.158 123.42 220.764 125.08 220.764 124.25 C 220.764 123.42 176.777 157.448 176.777 157.448 C 176.777 157.448 197.525 215.544 196.696 213.884 C 195.866 212.224 148.559 179.026 148.559 179.026 C 148.559 179.026 100.423 212.224 101.253 212.224 C 102.083 212.224 119.511 157.448 119.511 157.448 L 76.3544 125.08 L 130.3 124.25 z " id="path635" style="fill:#ffe700;fill-rule:evenodd;stroke-width:1pt;" transform="matrix(0.753475,0.000000,0.000000,0.762576,351.9197,-179.5669)"/>
        <path d="M 130.3 124.25 C 130.3 123.42 148.559 72.7941 148.559 72.7941 L 165.158 123.42 C 165.158 123.42 220.764 125.08 220.764 124.25 C 220.764 123.42 176.777 157.448 176.777 157.448 C 176.777 157.448 197.525 215.544 196.696 213.884 C 195.866 212.224 148.559 179.026 148.559 179.026 C 148.559 179.026 100.423 212.224 101.253 212.224 C 102.083 212.224 119.511 157.448 119.511 157.448 L 76.3544 125.08 L 130.3 124.25 z " id="path636" style="fill:#108c00;fill-rule:evenodd;stroke-width:1pt;" transform="matrix(0.434443,0.000000,0.000000,0.439691,399.3148,-133.0273)"/>
      </g>
    </g>
    <g id="g637" transform="matrix(0.340980,0.000000,0.000000,0.340980,258.2330,361.4925)">
      <path d="M 130.3 124.25 C 130.3 123.42 148.559 72.7941 148.559 72.7941 L 165.158 123.42 C 165.158 123.42 220.764 125.08 220.764 124.25 C 220.764 123.42 176.777 157.448 176.777 157.448 C 176.777 157.448 197.525 215.544 196.696 213.884 C 195.866 212.224 148.559 179.026 148.559 179.026 C 148.559 179.026 100.423 212.224 101.253 212.224 C 102.083 212.224 119.511 157.448 119.511 157.448 L 76.3544 125.08 L 130.3 124.25 z " id="path638" style="fill-rule:evenodd;stroke-width:1pt;" transform="matrix(0.869967,0.000000,0.000000,0.880476,362.5389,-228.3465)"/>
      <g id="g639" transform="translate(27.95990,-31.86637)">
        <rect height="0.00000000" id="rect640" style="fill:#108c00;fill-rule:evenodd;stroke-width:1pt;" width="1.67041016" x="233.858307" y="177.013443"/>
        <path d="M 130.3 124.25 C 130.3 123.42 148.559 72.7941 148.559 72.7941 L 165.158 123.42 C 165.158 123.42 220.764 125.08 220.764 124.25 C 220.764 123.42 176.777 157.448 176.777 157.448 C 176.777 157.448 197.525 215.544 196.696 213.884 C 195.866 212.224 148.559 179.026 148.559 179.026 C 148.559 179.026 100.423 212.224 101.253 212.224 C 102.083 212.224 119.511 157.448 119.511 157.448 L 76.3544 125.08 L 130.3 124.25 z " id="path641" style="fill:#ffe700;fill-rule:evenodd;stroke-width:1pt;" transform="matrix(0.753475,0.000000,0.000000,0.762576,351.9197,-179.5669)"/>
        <path d="M 130.3 124.25 C 130.3 123.42 148.559 72.7941 148.559 72.7941 L 165.158 123.42 C 165.158 123.42 220.764 125.08 220.764 124.25 C 220.764 123.42 176.777 157.448 176.777 157.448 C 176.777 157.448 197.525 215.544 196.696 213.884 C 195.866 212.224 148.559 179.026 148.559 179.026 C 148.559 179.026 100.423 212.224 101.253 212.224 C 102.083 212.224 119.511 157.448 119.511 157.448 L 76.3544 125.08 L 130.3 124.25 z " id="path642" style="fill:#108c00;fill-rule:evenodd;stroke-width:1pt;" transform="matrix(0.434443,0.000000,0.000000,0.439691,399.3148,-133.0273)"/>
      </g>
    </g>
    <g id="g643" transform="matrix(0.340980,0.000000,0.000000,0.340980,232.0075,243.7568)">
      <path d="M 130.3 124.25 C 130.3 123.42 148.559 72.7941 148.559 72.7941 L 165.158 123.42 C 165.158 123.42 220.764 125.08 220.764 124.25 C 220.764 123.42 176.777 157.448 176.777 157.448 C 176.777 157.448 197.525 215.544 196.696 213.884 C 195.866 212.224 148.559 179.026 148.559 179.026 C 148.559 179.026 100.423 212.224 101.253 212.224 C 102.083 212.224 119.511 157.448 119.511 157.448 L 76.3544 125.08 L 130.3 124.25 z " id="path644" style="fill-rule:evenodd;stroke-width:1pt;" transform="matrix(0.869967,0.000000,0.000000,0.880476,362.5389,-228.3465)"/>
      <g id="g645" transform="translate(27.95990,-31.86637)">
        <rect height="0.00000000" id="rect646" style="fill:#108c00;fill-rule:evenodd;stroke-width:1pt;" width="1.67041016" x="233.858307" y="177.013443"/>
        <path d="M 130.3 124.25 C 130.3 123.42 148.559 72.7941 148.559 72.7941 L 165.158 123.42 C 165.158 123.42 220.764 125.08 220.764 124.25 C 220.764 123.42 176.777 157.448 176.777 157.448 C 176.777 157.448 197.525 215.544 196.696 213.884 C 195.866 212.224 148.559 179.026 148.559 179.026 C 148.559 179.026 100.423 212.224 101.253 212.224 C 102.083 212.224 119.511 157.448 119.511 157.448 L 76.3544 125.08 L 130.3 124.25 z " id="path647" style="fill:#ffe700;fill-rule:evenodd;stroke-width:1pt;" transform="matrix(0.753475,0.000000,0.000000,0.762576,351.9197,-179.5669)"/>
        <path d="M 130.3 124.25 C 130.3 123.42 148.559 72.7941 148.559 72.7941 L 165.158 123.42 C 165.158 123.42 220.764 125.08 220.764 124.25 C 220.764 123.42 176.777 157.448 176.777 157.448 C 176.777 157.448 197.525 215.544 196.696 213.884 C 195.866 212.224 148.559 179.026 148.559 179.026 C 148.559 179.026 100.423 212.224 101.253 212.224 C 102.083 212.224 119.511 157.448 119.511 157.448 L 76.3544 125.08 L 130.3 124.25 z " id="path648" style="fill:#108c00;fill-rule:evenodd;stroke-width:1pt;" transform="matrix(0.434443,0.000000,0.000000,0.439691,399.3148,-133.0273)"/>
      </g>
    </g>
    <g id="g649" transform="matrix(-0.340980,-4.175663e-17,4.175663e-17,-0.340980,725.1722,129.2296)">
      <path d="M 130.3 124.25 C 130.3 123.42 148.559 72.7941 148.559 72.7941 L 165.158 123.42 C 165.158 123.42 220.764 125.08 220.764 124.25 C 220.764 123.42 176.777 157.448 176.777 157.448 C 176.777 157.448 197.525 215.544 196.696 213.884 C 195.866 212.224 148.559 179.026 148.559 179.026 C 148.559 179.026 100.423 212.224 101.253 212.224 C 102.083 212.224 119.511 157.448 119.511 157.448 L 76.3544 125.08 L 130.3 124.25 z " id="path650" style="fill-rule:evenodd;stroke-width:1pt;" transform="matrix(0.869967,0.000000,0.000000,0.880476,362.5389,-228.3465)"/>
      <g id="g651" transform="translate(27.95990,-31.86637)">
        <rect height="0.00000000" id="rect652" style="fill:#108c00;fill-rule:evenodd;stroke-width:1pt;" width="1.67041016" x="233.858307" y="177.013443"/>
        <path d="M 130.3 124.25 C 130.3 123.42 148.559 72.7941 148.559 72.7941 L 165.158 123.42 C 165.158 123.42 220.764 125.08 220.764 124.25 C 220.764 123.42 176.777 157.448 176.777 157.448 C 176.777 157.448 197.525 215.544 196.696 213.884 C 195.866 212.224 148.559 179.026 148.559 179.026 C 148.559 179.026 100.423 212.224 101.253 212.224 C 102.083 212.224 119.511 157.448 119.511 157.448 L 76.3544 125.08 L 130.3 124.25 z " id="path653" style="fill:#ffe700;fill-rule:evenodd;stroke-width:1pt;" transform="matrix(0.753475,0.000000,0.000000,0.762576,351.9197,-179.5669)"/>
        <path d="M 130.3 124.25 C 130.3 123.42 148.559 72.7941 148.559 72.7941 L 165.158 123.42 C 165.158 123.42 220.764 125.08 220.764 124.25 C 220.764 123.42 176.777 157.448 176.777 157.448 C 176.777 157.448 197.525 215.544 196.696 213.884 C 195.866 212.224 148.559 179.026 148.559 179.026 C 148.559 179.026 100.423 212.224 101.253 212.224 C 102.083 212.224 119.511 157.448 119.511 157.448 L 76.3544 125.08 L 130.3 124.25 z " id="path654" style="fill:#108c00;fill-rule:evenodd;stroke-width:1pt;" transform="matrix(0.434443,0.000000,0.000000,0.439691,399.3148,-133.0273)"/>
      </g>
    </g>
    <g id="g595" transform="matrix(-0.340980,-4.175663e-17,4.175663e-17,-0.340980,766.4069,241.3879)">
      <path d="M 130.3 124.25 C 130.3 123.42 148.559 72.7941 148.559 72.7941 L 165.158 123.42 C 165.158 123.42 220.764 125.08 220.764 124.25 C 220.764 123.42 176.777 157.448 176.777 157.448 C 176.777 157.448 197.525 215.544 196.696 213.884 C 195.866 212.224 148.559 179.026 148.559 179.026 C 148.559 179.026 100.423 212.224 101.253 212.224 C 102.083 212.224 119.511 157.448 119.511 157.448 L 76.3544 125.08 L 130.3 124.25 z " id="path596" style="fill-rule:evenodd;stroke-width:1pt;" transform="matrix(0.869967,0.000000,0.000000,0.880476,362.5389,-228.3465)"/>
      <g id="g598" transform="translate(27.95990,-31.86637)">
        <rect height="0.00000000" id="rect599" style="fill:#108c00;fill-rule:evenodd;stroke-width:1pt;" width="1.67041016" x="233.858307" y="177.013443"/>
        <path d="M 130.3 124.25 C 130.3 123.42 148.559 72.7941 148.559 72.7941 L 165.158 123.42 C 165.158 123.42 220.764 125.08 220.764 124.25 C 220.764 123.42 176.777 157.448 176.777 157.448 C 176.777 157.448 197.525 215.544 196.696 213.884 C 195.866 212.224 148.559 179.026 148.559 179.026 C 148.559 179.026 100.423 212.224 101.253 212.224 C 102.083 212.224 119.511 157.448 119.511 157.448 L 76.3544 125.08 L 130.3 124.25 z " id="path600" style="fill:#ffe700;fill-rule:evenodd;stroke-width:1pt;" transform="matrix(0.753475,0.000000,0.000000,0.762576,351.9197,-179.5669)"/>
        <path d="M 130.3 124.25 C 130.3 123.42 148.559 72.7941 148.559 72.7941 L 165.158 123.42 C 165.158 123.42 220.764 125.08 220.764 124.25 C 220.764 123.42 176.777 157.448 176.777 157.448 C 176.777 157.448 197.525 215.544 196.696 213.884 C 195.866 212.224 148.559 179.026 148.559 179.026 C 148.559 179.026 100.423 212.224 101.253 212.224 C 102.083 212.224 119.511 157.448 119.511 157.448 L 76.3544 125.08 L 130.3 124.25 z " id="path603" style="fill:#108c00;fill-rule:evenodd;stroke-width:1pt;" transform="matrix(0.434443,0.000000,0.000000,0.439691,399.3148,-133.0273)"/>
      </g>
    </g>
    <g id="g604" transform="matrix(-0.340980,-4.175663e-17,4.175663e-17,-0.340980,664.1449,323.4449)">
      <path d="M 130.3 124.25 C 130.3 123.42 148.559 72.7941 148.559 72.7941 L 165.158 123.42 C 165.158 123.42 220.764 125.08 220.764 124.25 C 220.764 123.42 176.777 157.448 176.777 157.448 C 176.777 157.448 197.525 215.544 196.696 213.884 C 195.866 212.224 148.559 179.026 148.559 179.026 C 148.559 179.026 100.423 212.224 101.253 212.224 C 102.083 212.224 119.511 157.448 119.511 157.448 L 76.3544 125.08 L 130.3 124.25 z " id="path605" style="fill-rule:evenodd;stroke-width:1pt;" transform="matrix(0.869967,0.000000,0.000000,0.880476,362.5389,-228.3465)"/>
      <g id="g606" transform="translate(27.95990,-31.86637)">
        <rect height="0.00000000" id="rect607" style="fill:#108c00;fill-rule:evenodd;stroke-width:1pt;" width="1.67041016" x="233.858307" y="177.013443"/>
        <path d="M 130.3 124.25 C 130.3 123.42 148.559 72.7941 148.559 72.7941 L 165.158 123.42 C 165.158 123.42 220.764 125.08 220.764 124.25 C 220.764 123.42 176.777 157.448 176.777 157.448 C 176.777 157.448 197.525 215.544 196.696 213.884 C 195.866 212.224 148.559 179.026 148.559 179.026 C 148.559 179.026 100.423 212.224 101.253 212.224 C 102.083 212.224 119.511 157.448 119.511 157.448 L 76.3544 125.08 L 130.3 124.25 z " id="path608" style="fill:#ffe700;fill-rule:evenodd;stroke-width:1pt;" transform="matrix(0.753475,0.000000,0.000000,0.762576,351.9197,-179.5669)"/>
        <path d="M 130.3 124.25 C 130.3 123.42 148.559 72.7941 148.559 72.7941 L 165.158 123.42 C 165.158 123.42 220.764 125.08 220.764 124.25 C 220.764 123.42 176.777 157.448 176.777 157.448 C 176.777 157.448 197.525 215.544 196.696 213.884 C 195.866 212.224 148.559 179.026 148.559 179.026 C 148.559 179.026 100.423 212.224 101.253 212.224 C 102.083 212.224 119.511 157.448 119.511 157.448 L 76.3544 125.08 L 130.3 124.25 z " id="path609" style="fill:#108c00;fill-rule:evenodd;stroke-width:1pt;" transform="matrix(0.434443,0.000000,0.000000,0.439691,399.3148,-133.0273)"/>
      </g>
    </g>
    <g id="g610" transform="matrix(-0.340980,-4.175663e-17,4.175663e-17,-0.340980,568.0681,241.3879)">
      <path d="M 130.3 124.25 C 130.3 123.42 148.559 72.7941 148.559 72.7941 L 165.158 123.42 C 165.158 123.42 220.764 125.08 220.764 124.25 C 220.764 123.42 176.777 157.448 176.777 157.448 C 176.777 157.448 197.525 215.544 196.696 213.884 C 195.866 212.224 148.559 179.026 148.559 179.026 C 148.559 179.026 100.423 212.224 101.253 212.224 C 102.083 212.224 119.511 157.448 119.511 157.448 L 76.3544 125.08 L 130.3 124.25 z " id="path611" style="fill-rule:evenodd;stroke-width:1pt;" transform="matrix(0.869967,0.000000,0.000000,0.880476,362.5389,-228.3465)"/>
      <g id="g612" transform="translate(27.95990,-31.86637)">
        <rect height="0.00000000" id="rect613" style="fill:#108c00;fill-rule:evenodd;stroke-width:1pt;" width="1.67041016" x="233.858307" y="177.013443"/>
        <path d="M 130.3 124.25 C 130.3 123.42 148.559 72.7941 148.559 72.7941 L 165.158 123.42 C 165.158 123.42 220.764 125.08 220.764 124.25 C 220.764 123.42 176.777 157.448 176.777 157.448 C 176.777 157.448 197.525 215.544 196.696 213.884 C 195.866 212.224 148.559 179.026 148.559 179.026 C 148.559 179.026 100.423 212.224 101.253 212.224 C 102.083 212.224 119.511 157.448 119.511 157.448 L 76.3544 125.08 L 130.3 124.25 z " id="path614" style="fill:#ffe700;fill-rule:evenodd;stroke-width:1pt;" transform="matrix(0.753475,0.000000,0.000000,0.762576,351.9197,-179.5669)"/>
        <path d="M 130.3 124.25 C 130.3 123.42 148.559 72.7941 148.559 72.7941 L 165.158 123.42 C 165.158 123.42 220.764 125.08 220.764 124.25 C 220.764 123.42 176.777 157.448 176.777 157.448 C 176.777 157.448 197.525 215.544 196.696 213.884 C 195.866 212.224 148.559 179.026 148.559 179.026 C 148.559 179.026 100.423 212.224 101.253 212.224 C 102.083 212.224 119.511 157.448 119.511 157.448 L 76.3544 125.08 L 130.3 124.25 z " id="path615" style="fill:#108c00;fill-rule:evenodd;stroke-width:1pt;" transform="matrix(0.434443,0.000000,0.000000,0.439691,399.3148,-133.0273)"/>
      </g>
    </g>
    <g id="g616" transform="matrix(-0.340980,-4.175663e-17,4.175663e-17,-0.340980,603.5299,130.8790)">
      <path d="M 130.3 124.25 C 130.3 123.42 148.559 72.7941 148.559 72.7941 L 165.158 123.42 C 165.158 123.42 220.764 125.08 220.764 124.25 C 220.764 123.42 176.777 157.448 176.777 157.448 C 176.777 157.448 197.525 215.544 196.696 213.884 C 195.866 212.224 148.559 179.026 148.559 179.026 C 148.559 179.026 100.423 212.224 101.253 212.224 C 102.083 212.224 119.511 157.448 119.511 157.448 L 76.3544 125.08 L 130.3 124.25 z " id="path617" style="fill-rule:evenodd;stroke-width:1pt;" transform="matrix(0.869967,0.000000,0.000000,0.880476,362.5389,-228.3465)"/>
      <g id="g618" transform="translate(27.95990,-31.86637)">
        <rect height="0.00000000" id="rect619" style="fill:#108c00;fill-rule:evenodd;stroke-width:1pt;" width="1.67041016" x="233.858307" y="177.013443"/>
        <path d="M 130.3 124.25 C 130.3 123.42 148.559 72.7941 148.559 72.7941 L 165.158 123.42 C 165.158 123.42 220.764 125.08 220.764 124.25 C 220.764 123.42 176.777 157.448 176.777 157.448 C 176.777 157.448 197.525 215.544 196.696 213.884 C 195.866 212.224 148.559 179.026 148.559 179.026 C 148.559 179.026 100.423 212.224 101.253 212.224 C 102.083 212.224 119.511 157.448 119.511 157.448 L 76.3544 125.08 L 130.3 124.25 z " id="path620" style="fill:#ffe700;fill-rule:evenodd;stroke-width:1pt;" transform="matrix(0.753475,0.000000,0.000000,0.762576,351.9197,-179.5669)"/>
        <path d="M 130.3 124.25 C 130.3 123.42 148.559 72.7941 148.559 72.7941 L 165.158 123.42 C 165.158 123.42 220.764 125.08 220.764 124.25 C 220.764 123.42 176.777 157.448 176.777 157.448 C 176.777 157.448 197.525 215.544 196.696 213.884 C 195.866 212.224 148.559 179.026 148.559 179.026 C 148.559 179.026 100.423 212.224 101.253 212.224 C 102.083 212.224 119.511 157.448 119.511 157.448 L 76.3544 125.08 L 130.3 124.25 z " id="path621" style="fill:#108c00;fill-rule:evenodd;stroke-width:1pt;" transform="matrix(0.434443,0.000000,0.000000,0.439691,399.3148,-133.0273)"/>
      </g>
    </g>
    <g id="g1112" transform="translate(7.403947,348.7255)">
      <g id="g1014" transform="matrix(0.163503,-1.627543e-2,1.182242e-2,0.184363,429.8350,-215.6278)">
        <ellipse cx="680.205688" cy="586.125732" id="path1011" rx="30.804932" ry="189.824860" style="fill:#009200;fill-rule:evenodd;stroke:#000000;stroke-width:2.5;" transform="matrix(1.405124,-5.812161e-3,8.166948e-3,0.999983,-534.2869,263.7234)"/>
        <ellipse cx="680.205688" cy="586.125732" id="path1012" rx="30.804932" ry="189.824860" style="fill:#009200;fill-rule:evenodd;stroke:#000000;stroke-width:2.5;" transform="matrix(1.486152,-5.812161e-3,8.637901e-3,0.999983,-547.2176,267.0538)"/>
        <ellipse cx="680.205688" cy="586.125732" id="path1013" rx="30.804932" ry="189.824860" style="fill:#009200;fill-rule:evenodd;stroke:#000000;stroke-width:2.5;" transform="matrix(1.189050,-6.423977e-3,6.911065e-3,1.105246,-364.9289,214.0982)"/>
      </g>
      <g id="g1105" transform="translate(72.86526,-9.797035)">
        <path d="M 238.342 971.79 C 268.314 970.125 254.993 955.138 269.979 946.813 C 284.965 938.487 306.612 943.483 313.272 953.473 C 319.933 963.464 314.938 973.455 323.263 973.455 C 331.589 973.455 557.819 960.78 566.144 969.106 C 574.47 977.431 576.135 994.083 567.809 1000.74 C 559.484 1007.4 273.309 1015.08 263.319 1008.42 C 253.328 1001.76 238.342 973.455 238.342 971.79 z " id="path1010" style="fill:#a95600;fill-rule:evenodd;stroke:#000000;stroke-width:2.5054;" transform="matrix(0.202443,3.486294e-3,-3.936657e-3,0.213850,340.8638,-247.3115)"/>
        <path d="M 529.59 405.459 C 529.59 445.442 575.152 433.338 576.4 466.708 C 575.676 502.116 499.694 470.175 497.765 405.459 C 499.694 340.743 572.872 307.53 574.47 344.448 C 575.716 375.134 529.59 365.476 529.59 405.459 z " id="path1506" style="fill:#ffff00;fill-rule:evenodd;stroke:#000000;stroke-width:3.85272;" transform="matrix(0.147992,1.951432e-3,-2.754835e-3,0.114586,340.4216,-81.69088)"/>
        <path d="M 529.59 405.459 C 529.59 445.442 575.152 433.338 576.4 466.708 C 575.676 502.116 499.694 470.175 497.765 405.459 C 499.694 340.743 572.872 307.53 574.47 344.448 C 575.716 375.134 529.59 365.476 529.59 405.459 z " id="path1507" style="fill:#ffff00;fill-rule:evenodd;stroke:#000000;stroke-width:3.85272;" transform="matrix(0.147992,1.951432e-3,-2.754835e-3,0.114586,344.4198,-81.63816)"/>
        <path d="M 529.59 405.459 C 529.59 445.442 575.152 433.338 576.4 466.708 C 575.676 502.116 499.694 470.175 497.765 405.459 C 499.694 340.743 572.872 307.53 574.47 344.448 C 575.716 375.134 529.59 365.476 529.59 405.459 z " id="path1508" style="fill:#ffff00;fill-rule:evenodd;stroke:#000000;stroke-width:3.85272;" transform="matrix(0.147992,1.951432e-3,-2.754835e-3,0.114586,348.7088,-81.79968)"/>
        <path d="M 529.59 405.459 C 529.59 445.442 575.152 433.338 576.4 466.708 C 575.676 502.116 499.694 470.175 497.765 405.459 C 499.694 340.743 572.872 307.53 574.47 344.448 C 575.716 375.134 529.59 365.476 529.59 405.459 z " id="path1509" style="fill:#ffff00;fill-rule:evenodd;stroke:#000000;stroke-width:3.85272;" transform="matrix(0.147992,1.951432e-3,-2.754835e-3,0.114586,352.7069,-81.74693)"/>
        <ellipse cx="478.381744" cy="-41.085754" id="path1091" rx="3.533875" ry="3.402977" style="fill:#a95600;fill-rule:evenodd;stroke:#000000;stroke-width:0.399083;" transform="matrix(1.094549,1.648336e-2,-2.428555e-2,1.153662,-75.57140,4.677567)"/>
      </g>
      <g id="g1048" transform="matrix(0.994885,-0.101022,0.101022,0.994885,66.68384,66.33841)">
        <ellipse cx="427.105896" cy="904.998169" id="path1049" rx="20.814133" ry="24.144409" style="fill:#009200;fill-rule:evenodd;stroke:#000000;stroke-width:2.5;" transform="matrix(0.166193,-8.072795e-3,1.687537e-3,0.315205,369.7997,-361.6541)"/>
        <ellipse cx="427.105896" cy="904.998169" id="path1050" rx="20.814133" ry="24.144409" style="fill:#009200;fill-rule:evenodd;stroke:#000000;stroke-width:2.5;" transform="matrix(0.166193,-8.072795e-3,1.687537e-3,0.315205,364.0408,-362.7012)"/>
        <ellipse cx="427.105896" cy="904.998169" id="path1052" rx="20.814133" ry="24.144409" style="fill:#009200;fill-rule:evenodd;stroke:#000000;stroke-width:2.5;" transform="matrix(0.166193,-8.072776e-3,1.687537e-3,0.315204,360.6378,-370.5537)"/>
        <ellipse cx="427.105896" cy="904.998169" id="path1053" rx="20.814133" ry="24.144409" style="fill:#009200;fill-rule:evenodd;stroke:#000000;stroke-width:2.5;" transform="matrix(0.159905,-8.905569e-3,1.623691e-3,0.347721,369.2988,-399.3517)"/>
        <ellipse cx="427.105896" cy="904.998169" id="path1054" rx="20.814133" ry="24.144409" style="fill:#009200;fill-rule:evenodd;stroke:#000000;stroke-width:2.5;" transform="matrix(0.159905,-8.350374e-3,1.623691e-3,0.326043,377.4103,-379.0724)"/>
        <ellipse cx="427.105896" cy="904.998169" id="path1055" rx="20.814133" ry="24.144409" style="fill:#009200;fill-rule:evenodd;stroke:#000000;stroke-width:2.5;" transform="matrix(0.159905,-8.350374e-3,1.623691e-3,0.326043,373.2220,-382.2137)"/>
        <ellipse cx="427.105896" cy="904.998169" id="path1056" rx="20.814133" ry="24.144409" style="fill:#009200;fill-rule:evenodd;stroke:#000000;stroke-width:2.5;" transform="matrix(0.159905,-8.350374e-3,1.623691e-3,0.326043,367.9866,-386.6638)"/>
        <ellipse cx="427.105896" cy="904.998169" id="path1057" rx="20.814133" ry="24.144409" style="fill:#009200;fill-rule:evenodd;stroke:#000000;stroke-width:2.5;" transform="matrix(0.159905,-8.350374e-3,1.623691e-3,0.326043,363.0129,-389.5432)"/>
      </g>
      <path d="M 173.174 346.347 C 173.174 346.347 118.976 411.24 151.922 555.162 C 185.88 699.752 330.887 744.945 330.887 744.945 C 330.887 744.945 357.383 697.522 332.613 580.904 C 292.65 411.061 216.467 346.347 216.467 346.347 L 173.174 346.347 z " id="path851" style="fill:#804bff;fill-rule:evenodd;stroke:#000000;stroke-width:2.5;" transform="matrix(0.176889,3.219125e-2,-3.142231e-2,0.182359,461.7877,-208.6117)"/>
      <g id="g1026" transform="matrix(0.996961,7.791016e-2,-7.791016e-2,0.996961,60.53158,-11.75977)">
        <ellipse cx="427.105896" cy="904.998169" id="path1025" rx="20.814133" ry="24.144409" style="fill:#009200;fill-rule:evenodd;stroke:#000000;stroke-width:2.5;" transform="matrix(0.166193,-8.072795e-3,1.687537e-3,0.315205,369.7997,-361.6541)"/>
        <ellipse cx="427.105896" cy="904.998169" id="path1017" rx="20.814133" ry="24.144409" style="fill:#009200;fill-rule:evenodd;stroke:#000000;stroke-width:2.5;" transform="matrix(0.166193,-8.072795e-3,1.687537e-3,0.315205,364.0408,-362.7012)"/>
        <ellipse cx="427.105896" cy="904.998169" id="path1016" rx="20.814133" ry="24.144409" style="fill:#009200;fill-rule:evenodd;stroke:#000000;stroke-width:2.5;" transform="matrix(0.166193,-8.072776e-3,1.687537e-3,0.315204,360.6378,-370.5537)"/>
        <ellipse cx="427.105896" cy="904.998169" id="path1018" rx="20.814133" ry="24.144409" style="fill:#009200;fill-rule:evenodd;stroke:#000000;stroke-width:2.5;" transform="matrix(0.159905,-8.905569e-3,1.623691e-3,0.347721,369.2988,-399.3517)"/>
        <ellipse cx="427.105896" cy="904.998169" id="path1020" rx="20.814133" ry="24.144409" style="fill:#009200;fill-rule:evenodd;stroke:#000000;stroke-width:2.5;" transform="matrix(0.159905,-8.350374e-3,1.623691e-3,0.326043,377.4103,-379.0724)"/>
        <ellipse cx="427.105896" cy="904.998169" id="path1019" rx="20.814133" ry="24.144409" style="fill:#009200;fill-rule:evenodd;stroke:#000000;stroke-width:2.5;" transform="matrix(0.159905,-8.350374e-3,1.623691e-3,0.326043,373.2220,-382.2137)"/>
        <ellipse cx="427.105896" cy="904.998169" id="path1005" rx="20.814133" ry="24.144409" style="fill:#009200;fill-rule:evenodd;stroke:#000000;stroke-width:2.5;" transform="matrix(0.159905,-8.350374e-3,1.623691e-3,0.326043,367.9866,-386.6638)"/>
        <ellipse cx="427.105896" cy="904.998169" id="path988" rx="20.814133" ry="24.144409" style="fill:#009200;fill-rule:evenodd;stroke:#000000;stroke-width:2.5;" transform="matrix(0.159905,-8.350374e-3,1.623691e-3,0.326043,363.0129,-389.5432)"/>
      </g>
      <ellipse cx="624.423828" cy="606.107300" id="path985" rx="58.279541" ry="186.494583" style="fill:#c90000;fill-rule:evenodd;stroke:#000000;stroke-width:1pt;" transform="matrix(0.156948,-6.062813e-2,6.364226e-2,0.148405,369.6128,-145.0546)"/>
      <g id="g1072" transform="matrix(0.999842,1.780211e-2,-1.780211e-2,0.999842,-34.81445,-4.628464)">
        <ellipse cx="218.132080" cy="356.754028" id="path872" rx="10.823341" ry="12.904770" style="fill:#009200;fill-rule:evenodd;stroke:#000000;stroke-width:1.46349;" transform="matrix(0.395296,0.000000,0.000000,0.292704,445.0725,-230.5263)"/>
        <ellipse cx="218.132080" cy="356.754028" id="path888" rx="10.823341" ry="12.904770" style="fill:#009200;fill-rule:evenodd;stroke:#000000;stroke-width:1.54623;" transform="matrix(0.354120,0.000000,0.000000,0.292704,457.1741,-235.9224)"/>
        <ellipse cx="218.132080" cy="356.754028" id="path887" rx="10.823341" ry="12.904770" style="fill:#009200;fill-rule:evenodd;stroke:#000000;stroke-width:1.54623;" transform="matrix(0.354120,0.000000,0.000000,0.292704,452.0043,-235.9224)"/>
        <ellipse cx="218.132080" cy="356.754028" id="path879" rx="10.823341" ry="12.904770" style="fill:#009200;fill-rule:evenodd;stroke:#000000;stroke-width:1.55999;" transform="matrix(0.370591,0.000000,0.000000,0.274783,449.4811,-233.4606)"/>
        <ellipse cx="218.132080" cy="356.754028" id="path878" rx="10.823341" ry="12.904770" style="fill:#009200;fill-rule:evenodd;stroke:#000000;stroke-width:1.55999;" transform="matrix(0.370591,0.000000,0.000000,0.274783,448.9463,-237.9316)"/>
        <ellipse cx="218.132080" cy="356.754028" id="path867" rx="10.823341" ry="12.904770" style="fill:#009200;fill-rule:evenodd;stroke:#000000;stroke-width:1.54623;" transform="matrix(0.354120,0.000000,0.000000,0.292704,447.0128,-238.8517)"/>
        <ellipse cx="218.132080" cy="356.754028" id="path877" rx="10.823341" ry="12.904770" style="fill:#009200;fill-rule:evenodd;stroke:#000000;stroke-width:1.56226;" transform="matrix(0.354120,0.000000,0.000000,0.286730,448.0824,-241.5770)"/>
        <ellipse cx="218.132080" cy="356.754028" id="path876" rx="10.823341" ry="12.904770" style="fill:#009200;fill-rule:evenodd;stroke:#000000;stroke-width:1.46349;" transform="matrix(0.395296,0.000000,0.000000,0.292704,432.7720,-243.4769)"/>
        <ellipse cx="218.132080" cy="356.754028" id="path874" rx="10.823341" ry="12.904770" style="fill:#009200;fill-rule:evenodd;stroke:#000000;stroke-width:1.55999;" transform="matrix(0.370591,0.000000,0.000000,0.274783,445.9157,-243.4819)"/>
        <ellipse cx="218.132080" cy="356.754028" id="path873" rx="10.823341" ry="12.904770" style="fill:#009200;fill-rule:evenodd;stroke:#000000;stroke-width:1.56226;" transform="matrix(0.354120,0.000000,0.000000,0.286730,444.1605,-246.9731)"/>
        <ellipse cx="218.132080" cy="356.754028" id="path871" rx="10.823341" ry="12.904770" style="fill:#009200;fill-rule:evenodd;stroke:#000000;stroke-width:1.54623;" transform="matrix(0.354120,0.000000,0.000000,0.292704,436.1385,-243.1686)"/>
        <ellipse cx="218.132080" cy="356.754028" id="path1070" rx="10.823341" ry="12.904770" style="fill:#009200;fill-rule:evenodd;stroke:#000000;stroke-width:1.56226;" transform="matrix(0.354120,0.000000,0.000000,0.286730,437.4203,-243.8784)"/>
        <ellipse cx="218.132080" cy="356.754028" id="path869" rx="10.823341" ry="12.904770" style="fill:#009200;fill-rule:evenodd;stroke:#000000;stroke-width:1.56226;" transform="matrix(0.354120,0.000000,0.000000,0.286730,438.9908,-247.0197)"/>
      </g>
      <g id="g946" transform="matrix(0.179609,-4.521057e-3,4.192619e-3,0.185123,420.9863,-216.8024)">
        <ellipse cx="528.678894" cy="564.479004" id="path889" rx="67.437759" ry="205.643600" style="fill:#009200;fill-rule:evenodd;stroke:#000000;stroke-width:2.54486;" transform="matrix(0.975740,-0.307929,0.363045,0.874481,-245.8061,324.3975)"/>
        <ellipse cx="528.678833" cy="646.070435" id="path894" rx="13.321075" ry="40.795685" style="fill:#009200;fill-rule:evenodd;stroke:#000000;stroke-width:2.5;" transform="matrix(0.917882,-0.396852,0.396852,0.917882,-210.4826,304.4884)"/>
        <path d="M 139.87 643.988 C 139.87 701.665 121.115 730.159 105.319 754.303 C 112.836 721.833 118.224 701.666 118.224 643.989 C 118.224 586.312 147.803 558.652 158.603 542 C 154.417 558.652 139.87 586.312 139.87 643.988 z " id="path893" style="fill:#009200;fill-rule:evenodd;stroke:#000000;stroke-width:1.53268;" transform="matrix(1.882818,-0.455977,0.953423,1.182187,-352.2551,-10.01956)"/>
        <path d="M 139.87 643.988 C 139.87 701.665 121.115 730.159 105.319 754.303 C 112.836 721.833 118.224 701.666 118.224 643.989 C 118.224 586.312 147.803 558.652 158.603 542 C 154.417 558.652 139.87 586.312 139.87 643.988 z " id="path892" style="fill:#009200;fill-rule:evenodd;stroke:#000000;stroke-width:1.53268;" transform="matrix(1.882818,-0.455977,0.953423,1.182187,-348.4234,44.05751)"/>
        <path d="M 139.87 643.988 C 139.87 701.665 121.115 730.159 105.319 754.303 C 112.836 721.833 118.224 701.666 118.224 643.989 C 118.224 586.312 147.803 558.652 158.603 542 C 154.417 558.652 139.87 586.312 139.87 643.988 z " id="path891" style="fill:#009200;fill-rule:evenodd;stroke:#000000;stroke-width:1.53268;" transform="matrix(1.873020,-0.494682,0.977582,1.162287,-361.9242,105.7834)"/>
        <ellipse cx="528.678833" cy="646.070435" id="path895" rx="13.321075" ry="40.795685" style="fill:#009200;fill-rule:evenodd;stroke:#000000;stroke-width:1.38875;" transform="matrix(1.810478,-0.400515,0.699068,1.635286,-915.6300,-221.0144)"/>
        <ellipse cx="528.678833" cy="646.070435" id="path896" rx="13.321075" ry="40.795685" style="fill:#009200;fill-rule:evenodd;stroke:#000000;stroke-width:1.63984;" transform="matrix(1.625675,-0.230684,0.541575,1.352842,-739.4891,-91.77486)"/>
        <ellipse cx="528.678833" cy="646.070435" id="path897" rx="13.321075" ry="40.795685" style="fill:#009200;fill-rule:evenodd;stroke:#000000;stroke-width:1.63984;" transform="matrix(1.630439,-0.197194,0.512514,1.363529,-750.6206,-91.82552)"/>
        <ellipse cx="528.678833" cy="646.070435" id="path898" rx="13.321075" ry="40.795685" style="fill:#009200;fill-rule:evenodd;stroke:#000000;stroke-width:2.09662;" transform="matrix(1.314450,-0.200604,0.468889,1.010117,-531.0563,47.56802)"/>
        <ellipse cx="528.678833" cy="646.070435" id="path899" rx="13.321075" ry="40.795685" style="fill:#009200;fill-rule:evenodd;stroke:#000000;stroke-width:2.09662;" transform="matrix(1.325781,-0.130444,0.403422,1.032739,-517.8685,12.21143)"/>
        <path d="M 145.698 569.474 C 145.698 603.48 138.986 631.084 130.713 631.084 C 122.441 631.084 115.727 603.48 115.727 569.474 " id="path945" style="fill:#009200;fill-rule:evenodd;stroke:#000000;stroke-width:2.08616;" transform="matrix(1.025425,-0.492771,0.464381,1.177331,12.76656,-14.51900)"/>
        <ellipse cx="528.678833" cy="646.070435" id="path902" rx="13.321075" ry="40.795685" style="fill:#009200;fill-rule:evenodd;stroke:#000000;stroke-width:2.09662;" transform="matrix(1.325781,-0.130444,0.403422,1.032739,-519.5336,-34.41226)"/>
        <ellipse cx="528.678833" cy="646.070435" id="path903" rx="13.321075" ry="40.795685" style="fill:#009200;fill-rule:evenodd;stroke:#000000;stroke-width:2.09662;" transform="matrix(1.328753,-0.105107,0.379547,1.040012,-533.9751,-40.12073)"/>
        <path d="M 145.698 569.474 C 145.698 603.48 138.986 631.084 130.713 631.084 C 122.441 631.084 115.727 603.48 115.727 569.474 " id="path909" style="fill:#009200;fill-rule:evenodd;stroke:#000000;stroke-width:2.87967;" transform="matrix(0.672197,-0.471822,0.458936,0.799103,39.48589,143.2780)"/>
        <path d="M 145.698 569.474 C 145.698 603.48 138.986 631.084 130.713 631.084 C 122.441 631.084 115.727 603.48 115.727 569.474 " id="path906" style="fill:#009200;fill-rule:evenodd;stroke:#000000;stroke-width:2.87967;" transform="matrix(0.672197,-0.471822,0.458936,0.799103,51.14178,125.7941)"/>
        <path d="M 145.698 569.474 C 145.698 603.48 138.986 631.084 130.713 631.084 C 122.441 631.084 115.727 603.48 115.727 569.474 " id="path907" style="fill:#009200;fill-rule:evenodd;stroke:#000000;stroke-width:2.08616;" transform="matrix(0.937396,-0.644677,0.639998,1.091861,-40.19822,-10.74352)"/>
        <path d="M 145.698 569.474 C 145.698 603.48 138.986 631.084 130.713 631.084 C 122.441 631.084 115.727 603.48 115.727 569.474 " id="path908" style="fill:#009200;fill-rule:evenodd;stroke:#000000;stroke-width:2.74245;" transform="matrix(0.672197,-0.520221,0.458936,0.881076,68.62559,71.17856)"/>
      </g>
      <g id="g919" transform="matrix(1.101444,0.275869,-0.265588,0.974374,-85.41525,-157.9016)">
        <path d="M 276.266 345.409 C 263.988 354.583 276.675 370.553 288.288 376.088 C 301.348 383.76 374.891 434.273 424.605 388.087 C 383.81 388.92 305.942 324.904 276.266 345.409 z " id="path875" style="fill:#804bff;fill-rule:evenodd;stroke:#000000;stroke-width:2.5;" transform="matrix(0.134413,-3.044850e-2,4.851113e-2,0.216811,448.7474,-184.9145)"/>
        <path d="M 276.266 345.409 C 263.988 354.583 276.675 370.553 288.288 376.088 C 301.348 383.76 374.891 434.273 424.605 388.087 C 383.81 388.92 305.942 324.904 276.266 345.409 z " id="path870" style="fill:#804bff;fill-rule:evenodd;stroke:#000000;stroke-width:2.5;" transform="matrix(0.134413,-3.044850e-2,4.851113e-2,0.216811,446.2043,-190.2180)"/>
        <path d="M 276.266 345.409 C 263.988 354.583 276.675 370.553 288.288 376.088 C 301.348 383.76 374.891 434.273 424.605 388.087 C 383.81 388.92 305.942 324.904 276.266 345.409 z " id="path868" style="fill:#804bff;fill-rule:evenodd;stroke:#000000;stroke-width:2.5;" transform="matrix(0.134413,-3.044850e-2,4.851113e-2,0.216811,443.3872,-195.1923)"/>
        <path d="M 276.266 345.409 C 263.988 354.583 276.675 370.553 288.288 376.088 C 301.348 383.76 374.891 434.273 424.605 388.087 C 383.81 388.92 305.942 324.904 276.266 345.409 z " id="path866" style="fill:#804bff;fill-rule:evenodd;stroke:#000000;stroke-width:2.5;" transform="matrix(0.134413,-3.044850e-2,4.851113e-2,0.216811,438.6063,-200.4414)"/>
      </g>
      <g id="g907" transform="matrix(0.999842,1.780211e-2,-1.780211e-2,0.999842,12.04015,10.60534)">
        <path d="M 211.167 247.301 C 232.94 235.236 267.785 237.552 290.901 258.466 C 310.261 275.409 336.208 333.66 361.223 351.3 C 340.996 351.319 329.925 345.531 318.982 336.12 C 290.215 351.562 280.855 352.844 255.092 351.752 C 219.211 350.418 192.633 334.098 186.914 311.148 C 180.748 289.344 191.839 258.65 211.167 247.301 z " id="path852" style="fill:#804bff;fill-rule:evenodd;stroke:#000000;stroke-width:2.5;" transform="matrix(0.208828,-4.091126e-2,4.730467e-2,0.180604,407.8048,-213.6359)"/>
        <ellipse cx="287.234985" cy="323.035156" id="path1051" rx="14.153610" ry="14.986160" style="fill:#ff0000;fill-rule:evenodd;stroke:#000000;stroke-width:2.5;" transform="matrix(0.245210,0.000000,0.000000,0.134333,401.8211,-215.1804)"/>
        <ellipse cx="204.577606" cy="348.261993" id="path1062" rx="23.254143" ry="15.895233" style="fill:#ffff00;fill-rule:evenodd;stroke:#000000;stroke-width:2.5;" transform="matrix(0.193640,-7.598685e-2,6.759024e-2,0.172730,398.6623,-208.0622)"/>
        <ellipse cx="283.904724" cy="333.858459" id="path1059" rx="5.827957" ry="5.827942" style="fill-rule:evenodd;stroke-width:1pt;" transform="matrix(0.214119,0.000000,0.000000,0.185180,411.2866,-233.7407)"/>
        <path d="M 516.796 260.294 C 521.221 278.401 510.122 303.377 483.663 312.903 C 456.888 326.076 437.584 354.734 428.022 400.92 C 380.778 297.65 404.915 252.645 448.622 240.574 C 485.999 226.211 509.042 227.203 516.796 260.294 z " id="path1061" style="fill:#ffff00;fill-rule:evenodd;stroke:#000000;stroke-width:6.55976;" transform="matrix(9.228922e-2,8.874689e-4,-3.397048e-3,8.481727e-2,417.8523,-191.4926)"/>
        <ellipse cx="198.984879" cy="362.390930" id="path1113" rx="4.709702" ry="4.709702" style="fill-rule:evenodd;stroke-width:1pt;" transform="matrix(0.186968,-1.313064e-2,1.398806e-2,0.191430,418.6864,-234.9767)"/>
      </g>
    </g>
  </g>
</svg>
