<?xml version="1.0" encoding="UTF-8" standalone="no"?>
<!DOCTYPE svg PUBLIC "-//W3C//DTD SVG 20010904//EN"
"http://www.w3.org/TR/2001/REC-SVG-20010904/DTD/svg10.dtd">
<!-- Created with Sodipodi ("http://www.sodipodi.com/") --><svg height="140mm" id="svg986" sodipodi:docbase="/home/yemu/clipart/newnewnew" sodipodi:docname="/home/yemu/clipart/newnewnew/micronesia.svg" sodipodi:version="0.33pre" width="280mm" xmlns="http://www.w3.org/2000/svg" xmlns:sodipodi="http://sodipodi.sourceforge.net/DTD/sodipodi-0.dtd" xmlns:xlink="http://www.w3.org/1999/xlink">
  <metadata>
    <rdf:RDF xmlns:cc="http://web.resource.org/cc/" xmlns:dc="http://purl.org/dc/elements/1.1/" xmlns:rdf="http://www.w3.org/1999/02/22-rdf-syntax-ns#">
      <cc:Work rdf:about="">
        <dc:title>Micronesia</dc:title>
        <dc:description></dc:description>
        <dc:subject>
          <rdf:Bag>
            <rdf:li>micronesia</rdf:li>
            <rdf:li></rdf:li>
            <rdf:li>united_nations_member</rdf:li>
            <rdf:li>oceania</rdf:li>
            <rdf:li>flag</rdf:li>
            <rdf:li>sign</rdf:li>
          </rdf:Bag>
        </dc:subject>
        <dc:publisher>
          <cc:Agent rdf:about="http://www.openclipart.org">
            <dc:title>Cezary Biele</dc:title>
          </cc:Agent>
        </dc:publisher>
        <dc:creator>
          <cc:Agent>
            <dc:title>Cezary Biele</dc:title>
          </cc:Agent>
        </dc:creator>
        <dc:rights>
          <cc:Agent>
            <dc:title>Cezary Biele</dc:title>
          </cc:Agent>
        </dc:rights>
        <dc:date></dc:date>
        <dc:format>image/svg+xml</dc:format>
        <dc:type rdf:resource="http://purl.org/dc/dcmitype/StillImage"/>
        <cc:license rdf:resource="http://web.resource.org/cc/PublicDomain"/>
        <dc:language>en</dc:language>
      </cc:Work>
      <cc:License rdf:about="http://web.resource.org/cc/PublicDomain">
        <cc:permits rdf:resource="http://web.resource.org/cc/Reproduction"/>
        <cc:permits rdf:resource="http://web.resource.org/cc/Distribution"/>
        <cc:permits rdf:resource="http://web.resource.org/cc/DerivativeWorks"/>
      </cc:License>
    </rdf:RDF>
  </metadata>
  <defs id="defs988"/>
  <sodipodi:namedview id="base" showgrid="true" snaptogrid="true">
    <sodipodi:guide id="guide998" orientation="horizontal" position="792.546631"/>
    <sodipodi:guide id="guide999" orientation="horizontal" position="786.210144"/>
    <sodipodi:guide id="guide1000" orientation="horizontal" position="789.215881"/>
  </sodipodi:namedview>
  <rect height="496.062988" id="rect1390" style="font-size:12;fill:#6797d6;fill-rule:evenodd;stroke-width:1pt;fill-opacity:1;" width="992.125977" x="0" y="-0.00001526"/>
  <polygon id="polygon1351" points="591.041,433.161 533.774,391.476 476.501,433.151 498.449,365.806 441.115,324.214 511.946,324.278 533.785,256.897 555.613,324.281 626.445,324.23 569.104,365.812 591.041,433.161 " style="font-size:12;fill:#ffffff;fill-rule:evenodd;stroke-width:1pt;fill-opacity:1;" transform="matrix(0.548832,0.000000,0.000000,0.516507,202.9095,-83.04544)"/>
  <polygon id="polygon1387" points="591.041,433.161 533.774,391.476 476.501,433.151 498.449,365.806 441.115,324.214 511.946,324.278 533.785,256.897 555.613,324.281 626.445,324.23 569.104,365.812 591.041,433.161 " style="font-size:12;fill:#ffffff;fill-rule:evenodd;stroke-width:1pt;fill-opacity:1;" transform="matrix(0.548832,0.000000,0.000000,-0.516507,202.9095,580.1127)"/>
  <polygon id="polygon1388" points="591.041,433.161 533.774,391.476 476.501,433.151 498.449,365.806 441.115,324.214 511.946,324.278 533.785,256.897 555.613,324.281 626.445,324.23 569.104,365.812 591.041,433.161 " style="font-size:12;fill:#ffffff;fill-rule:evenodd;stroke-width:1pt;fill-opacity:1;" transform="matrix(0.524851,-0.160463,0.151012,0.493938,5.498581,159.0778)"/>
  <polygon id="polygon1389" points="591.041,433.161 533.774,391.476 476.501,433.151 498.449,365.806 441.115,324.214 511.946,324.278 533.785,256.897 555.613,324.281 626.445,324.23 569.104,365.812 591.041,433.161 " style="font-size:12;fill:#ffffff;fill-rule:evenodd;stroke-width:1pt;fill-opacity:1;" transform="matrix(-0.524851,-0.160463,-0.151012,0.493938,986.1252,159.0778)"/>
</svg>
