<?xml version="1.0" encoding="UTF-8" standalone="no"?>
<!DOCTYPE svg PUBLIC "-//W3C//DTD SVG 20010904//EN"
"http://www.w3.org/TR/2001/REC-SVG-20010904/DTD/svg10.dtd">
<!-- Created with Sodipodi ("http://www.sodipodi.com/") --><svg height="140pt" id="england" inkscape:version="0.39" sodipodi:docbase="/home/cschalle/clipart/openclipart-0.10/signs_and_symbols/flags/asia" sodipodi:docname="georgia.svg" sodipodi:version="0.32" width="186pt" xmlns="http://www.w3.org/2000/svg" xmlns:cc="http://web.resource.org/cc/" xmlns:dc="http://purl.org/dc/elements/1.1/" xmlns:inkscape="http://www.inkscape.org/namespaces/inkscape" xmlns:rdf="http://www.w3.org/1999/02/22-rdf-syntax-ns#" xmlns:sodipodi="http://sodipodi.sourceforge.net/DTD/sodipodi-0.dtd" xmlns:xlink="http://www.w3.org/1999/xlink">
  <metadata>
    <rdf:RDF xmlns:cc="http://web.resource.org/cc/" xmlns:dc="http://purl.org/dc/elements/1.1/" xmlns:rdf="http://www.w3.org/1999/02/22-rdf-syntax-ns#">
      <cc:Work rdf:about="">
        <dc:title>Georgia</dc:title>
        <dc:description>HASH(0x86d2470)</dc:description>
        <dc:subject>
          <rdf:Bag>
            <rdf:li>hash</rdf:li>
            <rdf:li></rdf:li>
            <rdf:li>europe</rdf:li>
            <rdf:li>flag</rdf:li>
            <rdf:li>sign</rdf:li>
          </rdf:Bag>
        </dc:subject>
        <dc:publisher>
          <cc:Agent rdf:about="http://www.openclipart.org">
            <dc:title>Christian Schaller</dc:title>
          </cc:Agent>
        </dc:publisher>
        <dc:creator>
          <cc:Agent>
            <dc:title>Christian Schaller</dc:title>
          </cc:Agent>
        </dc:creator>
        <dc:rights>
          <cc:Agent>
            <dc:title>Christian Schaller</dc:title>
          </cc:Agent>
        </dc:rights>
        <dc:date></dc:date>
        <dc:format>image/svg+xml</dc:format>
        <dc:type rdf:resource="http://purl.org/dc/dcmitype/StillImage"/>
        <cc:license rdf:resource="http://web.resource.org/cc/PublicDomain"/>
        <dc:language>en</dc:language>
      </cc:Work>
      <cc:License rdf:about="http://web.resource.org/cc/PublicDomain">
        <cc:permits rdf:resource="http://web.resource.org/cc/Reproduction"/>
        <cc:permits rdf:resource="http://web.resource.org/cc/Distribution"/>
        <cc:permits rdf:resource="http://web.resource.org/cc/DerivativeWorks"/>
      </cc:License>
    </rdf:RDF>
  </metadata>
  <defs id="defs550"/>
  <sodipodi:namedview gridoriginx="0mm" gridoriginy="6mm" gridspacingx="6mm" gridspacingy="6mm" id="base" inkscape:cx="93.000000" inkscape:cy="70.000000" inkscape:window-height="849" inkscape:window-width="975" inkscape:window-x="0" inkscape:window-y="34" inkscape:zoom="2.6142857" showgrid="false" snaptogrid="false"/>
  <rect height="174.53529" id="rect956" style="fill:#ffffff;fill-opacity:1.0000000;fill-rule:evenodd;stroke:#000000;stroke-width:0.98954296pt;stroke-linecap:butt;stroke-linejoin:miter;stroke-opacity:0.0000000;" width="231.91159" x="0.47180170" y="0.47142607"/>
  <g id="g887" transform="matrix(0.682428,0.000000,0.000000,0.690756,0.478142,-1.142578)">
    <rect height="42.519688" id="horizontal" style="font-size:12.000000;fill:#cc0000;fill-rule:evenodd;stroke-width:0.0000000pt;" width="340.15747" x="0.0000000" y="106.18111"/>
    <rect height="253.03149" id="vertical" style="font-size:12.000000;fill:#cc0000;fill-rule:evenodd;stroke-width:0.0000000pt;" width="42.519691" x="148.81889" y="1.9684970"/>
    <g id="g866" style="fill:#cc0000;fill-opacity:1.0000000;" transform="matrix(0.474079,0.000000,0.000000,0.474079,-4.493914,-1.035786)">
      <path d="M 135.39000,106.00000 C 137.04400,108.66700 137.41200,111.48100 135.39000,114.00000 L 140.00000,114.00000 C 138.34500,110.74500 138.52900,108.51900 140.00000,106.00000 L 135.39000,106.00000 z " id="path1167" sodipodi:nodetypes="ccccc" style="font-size:12.000000;" transform="matrix(13.46334,0.000000,0.000000,16.81670,-1687.400,-1735.790)"/>
      <path d="M 135.39000,106.00000 C 137.04400,108.66700 137.41200,111.48100 135.39000,114.00000 L 140.00000,114.00000 C 138.34500,110.74500 138.52900,108.51900 140.00000,106.00000 L 135.39000,106.00000 z " id="path865" sodipodi:nodetypes="ccccc" style="font-size:12.000000;" transform="matrix(8.243645e-16,-13.46334,16.81670,1.029692e-15,-1683.402,1967.882)"/>
    </g>
    <g id="g878" style="fill:#cc0000;fill-opacity:1.0000000;" transform="matrix(0.474079,0.000000,0.000000,0.474079,-4.493914,147.7831)">
      <path d="M 135.39000,106.00000 C 137.04400,108.66700 137.41200,111.48100 135.39000,114.00000 L 140.00000,114.00000 C 138.34500,110.74500 138.52900,108.51900 140.00000,106.00000 L 135.39000,106.00000 z " id="path879" sodipodi:nodetypes="ccccc" style="font-size:12.000000;" transform="matrix(13.46334,0.000000,0.000000,16.81670,-1687.400,-1735.790)"/>
      <path d="M 135.39000,106.00000 C 137.04400,108.66700 137.41200,111.48100 135.39000,114.00000 L 140.00000,114.00000 C 138.34500,110.74500 138.52900,108.51900 140.00000,106.00000 L 135.39000,106.00000 z " id="path880" sodipodi:nodetypes="ccccc" style="font-size:12.000000;" transform="matrix(8.243645e-16,-13.46334,16.81670,1.029692e-15,-1683.402,1967.882)"/>
    </g>
    <g id="g881" style="fill:#cc0000;fill-opacity:1.0000000;" transform="matrix(0.474079,0.000000,0.000000,0.474079,186.8447,147.7831)">
      <path d="M 135.39000,106.00000 C 137.04400,108.66700 137.41200,111.48100 135.39000,114.00000 L 140.00000,114.00000 C 138.34500,110.74500 138.52900,108.51900 140.00000,106.00000 L 135.39000,106.00000 z " id="path882" sodipodi:nodetypes="ccccc" style="font-size:12.000000;" transform="matrix(13.46334,0.000000,0.000000,16.81670,-1687.400,-1735.790)"/>
      <path d="M 135.39000,106.00000 C 137.04400,108.66700 137.41200,111.48100 135.39000,114.00000 L 140.00000,114.00000 C 138.34500,110.74500 138.52900,108.51900 140.00000,106.00000 L 135.39000,106.00000 z " id="path883" sodipodi:nodetypes="ccccc" style="font-size:12.000000;" transform="matrix(8.243645e-16,-13.46334,16.81670,1.029692e-15,-1683.402,1967.882)"/>
    </g>
    <g id="g884" style="fill:#cc0000;fill-opacity:1.0000000;" transform="matrix(0.474079,0.000000,0.000000,0.474079,186.8447,-1.035786)">
      <path d="M 135.39000,106.00000 C 137.04400,108.66700 137.41200,111.48100 135.39000,114.00000 L 140.00000,114.00000 C 138.34500,110.74500 138.52900,108.51900 140.00000,106.00000 L 135.39000,106.00000 z " id="path885" sodipodi:nodetypes="ccccc" style="font-size:12.000000;" transform="matrix(13.46334,0.000000,0.000000,16.81670,-1687.400,-1735.790)"/>
      <path d="M 135.39000,106.00000 C 137.04400,108.66700 137.41200,111.48100 135.39000,114.00000 L 140.00000,114.00000 C 138.34500,110.74500 138.52900,108.51900 140.00000,106.00000 L 135.39000,106.00000 z " id="path886" sodipodi:nodetypes="ccccc" style="font-size:12.000000;" transform="matrix(8.243645e-16,-13.46334,16.81670,1.029692e-15,-1683.402,1967.882)"/>
    </g>
  </g>
</svg>
