<?xml version="1.0" encoding="UTF-8" standalone="no"?>
<!DOCTYPE svg PUBLIC "-//W3C//DTD SVG 20010904//EN"
"http://www.w3.org/TR/2001/REC-SVG-20010904/DTD/svg10.dtd">
<!-- Created with Sodipodi ("http://www.sodipodi.com/") --><svg height="396.85pt" id="svg1387" sodipodi:docbase="/home/scarlet/sodipodi-flags/Regional/" sodipodi:docname="/home/scarlet/sodipodi-flags/Regional/uk_gibraltar.svg" sodipodi:version="0.32" width="793.7pt" xmlns="http://www.w3.org/2000/svg" xmlns:sodipodi="http://sodipodi.sourceforge.net/DTD/sodipodi-0.dtd" xmlns:xlink="http://www.w3.org/1999/xlink">
  <metadata>
    <rdf:RDF xmlns:cc="http://web.resource.org/cc/" xmlns:dc="http://purl.org/dc/elements/1.1/" xmlns:rdf="http://www.w3.org/1999/02/22-rdf-syntax-ns#">
      <cc:Work rdf:about="">
        <dc:title>United Kingdom - Gibraltar</dc:title>
        <dc:description></dc:description>
        <dc:subject>
          <rdf:Bag>
            <rdf:li></rdf:li>
            <rdf:li>united_kingdom</rdf:li>
            <rdf:li>europe</rdf:li>
            <rdf:li>flag</rdf:li>
            <rdf:li>sign</rdf:li>
          </rdf:Bag>
        </dc:subject>
        <dc:publisher>
          <cc:Agent rdf:about="http://www.openclipart.org">
            <dc:title>Christian Schaller</dc:title>
          </cc:Agent>
        </dc:publisher>
        <dc:creator>
          <cc:Agent>
            <dc:title>Christian Schaller</dc:title>
          </cc:Agent>
        </dc:creator>
        <dc:rights>
          <cc:Agent>
            <dc:title>Christian Schaller</dc:title>
          </cc:Agent>
        </dc:rights>
        <dc:date></dc:date>
        <dc:format>image/svg+xml</dc:format>
        <dc:type rdf:resource="http://purl.org/dc/dcmitype/StillImage"/>
        <cc:license rdf:resource="http://web.resource.org/cc/PublicDomain"/>
        <dc:language>en</dc:language>
      </cc:Work>
      <cc:License rdf:about="http://web.resource.org/cc/PublicDomain">
        <cc:permits rdf:resource="http://web.resource.org/cc/Reproduction"/>
        <cc:permits rdf:resource="http://web.resource.org/cc/Distribution"/>
        <cc:permits rdf:resource="http://web.resource.org/cc/DerivativeWorks"/>
      </cc:License>
    </rdf:RDF>
  </metadata>
  <defs id="defs1389"/>
  <sodipodi:namedview id="base" showgrid="true"/>
  <rect height="496.062488" id="rect848" style="font-size:12;fill:#ffffff;fill-rule:evenodd;stroke-width:1pt;fill-opacity:1;" width="992.125000" x="0.000000" y="0.000497"/>
  <path d="M 139.369 122.829 L 139.369 122.829 z M 130.701 114.469 L 129.165 123.121 L 139.89 123 L 138.738 114.47 " id="path8052" sodipodi:nodetypes="cccccc" style="font-size:12;fill:#a11011;fill-opacity:1;" transform="matrix(8.055811,0.000000,0.000000,7.293488,-482.1188,-725.8335)"/>
  <rect height="6.629142" id="rect7926" style="font-size:12;fill:#a11011;fill-rule:evenodd;stroke-width:1pt;fill-opacity:1;" width="26.516508" x="515.304371" y="75.334137"/>
  <rect height="6.629142" id="rect7925" style="font-size:12;fill:#a11011;fill-rule:evenodd;stroke-width:1pt;fill-opacity:1;" width="25.632644" x="483.484549" y="75.334122"/>
  <rect height="6.187209" id="rect7924" style="font-size:12;fill:#a11011;fill-rule:evenodd;stroke-width:1pt;fill-opacity:1;" width="25.632603" x="450.780823" y="74.892144"/>
  <path d="M 139.808 122.829 L 139.808 122.829 z M 129 115 L 129 123 L 140 123 L 140 115.171 L 129 115 " id="path7920" sodipodi:nodetypes="ccccccc" style="font-size:12;fill:#a11011;fill-opacity:1;" transform="matrix(8.256693,0.000000,0.000000,2.032862,-614.0990,-153.0226)"/>
  <path d="M 130.482 113.924 L 129.165 123.121 L 140.548 123.182 L 139.012 113.985 M 139.369 122.829 L 139.369 122.829 z " id="path7918" sodipodi:nodetypes="cccccc" style="font-size:12;fill:#a11011;fill-opacity:1;" transform="matrix(8.055811,0.000000,0.000000,7.293488,-589.0687,-727.1593)"/>
  <rect height="123.763329" id="rect3065" style="font-size:12;fill:#d61517;fill-rule:evenodd;stroke-width:1pt;fill-opacity:1;" width="994.479980" x="-1.411811" y="373.387833"/>
  <rect height="25.591591" id="rect7787" style="font-size:12;fill:#a11011;fill-rule:evenodd;stroke-width:1pt;fill-opacity:1;" width="337.790070" x="327.439667" y="170.116489"/>
  <path d="M 103.222 52.2974 L 101.068 95.8494 L 90 96 L 90 103 L 211 103 L 211 96 L 199.932 96.1506 L 197.779 52.5052 L 103.222 52.2974 z " id="path7415" sodipodi:nodetypes="ccccccccc" style="fill:#a11011;stroke:none;fill-opacity:1;" transform="matrix(3.318127,0.000000,0.000000,2.934802,-2.210965,39.40936)"/>
  <path d="M172 88L172 96L174 96L174 88L172 88M175 88L175 96L191 96L191 88L175 88M192 88L192 96L207 96L207 88L192 88M208 88L208 96L211 96L211 88L208 88z" id="path1018" style="font-size:12;fill:#d61517;" transform="matrix(2.591797,0.000000,0.000000,2.640531,0.000000,-4.861504)"/>
  <path d="M 139.808 122.829 L 139.808 122.829 z M 129 115 L 129 123 L 140 123 L 140 115.171 L 129 115 " id="path1233" sodipodi:nodetypes="ccccccc" style="font-size:12;fill:#d61517;" transform="matrix(3.442399,0.000000,0.000000,2.695773,122.2161,-82.53271)"/>
  <path d="M214 115L214 123L225 123L225 115L214 115M226 115L226 120L228 120L228 115L226 115M240 115L240 120L242 120L242 115L240 115M243 115L243 123L254 123L254 115L243 115z" id="path1236" style="font-size:12;fill:#d61517;" transform="matrix(2.591797,0.000000,0.000000,2.858150,0.000000,-31.37926)"/>
  <path d="M215 106L215 114L217 114L217 106L215 106M218 106L218 114L225 114L225 106L218 106z" id="path1175" style="font-size:12;fill:#d61517;" transform="matrix(2.591797,0.000000,0.000000,2.585287,0.000000,-1.525879e-5)"/>
  <path d="M243 106L243 114L250 114L250 106L243 106M251 106L251 114L253 114L253 106L251 106z" id="path1180" style="font-size:12;fill:#d61517;" transform="matrix(2.654297,0.000000,0.000000,2.585287,-15.18752,-1.525879e-5)"/>
  <path d="M216 76L216 78L252 78L252 76L216 76z" id="path961" style="font-size:12;fill:#d61517;" transform="matrix(2.775942,0.000000,0.000000,2.806253,-43.75259,-17.23539)"/>
  <path d="M 133 106 L 133 114 L 140 114 L 140 106 L 133 106 z " id="path1167" sodipodi:nodetypes="cccccc" style="font-size:12;fill:#d61517;" transform="matrix(2.502512,0.000000,0.000000,2.585287,12.94193,0.441956)"/>
  <path d="M158 106L158 114L165 114L165 106L158 106M166 106L166 114L168 114L168 106L166 106z" id="path1171" style="font-size:12;fill:#d61517;" transform="matrix(2.591797,0.000000,0.000000,2.695773,0.000000,-11.71148)"/>
  <path d="M216 76L216 78L252 78L252 76L216 76z" id="path7814" style="font-size:12;fill:#d61517;" transform="matrix(2.861871,0.000000,0.000000,2.585287,-173.6831,-1.525879e-5)"/>
  <path d="M216 76L216 78L252 78L252 76L216 76z" id="path7815" style="font-size:12;fill:#d61517;" transform="matrix(2.616349,0.000000,0.000000,2.585287,-225.3903,0.441879)"/>
  <path d="M 212.829 75.4872 C 209.013 75.7703 213.334 111.558 213.341 122.718 C 213.341 122.718 217.905 77.8319 212.829 75.4872 z " id="path958" sodipodi:nodetypes="ccc" style="font-size:12;fill:#ffffff;" transform="matrix(2.591797,0.000000,0.000000,2.585287,-0.441933,-0.441948)"/>
  <path d="M127 69L127 75L256 75L256 69L127 69z" id="path942" style="font-size:12;fill:#d61517;" transform="matrix(2.591797,0.000000,0.000000,2.364314,0.000000,16.13100)"/>
  <path d="M 212.829 75.4872 C 209.013 75.7703 213.334 111.558 213.341 122.718 C 213.341 122.718 217.905 77.8319 212.829 75.4872 z " id="path7819" sodipodi:nodetypes="ccc" style="font-size:12;fill:#ffffff;" transform="matrix(2.591797,0.000000,0.000000,2.632072,-113.5791,-3.531738)"/>
  <path d="M 133 106 L 133 114 L 140 114 L 140 106 L 133 106 z " id="path7821" sodipodi:nodetypes="cccccc" style="font-size:12;fill:#d61517;" transform="matrix(1.139700,0.000000,0.000000,2.585287,183.8483,0.441956)"/>
  <path d="M 129 115 L 129 123 L 140 123 L 139.94 115.01 L 129 115 M 139.808 122.829 L 139.808 122.829 z " id="path7826" sodipodi:nodetypes="ccccccc" style="font-size:12;fill:#d61517;" transform="matrix(2.591797,0.000000,0.000000,2.916741,0.883903,-38.55920)"/>
  <path d="M 139.808 122.829 L 139.808 122.829 z M 129 115 L 129 123 L 140 123 L 140 115.171 L 129 115 " id="path7827" sodipodi:nodetypes="ccccccc" style="font-size:12;fill:#d61517;" transform="matrix(36.21956,0.000000,0.000000,2.253830,-4375.105,62.86623)"/>
  <path d="M 129 115 L 129 123 L 140 123 L 140 115.008 L 129 115 M 139.808 122.829 L 139.808 122.829 z " id="path7828" sodipodi:nodetypes="ccccccc" style="font-size:12;fill:#d61517;" transform="matrix(2.511442,0.000000,0.000000,2.819084,85.49592,-26.88676)"/>
  <path d="M 129 115 L 129 123 L 140 123 L 139.94 115.01 L 129 115 M 139.808 122.829 L 139.808 122.829 z " id="path7829" sodipodi:nodetypes="ccccccc" style="font-size:12;fill:#d61517;" transform="matrix(2.591797,0.000000,0.000000,2.858147,108.7177,-31.82092)"/>
  <path d="M 129 115 L 129 123 L 140 123 L 139.946 115.01 L 129 115 M 139.808 122.829 L 139.808 122.829 z " id="path7830" sodipodi:nodetypes="ccccccc" style="font-size:12;fill:#d61517;" transform="matrix(2.873034,0.000000,0.000000,2.858147,148.0102,-31.37895)"/>
  <path d="M 139.808 122.829 L 139.808 122.829 z M 129 115 L 129 123 L 140 123 L 140 115.171 L 129 115 " id="path7831" sodipodi:nodetypes="ccccccc" style="font-size:12;fill:#d61517;" transform="matrix(3.432649,0.000000,0.000000,2.806258,-97.31416,-95.68052)"/>
  <path d="M 139.808 122.829 L 139.808 122.829 z M 129 115 L 129 123 L 140 123 L 140 115.171 L 129 115 " id="path7832" sodipodi:nodetypes="ccccccc" style="font-size:12;fill:#d61517;" transform="matrix(0.341908,0.000000,0.000000,2.751016,294.2132,-88.88582)"/>
  <path d="M 139.808 122.829 L 139.808 122.829 z M 129 115 L 129 123 L 140 123 L 140 115.171 L 129 115 " id="path7833" sodipodi:nodetypes="ccccccc" style="font-size:12;fill:#d61517;" transform="matrix(3.636385,0.000000,0.000000,2.806258,-83.04467,-95.23859)"/>
  <path d="M 139.808 122.829 L 139.808 122.829 z M 129 115 L 129 123 L 140 123 L 140 115.171 L 129 115 " id="path7834" sodipodi:nodetypes="ccccccc" style="font-size:12;fill:#d61517;" transform="matrix(0.422263,0.000000,0.000000,2.751016,373.5616,-88.44389)"/>
  <path d="M 139.808 122.829 L 139.808 122.829 z M 129 115 L 129 123 L 140 123 L 140 115.171 L 129 115 " id="path7835" sodipodi:nodetypes="ccccccc" style="font-size:12;fill:#d61517;" transform="matrix(2.431091,0.000000,0.000000,2.585287,243.4699,-45.96201)"/>
  <path d="M 139.808 122.829 L 139.808 122.829 z M 129 115 L 129 123 L 140 123 L 140 115.171 L 129 115 " id="path7836" sodipodi:nodetypes="ccccccc" style="font-size:12;fill:#d61517;" transform="matrix(2.471267,0.000000,0.000000,2.474802,310.3238,-32.81427)"/>
  <path d="M 139.808 122.829 L 139.808 122.829 z M 129 115 L 129 123 L 140 123 L 140 115.171 L 129 115 " id="path7837" sodipodi:nodetypes="ccccccc" style="font-size:12;fill:#d61517;" transform="matrix(3.586461,0.000000,0.000000,2.530046,124.5864,-39.16730)"/>
  <path d="M 139.808 122.829 L 139.808 122.829 z M 129 115 L 129 123 L 140 123 L 140 115.171 L 129 115 " id="path7838" sodipodi:nodetypes="ccccccc" style="font-size:12;fill:#ffffff;fill-opacity:1;" transform="matrix(0.422265,0.000000,0.000000,1.148973,494.2113,37.45512)"/>
  <path d="M 139.808 122.829 L 139.808 122.829 z M 129 115 L 129 123 L 140 123 L 140 115.171 L 129 115 " id="path7839" sodipodi:nodetypes="ccccccc" style="font-size:12;fill:#d61517;" transform="matrix(0.462442,0.000000,0.000000,2.640529,498.3094,-76.17967)"/>
  <path d="M 139.808 122.829 L 139.808 122.829 z M 129 115 L 129 123 L 140 123 L 140 115.171 L 129 115 " id="path7840" sodipodi:nodetypes="ccccccc" style="font-size:12;fill:#d61517;" transform="matrix(3.328762,0.000000,0.000000,2.640529,178.4177,-75.73770)"/>
  <path d="M 139.808 122.829 L 139.808 122.829 z M 129 115 L 129 123 L 140 123 L 140 115.171 L 129 115 " id="path7841" sodipodi:nodetypes="ccccccc" style="font-size:12;fill:#d61517;" transform="matrix(0.663321,0.000000,0.000000,2.640529,562.1103,-75.73766)"/>
  <path d="M 139.808 122.829 L 139.808 122.829 z M 129 115 L 129 123 L 140 123 L 140 115.171 L 129 115 " id="path7842" sodipodi:nodetypes="ccccccc" style="font-size:12;fill:#d61517;" transform="matrix(2.109678,0.000000,0.000000,2.695771,285.3742,-105.9553)"/>
  <path d="M 139.808 122.829 L 139.808 122.829 z M 129 115 L 129 123 L 140 123 L 140 115.171 L 129 115 " id="path7843" sodipodi:nodetypes="ccccccc" style="font-size:12;fill:#d61517;" transform="matrix(3.763811,0.000000,0.000000,2.640529,98.87354,-99.16059)"/>
  <path d="M 139.808 122.829 L 139.808 122.829 z M 129 115 L 129 123 L 140 123 L 140 115.171 L 129 115 " id="path7844" sodipodi:nodetypes="ccccccc" style="font-size:12;fill:#d61517;" transform="matrix(2.270389,0.000000,0.000000,2.695773,335.3530,-105.9556)"/>
  <path d="M 129 115 L 129 123 L 140 123 L 140 115.053 L 129 115 M 139.808 122.829 L 139.808 122.829 z " id="path7845" sodipodi:nodetypes="ccccccc" style="font-size:12;fill:#d61517;" transform="matrix(1.065088,0.000000,0.000000,2.640529,305.6631,-30.65965)"/>
  <path d="M 129 115 L 129 123 L 140 123 L 140 115.053 L 129 115 M 139.808 122.829 L 139.808 122.829 z " id="path7846" sodipodi:nodetypes="ccccccc" style="font-size:12;fill:#d61517;" transform="matrix(1.317912,0.000000,0.000000,2.640529,287.1908,-30.21768)"/>
  <path d="M 129 115 L 129 123 L 140 123 L 140 114.993 L 129 115 M 139.808 122.829 L 139.808 122.829 z " id="path7847" sodipodi:nodetypes="ccccccc" style="font-size:12;fill:#d61517;" transform="matrix(1.707916,0.000000,0.000000,2.640529,298.3103,-29.77575)"/>
  <path d="M 139.808 122.829 L 139.808 122.829 z M 129 115 L 129 123 L 140 123 L 140 115.171 L 129 115 " id="path7848" sodipodi:nodetypes="ccccccc" style="font-size:12;fill:#d61517;" transform="matrix(0.864206,0.000000,0.000000,2.640529,428.3622,-29.77575)"/>
  <path d="M216 76L216 78L252 78L252 76L216 76z" id="path7849" style="font-size:12;fill:#d61517;" transform="matrix(2.775938,0.000000,0.000000,2.143345,-262.5131,32.70365)"/>
  <path d="M216 76L216 78L252 78L252 76L216 76z" id="path7850" style="font-size:12;fill:#d61517;" transform="matrix(3.070566,0.000000,0.000000,2.143345,-223.6223,32.70361)"/>
  <path d="M216 76L216 78L252 78L252 76L216 76z" id="path7852" style="font-size:12;fill:#d61517;" transform="matrix(2.937633,0.000000,0.000000,2.143345,-81.84746,32.26172)"/>
  <path d="M 139.808 122.829 L 139.808 122.829 z M 129 115 L 129 123 L 140 123 L 140 115.171 L 129 115 " id="path7853" sodipodi:nodetypes="ccccccc" style="font-size:12;fill:#d61517;" transform="matrix(2.431090,0.000000,0.000000,2.640529,22.94084,-52.31477)"/>
  <path d="M 139.808 122.829 L 139.808 122.829 z M 129 115 L 129 123 L 140 123 L 140 115.171 L 129 115 " id="path7854" sodipodi:nodetypes="ccccccc" style="font-size:12;fill:#d61517;" transform="matrix(2.230208,0.000000,0.000000,2.640529,122.2170,-52.31477)"/>
  <path d="M 129 115 L 129 123 L 140 123 L 140.042 115.053 L 129 115 M 139.808 122.829 L 139.808 122.829 z " id="path7855" sodipodi:nodetypes="ccccccc" style="font-size:12;fill:#d61517;" transform="matrix(3.723635,0.000000,0.000000,2.640529,-113.8212,-51.87280)"/>
  <path d="M 129 115 L 129 123 L 140 123 L 140.063 115.053 L 129 115 M 139.808 122.829 L 139.808 122.829 z " id="path7856" sodipodi:nodetypes="ccccccc" style="font-size:12;fill:#d61517;" transform="matrix(2.471269,0.000000,0.000000,2.640529,126.0336,-53.19868)"/>
  <path d="M 139.808 122.829 L 139.808 122.829 z M 129 115 L 129 123 L 140 123 L 139.96 115.112 L 129 115 " id="path7857" sodipodi:nodetypes="ccccccc" style="font-size:12;fill:#d61517;" transform="matrix(3.877447,0.000000,0.000000,2.640529,-26.19517,-53.19864)"/>
  <path d="M 129 115 L 129 123 L 140 123 L 140.062 114.993 L 129 115 M 139.808 122.829 L 139.808 122.829 z " id="path7858" sodipodi:nodetypes="ccccccc" style="font-size:12;fill:#d61517;" transform="matrix(2.511446,0.000000,0.000000,2.640529,195.0970,-52.75671)"/>
  <path d="M 139.808 122.829 L 139.808 122.829 z M 129 115 L 129 123 L 140 123 L 140 115.171 L 129 115 " id="path7859" sodipodi:nodetypes="ccccccc" style="font-size:12;fill:#d61517;" transform="matrix(2.551620,0.000000,0.000000,2.640529,116.1102,-100.0445)"/>
  <path d="M 139.808 122.829 L 139.808 122.829 z M 129 115 L 129 123 L 140 123 L 140 115.171 L 129 115 " id="path7860" sodipodi:nodetypes="ccccccc" style="font-size:12;fill:#d61517;" transform="matrix(3.844166,0.000000,0.000000,2.695773,-20.57614,-106.3976)"/>
  <path d="M 139.808 122.829 L 139.808 122.829 z M 129 115 L 129 123 L 140 123 L 140 115.171 L 129 115 " id="path7861" sodipodi:nodetypes="ccccccc" style="font-size:12;fill:#d61517;" transform="matrix(2.270384,0.000000,0.000000,2.695773,227.5198,-106.3976)"/>
  <path d="M 139.369 122.829 L 139.369 122.829 z M 130.482 114.469 L 129.165 123.121 L 139.89 123 L 138.683 114.288 " id="path7862" sodipodi:nodetypes="cccccc" style="font-size:12;fill:#a11011;fill-opacity:1;" transform="matrix(8.055811,0.000000,0.000000,7.293488,-694.2510,-718.7624)"/>
  <path d="M178 46L177 50L191 50L191 46L178 46M192 46L192 50L205 50L205 46L192 46z" id="path714" style="font-size:12;fill:#d61517;" transform="matrix(2.639147,0.000000,0.000000,2.585287,-8.380939,1.325821)"/>
  <path d="M177 51L177 55L182 55L182 51L177 51M183 51L183 55L199 55L199 51L183 51M200 51L200 55L206 55L206 51L200 51z" id="path756" style="font-size:12;fill:#d61517;" transform="matrix(2.622275,0.000000,0.000000,2.585287,-5.394626,1.325821)"/>
  <path d="M179 41L178 45L182 45L182 41L179 41M183 41L183 45L199 45L199 41L183 41M200 41L200 45L204 45L204 41L200 41z" id="path658" style="font-size:12;fill:#d61517;" transform="matrix(2.642789,0.000000,0.000000,2.585287,-9.076615,1.325821)"/>
  <path d="M174 32L174 34L191 34L191 32L174 32M192 32L192 34L208 34L208 32L192 32z" id="path579" style="font-size:12;fill:#d61517;" transform="matrix(2.617794,0.000000,0.000000,2.585287,-4.523508,1.325821)"/>
  <path d="M174 35L174 37L182 37L182 35L174 35M183 35L183 37L199 37L199 35L183 35M200 35L200 37L208 37L208 35L200 35z" id="path600" style="font-size:12;fill:#d61517;" transform="matrix(2.591797,0.000000,0.000000,2.585287,0.000000,1.325821)"/>
  <path d="M187 29L187 31L196 31L196 29L187 29z" id="path561" style="font-size:12;fill:#d61517;" transform="matrix(2.591797,0.000000,0.000000,2.585287,0.000000,1.325821)"/>
  <path d="M127 66L127 68L135 68L135 66L127 66z" id="path912" style="font-size:12;fill:#d61517;" transform="matrix(2.591797,0.000000,0.000000,2.585287,0.000000,1.325821)"/>
  <path d="M248 66L248 68L256 68L256 66L248 66z" id="path927" style="font-size:12;fill:#d61517;" transform="matrix(2.591797,0.000000,0.000000,2.585287,0.000000,1.325821)"/>
  <path d="M 139.808 122.829 L 139.808 122.829 z M 129 115 L 129 123 L 140 123 L 140 115.171 L 129 115 " id="path7890" sodipodi:nodetypes="ccccccc" style="font-size:12;fill:#d61517;" transform="matrix(1.828444,0.000000,0.000000,0.541303,115.2662,110.8725)"/>
  <path d="M 139.808 122.829 L 139.808 122.829 z M 129 115 L 129 123 L 140 123 L 140 115.171 L 129 115 " id="path7892" sodipodi:nodetypes="ccccccc" style="font-size:12;fill:#d61517;" transform="matrix(1.587383,0.000000,0.000000,0.463175,193.2089,120.9242)"/>
  <path d="M 139.808 122.829 L 139.808 122.829 z M 129 115 L 129 123 L 140 123 L 140 115.171 L 129 115 " id="path7893" sodipodi:nodetypes="ccccccc" style="font-size:12;fill:#ffffff;fill-opacity:1;" transform="matrix(0.462435,0.000000,0.000000,1.314706,379.8699,17.51173)"/>
  <path d="M 139.808 122.829 L 139.808 122.829 z M 129 115 L 129 123 L 140 123 L 140 115.171 L 129 115 " id="path7894" sodipodi:nodetypes="ccccccc" style="font-size:12;fill:#d61517;" transform="matrix(1.587383,0.000000,0.000000,1.623278,145.9212,-28.39758)"/>
  <path d="M 139.808 122.829 L 139.808 122.829 z M 129 115 L 129 123 L 140 123 L 140 115.171 L 129 115 " id="path7895" sodipodi:nodetypes="ccccccc" style="font-size:12;fill:#d61517;" transform="matrix(0.824031,0.000000,0.000000,1.568036,262.9553,-21.60284)"/>
  <path d="M 139.808 122.829 L 139.808 122.829 z M 129 115 L 129 123 L 140 123 L 140 115.171 L 129 115 " id="path7898" sodipodi:nodetypes="ccccccc" style="font-size:12;fill:#d61517;" transform="matrix(1.426677,0.000000,0.000000,1.844245,229.4081,-54.25085)"/>
  <path d="M 139.808 122.829 L 139.808 122.829 z M 129 115 L 129 123 L 140 123 L 140 115.171 L 129 115 " id="path7899" sodipodi:nodetypes="ccccccc" style="font-size:12;fill:#d61517;" transform="matrix(1.112159,0.000000,0.000000,1.609870,254.9548,-26.67272)"/>
  <path d="M 139.808 122.829 L 139.808 122.829 z M 129 115 L 129 123 L 140 123 L 140 115.171 L 129 115 " id="path7921" sodipodi:nodetypes="ccccccc" style="font-size:12;fill:#a11011;fill-opacity:1;" transform="matrix(1.788266,0.000000,0.000000,0.817518,184.5307,76.01416)"/>
  <path d="M 139.369 122.829 L 139.369 122.829 z M 130.427 113.985 L 129.055 113.002 L 140.329 113.002 L 139.067 114.106 " id="path7919" sodipodi:nodetypes="cccccc" style="font-size:12;fill:#a11011;fill-opacity:1;" transform="matrix(8.055811,0.000000,0.000000,7.293488,-589.0687,-727.1593)"/>
  <path d="M187 29L187 31L196 31L196 29L187 29z" id="path7922" style="font-size:12;fill:#d61517;" transform="matrix(2.591797,0.000000,0.000000,2.585287,-32.70370,1.325859)"/>
  <path d="M187 29L187 31L196 31L196 29L187 29z" id="path7923" style="font-size:12;fill:#d61517;" transform="matrix(2.739112,0.000000,0.000000,2.585287,3.829957,1.767792)"/>
  <g id="g7933" transform="translate(106.0661,-8.838860)">
    <path d="M 139.808 122.829 L 139.808 122.829 z M 129 115 L 129 123 L 140 123 L 140 115.171 L 129 115 " id="path7934" sodipodi:nodetypes="ccccccc" style="font-size:12;fill:#d61517;" transform="matrix(6.006804,0.000000,0.000000,0.209846,-418.8809,88.00188)"/>
    <path d="M 139.808 122.829 L 139.808 122.829 z M 129 115 L 129 123 L 140 123 L 140 115.171 L 129 115 " id="path7935" sodipodi:nodetypes="ccccccc" style="font-size:12;fill:#d61517;" transform="matrix(6.649629,0.000000,0.000000,0.209846,-505.3409,87.11798)"/>
    <path d="M 139.808 122.829 L 139.808 122.829 z M 129 115 L 129 123 L 140 123 L 140 115.171 L 129 115 " id="path7936" sodipodi:nodetypes="ccccccc" style="font-size:12;fill:#d61517;" transform="matrix(6.971045,0.000000,0.000000,0.209846,-547.2455,85.79214)"/>
    <path d="M 139.808 122.829 L 139.808 122.829 z M 129 115 L 129 123 L 140 123 L 140 115.171 L 129 115 " id="path7937" sodipodi:nodetypes="ccccccc" style="font-size:12;fill:#d61517;" transform="matrix(6.971045,0.000000,0.000000,0.209846,-547.2455,85.79214)"/>
    <path d="M 139.808 122.829 L 139.808 122.829 z M 129 115 L 129 123 L 140 123 L 140 115.171 L 129 115 " id="path7938" sodipodi:nodetypes="ccccccc" style="font-size:12;fill:#d61517;" transform="matrix(7.252278,0.000000,0.000000,0.209846,-584.4084,84.02438)"/>
  </g>
  <path d="M 139.808 122.829 L 139.808 122.829 z M 129 115 L 129 123 L 140 123 L 140 115.171 L 129 115 " id="path7958" sodipodi:nodetypes="ccccccc" style="font-size:12;fill:#d61517;" transform="matrix(1.426680,0.000000,0.000000,0.430824,283.7665,124.4616)"/>
  <path d="M 139.808 122.829 L 139.808 122.829 z M 129 115 L 129 123 L 140 123 L 140 115.171 L 129 115 " id="path7959" sodipodi:nodetypes="ccccccc" style="font-size:12;fill:#d61517;" transform="matrix(1.225797,0.000000,0.000000,0.430824,350.7809,124.4616)"/>
  <path d="M 139.808 122.829 L 139.808 122.829 z M 129 115 L 129 123 L 140 123 L 140 115.171 L 129 115 " id="path7960" sodipodi:nodetypes="ccccccc" style="font-size:12;fill:#d61517;" transform="matrix(1.948974,0.000000,0.000000,2.751014,88.66924,-112.7502)"/>
  <path d="M 139.808 122.829 L 139.808 122.829 z M 129 115 L 129 123 L 140 123 L 140 115.171 L 129 115 " id="path7961" sodipodi:nodetypes="ccccccc" style="font-size:12;fill:#d61517;" transform="matrix(2.712323,0.000000,0.000000,1.701407,103.7763,-36.68150)"/>
  <path d="M 139.808 122.829 L 139.808 122.829 z M 129 115 L 129 123 L 140 123 L 140 115.171 L 129 115 " id="path7962" sodipodi:nodetypes="ccccccc" style="font-size:12;fill:#d61517;" transform="matrix(2.300811,0.000000,0.000000,1.701407,219.2823,-36.68150)"/>
  <path d="M 139.808 122.829 L 139.808 122.829 z M 129 115 L 129 123 L 140 123 L 140 115.171 L 129 115 " id="path7963" sodipodi:nodetypes="ccccccc" style="font-size:12;fill:#d61517;" transform="matrix(0.663323,0.000000,0.000000,1.701407,419.8044,-36.68150)"/>
  <path d="M 139.808 122.829 L 139.808 122.829 z M 129 115 L 129 123 L 140 123 L 140 115.171 L 129 115 " id="path7964" sodipodi:nodetypes="ccccccc" style="font-size:12;fill:#a11011;fill-opacity:1;" transform="matrix(1.507030,0.000000,0.000000,0.872760,256.6075,69.66154)"/>
  <path d="M161 66L161 68L169 68L169 66L161 66M172 66L172 68L180 68L180 66L172 66z" id="path917" style="font-size:12;fill:#d61517;" transform="matrix(2.591797,0.000000,0.000000,2.806264,0.000000,-13.25864)"/>
  <path d="M 139.808 122.829 L 139.808 122.829 z M 129 115 L 129 123 L 140 123 L 140 115.171 L 129 115 " id="path7965" sodipodi:nodetypes="ccccccc" style="font-size:12;fill:#a11011;fill-opacity:1;" transform="matrix(1.828443,0.000000,0.000000,0.817518,286.7399,76.45625)"/>
  <path d="M 139.808 122.829 L 139.808 122.829 z M 129 115 L 129 123 L 140 123 L 140 115.171 L 129 115 " id="path7966" sodipodi:nodetypes="ccccccc" style="font-size:12;fill:#d61517;" transform="matrix(4.004870,0.000000,0.000000,2.695773,-152.3104,-105.9555)"/>
  <path d="M 139.808 122.829 L 139.808 122.829 z M 129 115 L 129 123 L 140 123 L 140 115.171 L 129 115 " id="path7967" sodipodi:nodetypes="ccccccc" style="font-size:12;fill:#d61517;" transform="matrix(2.069504,0.000000,0.000000,2.695773,143.3896,-105.9555)"/>
  <path d="M 139.808 122.829 L 139.808 122.829 z M 129 115 L 129 123 L 140 123 L 140 115.171 L 129 115 " id="path7968" sodipodi:nodetypes="ccccccc" style="font-size:12;fill:#d61517;" transform="matrix(3.596214,0.000000,0.000000,1.480427,-8.035709,-24.96896)"/>
  <path d="M 139.808 122.829 L 139.808 122.829 z M 129 115 L 129 123 L 140 123 L 140 115.171 L 129 115 " id="path7969" sodipodi:nodetypes="ccccccc" style="font-size:12;fill:#d61517;" transform="matrix(3.596217,0.000000,0.000000,1.480427,33.94828,-24.52703)"/>
  <rect height="6.629142" id="rect7889" style="font-size:12;fill:#a11011;fill-rule:evenodd;stroke-width:1pt;" transform="translate(0.000000,-1.525879e-5)" width="22.980967" x="411.006042" y="86.382711"/>
  <rect height="7.513046" id="rect7888" style="font-size:12;fill:#a11011;fill-rule:evenodd;stroke-width:1pt;" transform="translate(0.000000,-1.525879e-5)" width="25.632629" x="377.418457" y="85.940762"/>
  <rect height="6.629105" id="rect7887" style="font-size:12;fill:#a11011;fill-rule:evenodd;stroke-width:1pt;" transform="translate(0.000000,-1.525879e-5)" width="20.329315" x="349.134155" y="86.382725"/>
  <path d="M 139.808 122.829 L 139.808 122.829 z M 129.933 114.287 L 128.883 123.36 L 140.176 123 L 138.823 115.427 " id="path7885" sodipodi:nodetypes="cccccc" style="font-size:12;fill:#a11011;" transform="matrix(7.533521,0.000000,0.000000,-1.227831,-622.0139,256.8813)"/>
  <path d="M135 38L135 40L142 40L142 38L135 38M143 38L143 40L159 40L159 38L143 38M160 38L160 40L167 40L167 38L160 38z" id="path624" style="font-size:12;fill:#d61517;" transform="matrix(2.591797,0.000000,0.000000,2.585287,0.000000,1.325806)"/>
  <path d="M135 33L135 35L142 35L142 33L135 33M146 33L146 35L155 35L155 33L146 33z" id="path586" style="font-size:12;fill:#d61517;" transform="matrix(2.591797,0.000000,0.000000,2.272786,0.000000,12.52222)"/>
  <path d="M159 33L159 35L167 35L167 33L159 33z" id="path588" style="font-size:12;fill:#d61517;" transform="matrix(2.591797,0.000000,0.000000,1.960285,0.000000,23.27670)"/>
  <rect height="13.258286" id="rect7886" style="font-size:12;fill:#a11011;fill-rule:evenodd;stroke-width:1pt;" transform="translate(0.000000,-1.525879e-5)" width="84.852857" x="349.134169" y="93.011902"/>
  <path d="M 139.808 122.829 L 139.808 122.829 z M 129 115 L 129 123 L 140 123 L 140 115.171 L 129 115 " id="path7896" sodipodi:nodetypes="ccccccc" style="font-size:12;fill:#d61517;" transform="matrix(3.040634,0.000000,0.000000,1.291824,-39.78035,-3.096710)"/>
  <path d="M 139.808 122.829 L 139.808 122.829 z M 129 115 L 129 123 L 140 123 L 140 115.171 L 129 115 " id="path7897" sodipodi:nodetypes="ccccccc" style="font-size:12;fill:#d61517;" transform="matrix(3.574612,0.000000,0.000000,1.291824,-73.07047,-3.096710)"/>
  <path d="M 139.808 122.829 L 139.808 122.829 z M 129 115 L 129 123 L 140 123 L 140 115.171 L 129 115 " id="path7900" sodipodi:nodetypes="ccccccc" style="font-size:12;fill:#d61517;" transform="matrix(3.636392,0.000000,0.000000,0.486059,-118.8431,38.55988)"/>
  <path d="M 139.808 122.829 L 139.808 122.829 z M 129 115 L 129 123 L 140 123 L 140 115.171 L 129 115 " id="path7901" sodipodi:nodetypes="ccccccc" style="font-size:12;fill:#d61517;" transform="matrix(1.306151,0.000000,0.000000,1.369949,185.7356,-25.52242)"/>
  <path d="M 139.808 122.829 L 139.808 122.829 z M 129 115 L 129 123 L 140 123 L 140 115.171 L 129 115 " id="path7902" sodipodi:nodetypes="ccccccc" style="font-size:12;fill:#d61517;" transform="matrix(3.529646,0.000000,0.000000,1.213699,-83.93533,-6.303688)"/>
  <path d="M 139.808 122.829 L 139.808 122.829 z M 129 115 L 129 123 L 140 123 L 140 115.171 L 129 115 " id="path7903" sodipodi:nodetypes="ccccccc" style="font-size:12;fill:#d61517;" transform="matrix(1.145442,0.000000,0.000000,1.369949,265.2452,-25.08044)"/>
  <path d="M 139.808 122.829 L 139.808 122.829 z M 129 115 L 129 123 L 140 123 L 140 115.171 L 129 115 " id="path7904" sodipodi:nodetypes="ccccccc" style="font-size:12;fill:#d61517;" transform="matrix(2.960281,0.000000,0.000000,1.213699,-25.87941,-18.23606)"/>
  <path d="M 139.808 122.829 L 139.808 122.829 z M 129 115 L 129 123 L 140 123 L 140 115.171 L 129 115 " id="path7905" sodipodi:nodetypes="ccccccc" style="font-size:12;fill:#d61517;" transform="matrix(2.993567,0.000000,0.000000,1.213699,5.182152,-18.23606)"/>
  <path d="M 139.808 122.829 L 139.808 122.829 z M 129 115 L 129 123 L 140 123 L 140 115.171 L 129 115 " id="path7906" sodipodi:nodetypes="ccccccc" style="font-size:12;fill:#d61517;" transform="matrix(4.399743,0.000000,0.000000,0.486064,-201.4052,59.33060)"/>
  <path d="M 139.808 122.829 L 139.808 122.829 z M 129 115 L 129 123 L 140 123 L 140 115.171 L 129 115 " id="path7907" sodipodi:nodetypes="ccccccc" style="font-size:12;fill:#d61517;" transform="matrix(0.623148,0.000000,0.000000,0.486064,335.2730,59.33060)"/>
  <path d="M 139.808 122.829 L 139.808 122.829 z M 129 115 L 129 123 L 140 123 L 140 115.171 L 129 115 " id="path7908" sodipodi:nodetypes="ccccccc" style="font-size:12;fill:#d61517;" transform="matrix(0.703502,0.000000,0.000000,0.486064,266.1290,59.33060)"/>
  <path d="M 139.808 122.829 L 139.808 122.829 z M 129 115 L 129 123 L 140 123 L 140 115.171 L 129 115 " id="path7914" sodipodi:nodetypes="ccccccc" style="font-size:12;fill:#d61517;" transform="matrix(3.643280,0.000000,0.000000,0.486059,-76.93905,38.55990)"/>
  <path d="M 139.808 122.829 L 139.808 122.829 z M 129 115 L 129 123 L 140 123 L 140 115.171 L 129 115 " id="path7915" sodipodi:nodetypes="ccccccc" style="font-size:12;fill:#d61517;" transform="matrix(1.788264,0.000000,0.000000,0.693631,120.0075,21.42550)"/>
  <path d="M 139.808 122.829 L 139.808 122.829 z M 129 115 L 129 123 L 140 123 L 140 115.171 L 129 115 " id="path7916" sodipodi:nodetypes="ccccccc" style="font-size:12;fill:#d61517;" transform="matrix(3.168057,0.000000,0.000000,0.638389,-33.83060,27.59520)"/>
  <path d="M 139.808 122.829 L 139.808 122.829 z M 129 115 L 129 123 L 140 123 L 140 115.171 L 129 115 " id="path7917" sodipodi:nodetypes="ccccccc" style="font-size:12;fill:#d61517;" transform="matrix(1.778515,0.000000,0.000000,0.615506,183.6861,30.40987)"/>
  <g id="g7927" style="font-size:12;" transform="matrix(1.000000,0.000000,0.000000,0.889502,0.000000,11.95109)">
    <path d="M 139.808 122.829 L 139.808 122.829 z M 129 115 L 129 123 L 140 123 L 140 115.171 L 129 115 " id="path7909" sodipodi:nodetypes="ccccccc" style="font-size:12;fill:#d61517;" transform="matrix(6.006804,0.000000,0.000000,0.209846,-418.8809,88.00188)"/>
    <path d="M 139.808 122.829 L 139.808 122.829 z M 129 115 L 129 123 L 140 123 L 140 115.171 L 129 115 " id="path7910" sodipodi:nodetypes="ccccccc" style="font-size:12;fill:#d61517;" transform="matrix(6.649629,0.000000,0.000000,0.209846,-505.3409,87.11798)"/>
    <path d="M 139.808 122.829 L 139.808 122.829 z M 129 115 L 129 123 L 140 123 L 140 115.171 L 129 115 " id="path7911" sodipodi:nodetypes="ccccccc" style="font-size:12;fill:#d61517;" transform="matrix(6.971045,0.000000,0.000000,0.209846,-547.2455,85.79214)"/>
    <path d="M 139.808 122.829 L 139.808 122.829 z M 129 115 L 129 123 L 140 123 L 140 115.171 L 129 115 " id="path7912" sodipodi:nodetypes="ccccccc" style="font-size:12;fill:#d61517;" transform="matrix(6.971045,0.000000,0.000000,0.209846,-547.2455,85.79214)"/>
    <path d="M 139.808 122.829 L 139.808 122.829 z M 129 115 L 129 123 L 140 123 L 140 115.171 L 129 115 " id="path7913" sodipodi:nodetypes="ccccccc" style="font-size:12;fill:#d61517;" transform="matrix(7.252278,0.000000,0.000000,0.209846,-584.4084,84.02438)"/>
  </g>
  <path d="M 139.808 122.829 L 139.808 122.829 z M 129 115 L 129 123 L 140 123 L 140 115.171 L 129 115 " id="path8053" sodipodi:nodetypes="ccccccc" style="font-size:12;fill:#d61517;" transform="matrix(1.346334,0.000000,0.000000,0.486059,402.8489,117.6675)"/>
  <path d="M 139.808 122.829 L 139.808 122.829 z M 129 115 L 129 123 L 140 123 L 140 115.171 L 129 115 " id="path8054" sodipodi:nodetypes="ccccccc" style="font-size:12;fill:#d61517;" transform="matrix(2.029341,0.000000,0.000000,0.486059,356.2835,117.2256)"/>
  <path d="M 139.808 122.829 L 139.808 122.829 z M 129 115 L 129 123 L 140 123 L 140 115.171 L 129 115 " id="path8055" sodipodi:nodetypes="ccccccc" style="font-size:12;fill:#d61517;" transform="matrix(1.811807,0.000000,0.000000,1.526193,388.9478,-16.01419)"/>
  <path d="M 139.808 122.829 L 139.808 122.829 z M 129 115 L 129 123 L 140 123 L 140 115.171 L 129 115 " id="path8056" sodipodi:nodetypes="ccccccc" style="font-size:12;fill:#d61517;" transform="matrix(0.740553,0.000000,0.000000,1.581440,516.3842,-22.80950)"/>
  <path d="M 139.808 122.829 L 139.808 122.829 z M 129 115 L 129 123 L 140 123 L 140 115.171 L 129 115 " id="path8057" sodipodi:nodetypes="ccccccc" style="font-size:12;fill:#d61517;" transform="matrix(1.507037,0.000000,0.000000,1.691923,367.0920,-35.95697)"/>
  <path d="M 139.808 122.829 L 139.808 122.829 z M 129 115 L 129 123 L 140 123 L 140 115.171 L 129 115 " id="path8058" sodipodi:nodetypes="ccccccc" style="font-size:12;fill:#d61517;" transform="matrix(0.951458,0.000000,0.000000,1.714805,458.1314,-38.77153)"/>
  <path d="M 139.808 122.829 L 139.808 122.829 z M 129 115 L 129 123 L 140 123 L 140 115.171 L 129 115 " id="path8059" sodipodi:nodetypes="ccccccc" style="font-size:12;fill:#a11011;fill-opacity:1;" transform="matrix(1.587399,0.000000,0.000000,0.983243,354.0738,56.95589)"/>
  <path d="M202 66L202 68L211 68L211 66L202 66M214 66L214 68L222 68L222 66L214 66z" id="path922" style="font-size:12;fill:#d61517;" transform="matrix(2.547604,0.000000,0.000000,2.806262,9.810906,-13.25849)"/>
  <path d="M 139.808 122.829 L 139.808 122.829 z M 129 115 L 129 123 L 140 123 L 140 115.171 L 129 115 " id="path8060" sodipodi:nodetypes="ccccccc" style="font-size:12;fill:#d61517;" transform="matrix(3.425763,0.000000,0.000000,1.480427,57.81190,-24.52703)"/>
  <rect height="6.629142" id="rect8007" style="font-size:12;fill:#a11011;fill-rule:evenodd;stroke-width:1pt;" transform="translate(212.5742,-0.107300)" width="22.980967" x="411.006042" y="86.382711"/>
  <rect height="7.513046" id="rect8008" style="font-size:12;fill:#a11011;fill-rule:evenodd;stroke-width:1pt;" transform="translate(212.5742,-0.107300)" width="25.632629" x="377.418457" y="85.940762"/>
  <rect height="6.629105" id="rect8009" style="font-size:12;fill:#a11011;fill-rule:evenodd;stroke-width:1pt;" transform="translate(212.5742,-0.107300)" width="20.329315" x="349.134155" y="86.382725"/>
  <path d="M 139.808 122.829 L 139.808 122.829 z M 129.933 114.287 L 128.883 123.36 L 140.176 123 L 138.823 115.427 " id="path8010" sodipodi:nodetypes="cccccc" style="font-size:12;fill:#a11011;" transform="matrix(7.533521,0.000000,0.000000,-1.227831,-409.4397,256.7740)"/>
  <path d="M135 38L135 40L142 40L142 38L135 38M143 38L143 40L159 40L159 38L143 38M160 38L160 40L167 40L167 38L160 38z" id="path8011" style="font-size:12;fill:#d61517;" transform="matrix(2.591797,0.000000,0.000000,2.585287,212.5742,1.218521)"/>
  <path d="M135 33L135 35L142 35L142 33L135 33M146 33L146 35L155 35L155 33L146 33z" id="path8012" style="font-size:12;fill:#d61517;" transform="matrix(2.591797,0.000000,0.000000,1.960285,212.5742,22.72746)"/>
  <path d="M159 33L159 35L167 35L167 33L159 33z" id="path8013" style="font-size:12;fill:#d61517;" transform="matrix(2.591797,0.000000,0.000000,1.647784,212.5742,33.48193)"/>
  <rect height="13.258286" id="rect8014" style="font-size:12;fill:#a11011;fill-rule:evenodd;stroke-width:1pt;" transform="translate(212.5742,-0.107300)" width="84.852857" x="349.134169" y="93.011902"/>
  <path d="M 139.808 122.829 L 139.808 122.829 z M 129 115 L 129 123 L 140 123 L 140 115.171 L 129 115 " id="path8015" sodipodi:nodetypes="ccccccc" style="font-size:12;fill:#d61517;" transform="matrix(3.177807,0.000000,0.000000,1.369949,154.2145,-12.81335)"/>
  <path d="M 139.808 122.829 L 139.808 122.829 z M 129 115 L 129 123 L 140 123 L 140 115.171 L 129 115 " id="path8016" sodipodi:nodetypes="ccccccc" style="font-size:12;fill:#d61517;" transform="matrix(3.418869,0.000000,0.000000,1.369949,161.3079,-12.81335)"/>
  <path d="M 139.808 122.829 L 139.808 122.829 z M 129 115 L 129 123 L 140 123 L 140 115.171 L 129 115 " id="path8017" sodipodi:nodetypes="ccccccc" style="font-size:12;fill:#d61517;" transform="matrix(3.409120,0.000000,0.000000,0.486059,123.0493,38.45259)"/>
  <path d="M 139.808 122.829 L 139.808 122.829 z M 129 115 L 129 123 L 140 123 L 140 115.171 L 129 115 " id="path8018" sodipodi:nodetypes="ccccccc" style="font-size:12;fill:#d61517;" transform="matrix(1.306151,0.000000,0.000000,1.369949,398.3098,-25.62970)"/>
  <path d="M 139.808 122.829 L 139.808 122.829 z M 129 115 L 129 123 L 140 123 L 140 115.171 L 129 115 " id="path8019" sodipodi:nodetypes="ccccccc" style="font-size:12;fill:#d61517;" transform="matrix(3.472827,0.000000,0.000000,1.369949,136.5934,-25.62971)"/>
  <path d="M 139.808 122.829 L 139.808 122.829 z M 129 115 L 129 123 L 140 123 L 140 115.171 L 129 115 " id="path8020" sodipodi:nodetypes="ccccccc" style="font-size:12;fill:#d61517;" transform="matrix(1.145442,0.000000,0.000000,1.369949,477.8195,-25.18774)"/>
  <path d="M 139.808 122.829 L 139.808 122.829 z M 129 115 L 129 123 L 140 123 L 140 115.171 L 129 115 " id="path8021" sodipodi:nodetypes="ccccccc" style="font-size:12;fill:#d61517;" transform="matrix(3.017099,0.000000,0.000000,0.979319,179.3652,9.235329)"/>
  <path d="M 139.808 122.829 L 139.808 122.829 z M 129 115 L 129 123 L 140 123 L 140 115.171 L 129 115 " id="path8022" sodipodi:nodetypes="ccccccc" style="font-size:12;fill:#d61517;" transform="matrix(2.936749,0.000000,0.000000,0.979319,225.7109,9.235367)"/>
  <path d="M 139.808 122.829 L 139.808 122.829 z M 129 115 L 129 123 L 140 123 L 140 115.171 L 129 115 " id="path8023" sodipodi:nodetypes="ccccccc" style="font-size:12;fill:#d61517;" transform="matrix(4.399743,0.000000,0.000000,0.486064,11.16901,59.22332)"/>
  <path d="M 139.808 122.829 L 139.808 122.829 z M 129 115 L 129 123 L 140 123 L 140 115.171 L 129 115 " id="path8024" sodipodi:nodetypes="ccccccc" style="font-size:12;fill:#d61517;" transform="matrix(0.623148,0.000000,0.000000,0.486064,547.8472,59.22332)"/>
  <path d="M 139.808 122.829 L 139.808 122.829 z M 129 115 L 129 123 L 140 123 L 140 115.171 L 129 115 " id="path8025" sodipodi:nodetypes="ccccccc" style="font-size:12;fill:#d61517;" transform="matrix(0.703502,0.000000,0.000000,0.486064,478.7032,59.22332)"/>
  <path d="M 139.808 122.829 L 139.808 122.829 z M 129 115 L 129 123 L 140 123 L 140 115.171 L 129 115 " id="path8026" sodipodi:nodetypes="ccccccc" style="font-size:12;fill:#d61517;" transform="matrix(3.756916,0.000000,0.000000,0.486059,119.7261,38.45259)"/>
  <path d="M 139.808 122.829 L 139.808 122.829 z M 129 115 L 129 123 L 140 123 L 140 115.171 L 129 115 " id="path8027" sodipodi:nodetypes="ccccccc" style="font-size:12;fill:#d61517;" transform="matrix(1.674628,0.000000,0.000000,0.771756,347.2409,10.45882)"/>
  <path d="M 139.808 122.829 L 139.808 122.829 z M 129 115 L 129 123 L 140 123 L 140 115.171 L 129 115 " id="path8028" sodipodi:nodetypes="ccccccc" style="font-size:12;fill:#d61517;" transform="matrix(3.281694,0.000000,0.000000,0.716514,161.5845,17.25352)"/>
  <path d="M 139.808 122.829 L 139.808 122.829 z M 129 115 L 129 123 L 140 123 L 140 115.171 L 129 115 " id="path8029" sodipodi:nodetypes="ccccccc" style="font-size:12;fill:#d61517;" transform="matrix(1.948970,0.000000,0.000000,0.693631,372.3967,20.06819)"/>
  <g id="g8030" style="font-size:12;" transform="matrix(1.000000,0.000000,0.000000,0.889502,212.5742,11.84382)">
    <path d="M 139.808 122.829 L 139.808 122.829 z M 129 115 L 129 123 L 140 123 L 140 115.171 L 129 115 " id="path8031" sodipodi:nodetypes="ccccccc" style="font-size:12;fill:#d61517;" transform="matrix(6.006804,0.000000,0.000000,0.209846,-418.8809,88.00188)"/>
    <path d="M 139.808 122.829 L 139.808 122.829 z M 129 115 L 129 123 L 140 123 L 140 115.171 L 129 115 " id="path8032" sodipodi:nodetypes="ccccccc" style="font-size:12;fill:#d61517;" transform="matrix(6.649629,0.000000,0.000000,0.209846,-505.3409,87.11798)"/>
    <path d="M 139.808 122.829 L 139.808 122.829 z M 129 115 L 129 123 L 140 123 L 140 115.171 L 129 115 " id="path8033" sodipodi:nodetypes="ccccccc" style="font-size:12;fill:#d61517;" transform="matrix(6.971045,0.000000,0.000000,0.209846,-547.2455,85.79214)"/>
    <path d="M 139.808 122.829 L 139.808 122.829 z M 129 115 L 129 123 L 140 123 L 140 115.171 L 129 115 " id="path8034" sodipodi:nodetypes="ccccccc" style="font-size:12;fill:#d61517;" transform="matrix(6.971045,0.000000,0.000000,0.209846,-547.2455,85.79214)"/>
    <path d="M 139.808 122.829 L 139.808 122.829 z M 129 115 L 129 123 L 140 123 L 140 115.171 L 129 115 " id="path8035" sodipodi:nodetypes="ccccccc" style="font-size:12;fill:#d61517;" transform="matrix(7.252278,0.000000,0.000000,0.209846,-584.4084,84.02438)"/>
  </g>
  <g id="g8036" style="font-size:12;" transform="matrix(1.000000,0.000000,0.000000,0.226506,212.5742,86.05128)">
    <path d="M 139.808 122.829 L 139.808 122.829 z M 129 115 L 129 123 L 140 123 L 140 115.171 L 129 115 " id="path8037" sodipodi:nodetypes="ccccccc" style="font-size:12;fill:#d61517;" transform="matrix(6.006804,0.000000,0.000000,0.209846,-418.8809,88.00188)"/>
    <path d="M 139.808 122.829 L 139.808 122.829 z M 129 115 L 129 123 L 140 123 L 140 115.171 L 129 115 " id="path8038" sodipodi:nodetypes="ccccccc" style="font-size:12;fill:#d61517;" transform="matrix(6.649629,0.000000,0.000000,0.209846,-505.3409,87.11798)"/>
    <path d="M 139.808 122.829 L 139.808 122.829 z M 129 115 L 129 123 L 140 123 L 140 115.171 L 129 115 " id="path8039" sodipodi:nodetypes="ccccccc" style="font-size:12;fill:#d61517;" transform="matrix(6.971045,0.000000,0.000000,0.209846,-547.2455,85.79214)"/>
    <path d="M 139.808 122.829 L 139.808 122.829 z M 129 115 L 129 123 L 140 123 L 140 115.171 L 129 115 " id="path8040" sodipodi:nodetypes="ccccccc" style="font-size:12;fill:#d61517;" transform="matrix(6.971045,0.000000,0.000000,0.209846,-547.2455,85.79214)"/>
    <path d="M 139.808 122.829 L 139.808 122.829 z M 129 115 L 129 123 L 140 123 L 140 115.171 L 129 115 " id="path8041" sodipodi:nodetypes="ccccccc" style="font-size:12;fill:#d61517;" transform="matrix(7.252278,0.000000,0.000000,0.209846,-584.4084,84.02438)"/>
  </g>
  <rect height="28.125061" id="rect9122" style="font-size:12;fill:#808080;fill-rule:evenodd;stroke-width:1pt;" width="19.375034" x="472.500391" y="449.187820"/>
  <rect height="24.375053" id="rect9123" style="font-size:12;fill:#ffc500;fill-rule:evenodd;stroke-width:1pt;fill-opacity:1;" width="16.875060" x="475.000302" y="451.062851"/>
  <rect height="16.875050" id="rect9127" style="font-size:12;fill:#808080;fill-rule:evenodd;stroke-width:1pt;" width="11.250018" x="478.125426" y="456.062698"/>
  <rect height="13.125057" id="rect9126" style="font-size:12;fill:#d61517;fill-rule:evenodd;stroke-width:1pt;fill-opacity:1;" width="6.874962" x="480.625424" y="457.937881"/>
  <g id="g9128" transform="translate(-3.125038,-48.75005)">
    <rect height="8.750046" id="rect9125" style="font-size:12;fill:#808080;fill-rule:evenodd;stroke-width:1pt;" width="7.500011" x="475.000391" y="509.187668"/>
    <rect height="5.000053" id="rect9124" style="font-size:12;fill:#d61517;fill-rule:evenodd;stroke-width:1pt;fill-opacity:1;" width="8.125001" x="475.000342" y="511.062912"/>
  </g>
  <g id="g752" transform="translate(-138.9037,-219.4247)">
    <rect height="73.125099" id="rect747" style="font-size:12;fill:#808080;fill-rule:evenodd;stroke-width:1pt;" transform="matrix(-1.000000,-7.850301e-17,1.051676e-16,-1.000000,1128.599,1194.473)" width="9.375000" x="488.750427" y="486.687889"/>
    <rect height="69.375099" id="rect748" style="font-size:12;fill:#ffc500;fill-rule:evenodd;stroke-width:1pt;" transform="matrix(-1.000000,-7.850301e-17,1.051676e-16,-1.000000,1128.599,1194.473)" width="5.625000" x="490.625580" y="488.562851"/>
  </g>
  <rect height="33.690646" id="rect761" style="font-size:12;fill:#808080;fill-rule:evenodd;stroke-width:1pt;fill-opacity:1;" transform="matrix(-0.726195,0.687489,-0.726195,-0.687489,0.000000,0.000000)" width="6.272896" x="-71.702445" y="-647.205603"/>
  <rect height="31.583873" id="rect771" style="font-size:12;fill:#808080;fill-rule:evenodd;stroke-width:1pt;fill-opacity:1;" transform="matrix(-0.674371,-0.738393,0.674371,-0.738393,0.000000,0.000000)" width="6.383628" x="-655.282703" y="87.047727"/>
  <rect height="32.093608" id="rect758" style="font-size:12;fill:#ffc500;fill-rule:evenodd;stroke-width:1pt;" transform="matrix(0.721781,-0.692122,0.721781,0.692122,0.000000,0.000000)" width="5.157757" x="69.844047" y="614.728645"/>
  <rect height="31.992805" id="rect766" style="font-size:12;fill:#ffc500;fill-rule:evenodd;stroke-width:1pt;" transform="matrix(-0.670502,-0.741908,0.670502,-0.741908,0.000000,0.000000)" width="5.141558" x="-655.183780" y="89.522952"/>
  <rect height="29.862839" id="rect768" style="font-size:12;fill:#808080;fill-rule:evenodd;stroke-width:1pt;fill-opacity:1;" transform="matrix(0.713236,-0.700924,0.713236,0.700924,0.000000,0.000000)" width="6.035779" x="46.045117" y="614.791578"/>
  <rect height="34.867398" id="rect769" style="font-size:12;fill:#808080;fill-rule:evenodd;stroke-width:1pt;fill-opacity:1;" transform="matrix(0.717711,0.696341,-0.717711,0.696341,0.000000,0.000000)" width="6.491996" x="612.219362" y="-76.979261"/>
  <rect height="31.952014" id="rect762" style="font-size:12;fill:#ffc500;fill-rule:evenodd;stroke-width:1pt;" transform="matrix(-0.707107,-0.707106,0.707107,-0.707106,0.000000,0.000000)" width="5.135002" x="-618.864124" y="53.800398"/>
  <rect height="60.353142" id="rect9112" style="font-size:12;fill:#808080;fill-rule:evenodd;stroke-width:1pt;" width="4.999980" x="493.933472" y="326.466843"/>
  <rect height="58.370899" id="rect9113" style="font-size:12;fill:#ffc500;fill-rule:evenodd;stroke-width:1pt;" width="3.437486" x="494.779427" y="327.274857"/>
  <rect height="34.105843" id="rect765" style="font-size:12;fill:#ffc500;fill-rule:evenodd;stroke-width:1pt;" transform="matrix(0.707107,-0.707107,0.707107,0.707107,0.000000,0.000000)" width="5.481143" x="52.191903" y="613.774911"/>
  <g id="g813" style="fill:#a11011;fill-opacity:1;" transform="matrix(1.273105,0.000000,0.000000,1.025211,-24.35425,-7.449280)">
    <rect height="44.301476" id="rect814" style="font-size:12;fill:#a11011;fill-rule:evenodd;stroke-width:1pt;fill-opacity:1;" width="34.569584" x="477.976624" y="275.975479"/>
    <rect height="36.596207" id="rect815" ry="18.2981033" style="font-size:12;fill:#a11011;fill-rule:evenodd;stroke-width:1pt;fill-opacity:1;" width="34.310680" x="478.132782" y="258.297745"/>
  </g>
  <g id="g810" style="fill:#d61517;fill-opacity:1;" transform="matrix(1.205307,0.000000,0.000000,0.989916,9.614146,3.854660)">
    <rect height="44.301476" id="rect811" style="font-size:12;fill:#d61517;fill-rule:evenodd;stroke-width:1pt;fill-opacity:1;" width="34.569584" x="477.976624" y="275.975479"/>
    <rect height="36.596207" id="rect812" ry="18.2981033" style="font-size:12;fill:#d61517;fill-rule:evenodd;stroke-width:1pt;fill-opacity:1;" width="34.310680" x="478.132782" y="258.297745"/>
  </g>
  <g id="g807" style="fill:#a11011;fill-opacity:1;" transform="matrix(0.897956,0.000000,0.000000,0.929412,161.8333,23.23271)">
    <rect height="44.301476" id="rect808" style="font-size:12;fill:#a11011;fill-rule:evenodd;stroke-width:1pt;fill-opacity:1;" width="34.569584" x="477.976624" y="275.975479"/>
    <rect height="36.596207" id="rect809" ry="18.2981033" style="font-size:12;fill:#a11011;fill-rule:evenodd;stroke-width:1pt;fill-opacity:1;" width="34.310680" x="478.132782" y="258.297745"/>
  </g>
  <rect height="44.301476" id="rect793" style="font-size:12;fill:#d61517;fill-rule:evenodd;stroke-width:1pt;fill-opacity:1;" transform="matrix(0.787566,0.000000,0.000000,0.886555,216.3823,36.17762)" width="34.569584" x="477.976624" y="275.975479"/>
  <rect height="36.596207" id="rect794" ry="18.2981033" style="font-size:12;fill:#d61517;fill-rule:evenodd;stroke-width:1pt;fill-opacity:1;" transform="matrix(0.787566,0.000000,0.000000,0.886555,216.3823,36.17762)" width="34.310680" x="478.132782" y="258.297745"/>
  <g id="g984" style="font-size:12;fill:#a11011;" transform="matrix(1.309264,0.000000,0.000000,1.025211,-153.8250,-8.463928)">
    <rect height="44.301476" id="rect985" style="font-size:12;fill:#a11011;fill-rule:evenodd;stroke-width:1pt;fill-opacity:1;" width="34.569584" x="477.976624" y="275.975479"/>
    <rect height="36.596207" id="rect986" ry="18.2981033" style="font-size:12;fill:#a11011;fill-rule:evenodd;stroke-width:1pt;fill-opacity:1;" width="34.310680" x="478.132782" y="258.297745"/>
  </g>
  <g id="g987" style="font-size:12;fill:#d61517;" transform="matrix(1.239540,0.000000,0.000000,0.989916,-118.8918,2.840012)">
    <rect height="44.301476" id="rect988" style="font-size:12;fill:#d61517;fill-rule:evenodd;stroke-width:1pt;fill-opacity:1;" width="34.569584" x="477.976624" y="275.975479"/>
    <rect height="36.596207" id="rect989" ry="18.2981033" style="font-size:12;fill:#d61517;fill-rule:evenodd;stroke-width:1pt;fill-opacity:1;" width="34.310680" x="478.132782" y="258.297745"/>
  </g>
  <g id="g990" style="font-size:12;fill:#a11011;" transform="matrix(0.923460,0.000000,0.000000,0.929412,37.65068,22.21806)">
    <rect height="44.301476" id="rect991" style="font-size:12;fill:#a11011;fill-rule:evenodd;stroke-width:1pt;fill-opacity:1;" width="34.569584" x="477.976624" y="275.975479"/>
    <rect height="36.596207" id="rect992" ry="18.2981033" style="font-size:12;fill:#a11011;fill-rule:evenodd;stroke-width:1pt;fill-opacity:1;" width="34.310680" x="478.132782" y="258.297745"/>
  </g>
  <g id="g993" style="font-size:12;fill:#d61517;fill-opacity:1;" transform="matrix(0.809934,0.000000,0.000000,0.886555,93.74897,35.16297)">
    <rect height="44.301476" id="rect994" style="font-size:12;fill:#d61517;fill-rule:evenodd;stroke-width:1pt;fill-opacity:1;" width="34.569584" x="477.976624" y="275.975479"/>
    <rect height="36.596207" id="rect995" ry="18.2981033" style="font-size:12;fill:#d61517;fill-rule:evenodd;stroke-width:1pt;fill-opacity:1;" width="34.310680" x="478.132782" y="258.297745"/>
  </g>
  <g id="g997" style="font-size:12;fill:#a11011;" transform="matrix(1.291184,0.000000,0.000000,1.025211,-253.3085,-8.307678)">
    <rect height="44.301476" id="rect998" style="font-size:12;fill:#a11011;fill-rule:evenodd;stroke-width:1pt;fill-opacity:1;" width="34.569584" x="477.976624" y="275.975479"/>
    <rect height="36.596207" id="rect999" ry="18.2981033" style="font-size:12;fill:#a11011;fill-rule:evenodd;stroke-width:1pt;fill-opacity:1;" width="34.310680" x="478.132782" y="258.297745"/>
  </g>
  <g id="g1000" style="font-size:12;fill:#d61517;" transform="matrix(1.222424,0.000000,0.000000,0.989916,-218.8577,2.996262)">
    <rect height="44.301476" id="rect1001" style="font-size:12;fill:#d61517;fill-rule:evenodd;stroke-width:1pt;fill-opacity:1;" width="34.569584" x="477.976624" y="275.975479"/>
    <rect height="36.596207" id="rect1002" ry="18.2981033" style="font-size:12;fill:#d61517;fill-rule:evenodd;stroke-width:1pt;fill-opacity:1;" width="34.310680" x="478.132782" y="258.297745"/>
  </g>
  <g id="g1003" style="font-size:12;fill:#a11011;" transform="matrix(0.910708,0.000000,0.000000,0.929412,-64.47690,22.37431)">
    <rect height="44.301476" id="rect1004" style="font-size:12;fill:#a11011;fill-rule:evenodd;stroke-width:1pt;fill-opacity:1;" width="34.569584" x="477.976624" y="275.975479"/>
    <rect height="36.596207" id="rect1005" ry="18.2981033" style="font-size:12;fill:#a11011;fill-rule:evenodd;stroke-width:1pt;fill-opacity:1;" width="34.310680" x="478.132782" y="258.297745"/>
  </g>
  <g id="g1006" style="font-size:12;fill:#d61517;fill-opacity:1;" transform="matrix(0.798750,0.000000,0.000000,0.886555,-9.153250,35.31922)">
    <rect height="44.301476" id="rect1007" style="font-size:12;fill:#d61517;fill-rule:evenodd;stroke-width:1pt;fill-opacity:1;" width="34.569584" x="477.976624" y="275.975479"/>
    <rect height="36.596207" id="rect1008" ry="18.2981033" style="font-size:12;fill:#d61517;fill-rule:evenodd;stroke-width:1pt;fill-opacity:1;" width="34.310680" x="478.132782" y="258.297745"/>
  </g>
  <path d="M 133 106 L 133 114 L 140 114 L 140 106 L 133 106 z " id="path1009" sodipodi:nodetypes="cccccc" style="font-size:12;fill:#a11011;fill-opacity:1;" transform="matrix(0.873048,0.000000,0.000000,0.280598,357.3170,283.1765)"/>
  <path d="M 133 106 L 133 114 L 140 114 L 140 106 L 133 106 z " id="path1010" sodipodi:nodetypes="cccccc" style="font-size:12;fill:#a11011;fill-opacity:1;" transform="matrix(0.873048,0.000000,0.000000,0.280598,248.7231,281.6140)"/>
  <path d="M 133 106 L 133 114 L 140 114 L 140 106 L 133 106 z " id="path1011" sodipodi:nodetypes="cccccc" style="font-size:12;fill:#a11011;fill-opacity:1;" transform="matrix(0.873048,0.000000,0.000000,0.280598,248.7231,264.8952)"/>
  <path d="M 133 106 L 133 114 L 140 114 L 140 106 L 133 106 z " id="path1012" sodipodi:nodetypes="cccccc" style="font-size:12;fill:#a11011;fill-opacity:1;" transform="matrix(0.873048,0.000000,0.000000,0.280598,248.8794,249.1139)"/>
  <path d="M 133 106 L 133 114 L 140 114 L 140 106 L 133 106 z " id="path1013" sodipodi:nodetypes="cccccc" style="font-size:12;fill:#a11011;fill-opacity:1;" transform="matrix(0.873048,0.000000,0.000000,0.280598,286.0669,282.2390)"/>
  <path d="M 133 106 L 133 114 L 140 114 L 140 106 L 133 106 z " id="path1014" sodipodi:nodetypes="cccccc" style="font-size:12;fill:#a11011;fill-opacity:1;" transform="matrix(0.873048,0.000000,0.000000,0.280598,285.9106,265.3640)"/>
  <path d="M 133 106 L 133 114 L 140 114 L 140 106 L 133 106 z " id="path1015" sodipodi:nodetypes="cccccc" style="font-size:12;fill:#a11011;fill-opacity:1;" transform="matrix(0.873048,0.000000,0.000000,0.280598,285.4419,249.4264)"/>
  <path d="M 133 106 L 133 114 L 140 114 L 140 106 L 133 106 z " id="path1016" sodipodi:nodetypes="cccccc" style="font-size:12;fill:#a11011;fill-opacity:1;" transform="matrix(-0.617338,-0.617338,0.198413,-0.198413,543.3043,373.1031)"/>
  <path d="M 133 106 L 133 114 L 140 114 L 140 106 L 133 106 z " id="path1017" sodipodi:nodetypes="cccccc" style="font-size:12;fill:#a11011;fill-opacity:1;" transform="matrix(0.873048,0.000000,0.000000,0.280598,394.3482,283.0203)"/>
  <path d="M 133 106 L 133 114 L 140 114 L 140 106 L 133 106 z " id="path1019" sodipodi:nodetypes="cccccc" style="font-size:12;fill:#a11011;fill-opacity:1;" transform="matrix(0.873048,0.000000,0.000000,0.280598,357.4732,265.0515)"/>
  <path d="M 133 106 L 133 114 L 140 114 L 140 106 L 133 106 z " id="path1020" sodipodi:nodetypes="cccccc" style="font-size:12;fill:#a11011;fill-opacity:1;" transform="matrix(0.873048,0.000000,0.000000,0.280598,357.0045,248.9577)"/>
  <path d="M 133 106 L 133 114 L 140 114 L 140 106 L 133 106 z " id="path1021" sodipodi:nodetypes="cccccc" style="font-size:12;fill:#a11011;fill-opacity:1;" transform="matrix(0.873048,0.000000,0.000000,0.280598,394.3482,265.3640)"/>
  <path d="M 133 106 L 133 114 L 140 114 L 140 106 L 133 106 z " id="path1022" sodipodi:nodetypes="cccccc" style="font-size:12;fill:#a11011;fill-opacity:1;" transform="matrix(0.873048,0.000000,0.000000,0.280598,394.6607,248.1765)"/>
  <path d="M 133 106 L 133 114 L 140 114 L 140 106 L 133 106 z " id="path1023" sodipodi:nodetypes="cccccc" style="font-size:12;fill:#a11011;fill-opacity:1;" transform="matrix(0.873048,0.000000,0.000000,0.280598,469.1920,283.8015)"/>
  <path d="M 133 106 L 133 114 L 140 114 L 140 106 L 133 106 z " id="path1024" sodipodi:nodetypes="cccccc" style="font-size:12;fill:#a11011;fill-opacity:1;" transform="matrix(0.873048,0.000000,0.000000,0.280598,469.1920,265.0515)"/>
  <path d="M 133 106 L 133 114 L 140 114 L 140 106 L 133 106 z " id="path1025" sodipodi:nodetypes="cccccc" style="font-size:12;fill:#a11011;fill-opacity:1;" transform="matrix(0.873048,0.000000,0.000000,0.280598,469.3482,247.2390)"/>
  <path d="M 133 106 L 133 114 L 140 114 L 140 106 L 133 106 z " id="path1026" sodipodi:nodetypes="cccccc" style="font-size:12;fill:#a11011;fill-opacity:1;" transform="matrix(0.873048,0.000000,0.000000,0.280598,505.4420,283.9578)"/>
  <path d="M 133 106 L 133 114 L 140 114 L 140 106 L 133 106 z " id="path1027" sodipodi:nodetypes="cccccc" style="font-size:12;fill:#a11011;fill-opacity:1;" transform="matrix(0.873048,0.000000,0.000000,0.280598,505.2857,265.2078)"/>
  <path d="M 133 106 L 133 114 L 140 114 L 140 106 L 133 106 z " id="path1028" sodipodi:nodetypes="cccccc" style="font-size:12;fill:#a11011;fill-opacity:1;" transform="matrix(0.873048,0.000000,0.000000,0.280598,505.4420,247.8640)"/>
  <g id="g1065" style="font-size:12;fill:#a11011;" transform="matrix(0.542916,0.000000,0.000000,0.449391,332.8187,33.40112)">
    <rect height="44.301476" id="rect1066" style="font-size:12;fill:#a11011;fill-rule:evenodd;stroke-width:1pt;fill-opacity:1;" width="34.569584" x="477.976624" y="275.975479"/>
    <rect height="36.596207" id="rect1067" ry="18.2981033" style="font-size:12;fill:#a11011;fill-rule:evenodd;stroke-width:1pt;fill-opacity:1;" width="34.310680" x="478.132782" y="258.297745"/>
  </g>
  <g id="g1068" style="font-size:12;fill:#d61517;" transform="matrix(0.514003,0.000000,0.000000,0.433920,347.3045,38.35609)">
    <rect height="44.301476" id="rect1069" style="font-size:12;fill:#d61517;fill-rule:evenodd;stroke-width:1pt;fill-opacity:1;" width="34.569584" x="477.976624" y="275.975479"/>
    <rect height="36.596207" id="rect1070" ry="18.2981033" style="font-size:12;fill:#d61517;fill-rule:evenodd;stroke-width:1pt;fill-opacity:1;" width="34.310680" x="478.132782" y="258.297745"/>
  </g>
  <g id="g1071" style="font-size:12;fill:#a11011;" transform="matrix(0.382933,0.000000,0.000000,0.407398,412.2184,46.85027)">
    <rect height="44.301476" id="rect1072" style="font-size:12;fill:#a11011;fill-rule:evenodd;stroke-width:1pt;fill-opacity:1;" width="34.569584" x="477.976624" y="275.975479"/>
    <rect height="36.596207" id="rect1073" ry="18.2981033" style="font-size:12;fill:#a11011;fill-rule:evenodd;stroke-width:1pt;fill-opacity:1;" width="34.310680" x="478.132782" y="258.297745"/>
  </g>
  <g id="g792" style="font-size:12;fill:#d61517;fill-opacity:1;" transform="matrix(0.335858,0.000000,0.000000,0.388613,435.4808,52.52454)">
    <rect height="44.301476" id="rect1075" style="font-size:12;fill:#d61517;fill-rule:evenodd;stroke-width:1pt;fill-opacity:1;" width="34.569584" x="477.976624" y="275.975479"/>
    <rect height="36.596207" id="rect1076" ry="18.2981033" style="font-size:12;fill:#d61517;fill-rule:evenodd;stroke-width:1pt;fill-opacity:1;" width="34.310680" x="478.132782" y="258.297745"/>
  </g>
  <path d="M 133 106 L 133 114 L 140 114 L 140 106 L 133 106 z " id="path1029" sodipodi:nodetypes="cccccc" style="font-size:12;fill:#a11011;fill-opacity:1;" transform="matrix(-5.173677e-17,0.873048,-0.280598,-2.202286e-17,637.3539,141.4337)"/>
  <path d="M 133 106 L 133 114 L 140 114 L 140 106 L 133 106 z " id="path1030" sodipodi:nodetypes="cccccc" style="font-size:12;fill:#a11011;fill-opacity:1;" transform="matrix(-0.617338,0.617338,-0.198413,-0.198413,615.7053,205.0385)"/>
  <path d="M 133 106 L 133 114 L 140 114 L 140 106 L 133 106 z " id="path1031" sodipodi:nodetypes="cccccc" style="font-size:12;fill:#a11011;fill-opacity:1;" transform="matrix(-0.617338,0.617338,-0.198413,-0.198413,725.5490,204.8822)"/>
  <path d="M 133 106 L 133 114 L 140 114 L 140 106 L 133 106 z " id="path1032" sodipodi:nodetypes="cccccc" style="font-size:12;fill:#a11011;fill-opacity:1;" transform="matrix(-0.617338,-0.617338,0.198413,-0.198413,656.1168,373.2593)"/>
  <path d="M 133 106 L 133 114 L 140 114 L 140 106 L 133 106 z " id="path1033" sodipodi:nodetypes="cccccc" style="font-size:12;fill:#a11011;fill-opacity:1;" transform="matrix(0.617338,0.617338,-0.198413,0.198413,311.7032,159.6689)"/>
  <path d="M 133 106 L 133 114 L 140 114 L 140 106 L 133 106 z " id="path1034" sodipodi:nodetypes="cccccc" style="font-size:12;fill:#a11011;fill-opacity:1;" transform="matrix(-5.173677e-17,0.873048,-0.280598,-2.202286e-17,525.9479,140.9649)"/>
  <path d="M 133 106 L 133 114 L 140 114 L 140 106 L 133 106 z " id="path1035" sodipodi:nodetypes="cccccc" style="font-size:12;fill:#a11011;fill-opacity:1;" transform="matrix(5.173677e-17,-0.873048,0.280598,2.202286e-17,355.6226,380.2445)"/>
  <path d="M 133 106 L 133 114 L 140 114 L 140 106 L 133 106 z " id="path1036" sodipodi:nodetypes="cccccc" style="font-size:12;fill:#a11011;fill-opacity:1;" transform="matrix(0.617338,-0.617338,0.198413,0.198413,294.3024,329.2961)"/>
  <path d="M 133 106 L 133 114 L 140 114 L 140 106 L 133 106 z " id="path1063" sodipodi:nodetypes="cccccc" style="font-size:12;fill:#d61517;fill-opacity:1;" transform="matrix(0.617338,0.617338,-0.198413,0.198413,340.4532,241.7002)"/>
  <path d="M187 66L187 68L196 68L196 66L187 66z" id="path1128" style="font-size:12;fill:#a11011;fill-opacity:1;" transform="matrix(2.470887,0.000000,0.000000,3.401419,133.3335,-53.72926)"/>
  <path d="M230 66L230 68L238 68L238 66L230 66z" id="path925" style="font-size:12;fill:#d61517;" transform="matrix(2.591797,0.000000,0.000000,2.585287,0.000000,1.325821)"/>
  <g id="g1101" transform="translate(-100.1136,-108.0029)">
    <g id="g1115" style="font-size:12;fill:#a11011;" transform="matrix(0.613741,0.000000,0.000000,0.462559,290.8062,137.4930)">
      <rect height="44.301476" id="rect1116" style="font-size:12;fill:#a11011;fill-rule:evenodd;stroke-width:1pt;fill-opacity:1;" width="34.569584" x="477.976624" y="275.975479"/>
      <rect height="36.596207" id="rect1117" ry="18.2981033" style="font-size:12;fill:#a11011;fill-rule:evenodd;stroke-width:1pt;fill-opacity:1;" width="34.310680" x="478.132782" y="258.297745"/>
    </g>
    <g id="g1118" style="font-size:12;fill:#d61517;" transform="matrix(0.581057,0.000000,0.000000,0.446634,307.1818,142.5932)">
      <rect height="44.301476" id="rect1119" style="font-size:12;fill:#d61517;fill-rule:evenodd;stroke-width:1pt;fill-opacity:1;" width="34.569584" x="477.976624" y="275.975479"/>
      <rect height="36.596207" id="rect1120" ry="18.2981033" style="font-size:12;fill:#d61517;fill-rule:evenodd;stroke-width:1pt;fill-opacity:1;" width="34.310680" x="478.132782" y="258.297745"/>
    </g>
    <g id="g1121" style="font-size:12;fill:#a11011;" transform="matrix(0.432888,0.000000,0.000000,0.419336,380.5639,151.3362)">
      <rect height="44.301476" id="rect1122" style="font-size:12;fill:#a11011;fill-rule:evenodd;stroke-width:1pt;fill-opacity:1;" width="34.569584" x="477.976624" y="275.975479"/>
      <rect height="36.596207" id="rect1123" ry="18.2981033" style="font-size:12;fill:#a11011;fill-rule:evenodd;stroke-width:1pt;fill-opacity:1;" width="34.310680" x="478.132782" y="258.297745"/>
    </g>
    <g id="g1124" style="font-size:12;fill:#d61517;fill-opacity:1;" transform="matrix(0.379671,0.000000,0.000000,0.399999,406.8610,157.1768)">
      <rect height="44.301476" id="rect1125" style="font-size:12;fill:#d61517;fill-rule:evenodd;stroke-width:1pt;fill-opacity:1;" width="34.569584" x="477.976624" y="275.975479"/>
      <rect height="36.596207" id="rect1126" ry="18.2981033" style="font-size:12;fill:#d61517;fill-rule:evenodd;stroke-width:1pt;fill-opacity:1;" width="34.310680" x="478.132782" y="258.297745"/>
    </g>
  </g>
  <path d="M187 66L187 68L196 68L196 66L187 66z" id="path1127" style="font-size:12;fill:#a11011;fill-opacity:1;" transform="matrix(2.742935,0.000000,0.000000,3.401419,-28.53487,-53.45720)"/>
  <path d="M187 66L187 68L196 68L196 66L187 66z" id="path919" style="font-size:12;fill:#d61517;" transform="matrix(2.591797,0.000000,0.000000,2.585287,0.000000,1.767754)"/>
  <g id="g1129" transform="translate(-208.6607,-108.0030)">
    <g id="g1130" style="font-size:12;fill:#a11011;" transform="matrix(0.613741,0.000000,0.000000,0.462559,290.8062,137.4930)">
      <rect height="44.301476" id="rect1131" style="font-size:12;fill:#a11011;fill-rule:evenodd;stroke-width:1pt;fill-opacity:1;" width="34.569584" x="477.976624" y="275.975479"/>
      <rect height="36.596207" id="rect1132" ry="18.2981033" style="font-size:12;fill:#a11011;fill-rule:evenodd;stroke-width:1pt;fill-opacity:1;" width="34.310680" x="478.132782" y="258.297745"/>
    </g>
    <g id="g1133" style="font-size:12;fill:#d61517;" transform="matrix(0.581057,0.000000,0.000000,0.446634,307.1818,142.5932)">
      <rect height="44.301476" id="rect1134" style="font-size:12;fill:#d61517;fill-rule:evenodd;stroke-width:1pt;fill-opacity:1;" width="34.569584" x="477.976624" y="275.975479"/>
      <rect height="36.596207" id="rect1135" ry="18.2981033" style="font-size:12;fill:#d61517;fill-rule:evenodd;stroke-width:1pt;fill-opacity:1;" width="34.310680" x="478.132782" y="258.297745"/>
    </g>
    <g id="g1136" style="font-size:12;fill:#a11011;" transform="matrix(0.432888,0.000000,0.000000,0.419336,380.5639,151.3362)">
      <rect height="44.301476" id="rect1137" style="font-size:12;fill:#a11011;fill-rule:evenodd;stroke-width:1pt;fill-opacity:1;" width="34.569584" x="477.976624" y="275.975479"/>
      <rect height="36.596207" id="rect1138" ry="18.2981033" style="font-size:12;fill:#a11011;fill-rule:evenodd;stroke-width:1pt;fill-opacity:1;" width="34.310680" x="478.132782" y="258.297745"/>
    </g>
    <g id="g1139" style="font-size:12;fill:#d61517;fill-opacity:1;" transform="matrix(0.379671,0.000000,0.000000,0.399999,406.8610,157.1768)">
      <rect height="44.301476" id="rect1140" style="font-size:12;fill:#d61517;fill-rule:evenodd;stroke-width:1pt;fill-opacity:1;" width="34.569584" x="477.976624" y="275.975479"/>
      <rect height="36.596207" id="rect1141" ry="18.2981033" style="font-size:12;fill:#d61517;fill-rule:evenodd;stroke-width:1pt;fill-opacity:1;" width="34.310680" x="478.132782" y="258.297745"/>
    </g>
  </g>
  <path d="M187 66L187 68L196 68L196 66L187 66z" id="path1142" style="font-size:12;fill:#a11011;fill-opacity:1;" transform="matrix(2.410433,0.000000,0.000000,4.081527,-78.98468,-100.5207)"/>
  <path d="M 139.808 122.829 L 139.808 122.829 z M 129 115 L 129 123 L 140 123 L 140 115.171 L 129 115 " id="path7891" sodipodi:nodetypes="ccccccc" style="font-size:12;fill:#d61517;" transform="matrix(1.748089,0.000000,0.000000,0.928000,147.7292,63.30870)"/>
</svg>
