<?xml version="1.0" encoding="UTF-8" standalone="no"?>
<!DOCTYPE svg PUBLIC "-//W3C//DTD SVG 20010904//EN"
"http://www.w3.org/TR/2001/REC-SVG-20010904/DTD/svg10.dtd"
[
 <!ATTLIST svg
  xmlns:xlink CDATA #FIXED "http://www.w3.org/1999/xlink">
]>
<!-- Created with Sodipodi ("http://www.sodipodi.com/") --><svg height="744.094482" id="svg378" version="1" width="1062.98853" x="0.00000000" xmlns="http://www.w3.org/2000/svg" xmlns:xlink="http://www.w3.org/1999/xlink" y="0.00000000">
  <metadata>
    <rdf:RDF xmlns:cc="http://web.resource.org/cc/" xmlns:dc="http://purl.org/dc/elements/1.1/" xmlns:rdf="http://www.w3.org/1999/02/22-rdf-syntax-ns#">
      <cc:Work rdf:about="">
        <dc:title>China - Hong Kong</dc:title>
        <dc:description></dc:description>
        <dc:subject>
          <rdf:Bag>
            <rdf:li></rdf:li>
            <rdf:li>asia</rdf:li>
            <rdf:li>flag</rdf:li>
            <rdf:li>china</rdf:li>
            <rdf:li>sign</rdf:li>
          </rdf:Bag>
        </dc:subject>
        <dc:publisher>
          <cc:Agent rdf:about="http://www.openclipart.org">
            <dc:title>Cezary Biele</dc:title>
          </cc:Agent>
        </dc:publisher>
        <dc:creator>
          <cc:Agent>
            <dc:title>Cezary Biele</dc:title>
          </cc:Agent>
        </dc:creator>
        <dc:rights>
          <cc:Agent>
            <dc:title>Cezary Biele</dc:title>
          </cc:Agent>
        </dc:rights>
        <dc:date></dc:date>
        <dc:format>image/svg+xml</dc:format>
        <dc:type rdf:resource="http://purl.org/dc/dcmitype/StillImage"/>
        <cc:license rdf:resource="http://web.resource.org/cc/PublicDomain"/>
        <dc:language>en</dc:language>
      </cc:Work>
      <cc:License rdf:about="http://web.resource.org/cc/PublicDomain">
        <cc:permits rdf:resource="http://web.resource.org/cc/Reproduction"/>
        <cc:permits rdf:resource="http://web.resource.org/cc/Distribution"/>
        <cc:permits rdf:resource="http://web.resource.org/cc/DerivativeWorks"/>
      </cc:License>
    </rdf:RDF>
  </metadata>
  <defs id="defs380"/>
  <rect height="744.094299" id="rect148" style="font-size:12;fill:#ba0000;fill-rule:evenodd;stroke-width:1pt;" width="1062.98743" x="0.00012200" y="0.00012200"/>
  <g id="g694" style="font-size:12;" transform="translate(-14.32762,6.606644)">
    <g id="g669" transform="translate(6.250000,-3.750031)">
      <path d="M 524.447 357.284 C 524.447 357.284 449.427 324.983 460.192 241.28 C 470.613 200.99 489.02 173.553 522.362 158.619 C 537.991 153.756 553.969 151.672 570.292 150.283 C 566.008 154.335 562.42 158.387 560.568 163.481 C 556.978 172.627 559.641 181.426 564.387 190.224 C 570.407 200.412 573.994 210.947 575.153 224.608 C 577.352 243.826 569.133 262.351 553.967 273.581 C 544.357 280.99 533.013 283.537 523.75 291.988 C 516.573 299.051 512.174 306.114 510.553 318.384 C 510.321 341.77 516.69 345.013 524.447 357.284 z " id="path573" style="fill:#ffffff;fill-rule:evenodd;stroke-width:2.34489pt;"/>
      <path d="M 510.206 236.175 C 510.206 236.06 510.206 235.943 510.206 235.828 " id="path574" style="fill:#ba0000;fill-rule:evenodd;stroke:#000000;stroke-width:2.34489pt;"/>
      <path d="M 514.947 348.588 C 485.771 322.771 488.324 257.826 510.553 236.175 " id="path575" style="fill:none;fill-rule:evenodd;stroke:#ba0000;stroke-width:2.34489pt;"/>
      <polygon id="polygon638" points="591.041,433.161 533.774,391.476 476.501,433.151 498.449,365.806 441.115,324.214 511.946,324.278 533.785,256.897 555.613,324.281 626.445,324.23 569.104,365.812 591.041,433.161 " style="fill:#ba0000;fill-rule:evenodd;stroke-width:1pt;" transform="matrix(0.135668,-3.068384e-2,2.698504e-2,0.129088,441.3846,191.8889)"/>
    </g>
    <g id="g674" transform="matrix(0.293016,0.956108,-0.956108,0.293016,725.0029,-258.1252)">
      <path d="M 524.447 357.284 C 524.447 357.284 449.427 324.983 460.192 241.28 C 470.613 200.99 489.02 173.553 522.362 158.619 C 537.991 153.756 553.969 151.672 570.292 150.283 C 566.008 154.335 562.42 158.387 560.568 163.481 C 556.978 172.627 559.641 181.426 564.387 190.224 C 570.407 200.412 573.994 210.947 575.153 224.608 C 577.352 243.826 569.133 262.351 553.967 273.581 C 544.357 280.99 533.013 283.537 523.75 291.988 C 516.573 299.051 512.174 306.114 510.553 318.384 C 510.321 341.77 516.69 345.013 524.447 357.284 z " id="path675" style="fill:#ffffff;fill-rule:evenodd;stroke-width:2.34489pt;"/>
      <path d="M 510.206 236.175 C 510.206 236.06 510.206 235.943 510.206 235.828 " id="path676" style="fill:#ba0000;fill-rule:evenodd;stroke:#000000;stroke-width:2.34489pt;"/>
      <path d="M 514.947 348.588 C 485.771 322.771 488.324 257.826 510.553 236.175 " id="path677" style="fill:none;fill-rule:evenodd;stroke:#ba0000;stroke-width:2.34489pt;"/>
      <polygon id="polygon678" points="591.041,433.161 533.774,391.476 476.501,433.151 498.449,365.806 441.115,324.214 511.946,324.278 533.785,256.897 555.613,324.281 626.445,324.23 569.104,365.812 591.041,433.161 " style="fill:#ba0000;fill-rule:evenodd;stroke-width:1pt;" transform="matrix(0.135668,-3.068384e-2,2.698504e-2,0.129088,441.3846,191.8889)"/>
    </g>
    <g id="g679" transform="matrix(-0.813545,0.581503,-0.581503,-0.813545,1177.063,339.5501)">
      <path d="M 524.447 357.284 C 524.447 357.284 449.427 324.983 460.192 241.28 C 470.613 200.99 489.02 173.553 522.362 158.619 C 537.991 153.756 553.969 151.672 570.292 150.283 C 566.008 154.335 562.42 158.387 560.568 163.481 C 556.978 172.627 559.641 181.426 564.387 190.224 C 570.407 200.412 573.994 210.947 575.153 224.608 C 577.352 243.826 569.133 262.351 553.967 273.581 C 544.357 280.99 533.013 283.537 523.75 291.988 C 516.573 299.051 512.174 306.114 510.553 318.384 C 510.321 341.77 516.69 345.013 524.447 357.284 z " id="path680" style="fill:#ffffff;fill-rule:evenodd;stroke-width:2.34489pt;"/>
      <path d="M 510.206 236.175 C 510.206 236.06 510.206 235.943 510.206 235.828 " id="path681" style="fill:#ba0000;fill-rule:evenodd;stroke:#000000;stroke-width:2.34489pt;"/>
      <path d="M 514.947 348.588 C 485.771 322.771 488.324 257.826 510.553 236.175 " id="path682" style="fill:none;fill-rule:evenodd;stroke:#ba0000;stroke-width:2.34489pt;"/>
      <polygon id="polygon683" points="591.041,433.161 533.774,391.476 476.501,433.151 498.449,365.806 441.115,324.214 511.946,324.278 533.785,256.897 555.613,324.281 626.445,324.23 569.104,365.812 591.041,433.161 " style="fill:#ba0000;fill-rule:evenodd;stroke-width:1pt;" transform="matrix(0.135668,-3.068384e-2,2.698504e-2,0.129088,441.3846,191.8889)"/>
    </g>
    <g id="g684" transform="matrix(-0.786568,-0.617503,0.617503,-0.786568,732.7755,966.9646)">
      <path d="M 524.447 357.284 C 524.447 357.284 449.427 324.983 460.192 241.28 C 470.613 200.99 489.02 173.553 522.362 158.619 C 537.991 153.756 553.969 151.672 570.292 150.283 C 566.008 154.335 562.42 158.387 560.568 163.481 C 556.978 172.627 559.641 181.426 564.387 190.224 C 570.407 200.412 573.994 210.947 575.153 224.608 C 577.352 243.826 569.133 262.351 553.967 273.581 C 544.357 280.99 533.013 283.537 523.75 291.988 C 516.573 299.051 512.174 306.114 510.553 318.384 C 510.321 341.77 516.69 345.013 524.447 357.284 z " id="path685" style="fill:#ffffff;fill-rule:evenodd;stroke-width:2.34489pt;"/>
      <path d="M 510.206 236.175 C 510.206 236.06 510.206 235.943 510.206 235.828 " id="path686" style="fill:#ba0000;fill-rule:evenodd;stroke:#000000;stroke-width:2.34489pt;"/>
      <path d="M 514.947 348.588 C 485.771 322.771 488.324 257.826 510.553 236.175 " id="path687" style="fill:none;fill-rule:evenodd;stroke:#ba0000;stroke-width:2.34489pt;"/>
      <polygon id="polygon688" points="591.041,433.161 533.774,391.476 476.501,433.151 498.449,365.806 441.115,324.214 511.946,324.278 533.785,256.897 555.613,324.281 626.445,324.23 569.104,365.812 591.041,433.161 " style="fill:#ba0000;fill-rule:evenodd;stroke-width:1pt;" transform="matrix(0.135668,-3.068384e-2,2.698504e-2,0.129088,441.3846,191.8889)"/>
    </g>
    <g id="g689" transform="matrix(0.321074,-0.947053,0.947053,0.321074,25.28688,742.4974)">
      <path d="M 524.447 357.284 C 524.447 357.284 449.427 324.983 460.192 241.28 C 470.613 200.99 489.02 173.553 522.362 158.619 C 537.991 153.756 553.969 151.672 570.292 150.283 C 566.008 154.335 562.42 158.387 560.568 163.481 C 556.978 172.627 559.641 181.426 564.387 190.224 C 570.407 200.412 573.994 210.947 575.153 224.608 C 577.352 243.826 569.133 262.351 553.967 273.581 C 544.357 280.99 533.013 283.537 523.75 291.988 C 516.573 299.051 512.174 306.114 510.553 318.384 C 510.321 341.77 516.69 345.013 524.447 357.284 z " id="path690" style="fill:#ffffff;fill-rule:evenodd;stroke-width:2.34489pt;"/>
      <path d="M 510.206 236.175 C 510.206 236.06 510.206 235.943 510.206 235.828 " id="path691" style="fill:#ba0000;fill-rule:evenodd;stroke:#000000;stroke-width:2.34489pt;"/>
      <path d="M 514.947 348.588 C 485.771 322.771 488.324 257.826 510.553 236.175 " id="path692" style="fill:none;fill-rule:evenodd;stroke:#ba0000;stroke-width:2.34489pt;"/>
      <polygon id="polygon693" points="591.041,433.161 533.774,391.476 476.501,433.151 498.449,365.806 441.115,324.214 511.946,324.278 533.785,256.897 555.613,324.281 626.445,324.23 569.104,365.812 591.041,433.161 " style="fill:#ba0000;fill-rule:evenodd;stroke-width:1pt;" transform="matrix(0.135668,-3.068384e-2,2.698504e-2,0.129088,441.3846,191.8889)"/>
    </g>
  </g>
</svg>
