<?xml version="1.0" encoding="UTF-8" standalone="no"?>
<!DOCTYPE svg PUBLIC "-//W3C//DTD SVG 20010904//EN"
"http://www.w3.org/TR/2001/REC-SVG-20010904/DTD/svg10.dtd">
<!-- Created with Sodipodi ("http://www.sodipodi.com/") --><svg height="140mm" id="svg378" sodipodi:docbase="/home/cschalle/sodipodi-flags/nations/" sodipodi:docname="/home/cschalle/sodipodi-flags/nations/honduras.svg" sodipodi:version="0.32" version="1" width="271mm" x="0" xmlns="http://www.w3.org/2000/svg" xmlns:sodipodi="http://sodipodi.sourceforge.net/DTD/sodipodi-0.dtd" xmlns:xlink="http://www.w3.org/1999/xlink" y="0">
  <metadata>
    <rdf:RDF xmlns:cc="http://web.resource.org/cc/" xmlns:dc="http://purl.org/dc/elements/1.1/" xmlns:rdf="http://www.w3.org/1999/02/22-rdf-syntax-ns#">
      <cc:Work rdf:about="">
        <dc:title>Honduras</dc:title>
        <dc:description></dc:description>
        <dc:subject>
          <rdf:Bag>
            <rdf:li></rdf:li>
            <rdf:li>united_nations_member</rdf:li>
            <rdf:li>latin_america</rdf:li>
            <rdf:li>america</rdf:li>
            <rdf:li>south_america</rdf:li>
            <rdf:li>flag</rdf:li>
            <rdf:li>sign</rdf:li>
          </rdf:Bag>
        </dc:subject>
        <dc:publisher>
          <cc:Agent rdf:about="http://www.openclipart.org">
            <dc:title>Cezary Biele and Christian Schaller</dc:title>
          </cc:Agent>
        </dc:publisher>
        <dc:creator>
          <cc:Agent>
            <dc:title>Cezary Biele and Christian Schaller</dc:title>
          </cc:Agent>
        </dc:creator>
        <dc:rights>
          <cc:Agent>
            <dc:title>Cezary Biele and Christian Schaller</dc:title>
          </cc:Agent>
        </dc:rights>
        <dc:date></dc:date>
        <dc:format>image/svg+xml</dc:format>
        <dc:type rdf:resource="http://purl.org/dc/dcmitype/StillImage"/>
        <cc:license rdf:resource="http://web.resource.org/cc/PublicDomain"/>
        <dc:language>en</dc:language>
      </cc:Work>
      <cc:License rdf:about="http://web.resource.org/cc/PublicDomain">
        <cc:permits rdf:resource="http://web.resource.org/cc/Reproduction"/>
        <cc:permits rdf:resource="http://web.resource.org/cc/Distribution"/>
        <cc:permits rdf:resource="http://web.resource.org/cc/DerivativeWorks"/>
      </cc:License>
    </rdf:RDF>
  </metadata>
  <sodipodi:namedview gridoriginx="0mm" gridoriginy="-8mm" gridspacingx="1mm" gridspacingy="1mm" id="base" showgrid="true"/>
  <defs id="defs380"/>
  <rect height="208.932434" id="rect649" style="font-size:12;fill:#ffffff;fill-rule:evenodd;stroke-width:1pt;fill-opacity:1;" width="959.783389" x="-0.000000" y="136.960342"/>
  <rect height="107.958336" id="rect148" style="font-size:12;fill:#087bce;fill-rule:evenodd;stroke-width:1pt;fill-opacity:1;" transform="matrix(-1.546849,0.000000,0.000000,-1.546849,4.190893e-4,-233.7145)" width="618.063362" x="-619.343940" y="-472.524338"/>
  <rect height="104.977776" id="rect585" style="font-size:12;fill:#087bce;fill-rule:evenodd;stroke-width:1pt;fill-opacity:1;" transform="matrix(-1.546849,0.000000,0.000000,-1.546849,4.190893e-4,-233.7145)" width="620.857059" x="-620.856326" y="-257.751450"/>
  <polygon id="polygon671" points="591.041,433.161 533.774,391.476 476.501,433.151 498.449,365.806 441.115,324.214 511.946,324.278 533.785,256.897 555.613,324.281 626.445,324.23 569.104,365.812 591.041,433.161 " style="font-size:12;fill:#087bce;fill-rule:evenodd;stroke-width:1pt;fill-opacity:1;" transform="matrix(0.333374,-1.622405e-3,-3.629845e-3,0.316060,304.5722,139.6546)"/>
  <polygon id="polygon637" points="591.041,433.161 533.774,391.476 476.501,433.151 498.449,365.806 441.115,324.214 511.946,324.278 533.785,256.897 555.613,324.281 626.445,324.23 569.104,365.812 591.041,433.161 " style="font-size:12;fill:#087bce;fill-rule:evenodd;stroke-width:1pt;fill-opacity:1;" transform="matrix(0.333374,-1.622405e-3,-3.629845e-3,0.316060,442.6630,175.2028)"/>
  <polygon id="polygon638" points="591.041,433.161 533.774,391.476 476.501,433.151 498.449,365.806 441.115,324.214 511.946,324.278 533.785,256.897 555.613,324.281 626.445,324.23 569.104,365.812 591.041,433.161 " style="font-size:12;fill:#087bce;fill-rule:evenodd;stroke-width:1pt;fill-opacity:1;" transform="matrix(0.333374,-1.622405e-3,-3.629845e-3,0.316060,442.6630,101.3721)"/>
  <polygon id="polygon639" points="591.041,433.161 533.774,391.476 476.501,433.151 498.449,365.806 441.115,324.214 511.946,324.278 533.785,256.897 555.613,324.281 626.445,324.23 569.104,365.812 591.041,433.161 " style="font-size:12;fill:#087bce;fill-rule:evenodd;stroke-width:1pt;fill-opacity:1;" transform="matrix(0.333374,-1.622405e-3,-3.629845e-3,0.316060,137.7696,175.2028)"/>
  <polygon id="polygon640" points="591.041,433.161 533.774,391.476 476.501,433.151 498.449,365.806 441.115,324.214 511.946,324.278 533.785,256.897 555.613,324.281 626.445,324.23 569.104,365.812 591.041,433.161 " style="font-size:12;fill:#087bce;fill-rule:evenodd;stroke-width:1pt;fill-opacity:1;" transform="matrix(0.333374,-1.622405e-3,-3.629845e-3,0.316060,137.7695,101.3721)"/>
</svg>
