<?xml version="1.0" encoding="UTF-8" standalone="no"?>
<!DOCTYPE svg PUBLIC "-//W3C//DTD SVG 20010904//EN"
"http://www.w3.org/TR/2001/REC-SVG-20010904/DTD/svg10.dtd"
[
 <!ATTLIST svg
  xmlns:xlink CDATA #FIXED "http://www.w3.org/1999/xlink">
]>
<!-- Created with Sodipodi ("http://www.sodipodi.com/") --><svg height="708.661" id="svg378" version="1" width="1062.99" x="0" xmlns="http://www.w3.org/2000/svg" xmlns:xlink="http://www.w3.org/1999/xlink" y="0">
  <metadata>
    <rdf:RDF xmlns:cc="http://web.resource.org/cc/" xmlns:dc="http://purl.org/dc/elements/1.1/" xmlns:rdf="http://www.w3.org/1999/02/22-rdf-syntax-ns#">
      <cc:Work rdf:about="">
        <dc:title> india</dc:title>
        <dc:description></dc:description>
        <dc:subject>
          <rdf:Bag>
            <rdf:li></rdf:li>
            <rdf:li>asia</rdf:li>
            <rdf:li>united_nations_member</rdf:li>
            <rdf:li>flag</rdf:li>
            <rdf:li>sign</rdf:li>
          </rdf:Bag>
        </dc:subject>
        <dc:publisher>
          <cc:Agent rdf:about="http://www.openclipart.org">
            <dc:title> Lauris Kaplinski</dc:title>
          </cc:Agent>
        </dc:publisher>
        <dc:creator>
          <cc:Agent>
            <dc:title>Lauris Kaplinski</dc:title>
          </cc:Agent>
        </dc:creator>
        <dc:rights>
          <cc:Agent>
            <dc:title> Lauris Kaplinski</dc:title>
          </cc:Agent>
        </dc:rights>
        <dc:date></dc:date>
        <dc:format>image/svg+xml</dc:format>
        <dc:type rdf:resource="http://purl.org/dc/dcmitype/StillImage"/>
        <cc:license rdf:resource="http://web.resource.org/cc/PublicDomain"/>
        <dc:language>en</dc:language>
      </cc:Work>
      <cc:License rdf:about="http://web.resource.org/cc/PublicDomain">
        <cc:permits rdf:resource="http://web.resource.org/cc/Reproduction"/>
        <cc:permits rdf:resource="http://web.resource.org/cc/Distribution"/>
        <cc:permits rdf:resource="http://web.resource.org/cc/DerivativeWorks"/>
      </cc:License>
    </rdf:RDF>
  </metadata>
  <defs id="defs380"/>
  <rect height="708.661" id="rect171" style="font-size:12;fill:#ffffff;fill-rule:evenodd;stroke-width:1pt;" width="1062.99" x="0" y="0"/>
  <rect height="236.22" id="rect256" style="font-size:12;fill:#329203;fill-rule:evenodd;stroke-width:1pt;" transform="translate(0,0.000281206)" width="1062.99" x="0" y="472.441"/>
  <rect height="236.22" id="rect255" style="font-size:12;fill:#e77300;fill-rule:evenodd;stroke-width:1pt;" width="1062.99" x="0" y="0"/>
  <g id="g228" style="font-size:12;" transform="matrix(0.366639,0,0,0.366639,398.443,219.601)">
    <ellipse cx="362.900665" cy="367.472717" id="path200" rx="305.002045" ry="305.002014" style="fill:#08399c;fill-rule:evenodd;stroke-width:1pt;"/>
    <path d="M 297.088 104.968 C 303.188 103.329 306.442 102.994 312.276 101.81 C 315.917 113.787 323.854 120.051 331.838 118.648 C 339.028 117.491 349.276 112.227 347.176 97.2493 C 353.118 96.8936 356.532 96.7349 362.849 96.7512 C 362.732 141.956 359.885 189.588 355.72 234.027 C 352.716 266.812 361.782 274.663 363.142 291.724 C 364.662 311.519 363.406 327.098 364.81 367.978 C 356.752 327.873 351.829 312.107 348.925 293.543 C 346.244 275.677 352.742 268.833 339.989 235.543 C 323.519 193.496 308.818 148.625 297.088 104.968 z " id="path175" style="fill:#ffffff;fill-rule:evenodd;stroke-width:1pt;" transform="matrix(0.0050186,0.999987,-0.999987,0.0050186,730.681,1.42004)"/>
    <path d="M 297.088 104.968 C 303.188 103.329 306.442 102.994 312.276 101.81 C 315.917 113.787 323.854 120.051 331.838 118.648 C 339.028 117.491 349.276 112.227 347.176 97.2493 C 353.118 96.8936 356.532 96.7349 362.849 96.7512 C 362.732 141.956 359.885 189.588 355.72 234.027 C 352.716 266.812 361.782 274.663 363.142 291.724 C 364.662 311.519 363.406 327.098 364.81 367.978 C 356.752 327.873 351.829 312.107 348.925 293.543 C 346.244 275.677 352.742 268.833 339.989 235.543 C 323.519 193.496 308.818 148.625 297.088 104.968 z " id="path205" style="fill:#ffffff;fill-rule:evenodd;stroke-width:1pt;" transform="matrix(0.999999,0.00146689,-0.00146689,0.999999,0.540109,-0.431542)"/>
    <path d="M 297.088 104.968 C 303.188 103.329 306.442 102.994 312.276 101.81 C 315.917 113.787 323.854 120.051 331.838 118.648 C 339.028 117.491 349.276 112.227 347.176 97.2493 C 353.118 96.8936 356.532 96.7349 362.849 96.7512 C 362.732 141.956 359.885 189.588 355.72 234.027 C 352.716 266.812 361.782 274.663 363.142 291.724 C 364.662 311.519 363.406 327.098 364.81 367.978 C 356.752 327.873 351.829 312.107 348.925 293.543 C 346.244 275.677 352.742 268.833 339.989 235.543 C 323.519 193.496 308.818 148.625 297.088 104.968 z " id="path206" style="fill:#ffffff;fill-rule:evenodd;stroke-width:1pt;" transform="matrix(0.966391,0.257075,-0.257075,0.966391,106.818,-81.2843)"/>
    <path d="M 297.088 104.968 C 303.188 103.329 306.442 102.994 312.276 101.81 C 315.917 113.787 323.854 120.051 331.838 118.648 C 339.028 117.491 349.276 112.227 347.176 97.2493 C 353.118 96.8936 356.532 96.7349 362.849 96.7512 C 362.732 141.956 359.885 189.588 355.72 234.027 C 352.716 266.812 361.782 274.663 363.142 291.724 C 364.662 311.519 363.406 327.098 364.81 367.978 C 356.752 327.873 351.829 312.107 348.925 293.543 C 346.244 275.677 352.742 268.833 339.989 235.543 C 323.519 193.496 308.818 148.625 297.088 104.968 z " id="path207" style="fill:#ffffff;fill-rule:evenodd;stroke-width:1pt;" transform="matrix(0.867187,0.497982,-0.497982,0.867187,231.61,-132.647)"/>
    <path d="M 297.088 104.968 C 303.188 103.329 306.442 102.994 312.276 101.81 C 315.917 113.787 323.854 120.051 331.838 118.648 C 339.028 117.491 349.276 112.227 347.176 97.2493 C 353.118 96.8936 356.532 96.7349 362.849 96.7512 C 362.732 141.956 359.885 189.588 355.72 234.027 C 352.716 266.812 361.782 274.663 363.142 291.724 C 364.662 311.519 363.406 327.098 364.81 367.978 C 356.752 327.873 351.829 312.107 348.925 293.543 C 346.244 275.677 352.742 268.833 339.989 235.543 C 323.519 193.496 308.818 148.625 297.088 104.968 z " id="path208" style="fill:#ffffff;fill-rule:evenodd;stroke-width:1pt;" transform="matrix(0.709124,0.705084,-0.705084,0.709124,365.432,-150.031)"/>
    <path d="M 297.088 104.968 C 303.188 103.329 306.442 102.994 312.276 101.81 C 315.917 113.787 323.854 120.051 331.838 118.648 C 339.028 117.491 349.276 112.227 347.176 97.2493 C 353.118 96.8936 356.532 96.7349 362.849 96.7512 C 362.732 141.956 359.885 189.588 355.72 234.027 C 352.716 266.812 361.782 274.663 363.142 291.724 C 364.662 311.519 363.406 327.098 364.81 367.978 C 356.752 327.873 351.829 312.107 348.925 293.543 C 346.244 275.677 352.742 268.833 339.989 235.543 C 323.519 193.496 308.818 148.625 297.088 104.968 z " id="path209" style="fill:#ffffff;fill-rule:evenodd;stroke-width:1pt;" transform="matrix(0.504288,0.863535,-0.863535,0.504288,498.416,-132.469)"/>
    <path d="M 297.088 104.968 C 303.188 103.329 306.442 102.994 312.276 101.81 C 315.917 113.787 323.854 120.051 331.838 118.648 C 339.028 117.491 349.276 112.227 347.176 97.2493 C 353.118 96.8936 356.532 96.7349 362.849 96.7512 C 362.732 141.956 359.885 189.588 355.72 234.027 C 352.716 266.812 361.782 274.663 363.142 291.724 C 364.662 311.519 363.406 327.098 364.81 367.978 C 356.752 327.873 351.829 312.107 348.925 293.543 C 346.244 275.677 352.742 268.833 339.989 235.543 C 323.519 193.496 308.818 148.625 297.088 104.968 z " id="path210" style="fill:#ffffff;fill-rule:evenodd;stroke-width:1pt;" transform="matrix(0.259619,0.965711,-0.965711,0.259619,625.226,-79.7316)"/>
    <path d="M 297.088 104.968 C 303.188 103.329 306.442 102.994 312.276 101.81 C 315.917 113.787 323.854 120.051 331.838 118.648 C 339.028 117.491 349.276 112.227 347.176 97.2493 C 353.118 96.8936 356.532 96.7349 362.849 96.7512 C 362.732 141.956 359.885 189.588 355.72 234.027 C 352.716 266.812 361.782 274.663 363.142 291.724 C 364.662 311.519 363.406 327.098 364.81 367.978 C 356.752 327.873 351.829 312.107 348.925 293.543 C 346.244 275.677 352.742 268.833 339.989 235.543 C 323.519 193.496 308.818 148.625 297.088 104.968 z " id="path211" style="fill:#ffffff;fill-rule:evenodd;stroke-width:1pt;" transform="matrix(0.00113884,-0.999999,0.999999,0.00113884,-3.57304,732.199)"/>
    <path d="M 297.088 104.968 C 303.188 103.329 306.442 102.994 312.276 101.81 C 315.917 113.787 323.854 120.051 331.838 118.648 C 339.028 117.491 349.276 112.227 347.176 97.2493 C 353.118 96.8936 356.532 96.7349 362.849 96.7512 C 362.732 141.956 359.885 189.588 355.72 234.027 C 352.716 266.812 361.782 274.663 363.142 291.724 C 364.662 311.519 363.406 327.098 364.81 367.978 C 356.752 327.873 351.829 312.107 348.925 293.543 C 346.244 275.677 352.742 268.833 339.989 235.543 C 323.519 193.496 308.818 148.625 297.088 104.968 z " id="path212" style="fill:#ffffff;fill-rule:evenodd;stroke-width:1pt;" transform="matrix(-0.250504,0.968115,-0.968115,-0.250504,812.141,107.034)"/>
    <path d="M 297.088 104.968 C 303.188 103.329 306.442 102.994 312.276 101.81 C 315.917 113.787 323.854 120.051 331.838 118.648 C 339.028 117.491 349.276 112.227 347.176 97.2493 C 353.118 96.8936 356.532 96.7349 362.849 96.7512 C 362.732 141.956 359.885 189.588 355.72 234.027 C 352.716 266.812 361.782 274.663 363.142 291.724 C 364.662 311.519 363.406 327.098 364.81 367.978 C 356.752 327.873 351.829 312.107 348.925 293.543 C 346.244 275.677 352.742 268.833 339.989 235.543 C 323.519 193.496 308.818 148.625 297.088 104.968 z " id="path213" style="fill:#ffffff;fill-rule:evenodd;stroke-width:1pt;" transform="matrix(-0.492329,0.870408,-0.870408,-0.492329,864.389,231.618)"/>
    <path d="M 297.088 104.968 C 303.188 103.329 306.442 102.994 312.276 101.81 C 315.917 113.787 323.854 120.051 331.838 118.648 C 339.028 117.491 349.276 112.227 347.176 97.2493 C 353.118 96.8936 356.532 96.7349 362.849 96.7512 C 362.732 141.956 359.885 189.588 355.72 234.027 C 352.716 266.812 361.782 274.663 363.142 291.724 C 364.662 311.519 363.406 327.098 364.81 367.978 C 356.752 327.873 351.829 312.107 348.925 293.543 C 346.244 275.677 352.742 268.833 339.989 235.543 C 323.519 193.496 308.818 148.625 297.088 104.968 z " id="path214" style="fill:#ffffff;fill-rule:evenodd;stroke-width:1pt;" transform="matrix(-0.700821,0.713336,-0.713336,-0.700821,882.645,365.59)"/>
    <path d="M 297.088 104.968 C 303.188 103.329 306.442 102.994 312.276 101.81 C 315.917 113.787 323.854 120.051 331.838 118.648 C 339.028 117.491 349.276 112.227 347.176 97.2493 C 353.118 96.8936 356.532 96.7349 362.849 96.7512 C 362.732 141.956 359.885 189.588 355.72 234.027 C 352.716 266.812 361.782 274.663 363.142 291.724 C 364.662 311.519 363.406 327.098 364.81 367.978 C 356.752 327.873 351.829 312.107 348.925 293.543 C 346.244 275.677 352.742 268.833 339.989 235.543 C 323.519 193.496 308.818 148.625 297.088 104.968 z " id="path215" style="fill:#ffffff;fill-rule:evenodd;stroke-width:1pt;" transform="matrix(-0.861651,0.5075,-0.5075,-0.861651,865.582,499.813)"/>
    <path d="M 297.088 104.968 C 303.188 103.329 306.442 102.994 312.276 101.81 C 315.917 113.787 323.854 120.051 331.838 118.648 C 339.028 117.491 349.276 112.227 347.176 97.2493 C 353.118 96.8936 356.532 96.7349 362.849 96.7512 C 362.732 141.956 359.885 189.588 355.72 234.027 C 352.716 266.812 361.782 274.663 363.142 291.724 C 364.662 311.519 363.406 327.098 364.81 367.978 C 356.752 327.873 351.829 312.107 348.925 293.543 C 346.244 275.677 352.742 268.833 339.989 235.543 C 323.519 193.496 308.818 148.625 297.088 104.968 z " id="path216" style="fill:#ffffff;fill-rule:evenodd;stroke-width:1pt;" transform="matrix(-0.964221,0.265097,-0.265097,-0.964221,813.822,625.941)"/>
    <path d="M 297.088 104.968 C 303.188 103.329 306.442 102.994 312.276 101.81 C 315.917 113.787 323.854 120.051 331.838 118.648 C 339.028 117.491 349.276 112.227 347.176 97.2493 C 353.118 96.8936 356.532 96.7349 362.849 96.7512 C 362.732 141.956 359.885 189.588 355.72 234.027 C 352.716 266.812 361.782 274.663 363.142 291.724 C 364.662 311.519 363.406 327.098 364.81 367.978 C 356.752 327.873 351.829 312.107 348.925 293.543 C 346.244 275.677 352.742 268.833 339.989 235.543 C 323.519 193.496 308.818 148.625 297.088 104.968 z " id="path217" style="fill:#ffffff;fill-rule:evenodd;stroke-width:1pt;" transform="matrix(-0.999983,0.00579202,-0.00579202,-0.999983,731.482,733.659)"/>
    <path d="M 297.088 104.968 C 303.188 103.329 306.442 102.994 312.276 101.81 C 315.917 113.787 323.854 120.051 331.838 118.648 C 339.028 117.491 349.276 112.227 347.176 97.2493 C 353.118 96.8936 356.532 96.7349 362.849 96.7512 C 362.732 141.956 359.885 189.588 355.72 234.027 C 352.716 266.812 361.782 274.663 363.142 291.724 C 364.662 311.519 363.406 327.098 364.81 367.978 C 356.752 327.873 351.829 312.107 348.925 293.543 C 346.244 275.677 352.742 268.833 339.989 235.543 C 323.519 193.496 308.818 148.625 297.088 104.968 z " id="path218" style="fill:#ffffff;fill-rule:evenodd;stroke-width:1pt;" transform="matrix(-0.966932,-0.255034,0.255034,-0.966932,623.487,816.619)"/>
    <path d="M 297.088 104.968 C 303.188 103.329 306.442 102.994 312.276 101.81 C 315.917 113.787 323.854 120.051 331.838 118.648 C 339.028 117.491 349.276 112.227 347.176 97.2493 C 353.118 96.8936 356.532 96.7349 362.849 96.7512 C 362.732 141.956 359.885 189.588 355.72 234.027 C 352.716 266.812 361.782 274.663 363.142 291.724 C 364.662 311.519 363.406 327.098 364.81 367.978 C 356.752 327.873 351.829 312.107 348.925 293.543 C 346.244 275.677 352.742 268.833 339.989 235.543 C 323.519 193.496 308.818 148.625 297.088 104.968 z " id="path219" style="fill:#ffffff;fill-rule:evenodd;stroke-width:1pt;" transform="matrix(-0.868276,-0.49608,0.49608,-0.868276,498.844,868.234)"/>
    <path d="M 297.088 104.968 C 303.188 103.329 306.442 102.994 312.276 101.81 C 315.917 113.787 323.854 120.051 331.838 118.648 C 339.028 117.491 349.276 112.227 347.176 97.2493 C 353.118 96.8936 356.532 96.7349 362.849 96.7512 C 362.732 141.956 359.885 189.588 355.72 234.027 C 352.716 266.812 361.782 274.663 363.142 291.724 C 364.662 311.519 363.406 327.098 364.81 367.978 C 356.752 327.873 351.829 312.107 348.925 293.543 C 346.244 275.677 352.742 268.833 339.989 235.543 C 323.519 193.496 308.818 148.625 297.088 104.968 z " id="path220" style="fill:#ffffff;fill-rule:evenodd;stroke-width:1pt;" transform="matrix(-0.710016,-0.704184,0.704184,-0.710016,364.582,885.911)"/>
    <path d="M 297.088 104.968 C 303.188 103.329 306.442 102.994 312.276 101.81 C 315.917 113.787 323.854 120.051 331.838 118.648 C 339.028 117.491 349.276 112.227 347.176 97.2493 C 353.118 96.8936 356.532 96.7349 362.849 96.7512 C 362.732 141.956 359.885 189.588 355.72 234.027 C 352.716 266.812 361.782 274.663 363.142 291.724 C 364.662 311.519 363.406 327.098 364.81 367.978 C 356.752 327.873 351.829 312.107 348.925 293.543 C 346.244 275.677 352.742 268.833 339.989 235.543 C 323.519 193.496 308.818 148.625 297.088 104.968 z " id="path221" style="fill:#ffffff;fill-rule:evenodd;stroke-width:1pt;" transform="matrix(-0.502848,-0.864374,0.864374,-0.502848,230.108,868.125)"/>
    <path d="M 297.088 104.968 C 303.188 103.329 306.442 102.994 312.276 101.81 C 315.917 113.787 323.854 120.051 331.838 118.648 C 339.028 117.491 349.276 112.227 347.176 97.2493 C 353.118 96.8936 356.532 96.7349 362.849 96.7512 C 362.732 141.956 359.885 189.588 355.72 234.027 C 352.716 266.812 361.782 274.663 363.142 291.724 C 364.662 311.519 363.406 327.098 364.81 367.978 C 356.752 327.873 351.829 312.107 348.925 293.543 C 346.244 275.677 352.742 268.833 339.989 235.543 C 323.519 193.496 308.818 148.625 297.088 104.968 z " id="path222" style="fill:#ffffff;fill-rule:evenodd;stroke-width:1pt;" transform="matrix(-0.259259,-0.965807,0.965807,-0.259259,103.965,815.514)"/>
    <path d="M 297.088 104.968 C 303.188 103.329 306.442 102.994 312.276 101.81 C 315.917 113.787 323.854 120.051 331.838 118.648 C 339.028 117.491 349.276 112.227 347.176 97.2493 C 353.118 96.8936 356.532 96.7349 362.849 96.7512 C 362.732 141.956 359.885 189.588 355.72 234.027 C 352.716 266.812 361.782 274.663 363.142 291.724 C 364.662 311.519 363.406 327.098 364.81 367.978 C 356.752 327.873 351.829 312.107 348.925 293.543 C 346.244 275.677 352.742 268.833 339.989 235.543 C 323.519 193.496 308.818 148.625 297.088 104.968 z " id="path223" style="fill:#ffffff;fill-rule:evenodd;stroke-width:1pt;" transform="matrix(0.966945,-0.254982,0.254982,0.966945,-81.7369,105.248)"/>
    <path d="M 297.088 104.968 C 303.188 103.329 306.442 102.994 312.276 101.81 C 315.917 113.787 323.854 120.051 331.838 118.648 C 339.028 117.491 349.276 112.227 347.176 97.2493 C 353.118 96.8936 356.532 96.7349 362.849 96.7512 C 362.732 141.956 359.885 189.588 355.72 234.027 C 352.716 266.812 361.782 274.663 363.142 291.724 C 364.662 311.519 363.406 327.098 364.81 367.978 C 356.752 327.873 351.829 312.107 348.925 293.543 C 346.244 275.677 352.742 268.833 339.989 235.543 C 323.519 193.496 308.818 148.625 297.088 104.968 z " id="path224" style="fill:#ffffff;fill-rule:evenodd;stroke-width:1pt;" transform="matrix(0.261593,-0.965178,0.965178,0.261593,-85.7465,623.696)"/>
    <path d="M 297.088 104.968 C 303.188 103.329 306.442 102.994 312.276 101.81 C 315.917 113.787 323.854 120.051 331.838 118.648 C 339.028 117.491 349.276 112.227 347.176 97.2493 C 353.118 96.8936 356.532 96.7349 362.849 96.7512 C 362.732 141.956 359.885 189.588 355.72 234.027 C 352.716 266.812 361.782 274.663 363.142 291.724 C 364.662 311.519 363.406 327.098 364.81 367.978 C 356.752 327.873 351.829 312.107 348.925 293.543 C 346.244 275.677 352.742 268.833 339.989 235.543 C 323.519 193.496 308.818 148.625 297.088 104.968 z " id="path225" style="fill:#ffffff;fill-rule:evenodd;stroke-width:1pt;" transform="matrix(0.500258,-0.865876,0.865876,0.500258,-136.255,499.693)"/>
    <path d="M 297.088 104.968 C 303.188 103.329 306.442 102.994 312.276 101.81 C 315.917 113.787 323.854 120.051 331.838 118.648 C 339.028 117.491 349.276 112.227 347.176 97.2493 C 353.118 96.8936 356.532 96.7349 362.849 96.7512 C 362.732 141.956 359.885 189.588 355.72 234.027 C 352.716 266.812 361.782 274.663 363.142 291.724 C 364.662 311.519 363.406 327.098 364.81 367.978 C 356.752 327.873 351.829 312.107 348.925 293.543 C 346.244 275.677 352.742 268.833 339.989 235.543 C 323.519 193.496 308.818 148.625 297.088 104.968 z " id="path226" style="fill:#ffffff;fill-rule:evenodd;stroke-width:1pt;" transform="matrix(0.707599,-0.706613,0.706613,0.707599,-153.286,365.345)"/>
    <path d="M 297.088 104.968 C 303.188 103.329 306.442 102.994 312.276 101.81 C 315.917 113.787 323.854 120.051 331.838 118.648 C 339.028 117.491 349.276 112.227 347.176 97.2493 C 353.118 96.8936 356.532 96.7349 362.849 96.7512 C 362.732 141.956 359.885 189.588 355.72 234.027 C 352.716 266.812 361.782 274.663 363.142 291.724 C 364.662 311.519 363.406 327.098 364.81 367.978 C 356.752 327.873 351.829 312.107 348.925 293.543 C 346.244 275.677 352.742 268.833 339.989 235.543 C 323.519 193.496 308.818 148.625 297.088 104.968 z " id="path227" style="fill:#ffffff;fill-rule:evenodd;stroke-width:1pt;" transform="matrix(0.869088,-0.494657,0.494657,0.869088,-134.212,228.648)"/>
  </g>
</svg>
