<?xml version="1.0" encoding="UTF-8" standalone="no"?>
<!DOCTYPE svg PUBLIC "-//W3C//DTD SVG 20010904//EN"
"http://www.w3.org/TR/2001/REC-SVG-20010904/DTD/svg10.dtd"
[
 <!ATTLIST svg
  xmlns:xlink CDATA #FIXED "http://www.w3.org/1999/xlink">
]>
<!-- Created with Sodipodi ("http://www.sodipodi.com/") --><svg height="140mm" id="svg548" sodipodi:docbase="/home/scarlet" sodipodi:docname="/home/scarlet/british_indian_ocean_territory.svg" sodipodi:version="0.32" width="280mm" xmlns="http://www.w3.org/2000/svg" xmlns:sodipodi="http://sodipodi.sourceforge.net/DTD/sodipodi-0.dtd" xmlns:xlink="http://www.w3.org/1999/xlink">
  <metadata>
    <rdf:RDF xmlns:cc="http://web.resource.org/cc/" xmlns:dc="http://purl.org/dc/elements/1.1/" xmlns:rdf="http://www.w3.org/1999/02/22-rdf-syntax-ns#">
      <cc:Work rdf:about="">
        <dc:title>United Kingdom - British Indian Ocean Territory</dc:title>
        <dc:description></dc:description>
        <dc:subject>
          <rdf:Bag>
            <rdf:li></rdf:li>
            <rdf:li>united_kingdom</rdf:li>
            <rdf:li>europe</rdf:li>
            <rdf:li>flag</rdf:li>
            <rdf:li>sign</rdf:li>
          </rdf:Bag>
        </dc:subject>
        <dc:publisher>
          <cc:Agent rdf:about="http://www.openclipart.org">
            <dc:title>Caleb Moore</dc:title>
          </cc:Agent>
        </dc:publisher>
        <dc:creator>
          <cc:Agent>
            <dc:title>Caleb Moore</dc:title>
          </cc:Agent>
        </dc:creator>
        <dc:rights>
          <cc:Agent>
            <dc:title>Caleb Moore</dc:title>
          </cc:Agent>
        </dc:rights>
        <dc:date></dc:date>
        <dc:format>image/svg+xml</dc:format>
        <dc:type rdf:resource="http://purl.org/dc/dcmitype/StillImage"/>
        <cc:license rdf:resource="http://web.resource.org/cc/PublicDomain"/>
        <dc:language>en</dc:language>
      </cc:Work>
      <cc:License rdf:about="http://web.resource.org/cc/PublicDomain">
        <cc:permits rdf:resource="http://web.resource.org/cc/Reproduction"/>
        <cc:permits rdf:resource="http://web.resource.org/cc/Distribution"/>
        <cc:permits rdf:resource="http://web.resource.org/cc/DerivativeWorks"/>
      </cc:License>
    </rdf:RDF>
  </metadata>
  <defs id="defs550"/>
  <sodipodi:namedview id="base" showgrid="false" snaptogrid="false"/>
  <g id="g577" transform="translate(3.755093e-5,-1.525879e-5)">
    <rect height="496.062959" id="rect576" style="font-size:12;fill:#ffffff;fill-rule:evenodd;stroke:none;stroke-width:0.991189pt;" width="992.125977" x="0.000000" y="-0.000008"/>
    <path d="M 992.126 330.3 C 981.009 337.501 971.458 354.331 941.925 354.331 C 882.875 354.331 868.108 318.898 823.816 318.898 C 794.291 318.898 779.527 354.331 750 354.331 C 690.945 354.331 676.181 318.898 631.89 318.898 C 602.362 318.898 587.598 354.331 558.071 354.331 C 499.016 354.331 484.252 318.898 439.961 318.898 C 410.433 318.898 395.669 354.331 366.142 354.331 C 307.087 354.331 292.323 318.898 248.032 318.898 C 218.503 318.898 203.74 354.331 174.213 354.331 C 115.158 354.331 100.393 318.898 56.1023 318.898 C 26.5748 318.898 17.7165 344.147 0 344.147 L 0 389.764 C 17.7165 389.764 26.5747 364.515 56.1023 364.515 C 100.393 364.515 115.158 399.948 174.213 399.948 C 203.74 399.948 218.503 364.515 248.032 364.515 C 292.322 364.515 307.087 399.948 366.142 399.948 C 395.669 399.948 410.433 364.515 439.961 364.515 C 484.252 364.515 499.016 399.948 558.071 399.948 C 587.598 399.948 602.362 364.515 631.89 364.515 C 676.181 364.515 690.945 399.948 750 399.948 C 779.527 399.948 794.291 364.515 823.816 364.515 C 868.108 364.515 882.875 399.948 941.925 399.948 C 971.458 399.948 981.009 389.907 992.126 382.706 L 992.126 330.3 z " id="path570" sodipodi:nodetypes="ccccccccccccccccccccccccc" style="font-size:12;fill:#000063;fill-rule:evenodd;stroke:none;stroke-width:1pt;fill-opacity:1;stroke-opacity:1;" transform="matrix(1.000000,0.000000,0.000000,0.928732,0.000000,124.6186)"/>
    <path d="M 992.126 330.3 C 981.009 337.501 971.458 354.331 941.925 354.331 C 882.875 354.331 868.108 318.898 823.816 318.898 C 794.291 318.898 779.527 354.331 750 354.331 C 690.945 354.331 676.181 318.898 631.89 318.898 C 602.362 318.898 587.598 354.331 558.071 354.331 C 499.016 354.331 484.252 318.898 439.961 318.898 C 410.433 318.898 395.669 354.331 366.142 354.331 C 307.087 354.331 292.323 318.898 248.032 318.898 C 218.503 318.898 203.74 354.331 174.213 354.331 C 115.158 354.331 100.393 318.898 56.1023 318.898 C 26.5748 318.898 17.7165 344.147 0 344.147 L 0 389.764 C 17.7165 389.764 26.5747 364.515 56.1023 364.515 C 100.393 364.515 115.158 399.948 174.213 399.948 C 203.74 399.948 218.503 364.515 248.032 364.515 C 292.322 364.515 307.087 399.948 366.142 399.948 C 395.669 399.948 410.433 364.515 439.961 364.515 C 484.252 364.515 499.016 399.948 558.071 399.948 C 587.598 399.948 602.362 364.515 631.89 364.515 C 676.181 364.515 690.945 399.948 750 399.948 C 779.527 399.948 794.291 364.515 823.816 364.515 C 868.108 364.515 882.875 399.948 941.925 399.948 C 971.458 399.948 981.009 389.907 992.126 382.706 L 992.126 330.3 z " id="path571" sodipodi:nodetypes="ccccccccccccccccccccccccc" style="font-size:12;fill:#000063;fill-rule:evenodd;stroke:none;stroke-width:1pt;fill-opacity:1;stroke-opacity:1;" transform="matrix(1.000000,0.000000,0.000000,0.928732,0.000000,42.34900)"/>
    <path d="M 992.126 330.3 C 981.009 337.501 971.458 354.331 941.925 354.331 C 882.875 354.331 868.108 318.898 823.816 318.898 C 794.291 318.898 779.527 354.331 750 354.331 C 690.945 354.331 676.181 318.898 631.89 318.898 C 602.362 318.898 587.598 354.331 558.071 354.331 C 499.016 354.331 484.252 318.898 439.961 318.898 C 410.433 318.898 395.669 354.331 366.142 354.331 C 307.087 354.331 292.323 318.898 248.032 318.898 C 218.503 318.898 203.74 354.331 174.213 354.331 C 115.158 354.331 100.393 318.898 56.1023 318.898 C 26.5748 318.898 17.7165 344.147 0 344.147 L 0 389.764 C 17.7165 389.764 26.5747 364.515 56.1023 364.515 C 100.393 364.515 115.158 399.948 174.213 399.948 C 203.74 399.948 218.503 364.515 248.032 364.515 C 292.322 364.515 307.087 399.948 366.142 399.948 C 395.669 399.948 410.433 364.515 439.961 364.515 C 484.252 364.515 499.016 399.948 558.071 399.948 C 587.598 399.948 602.362 364.515 631.89 364.515 C 676.181 364.515 690.945 399.948 750 399.948 C 779.527 399.948 794.291 364.515 823.816 364.515 C 868.108 364.515 882.875 399.948 941.925 399.948 C 971.458 399.948 981.009 389.907 992.126 382.706 L 992.126 330.3 z " id="path572" sodipodi:nodetypes="ccccccccccccccccccccccccc" style="font-size:12;fill:#000063;fill-rule:evenodd;stroke:none;stroke-width:1pt;fill-opacity:1;stroke-opacity:1;" transform="matrix(1.000000,0.000000,0.000000,0.928732,0.000000,-39.92052)"/>
    <path d="M 992.126 330.3 C 981.009 337.501 971.458 354.331 941.925 354.331 C 882.875 354.331 868.108 318.898 823.816 318.898 C 794.291 318.898 779.527 354.331 750 354.331 C 690.945 354.331 676.181 318.898 631.89 318.898 C 602.362 318.898 587.598 354.331 558.071 354.331 C 499.016 354.331 484.252 318.898 439.961 318.898 C 410.433 318.898 395.669 354.331 366.142 354.331 C 307.087 354.331 292.323 318.898 248.032 318.898 C 218.503 318.898 203.74 354.331 174.213 354.331 C 115.158 354.331 100.393 318.898 56.1023 318.898 C 26.5748 318.898 17.7165 344.147 0 344.147 L 0 389.764 C 17.7165 389.764 26.5747 364.515 56.1023 364.515 C 100.393 364.515 115.158 399.948 174.213 399.948 C 203.74 399.948 218.503 364.515 248.032 364.515 C 292.322 364.515 307.087 399.948 366.142 399.948 C 395.669 399.948 410.433 364.515 439.961 364.515 C 484.252 364.515 499.016 399.948 558.071 399.948 C 587.598 399.948 602.362 364.515 631.89 364.515 C 676.181 364.515 690.945 399.948 750 399.948 C 779.527 399.948 794.291 364.515 823.816 364.515 C 868.108 364.515 882.875 399.948 941.925 399.948 C 971.458 399.948 981.009 389.907 992.126 382.706 L 992.126 330.3 z " id="path573" sodipodi:nodetypes="ccccccccccccccccccccccccc" style="font-size:12;fill:#000063;fill-rule:evenodd;stroke:none;stroke-width:1pt;fill-opacity:1;stroke-opacity:1;" transform="matrix(1.000000,0.000000,0.000000,0.928732,0.000000,-122.1900)"/>
    <path d="M 992.126 330.3 C 981.009 337.501 971.458 354.331 941.925 354.331 C 882.875 354.331 868.108 318.898 823.816 318.898 C 794.291 318.898 779.527 354.331 750 354.331 C 690.945 354.331 676.181 318.898 631.89 318.898 C 602.362 318.898 587.598 354.331 558.071 354.331 C 499.016 354.331 484.252 318.898 439.961 318.898 C 410.433 318.898 395.669 354.331 366.142 354.331 C 307.087 354.331 292.323 318.898 248.032 318.898 C 218.503 318.898 203.74 354.331 174.213 354.331 C 115.158 354.331 100.393 318.898 56.1023 318.898 C 26.5748 318.898 17.7165 344.147 0 344.147 L 0 389.764 C 17.7165 389.764 26.5747 364.515 56.1023 364.515 C 100.393 364.515 115.158 399.948 174.213 399.948 C 203.74 399.948 218.503 364.515 248.032 364.515 C 292.322 364.515 307.087 399.948 366.142 399.948 C 395.669 399.948 410.433 364.515 439.961 364.515 C 484.252 364.515 499.016 399.948 558.071 399.948 C 587.598 399.948 602.362 364.515 631.89 364.515 C 676.181 364.515 690.945 399.948 750 399.948 C 779.527 399.948 794.291 364.515 823.816 364.515 C 868.108 364.515 882.875 399.948 941.925 399.948 C 971.458 399.948 981.009 389.907 992.126 382.706 L 992.126 330.3 z " id="path574" sodipodi:nodetypes="ccccccccccccccccccccccccc" style="font-size:12;fill:#000063;fill-rule:evenodd;stroke:none;stroke-width:1pt;fill-opacity:1;stroke-opacity:1;" transform="matrix(1.000000,0.000000,0.000000,0.928732,-3.755093e-5,-204.4596)"/>
    <path d="M 992.126 330.3 C 981.009 337.501 971.458 354.331 941.925 354.331 C 882.875 354.331 868.108 318.898 823.816 318.898 C 794.291 318.898 779.527 354.331 750 354.331 C 690.945 354.331 676.181 318.898 631.89 318.898 C 602.362 318.898 587.598 354.331 558.071 354.331 C 499.016 354.331 484.252 318.898 439.961 318.898 C 410.433 318.898 395.669 354.331 366.142 354.331 C 307.087 354.331 292.323 318.898 248.032 318.898 C 218.503 318.898 203.74 354.331 174.213 354.331 C 115.158 354.331 100.393 318.898 56.1023 318.898 C 26.5748 318.898 17.7165 344.147 0 344.147 L 0 389.764 C 17.7165 389.764 26.5747 364.515 56.1023 364.515 C 100.393 364.515 115.158 399.948 174.213 399.948 C 203.74 399.948 218.503 364.515 248.032 364.515 C 292.322 364.515 307.087 399.948 366.142 399.948 C 395.669 399.948 410.433 364.515 439.961 364.515 C 484.252 364.515 499.016 399.948 558.071 399.948 C 587.598 399.948 602.362 364.515 631.89 364.515 C 676.181 364.515 690.945 399.948 750 399.948 C 779.527 399.948 794.291 364.515 823.816 364.515 C 868.108 364.515 882.875 399.948 941.925 399.948 C 971.458 399.948 981.009 389.907 992.126 382.706 L 992.126 330.3 z " id="path575" sodipodi:nodetypes="ccccccccccccccccccccccccc" style="font-size:12;fill:#000063;fill-rule:evenodd;stroke:none;stroke-width:1pt;fill-opacity:1;stroke-opacity:1;" transform="matrix(1.000000,0.000000,0.000000,0.928732,-3.755093e-5,-286.7292)"/>
  </g>
  <g id="g684">
    <rect height="248.031509" id="rect683" style="font-size:12;fill:#000063;fill-rule:evenodd;stroke-width:1pt;fill-opacity:1;" width="496.062989" x="0.000000" y="-0.000046"/>
    <g id="g584" style="font-size:12;" transform="matrix(8.267716,0.000000,0.000000,8.267716,4.119968e-17,2.288818e-5)">
      <path d="M 0 0 L 0 3.3541 L 53.2918 30 L 60 30 L 60 26.6459 L 6.7082 0 L 0 0 z M 60 0 L 60 3.35405 L 6.7082 30 L 0 30 L 0 26.6458 L 53.2918 0 L 60 0 z " id="path146" style="font-size:12;fill:#ffffff;stroke-width:1pt;"/>
      <path d="M 25 0 L 25 30 L 35 30 L 35 0 L 25 0 z M 0 10 L 0 20 L 60 20 L 60 10 L 0 10 z " id="path136" style="font-size:12;fill:#ffffff;stroke-width:1pt;"/>
      <path d="M 0 12 L 0 18 L 60 18 L 60 12 L 0 12 z M 27 0 L 27 30 L 33 30 L 33 0 L 27 0 z " id="path141" style="font-size:12;fill:#cc0000;stroke-width:1pt;"/>
      <path d="M 0 30 L 20 20 L 24.4721 20 L 4.47214 30 L 0 30 z M 0 0 L 20 10 L 15.5279 10 L 0 2.23607 L 0 0 z M 35.5279 10 L 55.5279 0 L 60 0 L 40 10 L 35.5279 10 z M 60 30 L 40 20 L 44.4721 20 L 60 27.7639 L 60 30 z " id="path150" style="font-size:12;fill:#cc0000;stroke-width:1pt;"/>
    </g>
  </g>
  <g id="g1127">
    <path d="M 814.961 -301.181 L 797.244 407.48 C 797.244 444.778 877.341 444.778 885.827 407.48 L 868.11 -301.181 L 814.961 -301.181 z " id="path861" sodipodi:nodetypes="ccccc" style="fill:#a24300;fill-rule:evenodd;stroke:#ffffff;stroke-opacity:1;stroke-width:6.9349;stroke-linejoin:miter;stroke-linecap:butt;fill-opacity:1;stroke-dasharray:none;" transform="matrix(0.200004,0.000000,0.000000,0.475000,575.1662,274.5648)"/>
    <g id="g862" transform="matrix(0.725195,0.000000,0.000000,0.623100,202.0636,41.43416)">
      <g id="g852" transform="matrix(-0.314512,0.104850,-0.138292,-0.303235,1046.472,373.3190)">
        <path d="M 496.063 549.213 L 513.78 620.079 L 549.213 566.929 L 531.496 655.512 L 566.929 620.079 L 531.496 708.661 L 566.929 673.228 L 531.496 761.811 L 566.929 726.378 L 531.496 832.677 L 566.929 797.244 L 531.496 903.543 L 566.929 868.11 L 531.496 974.409 L 513.78 1027.56 L 496.063 1045.28 L 478.346 1027.56 L 460.63 974.409 L 425.197 868.11 L 460.63 903.543 L 425.197 797.244 L 460.63 832.677 L 425.197 726.378 L 460.63 761.811 L 425.197 673.228 L 460.63 708.661 L 425.197 620.079 L 460.63 655.512 L 442.913 566.929 L 478.346 620.079 L 496.063 549.213 z " id="path853" sodipodi:nodetypes="ccccccccccccccccccccccccccccccc" style="font-size:12;fill:#006d00;fill-rule:evenodd;stroke:#ffffff;stroke-width:8.25;stroke-dasharray:none;" transform="translate(177.1655,-224.0517)"/>
        <path d="M 496.063 549.213 L 496.063 1045.28 " id="path854" sodipodi:nodetypes="cc" style="font-size:12;fill:none;fill-rule:evenodd;stroke:#000000;stroke-width:1pt;" transform="translate(177.1655,-224.0517)"/>
        <path d="M 425.197 868.11 L 496.063 974.409 L 566.929 868.11 " id="path855" sodipodi:nodetypes="ccc" style="font-size:12;fill:none;fill-rule:evenodd;stroke:#000000;stroke-width:1pt;" transform="translate(177.1655,-224.0517)"/>
        <path d="M 425.197 797.244 L 496.063 903.543 L 566.929 797.244 " id="path856" sodipodi:nodetypes="ccc" style="font-size:12;fill:none;fill-rule:evenodd;stroke:#000000;stroke-width:1pt;" transform="translate(177.1655,-224.0517)"/>
        <path d="M 425.197 726.378 L 496.063 832.677 L 566.929 726.378 " id="path857" sodipodi:nodetypes="ccc" style="font-size:12;fill:none;fill-rule:evenodd;stroke:#000000;stroke-width:1pt;" transform="translate(177.1655,-224.0517)"/>
        <path d="M 425.197 673.228 L 496.063 761.811 L 566.929 673.228 " id="path858" sodipodi:nodetypes="ccc" style="font-size:12;fill:none;fill-rule:evenodd;stroke:#000000;stroke-width:1pt;" transform="translate(177.1655,-224.0517)"/>
        <path d="M 425.197 620.079 L 496.063 708.661 L 566.929 620.079 " id="path859" sodipodi:nodetypes="ccc" style="font-size:12;fill:none;fill-rule:evenodd;stroke:#000000;stroke-width:1pt;" transform="translate(177.1655,-224.0517)"/>
        <path d="M 442.913 566.929 L 496.063 673.228 L 549.213 566.929 " id="path860" sodipodi:nodetypes="ccc" style="font-size:12;fill:none;fill-rule:evenodd;stroke:#000000;stroke-width:1pt;" transform="translate(177.1655,-224.0517)"/>
      </g>
      <g id="g738" transform="matrix(0.236516,-0.281856,0.294964,0.227618,354.5673,204.6540)">
        <path d="M 496.063 549.213 L 513.78 620.079 L 549.213 566.929 L 531.496 655.512 L 566.929 620.079 L 531.496 708.661 L 566.929 673.228 L 531.496 761.811 L 566.929 726.378 L 531.496 832.677 L 566.929 797.244 L 531.496 903.543 L 566.929 868.11 L 531.496 974.409 L 513.78 1027.56 L 496.063 1045.28 L 478.346 1027.56 L 460.63 974.409 L 425.197 868.11 L 460.63 903.543 L 425.197 797.244 L 460.63 832.677 L 425.197 726.378 L 460.63 761.811 L 425.197 673.228 L 460.63 708.661 L 425.197 620.079 L 460.63 655.512 L 442.913 566.929 L 478.346 620.079 L 496.063 549.213 z " id="path739" sodipodi:nodetypes="ccccccccccccccccccccccccccccccc" style="font-size:12;fill:#006d00;fill-rule:evenodd;stroke:#ffffff;stroke-width:8.25;stroke-dasharray:none;" transform="translate(177.1655,-224.0517)"/>
        <path d="M 496.063 549.213 L 496.063 1045.28 " id="path740" sodipodi:nodetypes="cc" style="font-size:12;fill:none;fill-rule:evenodd;stroke:#000000;stroke-width:1pt;" transform="translate(177.1655,-224.0517)"/>
        <path d="M 425.197 868.11 L 496.063 974.409 L 566.929 868.11 " id="path741" sodipodi:nodetypes="ccc" style="font-size:12;fill:none;fill-rule:evenodd;stroke:#000000;stroke-width:1pt;" transform="translate(177.1655,-224.0517)"/>
        <path d="M 425.197 797.244 L 496.063 903.543 L 566.929 797.244 " id="path742" sodipodi:nodetypes="ccc" style="font-size:12;fill:none;fill-rule:evenodd;stroke:#000000;stroke-width:1pt;" transform="translate(177.1655,-224.0517)"/>
        <path d="M 425.197 726.378 L 496.063 832.677 L 566.929 726.378 " id="path743" sodipodi:nodetypes="ccc" style="font-size:12;fill:none;fill-rule:evenodd;stroke:#000000;stroke-width:1pt;" transform="translate(177.1655,-224.0517)"/>
        <path d="M 425.197 673.228 L 496.063 761.811 L 566.929 673.228 " id="path744" sodipodi:nodetypes="ccc" style="font-size:12;fill:none;fill-rule:evenodd;stroke:#000000;stroke-width:1pt;" transform="translate(177.1655,-224.0517)"/>
        <path d="M 425.197 620.079 L 496.063 708.661 L 566.929 620.079 " id="path745" sodipodi:nodetypes="ccc" style="font-size:12;fill:none;fill-rule:evenodd;stroke:#000000;stroke-width:1pt;" transform="translate(177.1655,-224.0517)"/>
        <path d="M 442.913 566.929 L 496.063 673.228 L 549.213 566.929 " id="path746" sodipodi:nodetypes="ccc" style="font-size:12;fill:none;fill-rule:evenodd;stroke:#000000;stroke-width:1pt;" transform="translate(177.1655,-224.0517)"/>
      </g>
      <g id="g747" transform="matrix(0.151640,0.335243,-0.332899,0.167308,907.5388,-153.4696)">
        <path d="M 496.063 549.213 L 513.78 620.079 L 549.213 566.929 L 531.496 655.512 L 566.929 620.079 L 531.496 708.661 L 566.929 673.228 L 531.496 761.811 L 566.929 726.378 L 531.496 832.677 L 566.929 797.244 L 531.496 903.543 L 566.929 868.11 L 531.496 974.409 L 513.78 1027.56 L 496.063 1045.28 L 478.346 1027.56 L 460.63 974.409 L 425.197 868.11 L 460.63 903.543 L 425.197 797.244 L 460.63 832.677 L 425.197 726.378 L 460.63 761.811 L 425.197 673.228 L 460.63 708.661 L 425.197 620.079 L 460.63 655.512 L 442.913 566.929 L 478.346 620.079 L 496.063 549.213 z " id="path748" sodipodi:nodetypes="ccccccccccccccccccccccccccccccc" style="font-size:12;fill:#006d00;fill-rule:evenodd;stroke:#ffffff;stroke-width:8.25;stroke-dasharray:none;" transform="translate(177.1655,-224.0517)"/>
        <path d="M 496.063 549.213 L 496.063 1045.28 " id="path749" sodipodi:nodetypes="cc" style="font-size:12;fill:none;fill-rule:evenodd;stroke:#000000;stroke-width:1pt;" transform="translate(177.1655,-224.0517)"/>
        <path d="M 425.197 868.11 L 496.063 974.409 L 566.929 868.11 " id="path750" sodipodi:nodetypes="ccc" style="font-size:12;fill:none;fill-rule:evenodd;stroke:#000000;stroke-width:1pt;" transform="translate(177.1655,-224.0517)"/>
        <path d="M 425.197 797.244 L 496.063 903.543 L 566.929 797.244 " id="path751" sodipodi:nodetypes="ccc" style="font-size:12;fill:none;fill-rule:evenodd;stroke:#000000;stroke-width:1pt;" transform="translate(177.1655,-224.0517)"/>
        <path d="M 425.197 726.378 L 496.063 832.677 L 566.929 726.378 " id="path752" sodipodi:nodetypes="ccc" style="font-size:12;fill:none;fill-rule:evenodd;stroke:#000000;stroke-width:1pt;" transform="translate(177.1655,-224.0517)"/>
        <path d="M 425.197 673.228 L 496.063 761.811 L 566.929 673.228 " id="path753" sodipodi:nodetypes="ccc" style="font-size:12;fill:none;fill-rule:evenodd;stroke:#000000;stroke-width:1pt;" transform="translate(177.1655,-224.0517)"/>
        <path d="M 425.197 620.079 L 496.063 708.661 L 566.929 620.079 " id="path754" sodipodi:nodetypes="ccc" style="font-size:12;fill:none;fill-rule:evenodd;stroke:#000000;stroke-width:1pt;" transform="translate(177.1655,-224.0517)"/>
        <path d="M 442.913 566.929 L 496.063 673.228 L 549.213 566.929 " id="path755" sodipodi:nodetypes="ccc" style="font-size:12;fill:none;fill-rule:evenodd;stroke:#000000;stroke-width:1pt;" transform="translate(177.1655,-224.0517)"/>
      </g>
      <g id="g756" transform="matrix(-0.209517,0.302465,-0.314697,-0.199448,1141.363,167.5798)">
        <path d="M 496.063 549.213 L 513.78 620.079 L 549.213 566.929 L 531.496 655.512 L 566.929 620.079 L 531.496 708.661 L 566.929 673.228 L 531.496 761.811 L 566.929 726.378 L 531.496 832.677 L 566.929 797.244 L 531.496 903.543 L 566.929 868.11 L 531.496 974.409 L 513.78 1027.56 L 496.063 1045.28 L 478.346 1027.56 L 460.63 974.409 L 425.197 868.11 L 460.63 903.543 L 425.197 797.244 L 460.63 832.677 L 425.197 726.378 L 460.63 761.811 L 425.197 673.228 L 460.63 708.661 L 425.197 620.079 L 460.63 655.512 L 442.913 566.929 L 478.346 620.079 L 496.063 549.213 z " id="path757" sodipodi:nodetypes="ccccccccccccccccccccccccccccccc" style="font-size:12;fill:#006d00;fill-rule:evenodd;stroke:#ffffff;stroke-width:8.25;stroke-dasharray:none;" transform="translate(177.1655,-224.0517)"/>
        <path d="M 496.063 549.213 L 496.063 1045.28 " id="path758" sodipodi:nodetypes="cc" style="font-size:12;fill:none;fill-rule:evenodd;stroke:#000000;stroke-width:1pt;" transform="translate(177.1655,-224.0517)"/>
        <path d="M 425.197 868.11 L 496.063 974.409 L 566.929 868.11 " id="path759" sodipodi:nodetypes="ccc" style="font-size:12;fill:none;fill-rule:evenodd;stroke:#000000;stroke-width:1pt;" transform="translate(177.1655,-224.0517)"/>
        <path d="M 425.197 797.244 L 496.063 903.543 L 566.929 797.244 " id="path760" sodipodi:nodetypes="ccc" style="font-size:12;fill:none;fill-rule:evenodd;stroke:#000000;stroke-width:1pt;" transform="translate(177.1655,-224.0517)"/>
        <path d="M 425.197 726.378 L 496.063 832.677 L 566.929 726.378 " id="path761" sodipodi:nodetypes="ccc" style="font-size:12;fill:none;fill-rule:evenodd;stroke:#000000;stroke-width:1pt;" transform="translate(177.1655,-224.0517)"/>
        <path d="M 425.197 673.228 L 496.063 761.811 L 566.929 673.228 " id="path762" sodipodi:nodetypes="ccc" style="font-size:12;fill:none;fill-rule:evenodd;stroke:#000000;stroke-width:1pt;" transform="translate(177.1655,-224.0517)"/>
        <path d="M 425.197 620.079 L 496.063 708.661 L 566.929 620.079 " id="path763" sodipodi:nodetypes="ccc" style="font-size:12;fill:none;fill-rule:evenodd;stroke:#000000;stroke-width:1pt;" transform="translate(177.1655,-224.0517)"/>
        <path d="M 442.913 566.929 L 496.063 673.228 L 549.213 566.929 " id="path764" sodipodi:nodetypes="ccc" style="font-size:12;fill:none;fill-rule:evenodd;stroke:#000000;stroke-width:1pt;" transform="translate(177.1655,-224.0517)"/>
      </g>
      <g id="g765" transform="matrix(-0.207724,-0.258384,0.236176,-0.235153,689.9856,567.2772)">
        <path d="M 496.063 549.213 L 513.78 620.079 L 549.213 566.929 L 531.496 655.512 L 566.929 620.079 L 531.496 708.661 L 566.929 673.228 L 531.496 761.811 L 566.929 726.378 L 531.496 832.677 L 566.929 797.244 L 531.496 903.543 L 566.929 868.11 L 531.496 974.409 L 513.78 1027.56 L 496.063 1045.28 L 478.346 1027.56 L 460.63 974.409 L 425.197 868.11 L 460.63 903.543 L 425.197 797.244 L 460.63 832.677 L 425.197 726.378 L 460.63 761.811 L 425.197 673.228 L 460.63 708.661 L 425.197 620.079 L 460.63 655.512 L 442.913 566.929 L 478.346 620.079 L 496.063 549.213 z " id="path766" sodipodi:nodetypes="ccccccccccccccccccccccccccccccc" style="font-size:12;fill:#006d00;fill-rule:evenodd;stroke:#ffffff;stroke-width:8.25;stroke-dasharray:none;" transform="translate(177.1655,-224.0517)"/>
        <path d="M 496.063 549.213 L 496.063 1045.28 " id="path767" sodipodi:nodetypes="cc" style="font-size:12;fill:none;fill-rule:evenodd;stroke:#000000;stroke-width:1pt;" transform="translate(177.1655,-224.0517)"/>
        <path d="M 425.197 868.11 L 496.063 974.409 L 566.929 868.11 " id="path768" sodipodi:nodetypes="ccc" style="font-size:12;fill:none;fill-rule:evenodd;stroke:#000000;stroke-width:1pt;" transform="translate(177.1655,-224.0517)"/>
        <path d="M 425.197 797.244 L 496.063 903.543 L 566.929 797.244 " id="path769" sodipodi:nodetypes="ccc" style="font-size:12;fill:none;fill-rule:evenodd;stroke:#000000;stroke-width:1pt;" transform="translate(177.1655,-224.0517)"/>
        <path d="M 425.197 726.378 L 496.063 832.677 L 566.929 726.378 " id="path770" sodipodi:nodetypes="ccc" style="font-size:12;fill:none;fill-rule:evenodd;stroke:#000000;stroke-width:1pt;" transform="translate(177.1655,-224.0517)"/>
        <path d="M 425.197 673.228 L 496.063 761.811 L 566.929 673.228 " id="path771" sodipodi:nodetypes="ccc" style="font-size:12;fill:none;fill-rule:evenodd;stroke:#000000;stroke-width:1pt;" transform="translate(177.1655,-224.0517)"/>
        <path d="M 425.197 620.079 L 496.063 708.661 L 566.929 620.079 " id="path772" sodipodi:nodetypes="ccc" style="font-size:12;fill:none;fill-rule:evenodd;stroke:#000000;stroke-width:1pt;" transform="translate(177.1655,-224.0517)"/>
        <path d="M 442.913 566.929 L 496.063 673.228 L 549.213 566.929 " id="path773" sodipodi:nodetypes="ccc" style="font-size:12;fill:none;fill-rule:evenodd;stroke:#000000;stroke-width:1pt;" transform="translate(177.1655,-224.0517)"/>
      </g>
      <g id="g791" transform="matrix(-0.362184,-9.947167e-2,-0.209809,0.317733,1222.415,-24.22945)">
        <path d="M 460.63 549.213 L 489.273 620.079 L 531.496 566.929 L 521.312 655.512 L 549.212 620.079 L 531.496 708.661 L 556.745 673.228 L 531.496 761.811 L 566.929 726.378 L 531.496 832.677 L 566.929 797.244 L 531.496 903.543 L 566.929 868.11 L 531.496 974.409 L 513.78 1027.56 L 496.063 1045.28 L 478.346 1027.56 L 460.63 974.409 L 425.197 868.11 L 460.63 903.543 L 425.197 797.244 L 460.63 832.677 L 425.197 726.378 L 460.63 761.811 L 415.013 673.228 L 460.63 708.661 L 407.48 620.079 L 450.446 655.512 L 425.196 566.929 L 460.629 620.079 L 460.63 549.213 z " id="path775" sodipodi:nodetypes="ccccccccccccccccccccccccccccccc" style="font-size:12;fill:#006d00;fill-rule:evenodd;stroke:#ffffff;stroke-width:8.25;" transform="translate(283.4647,-124.0162)"/>
        <path d="M 467.208 584.646 L 496.063 708.662 L 496.063 1045.28 " id="path776" sodipodi:nodetypes="ccc" style="font-size:12;fill:none;fill-rule:evenodd;stroke:#000000;stroke-width:1pt;" transform="translate(283.4647,-124.0162)"/>
        <path d="M 436.23 885.827 L 496.063 974.409 L 556.745 885.827 " id="path777" sodipodi:nodetypes="ccc" style="font-size:12;fill:none;fill-rule:evenodd;stroke:#000000;stroke-width:1pt;" transform="translate(283.4647,-124.0162)"/>
        <path d="M 434.533 814.961 L 496.063 903.543 L 556.745 814.961 " id="path778" sodipodi:nodetypes="ccc" style="font-size:12;fill:none;fill-rule:evenodd;stroke:#000000;stroke-width:1pt;" transform="translate(283.4647,-124.0162)"/>
        <path d="M 435.381 744.095 L 496.063 832.677 L 555.896 744.095 " id="path779" sodipodi:nodetypes="ccc" style="font-size:12;fill:none;fill-rule:evenodd;stroke:#000000;stroke-width:1pt;" transform="translate(283.4647,-124.0162)"/>
        <path d="M 432.835 690.945 L 496.063 761.811 L 549.212 690.945 " id="path780" sodipodi:nodetypes="ccc" style="font-size:12;fill:none;fill-rule:evenodd;stroke:#000000;stroke-width:1pt;" transform="translate(283.4647,-124.0162)"/>
        <path d="M 425.197 637.796 L 496.063 708.661 L 541.469 637.796 " id="path781" sodipodi:nodetypes="ccc" style="font-size:12;fill:none;fill-rule:evenodd;stroke:#000000;stroke-width:1pt;" transform="translate(283.4647,-124.0162)"/>
        <path d="M 436.124 593.238 L 489.274 680.124 L 524.601 584.646 " id="path782" sodipodi:nodetypes="ccc" style="font-size:12;fill:none;fill-rule:evenodd;stroke:#000000;stroke-width:1pt;" transform="translate(283.4647,-124.0162)"/>
      </g>
      <g id="g800" transform="matrix(0.360878,0.104110,1.321056e-2,0.380525,452.7614,-239.2657)">
        <path d="M 460.63 549.213 L 489.273 620.079 L 531.496 566.929 L 521.312 655.512 L 549.212 620.079 L 531.496 708.661 L 556.745 673.228 L 531.496 761.811 L 566.929 726.378 L 531.496 832.677 L 566.929 797.244 L 531.496 903.543 L 566.929 868.11 L 531.496 974.409 L 513.78 1027.56 L 496.063 1045.28 L 478.346 1027.56 L 460.63 974.409 L 425.197 868.11 L 460.63 903.543 L 425.197 797.244 L 460.63 832.677 L 425.197 726.378 L 460.63 761.811 L 415.013 673.228 L 460.63 708.661 L 407.48 620.079 L 450.446 655.512 L 425.196 566.929 L 460.629 620.079 L 460.63 549.213 z " id="path801" sodipodi:nodetypes="ccccccccccccccccccccccccccccccc" style="font-size:12;fill:#006d00;fill-rule:evenodd;stroke:#ffffff;stroke-width:8.25;" transform="translate(283.4647,-124.0162)"/>
        <path d="M 467.208 584.646 L 496.063 708.662 L 496.063 1045.28 " id="path802" sodipodi:nodetypes="ccc" style="font-size:12;fill:none;fill-rule:evenodd;stroke:#000000;stroke-width:1pt;" transform="translate(283.4647,-124.0162)"/>
        <path d="M 436.23 885.827 L 496.063 974.409 L 556.745 885.827 " id="path803" sodipodi:nodetypes="ccc" style="font-size:12;fill:none;fill-rule:evenodd;stroke:#000000;stroke-width:1pt;" transform="translate(283.4647,-124.0162)"/>
        <path d="M 434.533 814.961 L 496.063 903.543 L 556.745 814.961 " id="path804" sodipodi:nodetypes="ccc" style="font-size:12;fill:none;fill-rule:evenodd;stroke:#000000;stroke-width:1pt;" transform="translate(283.4647,-124.0162)"/>
        <path d="M 435.381 744.095 L 496.063 832.677 L 555.896 744.095 " id="path805" sodipodi:nodetypes="ccc" style="font-size:12;fill:none;fill-rule:evenodd;stroke:#000000;stroke-width:1pt;" transform="translate(283.4647,-124.0162)"/>
        <path d="M 432.835 690.945 L 496.063 761.811 L 549.212 690.945 " id="path806" sodipodi:nodetypes="ccc" style="font-size:12;fill:none;fill-rule:evenodd;stroke:#000000;stroke-width:1pt;" transform="translate(283.4647,-124.0162)"/>
        <path d="M 425.197 637.796 L 496.063 708.661 L 541.469 637.796 " id="path807" sodipodi:nodetypes="ccc" style="font-size:12;fill:none;fill-rule:evenodd;stroke:#000000;stroke-width:1pt;" transform="translate(283.4647,-124.0162)"/>
        <path d="M 436.124 593.238 L 489.274 680.124 L 524.601 584.646 " id="path808" sodipodi:nodetypes="ccc" style="font-size:12;fill:none;fill-rule:evenodd;stroke:#000000;stroke-width:1pt;" transform="translate(283.4647,-124.0162)"/>
      </g>
      <g id="g843" transform="matrix(4.613187e-2,-0.364743,0.326017,6.479648e-2,379.5799,479.5432)">
        <path d="M 354.331 531.496 L 442.914 620.079 L 460.63 566.93 L 460.63 655.512 L 496.063 620.079 L 478.347 708.662 L 513.779 673.228 L 496.063 761.812 L 531.496 726.379 L 513.78 832.678 L 549.213 797.245 L 513.78 903.544 L 549.213 868.111 L 531.496 974.409 L 513.78 1027.56 L 496.063 1045.28 L 478.346 1027.56 L 460.63 974.409 L 407.48 892.115 L 442.914 903.544 L 407.481 797.245 L 442.914 832.678 L 389.764 726.379 L 425.197 761.812 L 372.047 673.228 L 425.197 708.662 L 354.331 620.079 L 407.48 655.512 L 336.614 584.646 L 407.48 620.079 L 354.331 531.496 z " id="path810" sodipodi:nodetypes="ccccccccccccccccccccccccccccccc" style="font-size:12;fill:#006d00;fill-rule:evenodd;stroke:#ffffff;stroke-width:8.25;" transform="translate(442.9136,-42.96583)"/>
        <path d="M 378.962 560.015 L 442.914 655.512 L 460.63 708.662 L 469.489 753.867 L 478.347 832.678 L 487.662 903.544 L 496.063 1045.28 " id="path811" sodipodi:nodetypes="ccccccc" style="font-size:12;fill:none;fill-rule:evenodd;stroke:#000000;stroke-width:1pt;" transform="translate(442.9136,-42.96583)"/>
        <path d="M 425.197 903.544 L 488.862 974.41 L 539.611 885.827 " id="path812" sodipodi:nodetypes="ccc" style="font-size:12;fill:none;fill-rule:evenodd;stroke:#000000;stroke-width:1pt;" transform="translate(442.9136,-42.96583)"/>
        <path d="M 417.082 814.961 L 487.661 903.544 L 538.411 814.961 " id="path813" sodipodi:nodetypes="ccc" style="font-size:12;fill:none;fill-rule:evenodd;stroke:#000000;stroke-width:1pt;" transform="translate(442.9136,-42.96583)"/>
        <path d="M 407.48 752.443 L 478.347 832.678 L 524.295 744.095 " id="path814" sodipodi:nodetypes="ccc" style="font-size:12;fill:none;fill-rule:evenodd;stroke:#000000;stroke-width:1pt;" transform="translate(442.9136,-42.96583)"/>
        <path d="M 372.047 637.796 L 460.63 708.662 L 486.461 637.796 " id="path815" sodipodi:nodetypes="ccc" style="font-size:12;fill:none;fill-rule:evenodd;stroke:#000000;stroke-width:1pt;" transform="translate(442.9136,-42.96583)"/>
        <path d="M 360.618 602.363 L 442.914 655.512 L 453.429 602.363 " id="path816" sodipodi:nodetypes="ccc" style="font-size:12;fill:none;fill-rule:evenodd;stroke:#000000;stroke-width:1pt;" transform="translate(442.9136,-42.96583)"/>
        <path d="M 389.764 690.945 L 470.859 761.811 L 504.805 690.945 " id="path817" sodipodi:nodetypes="ccc" style="font-size:12;fill:none;fill-rule:evenodd;stroke:#000000;stroke-width:1pt;" transform="translate(442.9136,-42.96583)"/>
      </g>
    </g>
  </g>
  <g id="g1060" transform="matrix(0.132337,0.000000,0.000000,0.121814,628.1744,217.1517)">
    <path d="M 541.459 1173.31 L 539.761 944.167 L 478.657 837.233 C 463.38 784.615 470.903 759.154 495.63 757.457 C 520.358 755.759 544.854 771.036 580.498 772.733 C 616.143 774.43 609.354 713.325 661.972 715.023 C 714.59 716.72 806.248 747.273 884.327 752.365 C 962.405 757.457 1003.14 725.207 1093.1 721.812 C 1183.07 718.417 1206.83 764.247 1211.92 764.247 C 1217.01 764.247 1242.47 745.575 1267.93 742.181 C 1293.39 738.786 1301.88 752.365 1301.88 752.365 C 1301.88 752.365 1300.18 810.075 1288.3 844.022 C 1276.42 877.97 1233.98 933.983 1232.29 933.983 C 1230.59 933.983 1217.01 1183.5 1217.01 1185.19 C 1217.01 1186.89 541.459 1178.4 541.459 1173.31 z " id="path1054" sodipodi:nodetypes="ccccccccccccccc" style="fill:#cc0000;fill-rule:evenodd;stroke:black;stroke-opacity:1;stroke-width:1pt;stroke-linejoin:miter;stroke-linecap:butt;fill-opacity:1;"/>
    <g id="g1016" transform="matrix(-1.000000,0.000000,0.000000,1.000000,1771.654,354.3306)">
      <path d="M 531.496 584.646 C 531.496 584.646 463.514 532.549 461.683 407.48 C 460.63 335.551 496.063 283.465 584.646 283.465 C 708.661 283.465 885.827 336.614 885.827 336.614 L 885.827 354.331 C 885.827 354.331 744.095 301.181 584.646 301.181 C 513.78 301.181 478.346 353.268 478.346 406.417 C 478.346 495 549.213 584.646 549.213 584.646 L 549.213 726.378 L 531.496 726.378 L 531.496 584.646 z " id="path1017" sodipodi:nodetypes="cssccsscccc" style="fill:#fff100;fill-rule:evenodd;stroke:black;stroke-opacity:1;stroke-width:1pt;stroke-linejoin:miter;stroke-linecap:butt;fill-opacity:1;"/>
      <path d="M 478.346436 549.212585 A 17.716522 17.716553 0 1 0 442.913391,549.212585 A 17.7165 17.7166 0 1 0 478.346 549.213 L 460.629913 549.212585 z" id="path1018" sodipodi:cx="460.629913" sodipodi:cy="549.212585" sodipodi:rx="17.716522" sodipodi:ry="17.716553" sodipodi:type="arc" style="fill-rule:evenodd;stroke:#000000;fill:#ffffff;fill-opacity:1;stroke-opacity:1;stroke-width:1pt;stroke-linejoin:miter;stroke-linecap:butt;" transform="translate(16.01921,-1.697365)"/>
      <path d="M 478.346436 549.212585 A 17.716522 17.716553 0 1 0 442.913391,549.212585 A 17.7165 17.7166 0 1 0 478.346 549.213 L 460.629913 549.212585 z" id="path1019" sodipodi:cx="460.629913" sodipodi:cy="549.212585" sodipodi:rx="17.716522" sodipodi:ry="17.716553" sodipodi:type="arc" style="fill-rule:evenodd;stroke:#000000;fill:#ffffff;fill-opacity:1;stroke-opacity:1;stroke-width:1pt;stroke-linejoin:miter;stroke-linecap:butt;" transform="translate(-1.697350,-42.22253)"/>
      <path d="M 478.346436 549.212585 A 17.716522 17.716553 0 1 0 442.913391,549.212585 A 17.7165 17.7166 0 1 0 478.346 549.213 L 460.629913 549.212585 z" id="path1020" sodipodi:cx="460.629913" sodipodi:cy="549.212585" sodipodi:rx="17.716522" sodipodi:ry="17.716553" sodipodi:type="arc" style="fill-rule:evenodd;stroke:#000000;fill:#ffffff;fill-opacity:1;stroke-opacity:1;stroke-width:1pt;stroke-linejoin:miter;stroke-linecap:butt;" transform="translate(-10.92705,-83.49062)"/>
      <path d="M 478.346436 549.212585 A 17.716522 17.716553 0 1 0 442.913391,549.212585 A 17.7165 17.7166 0 1 0 478.346 549.213 L 460.629913 549.212585 z" id="path1021" sodipodi:cx="460.629913" sodipodi:cy="549.212585" sodipodi:rx="17.716522" sodipodi:ry="17.716553" sodipodi:type="arc" style="fill-rule:evenodd;stroke:#000000;fill:#ffffff;fill-opacity:1;stroke-opacity:1;stroke-width:1pt;stroke-linejoin:miter;stroke-linecap:butt;" transform="translate(-17.71652,-127.6220)"/>
      <path d="M 478.346436 549.212585 A 17.716522 17.716553 0 1 0 442.913391,549.212585 A 17.7165 17.7166 0 1 0 478.346 549.213 L 460.629913 549.212585 z" id="path1022" sodipodi:cx="460.629913" sodipodi:cy="549.212585" sodipodi:rx="17.716522" sodipodi:ry="17.716553" sodipodi:type="arc" style="fill-rule:evenodd;stroke:#000000;fill:#ffffff;fill-opacity:1;stroke-opacity:1;stroke-width:1pt;stroke-linejoin:miter;stroke-linecap:butt;" transform="translate(-16.01917,-175.4680)"/>
      <path d="M 478.346436 549.212585 A 17.716522 17.716553 0 1 0 442.913391,549.212585 A 17.7165 17.7166 0 1 0 478.346 549.213 L 460.629913 549.212585 z" id="path1023" sodipodi:cx="460.629913" sodipodi:cy="549.212585" sodipodi:rx="17.716522" sodipodi:ry="17.716553" sodipodi:type="arc" style="fill-rule:evenodd;stroke:#000000;fill:#ffffff;fill-opacity:1;stroke-opacity:1;stroke-width:1pt;stroke-linejoin:miter;stroke-linecap:butt;" transform="translate(41.47964,33.94724)"/>
      <path d="M 478.346436 549.212585 A 17.716522 17.716553 0 1 0 442.913391,549.212585 A 17.7165 17.7166 0 1 0 478.346 549.213 L 460.629913 549.212585 z" id="path1024" sodipodi:cx="460.629913" sodipodi:cy="549.212585" sodipodi:rx="17.716522" sodipodi:ry="17.716553" sodipodi:type="arc" style="fill-rule:evenodd;stroke:#000000;fill:#ffffff;fill-opacity:1;stroke-opacity:1;stroke-width:1pt;stroke-linejoin:miter;stroke-linecap:butt;" transform="translate(-0.954404,-220.6571)"/>
      <path d="M 478.346436 549.212585 A 17.716522 17.716553 0 1 0 442.913391,549.212585 A 17.7165 17.7166 0 1 0 478.346 549.213 L 460.629913 549.212585 z" id="path1025" sodipodi:cx="460.629913" sodipodi:cy="549.212585" sodipodi:rx="17.716522" sodipodi:ry="17.716553" sodipodi:type="arc" style="fill-rule:evenodd;stroke:#000000;fill:#ffffff;fill-opacity:1;stroke-opacity:1;stroke-width:1pt;stroke-linejoin:miter;stroke-linecap:butt;" transform="translate(31.29547,-256.3018)"/>
      <path d="M 478.346436 549.212585 A 17.716522 17.716553 0 1 0 442.913391,549.212585 A 17.7165 17.7166 0 1 0 478.346 549.213 L 460.629913 549.212585 z" id="path1026" sodipodi:cx="460.629913" sodipodi:cy="549.212585" sodipodi:rx="17.716522" sodipodi:ry="17.716553" sodipodi:type="arc" style="fill-rule:evenodd;stroke:#000000;fill:#ffffff;fill-opacity:1;stroke-opacity:1;stroke-width:1pt;stroke-linejoin:miter;stroke-linecap:butt;" transform="translate(75.42686,-280.0649)"/>
      <path d="M 478.346436 549.212585 A 17.716522 17.716553 0 1 0 442.913391,549.212585 A 17.7165 17.7166 0 1 0 478.346 549.213 L 460.629913 549.212585 z" id="path1027" sodipodi:cx="460.629913" sodipodi:cy="549.212585" sodipodi:rx="17.716522" sodipodi:ry="17.716553" sodipodi:type="arc" style="fill-rule:evenodd;stroke:#000000;fill:#ffffff;fill-opacity:1;stroke-opacity:1;stroke-width:1pt;stroke-linejoin:miter;stroke-linecap:butt;" transform="translate(119.5583,-283.4597)"/>
      <path d="M 478.346436 549.212585 A 17.716522 17.716553 0 1 0 442.913391,549.212585 A 17.7165 17.7166 0 1 0 478.346 549.213 L 460.629913 549.212585 z" id="path1028" sodipodi:cx="460.629913" sodipodi:cy="549.212585" sodipodi:rx="17.716522" sodipodi:ry="17.716553" sodipodi:type="arc" style="fill-rule:evenodd;stroke:#000000;fill:#ffffff;fill-opacity:1;stroke-opacity:1;stroke-width:1pt;stroke-linejoin:miter;stroke-linecap:butt;" transform="translate(167.0844,-281.7623)"/>
      <path d="M 478.346436 549.212585 A 17.716522 17.716553 0 1 0 442.913391,549.212585 A 17.7165 17.7166 0 1 0 478.346 549.213 L 460.629913 549.212585 z" id="path1029" sodipodi:cx="460.629913" sodipodi:cy="549.212585" sodipodi:rx="17.716522" sodipodi:ry="17.716553" sodipodi:type="arc" style="fill-rule:evenodd;stroke:#000000;fill:#ffffff;fill-opacity:1;stroke-opacity:1;stroke-width:1pt;stroke-linejoin:miter;stroke-linecap:butt;" transform="translate(214.6105,-274.9728)"/>
      <path d="M 478.346436 549.212585 A 17.716522 17.716553 0 1 0 442.913391,549.212585 A 17.7165 17.7166 0 1 0 478.346 549.213 L 460.629913 549.212585 z" id="path1030" sodipodi:cx="460.629913" sodipodi:cy="549.212585" sodipodi:rx="17.716522" sodipodi:ry="17.716553" sodipodi:type="arc" style="fill-rule:evenodd;stroke:#000000;fill:#ffffff;fill-opacity:1;stroke-opacity:1;stroke-width:1pt;stroke-linejoin:miter;stroke-linecap:butt;" transform="translate(262.1367,-268.1833)"/>
      <path d="M 478.346436 549.212585 A 17.716522 17.716553 0 1 0 442.913391,549.212585 A 17.7165 17.7166 0 1 0 478.346 549.213 L 460.629913 549.212585 z" id="path1031" sodipodi:cx="460.629913" sodipodi:cy="549.212585" sodipodi:rx="17.716522" sodipodi:ry="17.716553" sodipodi:type="arc" style="fill-rule:evenodd;stroke:#000000;fill:#ffffff;fill-opacity:1;stroke-opacity:1;stroke-width:1pt;stroke-linejoin:miter;stroke-linecap:butt;" transform="translate(313.0576,-259.6964)"/>
      <path d="M 478.346436 549.212585 A 17.716522 17.716553 0 1 0 442.913391,549.212585 A 17.7165 17.7166 0 1 0 478.346 549.213 L 460.629913 549.212585 z" id="path1032" sodipodi:cx="460.629913" sodipodi:cy="549.212585" sodipodi:rx="17.716522" sodipodi:ry="17.716553" sodipodi:type="arc" style="fill-rule:evenodd;stroke:#000000;fill:#ffffff;fill-opacity:1;stroke-opacity:1;stroke-width:1pt;stroke-linejoin:miter;stroke-linecap:butt;" transform="translate(357.1890,-247.8149)"/>
    </g>
    <path d="M 478.346436 549.212585 A 17.716522 17.716553 0 1 0 442.913391,549.212585 A 17.7165 17.7166 0 1 0 478.346 549.213 L 460.629913 549.212585 z" id="path981" sodipodi:cx="460.629913" sodipodi:cy="549.212585" sodipodi:rx="17.716522" sodipodi:ry="17.716553" sodipodi:type="arc" style="font-size:12;fill:#ffffff;fill-rule:evenodd;stroke:#000000;stroke-width:1pt;" transform="translate(16.01875,352.6332)"/>
    <path d="M 478.346436 549.212585 A 17.716522 17.716553 0 1 0 442.913391,549.212585 A 17.7165 17.7166 0 1 0 478.346 549.213 L 460.629913 549.212585 z" id="path982" sodipodi:cx="460.629913" sodipodi:cy="549.212585" sodipodi:rx="17.716522" sodipodi:ry="17.716553" sodipodi:type="arc" style="font-size:12;fill:#ffffff;fill-rule:evenodd;stroke:#000000;stroke-width:1pt;" transform="translate(-1.697808,312.1081)"/>
    <path d="M 478.346436 549.212585 A 17.716522 17.716553 0 1 0 442.913391,549.212585 A 17.7165 17.7166 0 1 0 478.346 549.213 L 460.629913 549.212585 z" id="path983" sodipodi:cx="460.629913" sodipodi:cy="549.212585" sodipodi:rx="17.716522" sodipodi:ry="17.716553" sodipodi:type="arc" style="font-size:12;fill:#ffffff;fill-rule:evenodd;stroke:#000000;stroke-width:1pt;" transform="translate(-10.92751,270.8400)"/>
    <path d="M 478.346436 549.212585 A 17.716522 17.716553 0 1 0 442.913391,549.212585 A 17.7165 17.7166 0 1 0 478.346 549.213 L 460.629913 549.212585 z" id="path984" sodipodi:cx="460.629913" sodipodi:cy="549.212585" sodipodi:rx="17.716522" sodipodi:ry="17.716553" sodipodi:type="arc" style="font-size:12;fill:#ffffff;fill-rule:evenodd;stroke:#000000;stroke-width:1pt;" transform="translate(-17.71698,226.7086)"/>
    <path d="M 478.346436 549.212585 A 17.716522 17.716553 0 1 0 442.913391,549.212585 A 17.7165 17.7166 0 1 0 478.346 549.213 L 460.629913 549.212585 z" id="path985" sodipodi:cx="460.629913" sodipodi:cy="549.212585" sodipodi:rx="17.716522" sodipodi:ry="17.716553" sodipodi:type="arc" style="font-size:12;fill:#ffffff;fill-rule:evenodd;stroke:#000000;stroke-width:1pt;" transform="translate(-16.01963,178.8626)"/>
    <path d="M 478.346436 549.212585 A 17.716522 17.716553 0 1 0 442.913391,549.212585 A 17.7165 17.7166 0 1 0 478.346 549.213 L 460.629913 549.212585 z" id="path987" sodipodi:cx="460.629913" sodipodi:cy="549.212585" sodipodi:rx="17.716522" sodipodi:ry="17.716553" sodipodi:type="arc" style="font-size:12;fill:#ffffff;fill-rule:evenodd;stroke:#000000;stroke-width:1pt;" transform="translate(-0.954862,133.6735)"/>
    <path d="M 478.346436 549.212585 A 17.716522 17.716553 0 1 0 442.913391,549.212585 A 17.7165 17.7166 0 1 0 478.346 549.213 L 460.629913 549.212585 z" id="path988" sodipodi:cx="460.629913" sodipodi:cy="549.212585" sodipodi:rx="17.716522" sodipodi:ry="17.716553" sodipodi:type="arc" style="font-size:12;fill:#ffffff;fill-rule:evenodd;stroke:#000000;stroke-width:1pt;" transform="translate(31.29501,98.02881)"/>
    <path d="M 478.346436 549.212585 A 17.716522 17.716553 0 1 0 442.913391,549.212585 A 17.7165 17.7166 0 1 0 478.346 549.213 L 460.629913 549.212585 z" id="path989" sodipodi:cx="460.629913" sodipodi:cy="549.212585" sodipodi:rx="17.716522" sodipodi:ry="17.716553" sodipodi:type="arc" style="font-size:12;fill:#ffffff;fill-rule:evenodd;stroke:#000000;stroke-width:1pt;" transform="translate(75.42640,74.26569)"/>
    <path d="M 478.346436 549.212585 A 17.716522 17.716553 0 1 0 442.913391,549.212585 A 17.7165 17.7166 0 1 0 478.346 549.213 L 460.629913 549.212585 z" id="path990" sodipodi:cx="460.629913" sodipodi:cy="549.212585" sodipodi:rx="17.716522" sodipodi:ry="17.716553" sodipodi:type="arc" style="font-size:12;fill:#ffffff;fill-rule:evenodd;stroke:#000000;stroke-width:1pt;" transform="translate(119.5578,70.87091)"/>
    <path d="M 478.346436 549.212585 A 17.716522 17.716553 0 1 0 442.913391,549.212585 A 17.7165 17.7166 0 1 0 478.346 549.213 L 460.629913 549.212585 z" id="path991" sodipodi:cx="460.629913" sodipodi:cy="549.212585" sodipodi:rx="17.716522" sodipodi:ry="17.716553" sodipodi:type="arc" style="font-size:12;fill:#ffffff;fill-rule:evenodd;stroke:#000000;stroke-width:1pt;" transform="translate(167.0839,72.56830)"/>
    <path d="M 478.346436 549.212585 A 17.716522 17.716553 0 1 0 442.913391,549.212585 A 17.7165 17.7166 0 1 0 478.346 549.213 L 460.629913 549.212585 z" id="path992" sodipodi:cx="460.629913" sodipodi:cy="549.212585" sodipodi:rx="17.716522" sodipodi:ry="17.716553" sodipodi:type="arc" style="font-size:12;fill:#ffffff;fill-rule:evenodd;stroke:#000000;stroke-width:1pt;" transform="translate(214.6100,79.35779)"/>
    <path d="M 478.346436 549.212585 A 17.716522 17.716553 0 1 0 442.913391,549.212585 A 17.7165 17.7166 0 1 0 478.346 549.213 L 460.629913 549.212585 z" id="path993" sodipodi:cx="460.629913" sodipodi:cy="549.212585" sodipodi:rx="17.716522" sodipodi:ry="17.716553" sodipodi:type="arc" style="font-size:12;fill:#ffffff;fill-rule:evenodd;stroke:#000000;stroke-width:1pt;" transform="translate(262.1362,86.14731)"/>
    <path d="M 478.346436 549.212585 A 17.716522 17.716553 0 1 0 442.913391,549.212585 A 17.7165 17.7166 0 1 0 478.346 549.213 L 460.629913 549.212585 z" id="path994" sodipodi:cx="460.629913" sodipodi:cy="549.212585" sodipodi:rx="17.716522" sodipodi:ry="17.716553" sodipodi:type="arc" style="font-size:12;fill:#ffffff;fill-rule:evenodd;stroke:#000000;stroke-width:1pt;" transform="translate(313.0571,94.63419)"/>
    <path d="M 478.346436 549.212585 A 17.716522 17.716553 0 1 0 442.913391,549.212585 A 17.7165 17.7166 0 1 0 478.346 549.213 L 460.629913 549.212585 z" id="path995" sodipodi:cx="460.629913" sodipodi:cy="549.212585" sodipodi:rx="17.716522" sodipodi:ry="17.716553" sodipodi:type="arc" style="font-size:12;fill:#ffffff;fill-rule:evenodd;stroke:#000000;stroke-width:1pt;" transform="translate(357.1885,106.5157)"/>
    <path d="M 478.346436 549.212585 A 17.716522 17.716553 0 1 0 442.913391,549.212585 A 17.7165 17.7166 0 1 0 478.346 549.213 L 460.629913 549.212585 z" id="path986" sodipodi:cx="460.629913" sodipodi:cy="549.212585" sodipodi:rx="17.716522" sodipodi:ry="17.716553" sodipodi:type="arc" style="font-size:12;fill:#ffffff;fill-rule:evenodd;stroke:#000000;stroke-width:1pt;" transform="translate(41.47918,388.2778)"/>
    <path d="M 531.496 584.646 C 531.496 584.646 463.514 532.549 461.683 407.48 C 460.63 335.551 496.063 283.465 584.646 283.465 C 708.661 283.465 885.827 336.614 885.827 336.614 L 885.827 354.331 C 885.827 354.331 744.095 301.181 584.646 301.181 C 513.78 301.181 478.346 353.268 478.346 406.417 C 478.346 495 549.213 584.646 549.213 584.646 L 549.213 726.378 L 531.496 726.378 L 531.496 584.646 z " id="path979" sodipodi:nodetypes="cssccsscccc" style="font-size:12;fill:#fff100;fill-rule:evenodd;stroke:#000000;stroke-width:1pt;" transform="translate(-4.577637e-4,354.3306)"/>
    <path d="M 1240.16 531.496 C 1240.16 531.496 1255.51 496.063 1311.02 496.063 C 1348.81 496.063 1381.89 531.496 1381.89 566.929 L 1381.89 637.795 L 1417.32 637.795 L 1417.32 566.929 C 1417.32 531.459 1452.76 496.063 1488.19 496.063 C 1541.34 496.063 1559.06 531.496 1559.06 531.496 C 1559.06 531.496 1559.06 425.197 1488.19 425.197 C 1435.04 425.197 1417.32 460.63 1417.32 460.63 C 1417.32 460.63 1435.04 407.48 1435.04 354.331 C 1435.04 301.181 1399.61 265.748 1399.61 265.748 C 1399.61 272.538 1364.17 301.181 1364.17 354.331 C 1364.17 407.48 1381.89 460.63 1381.89 460.63 C 1381.89 460.63 1364.17 425.197 1311.02 425.197 C 1240.16 425.197 1240.16 531.496 1240.16 531.496 z " id="path960" sodipodi:nodetypes="ccsccsccscscscsc" style="fill:#fff100;fill-rule:evenodd;stroke:black;stroke-opacity:1;stroke-width:2.99147;stroke-linejoin:miter;stroke-linecap:butt;fill-opacity:1;stroke-dasharray:none;" transform="matrix(0.333331,0.000000,0.000000,0.380953,242.1275,802.3058)"/>
    <path d="M 1240.16 531.496 C 1240.16 531.496 1255.51 496.063 1311.02 496.063 C 1348.81 496.063 1381.89 531.496 1381.89 566.929 L 1381.89 637.795 L 1417.32 637.795 L 1417.32 566.929 C 1417.32 531.459 1452.76 496.063 1488.19 496.063 C 1541.34 496.063 1559.06 531.496 1559.06 531.496 C 1559.06 531.496 1559.06 425.197 1488.19 425.197 C 1435.04 425.197 1417.32 460.63 1417.32 460.63 C 1417.32 460.63 1435.04 407.48 1435.04 354.331 C 1435.04 301.181 1399.61 265.748 1399.61 265.748 C 1399.61 272.538 1364.17 301.181 1364.17 354.331 C 1364.17 407.48 1381.89 460.63 1381.89 460.63 C 1381.89 460.63 1364.17 425.197 1311.02 425.197 C 1240.16 425.197 1240.16 531.496 1240.16 531.496 z " id="path959" sodipodi:nodetypes="ccsccsccscscscsc" style="fill:#fff100;fill-rule:evenodd;stroke:black;stroke-opacity:1;stroke-width:2.99147;stroke-linejoin:miter;stroke-linecap:butt;fill-opacity:1;stroke-dasharray:none;" transform="matrix(0.333331,0.000000,0.000000,0.380953,596.4582,802.3058)"/>
    <path d="M 531.496 832.677 L 531.496 673.228 C 531.496 673.228 566.929 726.378 620.079 726.378 C 663.568 726.378 708.661 655.512 708.661 655.512 C 708.661 655.512 750.176 708.661 797.244 708.661 C 839.265 708.661 885.76 640.089 885.76 640.089 C 885.76 640.089 928.967 708.661 974.409 708.661 C 1019.85 708.661 1062.99 655.512 1062.99 655.512 C 1062.99 655.512 1109.28 726.378 1169.29 726.378 C 1222.44 726.378 1240.16 673.228 1240.16 673.228 L 1240.16 832.677 L 531.496 832.677 z " id="path945" sodipodi:nodetypes="ccscscscsccc" style="fill:#fff100;fill-rule:evenodd;stroke:black;stroke-opacity:1;stroke-width:1pt;stroke-linejoin:miter;stroke-linecap:butt;fill-opacity:1;" transform="translate(-4.577637e-4,354.3306)"/>
    <path d="M 708.661 832.677 L 708.661 708.661 C 708.661 708.661 814.961 744.094 814.961 832.677 L 708.661 832.677 z " id="path952" sodipodi:nodetypes="cccc" style="fill:#fff100;fill-rule:evenodd;stroke:black;stroke-opacity:1;stroke-width:1pt;stroke-linejoin:miter;stroke-linecap:butt;fill-opacity:1;" transform="translate(-177.1657,354.3308)"/>
    <path d="M 708.661 832.677 L 708.661 708.661 C 708.661 708.661 814.961 744.094 814.961 832.677 L 708.661 832.677 z " id="path953" sodipodi:nodetypes="cccc" style="fill:#fff100;fill-rule:evenodd;stroke:black;stroke-opacity:1;stroke-width:1pt;stroke-linejoin:miter;stroke-linecap:butt;fill-opacity:1;" transform="matrix(-1.000000,0.000000,0.000000,1.000000,1948.818,354.3311)"/>
    <path d="M 602.362 832.677 C 602.362 744.094 708.728 688.078 708.728 688.078 C 708.728 688.078 814.961 744.094 814.961 832.677 C 814.961 832.677 602.362 832.677 602.362 832.677 z " id="path949" sodipodi:nodetypes="ccss" style="fill:#fff100;fill-rule:evenodd;stroke:black;stroke-opacity:1;stroke-width:1pt;stroke-linejoin:miter;stroke-linecap:butt;fill-opacity:1;" transform="translate(-4.577637e-4,354.3306)"/>
    <path d="M 602.362 832.677 C 602.362 744.094 708.728 688.078 708.728 688.078 C 708.728 688.078 814.961 744.094 814.961 832.677 C 814.961 832.677 602.362 832.677 602.362 832.677 z " id="path950" sodipodi:nodetypes="ccss" style="fill:#fff100;fill-rule:evenodd;stroke:black;stroke-opacity:1;stroke-width:1pt;stroke-linejoin:miter;stroke-linecap:butt;fill-opacity:1;" transform="translate(354.3301,354.3308)"/>
    <path d="M 584.646 847.527 C 584.646 758.944 708.728 688.078 708.728 688.078 C 708.728 688.078 832.677 758.944 832.677 847.527 C 832.677 847.527 584.646 847.527 584.646 847.527 z " id="path951" sodipodi:nodetypes="ccss" style="fill:#fff100;fill-rule:evenodd;stroke:black;stroke-opacity:1;stroke-width:1pt;stroke-linejoin:miter;stroke-linecap:butt;fill-opacity:1;" transform="translate(177.1650,339.4810)"/>
    <path d="M 1275.59 655.512 C 1240.16 637.796 1109.57 620.079 899.315 620.079 C 689.055 620.079 549.214 637.796 513.781 655.512 C 478.347 673.229 478.347 708.661 513.78 726.378 C 549.213 744.094 689.055 761.811 899.315 761.811 C 1109.57 761.811 1240.16 744.095 1275.59 726.378 C 1311.02 708.662 1311.02 673.229 1275.59 655.512 z " id="path939" sodipodi:nodetypes="ccsscss" style="font-size:12;fill:#ffffff;fill-rule:evenodd;stroke-width:1pt;stroke:#000000;stroke-opacity:1;fill-opacity:1;" transform="matrix(0.988765,0.000000,0.000000,1.000000,-3.385169,531.4957)"/>
    <path d="M 1294.67 703.351 C 1294.67 761.812 977.276 761.812 913.083 761.812 C 843.72 761.812 531.496 777.654 531.496 703.351 C 531.496 644.89 846.305 644.891 913.083 644.89 C 979.861 644.891 1294.67 656.773 1294.67 703.351 z " id="path941" sodipodi:nodetypes="ccccc" style="font-size:12;fill:#808080;fill-rule:evenodd;stroke-width:1pt;" transform="matrix(0.928571,0.000000,0.000000,0.606101,37.96421,831.5723)"/>
    <path d="M 566.929138 776.276917 A 17.716553 20.967163 0 1 0 531.496033,776.276917 A 17.7166 20.9672 0 1 0 566.929 776.277 L 549.212585 776.276917 z" id="path954" sodipodi:cx="549.212585" sodipodi:cy="776.276917" sodipodi:rx="17.716553" sodipodi:ry="20.967163" sodipodi:type="arc" style="fill-rule:evenodd;stroke:none;fill:#cc0000;fill-opacity:1;stroke-opacity:1;stroke-width:1pt;stroke-linejoin:miter;stroke-linecap:butt;" transform="translate(-4.577637e-4,354.3306)"/>
    <path d="M 566.929138 776.276917 A 17.716553 20.967163 0 1 0 531.496033,776.276917 A 17.7166 20.9672 0 1 0 566.929 776.277 L 549.212585 776.276917 z" id="path955" sodipodi:cx="549.212585" sodipodi:cy="776.276917" sodipodi:rx="17.716553" sodipodi:ry="20.967163" sodipodi:type="arc" style="fill-rule:evenodd;stroke:none;fill:#cc0000;fill-opacity:1;stroke-opacity:1;stroke-width:1pt;stroke-linejoin:miter;stroke-linecap:butt;" transform="translate(673.2278,354.3306)"/>
    <path d="M 566.929138 776.276917 A 17.716553 20.967163 0 1 0 531.496033,776.276917 A 17.7166 20.9672 0 1 0 566.929 776.277 L 549.212585 776.276917 z" id="path956" sodipodi:cx="549.212585" sodipodi:cy="776.276917" sodipodi:rx="17.716553" sodipodi:ry="20.967163" sodipodi:type="arc" style="fill-rule:evenodd;stroke:none;fill:#000000;fill-opacity:1;stroke-opacity:1;stroke-width:1pt;stroke-linejoin:miter;stroke-linecap:butt;" transform="matrix(2.000002,0.000000,0.000000,1.000000,-212.6001,343.1154)"/>
    <path d="M 566.929138 776.276917 A 17.716553 20.967163 0 1 0 531.496033,776.276917 A 17.7166 20.9672 0 1 0 566.929 776.277 L 549.212585 776.276917 z" id="path957" sodipodi:cx="549.212585" sodipodi:cy="776.276917" sodipodi:rx="17.716553" sodipodi:ry="20.967163" sodipodi:type="arc" style="fill-rule:evenodd;stroke:none;fill:#006300;fill-opacity:1;stroke-opacity:1;stroke-width:1pt;stroke-linejoin:miter;stroke-linecap:butt;" transform="matrix(1.500003,0.000000,0.000000,1.000000,240.8284,343.1154)"/>
    <path d="M 566.929138 776.276917 A 17.716553 20.967163 0 1 0 531.496033,776.276917 A 17.7166 20.9672 0 1 0 566.929 776.277 L 549.212585 776.276917 z" id="path958" sodipodi:cx="549.212585" sodipodi:cy="776.276917" sodipodi:rx="17.716553" sodipodi:ry="20.967163" sodipodi:type="arc" style="fill-rule:evenodd;stroke:none;fill:#006300;fill-opacity:1;stroke-opacity:1;stroke-width:1pt;stroke-linejoin:miter;stroke-linecap:butt;" transform="matrix(1.500003,0.000000,0.000000,1.000000,-124.0178,343.1154)"/>
    <path d="M 1257.87 496.063 C 1257.87 496.063 1293.31 442.913 1328.74 442.913 L 1364.17 442.913 L 1364.17 478.346 C 1364.17 531.496 1311.02 549.213 1311.02 549.213 L 1452.76 549.213 C 1452.76 549.213 1399.61 531.496 1399.61 478.346 L 1399.61 442.913 L 1435.04 442.913 C 1470.47 442.913 1505.91 496.063 1505.91 496.063 L 1505.91 354.331 C 1505.91 354.331 1470.47 407.481 1435.04 407.481 L 1399.61 407.481 L 1399.61 372.048 C 1399.61 318.898 1452.76 301.181 1452.76 301.181 L 1311.02 301.181 C 1311.02 301.181 1364.17 318.898 1364.17 372.048 L 1364.17 407.481 L 1328.74 407.481 C 1293.31 407.481 1257.87 354.331 1257.87 354.331 L 1257.87 496.063 z " id="path973" sodipodi:nodetypes="ccccccccccccccccccccc" style="font-size:12;fill:#fff100;fill-rule:evenodd;stroke:#000000;stroke-width:2.18753;fill-opacity:1;stroke-dasharray:none;" transform="matrix(0.571411,0.000000,0.000000,0.571429,96.19884,713.7231)"/>
    <path d="M 1381.89 549.212 L 1452.76 549.213 C 1452.76 549.213 1399.61 531.496 1399.61 478.346 L 1399.61 442.913 L 1435.04 442.913 C 1470.47 442.913 1505.91 496.063 1505.91 496.063 L 1505.91 354.331 C 1505.91 354.331 1470.47 407.481 1435.04 407.481 L 1399.61 407.481 L 1399.61 372.048 C 1399.61 318.898 1452.76 301.181 1452.76 301.181 L 1381.89 301.181 C 1381.89 301.181 1381.89 549.212 1381.89 549.212 z " id="path974" sodipodi:nodetypes="ccccccccccccc" style="font-size:12;fill:#fff100;fill-rule:evenodd;stroke:#000000;stroke-width:3.30723;fill-opacity:1;stroke-dasharray:none;" transform="matrix(0.285706,0.000000,0.000000,0.500001,136.6813,788.3856)"/>
    <path d="M 1381.89 549.212 L 1452.76 549.213 C 1452.76 549.213 1399.61 531.496 1399.61 478.346 L 1399.61 442.913 L 1435.04 442.913 C 1470.47 442.913 1505.91 496.063 1505.91 496.063 L 1505.91 354.331 C 1505.91 354.331 1470.47 407.481 1435.04 407.481 L 1399.61 407.481 L 1399.61 372.048 C 1399.61 318.898 1452.76 301.181 1452.76 301.181 L 1381.89 301.181 C 1381.89 301.181 1381.89 549.212 1381.89 549.212 z " id="path975" sodipodi:nodetypes="ccccccccccccc" style="font-size:12;fill:#fff100;fill-rule:evenodd;stroke:#000000;stroke-width:3.30723;fill-opacity:1;stroke-dasharray:none;" transform="matrix(-0.285706,0.000000,0.000000,0.500001,1634.972,788.3856)"/>
    <path d="M 903.543335 602.362183 A 17.716553 17.716522 0 1 0 868.110229,602.362183 A 17.7166 17.7165 0 1 0 903.543 602.362 L 885.826782 602.362183 z" id="path976" sodipodi:cx="885.826782" sodipodi:cy="602.362183" sodipodi:rx="17.716553" sodipodi:ry="17.716522" sodipodi:type="arc" style="fill-rule:evenodd;stroke:#000000;fill:#ffffff;fill-opacity:1;stroke-opacity:1;stroke-width:1pt;stroke-linejoin:miter;stroke-linecap:butt;" transform="translate(-4.577637e-4,354.3306)"/>
    <path d="M 1257.87 496.063 C 1257.87 496.063 1293.31 442.913 1328.74 442.913 L 1364.17 442.913 L 1364.17 478.346 C 1364.17 531.496 1311.02 549.213 1311.02 549.213 L 1452.76 549.213 C 1452.76 549.213 1399.61 531.496 1399.61 478.346 L 1399.61 442.913 L 1435.04 442.913 C 1470.47 442.913 1505.91 496.063 1505.91 496.063 L 1505.91 354.331 C 1505.91 354.331 1470.47 407.481 1435.04 407.481 L 1399.61 407.481 L 1399.61 372.048 C 1399.61 318.898 1452.76 301.181 1452.76 301.181 L 1311.02 301.181 C 1311.02 301.181 1364.17 318.898 1364.17 372.048 L 1364.17 407.481 L 1328.74 407.481 C 1293.31 407.481 1257.87 354.331 1257.87 354.331 L 1257.87 496.063 z " id="path977" sodipodi:nodetypes="ccccccccccccccccccccc" style="font-size:12;fill:#fff100;fill-rule:evenodd;stroke:#000000;stroke-width:2.18753;fill-opacity:1;stroke-dasharray:none;" transform="matrix(0.571409,0.000000,0.000000,0.571428,96.20208,341.6762)"/>
    <path d="M 903.543335 602.362183 A 17.716553 17.716522 0 1 0 868.110229,602.362183 A 17.7166 17.7165 0 1 0 903.543 602.362 L 885.826782 602.362183 z" id="path978" sodipodi:cx="885.826782" sodipodi:cy="602.362183" sodipodi:rx="17.716553" sodipodi:ry="17.716522" sodipodi:type="arc" style="fill-rule:evenodd;stroke:#000000;fill:#ffffff;fill-opacity:1;stroke-opacity:1;stroke-width:1pt;stroke-linejoin:miter;stroke-linecap:butt;" transform="translate(1.696853,-14.74538)"/>
    <rect height="53.149654" id="rect996" style="font-size:12;fill:#fff100;fill-rule:evenodd;stroke-width:1pt;stroke:#000000;stroke-opacity:1;fill-opacity:1;" width="70.866150" x="850.393219" y="655.511627"/>
    <rect height="202.530029" id="rect1033" style="font-size:12;fill:#fff100;fill-rule:evenodd;stroke-width:1pt;stroke:#000000;stroke-opacity:1;fill-opacity:1;" width="70.8661499" x="850.393677" y="683.296753"/>
    <path d="M 478.346436 549.212585 A 17.716522 17.716553 0 1 0 442.913391,549.212585 A 17.7165 17.7166 0 1 0 478.346 549.213 L 460.629913 549.212585 z" id="path1050" sodipodi:cx="460.629913" sodipodi:cy="549.212585" sodipodi:rx="17.716522" sodipodi:ry="17.716553" sodipodi:type="arc" style="font-size:12;fill:#ffffff;fill-rule:evenodd;stroke:#000000;stroke-width:1pt;" transform="translate(425.1969,301.1811)"/>
    <path d="M 478.346436 549.212585 A 17.716522 17.716553 0 1 0 442.913391,549.212585 A 17.7165 17.7166 0 1 0 478.346 549.213 L 460.629913 549.212585 z" id="path1051" sodipodi:cx="460.629913" sodipodi:cy="549.212585" sodipodi:rx="17.716522" sodipodi:ry="17.716553" sodipodi:type="arc" style="font-size:12;fill:#ffffff;fill-rule:evenodd;stroke:#000000;stroke-width:1pt;" transform="translate(425.1969,255.3523)"/>
    <path d="M 478.346436 549.212585 A 17.716522 17.716553 0 1 0 442.913391,549.212585 A 17.7165 17.7166 0 1 0 478.346 549.213 L 460.629913 549.212585 z" id="path1052" sodipodi:cx="460.629913" sodipodi:cy="549.212585" sodipodi:rx="17.716522" sodipodi:ry="17.716553" sodipodi:type="arc" style="font-size:12;fill:#ffffff;fill-rule:evenodd;stroke:#000000;stroke-width:1pt;" transform="translate(425.1968,212.5984)"/>
    <path d="M 478.346436 549.212585 A 17.716522 17.716553 0 1 0 442.913391,549.212585 A 17.7165 17.7166 0 1 0 478.346 549.213 L 460.629913 549.212585 z" id="path1053" sodipodi:cx="460.629913" sodipodi:cy="549.212585" sodipodi:rx="17.716522" sodipodi:ry="17.716553" sodipodi:type="arc" style="font-size:12;fill:#ffffff;fill-rule:evenodd;stroke:#000000;stroke-width:1pt;" transform="translate(425.1968,168.4670)"/>
    <path d="M 614.510986 1201.790527 A 36.006500 14.402588 0 1 0 542.498047,1201.790527 A 36.0065 14.4026 0 1 0 614.511 1201.79 L 578.504517 1201.790527 z" id="path1055" sodipodi:cx="578.504517" sodipodi:cy="1201.790527" sodipodi:rx="36.006500" sodipodi:ry="14.402588" sodipodi:type="arc" style="fill-rule:evenodd;stroke:none;fill:#000000;fill-opacity:1;stroke-opacity:1;stroke-width:1pt;stroke-linejoin:miter;stroke-linecap:butt;" transform="translate(308.9530,-14.40248)"/>
    <path d="M 614.510986 1201.790527 A 36.006500 14.402588 0 1 0 542.498047,1201.790527 A 36.0065 14.4026 0 1 0 614.511 1201.79 L 578.504517 1201.790527 z" id="path1056" sodipodi:cx="578.504517" sodipodi:cy="1201.790527" sodipodi:rx="36.006500" sodipodi:ry="14.402588" sodipodi:type="arc" style="fill-rule:evenodd;stroke:none;fill:#000000;fill-opacity:1;stroke-opacity:1;stroke-width:1pt;stroke-linejoin:miter;stroke-linecap:butt;" transform="matrix(0.987729,0.246062,-0.250437,0.685558,943.7671,247.4512)"/>
    <path d="M 614.510986 1201.790527 A 36.006500 14.402588 0 1 0 542.498047,1201.790527 A 36.0065 14.4026 0 1 0 614.511 1201.79 L 578.504517 1201.790527 z" id="path1057" sodipodi:cx="578.504517" sodipodi:cy="1201.790527" sodipodi:rx="36.006500" sodipodi:ry="14.402588" sodipodi:type="arc" style="fill-rule:evenodd;stroke:none;fill:#000000;fill-opacity:1;stroke-opacity:1;stroke-width:1pt;stroke-linejoin:miter;stroke-linecap:butt;" transform="matrix(1.019037,7.733925e-2,-9.909519e-2,0.881947,606.2868,91.21687)"/>
    <path d="M 614.510986 1201.790527 A 36.006500 14.402588 0 1 0 542.498047,1201.790527 A 36.0065 14.4026 0 1 0 614.511 1201.79 L 578.504517 1201.790527 z" id="path1058" sodipodi:cx="578.504517" sodipodi:cy="1201.790527" sodipodi:rx="36.006500" sodipodi:ry="14.402588" sodipodi:type="arc" style="fill-rule:evenodd;stroke:none;fill:#000000;fill-opacity:1;stroke-opacity:1;stroke-width:1pt;stroke-linejoin:miter;stroke-linecap:butt;" transform="matrix(-0.987729,0.246062,0.250437,0.685558,819.9924,247.4512)"/>
    <path d="M 614.510986 1201.790527 A 36.006500 14.402588 0 1 0 542.498047,1201.790527 A 36.0065 14.4026 0 1 0 614.511 1201.79 L 578.504517 1201.790527 z" id="path1059" sodipodi:cx="578.504517" sodipodi:cy="1201.790527" sodipodi:rx="36.006500" sodipodi:ry="14.402588" sodipodi:type="arc" style="fill-rule:evenodd;stroke:none;fill:#000000;fill-opacity:1;stroke-opacity:1;stroke-width:1pt;stroke-linejoin:miter;stroke-linecap:butt;" transform="matrix(-1.019037,7.733925e-2,9.909519e-2,0.881947,1164.261,87.82217)"/>
  </g>
</svg>
