<?xml version="1.0" encoding="UTF-8" standalone="no"?>
<!-- Created with Inkscape (http://www.inkscape.org/) -->
<svg
   xmlns:dc="http://purl.org/dc/elements/1.1/"
   xmlns:cc="http://web.resource.org/cc/"
   xmlns:rdf="http://www.w3.org/1999/02/22-rdf-syntax-ns#"
   xmlns:svg="http://www.w3.org/2000/svg"
   xmlns="http://www.w3.org/2000/svg"
   xmlns:sodipodi="http://sodipodi.sourceforge.net/DTD/sodipodi-0.dtd"
   xmlns:inkscape="http://www.inkscape.org/namespaces/inkscape"
 id="svg2"
   sodipodi:version="0.32"
   inkscape:version="0.44"
   version="1.0"
   sodipodi:docbase="C:\Documents and Settings\David Nelson\Archives\Svg"
   sodipodi:docname="Flag_of_Jersey.svg" width="1000" height="600" viewBox="0 0 30 18">
  <defs
     id="defs4" />
  <sodipodi:namedview
     id="base"
     pagecolor="#ffffff"
     bordercolor="#666666"
     borderopacity="1.0"
     gridtolerance="10000"
     guidetolerance="10"
     objecttolerance="10"
     inkscape:pageopacity="0.0"
     inkscape:pageshadow="2"
     inkscape:zoom="20.944444"
     inkscape:cx="15"
     inkscape:cy="9"
     inkscape:document-units="px"
     inkscape:current-layer="layer1"
     width="30px"
     height="18px"
     inkscape:window-width="853"
     inkscape:window-height="573"
     inkscape:window-x="19"
     inkscape:window-y="62" />
  <metadata
     id="metadata7">
    <rdf:RDF>
      <cc:Work
         rdf:about="">
        <dc:format>image/svg+xml</dc:format>
        <dc:type
           rdf:resource="http://purl.org/dc/dcmitype/StillImage" />
      </cc:Work>
    </rdf:RDF>
  </metadata>
  <g
     inkscape:label="Layer 1"
     inkscape:groupmode="layer"
     id="layer1">
    <rect
       style="fill:white"
       id="rect2736"
       width="30"
       height="18"
       x="0"
       y="0" />
    <path
       style="opacity:1;fill:red;fill-opacity:1;fill-rule:evenodd;stroke:none;stroke-width:1.403;stroke-linecap:square;stroke-miterlimit:4;stroke-dasharray:none;stroke-opacity:1"
       d="M 0 0 L 0 1.15625 L 13.0625 9 L 0 16.84375 L 0 18 L 1.96875 18 L 15 10.15625 L 28.03125 18 L 30 18 L 30 16.84375 L 16.9375 9 L 30 1.15625 L 30 0 L 28.03125 0 L 15 7.84375 L 1.96875 0 L 0 0 z "
       id="rect2720" />
    <g
       id="Jersey badge"
       transform="matrix(4.072196e-2,0,0,4.072196e-2,12.94021,10.55291)">
      <path
         transform="matrix(3,0,0,3,-308.8556,-259.7129)"
         d="M 132.662,22.2327 C 135.818,35.0109 134.087,50.7927 119.833,59.549 C 105.578,50.7927 103.847,35.0109 107.004,22.2327 C 110.364,19.1781 125.636,17.2945 132.662,22.2327 z "
         id="red shield"
         style="fill:#ff0016;stroke:black;stroke-width:0.125" />
      <g
         transform="matrix(3,0,0,3,-308.8556,-259.7129)"
         id="g2041"
         style="fill:yellow;stroke:black;stroke-width:0.125">
        <path
           d="M 119.812,19.6672 C 125.038,19.6672 129.905,21.0504 132.774,22.8436 C 133.337,18.4377 135.335,14.0319 137.692,10.7019 C 135.233,10.6506 134.131,11.957 134.106,13.3146 C 133.491,11.5728 131.083,11.6752 130.34,12.623 C 133.03,14.4417 130.955,17.6692 128.522,17.0033 C 127.379,16.6906 126.775,15.8936 126.561,14.7365 C 126.824,14.7189 127.085,14.6226 127.305,14.444 C 127.872,13.984 127.959,13.1513 127.499,12.5842 C 127.039,12.0171 126.207,11.9302 125.639,12.3902 C 125.072,12.8502 124.985,13.6829 125.446,14.25 C 125.596,14.4363 125.789,14.5685 125.997,14.6488 C 125.228,15.904 123.849,16.2808 122.861,16.0042 C 121.58,15.6456 121.042,14.4929 121.042,13.4683 C 121.042,10.8043 123.603,10.3945 124.372,10.8556 C 124.321,9.06253 121.503,7.62802 120.632,9.11371 C 121.605,7.37192 121.554,4.91281 119.812,3.27344 C 118.071,4.91281 118.019,7.37192 118.993,9.11371 C 118.122,7.62802 115.304,9.06253 115.253,10.8556 C 116.021,10.3945 118.583,10.8043 118.583,13.4683 C 118.583,14.4929 118.045,15.6456 116.764,16.0042 C 115.776,16.2808 114.397,15.904 113.627,14.6488 C 113.836,14.5685 114.028,14.4363 114.179,14.25 C 114.639,13.6829 114.552,12.8502 113.985,12.3902 C 113.418,11.9302 112.585,12.0171 112.125,12.5842 C 111.665,13.1513 111.752,13.984 112.319,14.444 C 112.54,14.6226 112.801,14.7189 113.064,14.7365 C 112.85,15.8936 112.245,16.6906 111.103,17.0033 C 108.67,17.6692 106.595,14.4417 109.284,12.623 C 108.542,11.6752 106.134,11.5728 105.519,13.3146 C 105.493,11.957 104.392,10.6506 101.933,10.7019 C 104.289,14.0319 106.287,18.4377 106.851,22.8436 C 109.72,21.0504 114.587,19.6672 119.812,19.6672 z "
           id="crown" />
        <path
           d="M 130.653,32.1996 C 130.338,32.2747 130.338,32.6806 130.173,32.6806 C 130.992,32.658 131.39,32.4326 131.638,32.0192 C 131.458,32.1845 131.615,32.5002 131.555,32.5753 C 132.156,32.3649 132.442,31.8539 132.232,31.5082 C 132.367,31.7035 132.758,31.8088 132.878,31.8238 C 132.457,31.4931 132.758,30.7416 132.081,30.3509 C 132.307,30.3358 132.743,30.5913 132.863,30.892 C 132.758,30.2156 132.652,29.7797 132.096,29.404 C 132.156,29.4716 132.472,29.5317 132.607,29.404 C 132.247,29.1785 132.141,28.8028 132.172,28.5623 C 132.214,28.2258 131.991,28.1564 131.57,28.2617 C 131.191,28.3564 130.323,28.412 129.812,28.412 C 128.76,28.412 127.843,28.412 126.971,27.8108 C 128.279,28.3518 129.947,27.2096 129.947,26.2627 C 129.947,25.2105 128.654,24.3538 126.039,24.925 C 123.424,25.4961 120.238,25.2556 120.238,24.3839 C 120.238,23.5121 122.522,23.3919 123.695,23.5723 C 124.867,23.7526 125.708,23.8729 127.903,23.0913 C 127.362,23.3017 125.618,23.3618 124.236,22.9711 C 122.853,22.5803 119.456,22.5803 119.426,24.414 C 119.396,26.2476 123.043,26.0806 126.19,25.6164 C 128.023,25.3458 128.985,25.5262 128.985,26.1274 C 128.985,26.6985 127.302,26.939 126.009,26.7887 C 124.717,26.6385 123.394,26.6685 121.861,27.1194 C 120.581,27.4958 119.697,27.1194 118.284,27.3599 C 117.599,27.4763 115.939,27.3599 115.12,26.0071 C 114.616,26.3679 113.098,27.1231 112.843,27.8596 C 112.482,28.5359 112.723,29.2086 113.203,29.8699 C 113.809,30.7022 112.903,30.5763 112.257,30.6064 C 111.371,30.6476 110.185,30.5123 109.566,29.8098 C 109.018,29.1873 108.288,28.6884 107.705,29.1498 C 107.405,29.3873 107.693,29.6999 107.93,29.6124 C 108.165,29.5259 108.443,29.6999 108.694,29.8098 C 108.293,29.6374 107.852,29.7712 107.68,29.9249 C 107.443,30.1374 107.731,30.5433 108.018,30.3999 C 108.243,30.2874 108.705,30.2124 109.005,30.4874 C 108.68,30.4249 108.342,30.4381 108.18,30.6124 C 108.018,30.7867 108.143,31.0405 108.493,31.0249 C 109.055,30.9999 109.199,31.3937 109.762,31.3128 C 109.416,31.3579 109.22,31.5382 109.13,31.6735 C 109.656,31.433 110.237,32.0813 110.919,31.929 C 110.653,32.0385 110.224,32.3 110.228,32.5002 C 110.633,32.0342 113.354,32.8609 113.414,31.8389 C 113.489,32.0493 113.474,32.3649 113.264,32.6355 C 113.612,32.425 114.737,32.3499 115.082,31.5382 C 115.112,31.7787 115.067,32.0944 114.857,32.1695 C 115.218,32.2875 115.693,32.0187 116.179,31.2978 C 116.372,31.0118 116.418,30.8217 116.385,30.6067 C 116.867,30.6249 117.216,30.5039 117.592,30.1855 C 117.983,29.8549 118.404,30.4561 119.065,30.0352 C 119.727,29.6144 120.298,29.9751 120.658,29.7647 C 121.019,29.5543 121.515,29.8398 121.906,29.5994 C 122.297,29.3589 122.903,29.7171 123.55,29.2061 C 124.568,29.579 125.756,30.27 128.67,29.7346 C 130.34,29.4277 130.864,29.9901 130.864,30.7567 C 130.864,31.2827 130.556,31.3285 130.323,31.3429 C 129.394,31.4 128.995,30.9951 128.628,31.1249 C 128.382,31.2125 128.232,31.6125 128.588,31.75 C 128.294,31.9 128.332,32.1813 128.482,32.2844 C 128.632,32.3875 129.019,32.2938 129.282,32.1719 C 128.944,32.325 128.594,32.6 128.794,32.8875 C 128.915,33.062 129.221,33.2099 129.507,32.8376 C 129.794,32.4625 130.319,32.15 130.653,32.1996 z "
           id="top leopard body" />
        <path
           d="M 112.144,24.2636 C 111.302,23.918 111.018,23.9085 111.212,24.5943 C 111.295,24.8874 111.497,25.3007 111.7,25.4886 C 111.708,25.2031 111.813,24.414 112.144,24.2636 z "
           id="top leopard left ear" />
        <path
           d="M 114.774,24.2636 C 115.616,23.918 115.9,23.9085 115.706,24.5943 C 115.623,24.8874 115.42,25.3007 115.217,25.4886 C 115.21,25.2031 115.105,24.414 114.774,24.2636 z "
           id="top leopard right ear" />
        <path
           d="M 113.463,23.8016 C 115.056,23.8016 115.255,24.5493 115.247,25.4811 C 115.24,26.4881 114.699,26.1424 114.391,27.435 C 114.271,27.9404 113.868,27.9686 113.463,27.9686 C 113.057,27.9686 112.655,27.9404 112.534,27.435 C 112.227,26.1424 111.685,26.4881 111.678,25.4811 C 111.67,24.5493 111.869,23.8016 113.463,23.8016 z "
           id="top leopard head" />
        <path
           d="M 109.356,27.4951 C 108.95,27.2546 108.688,27.421 108.523,27.4662 C 109.049,27.6014 109.07,28.2767 110.273,28.5923 C 110.002,28.5172 109.852,28.6675 109.596,28.5322 C 110.092,28.923 110.648,29.3755 111.821,29.3889 C 112.475,29.3964 112.023,29.7346 111.595,29.5392 C 112.039,29.9976 112.918,29.6219 113.474,30.4561 C 113.579,29.8098 112.437,28.7877 112.963,28.0513 C 111.341,27.9822 111.208,27.0832 110.273,26.3679 C 109.512,25.7863 109.444,25.1951 109.108,24.0882 C 108.955,23.587 108.368,23.2745 108.043,23.3932 C 107.759,23.497 107.655,23.7433 107.899,23.9276 C 108.143,24.112 108.455,24.137 108.522,24.6042 C 108.205,24.2245 107.73,24.087 107.502,24.3245 C 107.363,24.4691 107.419,24.8065 107.718,24.8371 C 108.205,24.8871 107.855,25.3621 108.409,25.8268 C 107.918,25.2746 107.493,25.2246 107.23,25.5246 C 107.073,25.7043 107.23,26.0246 107.568,25.9903 C 108.057,25.9405 108.624,27.181 109.356,27.4951 z "
           id="top leopard arm" />
        <path
           d="M 122.432,32.1394 C 122.176,32.1845 122.252,32.6054 121.906,32.6355 C 122.733,32.6355 123.153,32.44 123.544,32.1244 C 123.364,32.2296 123.289,32.5002 123.274,32.6504 C 123.71,32.2747 124.747,32.2447 125.288,32.3499 C 125.829,32.4551 125.919,32.1996 126.114,31.8539 C 126.31,31.5082 126.039,31.3128 125.769,31.0423 C 125.498,30.7717 125.438,30.396 125.498,29.7647 C 124.055,27.8409 121.47,28.7727 121.44,29.6144 C 122.372,30.6965 122.492,30.5763 123.274,30.7266 C 124.055,30.8769 124.534,30.8765 124.01,31.3128 C 123.83,31.4631 123.078,31.3925 122.492,31.418 C 121.181,31.475 120.581,30.5124 120.194,31.0124 C 119.875,31.4236 120.204,31.6052 120.854,31.5833 C 120.404,31.5865 119.807,31.5622 119.909,31.9813 C 120.081,32.6875 120.756,31.85 121.019,32.1406 C 120.794,32.0875 120.444,32.225 120.431,32.4375 C 120.419,32.6501 120.931,32.925 121.494,32.4781 C 121.802,32.2331 122.195,32.1414 122.432,32.1394 z "
           id="top leopard leg" />
        <path
           d="M 129.24,42.7215 C 128.956,42.7891 128.956,43.1544 128.807,43.1544 C 129.545,43.1341 129.903,42.9312 130.126,42.5592 C 129.964,42.7079 130.106,42.9921 130.052,43.0597 C 130.593,42.8703 130.85,42.4104 130.661,42.0992 C 130.782,42.2751 131.134,42.3698 131.242,42.3833 C 130.864,42.0857 131.134,41.4094 130.525,41.0577 C 130.728,41.0441 131.121,41.2741 131.229,41.5446 C 131.134,40.9359 131.039,40.5437 130.539,40.2055 C 130.593,40.2664 130.877,40.3204 130.999,40.2055 C 130.674,40.0025 130.579,39.6644 130.607,39.4479 C 130.644,39.1451 130.444,39.0827 130.066,39.1774 C 129.724,39.2627 128.943,39.3127 128.483,39.3127 C 127.536,39.3127 126.711,39.3127 125.926,38.7716 C 127.103,39.2586 128.605,38.2305 128.605,37.3783 C 128.605,36.4314 127.441,35.6604 125.088,36.1744 C 122.734,36.6884 119.866,36.472 119.866,35.6874 C 119.866,34.9029 121.922,34.7946 122.977,34.957 C 124.032,35.1193 124.79,35.2275 126.765,34.5241 C 126.278,34.7135 124.709,34.7676 123.464,34.4159 C 122.22,34.0642 119.163,34.0642 119.136,35.7145 C 119.109,37.3648 122.391,37.2145 125.223,36.7967 C 126.873,36.5532 127.739,36.7155 127.739,37.2566 C 127.739,37.7706 126.224,37.987 125.06,37.8517 C 123.897,37.7165 122.707,37.7436 121.327,38.1493 C 120.175,38.4882 119.379,38.1493 118.108,38.3658 C 117.492,38.4706 115.997,38.3658 115.26,37.1483 C 114.807,37.473 113.441,38.1527 113.211,38.8155 C 112.886,39.4243 113.103,40.0296 113.535,40.6248 C 114.08,41.3739 113.265,41.2606 112.683,41.2876 C 111.886,41.3247 110.819,41.2029 110.262,40.5707 C 109.768,40.0105 109.112,39.5615 108.587,39.9767 C 108.317,40.1905 108.576,40.4718 108.79,40.393 C 109.001,40.3152 109.251,40.4718 109.477,40.5707 C 109.116,40.4155 108.719,40.5359 108.565,40.6743 C 108.351,40.8655 108.61,41.2309 108.868,41.1018 C 109.071,41.0005 109.487,40.933 109.757,41.1806 C 109.465,41.1243 109.161,41.1362 109.015,41.2931 C 108.868,41.4499 108.981,41.6783 109.296,41.6643 C 109.802,41.6418 109.932,41.9962 110.438,41.9234 C 110.127,41.964 109.951,42.1263 109.87,42.2481 C 110.343,42.0316 110.865,42.615 111.479,42.478 C 111.24,42.5766 110.854,42.8119 110.857,42.9921 C 111.222,42.5727 113.671,43.3167 113.725,42.3968 C 113.792,42.5862 113.779,42.8703 113.59,43.1138 C 113.903,42.9244 114.915,42.8568 115.226,42.1263 C 115.253,42.3428 115.213,42.6268 115.023,42.6945 C 115.349,42.8007 115.776,42.5587 116.214,41.9099 C 116.387,41.6525 116.428,41.4814 116.399,41.288 C 116.832,41.3043 117.147,41.1954 117.485,40.9089 C 117.837,40.6113 118.216,41.1524 118.811,40.7736 C 119.406,40.3948 119.92,40.7195 120.245,40.5301 C 120.57,40.3407 121.016,40.5977 121.368,40.3813 C 121.719,40.1649 122.265,40.4873 122.847,40.0273 C 123.764,40.363 124.832,40.9849 127.455,40.5031 C 128.958,40.2268 129.43,40.733 129.43,41.4229 C 129.43,41.8963 129.152,41.9376 128.943,41.9505 C 128.107,42.0019 127.747,41.6375 127.418,41.7543 C 127.196,41.8331 127.061,42.1931 127.381,42.3169 C 127.117,42.4519 127.151,42.705 127.286,42.7978 C 127.421,42.8907 127.769,42.8063 128.006,42.6966 C 127.702,42.8344 127.387,43.0819 127.567,43.3407 C 127.676,43.4977 127.951,43.6308 128.208,43.2957 C 128.467,42.9582 128.939,42.6769 129.24,42.7215 z "
           id="middle leopard body" />
        <path
           d="M 112.582,35.5792 C 111.824,35.2681 111.568,35.2595 111.743,35.8768 C 111.818,36.1406 112,36.5126 112.183,36.6817 C 112.19,36.4247 112.284,35.7145 112.582,35.5792 z "
           id="middle leopard left ear" />
        <path
           d="M 114.949,35.5792 C 115.707,35.2681 115.963,35.2595 115.788,35.8768 C 115.713,36.1406 115.531,36.5126 115.348,36.6817 C 115.341,36.4247 115.247,35.7145 114.949,35.5792 z "
           id="middle leopard right ear" />
        <path
           d="M 113.769,35.1634 C 115.203,35.1634 115.382,35.8363 115.375,36.6749 C 115.368,37.5812 114.881,37.2701 114.604,38.4334 C 114.496,38.8883 114.134,38.9136 113.769,38.9136 C 113.403,38.9136 113.042,38.8883 112.933,38.4334 C 112.656,37.2701 112.169,37.5812 112.162,36.6749 C 112.156,35.8363 112.335,35.1634 113.769,35.1634 z "
           id="middle leopard head" />
        <path
           d="M 110.073,38.4875 C 109.707,38.2711 109.472,38.4208 109.323,38.4614 C 109.796,38.5832 109.815,39.1909 110.898,39.475 C 110.654,39.4074 110.519,39.5426 110.289,39.4209 C 110.735,39.7726 111.236,40.1798 112.291,40.192 C 112.879,40.1987 112.474,40.5031 112.088,40.3272 C 112.487,40.7398 113.278,40.4016 113.779,41.1524 C 113.874,40.5707 112.846,39.6508 113.319,38.9881 C 111.859,38.9259 111.74,38.1168 110.898,37.473 C 110.213,36.9495 110.152,36.4175 109.849,35.4213 C 109.712,34.9702 109.183,34.689 108.891,34.7958 C 108.635,34.8892 108.542,35.1108 108.761,35.2768 C 108.981,35.4427 109.262,35.4652 109.322,35.8857 C 109.037,35.544 108.609,35.4203 108.404,35.634 C 108.279,35.7641 108.33,36.0677 108.598,36.0953 C 109.037,36.1403 108.722,36.5678 109.22,36.986 C 108.778,36.489 108.396,36.4441 108.16,36.7141 C 108.018,36.8758 108.16,37.1641 108.463,37.1331 C 108.903,37.0883 109.414,38.2048 110.073,38.4875 z "
           id="middle leopard arm" />
        <path
           d="M 121.841,42.6674 C 121.611,42.7079 121.679,43.0867 121.368,43.1138 C 122.112,43.1138 122.49,42.9379 122.842,42.6539 C 122.68,42.7485 122.612,42.9921 122.599,43.1273 C 122.991,42.7891 123.924,42.7621 124.411,42.8568 C 124.898,42.9515 124.979,42.7215 125.155,42.4104 C 125.331,42.0992 125.088,41.9234 124.844,41.6799 C 124.601,41.4364 124.546,41.0983 124.601,40.5301 C 123.302,38.7987 120.975,39.6374 120.948,40.3948 C 121.787,41.3688 121.895,41.2606 122.599,41.3959 C 123.302,41.5311 123.733,41.5307 123.261,41.9234 C 123.099,42.0587 122.423,41.9951 121.895,42.0181 C 120.715,42.0694 120.175,41.2031 119.826,41.6531 C 119.54,42.0232 119.836,42.1866 120.421,42.1669 C 120.016,42.1697 119.479,42.1479 119.57,42.525 C 119.725,43.1607 120.333,42.4069 120.569,42.6685 C 120.366,42.6206 120.051,42.7444 120.04,42.9356 C 120.029,43.1269 120.49,43.3744 120.997,42.9722 C 121.274,42.7517 121.628,42.6691 121.841,42.6674 z "
           id="middle leopard leg" />
        <path
           d="M 126.789,51.5733 C 126.579,51.6282 126.579,51.9248 126.469,51.9248 C 127.014,51.9083 127.279,51.7436 127.444,51.4415 C 127.324,51.5623 127.429,51.793 127.389,51.8479 C 127.79,51.6941 127.98,51.3207 127.84,51.068 C 127.93,51.2108 128.19,51.2877 128.27,51.2987 C 127.99,51.0571 128.19,50.5079 127.74,50.2223 C 127.89,50.2113 128.18,50.398 128.26,50.6177 C 128.19,50.1235 128.12,49.8049 127.75,49.5303 C 127.79,49.5798 128,49.6237 128.09,49.5303 C 127.85,49.3656 127.78,49.091 127.8,48.9152 C 127.828,48.6693 127.68,48.6186 127.399,48.6956 C 127.147,48.7648 126.569,48.8054 126.229,48.8054 C 125.528,48.8054 124.918,48.8054 124.337,48.3661 C 125.208,48.7614 126.319,47.9267 126.319,47.2347 C 126.319,46.4658 125.458,45.8398 123.717,46.2572 C 121.975,46.6745 119.854,46.4988 119.854,45.8618 C 119.854,45.2247 121.375,45.1368 122.155,45.2686 C 122.936,45.4004 123.496,45.4883 124.958,44.9171 C 124.597,45.0709 123.436,45.1148 122.516,44.8293 C 121.595,44.5437 119.333,44.5437 119.313,45.8837 C 119.293,47.2237 121.722,47.1017 123.817,46.7624 C 125.038,46.5647 125.678,46.6965 125.678,47.1359 C 125.678,47.5532 124.557,47.729 123.697,47.6191 C 122.836,47.5093 121.955,47.5313 120.934,47.8608 C 120.082,48.1359 119.493,47.8608 118.553,48.0366 C 118.097,48.1216 116.991,48.0366 116.446,47.048 C 116.111,47.3116 115.1,47.8635 114.93,48.4017 C 114.69,48.896 114.85,49.3876 115.17,49.8708 C 115.573,50.4791 114.97,50.3871 114.54,50.409 C 113.95,50.4391 113.16,50.3403 112.748,49.8269 C 112.383,49.372 111.897,49.0074 111.509,49.3446 C 111.309,49.5182 111.501,49.7465 111.659,49.6826 C 111.815,49.6194 112,49.7465 112.168,49.8269 C 111.9,49.7009 111.607,49.7987 111.492,49.911 C 111.334,50.0663 111.526,50.3629 111.717,50.2581 C 111.867,50.1759 112.175,50.1211 112.375,50.3221 C 112.158,50.2764 111.933,50.286 111.825,50.4134 C 111.717,50.5408 111.801,50.7263 112.034,50.7149 C 112.408,50.6966 112.504,50.9844 112.878,50.9253 C 112.648,50.9582 112.518,51.09 112.458,51.1889 C 112.808,51.0131 113.195,51.4868 113.649,51.3756 C 113.472,51.4556 113.186,51.6467 113.189,51.793 C 113.459,51.4525 115.27,52.0566 115.31,51.3097 C 115.36,51.4635 115.35,51.6941 115.21,51.8918 C 115.442,51.7381 116.191,51.6832 116.421,51.09 C 116.441,51.2658 116.411,51.4964 116.271,51.5514 C 116.512,51.6376 116.828,51.4412 117.152,50.9143 C 117.28,50.7053 117.31,50.5664 117.289,50.4093 C 117.609,50.4225 117.842,50.3342 118.092,50.1015 C 118.353,49.8599 118.633,50.2992 119.073,49.9917 C 119.513,49.6841 119.894,49.9477 120.134,49.7939 C 120.374,49.6402 120.704,49.8488 120.965,49.6731 C 121.225,49.4974 121.629,49.7592 122.059,49.3857 C 122.737,49.6583 123.528,50.1632 125.468,49.772 C 126.58,49.5477 126.929,49.9587 126.929,50.5189 C 126.929,50.9033 126.724,50.9368 126.569,50.9473 C 125.95,50.989 125.684,50.6931 125.441,50.788 C 125.276,50.8519 125.176,51.1443 125.414,51.2447 C 125.218,51.3544 125.243,51.5599 125.343,51.6353 C 125.443,51.7107 125.701,51.6421 125.876,51.5531 C 125.651,51.665 125.418,51.866 125.551,52.0761 C 125.632,52.2035 125.835,52.3117 126.025,52.0395 C 126.217,51.7655 126.566,51.5371 126.789,51.5733 z "
           id="bottom leopard body" />
        <path
           d="M 114.464,45.7739 C 113.904,45.5213 113.715,45.5143 113.844,46.0155 C 113.899,46.2297 114.034,46.5318 114.169,46.6691 C 114.174,46.4604 114.244,45.8837 114.464,45.7739 z "
           id="bottom leopard left ear" />
        <path
           d="M 116.216,45.7739 C 116.776,45.5213 116.966,45.5143 116.837,46.0155 C 116.781,46.2297 116.646,46.5318 116.511,46.6691 C 116.506,46.4604 116.436,45.8837 116.216,45.7739 z "
           id="bottom leopard right ear" />
        <path
           d="M 115.342,45.4362 C 116.403,45.4362 116.536,45.9826 116.531,46.6636 C 116.526,47.3995 116.166,47.1468 115.961,48.0915 C 115.881,48.4608 115.613,48.4813 115.342,48.4813 C 115.072,48.4813 114.805,48.4608 114.725,48.0915 C 114.52,47.1468 114.159,47.3995 114.154,46.6636 C 114.149,45.9826 114.282,45.4362 115.342,45.4362 z "
           id="bottom leopard head" />
        <path
           d="M 112.608,48.1354 C 112.338,47.9596 112.164,48.0812 112.053,48.1142 C 112.404,48.213 112.418,48.7065 113.219,48.9372 C 113.038,48.8823 112.938,48.9921 112.768,48.8932 C 113.098,49.1789 113.469,49.5095 114.249,49.5193 C 114.685,49.5248 114.384,49.772 114.099,49.6292 C 114.394,49.9642 114.98,49.6896 115.35,50.2992 C 115.42,49.8269 114.66,49.08 115.01,48.5418 C 113.93,48.4913 113.841,47.8343 113.219,47.3116 C 112.712,46.8866 112.667,46.4546 112.443,45.6457 C 112.341,45.2794 111.95,45.051 111.734,45.1378 C 111.545,45.2136 111.476,45.3936 111.638,45.5283 C 111.8,45.6631 112.009,45.6813 112.053,46.0227 C 111.842,45.7453 111.526,45.6448 111.374,45.8184 C 111.281,45.924 111.319,46.1705 111.517,46.1929 C 111.842,46.2295 111.609,46.5766 111.978,46.9162 C 111.651,46.5126 111.368,46.4761 111.193,46.6953 C 111.088,46.8267 111.193,47.0608 111.418,47.0356 C 111.743,46.9993 112.121,47.9058 112.608,48.1354 z "
           id="bottom leopard arm" />
        <path
           d="M 121.315,51.5294 C 121.145,51.5623 121.195,51.8699 120.965,51.8918 C 121.515,51.8918 121.795,51.749 122.055,51.5184 C 121.935,51.5953 121.885,51.793 121.875,51.9028 C 122.165,51.6282 122.856,51.6063 123.216,51.6832 C 123.577,51.76 123.637,51.5733 123.767,51.3207 C 123.897,51.068 123.717,50.9253 123.536,50.7276 C 123.356,50.5298 123.316,50.2553 123.356,49.7939 C 122.396,48.388 120.674,49.069 120.654,49.6841 C 121.275,50.4749 121.355,50.3871 121.875,50.4969 C 122.396,50.6067 122.714,50.6064 122.366,50.9253 C 122.246,51.0351 121.745,50.9835 121.355,51.0021 C 120.482,51.0438 120.082,50.3404 119.824,50.7058 C 119.612,51.0063 119.831,51.139 120.264,51.123 C 119.964,51.1253 119.567,51.1075 119.635,51.4138 C 119.749,51.9299 120.199,51.3178 120.374,51.5302 C 120.224,51.4914 119.991,51.5919 119.982,51.7472 C 119.974,51.9025 120.315,52.1035 120.69,51.7769 C 120.895,51.5978 121.157,51.5308 121.315,51.5294 z "
           id="bottom leopard leg" />
      </g>
      <g
         transform="matrix(3,0,0,3,-308.8556,-259.7129)"
         id="g66">
        <path
           id="path68"
           d="M 123.55,29.2061 C 123.081,29.0345 122.651,28.9296 122.101,29.0432"
           style="fill:none;stroke:black;stroke-width:0.125" />
        <path
           id="path70"
           d="M 116.48,28.9831 C 116.094,29.8125 116.328,30.2219 116.385,30.6067"
           style="fill:none;stroke:black;stroke-width:0.125" />
      </g>
      <g
         transform="matrix(3,0,0,3,-308.8556,-259.7129)"
         id="g72">
        <path
           id="path74"
           d="M 112.37,25.0516 C 112.635,25.1841 112.784,24.8096 113.173,25.2072 C 113.066,25.0912 112.933,25.5155 112.635,25.2339"
           style="fill:none;stroke:black;stroke-width:0.125" />
        <path
           id="path76"
           d="M 114.533,25.0516 C 114.268,25.1841 114.119,24.8096 113.73,25.2072 C 113.837,25.0912 113.97,25.5155 114.268,25.2339"
           style="fill:none;stroke:black;stroke-width:0.125" />
        <path
           id="path78"
           d="M 113.73,25.2072 C 113.639,25.2823 113.63,25.1473 113.699,25.502 C 113.827,26.1533 113.978,26.458 113.451,26.458 C 112.913,26.458 113.076,26.1533 113.203,25.502 C 113.273,25.1473 113.264,25.2823 113.173,25.2072"
           style="fill:none;stroke:black;stroke-width:0.125" />
      </g>
      <path
         transform="matrix(3,0,0,3,-308.8556,-259.7129)"
         id="path80"
         d="M 113.459,27.7056 C 113.887,27.7056 114.135,27.6981 114.068,27.0969 C 114.04,26.8556 114.361,26.7595 114.248,26.3679 C 114.368,26.8488 113.459,26.8029 113.459,26.5849 C 113.459,26.8029 112.55,26.8488 112.67,26.3679 C 112.557,26.7595 112.877,26.8556 112.85,27.0969 C 112.783,27.6981 113.031,27.7056 113.459,27.7056 z "
         style="fill:#ff0016;stroke:black;stroke-width:0.0625" />
      <g
         transform="matrix(3,0,0,3,-308.8556,-259.7129)"
         id="g82">
        <path
           id="path84"
           d="M 113.074,26.4894 L 112.046,26.2026"
           style="fill:none;stroke:black;stroke-width:0.0625" />
        <path
           id="path86"
           d="M 113.074,26.5428 L 111.926,26.5332"
           style="fill:none;stroke:black;stroke-width:0.0625" />
        <path
           id="path88"
           d="M 113.085,26.6016 L 112.106,26.8639"
           style="fill:none;stroke:black;stroke-width:0.0625" />
        <path
           id="path90"
           d="M 113.844,26.4894 L 114.872,26.2026"
           style="fill:none;stroke:black;stroke-width:0.0625" />
        <path
           id="path92"
           d="M 113.844,26.5428 L 114.992,26.5332"
           style="fill:none;stroke:black;stroke-width:0.0625" />
        <path
           id="path94"
           d="M 113.833,26.6016 L 114.812,26.8639"
           style="fill:none;stroke:black;stroke-width:0.0625" />
      </g>
      <g
         transform="matrix(3,0,0,3,-308.8556,-259.7129)"
         id="g96">
        <path
           id="path98"
           d="M 122.847,40.0273 C 122.426,39.873 122.038,39.7786 121.543,39.8808"
           style="fill:none;stroke:black;stroke-width:0.125" />
        <path
           id="path100"
           d="M 116.484,39.8267 C 116.137,40.5731 116.347,40.9416 116.399,41.288"
           style="fill:none;stroke:black;stroke-width:0.125" />
      </g>
      <g
         transform="matrix(3,0,0,3,-308.8556,-259.7129)"
         id="g102">
        <path
           id="path104"
           d="M 112.785,36.2884 C 113.024,36.4076 113.158,36.0706 113.508,36.4284 C 113.411,36.324 113.292,36.7058 113.024,36.4524"
           style="fill:none;stroke:black;stroke-width:0.125" />
        <path
           id="path106"
           d="M 114.732,36.2884 C 114.493,36.4076 114.359,36.0706 114.009,36.4284 C 114.106,36.324 114.225,36.7058 114.493,36.4524"
           style="fill:none;stroke:black;stroke-width:0.125" />
        <path
           id="path108"
           d="M 114.009,36.4284 C 113.928,36.496 113.919,36.3745 113.982,36.6937 C 114.097,37.2799 114.232,37.5541 113.759,37.5541 C 113.274,37.5541 113.42,37.2799 113.535,36.6937 C 113.598,36.3745 113.59,36.496 113.508,36.4284"
           style="fill:none;stroke:black;stroke-width:0.125" />
      </g>
      <path
         transform="matrix(3,0,0,3,-308.8556,-259.7129)"
         id="path110"
         d="M 113.765,38.6769 C 114.151,38.6769 114.374,38.6702 114.313,38.1291 C 114.289,37.9119 114.577,37.8255 114.476,37.473 C 114.584,37.9059 113.765,37.8645 113.765,37.6684 C 113.765,37.8645 112.947,37.9059 113.055,37.473 C 112.954,37.8255 113.242,37.9119 113.217,38.1291 C 113.157,38.6702 113.38,38.6769 113.765,38.6769 z "
         style="fill:#ff0016;stroke:black;stroke-width:0.0625" />
      <g
         transform="matrix(3,0,0,3,-308.8556,-259.7129)"
         id="g112">
        <path
           id="path114"
           d="M 113.419,37.5824 L 112.494,37.3242"
           style="fill:none;stroke:black;stroke-width:0.0625" />
        <path
           id="path116"
           d="M 113.419,37.6305 L 112.386,37.6218"
           style="fill:none;stroke:black;stroke-width:0.0625" />
        <path
           id="path118"
           d="M 113.429,37.6833 L 112.548,37.9194"
           style="fill:none;stroke:black;stroke-width:0.0625" />
        <path
           id="path120"
           d="M 114.112,37.5824 L 115.037,37.3242"
           style="fill:none;stroke:black;stroke-width:0.0625" />
        <path
           id="path122"
           d="M 114.112,37.6305 L 115.145,37.6218"
           style="fill:none;stroke:black;stroke-width:0.0625" />
        <path
           id="path124"
           d="M 114.102,37.6833 L 114.983,37.9194"
           style="fill:none;stroke:black;stroke-width:0.0625" />
      </g>
      <g
         transform="matrix(3,0,0,3,-308.8556,-259.7129)"
         id="g126">
        <path
           id="path128"
           d="M 122.059,49.3857 C 121.747,49.2603 121.46,49.1837 121.095,49.2667"
           style="fill:none;stroke:black;stroke-width:0.125" />
        <path
           id="path130"
           d="M 117.352,49.2228 C 117.095,49.8289 117.25,50.128 117.289,50.4093"
           style="fill:none;stroke:black;stroke-width:0.125" />
      </g>
      <g
         transform="matrix(3,0,0,3,-308.8556,-259.7129)"
         id="g132">
        <path
           id="path134"
           d="M 114.615,46.3497 C 114.792,46.4466 114.891,46.1728 115.15,46.4634 C 115.078,46.3787 114.99,46.6887 114.792,46.4829"
           style="fill:none;stroke:black;stroke-width:0.125" />
        <path
           id="path136"
           d="M 116.055,46.3497 C 115.879,46.4466 115.78,46.1728 115.52,46.4634 C 115.592,46.3787 115.68,46.6887 115.879,46.4829"
           style="fill:none;stroke:black;stroke-width:0.125" />
        <path
           id="path138"
           d="M 115.52,46.4634 C 115.46,46.5183 115.454,46.4197 115.5,46.6788 C 115.585,47.1548 115.685,47.3775 115.335,47.3775 C 114.976,47.3775 115.085,47.1548 115.17,46.6788 C 115.216,46.4197 115.21,46.5183 115.15,46.4634"
           style="fill:none;stroke:black;stroke-width:0.125" />
      </g>
      <path
         transform="matrix(3,0,0,3,-308.8556,-259.7129)"
         id="path140"
         d="M 115.34,48.2891 C 115.625,48.2891 115.79,48.2837 115.746,47.8443 C 115.727,47.668 115.941,47.5978 115.866,47.3116 C 115.946,47.6631 115.34,47.6295 115.34,47.4702 C 115.34,47.6295 114.735,47.6631 114.815,47.3116 C 114.74,47.5978 114.953,47.668 114.935,47.8443 C 114.89,48.2837 115.055,48.2891 115.34,48.2891 z "
         style="fill:#ff0016;stroke:black;stroke-width:0.0625" />
      <g
         transform="matrix(3,0,0,3,-308.8556,-259.7129)"
         id="g142">
        <path
           id="path144"
           d="M 115.084,47.4004 L 114.399,47.1908"
           style="fill:none;stroke:black;stroke-width:0.0625" />
        <path
           id="path146"
           d="M 115.084,47.4394 L 114.319,47.4324"
           style="fill:none;stroke:black;stroke-width:0.0625" />
        <path
           id="path148"
           d="M 115.091,47.4824 L 114.44,47.6741"
           style="fill:none;stroke:black;stroke-width:0.0625" />
        <path
           id="path150"
           d="M 115.596,47.4004 L 116.281,47.1908"
           style="fill:none;stroke:black;stroke-width:0.0625" />
        <path
           id="path152"
           d="M 115.596,47.4394 L 116.361,47.4324"
           style="fill:none;stroke:black;stroke-width:0.0625" />
        <path
           id="path154"
           d="M 115.589,47.4824 L 116.241,47.6741"
           style="fill:none;stroke:black;stroke-width:0.0625" />
      </g>
      <g
         transform="matrix(3,0,0,3,-308.8556,-259.7129)"
         id="blue claws and tongues"
         style="fill:#0070ff;stroke:black;stroke-width:0.013">
        <g
           id="top claws and tongue">
          <path
             id="path160"
             d="M 108.134,23.4136 C 107.835,23.0413 107.086,23.3557 107.071,23.8176 C 107.324,23.5182 107.737,23.9495 107.962,23.8588 C 108.118,23.796 108.255,23.5651 108.134,23.4136 z " />
          <path
             id="path162"
             d="M 107.746,24.2949 C 107.447,23.9226 106.699,24.237 106.684,24.6989 C 106.936,24.3995 107.349,24.8308 107.575,24.7401 C 107.731,24.6774 107.868,24.4464 107.746,24.2949 z " />
          <path
             id="path164"
             d="M 107.551,25.4788 C 107.212,25.1425 106.504,25.5391 106.541,25.9997 C 106.759,25.6738 107.217,26.056 107.431,25.9404 C 107.579,25.8605 107.689,25.6157 107.551,25.4788 z " />
          <path
             id="path166"
             d="M 107.908,29.1479 C 107.532,28.8529 106.875,29.3282 106.964,29.7816 C 107.143,29.4329 107.642,29.7597 107.841,29.6204 C 107.979,29.5239 108.061,29.2681 107.908,29.1479 z " />
          <path
             id="path168"
             d="M 107.889,29.9509 C 107.441,29.7857 106.961,30.4403 107.186,30.8442 C 107.248,30.4574 107.824,30.6148 107.971,30.4208 C 108.073,30.2866 108.071,30.0182 107.889,29.9509 z " />
          <path
             id="path170"
             d="M 108.464,30.551 C 108.016,30.3857 107.536,31.0403 107.76,31.4443 C 107.823,31.0574 108.399,31.2148 108.546,31.0208 C 108.648,30.8866 108.646,30.6182 108.464,30.551 z " />
          <path
             id="path172"
             d="M 120.202,31.7135 C 119.754,31.5483 119.274,32.2029 119.499,32.6068 C 119.562,32.22 120.137,32.3774 120.284,32.1834 C 120.386,32.0492 120.384,31.7808 120.202,31.7135 z " />
          <path
             id="path174"
             d="M 120.807,32.2581 C 120.343,32.1449 119.941,32.8499 120.21,33.2256 C 120.228,32.8341 120.818,32.925 120.942,32.7155 C 121.028,32.5706 120.996,32.3041 120.807,32.2581 z " />
          <path
             id="path176"
             d="M 120.381,30.9425 C 119.967,30.7035 119.383,31.267 119.536,31.7032 C 119.664,31.3327 120.204,31.5857 120.382,31.4196 C 120.505,31.3046 120.549,31.0398 120.381,30.9425 z " />
          <path
             id="path178"
             d="M 128.732,31.883 C 128.268,31.7699 127.866,32.4748 128.135,32.8506 C 128.154,32.4591 128.744,32.55 128.867,32.3405 C 128.953,32.1956 128.921,31.9291 128.732,31.883 z " />
          <path
             id="path180"
             d="M 128.746,31.1458 C 128.325,30.9212 127.761,31.5045 127.928,31.9352 C 128.043,31.5605 128.592,31.7948 128.764,31.6226 C 128.883,31.5034 128.918,31.2373 128.746,31.1458 z " />
          <path
             id="path182"
             d="M 129.072,32.5419 C 128.604,32.4491 128.233,33.171 128.518,33.5346 C 128.52,33.1427 129.113,33.2076 129.227,32.993 C 129.307,32.8444 129.263,32.5796 129.072,32.5419 z " />
          <path
             id="path184"
             d="M 113.493,27.3452 C 113.787,27.3452 113.906,27.431 113.906,27.9621 C 113.906,29.0873 113.893,29.5711 113.531,29.5711 C 113.168,29.5711 113.193,29.1114 113.193,28.2853 C 113.193,27.8543 113.193,27.6388 113.106,27.6747 C 113.106,27.3935 113.231,27.3452 113.493,27.3452 z " />
        </g>
        <g
           id="g186">
          <path
             id="path188"
             d="M 108.973,34.8141 C 108.704,34.4792 108.03,34.7621 108.016,35.1778 C 108.244,34.9084 108.615,35.2965 108.818,35.2149 C 108.959,35.1584 109.082,34.9505 108.973,34.8141 z " />
          <path
             id="path190"
             d="M 108.624,35.6073 C 108.355,35.2723 107.681,35.5553 107.668,35.9709 C 107.895,35.7015 108.266,36.0897 108.47,36.008 C 108.61,35.9515 108.733,35.7437 108.624,35.6073 z " />
          <path
             id="path192"
             d="M 108.449,36.6728 C 108.143,36.3702 107.506,36.7271 107.539,37.1417 C 107.735,36.8484 108.148,37.1923 108.34,37.0883 C 108.474,37.0164 108.573,36.796 108.449,36.6728 z " />
          <path
             id="path194"
             d="M 108.769,39.9751 C 108.431,39.7095 107.84,40.1373 107.92,40.5453 C 108.081,40.2315 108.53,40.5257 108.71,40.4002 C 108.834,40.3134 108.907,40.0832 108.769,39.9751 z " />
          <path
             id="path196"
             d="M 108.752,40.6977 C 108.349,40.549 107.917,41.1382 108.119,41.5017 C 108.176,41.1535 108.694,41.2952 108.826,41.1206 C 108.918,40.9998 108.916,40.7583 108.752,40.6977 z " />
          <path
             id="path198"
             d="M 109.27,41.2378 C 108.866,41.089 108.435,41.6782 108.637,42.0417 C 108.693,41.6936 109.211,41.8352 109.344,41.6606 C 109.435,41.5399 109.434,41.2983 109.27,41.2378 z " />
          <path
             id="path200"
             d="M 119.834,42.2841 C 119.431,42.1353 118.999,42.7245 119.201,43.088 C 119.258,42.7399 119.776,42.8815 119.908,42.707 C 120,42.5861 119.998,42.3446 119.834,42.2841 z " />
          <path
             id="path202"
             d="M 120.378,42.7741 C 119.961,42.6723 119.599,43.3068 119.841,43.645 C 119.858,43.2926 120.389,43.3744 120.5,43.1858 C 120.577,43.0554 120.548,42.8156 120.378,42.7741 z " />
          <path
             id="path204"
             d="M 119.995,41.5901 C 119.623,41.3751 119.097,41.8822 119.235,42.2748 C 119.35,41.9413 119.836,42.169 119.996,42.0195 C 120.107,41.916 120.146,41.6777 119.995,41.5901 z " />
          <path
             id="path206"
             d="M 127.511,42.4366 C 127.094,42.3348 126.732,42.9692 126.974,43.3074 C 126.991,42.9551 127.521,43.0368 127.633,42.8483 C 127.71,42.7179 127.681,42.4781 127.511,42.4366 z " />
          <path
             id="path208"
             d="M 127.524,41.7732 C 127.145,41.571 126.637,42.0959 126.788,42.4836 C 126.891,42.1463 127.385,42.3572 127.54,42.2022 C 127.647,42.095 127.678,41.8555 127.524,41.7732 z " />
          <path
             id="path210"
             d="M 127.817,43.0296 C 127.396,42.9461 127.062,43.5957 127.319,43.923 C 127.32,43.5703 127.854,43.6287 127.957,43.4355 C 128.028,43.3019 127.989,43.0636 127.817,43.0296 z " />
          <path
             id="path212"
             d="M 113.796,38.3526 C 114.061,38.3526 114.167,38.4298 114.167,38.9078 C 114.167,39.9205 114.156,40.3559 113.83,40.3559 C 113.504,40.3559 113.526,39.9422 113.526,39.1987 C 113.526,38.8108 113.526,38.6168 113.447,38.6492 C 113.447,38.396 113.56,38.3526 113.796,38.3526 z " />
        </g>
        <g
           id="g214">
          <path
             id="path216"
             d="M 111.794,45.1526 C 111.595,44.8806 111.097,45.1104 111.087,45.4479 C 111.255,45.2291 111.53,45.5443 111.68,45.478 C 111.784,45.4322 111.875,45.2634 111.794,45.1526 z " />
          <path
             id="path218"
             d="M 111.536,45.7967 C 111.337,45.5247 110.839,45.7544 110.829,46.0919 C 110.997,45.8732 111.272,46.1884 111.422,46.1221 C 111.526,46.0762 111.617,45.9074 111.536,45.7967 z " />
          <path
             id="path220"
             d="M 111.407,46.6619 C 111.181,46.4161 110.71,46.7059 110.734,47.0426 C 110.879,46.8044 111.184,47.0836 111.327,46.9992 C 111.425,46.9408 111.498,46.7619 111.407,46.6619 z " />
          <path
             id="path222"
             d="M 111.644,49.3432 C 111.394,49.1276 110.956,49.475 111.016,49.8063 C 111.135,49.5514 111.467,49.7903 111.6,49.6885 C 111.692,49.618 111.746,49.431 111.644,49.3432 z " />
          <path
             id="path224"
             d="M 111.631,49.93 C 111.333,49.8093 111.014,50.2877 111.163,50.5829 C 111.205,50.3001 111.588,50.4152 111.686,50.2734 C 111.754,50.1753 111.753,49.9792 111.631,49.93 z " />
          <path
             id="path226"
             d="M 112.014,50.3685 C 111.716,50.2478 111.397,50.7262 111.546,51.0214 C 111.588,50.7386 111.971,50.8537 112.069,50.7119 C 112.137,50.6138 112.135,50.4177 112.014,50.3685 z " />
          <path
             id="path228"
             d="M 119.83,51.2181 C 119.532,51.0974 119.212,51.5757 119.362,51.8709 C 119.404,51.5882 119.787,51.7033 119.885,51.5615 C 119.952,51.4634 119.951,51.2673 119.83,51.2181 z " />
          <path
             id="path230"
             d="M 120.233,51.6161 C 119.924,51.5334 119.656,52.0485 119.835,52.3231 C 119.847,52.037 120.24,52.1034 120.323,51.9503 C 120.38,51.8444 120.358,51.6497 120.233,51.6161 z " />
          <path
             id="path232"
             d="M 119.949,50.6547 C 119.674,50.48 119.285,50.8918 119.387,51.2106 C 119.471,50.9398 119.831,51.1247 119.95,51.0033 C 120.032,50.9192 120.061,50.7258 119.949,50.6547 z " />
          <path
             id="path234"
             d="M 125.51,51.342 C 125.201,51.2593 124.933,51.7745 125.112,52.0491 C 125.125,51.763 125.517,51.8293 125.6,51.6763 C 125.657,51.5704 125.635,51.3757 125.51,51.342 z " />
          <path
             id="path236"
             d="M 125.519,50.8033 C 125.239,50.6391 124.863,51.0654 124.974,51.3801 C 125.051,51.1063 125.416,51.2775 125.531,51.1516 C 125.61,51.0646 125.633,50.8701 125.519,50.8033 z " />
          <path
             id="path238"
             d="M 125.736,51.8235 C 125.424,51.7556 125.177,52.2832 125.367,52.5489 C 125.368,52.2625 125.763,52.31 125.839,52.1531 C 125.892,52.0446 125.863,51.8511 125.736,51.8235 z " />
          <path
             id="path240"
             d="M 115.363,48.0258 C 115.559,48.0258 115.638,48.0885 115.638,48.4766 C 115.638,49.2989 115.629,49.6525 115.388,49.6525 C 115.147,49.6525 115.163,49.3166 115.163,48.7129 C 115.163,48.3979 115.163,48.2404 115.105,48.2666 C 115.105,48.0611 115.188,48.0258 115.363,48.0258 z " />
        </g>
      </g>
    </g>
  </g>
</svg>
