<?xml version="1.0" encoding="UTF-8" standalone="no"?>
<!DOCTYPE svg PUBLIC "-//W3C//DTD SVG 20010904//EN"
"http://www.w3.org/TR/2001/REC-SVG-20010904/DTD/svg10.dtd">
<!-- Created with Sodipodi ("http://www.sodipodi.com/") --><svg height="140mm" id="svg548" sodipodi:docbase="/home/cschalle/sodipodi-flags/nations/" sodipodi:docname="/home/cschalle/sodipodi-flags/nations/kenya.svg" sodipodi:version="0.32" width="206mm" xmlns="http://www.w3.org/2000/svg" xmlns:sodipodi="http://sodipodi.sourceforge.net/DTD/sodipodi-0.dtd" xmlns:xlink="http://www.w3.org/1999/xlink">
  <metadata>
    <rdf:RDF xmlns:cc="http://web.resource.org/cc/" xmlns:dc="http://purl.org/dc/elements/1.1/" xmlns:rdf="http://www.w3.org/1999/02/22-rdf-syntax-ns#">
      <cc:Work rdf:about="">
        <dc:title> kenya</dc:title>
        <dc:description></dc:description>
        <dc:subject>
          <rdf:Bag>
            <rdf:li></rdf:li>
            <rdf:li>united_nations_member</rdf:li>
            <rdf:li>flag</rdf:li>
            <rdf:li>africa</rdf:li>
            <rdf:li>sign</rdf:li>
          </rdf:Bag>
        </dc:subject>
        <dc:publisher>
          <cc:Agent rdf:about="http://www.openclipart.org">
            <dc:title> James Ots</dc:title>
          </cc:Agent>
        </dc:publisher>
        <dc:creator>
          <cc:Agent>
            <dc:title>James Ots</dc:title>
          </cc:Agent>
        </dc:creator>
        <dc:rights>
          <cc:Agent>
            <dc:title> James Ots</dc:title>
          </cc:Agent>
        </dc:rights>
        <dc:date></dc:date>
        <dc:format>image/svg+xml</dc:format>
        <dc:type rdf:resource="http://purl.org/dc/dcmitype/StillImage"/>
        <cc:license rdf:resource="http://web.resource.org/cc/PublicDomain"/>
        <dc:language>en</dc:language>
      </cc:Work>
      <cc:License rdf:about="http://web.resource.org/cc/PublicDomain">
        <cc:permits rdf:resource="http://web.resource.org/cc/Reproduction"/>
        <cc:permits rdf:resource="http://web.resource.org/cc/Distribution"/>
        <cc:permits rdf:resource="http://web.resource.org/cc/DerivativeWorks"/>
      </cc:License>
    </rdf:RDF>
  </metadata>
  <defs id="defs550"/>
  <sodipodi:namedview id="base"/>
  <g id="g565" transform="matrix(2.908399,0.000000,0.000000,2.908399,-668.2187,-1173.815)">
    <rect height="168.312332" id="rect551" style="font-size:12;fill:#ffffff;fill-rule:evenodd;stroke-width:0.75;fill-opacity:1;stroke:#000000;stroke-opacity:1;stroke-dasharray:none;" width="247.937012" x="231.753113" y="405.006897"/>
    <rect height="48.551674" id="rect552" style="font-size:12;fill:#008900;fill-rule:evenodd;stroke-width:1pt;fill-opacity:1;" width="247.937012" x="231.753113" y="524.767524"/>
    <rect height="48.551674" id="rect553" style="font-size:12;fill:#c23743;fill-rule:evenodd;stroke-width:1pt;fill-opacity:1;" width="247.937012" x="231.105759" y="465.858093"/>
    <rect height="51.141050" id="rect554" style="font-size:12;fill:#000000;fill-rule:evenodd;stroke-width:1pt;fill-opacity:1;" width="247.937012" x="231.753113" y="405.654089"/>
    <path d="M 351.782 674.994 C 351.782 653.747 352.391 583.18 351.743 583.18 C 340.78 582.939 351.814 573.842 353.416 560.11 C 355.705 573.613 366.037 583.649 355.208 583.219 C 355.398 602.242 355.516 660.535 355.476 674.954 C 354.064 674.954 353.613 674.915 351.782 674.994 z " id="path565" sodipodi:nodetypes="cccccc" style="fill:#ffffff;fill-rule:evenodd;stroke:black;stroke-opacity:1;stroke-width:0.375;stroke-linejoin:miter;stroke-linecap:butt;fill-opacity:1;stroke-dasharray:none;" transform="matrix(0.639739,0.343725,-0.589892,1.097905,495.5724,-313.3043)"/>
    <path d="M 351.782 674.994 C 351.782 653.747 352.391 583.18 351.743 583.18 C 340.78 582.939 351.814 573.842 353.416 560.11 C 355.705 573.613 366.037 583.649 355.208 583.219 C 355.398 602.242 355.516 660.535 355.476 674.954 C 354.064 674.954 353.613 674.915 351.782 674.994 z " id="path568" sodipodi:nodetypes="cccccc" style="fill:#ffffff;fill-rule:evenodd;stroke:black;stroke-opacity:1;stroke-width:0.375;stroke-linejoin:miter;stroke-linecap:butt;fill-opacity:1;stroke-dasharray:none;" transform="matrix(-0.639739,0.343725,0.589892,1.097905,212.1863,-312.3888)"/>
    <path d="M 353.456 433.49 C 392.945 461.327 392.297 528.651 353.456 551.957 C 317.204 527.357 312.025 460.679 353.456 433.49 z " id="path555" sodipodi:nodetypes="ccc" style="fill:#c23743;fill-rule:evenodd;stroke:#000000;stroke-opacity:1;stroke-width:0.375;stroke-linejoin:miter;stroke-linecap:butt;fill-opacity:1;stroke-dasharray:none;" transform="translate(0.000000,-0.647385)"/>
    <path d="M 359.929443 494.665771 A 4.855179 7.444595 0 1 0 350.219116,494.665771 A 4.85518 7.44459 0 1 0 359.929 494.666 L 355.074280 494.665771 z" id="path557" sodipodi:cx="355.074280" sodipodi:cy="494.665771" sodipodi:rx="4.855179" sodipodi:ry="7.444595" sodipodi:type="arc" style="fill-rule:evenodd;stroke:none;fill:#fffffb;fill-opacity:1;stroke-opacity:1;stroke-width:1pt;stroke-linejoin:miter;stroke-linecap:butt;" transform="translate(-1.294708,-3.884155)"/>
    <path d="M 353.456 433.49 C 392.945 461.327 392.297 528.651 353.456 551.957 C 317.204 527.357 312.025 460.679 353.456 433.49 z " id="path558" sodipodi:nodetypes="ccc" style="fill:#ffffff;fill-rule:evenodd;stroke:#000000;stroke-opacity:1;stroke-width:0.375;stroke-linejoin:miter;stroke-linecap:butt;fill-opacity:1;stroke-dasharray:none;" transform="matrix(0.281180,0.000000,0.000000,0.385913,253.8235,268.1427)"/>
    <path d="M 353.456 433.49 C 392.945 461.327 392.297 528.651 353.456 551.957 C 317.204 527.357 312.025 460.679 353.456 433.49 z " id="path559" sodipodi:nodetypes="ccc" style="fill:#ffffff;fill-rule:evenodd;stroke:#000000;stroke-opacity:1;stroke-width:0.375;stroke-linejoin:miter;stroke-linecap:butt;fill-opacity:1;stroke-dasharray:none;" transform="matrix(0.281180,0.000000,0.000000,0.385913,253.8235,335.4677)"/>
    <rect height="46.609586" id="rect560" style="font-size:12;fill:#c23743;fill-rule:evenodd;stroke-width:1pt;fill-opacity:1;" width="4.531494" x="350.866455" y="435.432655"/>
    <rect height="46.609585" id="rect561" style="font-size:12;fill:#c23743;fill-rule:evenodd;stroke-width:1pt;fill-opacity:1;" width="4.531494" x="351.513809" y="502.110138"/>
    <path d="M 353.456 433.49 C 392.945 461.327 392.297 528.651 353.456 551.957 C 317.204 527.357 312.025 460.679 353.456 433.49 z " id="path562" sodipodi:nodetypes="ccc" style="fill:#000000;fill-rule:evenodd;stroke:#000000;stroke-opacity:1;stroke-width:0.375;stroke-linejoin:miter;stroke-linecap:butt;fill-opacity:1;stroke-dasharray:none;" transform="matrix(0.170593,0.000000,0.000000,0.450577,268.9709,269.2424)"/>
    <path d="M 353.456 433.49 C 392.945 461.327 392.297 528.651 353.456 551.957 C 317.204 527.357 312.025 460.679 353.456 433.49 z " id="path563" sodipodi:nodetypes="ccc" style="fill:#000000;fill-rule:evenodd;stroke:#000000;stroke-opacity:1;stroke-width:0.375;stroke-linejoin:miter;stroke-linecap:butt;fill-opacity:1;stroke-dasharray:none;" transform="matrix(0.170593,0.000000,0.000000,0.450577,318.1699,269.8897)"/>
  </g>
</svg>
