<?xml version="1.0" encoding="UTF-8" standalone="no"?>
<!DOCTYPE svg PUBLIC "-//W3C//DTD SVG 20010904//EN"
"http://www.w3.org/TR/2001/REC-SVG-20010904/DTD/svg10.dtd"
[
 <!ATTLIST svg
  xmlns:xlink CDATA #FIXED "http://www.w3.org/1999/xlink">
]>
<!-- Created with Sodipodi ("http://www.sodipodi.com/") --><svg height="496.062988" id="svg548" version="1" width="744.094482" x="0.00000000" xmlns="http://www.w3.org/2000/svg" xmlns:xlink="http://www.w3.org/1999/xlink" y="0.00000000">
  <metadata>
    <rdf:RDF xmlns:cc="http://web.resource.org/cc/" xmlns:dc="http://purl.org/dc/elements/1.1/" xmlns:rdf="http://www.w3.org/1999/02/22-rdf-syntax-ns#">
      <cc:Work rdf:about="">
        <dc:title>Cambodia</dc:title>
        <dc:description></dc:description>
        <dc:subject>
          <rdf:Bag>
            <rdf:li></rdf:li>
            <rdf:li>asia</rdf:li>
            <rdf:li>united_nations_member</rdf:li>
            <rdf:li>flag</rdf:li>
            <rdf:li>sign</rdf:li>
          </rdf:Bag>
        </dc:subject>
        <dc:publisher>
          <cc:Agent rdf:about="http://www.openclipart.org">
            <dc:title>Caleb Moore</dc:title>
          </cc:Agent>
        </dc:publisher>
        <dc:creator>
          <cc:Agent>
            <dc:title>Caleb Moore</dc:title>
          </cc:Agent>
        </dc:creator>
        <dc:rights>
          <cc:Agent>
            <dc:title>Caleb Moore</dc:title>
          </cc:Agent>
        </dc:rights>
        <dc:date></dc:date>
        <dc:format>image/svg+xml</dc:format>
        <dc:type rdf:resource="http://purl.org/dc/dcmitype/StillImage"/>
        <cc:license rdf:resource="http://web.resource.org/cc/PublicDomain"/>
        <dc:language>en</dc:language>
      </cc:Work>
      <cc:License rdf:about="http://web.resource.org/cc/PublicDomain">
        <cc:permits rdf:resource="http://web.resource.org/cc/Reproduction"/>
        <cc:permits rdf:resource="http://web.resource.org/cc/Distribution"/>
        <cc:permits rdf:resource="http://web.resource.org/cc/DerivativeWorks"/>
      </cc:License>
    </rdf:RDF>
  </metadata>
  <defs id="defs550"/>
  <rect height="496.062988" id="rect815" style="font-size:12;fill:#1b0073;fill-rule:evenodd;stroke-width:1pt;" width="744.094482" x="0.00000000" y="-0.00004800"/>
  <rect height="248.031509" id="rect837" style="font-size:12;fill:#e60006;fill-rule:evenodd;stroke-width:1pt;" width="744.094482" x="0.00000000" y="124.015762"/>
  <rect height="60.0000076" id="rect1002" style="font-size:12;fill:#ffffff;fill-rule:evenodd;stroke:#e60000;stroke-width:1.63482pt;" width="177.165344" x="1422.73621" y="-573.673218"/>
  <g id="g1595" style="font-size:12;" transform="translate(0.000000,1.754761e-4)">
    <rect height="50.9922371" id="rect1035" style="fill:#ffffff;fill-rule:evenodd;stroke:#e60000;stroke-width:1.17023;" transform="translate(0.000000,354.3307)" width="315.354340" x="214.370087" y="-113.978821"/>
    <path d="M 220 280 L 215 295 L 535 295 L 530 280 L 220 280 z " id="path632" style="fill:#ffffff;fill-rule:evenodd;stroke:#e60000;stroke-width:1.25;" transform="matrix(1.018701,0.000000,0.000000,0.799878,-9.965426,67.37808)"/>
    <path d="M 245 280 L 240 295 L 300 295 L 295 280 L 245 280 z " id="path982" style="fill:#ffffff;fill-rule:evenodd;stroke:#e60000;stroke-width:1.12246;" transform="matrix(1.235885,0.000000,0.000000,0.799878,160.4742,67.37851)"/>
    <path d="M 245 280 L 240 295 L 300 295 L 295 280 L 245 280 z " id="path983" style="fill:#ffffff;fill-rule:evenodd;stroke:#e60000;stroke-width:1.51963;" transform="matrix(0.622451,0.000000,0.000000,0.799878,328.6379,67.37851)"/>
    <path d="M 245 280 L 240 295 L 300 295 L 295 280 L 245 280 z " id="path984" style="fill:#ffffff;fill-rule:evenodd;stroke:#e60000;stroke-width:2.02407;" transform="matrix(0.402291,0.000000,0.000000,0.799878,388.1035,67.37851)"/>
    <path d="M 245 280 L 240 295 L 300 295 L 295 280 L 245 280 z " id="path636" style="fill:#ffffff;fill-rule:evenodd;stroke:#e60000;stroke-width:1.09772;" transform="matrix(1.299213,0.000000,0.000000,0.799878,21.25974,67.37830)"/>
    <rect height="11.9982224" id="rect976" style="fill:#ffffff;fill-rule:evenodd;stroke:#e60000;stroke-width:0.948847pt;" width="318.897644" x="212.598419" y="239.576508"/>
    <g id="g1527">
      <rect height="50.7922859" id="rect1001" style="fill:#ffffff;fill-rule:evenodd;stroke:#e60000;stroke-width:0.893396pt;" transform="translate(0.000000,354.3307)" width="62.4999924" x="462.791412" y="-113.870499"/>
      <rect height="26.9863567" id="rect637" style="fill:#ffffff;fill-rule:evenodd;stroke:#e60000;stroke-width:0.804664;" transform="translate(0.000000,354.3307)" width="6.24997616" x="507.500305" y="-90.0675278"/>
      <rect height="26.9863567" id="rect639" style="fill:#ffffff;fill-rule:evenodd;stroke:#e60000;stroke-width:0.804669;" transform="translate(0.000000,354.3307)" width="6.25013208" x="480.000000" y="-90.0679474"/>
    </g>
    <g id="g1517">
      <path d="M 245 280 L 240 295 L 300 295 L 295 280 L 245 280 z " id="path637" style="fill:#ffffff;fill-rule:evenodd;stroke:#e60000;stroke-width:1.55426;" transform="matrix(0.652611,0.000000,0.000000,0.799878,195.6307,67.37830)"/>
      <path d="M 245 280 L 240 295 L 300 295 L 295 280 L 245 280 z " id="path638" style="fill:#ffffff;fill-rule:evenodd;stroke:#e60000;stroke-width:1.95571;" transform="matrix(0.409314,0.000000,0.000000,0.799878,261.5330,67.37808)"/>
      <rect height="50.9922523" id="rect1003" style="fill:#ffffff;fill-rule:evenodd;stroke:#e60000;stroke-width:0.918861pt;" transform="translate(0.000000,354.3307)" width="65.8543243" x="338.801819" y="-113.978951"/>
      <rect height="26.9863567" id="rect683" style="fill:#ffffff;fill-rule:evenodd;stroke:#e60000;stroke-width:1.0398;" transform="translate(0.000000,354.3307)" width="6.24983883" x="391.269653" y="-90.0723114"/>
      <rect height="26.9863567" id="rect686" style="fill:#ffffff;fill-rule:evenodd;stroke:#e60000;stroke-width:1.04016;" transform="translate(0.000000,354.3307)" width="6.25431013" x="347.775574" y="-90.0746002"/>
      <rect height="63.3196182" id="rect687" style="fill:#ffffff;fill-rule:evenodd;stroke:#e60000;stroke-width:0.712525pt;" transform="translate(0.000000,354.3307)" width="31.8897858" x="356.102356" y="-126.319618"/>
      <rect height="26.9863567" id="rect684" style="fill:#ffffff;fill-rule:evenodd;stroke:#e60000;stroke-width:1.0398;" transform="translate(0.000000,354.3307)" width="6.24983883" x="380.019653" y="-90.0740509"/>
      <rect height="26.9863567" id="rect685" style="fill:#ffffff;fill-rule:evenodd;stroke:#e60000;stroke-width:1.04016;" transform="translate(0.000000,354.3307)" width="6.25431013" x="359.033539" y="-90.0728531"/>
      <path d="M 358.18 217.127 L 371.651 240.107 L 385.915 217.127 L 358.18 217.127 z " id="path759" style="fill:#ffffff;fill-rule:evenodd;stroke:#e60000;stroke-width:1pt;" transform="matrix(1.000000,0.000000,0.000000,0.846538,0.000000,54.37670)"/>
    </g>
    <rect height="62.9904251" id="rect1033" style="fill:#ffffff;fill-rule:evenodd;stroke:#e60000;stroke-width:1.1785;" transform="translate(0.000000,354.3307)" width="17.7165451" x="487.594543" y="-113.978729"/>
    <rect height="62.9904327" id="rect1034" style="fill:#ffffff;fill-rule:evenodd;stroke:#e60000;stroke-width:1.1779;" transform="translate(0.000000,354.3307)" width="11.7992077" x="490.535492" y="-113.978821"/>
    <g id="g1508">
      <path d="M 245 280 L 240 295 L 300 295 L 295 280 L 245 280 z " id="path635" style="fill:#ffffff;fill-rule:evenodd;stroke:#e60000;stroke-width:1.12246;" transform="matrix(1.236023,0.000000,0.000000,0.799878,-84.44766,67.37851)"/>
      <path d="M 245 280 L 240 295 L 300 295 L 295 280 L 245 280 z " id="path634" style="fill:#ffffff;fill-rule:evenodd;stroke:#e60000;stroke-width:1.63678;" transform="matrix(0.581103,0.000000,0.000000,0.799878,90.85617,67.37851)"/>
      <path d="M 245 280 L 240 295 L 300 295 L 295 280 L 245 280 z " id="path633" style="fill:#ffffff;fill-rule:evenodd;stroke:#e60000;stroke-width:2.04932;" transform="matrix(0.370769,0.000000,0.000000,0.799878,147.5582,67.37851)"/>
      <rect height="50.9922371" id="rect1000" style="fill:#ffffff;fill-rule:evenodd;stroke:#e60000;stroke-width:0.891623pt;" transform="translate(0.000000,354.3307)" width="62.0078812" x="217.913406" y="-113.978714"/>
      <rect height="26.9863567" id="rect635" style="fill:#ffffff;fill-rule:evenodd;stroke:#e60000;stroke-width:0.804665;" transform="translate(0.000000,354.3307)" width="6.24988794" x="229.999985" y="-90.0657501"/>
      <rect height="26.9863567" id="rect638" style="fill:#ffffff;fill-rule:evenodd;stroke:#e60000;stroke-width:0.804665;" transform="translate(0.000000,354.3307)" width="6.25001001" x="258.749969" y="-90.0650024"/>
      <rect height="62.9904251" id="rect986" style="fill:#ffffff;fill-rule:evenodd;stroke:#e60000;stroke-width:1.1785;" transform="translate(0.000000,354.3307)" width="17.7165451" x="239.173233" y="-113.978584"/>
      <rect height="62.9904327" id="rect987" style="fill:#ffffff;fill-rule:evenodd;stroke:#e60000;stroke-width:1.1779;" transform="translate(0.000000,354.3307)" width="11.7992077" x="242.114182" y="-113.978729"/>
    </g>
    <rect height="11.9982224" id="rect726" style="fill:#ffffff;fill-rule:evenodd;stroke:#e60000;stroke-width:0.959332pt;" width="325.984253" x="209.055130" y="228.349091"/>
    <g id="g598" transform="matrix(1.000000,0.000000,0.000000,0.846538,0.000000,54.37670)">
      <g id="g557" transform="matrix(1.046638,0.000000,0.000000,1.041298,-36.79581,-6.023994)">
        <rect height="17.5000057" id="rect551" style="fill:#ffffff;fill-rule:evenodd;stroke:#e60000;stroke-width:1pt;" width="406.249969" x="187.500000" y="328.562958"/>
        <rect height="17.5000057" id="rect556" style="fill:#ffffff;fill-rule:evenodd;stroke:#e60000;stroke-width:0.897857pt;" width="327.500000" x="226.249985" y="284.812958"/>
        <rect height="17.5000057" id="rect555" style="fill:#ffffff;fill-rule:evenodd;stroke:#e60000;stroke-width:0.911462pt;" width="337.500000" x="221.249985" y="288.562958"/>
        <rect height="17.5000057" id="rect552" style="fill:#ffffff;fill-rule:evenodd;stroke:#e60000;stroke-width:1pt;" width="406.249969" x="187.500000" y="328.562958"/>
        <rect height="17.5000057" id="rect554" style="fill:#ffffff;fill-rule:evenodd;stroke:#e60000;stroke-width:0.936438pt;" width="356.250000" x="212.499985" y="298.562958"/>
        <rect height="17.5000057" id="rect553" style="fill:#ffffff;fill-rule:evenodd;stroke:#e60000;stroke-width:0.968742pt;" width="381.250000" x="199.999985" y="311.062958"/>
      </g>
      <g id="g615" transform="matrix(0.944882,0.000000,0.000000,1.020472,-32.48034,1.182846)">
        <rect height="62.5000038" id="rect613" style="fill:#ffffff;fill-rule:evenodd;stroke:#e60000;stroke-width:1.02973pt;" width="18.7499962" x="287.500000" y="283.562958"/>
        <rect height="62.5000038" id="rect614" style="fill:#ffffff;fill-rule:evenodd;stroke:#e60000;stroke-width:0.840771pt;" width="12.4999981" x="290.625000" y="283.562958"/>
      </g>
      <g id="g621" transform="matrix(0.944882,0.000000,0.000000,1.020472,215.5512,1.183113)">
        <rect height="62.5000038" id="rect622" style="fill:#ffffff;fill-rule:evenodd;stroke:#e60000;stroke-width:1.02973pt;" width="18.7499962" x="287.500000" y="283.562958"/>
        <rect height="62.5000038" id="rect623" style="fill:#ffffff;fill-rule:evenodd;stroke:#e60000;stroke-width:0.840771pt;" width="12.4999981" x="290.625000" y="283.562958"/>
      </g>
      <rect height="0.00000000" id="rect993" style="fill:#ffffff;fill-rule:evenodd;stroke:#e60000;stroke-width:1.19585;" width="60.0287056" x="290.249725" y="344.612732"/>
      <rect height="0.00000000" id="rect995" style="fill:#ffffff;fill-rule:evenodd;stroke:#e60000;stroke-width:1.19585;" width="60.0287056" x="290.249725" y="344.612732"/>
      <rect height="0.00000000" id="rect996" style="fill:#ffffff;fill-rule:evenodd;stroke:#e60000;stroke-width:1.19585;" width="60.0287056" x="112.956360" y="266.906708"/>
      <rect height="0.00000000" id="rect997" style="fill:#ffffff;fill-rule:evenodd;stroke:#e60000;stroke-width:1.19585;" width="60.0287056" x="32.8253059" y="233.971542"/>
    </g>
    <rect height="113.983109" id="rect626" style="fill:#ffffff;fill-rule:evenodd;stroke:#e60000;stroke-width:1.20115;" width="14.2387543" x="365.499512" y="240.346817"/>
    <g id="g1531">
      <path d="M 217.919 220.296 L 218.103 183.381 C 218.103 183.381 221.465 190.617 247.615 192.202 C 272.364 191.265 276.463 186.84 277.584 182.918 L 276.559 220.433 L 217.919 220.296 z " id="path801" style="fill:#ffffff;fill-rule:evenodd;stroke:#e60000;stroke-width:1pt;" transform="matrix(0.943652,0.000000,0.000000,0.846538,261.1910,54.37670)"/>
      <g id="g892" transform="translate(246.5474,2.241310)">
        <path d="M 330.921 208.563 L 312.5 188.108 C 318.641 182.805 330.043 191.897 330.043 191.897 C 330.043 191.897 336.183 168.412 362.5 158.563 C 388.816 168.412 394.956 191.897 394.956 191.897 C 394.956 191.897 406.359 182.805 412.5 188.108 L 394.078 208.563 L 330.921 208.563 z " id="path893" style="fill:#ffffff;fill-rule:evenodd;stroke:#e60000;stroke-width:3.52778;" transform="matrix(0.414675,0.000000,0.000000,0.299955,99.01430,139.4772)"/>
        <path d="M 330.921 208.563 L 312.5 188.108 C 318.641 182.805 330.043 191.897 330.043 191.897 C 330.043 191.897 336.183 168.412 362.5 158.563 C 388.816 168.412 394.956 191.897 394.956 191.897 C 394.956 191.897 406.359 182.805 412.5 188.108 L 394.078 208.563 L 330.921 208.563 z " id="path894" style="fill:#ffffff;fill-rule:evenodd;stroke:#e60000;stroke-width:2.61496;" transform="matrix(0.539076,0.000000,0.000000,0.419936,53.91861,130.3519)"/>
      </g>
      <g id="g727" transform="matrix(1.020471,0.000000,0.000000,1.119836,221.6073,77.95599)">
        <path d="M 0 280.521 C 0.792433 280.521 30.1125 332.822 0 333.614 C -30.1125 334.407 0 282.106 0 280.521 z " id="path728" style="fill:#ffffff;fill-rule:evenodd;stroke:#e60000;stroke-width:3.38326;" transform="matrix(0.386597,0.000000,0.000000,0.353094,268.9156,-29.03514)"/>
        <path d="M 330.921 208.563 L 312.5 188.108 C 318.641 182.805 330.043 191.897 330.043 191.897 C 330.043 191.897 336.183 168.412 362.5 158.563 C 388.816 168.412 394.956 191.897 394.956 191.897 C 394.956 191.897 406.359 182.805 412.5 188.108 L 394.078 208.563 L 330.921 208.563 z " id="path729" style="fill:#ffffff;fill-rule:evenodd;stroke:#e60000;stroke-width:5.96285;" transform="matrix(0.312500,0.000000,0.000000,0.140625,155.6687,64.12357)"/>
        <path d="M 330.921 208.563 C 330.921 208.563 330.043 191.897 330.043 191.897 C 330.043 191.897 336.183 168.412 362.5 158.563 C 388.816 168.412 394.956 191.897 394.956 191.897 L 394.078 208.563 L 330.921 208.563 z " id="path730" style="fill:#ffffff;fill-rule:evenodd;stroke:#e60000;stroke-width:8.32109;" transform="matrix(0.160471,0.000000,0.000000,0.140625,210.7792,66.46732)"/>
        <path d="M 330.921 208.563 C 330.921 208.563 330.043 191.897 330.043 191.897 C 330.043 191.897 336.183 168.412 362.5 158.563 C 388.816 168.412 394.956 191.897 394.956 191.897 L 394.078 208.563 L 330.921 208.563 z " id="path731" style="fill:#ffffff;fill-rule:evenodd;stroke:#e60000;stroke-width:5.0956;" transform="matrix(0.320943,0.000000,0.000000,0.187500,152.6085,63.72217)"/>
        <path d="M 330.921 208.563 C 330.921 208.563 330.043 191.897 330.043 191.897 C 330.043 191.897 336.183 168.412 362.5 158.563 C 388.816 168.412 394.956 191.897 394.956 191.897 L 394.078 208.563 L 330.921 208.563 z " id="path732" style="fill:#ffffff;fill-rule:evenodd;stroke:#e60000;stroke-width:5.0956;" transform="matrix(0.320943,0.000000,0.000000,0.187500,152.6085,68.40971)"/>
        <path d="M 330.921 208.563 L 312.5 188.108 C 318.641 182.805 330.043 191.897 330.043 191.897 C 330.043 191.897 336.183 168.412 362.5 158.563 C 388.816 168.412 394.956 191.897 394.956 191.897 C 394.956 191.897 406.359 182.805 412.5 188.108 L 394.078 208.563 L 330.921 208.563 z " id="path733" style="fill:#ffffff;fill-rule:evenodd;stroke:#e60000;stroke-width:3.65148;" transform="matrix(0.312500,0.000000,0.000000,0.375000,155.6687,43.36657)"/>
        <path d="M 330.921 208.563 L 312.5 188.108 C 318.641 182.805 330.043 191.897 330.043 191.897 C 330.043 191.897 336.183 168.412 362.5 158.563 C 388.816 168.412 394.956 191.897 394.956 191.897 C 394.956 191.897 406.359 182.805 412.5 188.108 L 394.078 208.563 L 330.921 208.563 z " id="path734" style="fill:#ffffff;fill-rule:evenodd;stroke:#e60000;stroke-width:3.65148;" transform="matrix(0.312500,0.000000,0.000000,0.375000,155.6687,52.74157)"/>
        <path d="M 330.921 208.563 C 330.921 208.563 330.043 191.897 330.043 191.897 C 330.043 191.897 336.183 168.412 362.5 158.563 C 388.816 168.412 394.956 191.897 394.956 191.897 L 394.078 208.563 L 330.921 208.563 z " id="path735" style="fill:#ffffff;fill-rule:evenodd;stroke:#e60000;stroke-width:3.22274;" transform="matrix(0.320943,0.000000,0.000000,0.468750,152.6085,47.25131)"/>
        <path d="M 330.921 208.563 L 312.5 188.108 C 318.641 182.805 330.043 191.897 330.043 191.897 C 330.043 191.897 336.183 168.412 362.5 158.563 C 388.816 168.412 394.956 191.897 394.956 191.897 C 394.956 191.897 406.359 182.805 412.5 188.108 L 394.078 208.563 L 330.921 208.563 z " id="path736" style="fill:#ffffff;fill-rule:evenodd;stroke:#e60000;stroke-width:4.21637;" transform="matrix(0.312500,0.000000,0.000000,0.281250,155.6687,86.35687)"/>
      </g>
    </g>
    <g id="g1546">
      <g id="g889" transform="translate(-1.120682,-1.525879e-5)">
        <path d="M 330.921 208.563 L 312.5 188.108 C 318.641 182.805 330.043 191.897 330.043 191.897 C 330.043 191.897 336.183 168.412 362.5 158.563 C 388.816 168.412 394.956 191.897 394.956 191.897 C 394.956 191.897 406.359 182.805 412.5 188.108 L 394.078 208.563 L 330.921 208.563 z " id="path874" style="fill:#ffffff;fill-rule:evenodd;stroke:#e60000;stroke-width:3.52778;" transform="matrix(0.414675,0.000000,0.000000,0.299955,99.01430,139.4772)"/>
        <path d="M 330.921 208.563 L 312.5 188.108 C 318.641 182.805 330.043 191.897 330.043 191.897 C 330.043 191.897 336.183 168.412 362.5 158.563 C 388.816 168.412 394.956 191.897 394.956 191.897 C 394.956 191.897 406.359 182.805 412.5 188.108 L 394.078 208.563 L 330.921 208.563 z " id="path879" style="fill:#ffffff;fill-rule:evenodd;stroke:#e60000;stroke-width:2.61496;" transform="matrix(0.539076,0.000000,0.000000,0.419936,53.91861,130.3519)"/>
      </g>
      <path d="M 217.919 220.296 L 218.103 183.381 C 218.103 183.381 221.465 190.617 247.615 192.202 C 272.364 191.265 276.463 186.84 277.584 182.918 L 276.559 220.433 L 217.919 220.296 z " id="path800" style="fill:#ffffff;fill-rule:evenodd;stroke:#e60000;stroke-width:1pt;" transform="matrix(0.943652,0.000000,0.000000,0.846538,15.64132,54.37670)"/>
      <g id="g603" transform="matrix(1.020471,0.000000,0.000000,1.119836,-26.42415,77.95599)">
        <path d="M 0 280.521 C 0.792433 280.521 30.1125 332.822 0 333.614 C -30.1125 334.407 0 282.106 0 280.521 z " id="path583" style="fill:#ffffff;fill-rule:evenodd;stroke:#e60000;stroke-width:3.38326;" transform="matrix(0.386597,0.000000,0.000000,0.353094,268.9156,-29.03514)"/>
        <path d="M 330.921 208.563 L 312.5 188.108 C 318.641 182.805 330.043 191.897 330.043 191.897 C 330.043 191.897 336.183 168.412 362.5 158.563 C 388.816 168.412 394.956 191.897 394.956 191.897 C 394.956 191.897 406.359 182.805 412.5 188.108 L 394.078 208.563 L 330.921 208.563 z " id="path582" style="fill:#ffffff;fill-rule:evenodd;stroke:#e60000;stroke-width:5.96285;" transform="matrix(0.312500,0.000000,0.000000,0.140625,155.6687,64.12357)"/>
        <path d="M 330.921 208.563 C 330.921 208.563 330.043 191.897 330.043 191.897 C 330.043 191.897 336.183 168.412 362.5 158.563 C 388.816 168.412 394.956 191.897 394.956 191.897 L 394.078 208.563 L 330.921 208.563 z " id="path581" style="fill:#ffffff;fill-rule:evenodd;stroke:#e60000;stroke-width:8.32109;" transform="matrix(0.160471,0.000000,0.000000,0.140625,210.7792,66.46732)"/>
        <path d="M 330.921 208.563 C 330.921 208.563 330.043 191.897 330.043 191.897 C 330.043 191.897 336.183 168.412 362.5 158.563 C 388.816 168.412 394.956 191.897 394.956 191.897 L 394.078 208.563 L 330.921 208.563 z " id="path580" style="fill:#ffffff;fill-rule:evenodd;stroke:#e60000;stroke-width:5.0956;" transform="matrix(0.320943,0.000000,0.000000,0.187500,152.6085,63.72217)"/>
        <path d="M 330.921 208.563 C 330.921 208.563 330.043 191.897 330.043 191.897 C 330.043 191.897 336.183 168.412 362.5 158.563 C 388.816 168.412 394.956 191.897 394.956 191.897 L 394.078 208.563 L 330.921 208.563 z " id="path579" style="fill:#ffffff;fill-rule:evenodd;stroke:#e60000;stroke-width:5.0956;" transform="matrix(0.320943,0.000000,0.000000,0.187500,152.6085,68.40971)"/>
        <path d="M 330.921 208.563 L 312.5 188.108 C 318.641 182.805 330.043 191.897 330.043 191.897 C 330.043 191.897 336.183 168.412 362.5 158.563 C 388.816 168.412 394.956 191.897 394.956 191.897 C 394.956 191.897 406.359 182.805 412.5 188.108 L 394.078 208.563 L 330.921 208.563 z " id="path576" style="fill:#ffffff;fill-rule:evenodd;stroke:#e60000;stroke-width:3.65148;" transform="matrix(0.312500,0.000000,0.000000,0.375000,155.6687,43.36657)"/>
        <path d="M 330.921 208.563 L 312.5 188.108 C 318.641 182.805 330.043 191.897 330.043 191.897 C 330.043 191.897 336.183 168.412 362.5 158.563 C 388.816 168.412 394.956 191.897 394.956 191.897 C 394.956 191.897 406.359 182.805 412.5 188.108 L 394.078 208.563 L 330.921 208.563 z " id="path575" style="fill:#ffffff;fill-rule:evenodd;stroke:#e60000;stroke-width:3.65148;" transform="matrix(0.312500,0.000000,0.000000,0.375000,155.6687,52.74157)"/>
        <path d="M 330.921 208.563 C 330.921 208.563 330.043 191.897 330.043 191.897 C 330.043 191.897 336.183 168.412 362.5 158.563 C 388.816 168.412 394.956 191.897 394.956 191.897 L 394.078 208.563 L 330.921 208.563 z " id="path578" style="fill:#ffffff;fill-rule:evenodd;stroke:#e60000;stroke-width:3.22274;" transform="matrix(0.320943,0.000000,0.000000,0.468750,152.6085,47.25131)"/>
        <path d="M 330.921 208.563 L 312.5 188.108 C 318.641 182.805 330.043 191.897 330.043 191.897 C 330.043 191.897 336.183 168.412 362.5 158.563 C 388.816 168.412 394.956 191.897 394.956 191.897 C 394.956 191.897 406.359 182.805 412.5 188.108 L 394.078 208.563 L 330.921 208.563 z " id="path574" style="fill:#ffffff;fill-rule:evenodd;stroke:#e60000;stroke-width:4.21637;" transform="matrix(0.312500,0.000000,0.000000,0.281250,155.6687,86.35687)"/>
      </g>
    </g>
    <g id="g1561">
      <rect height="12.8976488" id="rect901" ry="6.44882441" style="fill:#ffffff;fill-rule:evenodd;stroke:#e60000;stroke-width:1.22556;" width="85.0393753" x="329.527557" y="226.275208"/>
      <path d="M 353.237 -212.598 L 354.33 -269.291 C 354.33 -269.291 351.05 -255.385 341.207 -255.385 C 331.365 -255.385 200.131 -255.385 190.289 -255.385 C 180.446 -255.385 177.165 -269.291 177.165 -269.291 L 178.258 -212.598 L 353.237 -212.598 z " id="path900" style="fill:#ffffff;fill-rule:evenodd;stroke:#e60000;stroke-width:1.57888;" transform="matrix(0.500001,0.000000,0.000000,0.749999,239.1742,393.3066)"/>
      <g id="g860" transform="translate(-4.359144e-5,-7.790161)">
        <path d="M 510.488 70.2193 L 510.897 44.61 C 510.897 44.61 534.454 41.6116 531.185 35.2781 C 527.915 28.9447 499.581 43.2639 499.581 43.2639 L 386.246 43.2639 C 386.246 43.2639 357.911 28.9447 354.642 35.2781 C 351.373 41.6116 374.93 44.61 374.93 44.61 L 375.338 70.2193 L 510.488 70.2193 z " id="path807" style="fill:#ffffff;fill-rule:evenodd;stroke:#e60000;stroke-width:2.39948;" transform="matrix(0.399999,0.000000,0.000000,0.574345,194.8822,182.0210)"/>
        <path d="M 510.488 70.2193 L 510.897 44.61 C 510.897 44.61 534.454 41.6116 531.185 35.2781 C 527.915 28.9447 499.581 43.2639 499.581 43.2639 L 386.246 43.2639 C 386.246 43.2639 357.911 28.9447 354.642 35.2781 C 351.373 41.6116 374.93 44.61 374.93 44.61 L 375.338 70.2193 L 510.488 70.2193 z " id="path806" style="fill:#ffffff;fill-rule:evenodd;stroke:#e60000;stroke-width:2.19042;" transform="matrix(0.479999,0.000000,0.000000,0.574345,159.4492,194.0191)"/>
        <path d="M 510.488 70.2193 L 510.897 44.61 C 510.897 44.61 534.454 41.6115 531.185 35.2781 C 527.915 28.9447 503.896 16.9175 469.375 4.19847 C 445.092 -1.70668 500.639 -22.1481 448.307 -23.5108 C 400.29 -22.7537 442.893 -0.1926 427.24 5.10692 C 388.404 16.9173 357.911 28.9447 354.642 35.2781 C 351.373 41.6115 374.93 44.61 374.93 44.61 L 375.338 70.2193 L 510.488 70.2193 z " id="path814" style="fill:#ffffff;fill-rule:evenodd;stroke:#e60000;stroke-width:6.24653;" transform="matrix(0.129852,0.000000,0.000000,0.261059,314.1666,141.8694)"/>
        <path d="M 510.488 70.2193 L 510.897 44.61 C 510.897 44.61 534.454 41.6116 531.185 35.2781 C 527.915 28.9447 499.581 43.2639 499.581 43.2639 L 386.246 43.2639 C 386.246 43.2639 357.911 28.9447 354.642 35.2781 C 351.373 41.6116 374.93 44.61 374.93 44.61 L 375.338 70.2193 L 510.488 70.2193 z " id="path808" style="fill:#ffffff;fill-rule:evenodd;stroke:#e60000;stroke-width:3.15197;" transform="matrix(0.283325,0.000000,0.000000,0.469916,246.5542,164.5394)"/>
        <path d="M 510.488 70.2193 L 510.897 44.61 C 510.897 44.61 534.454 41.6116 531.185 35.2781 C 527.915 28.9447 499.581 43.2639 499.581 43.2639 L 386.246 43.2639 C 386.246 43.2639 357.911 28.9447 354.642 35.2781 C 351.373 41.6116 374.93 44.61 374.93 44.61 L 375.338 70.2193 L 510.488 70.2193 z " id="path809" style="fill:#ffffff;fill-rule:evenodd;stroke:#e60000;stroke-width:2.8773;" transform="matrix(0.340000,0.000000,0.000000,0.469916,221.4567,174.3561)"/>
        <path d="M 510.488 70.2193 L 510.897 44.61 C 510.897 44.61 534.454 41.6116 531.185 35.2781 C 527.915 28.9447 499.581 43.2639 499.581 43.2639 L 386.246 43.2639 C 386.246 43.2639 357.911 28.9447 354.642 35.2781 C 351.373 41.6116 374.93 44.61 374.93 44.61 L 375.338 70.2193 L 510.488 70.2193 z " id="path810" style="fill:#ffffff;fill-rule:evenodd;stroke:#e60000;stroke-width:4.75517;" transform="matrix(0.183332,0.000000,0.000000,0.319083,290.8462,157.2847)"/>
        <path d="M 510.488 70.2193 L 510.897 44.61 C 510.897 44.61 534.454 41.6116 531.185 35.2781 C 527.915 28.9447 499.581 43.2639 499.581 43.2639 L 386.246 43.2639 C 386.246 43.2639 357.911 28.9447 354.642 35.2781 C 351.373 41.6116 374.93 44.61 374.93 44.61 L 375.338 70.2193 L 510.488 70.2193 z " id="path811" style="fill:#ffffff;fill-rule:evenodd;stroke:#e60000;stroke-width:4.34084;" transform="matrix(0.220000,0.000000,0.000000,0.319083,274.6063,163.9515)"/>
        <path d="M 510.488 70.2193 L 510.897 44.61 C 510.897 44.61 534.454 41.6116 531.185 35.2781 C 527.915 28.9447 499.581 43.2639 499.581 43.2639 L 386.246 43.2639 C 386.246 43.2639 357.911 28.9447 354.642 35.2781 C 351.373 41.6116 374.93 44.61 374.93 44.61 L 375.338 70.2193 L 510.488 70.2193 z " id="path812" style="fill:#ffffff;fill-rule:evenodd;stroke:#e60000;stroke-width:6.24653;" transform="matrix(0.129852,0.000000,0.000000,0.261059,314.5287,147.5737)"/>
        <path d="M 510.488 70.2193 L 510.897 44.61 C 510.897 44.61 534.454 41.6116 531.185 35.2781 C 527.915 28.9447 499.581 43.2639 499.581 43.2639 L 386.246 43.2639 C 386.246 43.2639 357.911 28.9447 354.642 35.2781 C 351.373 41.6116 374.93 44.61 374.93 44.61 L 375.338 70.2193 L 510.488 70.2193 z " id="path813" style="fill:#ffffff;fill-rule:evenodd;stroke:#e60000;stroke-width:5.70208;" transform="matrix(0.155833,0.000000,0.000000,0.261059,303.0256,153.0271)"/>
      </g>
      <g id="g789" transform="matrix(1.000000,0.000000,0.000000,0.846538,-3.848958e-5,54.37666)">
        <path d="M 330.921 208.563 L 312.5 188.108 C 318.641 182.805 330.043 191.897 330.043 191.897 C 330.043 191.897 336.183 168.412 362.5 158.563 C 388.816 168.412 394.956 191.897 394.956 191.897 C 394.956 191.897 406.359 182.805 412.5 188.108 L 394.078 208.563 L 330.921 208.563 z " id="path767" style="fill:#ffffff;fill-rule:evenodd;stroke:#e60000;stroke-width:5.44347;" transform="matrix(0.177166,0.000000,0.000000,0.212599,307.8246,85.00384)"/>
        <path d="M 330.921 208.563 L 312.5 188.108 C 318.641 182.805 330.043 191.897 330.043 191.897 C 330.043 191.897 336.183 168.412 362.5 158.563 C 388.816 168.412 394.956 191.897 394.956 191.897 C 394.956 191.897 406.359 182.805 412.5 188.108 L 394.078 208.563 L 330.921 208.563 z " id="path766" style="fill:#ffffff;fill-rule:evenodd;stroke:#e60000;stroke-width:5.44347;" transform="matrix(0.248032,0.000000,0.000000,0.212599,282.1357,92.09048)"/>
        <path d="M 330.921 208.563 L 312.5 188.108 C 318.641 182.805 330.043 191.897 330.043 191.897 C 330.043 191.897 336.183 168.412 362.5 158.563 C 388.816 168.412 394.956 191.897 394.956 191.897 C 394.956 191.897 406.359 182.805 412.5 188.108 L 394.078 208.563 L 330.921 208.563 z " id="path765" style="fill:#ffffff;fill-rule:evenodd;stroke:#e60000;stroke-width:4.40972;" transform="matrix(0.283465,0.000000,0.000000,0.283465,269.2912,89.70534)"/>
        <path d="M 330.921 208.563 L 312.5 188.108 C 318.641 182.805 330.043 191.897 330.043 191.897 C 330.043 191.897 336.183 168.412 362.5 158.563 C 388.816 168.412 394.956 191.897 394.956 191.897 C 394.956 191.897 406.359 182.805 412.5 188.108 L 394.078 208.563 L 330.921 208.563 z " id="path764" style="fill:#ffffff;fill-rule:evenodd;stroke:#e60000;stroke-width:3.52778;" transform="matrix(0.354331,0.000000,0.000000,0.354331,243.6023,90.15479)"/>
        <path d="M 358.18 217.127 L 371.651 240.107 L 385.915 217.127 L 358.18 217.127 z " id="path762" style="fill:#ffffff;fill-rule:evenodd;stroke:#e60000;stroke-width:1.45824;" transform="matrix(0.923077,0.000000,0.000000,0.796018,28.61885,3.752388)"/>
        <path d="M 330.921 208.563 L 312.5 188.108 C 318.641 182.805 330.043 191.897 330.043 191.897 C 330.043 191.897 336.183 168.412 362.5 158.563 C 388.816 168.412 394.956 191.897 394.956 191.897 C 394.956 191.897 406.359 182.805 412.5 188.108 L 394.078 208.563 L 330.921 208.563 z " id="path763" style="fill:#ffffff;fill-rule:evenodd;stroke:#e60000;stroke-width:3.05061;" transform="matrix(0.425197,0.000000,0.000000,0.394872,217.9134,96.26242)"/>
        <path d="M 358.18 217.127 L 371.651 240.107 L 385.915 217.127 L 358.18 217.127 z " id="path760" style="fill:#ffffff;fill-rule:evenodd;stroke:#e60000;stroke-width:1.25;" transform="translate(-1.202225e-4,-20.42196)"/>
        <path d="M 330.921 208.563 L 312.5 188.108 C 318.641 182.805 330.043 191.897 330.043 191.897 C 330.043 191.897 336.183 168.412 362.5 158.563 C 388.816 168.412 394.956 191.897 394.956 191.897 C 394.956 191.897 406.359 182.805 412.5 188.108 L 394.078 208.563 L 330.921 208.563 z " id="path761" style="fill:#ffffff;fill-rule:evenodd;stroke:#e60000;stroke-width:2.61496;" transform="matrix(0.460630,0.000000,0.000000,0.496063,205.0689,95.81519)"/>
        <path d="M 330.921 208.563 L 312.5 188.108 C 318.641 182.805 330.043 191.897 330.043 191.897 C 330.043 191.897 336.183 168.412 362.5 158.563 C 388.816 168.412 394.956 191.897 394.956 191.897 C 394.956 191.897 406.359 182.805 412.5 188.108 L 394.078 208.563 L 330.921 208.563 z " id="path746" style="fill:#ffffff;fill-rule:evenodd;stroke:#e60000;stroke-width:2.61496;" transform="matrix(0.460630,0.000000,0.000000,0.496063,205.0689,116.2247)"/>
      </g>
    </g>
    <g id="g1584">
      <rect height="26.9863567" id="rect644" style="fill:#ffffff;fill-rule:evenodd;stroke:#e60000;stroke-width:1.0398;" transform="translate(0.000000,354.3307)" width="6.24983883" x="285.342529" y="-90.0699692"/>
      <rect height="26.9863567" id="rect649" style="fill:#ffffff;fill-rule:evenodd;stroke:#e60000;stroke-width:1.0398;" transform="translate(0.000000,354.3307)" width="6.24983883" x="306.592529" y="-90.0724564"/>
      <rect height="26.9863567" id="rect650" style="fill:#ffffff;fill-rule:evenodd;stroke:#e60000;stroke-width:1.0398;" transform="translate(0.000000,354.3307)" width="6.24983883" x="296.592529" y="-90.0729980"/>
      <rect height="26.9863567" id="rect652" style="fill:#ffffff;fill-rule:evenodd;stroke:#e60000;stroke-width:1.0398;" transform="translate(0.000000,354.3307)" width="6.24983883" x="410.137787" y="-90.0714722"/>
      <rect height="26.9863567" id="rect653" style="fill:#ffffff;fill-rule:evenodd;stroke:#e60000;stroke-width:1.0398;" transform="translate(0.000000,354.3307)" width="6.24983883" x="452.637756" y="-90.0727768"/>
      <rect height="26.9863567" id="rect654" style="fill:#ffffff;fill-rule:evenodd;stroke:#e60000;stroke-width:1.0398;" transform="translate(0.000000,354.3307)" width="6.24983883" x="431.387787" y="-90.0739670"/>
      <rect height="26.9863567" id="rect655" style="fill:#ffffff;fill-rule:evenodd;stroke:#e60000;stroke-width:1.0398;" transform="translate(0.000000,354.3307)" width="6.24983883" x="421.387787" y="-90.0745087"/>
      <rect height="26.9863567" id="rect656" style="fill:#ffffff;fill-rule:evenodd;stroke:#e60000;stroke-width:1.0398;" transform="translate(0.000000,354.3307)" width="6.24983883" x="441.387787" y="-90.0745316"/>
      <rect height="26.9863567" id="rect648" style="fill:#ffffff;fill-rule:evenodd;stroke:#e60000;stroke-width:1.0398;" transform="translate(0.000000,354.3307)" width="6.24983883" x="327.842499" y="-90.0712738"/>
      <rect height="26.9863567" id="rect651" style="fill:#ffffff;fill-rule:evenodd;stroke:#e60000;stroke-width:1.0398;" transform="translate(0.000000,354.3307)" width="6.24983883" x="316.592529" y="-90.0730209"/>
    </g>
  </g>
</svg>
