<?xml version="1.0" encoding="UTF-8" standalone="no"?>
<!DOCTYPE svg PUBLIC "-//W3C//DTD SVG 20010904//EN"
"http://www.w3.org/TR/2001/REC-SVG-20010904/DTD/svg10.dtd">
<!-- Created with Sodipodi ("http://www.sodipodi.com/") --><svg height="392.85000pt" id="svg570" inkscape:version="0.39" sodipodi:docbase="/home/cschalle/clipart/openclipart-0.10/signs_and_symbols/flags/oceania/micronesia" sodipodi:docname="kiribati.svg" sodipodi:version="0.32" width="641.46000pt" xmlns="http://www.w3.org/2000/svg" xmlns:cc="http://web.resource.org/cc/" xmlns:dc="http://purl.org/dc/elements/1.1/" xmlns:inkscape="http://www.inkscape.org/namespaces/inkscape" xmlns:rdf="http://www.w3.org/1999/02/22-rdf-syntax-ns#" xmlns:sodipodi="http://sodipodi.sourceforge.net/DTD/sodipodi-0.dtd" xmlns:xlink="http://www.w3.org/1999/xlink">
  <metadata>
    <rdf:RDF xmlns:cc="http://web.resource.org/cc/" xmlns:dc="http://purl.org/dc/elements/1.1/" xmlns:rdf="http://www.w3.org/1999/02/22-rdf-syntax-ns#">
      <cc:Work rdf:about="">
        <dc:title>Kiribati</dc:title>
        <dc:description>HASH(0x85cd6ec)</dc:description>
        <dc:subject>
          <rdf:Bag>
            <rdf:li>hash</rdf:li>
            <rdf:li>micronesia</rdf:li>
            <rdf:li></rdf:li>
            <rdf:li>oceania</rdf:li>
            <rdf:li>flag</rdf:li>
            <rdf:li>sign</rdf:li>
          </rdf:Bag>
        </dc:subject>
        <dc:publisher>
          <cc:Agent rdf:about="http://www.openclipart.org">
            <dc:title>Scott Baker</dc:title>
          </cc:Agent>
        </dc:publisher>
        <dc:creator>
          <cc:Agent>
            <dc:title>Scott Baker</dc:title>
          </cc:Agent>
        </dc:creator>
        <dc:rights>
          <cc:Agent>
            <dc:title>Scott Baker</dc:title>
          </cc:Agent>
        </dc:rights>
        <dc:date></dc:date>
        <dc:format>image/svg+xml</dc:format>
        <dc:type rdf:resource="http://purl.org/dc/dcmitype/StillImage"/>
        <cc:license rdf:resource="http://web.resource.org/cc/PublicDomain"/>
        <dc:language>en</dc:language>
      </cc:Work>
      <cc:License rdf:about="http://web.resource.org/cc/PublicDomain">
        <cc:permits rdf:resource="http://web.resource.org/cc/Reproduction"/>
        <cc:permits rdf:resource="http://web.resource.org/cc/Distribution"/>
        <cc:permits rdf:resource="http://web.resource.org/cc/DerivativeWorks"/>
      </cc:License>
    </rdf:RDF>
  </metadata>
  <defs id="defs572">
    <linearGradient id="linearGradient580">
      <stop id="stop581" offset="0" style="stop-color:#000;stop-opacity:1;"/>
      <stop id="stop582" offset="1" style="stop-color:#fff;stop-opacity:1;"/>
    </linearGradient>
    <linearGradient id="linearGradient583" xlink:href="#linearGradient580"/>
    <linearGradient id="linearGradient584" xlink:href="#linearGradient580"/>
    <linearGradient id="linearGradient585" xlink:href="#linearGradient580"/>
  </defs>
  <sodipodi:namedview id="base" inkscape:cx="331.75588" inkscape:cy="198.42519" inkscape:window-height="763" inkscape:window-width="817" inkscape:window-x="0" inkscape:window-y="28" inkscape:zoom="0.85163977"/>
  <rect height="294.32535" id="rect574" style="font-size:12.000000;fill:#e73e2d;fill-opacity:1.0000000;fill-rule:evenodd;stroke-width:1.0000000pt;" transform="translate(-4.403270,-5.871027)" width="802.62433" x="4.0232301" y="5.7532740"/>
  <path d="M 330.31100,587.19000 C 315.72100,575.79900 288.54700,579.65200 284.07100,548.69000 C 304.87800,564.80700 301.10100,547.76900 332.17700,563.12500 L 330.31100,587.19000 z " id="path605" sodipodi:nodetypes="cccc" style="fill:#fec74a;fill-opacity:1.0000000;fill-rule:evenodd;stroke:#d8aa3f;stroke-width:1.2500000;stroke-linecap:butt;stroke-linejoin:miter;stroke-opacity:1.0000000;" transform="matrix(1.279234,0.000000,0.000000,1.279234,-68.96763,-480.3576)"/>
  <path d="M 330.31100,587.19000 C 315.72100,575.79900 288.54700,579.65200 284.07100,548.69000 C 304.87800,564.80700 301.10100,547.76900 332.17700,563.12500 L 330.31100,587.19000 z " id="path564" sodipodi:nodetypes="cccc" style="fill:#fec74a;fill-opacity:1.0000000;fill-rule:evenodd;stroke:#d8aa3f;stroke-width:1.2500000;stroke-linecap:butt;stroke-linejoin:miter;stroke-opacity:1.0000000;" transform="matrix(1.217721,0.391909,-0.391909,1.217721,186.4396,-591.6989)"/>
  <path d="M 330.31100,587.19000 C 315.72100,575.79900 288.54700,579.65200 284.07100,548.69000 C 304.87800,564.80700 301.10100,547.76900 332.17700,563.12500 L 330.31100,587.19000 z " id="path565" sodipodi:nodetypes="cccc" style="fill:#fec74a;fill-opacity:1.0000000;fill-rule:evenodd;stroke:#d8aa3f;stroke-width:1.2500000;stroke-linecap:butt;stroke-linejoin:miter;stroke-opacity:1.0000000;" transform="matrix(0.975372,0.827700,-0.827700,0.975372,528.4287,-606.1533)"/>
  <path d="M 330.31100,587.19000 C 315.72100,575.79900 288.54700,579.65200 284.07100,548.69000 C 304.87800,564.80700 301.10100,547.76900 332.17700,563.12500 L 330.31100,587.19000 z " id="path566" sodipodi:nodetypes="cccc" style="fill:#fec74a;fill-opacity:1.0000000;fill-rule:evenodd;stroke:#d8aa3f;stroke-width:1.2500000;stroke-linecap:butt;stroke-linejoin:miter;stroke-opacity:1.0000000;" transform="matrix(0.674185,1.087158,-1.087158,0.674185,794.2376,-526.9099)"/>
  <path d="M 330.31100,587.19000 C 315.72100,575.79900 288.54700,579.65200 284.07100,548.69000 C 304.87800,564.80700 301.10100,547.76900 332.17700,563.12500 L 330.31100,587.19000 z " id="path567" sodipodi:nodetypes="cccc" style="fill:#fec74a;fill-opacity:1.0000000;fill-rule:evenodd;stroke:#d8aa3f;stroke-width:1.2500000;stroke-linecap:butt;stroke-linejoin:miter;stroke-opacity:1.0000000;" transform="matrix(0.169977,1.267891,-1.267891,0.169977,1079.339,-300.0892)"/>
  <path d="M 330.31100,587.19000 C 315.72100,575.79900 288.54700,579.65200 284.07100,548.69000 C 304.87800,564.80700 301.10100,547.76900 332.17700,563.12500 L 330.31100,587.19000 z " id="path568" sodipodi:nodetypes="cccc" style="fill:#fec74a;fill-opacity:1.0000000;fill-rule:evenodd;stroke:#d8aa3f;stroke-width:1.2500000;stroke-linecap:butt;stroke-linejoin:miter;stroke-opacity:1.0000000;" transform="matrix(-0.240634,1.256397,-1.256397,-0.240634,1226.275,-52.67349)"/>
  <path d="M 330.31100,587.19000 C 315.72100,575.79900 288.54700,579.65200 284.07100,548.69000 C 304.87800,564.80700 301.10100,547.76900 332.17700,563.12500 L 330.31100,587.19000 z " id="path569" sodipodi:nodetypes="cccc" style="fill:#fec74a;fill-opacity:1.0000000;fill-rule:evenodd;stroke:#d8aa3f;stroke-width:1.2500000;stroke-linecap:butt;stroke-linejoin:miter;stroke-opacity:1.0000000;" transform="matrix(-0.598776,1.130443,-1.130443,-0.598776,1286.460,208.4275)"/>
  <path d="M 330.31100,587.19000 C 315.72100,575.79900 288.54700,579.65200 284.07100,548.69000 C 304.87800,564.80700 301.10100,547.76900 332.17700,563.12500 L 330.31100,587.19000 z " id="path570" sodipodi:nodetypes="cccc" style="fill:#fec74a;fill-opacity:1.0000000;fill-rule:evenodd;stroke:#d8aa3f;stroke-width:1.2500000;stroke-linecap:butt;stroke-linejoin:miter;stroke-opacity:1.0000000;" transform="matrix(-0.892769,0.916187,-0.916187,-0.892769,1271.135,466.2963)"/>
  <path d="M 368.35200,490.63800 L 353.00600,573.37200 L 375.91600,574.53600 L 368.35200,490.63800 L 368.35200,490.63800 z " id="path598" sodipodi:nodetypes="ccccc" style="fill:#fec74a;fill-opacity:1.0000000;fill-rule:evenodd;stroke:#d8aa3f;stroke-width:1.2500000;stroke-linecap:butt;stroke-linejoin:miter;stroke-opacity:1.0000000;" transform="matrix(0.260854,1.252355,-1.252355,0.260854,1040.148,-340.1091)"/>
  <path d="M 368.53300,489.85100 L 353.49800,571.98700 L 381.68300,573.88600 L 368.53300,489.85100 z " id="path597" sodipodi:nodetypes="cccc" style="fill:#fec74a;fill-opacity:1.0000000;fill-rule:evenodd;stroke:#d8aa3f;stroke-width:1.2500000;stroke-linecap:butt;stroke-linejoin:miter;stroke-opacity:1.0000000;" transform="matrix(0.665960,1.092216,-1.092216,0.665960,795.5669,-519.1114)"/>
  <path d="M 380.10300,573.40300 L 368.35200,490.63800 L 353.49200,573.83600 L 380.10300,573.40300 L 380.10300,573.40300 z " id="path596" sodipodi:nodetypes="ccccc" style="fill:#fec74a;fill-opacity:1.0000000;fill-rule:evenodd;stroke:#d8aa3f;stroke-width:1.2500000;stroke-linecap:butt;stroke-linejoin:miter;stroke-opacity:1.0000000;" transform="matrix(1.022641,0.768533,-0.768533,1.022641,478.7986,-609.0929)"/>
  <path d="M 381.86500,573.24000 L 368.35200,490.63800 L 352.94700,573.17300 L 381.86500,573.24000 L 381.86500,573.24000 z " id="path595" sodipodi:nodetypes="ccccc" style="fill:#fec74a;fill-opacity:1.0000000;fill-rule:evenodd;stroke:#d8aa3f;stroke-width:1.2538800;stroke-linecap:butt;stroke-linejoin:miter;stroke-opacity:1.0000000;" transform="matrix(1.214457,0.401911,-0.399430,1.206961,190.9622,-583.6588)"/>
  <path d="M 381.89100,573.40200 L 368.35200,490.63800 L 353.34600,573.76400 L 381.89100,573.40200 L 381.89100,573.40200 z " id="path594" sodipodi:nodetypes="ccccc" style="fill:#fec74a;fill-opacity:1.0000000;fill-rule:evenodd;stroke:#d8aa3f;stroke-width:1.2500000;stroke-linecap:butt;stroke-linejoin:miter;stroke-opacity:1.0000000;" transform="matrix(1.279234,0.000000,0.000000,1.279234,-68.96763,-480.3576)"/>
  <path d="M 378.51100,569.67100 L 368.35200,490.63800 L 350.43400,574.19000 L 378.51100,569.67100 L 378.51100,569.67100 z " id="path604" sodipodi:nodetypes="ccccc" style="fill:#fec74a;fill-opacity:1.0000000;fill-rule:evenodd;stroke:#d8aa3f;stroke-width:1.2526300;stroke-linecap:butt;stroke-linejoin:miter;stroke-opacity:1.0000000;" transform="matrix(1.179097,-0.488596,0.483832,1.181565,-311.3308,-244.0836)"/>
  <path d="M 378.51100,569.67100 L 368.35200,490.63800 L 350.56700,574.12700 L 378.51100,569.67100 z " id="path603" sodipodi:nodetypes="cccc" style="fill:#fec74a;fill-opacity:1.0000000;fill-rule:evenodd;stroke:#d8aa3f;stroke-width:1.2500000;stroke-linecap:butt;stroke-linejoin:miter;stroke-opacity:1.0000000;" transform="matrix(0.943170,-0.864217,0.864217,0.943170,-446.5179,33.23666)"/>
  <path d="M 368.35200,490.63800 L 348.74200,573.10200 L 378.51100,569.67100 L 368.35200,490.63800 z " id="path601" sodipodi:nodetypes="cccc" style="fill:#fec74a;fill-opacity:1.0000000;fill-rule:evenodd;stroke:#d8aa3f;stroke-width:1.2500000;stroke-linecap:butt;stroke-linejoin:miter;stroke-opacity:1.0000000;" transform="matrix(0.564174,-1.148106,1.148106,0.564174,-473.5842,356.1900)"/>
  <path d="M 373.86500,567.25000 L 368.35200,490.63800 L 349.47600,569.02700 L 373.86500,567.25000 z " id="path600" sodipodi:nodetypes="cccc" style="fill:#fec74a;fill-opacity:1.0000000;fill-rule:evenodd;stroke:#d8aa3f;stroke-width:1.2500000;stroke-linecap:butt;stroke-linejoin:miter;stroke-opacity:1.0000000;" transform="matrix(0.109738,-1.274519,1.274519,0.109738,-383.7291,664.6342)"/>
  <path d="M 429.77014 602.07153 A 43.751373 43.751373 0 1 0 342.26740,602.07153 A 43.751373 43.751373 0 1 0 429.77014 602.07153 z" id="path575" sodipodi:cx="386.01877" sodipodi:cy="602.07153" sodipodi:rx="43.751373" sodipodi:ry="43.751373" sodipodi:type="arc" style="fill:#fec74a;fill-opacity:1.0000000;fill-rule:evenodd;stroke:#d8aa3f;stroke-width:1.1869800;stroke-linecap:butt;stroke-linejoin:miter;stroke-opacity:1.0000000;" transform="matrix(1.347157,0.000000,0.000000,1.347157,-118.9616,-543.0454)"/>
  <rect height="200.32587" id="rect586" style="font-size:12.000000;fill:#005989;fill-opacity:1.0000000;fill-rule:evenodd;stroke-width:1.0000000pt;" width="802.18304" x="-1.1928121" y="291.24026"/>
  <path d="M -1.6499387,435.87073 C 13.266234,442.81185 34.634471,460.18513 57.491617,460.16978 C 95.734915,459.92033 96.753332,433.83291 135.49281,435.07376 C 174.33323,436.06773 167.30781,463.53160 219.75439,463.39473 C 263.08632,463.28087 277.08477,430.10522 314.43654,434.07980 C 342.09864,432.64834 353.42007,465.49523 395.93804,465.91226 C 440.03666,466.86017 456.22912,430.11161 483.89250,433.15363 C 513.36272,433.15363 523.01660,462.75127 564.36153,462.96490 C 617.02151,463.23226 626.27927,432.15967 659.22385,434.14760 C 682.67173,433.64998 701.16170,456.92052 735.52338,457.50001 C 762.94142,457.96949 785.89479,437.12821 801.40106,429.67540 L 802.16774,394.30969 C 785.91651,400.38605 761.68533,420.30884 737.45416,420.52759 C 702.58518,421.81067 681.01441,397.53208 656.78323,397.75083 C 627.75131,398.01308 616.18198,427.79364 566.93249,427.79364 C 521.93940,427.79364 511.61595,397.75083 482.58274,397.75083 C 454.20506,397.96958 445.51082,430.42631 396.38272,429.82507 C 356.30665,429.34024 340.69177,398.84330 312.31281,399.06205 C 282.22797,399.06205 251.11832,428.71725 217.80572,427.28579 C 171.82743,425.33240 161.89371,399.06205 131.80887,399.06205 C 109.32446,399.06205 85.058783,423.67963 57.971691,424.09026 C 31.032698,424.50729 0.76934568,399.59421 -2.0336661,399.06205 L -1.6499387,435.87073 z " id="path573" sodipodi:nodetypes="cccscscscsccccscscscscc" style="fill:#ffffff;fill-opacity:1.0000000;fill-rule:evenodd;stroke:none;stroke-width:1.2500000;stroke-linecap:butt;stroke-linejoin:miter;stroke-opacity:1.0000000;"/>
  <path d="M -1.6499288,365.83223 C 13.266244,372.77335 34.634481,390.14663 57.491627,390.13128 C 95.734925,389.88183 96.753342,363.79441 135.49282,365.03526 C 174.33324,366.02923 167.30782,393.49310 219.75440,393.35623 C 263.08633,393.24237 277.08478,360.06672 314.43655,364.04130 C 342.09865,362.60984 353.42008,395.45673 395.93805,395.87376 C 440.03667,396.82167 456.22913,360.07311 483.89251,363.11513 C 513.36273,363.11513 523.01661,392.71277 564.36154,392.92640 C 617.02152,393.19376 626.27928,362.12117 659.22386,364.10910 C 682.67174,363.61148 701.16171,386.88202 735.52339,387.46151 C 762.94143,387.93099 785.89480,367.08971 801.40107,359.63690 L 802.16775,324.27119 C 785.91652,330.34755 761.68534,350.27034 737.45417,350.48909 C 702.58519,351.77217 681.01442,327.49358 656.78324,327.71233 C 627.75132,327.97458 616.18199,357.75514 566.93250,357.75514 C 521.93941,357.75514 511.61596,327.71233 482.58275,327.71233 C 454.20507,327.93108 445.51083,360.38781 396.38273,359.78657 C 356.30666,359.30174 340.69178,328.80480 312.31282,329.02355 C 282.22798,329.02355 251.11833,358.67875 217.80573,357.24729 C 171.82744,355.29390 161.89372,329.02355 131.80888,329.02355 C 109.32447,329.02355 85.058793,353.64113 57.971701,354.05176 C 31.032708,354.46879 0.76935563,329.55571 -2.0336562,329.02355 L -1.6499288,365.83223 z " id="path578" sodipodi:nodetypes="cccscscscsccccscscscscc" style="fill:#ffffff;fill-opacity:1.0000000;fill-rule:evenodd;stroke:none;stroke-width:1.2500000;stroke-linecap:butt;stroke-linejoin:miter;stroke-opacity:1.0000000;"/>
  <path d="M -1.6496622,296.54653 C 13.279750,303.48765 34.666953,320.86093 57.544386,320.84558 C 95.821628,320.59613 96.840949,294.50871 135.61481,295.74956 C 174.48970,296.74353 167.45805,324.20740 219.95118,324.07053 C 263.32157,323.95667 277.33244,290.78102 314.71736,294.75560 C 342.40402,293.32414 353.73550,326.17103 396.29120,326.58806 C 440.42897,327.53597 456.63579,290.78741 484.32373,293.82943 C 513.82010,293.82943 523.48255,323.42707 564.86418,323.64070 C 617.57090,323.90806 626.83687,292.83547 659.81070,294.82340 C 683.27939,294.32578 701.78577,317.59632 736.17795,318.17581 C 763.62033,318.64529 786.59407,297.80401 802.11410,290.35120 L 802.88147,254.98549 C 786.61581,261.06185 762.36313,280.98464 738.11044,281.20339 C 703.21052,282.48647 681.62060,258.20788 657.36791,258.42663 C 628.31022,258.68888 616.73063,288.46944 567.43743,288.46944 C 522.40440,288.46944 512.07178,258.42663 483.01281,258.42663 C 454.60994,258.64538 445.90798,291.10211 396.73628,290.50087 C 356.62464,290.01604 340.99590,259.51910 312.59175,259.73785 C 282.48021,259.73785 251.34295,289.39305 218.00078,287.96159 C 171.98168,286.00820 162.03914,259.73785 131.92760,259.73785 C 109.42324,259.73785 85.136020,284.35543 58.024886,284.76606 C 31.061983,285.18309 0.77176944,260.27001 -2.0337302,259.73785 L -1.6496622,296.54653 z " id="path579" sodipodi:nodetypes="cccscscscsccccscscscscc" style="fill:#ffffff;fill-opacity:1.0000000;fill-rule:evenodd;stroke:none;stroke-width:1.2500000;stroke-linecap:butt;stroke-linejoin:miter;stroke-opacity:1.0000000;"/>
  <path d="M 279.64600,432.43200 C 325.47500,429.29400 317.12200,425.38000 335.56800,422.43600 C 358.81300,425.63200 361.47100,439.70500 374.42300,448.33900 C 374.42300,448.33900 369.55500,464.79900 353.62400,462.46900 C 351.48200,455.86600 361.33600,453.82500 332.98200,436.54000 C 316.49800,435.55900 287.00200,439.43300 279.64600,432.43200 z " id="path587" sodipodi:nodetypes="cccccc" style="fill:#ffc84b;fill-opacity:1.0000000;fill-rule:evenodd;stroke:#d8aa3f;stroke-width:1.0000000pt;stroke-linecap:butt;stroke-linejoin:miter;stroke-opacity:1.0000000;" transform="matrix(1.279234,0.000000,0.000000,1.279234,-68.96763,-480.3576)"/>
  <path d="M 385.68900,468.00200 L 418.70400,466.64300 L 418.70400,458.48600 C 396.43500,457.77400 392.42100,460.75200 385.68900,468.00200 z " id="path591" sodipodi:nodetypes="cccc" style="fill:#ffc84b;fill-opacity:1.0000000;fill-rule:evenodd;stroke:#d8aa3f;stroke-width:1.0000000pt;stroke-linecap:butt;stroke-linejoin:miter;stroke-opacity:1.0000000;" transform="matrix(-1.279234,1.566557e-16,-1.566557e-16,-1.279234,963.8983,704.0916)"/>
  <path d="M 308.19500,456.53800 C 313.94900,453.59500 316.81100,454.79600 321.79600,454.60200 C 325.22700,460.81600 328.46400,461.39900 335.97300,462.17600 C 347.43100,478.29500 363.55000,478.48900 365.88000,478.48900 C 388.34300,477.90600 395.46400,462.17600 410.54700,460.42800 L 426.47200,460.42800 C 423.81800,455.89700 421.74600,453.30700 415.98500,453.04800 C 404.13800,452.40100 388.79700,452.72500 375.39700,455.76700 L 356.55900,460.42800 C 351.05600,457.77400 337.59200,443.66200 328.98200,443.92100 C 323.93300,445.28000 323.93300,447.02800 321.40800,448.97000 C 316.55300,451.04200 311.69700,450.04900 308.19500,456.53800 z " id="path590" sodipodi:nodetypes="cccccccccccc" style="fill:#ffc84b;fill-opacity:1.0000000;fill-rule:evenodd;stroke:#d8aa3f;stroke-width:1.2500000;stroke-linecap:butt;stroke-linejoin:round;stroke-opacity:1.0000000;" transform="matrix(1.279234,0.000000,0.000000,1.279234,-68.96763,-480.3576)"/>
  <path d="M 330.53529 451.10641 A 3.1072540 3.1072690 0 1 0 324.32079,451.10641 A 3.1072540 3.1072690 0 1 0 330.53529 451.10641 z" id="path589" sodipodi:cx="327.42804" sodipodi:cy="451.10641" sodipodi:rx="3.1072540" sodipodi:ry="3.1072690" sodipodi:type="arc" style="fill:#ffc84b;fill-opacity:1.0000000;fill-rule:evenodd;stroke:#d8aa3f;stroke-width:1.6302700;stroke-linecap:butt;stroke-linejoin:miter;stroke-opacity:1.0000000;" transform="matrix(0.980842,0.000000,0.000000,0.980842,30.12473,-347.6059)"/>
  <path d="M 346.26600,456.35000 C 379.99300,415.69700 409.44700,420.68100 447.83500,417.89800 C 449.13000,422.62400 448.67700,429.68000 430.35700,435.95900 C 405.30500,439.64900 360.44300,466.06000 360.24900,466.06000 C 351.89700,465.67200 346.07100,456.93300 346.26600,456.35000 z " id="path588" sodipodi:nodetypes="ccccc" style="fill:#ffc84b;fill-opacity:1.0000000;fill-rule:evenodd;stroke:#d8aa3f;stroke-width:1.0000000pt;stroke-linecap:butt;stroke-linejoin:miter;stroke-opacity:1.0000000;" transform="matrix(1.279234,0.000000,0.000000,1.279234,-68.96763,-480.3576)"/>
  <path d="M 415.56200,429.86500 L 440.43600,430.94300" id="path592" sodipodi:nodetypes="cc" style="fill:none;fill-opacity:1.0000000;fill-rule:evenodd;stroke:#d9a43e;stroke-width:1.0000000pt;stroke-linecap:round;stroke-linejoin:miter;stroke-opacity:1.0000000;" transform="matrix(1.279234,0.000000,0.000000,1.279234,-68.96763,-480.3576)"/>
  <path d="M 412.85700,433.92300 L 430.98800,435.40200" id="path593" sodipodi:nodetypes="cc" style="fill:none;fill-opacity:1.0000000;fill-rule:evenodd;stroke:#d9a43e;stroke-width:1.0000000pt;stroke-linecap:round;stroke-linejoin:miter;stroke-opacity:1.0000000;" transform="matrix(1.279234,0.000000,0.000000,1.279234,-68.96763,-480.3576)"/>
</svg>
