<?xml version="1.0" encoding="UTF-8" standalone="no"?>
<!DOCTYPE svg PUBLIC "-//W3C//DTD SVG 20010904//EN"
"http://www.w3.org/TR/2001/REC-SVG-20010904/DTD/svg10.dtd">
<!-- Created with Sodipodi ("http://www.sodipodi.com/") --><svg height="210mm" id="svg378" sodipodi:docbase="/home/yemu/clipart/flags" sodipodi:docname="/home/yemu/clipart/flags/south-korea.svg" sodipodi:version="0.32-hydra1" version="1" width="299.999mm" x="0" xmlns="http://www.w3.org/2000/svg" xmlns:sodipodi="http://sodipodi.sourceforge.net/DTD/sodipodi-0.dtd" xmlns:xlink="http://www.w3.org/1999/xlink" y="0">
  <metadata>
    <rdf:RDF xmlns:cc="http://web.resource.org/cc/" xmlns:dc="http://purl.org/dc/elements/1.1/" xmlns:rdf="http://www.w3.org/1999/02/22-rdf-syntax-ns#">
      <cc:Work rdf:about="">
        <dc:title>South Korea</dc:title>
        <dc:description></dc:description>
        <dc:subject>
          <rdf:Bag>
            <rdf:li></rdf:li>
            <rdf:li>asia</rdf:li>
            <rdf:li>united_nations_member</rdf:li>
            <rdf:li>flag</rdf:li>
            <rdf:li>sign</rdf:li>
          </rdf:Bag>
        </dc:subject>
        <dc:publisher>
          <cc:Agent rdf:about="http://www.openclipart.org">
            <dc:title>Cezary Biele</dc:title>
          </cc:Agent>
        </dc:publisher>
        <dc:creator>
          <cc:Agent>
            <dc:title>Cezary Biele</dc:title>
          </cc:Agent>
        </dc:creator>
        <dc:rights>
          <cc:Agent>
            <dc:title>Cezary Biele</dc:title>
          </cc:Agent>
        </dc:rights>
        <dc:date></dc:date>
        <dc:format>image/svg+xml</dc:format>
        <dc:type rdf:resource="http://purl.org/dc/dcmitype/StillImage"/>
        <cc:license rdf:resource="http://web.resource.org/cc/PublicDomain"/>
        <dc:language>en</dc:language>
      </cc:Work>
      <cc:License rdf:about="http://web.resource.org/cc/PublicDomain">
        <cc:permits rdf:resource="http://web.resource.org/cc/Reproduction"/>
        <cc:permits rdf:resource="http://web.resource.org/cc/Distribution"/>
        <cc:permits rdf:resource="http://web.resource.org/cc/DerivativeWorks"/>
      </cc:License>
    </rdf:RDF>
  </metadata>
  <sodipodi:namedview id="base"/>
  <defs id="defs380"/>
  <rect height="744.094421" id="rect149" style="font-size:12;fill:#ffffff;fill-rule:evenodd;stroke:#000000;stroke-width:1.0247pt;" transform="matrix(-1.000000,0.000000,0.000000,-1.000000,-7.629395e-4,35.43352)" width="1062.989990" x="-1062.989990" y="-708.660965"/>
  <path d="M 495.862305 1147.964233 A 163.791611 163.791626 0 1 0 168.279068,1147.964233 A 163.792 163.792 0 1 0 495.862 1147.96 L 332.070679 1147.964233 z" id="path607" sodipodi:cx="332.070679" sodipodi:cy="1147.964233" sodipodi:rx="163.791611" sodipodi:ry="163.791626" sodipodi:type="arc" style="fill-rule:evenodd;stroke:none;fill:#ffffff;fill-opacity:1;stroke-opacity:1;stroke-width:1pt;stroke-linejoin:miter;stroke-linecap:butt;" transform="translate(44.87442,-775.9170)"/>
  <path d="M 733.696655 381.733582 A 227.737640 227.737656 0 1 0 278.221375,381.733582 A 227.738 227.738 0 1 0 733.697 381.734 L 505.959015 381.733582 z" id="path635" sodipodi:cx="505.959015" sodipodi:cy="381.733582" sodipodi:rx="227.737640" sodipodi:ry="227.737656" sodipodi:type="arc" style="fill-rule:evenodd;stroke:none;fill:#c70000;fill-opacity:1;stroke-opacity:1;stroke-width:1pt;stroke-linejoin:miter;stroke-linecap:butt;" transform="matrix(0.928572,0.000000,0.000000,0.938424,64.91145,23.35527)"/>
  <rect height="38.143236" id="rect636" style="font-size:12;fill:#000000;fill-rule:evenodd;stroke-width:1pt;fill-opacity:1;" transform="matrix(0.654009,-0.756487,0.756487,0.654009,0.000000,0.000000)" width="186.228861" x="-71.977884" y="197.213366"/>
  <rect height="38.143236" id="rect637" style="font-size:12;fill:#000000;fill-rule:evenodd;stroke-width:1pt;fill-opacity:1;" transform="matrix(0.654009,-0.756487,0.756487,0.654009,0.000000,0.000000)" width="186.228861" x="-71.977884" y="249.940896"/>
  <rect height="38.143236" id="rect638" style="font-size:12;fill:#000000;fill-rule:evenodd;stroke-width:1pt;fill-opacity:1;" transform="matrix(0.654009,-0.756487,0.756487,0.654009,0.000000,0.000000)" width="186.228861" x="-71.977884" y="197.213366"/>
  <rect height="38.143236" id="rect639" style="font-size:12;fill:#000000;fill-rule:evenodd;stroke-width:1pt;fill-opacity:1;" transform="matrix(0.654009,-0.756487,0.756487,0.654009,0.000000,0.000000)" width="186.228861" x="-71.977884" y="197.213366"/>
  <rect height="38.143236" id="rect640" style="font-size:12;fill:#000000;fill-rule:evenodd;stroke-width:1pt;fill-opacity:1;" transform="matrix(0.654009,-0.756487,0.756487,0.654009,0.000000,0.000000)" width="186.228861" x="-71.977884" y="303.790251"/>
  <rect height="38.143236" id="rect641" style="font-size:12;fill:#000000;fill-rule:evenodd;stroke-width:1pt;fill-opacity:1;" transform="matrix(0.654009,-0.756487,0.756487,0.654009,0.000000,0.000000)" width="186.228861" x="-71.977884" y="197.213366"/>
  <rect height="38.143236" id="rect643" style="font-size:12;fill:#000000;fill-rule:evenodd;stroke-width:1pt;fill-opacity:1;" transform="matrix(0.654009,-0.756487,0.756487,0.654009,0.000000,0.000000)" width="186.228861" x="-71.977884" y="197.213366"/>
  <rect height="38.143263" id="rect644" style="font-size:12;fill:#000000;fill-rule:evenodd;stroke-width:1pt;fill-opacity:1;" transform="matrix(0.648864,0.760905,-0.760905,0.648864,0.000000,0.000000)" width="186.229013" x="579.260157" y="-613.766802"/>
  <rect height="38.143263" id="rect645" style="font-size:12;fill:#000000;fill-rule:evenodd;stroke-width:1pt;fill-opacity:1;" transform="matrix(0.648864,0.760905,-0.760905,0.648864,0.000000,0.000000)" width="186.229013" x="579.260156" y="-507.189819"/>
  <path d="M 781.937 193.261 L 896.367 94.5371 L 917.682 119.218 L 795.399 229.16 L 781.937 193.261 z " id="path649" style="fill:#ffffff;fill-rule:evenodd;stroke:none;stroke-opacity:1;stroke-width:1pt;stroke-linejoin:miter;stroke-linecap:butt;fill-opacity:1;"/>
  <rect height="37.332834" id="rect646" style="font-size:12;fill:#000000;fill-rule:evenodd;stroke-width:1pt;fill-opacity:1;" transform="matrix(-0.642816,0.766021,-0.768811,-0.639476,0.000000,0.000000)" width="182.128895" x="-174.153884" y="-1054.515090"/>
  <rect height="38.143263" id="rect642" style="font-size:12;fill:#000000;fill-rule:evenodd;stroke-width:1pt;fill-opacity:1;" transform="matrix(0.648864,0.760905,-0.760905,0.648864,0.000000,0.000000)" width="186.229013" x="579.260156" y="-561.039239"/>
  <rect height="37.332834" id="rect647" style="font-size:12;fill:#000000;fill-rule:evenodd;stroke-width:1pt;fill-opacity:1;" transform="matrix(-0.642816,0.766021,-0.768811,-0.639476,0.000000,0.000000)" width="182.128895" x="-174.153884" y="-1106.122279"/>
  <rect height="37.332834" id="rect648" style="font-size:12;fill:#000000;fill-rule:evenodd;stroke-width:1pt;fill-opacity:1;" transform="matrix(-0.642816,0.766021,-0.768811,-0.639476,0.000000,0.000000)" width="182.128895" x="-174.153885" y="-1001.809791"/>
  <path d="M 326.332 343.919 C 333.017 397.746 342.778 457.727 425.617 463.958 C 456.666 465.818 517.066 456.572 537.803 371.966 C 565.009 290.69 646.952 267.323 702.716 311.385 C 734.333 332.008 743.081 364.764 745.347 389.354 C 742.816 468.321 697.489 536.687 639.331 567.169 C 572.462 606.912 479.84 607.746 398.692 547.537 C 362.112 513.214 311.021 449.964 326.332 343.919 z " id="path653" sodipodi:nodetypes="cccccccc" style="fill:#3d5897;fill-rule:evenodd;stroke:none;stroke-opacity:1;stroke-width:1pt;stroke-linejoin:miter;stroke-linecap:butt;fill-opacity:1;"/>
  <path d="M 808.665 538.868 L 923.287 637.369 L 902.045 662.113 L 775.163 557.512 L 808.665 538.868 z " id="path654" style="fill:#ffffff;fill-rule:evenodd;stroke:none;stroke-opacity:1;stroke-width:1pt;stroke-linejoin:miter;stroke-linecap:butt;fill-opacity:1;"/>
  <rect height="38.143282" id="rect658" style="font-size:12;fill-rule:evenodd;stroke-width:1pt;" transform="matrix(0.648864,0.760905,-0.760905,0.648864,1.586552,4.759689)" width="186.229104" x="501.698764" y="204.768659"/>
  <path d="M 148.903 631.149 L 263.333 532.425 L 284.648 557.106 L 162.365 667.048 L 148.903 631.149 z " id="path657" style="font-size:12;fill:#ffffff;fill-rule:evenodd;stroke-width:1pt;" transform="translate(1.586552,4.759689)"/>
  <rect height="38.143282" id="rect655" style="font-size:12;fill-rule:evenodd;stroke-width:1pt;" transform="matrix(0.648864,0.760905,-0.760905,0.648864,1.586552,4.759689)" width="186.229104" x="501.698764" y="152.041097"/>
  <rect height="38.143282" id="rect656" style="font-size:12;fill-rule:evenodd;stroke-width:1pt;" transform="matrix(0.648864,0.760905,-0.760905,0.648864,1.586552,4.759689)" width="186.229104" x="501.698764" y="258.618110"/>
</svg>
