<?xml version="1.0" encoding="UTF-8" standalone="no"?>
<!-- Created with Sodipodi ("http://www.sodipodi.com/") -->
<svg
   xmlns:dc="http://purl.org/dc/elements/1.1/"
   xmlns:cc="http://web.resource.org/cc/"
   xmlns:rdf="http://www.w3.org/1999/02/22-rdf-syntax-ns#"
   xmlns:svg="http://www.w3.org/2000/svg"
   xmlns="http://www.w3.org/2000/svg"
   xmlns:sodipodi="http://inkscape.sourceforge.net/DTD/sodipodi-0.dtd"
   xmlns:inkscape="http://www.inkscape.org/namespaces/inkscape"
   version="1"
   x="0.00000000"
   y="0.00000000"
   width="1000.00000"
   height="500.000000"
   id="svg1"
   sodipodi:version="0.32"
   sodipodi:docname="Flag_of_the_Cayman_Islands.svg"
   sodipodi:docbase="C:\DOCUME~1\DAVIDN~1\Archives\Svg"
   inkscape:version="0.43">
  <metadata
     id="metadata3868">
    <rdf:RDF>
      <cc:Work
         rdf:about="">
        <dc:format>image/svg+xml</dc:format>
        <dc:type
           rdf:resource="http://purl.org/dc/dcmitype/StillImage" />
      </cc:Work>
    </rdf:RDF>
  </metadata>
  <sodipodi:namedview
     id="base"
     inkscape:zoom="0.66500003"
     inkscape:cx="499.99998"
     inkscape:cy="250.00001"
     inkscape:window-width="756"
     inkscape:window-height="540"
     inkscape:window-x="131"
     inkscape:window-y="42"
     inkscape:current-layer="svg1" />
  <defs
     id="defs3" />
  <rect
     width="120.000000"
     height="60.0000000"
     x="0.00000000"
     y="0.00000000"
     style="font-size:12;fill:#000066;stroke-width:1pt;fill-opacity:1"
     id="rect124"
     transform="scale(8.333333,8.333333)" />
  <rect
     style="opacity:1;fill:#000066;fill-opacity:1;fill-rule:evenodd;stroke:none;stroke-width:1;stroke-linecap:butt;stroke-linejoin:miter;stroke-miterlimit:4;stroke-dasharray:none;stroke-dashoffset:0;stroke-opacity:1"
     id="rect4050"
     width="500"
     height="250"
     x="0"
     y="-7.6293945e-006" />
  <g
     id="g584"
     transform="scale(8.333333,8.333333)"
     style="font-size:12;">
    <path
       d="M 0 0 L 0 3.3541 L 53.2918 30 L 60 30 L 60 26.6459 L 6.7082 0 L 0 0 z M 60 0 L 60 3.35405 L 6.7082 30 L 0 30 L 0 26.6458 L 53.2918 0 L 60 0 z "
       style="fill:#ffffff;stroke-width:1pt;"
       id="path146" />
    <path
       d="M 25 0 L 25 30 L 35 30 L 35 0 L 25 0 z M 0 10 L 0 20 L 60 20 L 60 10 L 0 10 z "
       style="fill:#ffffff;stroke-width:1pt;"
       id="path136" />
    <path
       d="M 0 12 L 0 18 L 60 18 L 60 12 L 0 12 z M 27 0 L 27 30 L 33 30 L 33 0 L 27 0 z "
       style="fill:#cc0000;stroke-width:1pt;"
       id="path141" />
    <path
       d="M 0 30 L 20 20 L 24.4721 20 L 4.47214 30 L 0 30 z M 0 0 L 20 10 L 15.5279 10 L 0 2.23607 L 0 0 z M 35.5279 10 L 55.5279 0 L 60 0 L 40 10 L 35.5279 10 z M 60 30 L 40 20 L 44.4721 20 L 60 27.7639 L 60 30 z "
       style="fill:#cc0000;stroke-width:1pt;"
       id="path150" />
  </g>
  <g
     id="g4245">
    <path
       style="font-size:12px;fill:#ffffff;fill-rule:evenodd;stroke-width:1pt"
       d="M 714.20493,130.30353 C 713.21886,130.89929 711.24701,132.68693 709.27487,132.09117 C 707.30303,131.49541 702.86615,123.74873 697.93609,124.94061 C 693.00603,126.13213 690.04812,127.92013 688.07627,127.92013 C 686.10413,127.92013 680.68119,129.70777 680.68119,134.47457 C 680.68119,139.24173 681.17437,142.81737 682.16014,142.81737 C 683.14622,142.81737 684.62517,139.83785 684.62517,139.83785 C 684.62517,139.83785 685.11806,145.79653 688.56916,145.79653 C 692.02026,145.79653 699.41505,146.39265 699.90794,148.1803 C 700.40112,149.96794 696.45714,154.13898 697.44321,157.71462 C 698.42898,161.2899 702.86615,167.24858 702.86615,167.24858 C 702.86615,167.24858 696.45714,172.01574 696.45714,174.99526 C 696.45714,177.97478 697.44321,180.9543 697.44321,180.9543 L 668.84952,182.14582 C 668.84952,182.14582 666.87738,266.76321 667.86345,273.31874 C 668.84952,279.87064 671.31425,295.96049 671.31425,295.96049 C 671.31425,295.96049 664.90524,293.87678 659.48229,299.24007 C 654.05935,304.60335 635.07925,313.83689 634.58627,318.00793 C 634.09324,322.17897 632.36778,325.7557 634.33977,328.7345 C 636.31173,331.7133 643.25048,339.80895 641.24173,339.46107 C 634.62306,338.31956 632.16046,328.91569 627.68434,325.45855 C 623.28659,322.06301 614.61998,322.77691 613.634,326.35001 C 612.64802,329.92674 613.14099,335.88434 613.634,337.07658 C 614.12701,338.26882 619.54992,357.33747 621.02891,361.50851 C 622.5079,365.67955 638.03722,371.9343 644.93916,371.33999 C 658.00333,371.63714 663.91946,365.67955 664.41235,366.27748 C 664.90554,366.87179 692.51825,395.34793 749.20733,395.47476 C 793.33652,395.5726 826.60752,366.87179 826.60752,367.46972 C 826.60752,368.06403 844.8485,373.42732 851.25722,371.64076 C 857.66623,369.85059 867.03317,365.67955 869.00501,361.50851 C 870.97715,357.33747 876.4001,335.88434 876.89299,332.31123 C 877.38617,328.7345 876.89299,324.56346 872.45611,323.37122 C 868.01924,322.17897 865.55421,322.47613 863.08918,323.66837 C 860.62415,324.86061 859.88452,328.14019 856.18728,334.09778 C 854.21543,335.88796 849.03893,340.65331 850.51789,339.46107 C 851.99685,338.26882 855.2012,329.33243 855.69439,326.35001 C 856.18728,323.37122 857.66623,318.00793 854.21543,315.02914 C 850.76433,312.05034 845.4784,310.83273 839.42525,306.3899 C 833.67702,302.45079 829.07285,295.96049 825.62175,295.96049 C 822.17065,295.96049 818.22666,294.17394 818.71985,294.17394 C 819.21273,294.17394 823.16481,285.51658 822.17874,276.58019 C 821.19297,267.64018 822.66353,182.14582 822.17065,182.14582 C 821.67776,182.14582 797.52095,183.93383 797.52095,182.74194 C 797.52095,181.55006 799.49279,173.20762 797.52095,167.8447 C 795.54911,162.48178 787.16795,158.90614 789.63298,157.71462 C 792.09801,156.52274 802.9439,153.54322 802.45101,148.77605 C 801.95782,144.00889 795.05592,144.60501 792.09801,142.81737 C 789.14009,141.02937 780.26604,132.68693 779.28027,132.68693 C 778.2942,132.68693 804.91574,116.5978 802.9439,116.5978 C 800.97205,116.5978 790.61875,113.61865 787.16795,115.40629 C 787.16795,112.42676 801.46494,103.48856 799.00021,102.29668 C 796.53518,101.1048 785.1961,99.912921 788.15402,99.317161 C 791.11193,98.721402 792.09801,91.570478 791.60512,91.570478 C 791.11193,91.570478 778.78709,93.358481 778.78709,93.358481 C 778.78709,93.358481 775.82917,89.187079 774.8431,89.187079 C 773.85733,89.187079 769.42015,91.570478 769.42015,91.570478 L 766.95542,85.015677 L 761.53248,88.59132 L 759.06745,85.611798 C 759.06745,85.611798 754.63057,86.803679 754.63057,85.611798 C 754.81706,85.569037 754.1197,82.619594 753.42264,82.619594 C 752.72529,82.619594 747.845,86.411942 747.67051,86.201035 C 747.49632,85.99049 742.09316,78.406155 742.09316,78.6167 C 742.09316,78.827608 738.25831,92.942827 738.08412,92.942827 C 737.90993,92.942827 734.24956,93.364279 734.07537,93.574824 C 733.90088,93.785732 714.55361,82.409049 714.7281,82.619594 C 714.90228,82.830501 719.78258,93.574824 719.78258,93.574824 C 719.78258,93.574824 715.59934,95.892632 715.59934,96.103178 C 715.59934,96.313723 716.2967,100.94861 716.2967,100.94861 L 703.39831,96.52463 C 703.39831,96.52463 708.2789,106.42641 707.93023,106.42641 C 707.58155,106.42641 698.34383,106.84786 698.51802,106.84786 C 698.69221,106.84786 702.87545,115.0642 702.87545,115.0642 L 701.30685,119.90999 C 701.30685,119.90999 715.191,129.70777 714.20493,130.30353 z M 796.53518,337.67451 C 797.76769,339.46107 804.42285,347.80315 803.43708,347.80315 C 802.45101,347.80315 785.93573,358.82687 779.28027,360.9142 C 772.62481,362.99791 750.93303,366.87179 752.16555,366.57464 C 753.39806,366.27748 771.64504,356.28655 779.03982,351.52121 C 786.43491,346.75586 796.53518,338.26882 796.53518,337.67451 z M 693.49922,337.37373 C 692.51315,338.56598 687.82983,347.80315 687.82983,347.80315 C 687.82983,347.80315 701.38719,357.33747 711.49346,360.9142 C 721.59972,364.4873 738.85463,365.67955 737.86855,365.38239 C 736.88278,365.08524 716.17677,355.84807 710.26094,351.08272 C 704.34511,346.31375 693.74566,337.37373 693.49922,337.37373 z "
       id="path852"
       sodipodi:nodetypes="ccccccccccccccccccccccccccccccccccccccccccccccccccccccccccccccccccccccccccccccccccccccc" />
    <g
       id="g820"
       transform="matrix(0.299809,0,0,0.362384,585.9998,193.8939)"
       style="font-size:12px">
      <path
         style="fill:#fec500;fill-opacity:1;fill-rule:evenodd;stroke:#6d6666;stroke-width:1.25;stroke-linecap:butt;stroke-linejoin:miter;stroke-dasharray:none;stroke-opacity:1"
         d="M 394.646,-212.972 C 394.646,-212.972 423.423,-195.707 430,-191.596 C 436.577,-187.485 457.954,-169.397 459.598,-170.219 C 461.243,-171.041 472.753,-180.085 472.753,-180.085 C 472.753,-180.085 448.91,-198.995 434.111,-203.106 C 419.312,-207.217 394.646,-211.328 394.646,-212.972 z "
         id="path793" />
      <path
         style="fill:#fec500;fill-opacity:1;fill-rule:evenodd;stroke:#6d6666;stroke-width:1.25;stroke-linecap:butt;stroke-linejoin:miter;stroke-dasharray:none;stroke-opacity:1"
         d="M 390.535,-231.883 C 393.002,-231.883 438.222,-208.861 452.199,-197.351 C 466.176,-185.841 471.931,-171.041 473.576,-171.041 C 475.22,-171.041 496.597,-174.33 495.774,-174.33 C 494.952,-174.33 485.908,-203.928 465.354,-212.972 C 444.799,-222.016 391.358,-231.883 390.535,-231.883 z "
         id="path795" />
      <path
         style="fill:#fec500;fill-opacity:1;fill-rule:evenodd;stroke:#6d6666;stroke-width:1.25;stroke-linecap:butt;stroke-linejoin:miter;stroke-dasharray:none;stroke-opacity:1"
         d="M 603.48,-296.013 C 602.658,-296.013 594.436,-271.347 591.969,-263.948 C 589.503,-256.548 585.392,-240.927 585.392,-240.927 C 585.392,-240.927 549.216,-237.638 550.86,-241.749 C 552.505,-245.86 605.946,-296.013 603.48,-296.013 z "
         id="path803"
         transform="translate(0,4.650925)" />
      <path
         style="fill:#fec500;fill-opacity:1;fill-rule:evenodd;stroke:#6d6666;stroke-width:1.25;stroke-linecap:butt;stroke-linejoin:miter;stroke-dasharray:none;stroke-opacity:1"
         d="M 398.757,-261.481 C 398.757,-261.481 441.511,-232.705 456.31,-216.261 C 471.109,-199.818 485.908,-171.041 486.73,-171.041 C 487.553,-171.041 527.017,-179.263 527.017,-178.441 C 527.017,-177.619 480.975,-224.483 458.776,-238.46 C 436.577,-252.437 399.579,-259.837 398.757,-261.481 z "
         id="path796" />
      <path
         style="fill:#fec500;fill-opacity:1;fill-rule:evenodd;stroke:#6d6666;stroke-width:1.25;stroke-linecap:butt;stroke-linejoin:miter;stroke-dasharray:none;stroke-opacity:1"
         d="M 443.155,-273.814 C 443.155,-273.814 464.532,-240.927 468.642,-229.416 C 472.753,-217.906 485.086,-188.307 485.086,-188.307 L 518.795,-188.307 C 518.795,-188.307 502.352,-225.305 484.264,-243.393 C 466.176,-261.481 443.977,-272.169 443.155,-273.814 z "
         id="path797"
         transform="translate(0,4.650925)" />
      <path
         style="fill:#fec500;fill-opacity:1;fill-rule:evenodd;stroke:#6d6666;stroke-width:1.25;stroke-linecap:butt;stroke-linejoin:miter;stroke-dasharray:none;stroke-opacity:1"
         d="M 454.665,-291.902 C 455.488,-289.435 485.908,-260.659 493.308,-241.749 C 500.707,-222.839 506.463,-198.995 506.463,-198.995 L 536.061,-206.395 C 536.061,-206.395 509.751,-254.904 493.308,-268.059 C 476.864,-281.213 456.31,-290.257 454.665,-291.902 z "
         id="path798"
         transform="translate(0,4.650925)" />
      <path
         style="fill:#fec500;fill-opacity:1;fill-rule:evenodd;stroke:#6d6666;stroke-width:1.25;stroke-linecap:butt;stroke-linejoin:miter;stroke-dasharray:none;stroke-opacity:1"
         d="M 700.497,-209.684 C 700.497,-209.684 638.834,-203.106 616.635,-197.351 C 594.436,-191.596 582.103,-170.219 582.103,-170.219 C 582.103,-170.219 610.88,-159.531 612.524,-161.175 C 614.168,-162.819 631.434,-180.085 650.344,-186.663 C 669.254,-193.24 702.141,-208.862 700.497,-209.684 z "
         id="path799" />
      <path
         style="fill:#fec500;fill-opacity:1;fill-rule:evenodd;stroke:#6d6666;stroke-width:1.25;stroke-linecap:butt;stroke-linejoin:miter;stroke-dasharray:none;stroke-opacity:1"
         d="M 698.031,-249.971 C 696.386,-249.148 647.056,-208.861 631.434,-195.707 C 615.813,-182.552 601.013,-168.575 599.369,-167.753 C 597.725,-166.93 567.304,-171.863 568.948,-173.508 C 570.593,-175.152 614.168,-210.506 642.945,-226.127 C 671.721,-241.749 695.564,-248.326 698.031,-249.971 z "
         id="path800" />
      <path
         style="fill:#fec500;fill-opacity:1;fill-rule:evenodd;stroke:#6d6666;stroke-width:1.25;stroke-linecap:butt;stroke-linejoin:miter;stroke-dasharray:none;stroke-opacity:1"
         d="M 685.698,-278.747 C 680.765,-272.992 632.256,-233.527 619.101,-219.55 C 605.946,-205.573 584.57,-180.907 584.57,-180.907 C 584.57,-180.907 559.082,-192.418 560.727,-197.351 C 562.371,-202.284 596.902,-231.06 621.568,-247.504 C 646.233,-263.948 688.164,-277.103 685.698,-278.747 z "
         id="path801" />
      <path
         style="fill:#fec500;fill-opacity:1;fill-rule:evenodd;stroke:#6d6666;stroke-width:1.25;stroke-linecap:butt;stroke-linejoin:miter;stroke-dasharray:none;stroke-opacity:1"
         d="M 636.367,-282.036 C 635.545,-281.213 606.769,-250.793 601.013,-242.571 C 595.258,-234.349 577.992,-198.173 577.992,-198.173 C 577.992,-198.173 552.505,-220.372 552.505,-221.194 C 552.505,-222.016 584.57,-255.726 603.48,-268.881 C 622.39,-282.036 637.189,-279.569 636.367,-282.036 z "
         id="path802" />
      <path
         sodipodi:type="arc"
         style="fill:#fec500;fill-opacity:1;fill-rule:evenodd;stroke:#6d6666;stroke-width:1pt;stroke-linecap:butt;stroke-linejoin:miter;stroke-opacity:1"
         id="path818"
         d="M 565.09082 -241.76563 A 10.464661 10.46463 0 1 1  544.1615,-241.76563 A 10.464661 10.46463 0 1 1  565.09082 -241.76563 z"
         sodipodi:cx="554.62616"
         sodipodi:cy="-241.76563"
         sodipodi:rx="10.464661"
         sodipodi:ry="10.46463"
         transform="translate(0,4.650925)" />
      <path
         sodipodi:type="arc"
         style="fill:#fec500;fill-opacity:1;fill-rule:evenodd;stroke:#6d6666;stroke-width:1pt;stroke-linecap:butt;stroke-linejoin:miter;stroke-opacity:1"
         id="path819"
         d="M 586.02014 -227.81271 A 10.464661 9.3018723 0 1 1  565.09082,-227.81271 A 10.464661 9.3018723 0 1 1  586.02014 -227.81271 z"
         sodipodi:cx="575.55548"
         sodipodi:cy="-227.81271"
         sodipodi:rx="10.464661"
         sodipodi:ry="9.3018723"
         transform="translate(0,4.650925)" />
      <path
         sodipodi:type="arc"
         style="fill:#fec500;fill-opacity:1;fill-rule:evenodd;stroke:#6d6666;stroke-width:1pt;stroke-linecap:butt;stroke-linejoin:miter;stroke-opacity:1"
         id="path817"
         d="M 539.51056 -238.27731 A 12.7901 9.3019104 0 1 1  513.93036,-238.27731 A 12.7901 9.3019104 0 1 1  539.51056 -238.27731 z"
         sodipodi:cx="526.72046"
         sodipodi:cy="-238.27731"
         sodipodi:rx="12.7901"
         sodipodi:ry="9.3019104"
         transform="translate(0,4.650925)" />
      <path
         sodipodi:type="arc"
         style="fill:#fec500;fill-opacity:1;fill-rule:evenodd;stroke:#6d6666;stroke-width:1pt;stroke-linecap:butt;stroke-linejoin:miter;stroke-opacity:1"
         id="path815"
         d="M 573.22998 -219.09216 A 14.534241 18.022423 0 1 1  544.1615,-219.09216 A 14.534241 18.022423 0 1 1  573.22998 -219.09216 z"
         sodipodi:cx="558.69574"
         sodipodi:cy="-219.09216"
         sodipodi:rx="14.534241"
         sodipodi:ry="18.022423"
         transform="translate(0,4.650925)" />
      <path
         sodipodi:type="arc"
         style="fill:#fec500;fill-opacity:1;fill-rule:evenodd;stroke:#6d6666;stroke-width:1pt;stroke-linecap:butt;stroke-linejoin:miter;stroke-opacity:1"
         id="path805"
         d="M 533.69688 -218.51085 A 14.534225 13.952866 0 1 1  504.62843,-218.51085 A 14.534225 13.952866 0 1 1  533.69688 -218.51085 z"
         sodipodi:cx="519.16266"
         sodipodi:cy="-218.51085"
         sodipodi:rx="14.534225"
         sodipodi:ry="13.952866"
         transform="translate(0,4.650925)" />
      <path
         sodipodi:type="arc"
         style="fill:#fec500;fill-opacity:1;fill-rule:evenodd;stroke:#6d6666;stroke-width:1pt;stroke-linecap:butt;stroke-linejoin:miter;stroke-opacity:1"
         id="path810"
         d="M 513.93036 -207.46481 A 11.046021 12.208748 0 1 1  491.83832,-207.46481 A 11.046021 12.208748 0 1 1  513.93036 -207.46481 z"
         sodipodi:cx="502.88434"
         sodipodi:cy="-207.46481"
         sodipodi:rx="11.046021"
         sodipodi:ry="12.208748"
         transform="translate(0,4.650925)" />
      <path
         sodipodi:type="arc"
         style="fill:#fec500;fill-opacity:1;fill-rule:evenodd;stroke:#6d6666;stroke-width:1pt;stroke-linecap:butt;stroke-linejoin:miter;stroke-opacity:1"
         id="path813"
         d="M 595.32202 -208.6275 A 16.85968 14.534225 0 1 1  561.60266,-208.6275 A 16.85968 14.534225 0 1 1  595.32202 -208.6275 z"
         sodipodi:cx="578.46234"
         sodipodi:cy="-208.6275"
         sodipodi:rx="16.85968"
         sodipodi:ry="14.534225"
         transform="translate(0,4.650925)" />
      <path
         sodipodi:type="arc"
         style="fill:#fec500;fill-opacity:1;fill-rule:evenodd;stroke:#6d6666;stroke-width:1pt;stroke-linecap:butt;stroke-linejoin:miter;stroke-opacity:1"
         id="path806"
         d="M 554.62622 -229.55679 A 13.371521 8.7205124 0 1 1  527.88318,-229.55679 A 13.371521 8.7205124 0 1 1  554.62622 -229.55679 z"
         sodipodi:cx="541.2547"
         sodipodi:cy="-229.55679"
         sodipodi:rx="13.371521"
         sodipodi:ry="8.7205124"
         transform="translate(0,4.650925)" />
      <path
         sodipodi:type="arc"
         style="fill:#fec500;fill-opacity:1;fill-rule:evenodd;stroke:#6d6666;stroke-width:1pt;stroke-linecap:butt;stroke-linejoin:miter;stroke-opacity:1"
         id="path807"
         d="M 556.95166 -210.37161 A 18.603821 12.790108 0 1 1  519.74402,-210.37161 A 18.603821 12.790108 0 1 1  556.95166 -210.37161 z"
         sodipodi:cx="538.34784"
         sodipodi:cy="-210.37161"
         sodipodi:rx="18.603821"
         sodipodi:ry="12.790108"
         transform="translate(0,4.650925)" />
      <path
         sodipodi:type="arc"
         style="fill:#fec500;fill-opacity:1;fill-rule:evenodd;stroke:#6d6666;stroke-width:1pt;stroke-linecap:butt;stroke-linejoin:miter;stroke-opacity:1"
         id="path814"
         d="M 604.62396 -187.69824 A 17.441101 15.696945 0 1 1  569.74176,-187.69824 A 17.441101 15.696945 0 1 1  604.62396 -187.69824 z"
         sodipodi:cx="587.18286"
         sodipodi:cy="-187.69824"
         sodipodi:rx="17.441101"
         sodipodi:ry="15.696945"
         transform="translate(0,4.650925)" />
      <path
         sodipodi:type="arc"
         style="fill:#fec500;fill-opacity:1;fill-rule:evenodd;stroke:#6d6666;stroke-width:1pt;stroke-linecap:butt;stroke-linejoin:miter;stroke-opacity:1"
         id="path809"
         d="M 509.27942 -191.76784 A 9.8833008 10.46463 0 1 1  489.51282,-191.76784 A 9.8833008 10.46463 0 1 1  509.27942 -191.76784 z"
         sodipodi:cx="499.39612"
         sodipodi:cy="-191.76784"
         sodipodi:rx="9.8833008"
         sodipodi:ry="10.46463"
         transform="translate(0,4.650925)" />
      <path
         sodipodi:type="arc"
         style="fill:#fec500;fill-opacity:1;fill-rule:evenodd;stroke:#6d6666;stroke-width:1pt;stroke-linecap:butt;stroke-linejoin:miter;stroke-opacity:1"
         id="path812"
         d="M 579.0437 -193.51192 A 15.115601 13.371506 0 1 1  548.8125,-193.51192 A 15.115601 13.371506 0 1 1  579.0437 -193.51192 z"
         sodipodi:cx="563.9281"
         sodipodi:cy="-193.51192"
         sodipodi:rx="15.115601"
         sodipodi:ry="13.371506"
         transform="translate(0,4.650925)" />
      <path
         sodipodi:type="arc"
         style="fill:#fec500;fill-opacity:1;fill-rule:evenodd;stroke:#6d6666;stroke-width:1pt;stroke-linecap:butt;stroke-linejoin:miter;stroke-opacity:1"
         id="path808"
         d="M 531.37141 -194.09332 A 13.371475 11.627388 0 1 1  504.62846,-194.09332 A 13.371475 11.627388 0 1 1  531.37141 -194.09332 z"
         sodipodi:cx="517.99994"
         sodipodi:cy="-194.09332"
         sodipodi:rx="13.371475"
         sodipodi:ry="11.627388"
         transform="translate(0,4.650925)" />
      <path
         sodipodi:type="arc"
         style="fill:#fec500;fill-opacity:1;fill-rule:evenodd;stroke:#6d6666;stroke-width:1pt;stroke-linecap:butt;stroke-linejoin:miter;stroke-opacity:1"
         id="path811"
         d="M 554.62622 -190.60507 A 13.952881 12.790108 0 1 1  526.72046,-190.60507 A 13.952881 12.790108 0 1 1  554.62622 -190.60507 z"
         sodipodi:cx="540.67334"
         sodipodi:cy="-190.60507"
         sodipodi:rx="13.952881"
         sodipodi:ry="12.790108"
         transform="translate(0,4.650925)" />
      <path
         style="fill:#fec500;fill-opacity:1;fill-rule:evenodd;stroke:#6d6666;stroke-width:1pt;stroke-linecap:butt;stroke-linejoin:miter;stroke-opacity:1"
         d="M 494.164,-267.346 C 497.652,-267.346 522.07,-259.207 522.07,-259.207 C 522.07,-259.207 491.838,-247.579 496.489,-248.742 C 501.14,-249.905 530.209,-253.393 527.883,-253.393 C 525.558,-253.393 502.303,-231.301 509.279,-232.464 C 516.256,-233.626 530.209,-247.579 531.371,-247.579 C 532.534,-247.579 546.487,-225.487 547.65,-226.65 C 548.812,-227.813 547.65,-248.742 548.812,-248.742 C 549.975,-248.742 577.881,-234.789 575.555,-235.952 C 573.23,-237.115 556.952,-253.393 558.114,-253.393 C 559.277,-253.393 596.485,-249.905 594.159,-251.068 C 591.834,-252.23 569.742,-262.695 569.742,-262.695 C 569.742,-262.695 586.02,-277.81 582.532,-277.81 C 579.044,-277.81 552.301,-262.695 554.626,-263.858 C 556.952,-265.02 583.695,-295.251 583.695,-295.251 L 556.952,-282.461 C 556.952,-282.461 561.603,-301.065 559.277,-299.903 C 556.952,-298.74 538.348,-275.485 537.185,-275.485 C 536.022,-275.485 531.371,-298.74 531.371,-298.74 C 531.371,-298.74 532.534,-273.16 525.558,-271.997 C 518.581,-270.834 494.164,-266.183 494.164,-267.346 z "
         id="path804"
         transform="translate(0,4.650925)" />
    </g>
    <g
       id="g775"
       transform="matrix(0.299809,0,0,0.362384,618.8878,139.6106)"
       style="font-size:12px">
      <path
         style="fill:#00389b;fill-opacity:1;fill-rule:evenodd;stroke:none;stroke-width:1pt;stroke-linecap:butt;stroke-linejoin:miter;stroke-opacity:1"
         d="M 308.707,75.0819 C 309.288,77.4074 327.892,119.266 356.379,118.103 C 384.866,116.94 396.493,109.964 395.331,109.383 C 394.168,108.801 381.959,101.825 374.983,86.7093 C 368.006,71.5937 366.843,65.1986 366.843,65.1986 L 308.707,75.0819 z "
         id="path772" />
      <path
         style="fill:#00389b;fill-opacity:1;fill-rule:evenodd;stroke:none;stroke-width:1pt;stroke-linecap:butt;stroke-linejoin:miter;stroke-opacity:1"
         d="M 410.446,58.8036 C 410.446,58.8036 431.375,100.081 440.677,105.894 C 449.979,111.708 471.49,116.359 480.792,115.778 C 490.094,115.196 501.14,115.778 501.14,115.778 C 501.14,115.778 491.838,111.708 484.28,89.0348 C 476.722,66.3614 474.397,58.8036 474.397,58.8036 L 410.446,58.8036 z "
         id="path773" />
      <path
         style="fill:#00389b;fill-opacity:1;fill-rule:evenodd;stroke:none;stroke-width:1pt;stroke-linecap:butt;stroke-linejoin:miter;stroke-opacity:1"
         d="M 538.347,73.9192 C 538.347,73.9192 534.278,104.15 538.347,111.708 C 542.417,119.266 562.765,133.219 562.765,133.219 C 562.765,133.219 587.182,130.312 587.763,111.708 C 588.345,93.1044 579.624,75.6633 579.624,75.6633 L 538.347,73.9192 z "
         id="path774" />
      <path
         style="fill:#005120;fill-opacity:1;fill-rule:evenodd;stroke:#000000;stroke-width:1pt;stroke-linecap:butt;stroke-linejoin:miter;stroke-opacity:1"
         d="M 288.94,21.0147 C 288.94,21.0147 290.103,25.6656 288.94,29.1538 C 287.777,32.642 277.894,41.9439 277.894,49.5017 C 277.894,57.0595 289.521,80.3142 324.985,80.8956 C 360.448,81.4769 405.214,61.7104 404.632,61.129 C 404.051,60.5477 319.753,4.15501 318.59,4.73637 C 317.427,5.31773 288.94,22.1774 288.94,21.0147 z "
         id="path767" />
      <path
         style="fill:#005120;fill-opacity:1;fill-rule:evenodd;stroke:#000000;stroke-width:1pt;stroke-linecap:butt;stroke-linejoin:miter;stroke-opacity:1"
         d="M 523.232,61.129 C 523.232,61.129 530.789,81.477 533.696,83.8025 C 536.603,86.1279 537.766,90.7789 538.347,90.7789 C 538.928,90.7789 587.182,101.243 587.182,101.243 C 587.182,101.243 591.833,87.8721 584.857,77.4074 C 577.88,66.9428 551.719,39.6184 551.719,39.6184 L 523.232,61.129 z "
         id="path768" />
      <path
         style="fill:#005120;fill-opacity:1;fill-rule:evenodd;stroke:#000000;stroke-width:1pt;stroke-linecap:butt;stroke-linejoin:miter;stroke-opacity:1"
         d="M 556.37,36.1303 C 557.532,36.1303 569.16,46.0135 578.462,40.7812 C 587.763,35.5489 602.879,21.596 602.879,21.596 C 602.879,21.596 590.089,25.6657 580.787,25.0843 C 571.485,24.5028 556.951,36.7116 556.37,36.1303 z "
         id="path769" />
      <path
         style="fill:#005120;fill-opacity:1;fill-rule:evenodd;stroke:#000000;stroke-width:1pt;stroke-linecap:butt;stroke-linejoin:miter;stroke-opacity:1"
         d="M 287.196,23.3401 C 287.196,23.3401 283.708,13.4568 274.406,12.8755 C 265.104,12.2941 248.244,14.0381 242.431,9.38725 C 236.617,4.73637 234.873,-6.30962 231.966,-5.72826 C 229.059,-5.1469 221.501,-5.72826 220.92,-5.72826 C 220.339,-5.72826 217.432,-15.0302 225.571,-19.6811 C 233.71,-24.3321 240.687,-20.2625 245.337,-23.7507 C 249.988,-27.239 256.965,-29.5644 266.267,-30.1458 C 275.569,-30.7271 290.684,-18.5183 297.661,-15.6115 C 304.637,-12.7047 319.753,-9.21657 325.566,-12.1234 C 331.38,-15.0302 363.937,-27.8203 375.564,-28.4017 C 387.191,-28.983 411.609,-29.5644 420.911,-28.983 C 430.213,-28.4017 466.839,-23.7507 477.885,-18.5184 C 488.931,-13.2861 547.649,7.06181 555.788,11.7128 C 563.927,16.3637 581.95,23.3401 581.95,23.3401 C 581.95,23.3401 549.974,54.734 534.278,59.9663 C 518.581,65.1986 468.583,73.3378 438.933,71.5937 C 409.283,69.8496 386.029,66.9427 363.355,55.3154 C 340.682,43.688 316.264,32.642 315.102,26.8284 C 313.939,21.0147 314.52,13.4568 314.52,13.4568 L 287.196,23.3401 z "
         id="path766" />
      <path
         style="fill:#005120;fill-opacity:1;fill-rule:evenodd;stroke:#000000;stroke-width:1pt;stroke-linecap:butt;stroke-linejoin:miter;stroke-opacity:1"
         d="M 251.151,-14.4488 C 249.988,-13.8674 244.175,-11.5419 245.337,-10.3792 C 246.5,-9.21649 248.826,-5.72833 255.802,-6.30969 C 262.779,-6.89105 270.336,-10.9606 270.336,-10.9606 C 270.336,-10.9606 261.616,-15.0302 251.151,-14.4488 z "
         id="path770" />
      <path
         style="fill:#000000;fill-opacity:1;fill-rule:evenodd;stroke:#000000;stroke-width:1pt;stroke-linecap:butt;stroke-linejoin:miter;stroke-opacity:1"
         d="M 250.57,-13.2861 L 250.57,-6.89105 C 250.57,-6.89105 258.709,-4.56561 258.709,-6.30969 C 258.709,-8.05377 259.29,-12.1234 257.546,-12.1234 C 255.802,-12.1234 251.151,-12.7047 250.57,-13.2861 z "
         id="path771" />
      <path
         style="fill:#001707;fill-opacity:1;fill-rule:evenodd;stroke:#000007;stroke-width:1pt;stroke-linecap:butt;stroke-linejoin:miter;stroke-opacity:1"
         d="M 331.954,-8.45271 C 334.01,-12.1525 331.954,-17.0854 343.876,-22.8408 C 355.797,-28.5961 376.557,-26.9517 376.557,-26.9517 C 376.557,-26.9517 370.597,-22.4298 370.391,-17.7022 C 370.186,-12.9747 370.802,-10.9192 370.802,-10.9192 C 370.802,-10.9192 359.497,-14.619 350.864,-12.358 C 342.231,-10.0971 332.16,-7.83603 331.954,-8.45271 z "
         id="path757" />
      <path
         style="fill:#001707;fill-opacity:1;fill-rule:evenodd;stroke:#000007;stroke-width:1pt;stroke-linecap:butt;stroke-linejoin:miter;stroke-opacity:1"
         d="M 385.396,-28.5961 C 384.163,-27.9794 375.119,-17.9077 376.146,-14.8246 C 377.174,-11.7414 389.301,-4.34184 393.207,-4.95845 C 397.112,-5.57506 414.994,-14.2079 416.022,-18.5244 C 417.05,-22.8408 417.872,-28.596 416.433,-29.8293 C 414.994,-31.0626 385.601,-28.1849 385.396,-28.5961 z "
         id="path758" />
      <path
         style="fill:#001707;fill-opacity:1;fill-rule:evenodd;stroke:#000007;stroke-width:1pt;stroke-linecap:butt;stroke-linejoin:miter;stroke-opacity:1"
         d="M 424.655,-30.2404 C 422.394,-27.9794 423.216,-17.0856 424.038,-15.8523 C 424.86,-14.619 439.043,-0.436508 442.126,0.385712 C 445.209,1.20793 468.025,-1.05312 469.875,-3.51962 C 471.725,-5.98613 477.274,-16.4688 475.63,-18.9354 C 473.985,-21.402 469.052,-24.6907 453.842,-27.9794 C 438.632,-31.2681 429.588,-30.857 424.655,-30.2404 z "
         id="path760" />
      <path
         style="fill:#001707;fill-opacity:1;fill-rule:evenodd;stroke:#000007;stroke-width:1pt;stroke-linecap:butt;stroke-linejoin:miter;stroke-opacity:1"
         d="M 482.824,-16.4689 C 486.524,-14.619 508.106,-4.13631 520.85,4.29105 C 533.593,12.7184 538.732,22.379 542.432,23.2012 C 546.132,24.0233 561.136,14.9794 561.753,12.5129 C 562.37,10.0463 543.46,-3.10855 530.716,-9.06932 C 517.972,-15.0301 482.824,-15.8523 482.824,-16.4689 z "
         id="path761" />
      <path
         style="fill:#001707;fill-opacity:1;fill-rule:evenodd;stroke:#000007;stroke-width:1pt;stroke-linecap:butt;stroke-linejoin:miter;stroke-opacity:1"
         d="M 478.302,-7.63049 C 476.452,-5.98613 501.323,37.3837 506.05,38.8225 C 510.778,40.2614 539.143,30.3952 538.732,27.1065 C 538.321,23.8178 530.921,17.2403 513.45,7.57977 C 495.979,-2.0808 481.796,-8.45271 478.302,-7.63049 z "
         id="path762" />
      <path
         style="fill:#001707;fill-opacity:1;fill-rule:evenodd;stroke:#000007;stroke-width:1pt;stroke-linecap:butt;stroke-linejoin:miter;stroke-opacity:1"
         d="M 447.47,8.19638 C 443.565,10.4574 437.399,49.3053 441.304,51.1552 C 445.209,53.0051 493.307,46.4277 495.157,42.1113 C 497.006,37.7948 475.424,3.4689 469.052,3.4689 C 462.681,3.4689 451.17,5.11327 447.47,8.19638 z "
         id="path763" />
      <path
         style="fill:#001707;fill-opacity:1;fill-rule:evenodd;stroke:#000007;stroke-width:1pt;stroke-linecap:butt;stroke-linejoin:miter;stroke-opacity:1"
         d="M 397.729,-0.0253601 C 392.59,4.70219 393.618,40.878 395.879,43.139 C 398.14,45.4 426.71,52.7995 429.793,50.1275 C 432.877,47.4554 436.988,6.75763 434.11,3.67444 C 431.232,0.591248 423.216,-6.80835 417.05,-7.42496 C 410.883,-8.04156 400.606,-1.46426 397.729,-0.0253601 z "
         id="path764" />
      <path
         style="fill:#001707;fill-opacity:1;fill-rule:evenodd;stroke:#000007;stroke-width:1pt;stroke-linecap:butt;stroke-linejoin:miter;stroke-opacity:1"
         d="M 333.188,-0.641968 C 328.46,3.05783 328.255,12.7184 333.393,14.3628 C 338.532,16.0071 351.275,21.5569 363.197,26.6954 C 375.119,31.834 381.902,38.0005 385.396,37.7948 C 388.89,37.5892 392.179,1.41347 388.479,-0.641968 C 384.779,-2.6974 373.885,-4.34177 363.608,-3.93069 C 353.331,-3.51962 338.326,-2.49187 333.188,-0.641968 z "
         id="path765" />
    </g>
    <path
       id="path643"
       d="M 655.26417,306.14117 C 657.79237,303.67937 661.72525,297.66195 667.06252,297.38915 C 672.39978,297.11503 678.01804,302.03862 678.01804,302.03862 C 678.01804,302.03862 683.63616,325.01448 683.35531,325.01448 C 683.07446,325.01448 674.0853,331.57883 673.80431,331.57883 C 673.52346,331.57883 669.87158,322.55269 666.50068,323.3724 C 663.12978,324.19344 663.41063,336.50109 662.84879,335.68138 C 662.28695,334.86033 647.96053,317.90189 648.52237,317.35497 C 649.08421,316.80806 655.54515,306.96221 655.26417,306.14117 z "
       style="font-size:12px;fill:#d40f0f;fill-opacity:0.99607801;fill-rule:evenodd;stroke-width:1pt" />
    <path
       id="path642"
       d="M 803.58522,303.13245 C 805.27033,302.85966 812.85537,297.11503 818.19222,297.38915 C 823.53045,297.66195 826.6205,300.12374 829.42901,302.58554 C 832.23752,305.04733 835.6091,311.33755 835.6091,311.33755 C 835.6091,311.33755 828.86731,329.93674 828.3056,329.93674 C 827.7439,329.93674 824.93402,331.57883 824.37232,330.21087 C 823.81062,328.84291 822.12551,324.46624 818.75393,323.91932 C 815.38371,323.3724 814.54047,329.93674 814.54047,329.93674 L 803.58522,303.13245 z "
       style="font-size:12px;fill:#d40f0f;fill-opacity:0.99607801;fill-rule:evenodd;stroke-width:1pt" />
    <path
       sodipodi:nodetypes="ccccccccc"
       id="path640"
       d="M 807.23697,308.87575 C 807.23697,310.51784 817.63052,336.22829 834.4857,341.15055 C 851.33951,346.07414 856.67774,336.50109 858.64301,333.21958 C 860.60965,329.93674 867.63299,330.21087 867.63299,330.21087 C 867.63299,330.21087 865.94788,354.28057 863.138,357.28928 C 860.32949,360.29799 858.08131,366.86234 842.3509,367.13513 C 826.6205,367.40926 812.29366,352.36569 807.51851,347.98902 C 802.74199,343.61235 796.56189,332.12574 794.03355,326.92803 C 791.50657,321.73165 807.51714,309.424 807.23697,308.87575 z "
       style="font-size:12px;fill:#fddc59;fill-opacity:0.99607801;fill-rule:evenodd;stroke-width:1pt" />
    <path
       id="path641"
       d="M 624.08311,360.02387 C 624.3641,360.02387 631.66774,367.95617 642.34227,367.13513 C 653.01695,366.31542 671.27611,360.02387 679.70342,349.08286 C 688.13074,338.14317 692.34446,326.38111 692.34446,326.38111 C 692.34446,326.38111 679.98441,304.50041 679.70342,304.50041 C 679.42257,304.50041 678.29889,311.61167 676.05167,316.26114 C 673.80431,320.91061 667.62436,334.03929 657.23067,338.14317 C 646.83685,342.24572 646.83685,343.88647 642.62326,343.33955 C 638.40953,342.79264 627.45401,336.22829 627.45401,335.95417 C 627.45401,335.68138 622.11674,348.81006 622.11674,348.81006 C 622.11674,348.81006 620.99306,357.28928 624.08311,360.02387 z "
       style="font-size:12px;fill:#fddc59;fill-opacity:0.996081;fill-rule:evenodd;stroke-width:1pt" />
    <path
       sodipodi:nodetypes="ccccccccc"
       id="path637"
       d="M 655.06709,305.38134 C 654.27251,305.38134 634.40915,316.2119 635.20373,320.85472 C 635.99818,325.4962 669.36878,391.25407 740.8768,392.02721 C 812.38386,392.80167 856.0846,332.45842 852.90572,322.40099 C 849.7282,312.34489 827.4815,300.73985 827.4815,300.73985 C 827.4815,300.73985 833.04249,305.38134 832.24846,311.57042 C 831.45305,317.75951 806.82287,371.13921 744.84972,369.59293 C 682.87574,368.04533 653.47792,320.85472 653.47792,315.43877 C 653.47792,310.02415 656.65612,306.92894 655.06709,305.38134 z "
       style="font-size:12px;fill:#fddc59;fill-opacity:0.99607801;fill-rule:evenodd;stroke-width:1pt" />
    <path
       id="path639"
       d="M 848.81117,353.18673 C 850.49764,351.81877 860.89119,323.3724 866.78975,324.19344 C 872.68968,325.01448 870.72303,333.49237 870.16133,335.68138 C 869.59963,337.86905 863.6997,357.56208 863.6997,357.56208 C 863.6997,357.56208 863.98124,352.91261 860.04795,351.81877 C 856.11603,350.72494 849.6544,353.73365 848.81117,353.18673 z "
       style="font-size:12px;fill:#d40f0f;fill-opacity:0.99607801;fill-rule:evenodd;stroke-width:1pt" />
    <path
       sodipodi:nodetypes="ccccccc"
       id="path638"
       d="M 624.08024,360.30864 C 624.08024,358.76237 619.31301,353.34642 624.87469,351.79881 C 630.4365,350.25254 637.58734,353.34642 637.58734,353.34642 C 637.58734,353.34642 633.61456,341.74138 628.84747,332.45842 C 624.08024,323.17546 622.49107,324.72306 618.51843,326.26933 C 614.54578,327.81694 614.64227,331.9115 617.02589,338.10059 C 619.4095,344.28967 624.08024,361.85624 624.08024,360.30864 z "
       style="font-size:12px;fill:#d40f0f;fill-opacity:0.996081;fill-rule:evenodd;stroke-width:1pt" />
    <g
       id="g1773">
      <polygon
         sodipodi:type="star"
         style="font-size:12px;fill:#fdc400;fill-rule:evenodd;stroke-width:1pt"
         id="polygon744"
         sodipodi:sides="5"
         sodipodi:cx="301.18109"
         sodipodi:cy="609.44879"
         sodipodi:r1="87.449997"
         sodipodi:r2="34.98"
         sodipodi:arg1="2.1968231"
         sodipodi:arg2="2.8251417"
         points="249.942,680.315 267.938,620.334 217.949,582.616 280.556,581.197 300.981,521.999 321.677,581.102 384.289,582.235 334.474,620.182 352.745,680.079 301.261,644.429 249.942,680.315 "
         transform="matrix(0.383187,0,0,0.389442,593.8577,42.31528)"
         inkscape:flatsided="false"
         inkscape:rounded="0"
         inkscape:randomized="0"
         d="M 249.94155,680.31494 L 267.93799,620.33442 L 217.94949,582.61593 L 280.55556,581.19657 L 300.98068,521.99902 L 321.67691,581.10233 L 384.28883,582.23472 L 334.47373,620.18194 L 352.74491,680.07934 L 301.26125,644.4287 L 249.94155,680.31494 z " />
      <path
         style="font-size:12px;fill:#ffffff;fill-rule:evenodd;stroke-width:1pt"
         d="M 673.228,325.984 L 673.227,582.875 C 673.816,708.423 524.407,818.357 425.196,839.764 C 325.985,818.357 176.576,708.423 177.166,582.875 L 177.166,325.984 L 673.228,325.984 z "
         id="path740"
         transform="matrix(0.299809,0,0,0.349888,617.1502,71.60608)" />
      <path
         style="font-size:12px;fill:#d40f0f;fill-opacity:0.996081;fill-rule:evenodd;stroke:#000000;stroke-width:1pt"
         d="M 177.165,325.984 L 177.586,486.717 C 177.586,486.717 179.972,483.429 212.598,485.433 C 245.225,487.437 248.031,520.866 283.465,520.866 C 318.898,520.866 318.898,485.433 354.331,485.433 C 389.764,485.433 389.764,520.866 425.197,520.866 C 460.63,520.866 460.63,485.433 496.063,485.433 C 531.496,485.433 531.496,520.866 568.933,522.892 C 602.362,520.866 602.362,485.433 637.995,483.429 L 673.228,485.433 L 673.228,325.984 L 177.165,325.984 z "
         id="path556"
         sodipodi:nodetypes="cccccccccccc"
         transform="matrix(0.299809,0,0,0.349888,617.1502,71.60608)" />
      <path
         style="font-size:12px;fill:#0062bb;fill-opacity:0.996081;fill-rule:evenodd;stroke-width:1pt"
         d="M 177.165,432.283 L 177.165,485.433 C 177.165,485.433 177.165,485.433 212.598,485.433 C 245.225,487.437 248.03,520.866 283.464,520.866 C 318.897,520.866 318.897,485.433 354.33,485.433 C 389.763,485.433 389.763,520.866 425.196,520.866 C 460.629,520.866 460.63,485.433 496.063,485.433 C 531.496,485.433 529.492,518.84 566.929,520.866 C 600.358,518.84 602.162,487.437 637.795,485.433 L 673.228,485.433 L 673.228,432.283 L 637.795,432.283 C 602.362,432.283 602.362,467.716 566.929,467.717 C 531.496,467.716 531.496,432.283 496.063,432.283 C 460.63,432.283 460.63,467.716 425.196,467.716 C 389.763,467.716 389.763,432.283 354.33,432.283 C 318.897,432.283 318.897,467.716 283.464,467.716 C 248.031,467.716 248.031,432.283 212.598,432.283 L 177.165,432.283 z "
         id="path557"
         sodipodi:nodetypes="ccccccccccccccccccc"
         transform="matrix(0.299809,0,0,0.349888,617.1503,108.799)" />
      <path
         style="font-size:12px;fill:#0062bb;fill-opacity:0.996081;fill-rule:evenodd;stroke-width:1pt"
         d="M 187.853,432.283 L 212.598,485.433 C 245.225,487.437 248.03,520.866 283.464,520.866 C 318.897,520.866 318.897,485.433 354.33,485.433 C 389.763,485.433 389.763,520.866 425.196,520.866 C 460.629,520.866 460.63,485.433 496.063,485.433 C 531.496,485.433 529.492,518.84 566.929,520.866 C 600.358,518.84 601.34,487.437 636.973,485.433 L 662.54,431.461 L 637.795,432.283 C 602.362,432.283 602.362,467.716 566.929,467.717 C 531.496,467.716 531.496,432.283 496.063,432.283 C 460.63,432.283 460.63,467.716 425.196,467.716 C 389.763,467.716 389.763,432.283 354.33,432.283 C 318.897,432.283 318.897,467.716 283.464,467.716 C 248.031,467.716 248.031,432.283 212.598,432.283 L 187.853,432.283 z "
         id="path558"
         sodipodi:nodetypes="ccccccccccccccccc"
         transform="matrix(0.299809,0,0,0.349888,617.1503,145.9918)" />
      <path
         style="font-size:12px;fill:#0062bb;fill-opacity:0.996081;fill-rule:evenodd;stroke-width:1pt"
         d="M 425.196,520.866 C 460.63,520.866 541.813,467.716 540.99,467.716 C 541.813,467.716 531.496,432.283 496.063,432.283 C 460.63,432.283 460.63,467.716 425.196,467.716 C 389.763,467.716 389.763,432.283 354.33,432.283 C 318.897,432.283 309.853,467.716 309.774,467.716 C 308.129,467.716 389.763,520.866 425.196,520.866 z "
         id="path559"
         sodipodi:nodetypes="ccccccc"
         transform="matrix(0.299809,0,0,0.349888,617.1503,183.1847)" />
      <g
         id="g611"
         transform="matrix(1.465326,0,0,1.2748,556.7898,30.77422)"
         style="font-size:12px">
        <path
           style="fill:#fdc400;fill-opacity:0.996081;fill-rule:evenodd;stroke:#000000;stroke-width:0.625;stroke-linecap:butt;stroke-linejoin:miter;stroke-dasharray:none;stroke-opacity:1"
           d="M 90.8486,117.568 C 91.6707,117.568 99.0701,118.801 104.414,118.39 C 109.758,117.979 111.814,115.923 111.814,115.512 C 111.814,115.101 111.814,114.279 111.814,114.279 L 118.802,114.279 C 118.802,114.279 120.035,120.034 119.213,120.445 C 118.391,120.856 116.335,122.501 115.924,122.501 C 115.513,122.501 115.924,119.623 115.102,120.445 C 114.28,121.267 113.869,122.501 113.869,122.501 C 113.869,122.501 113.047,121.267 112.636,121.267 C 112.225,121.267 111.403,122.501 111.403,122.501 C 111.403,122.501 111.403,121.267 110.991,121.267 C 110.58,121.267 108.525,123.323 108.525,123.323 L 106.47,121.678 C 106.47,121.678 105.236,123.734 104.825,123.734 C 104.414,123.734 101.948,122.09 101.948,122.09 L 97.8369,124.556 C 97.8369,124.556 97.8369,120.856 97.0147,121.267 C 96.1926,121.678 91.6707,121.678 91.6707,121.678 C 91.6707,121.678 90.4375,124.145 90.0264,124.145 C 89.6153,124.145 87.971,122.09 88.3821,122.09 C 88.7932,122.09 89.6153,120.856 89.2042,120.445 C 88.7932,120.034 86.7378,120.445 86.7378,120.034 C 86.7378,119.623 85.9156,117.156 86.3267,117.156 C 86.7378,117.156 88.3821,117.568 88.3821,117.568 L 88.3821,115.101 L 90.4375,115.101 L 90.8486,117.568 z "
           id="path577"
           transform="translate(-0.138988,37.59389)" />
        <path
           style="fill:#fdc400;fill-opacity:0.996081;fill-rule:evenodd;stroke:#000000;stroke-width:0.625;stroke-linecap:butt;stroke-linejoin:miter;stroke-dasharray:none;stroke-opacity:1"
           d="M 98.248,94.1361 C 97.8369,94.1361 94.9594,97.4248 95.3704,101.124 C 95.7815,104.824 102.77,110.168 102.77,110.168 C 102.77,110.168 106.47,108.524 107.703,110.168 C 108.936,111.812 108.936,116.745 108.525,116.745 C 108.114,116.745 103.181,117.979 103.181,117.156 C 103.181,116.334 103.181,115.512 102.77,115.512 C 102.359,115.512 97.8369,115.923 97.8369,115.923 L 98.248,114.279 L 94.1372,113.457 L 95.7815,111.812 C 95.7815,111.812 89.2042,108.935 89.6153,108.935 C 90.0264,108.935 92.4929,107.291 92.4929,107.291 L 87.5599,104.002 L 90.4375,104.002 C 90.4375,104.002 86.3267,100.713 86.7378,100.713 C 87.1488,100.713 89.2042,101.124 89.2042,101.124 L 87.971,97.8358 L 89.2042,97.8358 L 87.971,95.3693 L 90.0264,94.5472 L 91.2596,96.6025 L 90.8486,91.6696 L 93.7261,92.0807 L 93.7261,96.1915 C 93.7261,96.1915 94.9593,93.725 94.9593,93.3139 C 94.9593,92.9029 98.6591,94.9582 98.248,94.1361 z "
           id="path578"
           transform="translate(-0.138988,37.59389)" />
        <path
           style="fill:#000000;fill-opacity:0.996081;fill-rule:evenodd;stroke:none;stroke-width:0.625;stroke-linecap:butt;stroke-linejoin:miter;stroke-dasharray:none;stroke-opacity:1"
           d="M 161.966,119.62 C 161.452,120.134 159.91,121.264 159.91,121.264 C 159.91,121.264 163.405,120.956 163.302,120.956 C 163.199,120.956 162.069,119.928 161.966,119.62 z "
           id="path580"
           transform="translate(-0.138988,37.59389)" />
        <path
           style="fill:#000000;fill-opacity:0.996081;fill-rule:evenodd;stroke:none;stroke-width:0.625;stroke-linecap:butt;stroke-linejoin:miter;stroke-dasharray:none;stroke-opacity:1"
           d="M 164.946,121.573 C 164.741,121.881 164.124,125.067 164.535,124.861 C 164.946,124.656 166.59,122.292 166.59,122.292 L 164.946,121.573 z "
           id="path581"
           transform="translate(-0.138988,37.59389)" />
        <path
           style="fill:#000000;fill-opacity:0.996081;fill-rule:evenodd;stroke:none;stroke-width:0.625;stroke-linecap:butt;stroke-linejoin:miter;stroke-dasharray:none;stroke-opacity:1"
           d="M 169.674,121.984 C 170.187,122.498 172.551,124.861 172.243,124.347 C 171.935,123.834 171.626,121.675 171.421,121.573 C 171.215,121.47 169.879,122.189 169.674,121.984 z "
           id="path582"
           transform="translate(-0.138988,37.59389)" />
        <path
           style="fill:#000000;fill-opacity:0.996081;fill-rule:evenodd;stroke:none;stroke-width:0.625;stroke-linecap:butt;stroke-linejoin:miter;stroke-dasharray:none;stroke-opacity:1"
           d="M 128.257,118.592 C 127.949,118.695 125.38,120.648 125.38,120.648 C 125.38,120.648 129.696,119.825 129.49,119.825 C 129.285,119.825 128.154,118.901 128.257,118.592 z "
           id="path583"
           transform="translate(-0.138988,37.59389)" />
        <path
           style="fill:#000000;fill-opacity:0.996081;fill-rule:evenodd;stroke:none;stroke-width:0.625;stroke-linecap:butt;stroke-linejoin:miter;stroke-dasharray:none;stroke-opacity:1"
           d="M 130.929,121.059 C 130.518,121.47 129.182,124.347 129.696,124.245 C 130.21,124.142 132.471,122.292 132.471,122.292 L 130.929,121.059 z "
           id="path584"
           transform="translate(-0.138988,37.59389)" />
        <path
           style="fill:#000000;fill-opacity:0.996081;fill-rule:evenodd;stroke:none;stroke-width:0.625;stroke-linecap:butt;stroke-linejoin:miter;stroke-dasharray:none;stroke-opacity:1"
           d="M 129.285,117.051 C 128.977,116.948 126.818,115.92 126.921,115.92 C 127.024,115.92 129.799,115.201 129.799,115.201 L 129.285,117.051 z "
           id="path585"
           transform="translate(-0.138988,37.59389)" />
        <path
           style="fill:#000000;fill-opacity:0.996081;fill-rule:evenodd;stroke:none;stroke-width:0.625;stroke-linecap:butt;stroke-linejoin:miter;stroke-dasharray:none;stroke-opacity:1"
           d="M 88.5879,115.715 L 85.5048,113.248 L 89.4101,114.481 L 88.5879,115.715 z "
           id="path586"
           transform="translate(-0.138988,37.59389)" />
        <path
           style="fill:#000000;fill-opacity:0.996081;fill-rule:evenodd;stroke:none;stroke-width:0.625;stroke-linecap:butt;stroke-linejoin:miter;stroke-dasharray:none;stroke-opacity:1"
           d="M 85.9159,117.359 C 85.5048,117.359 81.5995,119.825 81.7023,119.825 C 81.8051,119.825 87.1491,119.928 87.0463,119.825 C 86.9436,119.723 86.1214,117.565 85.9159,117.359 z "
           id="path587"
           transform="translate(-0.138988,37.59389)" />
        <path
           style="fill:#000000;fill-opacity:0.996081;fill-rule:evenodd;stroke:none;stroke-width:0.625;stroke-linecap:butt;stroke-linejoin:miter;stroke-dasharray:none;stroke-opacity:1"
           d="M 88.3824,120.956 C 87.9713,121.162 84.8882,123.525 85.0937,123.525 C 85.2993,123.525 89.7184,123.628 89.7184,123.525 C 89.7184,123.422 88.4851,121.059 88.3824,120.956 z "
           id="path588"
           transform="translate(-0.138988,37.59389)" />
        <path
           style="fill:#000000;fill-opacity:0.99607801;fill-rule:evenodd;stroke:none;stroke-width:0.625;stroke-linecap:butt;stroke-linejoin:miter;stroke-dasharray:none;stroke-opacity:1"
           d="M 87.9713,95.3662 C 87.9713,95.3662 86.8408,92.4886 86.9436,92.4886 C 87.0463,92.4886 89.8211,94.7496 89.8211,94.7496 L 87.9713,95.3662 z "
           id="path589"
           transform="translate(-0.138988,37.59389)" />
        <path
           style="fill:#000000;fill-opacity:0.99607801;fill-rule:evenodd;stroke:none;stroke-width:0.625;stroke-linecap:butt;stroke-linejoin:miter;stroke-dasharray:none;stroke-opacity:1"
           d="M 91.0544,91.7692 C 91.0544,91.6665 91.3627,89.9194 91.3627,89.9194 C 91.3627,89.9194 94.1375,92.0775 94.0347,92.0775 C 93.932,92.0775 91.2599,92.0775 91.0544,91.7692 z "
           id="path590"
           transform="translate(-0.138988,37.59389)" />
        <path
           style="fill:#000000;fill-opacity:0.99607801;fill-rule:evenodd;stroke:none;stroke-width:0.625;stroke-linecap:butt;stroke-linejoin:miter;stroke-dasharray:none;stroke-opacity:1"
           d="M 95.3707,93.1052 C 95.3707,93.0024 95.679,90.4332 95.679,90.4332 C 95.679,90.4332 98.2483,93.9274 98.0428,94.0302 C 97.8372,94.133 95.5763,93.5164 95.3707,93.1052 z "
           id="path591"
           transform="translate(-0.138988,37.59389)" />
        <path
           style="fill:#fdc400;fill-opacity:0.996081;fill-rule:evenodd;stroke:#000000;stroke-width:0.625;stroke-linecap:butt;stroke-linejoin:miter;stroke-dasharray:none;stroke-opacity:1"
           d="M 137.265,110.864 C 137.265,111.07 141.581,114.564 141.684,115.386 C 141.786,116.208 133.873,116.414 133.873,116.414 C 133.873,116.414 131.612,114.667 130.893,114.769 C 130.173,114.872 129.865,116.619 129.865,116.619 L 131.715,117.647 L 128.221,117.852 L 129.249,119.805 L 131.921,119.599 L 131.304,121.449 C 131.304,121.449 132.948,122.683 133.257,122.477 C 133.565,122.272 134.593,120.422 135.415,120.113 C 136.237,119.805 137.984,119.805 137.984,119.805 C 137.984,119.805 136.648,122.066 137.265,122.066 C 137.881,122.066 140.656,119.702 140.656,119.702 C 140.656,119.702 141.273,121.86 141.375,121.86 C 141.478,121.86 143.431,119.394 143.431,119.394 C 143.431,119.394 143.431,121.347 143.739,121.347 C 144.047,121.347 146.925,118.88 146.925,118.88 C 146.925,118.88 149.186,121.758 149.494,121.552 C 149.803,121.347 150.111,118.469 150.419,118.469 C 150.727,118.469 152.68,118.161 152.68,118.058 C 152.68,117.955 151.447,116.927 151.241,115.489 C 151.036,114.05 151.447,110.659 151.344,110.659 C 151.241,110.659 137.47,111.172 137.265,110.864 z "
           id="path599"
           transform="translate(-0.822172,37.81964)" />
        <path
           style="fill:#fdc400;fill-opacity:0.996081;fill-rule:evenodd;stroke:#000000;stroke-width:0.625;stroke-linecap:butt;stroke-linejoin:miter;stroke-dasharray:none;stroke-opacity:1"
           d="M 115.374,104.598 C 116.607,104.598 151.549,104.598 155.66,104.598 C 159.771,104.598 163.47,102.954 163.47,100.487 C 163.47,98.0211 156.893,97.61 154.427,98.4322 C 151.96,99.2543 141.272,104.187 136.75,103.776 C 132.228,103.365 128.118,100.487 127.707,97.61 C 127.295,94.7324 129.762,92.2659 134.284,92.2659 C 138.806,92.2659 144.561,93.9103 145.794,93.4992 C 147.027,93.0881 149.905,89.7995 151.138,89.3884 C 152.371,88.9774 156.071,88.5663 156.071,88.5663 L 154.427,89.7995 L 159.771,88.5663 C 159.771,88.5663 155.66,93.0881 151.549,94.3214 C 147.438,95.5546 138.806,95.1435 135.517,95.1435 C 132.228,95.1435 130.584,94.7325 130.995,97.1989 C 131.406,99.6654 133.873,101.31 135.928,100.898 C 137.984,100.487 144.15,98.4322 144.15,98.4322 L 142.505,97.1989 L 149.905,96.7879 C 149.905,96.7879 149.494,95.5546 149.905,95.5546 C 150.316,95.5546 154.016,95.9657 154.016,95.9657 C 154.016,95.9657 151.549,94.7324 151.96,94.7324 C 152.371,94.7324 154.016,94.7324 157.304,95.1435 C 160.593,95.5546 167.581,96.7878 167.17,100.076 C 166.759,103.365 164.293,106.242 161.415,106.242 C 158.537,106.242 156.071,105.42 156.071,106.654 C 156.071,107.887 159.36,108.709 161.415,108.709 C 163.47,108.709 165.937,107.065 166.348,107.065 C 166.759,107.065 167.581,109.531 167.992,109.531 C 168.403,109.531 170.87,108.709 170.87,108.709 L 169.226,113.231 L 172.103,114.053 C 172.103,114.053 170.459,115.697 170.87,115.697 C 171.281,115.697 173.747,115.697 173.747,116.108 C 173.747,116.519 170.459,118.986 170.459,119.397 C 170.459,119.808 172.925,121.041 172.925,121.041 C 172.925,121.041 171.281,123.508 170.87,123.097 C 170.459,122.686 168.814,120.63 168.814,120.63 C 168.814,120.63 168.403,122.275 167.581,122.275 C 166.759,122.275 165.115,121.864 165.115,121.864 C 165.115,121.864 166.348,119.397 165.937,119.397 C 165.526,119.397 163.47,121.041 163.47,120.63 L 162.238,119.394 C 162.238,119.394 165.526,118.058 165.526,116.105 C 165.526,114.153 164.19,112.2 158.23,111.892 C 152.269,111.583 152.166,113.33 147.747,113.125 C 143.328,112.919 143.328,111.172 140.039,111.172 C 136.751,111.172 126.576,115.283 121.849,115.18 C 117.122,115.078 111.161,114.769 111.366,114.564 C 111.572,114.358 115.272,104.903 115.374,104.598 z "
           id="path598"
           sodipodi:nodetypes="cccccccccccccccccccccccccccccccccccccccccccccccccc"
           transform="translate(-0.822172,37.81964)" />
        <path
           style="fill:#fdc400;fill-opacity:0.996081;fill-rule:evenodd;stroke:#000000;stroke-width:0.625;stroke-linecap:butt;stroke-linejoin:miter;stroke-dasharray:none;stroke-opacity:1"
           d="M 106.881,102.457 C 106.47,102.663 102.873,103.177 102.667,106.979 C 102.462,110.782 102.976,110.782 103.387,110.576 C 103.798,110.371 104.62,107.082 104.62,107.082 C 104.62,107.082 103.387,111.604 104.723,112.632 C 106.059,113.659 107.498,114.07 107.498,114.07 L 108.011,110.473 C 108.011,110.473 106.984,113.968 109.45,115.201 C 111.917,116.434 112.842,115.509 112.636,114.584 C 112.431,113.659 111.711,111.296 111.711,111.296 C 111.711,111.296 113.664,113.454 113.767,113.659 C 113.869,113.865 114.794,115.509 117.261,114.79 C 119.727,114.07 117.98,112.426 117.98,112.426 L 115,109.96 C 115,109.96 118.083,113.145 119.419,112.015 C 120.755,110.885 118.391,108.418 118.494,108.521 C 118.597,108.624 120.447,112.015 121.166,109.857 C 121.885,107.699 120.036,107.082 119.419,105.027 C 118.802,102.971 118.288,102.766 118.905,101.532 C 119.522,100.299 119.625,97.9355 119.625,97.9355 C 119.625,97.9355 122.194,98.552 121.988,96.3939 C 121.783,94.2357 119.213,93.7219 118.7,93.6191 C 118.186,93.5164 118.288,91.3582 118.083,91.4609 C 117.877,91.5637 116.233,92.7969 116.233,92.7969 C 116.233,92.7969 114.794,89.4054 114.486,89.611 C 114.178,89.8166 112.533,91.5637 111.3,91.6665 C 110.067,91.7692 109.347,93.5164 109.347,93.5164 C 109.347,93.5164 105.031,91.4609 105.134,94.8523 C 105.237,98.2438 107.703,97.4216 107.703,97.5244 C 107.703,97.6272 107.292,102.252 106.881,102.457 z "
           id="path592"
           sodipodi:nodetypes="cccccccccccccccccccccccccccccc"
           transform="translate(-0.138988,37.59389)" />
        <path
           style="fill:#000000;fill-opacity:0.99607801;fill-rule:evenodd;stroke:none;stroke-width:1.25;stroke-linecap:butt;stroke-linejoin:miter;stroke-dasharray:none;stroke-opacity:1"
           d="M 109.246,96.3855 C 109.76,96.2828 110.582,95.6662 111.404,95.8717 C 112.226,96.0772 113.459,97.0022 112.74,97.3105 C 112.02,97.6188 111.507,97.7215 110.787,97.4132 C 110.068,97.1049 109.554,96.5911 109.246,96.3855 z "
           id="path600"
           transform="matrix(0.990101,-0.140356,0.140356,0.990101,-12.57748,54.75072)" />
        <path
           style="fill:#000000;fill-opacity:0.99607801;fill-rule:evenodd;stroke:none;stroke-width:1.25;stroke-linecap:butt;stroke-linejoin:miter;stroke-dasharray:none;stroke-opacity:1"
           d="M 109.246,96.3855 C 109.76,96.2828 110.582,95.6662 111.404,95.8717 C 112.226,96.0772 113.459,97.0022 112.74,97.3105 C 112.02,97.6188 111.507,97.7215 110.787,97.4132 C 110.068,97.1049 109.554,96.5911 109.246,96.3855 z "
           id="path601"
           transform="matrix(-0.990101,-0.140356,-0.140356,0.990101,239.202,54.64795)" />
        <path
           style="fill:#000039;fill-opacity:0.99607801;fill-rule:evenodd;stroke:#000000;stroke-width:0.375;stroke-linecap:butt;stroke-linejoin:miter;stroke-dasharray:none;stroke-opacity:1"
           d="M 110.993,103.168 C 111.096,103.682 111.404,107.999 111.609,107.69 C 111.815,107.382 113.357,103.271 113.254,103.271 C 113.151,103.271 111.096,103.374 110.993,103.168 z "
           id="path602"
           transform="translate(-5.960464e-7,37.64325)" />
        <path
           style="fill:none;fill-opacity:1;fill-rule:evenodd;stroke:#000000;stroke-width:0.75;stroke-linecap:butt;stroke-linejoin:miter;stroke-dasharray:none;stroke-opacity:1"
           d="M 109.965,103.168 C 110.014,101.953 110.787,102.038 112.432,102.243 C 114.076,102.449 114.898,103.271 114.795,103.477 C 114.693,103.682 113.357,104.196 112.226,104.093 C 110.89,103.682 109.928,104.182 109.965,103.168 z "
           id="path603"
           sodipodi:nodetypes="ccccs"
           transform="translate(-5.960464e-7,37.78859)" />
        <path
           style="fill:none;fill-opacity:1;fill-rule:evenodd;stroke:#000000;stroke-width:1pt;stroke-linecap:butt;stroke-linejoin:miter;stroke-opacity:1"
           d="M 112.432,100.085 L 112.226,102.038"
           id="path607"
           transform="translate(-5.960464e-7,37.78859)" />
        <path
           style="fill:none;fill-opacity:1;fill-rule:evenodd;stroke:#000000;stroke-width:1pt;stroke-linecap:butt;stroke-linejoin:miter;stroke-opacity:1"
           d="M 119.317,94.8439 C 119.317,94.8439 120.653,95.4606 120.448,96.0772 C 120.242,96.6938 119.317,97.0022 119.317,97.0022"
           id="path608"
           transform="translate(-5.960464e-7,37.78859)" />
        <path
           style="fill:none;fill-opacity:1;fill-rule:evenodd;stroke:#000000;stroke-width:1pt;stroke-linecap:butt;stroke-linejoin:miter;stroke-opacity:1"
           d="M 108.115,94.3301 C 107.807,94.4329 107.396,94.6385 107.19,95.4606 C 106.985,96.2828 108.115,96.7966 108.115,96.7966"
           id="path609"
           transform="translate(-5.960464e-7,37.78859)" />
        <path
           style="fill:none;fill-opacity:1;fill-rule:evenodd;stroke:#000000;stroke-width:1pt;stroke-linecap:butt;stroke-linejoin:miter;stroke-opacity:1"
           d="M 111.186,136.133 C 111.186,136.133 109.732,137.587 112.203,137.587 C 114.674,137.587 112.93,136.279 112.93,136.279"
           id="path610"
           transform="translate(0.14534,0.290649)" />
      </g>
      <polygon
         sodipodi:type="star"
         style="font-size:12px;fill:#fdc400;fill-rule:evenodd;stroke-width:1pt"
         id="polygon749"
         sodipodi:sides="5"
         sodipodi:cx="301.18109"
         sodipodi:cy="609.44879"
         sodipodi:r1="87.449997"
         sodipodi:r2="34.98"
         sodipodi:arg1="2.1968231"
         sodipodi:arg2="2.8251417"
         points="249.942,680.315 267.938,620.334 217.949,582.616 280.556,581.197 300.981,521.999 321.677,581.102 384.289,582.235 334.474,620.182 352.745,680.079 301.261,644.429 249.942,680.315 "
         transform="matrix(0.347719,0,0,0.34286,640.9813,116.3998)"
         inkscape:flatsided="false"
         inkscape:rounded="0"
         inkscape:randomized="0"
         d="M 249.94155,680.31494 L 267.93799,620.33442 L 217.94949,582.61593 L 280.55556,581.19657 L 300.98068,521.99902 L 321.67691,581.10233 L 384.28883,582.23472 L 334.47373,620.18194 L 352.74491,680.07934 L 301.26125,644.4287 L 249.94155,680.31494 z " />
      <polygon
         sodipodi:type="star"
         style="font-size:12px;fill:#003017;fill-opacity:0.996081;fill-rule:evenodd;stroke-width:1pt"
         id="polygon750"
         sodipodi:sides="5"
         sodipodi:cx="301.18109"
         sodipodi:cy="609.44879"
         sodipodi:r1="87.449997"
         sodipodi:r2="34.98"
         sodipodi:arg1="2.1968231"
         sodipodi:arg2="2.8251417"
         points="249.942,680.315 267.938,620.334 217.949,582.616 280.556,581.197 300.981,521.999 321.677,581.102 384.289,582.235 334.474,620.182 352.745,680.079 301.261,644.429 249.942,680.315 "
         transform="matrix(0.289765,0,0,0.272364,658.432,158.8507)"
         inkscape:flatsided="false"
         inkscape:rounded="0"
         inkscape:randomized="0"
         d="M 249.94155,680.31494 L 267.93799,620.33442 L 217.94949,582.61593 L 280.55556,581.19657 L 300.98068,521.99902 L 321.67691,581.10233 L 384.28883,582.23472 L 334.47373,620.18194 L 352.74491,680.07934 L 301.26125,644.4287 L 249.94155,680.31494 z " />
      <polygon
         sodipodi:type="star"
         style="font-size:12px;fill:#fdc400;fill-rule:evenodd;stroke-width:1pt"
         id="polygon751"
         sodipodi:sides="5"
         sodipodi:cx="301.18109"
         sodipodi:cy="609.44879"
         sodipodi:r1="87.449997"
         sodipodi:r2="34.98"
         sodipodi:arg1="2.1968231"
         sodipodi:arg2="2.8251417"
         points="249.942,680.315 267.938,620.334 217.949,582.616 280.556,581.197 300.981,521.999 321.677,581.102 384.289,582.235 334.474,620.182 352.745,680.079 301.261,644.429 249.942,680.315 "
         transform="matrix(0.343967,0,0,0.324227,606.0928,87.41905)"
         inkscape:flatsided="false"
         inkscape:rounded="0"
         inkscape:randomized="0"
         d="M 249.94155,680.31494 L 267.93799,620.33442 L 217.94949,582.61593 L 280.55556,581.19657 L 300.98068,521.99902 L 321.67691,581.10233 L 384.28883,582.23472 L 334.47373,620.18194 L 352.74491,680.07934 L 301.26125,644.4287 L 249.94155,680.31494 z " />
      <polygon
         sodipodi:type="star"
         style="font-size:12px;fill:#003017;fill-opacity:0.996081;fill-rule:evenodd;stroke-width:1pt"
         id="polygon752"
         sodipodi:sides="5"
         sodipodi:cx="301.18109"
         sodipodi:cy="609.44879"
         sodipodi:r1="87.449997"
         sodipodi:r2="34.98"
         sodipodi:arg1="2.1968231"
         sodipodi:arg2="2.8251417"
         points="249.942,680.315 267.938,620.334 217.949,582.616 280.556,581.197 300.981,521.999 321.677,581.102 384.289,582.235 334.474,620.182 352.745,680.079 301.261,644.429 249.942,680.315 "
         transform="matrix(0.286639,0,0,0.257562,623.3553,127.563)"
         inkscape:flatsided="false"
         inkscape:rounded="0"
         inkscape:randomized="0"
         d="M 249.94155,680.31494 L 267.93799,620.33442 L 217.94949,582.61593 L 280.55556,581.19657 L 300.98068,521.99902 L 321.67691,581.10233 L 384.28883,582.23472 L 334.47373,620.18194 L 352.74491,680.07934 L 301.26125,644.4287 L 249.94155,680.31494 z " />
      <polygon
         sodipodi:type="star"
         style="font-size:12px;fill:#fdc400;fill-rule:evenodd;stroke-width:1pt"
         id="polygon753"
         sodipodi:sides="5"
         sodipodi:cx="301.18109"
         sodipodi:cy="609.44879"
         sodipodi:r1="87.449997"
         sodipodi:r2="34.98"
         sodipodi:arg1="2.1968231"
         sodipodi:arg2="2.8251417"
         points="249.942,680.315 267.938,620.334 217.949,582.616 280.556,581.197 300.981,521.999 321.677,581.102 384.289,582.235 334.474,620.182 352.745,680.079 301.261,644.429 249.942,680.315 "
         transform="matrix(0.348401,0,0,0.324227,677.1626,87.41905)"
         inkscape:flatsided="false"
         inkscape:rounded="0"
         inkscape:randomized="0"
         d="M 249.94155,680.31494 L 267.93799,620.33442 L 217.94949,582.61593 L 280.55556,581.19657 L 300.98068,521.99902 L 321.67691,581.10233 L 384.28883,582.23472 L 334.47373,620.18194 L 352.74491,680.07934 L 301.26125,644.4287 L 249.94155,680.31494 z " />
      <polygon
         sodipodi:type="star"
         style="font-size:12px;fill:#003017;fill-opacity:0.996081;fill-rule:evenodd;stroke-width:1pt"
         id="polygon754"
         sodipodi:sides="5"
         sodipodi:cx="301.18109"
         sodipodi:cy="609.44879"
         sodipodi:r1="87.449997"
         sodipodi:r2="34.98"
         sodipodi:arg1="2.1968231"
         sodipodi:arg2="2.8251417"
         points="249.942,680.315 267.938,620.334 217.949,582.616 280.556,581.197 300.981,521.999 321.677,581.102 384.289,582.235 334.474,620.182 352.745,680.079 301.261,644.429 249.942,680.315 "
         transform="matrix(0.290334,0,0,0.257562,694.6478,127.563)"
         inkscape:flatsided="false"
         inkscape:rounded="0"
         inkscape:randomized="0"
         d="M 249.94155,680.31494 L 267.93799,620.33442 L 217.94949,582.61593 L 280.55556,581.19657 L 300.98068,521.99902 L 321.67691,581.10233 L 384.28883,582.23472 L 334.47373,620.18194 L 352.74491,680.07934 L 301.26125,644.4287 L 249.94155,680.31494 z " />
    </g>
    <path
       id="path3870"
       d="M 640.9036,319.17829 C 648.74192,352.91125 681.82379,377.94816 726.38014,383.86835 C 783.61084,391.47258 838.21004,362.47628 848.25336,319.14446"
       style="fill:none;fill-opacity:1;fill-rule:evenodd;stroke:none;stroke-width:1;stroke-linecap:butt;stroke-linejoin:miter;stroke-miterlimit:4;stroke-dashoffset:0;stroke-opacity:1" />
    <path
       id="text3872"
       d="M 644.94254,331.50164 L 655.30122,326.23448 L 656.27599,328.1515 L 652.21323,330.21733 L 653.55739,332.86081 L 657.62014,330.79499 L 658.59491,332.71202 L 648.23623,337.97918 L 647.26146,336.06216 L 651.9565,333.67483 L 650.61234,331.03135 L 645.9173,333.41867 L 644.94254,331.50164 M 649.27889,339.6584 L 658.9501,333.21534 L 662.25949,338.18283 L 660.65181,339.25388 L 658.53481,336.0762 L 656.29912,337.56563 L 658.2697,340.52352 L 656.73738,341.54437 L 654.7668,338.58648 L 652.10408,340.36042 L 654.27129,343.61346 L 652.63849,344.70125 L 649.27889,339.6584 M 656.01793,349.01457 L 664.54927,341.12395 L 666.00954,342.7028 L 662.66349,345.79756 L 664.67713,347.97471 L 668.02318,344.87996 L 669.48346,346.45881 L 660.95213,354.34942 L 659.49185,352.77057 L 663.35865,349.19417 L 661.34501,347.01702 L 657.47821,350.59342 L 656.01793,349.01457 M 667.15877,353.68713 L 668.54309,354.90112 L 671.05935,350.62408 L 667.15877,353.68713 M 661.74651,355.14348 L 671.37729,348.13278 L 673.56158,350.0483 L 667.88521,360.52684 L 666.13211,358.98945 L 667.6264,356.41568 L 665.75415,354.77381 L 663.40884,356.60127 L 661.74651,355.14348 M 670.14987,362.16966 L 675.88887,354.34434 L 673.88081,352.87166 L 675.01433,351.32607 L 680.77683,355.55222 L 679.64332,357.09781 L 677.63526,355.62513 L 671.89627,363.45045 L 670.14987,362.16966 M 674.86288,365.5606 L 680.91681,355.64116 L 682.75255,356.76153 L 680.37815,360.65202 L 682.90954,362.19695 L 685.28394,358.30647 L 687.11968,359.42684 L 681.06575,369.34628 L 679.23001,368.22591 L 681.97393,363.72995 L 679.44255,362.18502 L 676.69862,366.68097 L 674.86288,365.5606 M 686.24319,372.04165 L 691.12789,361.49721 L 696.63976,364.05058 L 695.84044,365.77603 L 692.29368,364.133 L 691.13911,366.62532 L 694.48731,368.17637 L 693.70703,369.86074 L 690.35883,368.30969 L 688.20829,372.95198 L 686.24319,372.04165 M 697.0223,370.44022 C 696.34394,372.22748 696.01987,373.3932 696.05008,373.93737 C 696.08678,374.47863 696.38733,374.85636 696.95173,375.07058 C 697.50672,375.28123 697.97102,375.19918 698.34464,374.82442 C 698.72474,374.44675 699.25755,373.35488 699.94306,371.54881 C 700.62855,369.74274 700.9553,368.56997 700.92331,368.0305 C 700.8913,367.49103 700.59545,367.11508 700.03577,366.90264 C 699.47607,366.69021 699.00527,366.77518 698.62339,367.15755 C 698.24149,367.53994 697.7078,368.63416 697.0223,370.44022 M 694.9552,369.65565 C 695.39256,368.50334 695.79565,367.60438 696.16446,366.95874 C 696.53505,366.30843 696.90163,365.85298 697.2642,365.5924 C 697.76675,365.21816 698.27691,365.00823 698.79465,364.96259 C 699.31238,364.91697 699.9287,365.02983 700.64361,365.30116 C 701.35851,365.57252 701.8945,365.89702 702.25158,366.27468 C 702.60865,366.65236 702.85337,367.14881 702.98577,367.76404 C 703.08055,368.20897 703.04936,368.79441 702.89221,369.52036 C 702.73974,370.24811 702.44573,371.18578 702.01016,372.33338 C 701.57636,373.47629 701.17416,374.3729 700.80358,375.02323 C 700.43476,375.66885 700.06964,376.12755 699.70822,376.39931 C 699.20094,376.77177 698.68844,376.98081 698.17071,377.02644 C 697.65296,377.07207 697.03664,376.95921 696.32174,376.68787 C 695.60684,376.41652 695.07085,376.09202 694.71378,375.71435 C 694.3567,375.33668 694.11432,374.84112 693.98664,374.22767 C 693.88828,373.79215 693.91533,373.21052 694.06779,372.48278 C 694.22203,371.75034 694.51783,370.80796 694.9552,369.65565 M 704.95057,367.18729 L 707.02622,367.80535 L 704.79088,375.3124 C 704.53533,376.17063 704.46527,376.7849 704.58072,377.1552 C 704.70241,377.52213 705.03085,377.78527 705.56604,377.94463 C 706.0964,378.10255 706.50877,378.05738 706.80316,377.8091 C 707.10236,377.56226 707.3819,377.00249 707.64176,376.1298 L 709.86849,368.65168 L 711.91521,369.26112 L 709.62603,376.94898 C 709.40349,377.69631 709.19715,378.23063 709.007,378.55193 C 708.8231,378.86985 708.59354,379.12956 708.31834,379.33106 C 707.90311,379.63259 707.42018,379.80897 706.86953,379.86022 C 706.32031,379.90663 705.70819,379.82935 705.03319,379.62836 C 703.76031,379.24934 702.94294,378.70676 702.58107,378.00062 C 702.22545,377.2911 702.25222,376.24928 702.66139,374.87515 L 704.95057,367.18729 M 710.50878,380.89028 L 713.04652,369.54985 L 715.21887,370.03598 L 716.39703,378.62771 L 718.11289,370.6836 L 720.10851,371.13017 L 717.57077,382.4706 L 715.41315,381.98777 L 714.21619,373.37636 L 712.49704,381.33521 L 710.50878,380.89028 M 721.86883,381.46827 L 722.81564,381.61655 C 723.29773,381.69205 723.64115,381.71019 723.84589,381.67097 C 724.05061,381.63174 724.22337,381.53659 724.36415,381.38551 C 724.60965,381.11844 724.81512,380.73307 724.98057,380.22941 C 725.14679,379.72078 725.31941,378.89491 725.49844,377.75178 C 725.67279,376.63848 725.74996,375.82056 725.72996,375.29804 C 725.70994,374.77553 725.60089,374.36637 725.40281,374.07055 C 725.29879,373.92188 725.15127,373.80712 724.96025,373.72627 C 724.77498,373.64125 724.47359,373.56605 724.05611,373.50066 L 723.13913,373.35705 L 721.86883,381.46827 M 719.50889,382.83251 L 721.30692,371.35155 L 724.74375,371.88979 C 725.44453,371.99955 725.99185,372.14637 726.38569,372.33025 C 726.78449,372.51493 727.09707,372.76247 727.32344,373.07287 C 727.66451,373.52857 727.86997,374.06995 727.93982,374.69701 C 728.01539,375.31989 727.95432,376.26254 727.75663,377.52494 C 727.50131,379.15514 727.26358,380.29925 727.04341,380.95728 C 726.82401,381.61035 726.54067,382.15155 726.19337,382.5809 C 725.85601,383.01181 725.43646,383.28472 724.93473,383.39964 C 724.43873,383.51037 723.61172,383.47506 722.45369,383.2937 L 719.50889,382.83251 M 728.49754,384.16248 L 729.61471,372.5954 L 735.55598,373.16921 L 735.37027,375.09205 L 731.56966,374.72498 L 731.3114,377.39893 L 734.84913,377.74061 L 734.67212,379.57332 L 731.1344,379.23164 L 730.82682,382.41634 L 734.71756,382.79211 L 734.52895,384.745 L 728.49754,384.16248 M 738.31439,383.22615 L 739.27212,383.26064 C 739.75977,383.2782 740.10291,383.25532 740.30152,383.19199 C 740.50011,383.12867 740.66031,383.01363 740.7821,382.84686 C 740.99406,382.55245 741.15218,382.14536 741.25648,381.62559 C 741.36095,381.10079 741.43401,380.26023 741.47565,379.10392 C 741.5162,377.97778 741.49544,377.1565 741.41336,376.64007 C 741.33127,376.12366 741.17428,375.73039 740.94238,375.46027 C 740.8214,375.32504 740.66126,375.22866 740.46198,375.17113 C 740.2679,375.10878 739.95971,375.07 739.53741,375.05478 L 738.60984,375.02138 L 738.31439,383.22615 M 736.13368,384.86168 L 736.55188,373.24831 L 740.02835,373.3735 C 740.73722,373.39904 741.29812,373.47964 741.71105,373.61531 C 742.12901,373.75119 742.46884,373.95975 742.73055,374.241 C 743.12346,374.65284 743.39192,375.1659 743.53593,375.78019 C 743.68513,376.38964 743.73674,377.33285 743.69077,378.60981 C 743.63138,380.25881 743.53156,381.4231 743.39132,382.10266 C 743.25124,382.7772 743.03435,383.3483 742.74065,383.81594 C 742.45699,384.28396 742.07292,384.60488 741.58844,384.77873 C 741.10916,384.94772 740.28383,385.01113 739.11244,384.96895 L 736.13368,384.86168 M 749.0788,385.01355 L 748.61746,373.40181 L 750.78147,373.31583 L 751.2428,384.92758 L 749.0788,385.01355 M 754.85849,384.70764 L 754.06439,375.03598 L 751.58255,375.23975 L 751.42571,373.32949 L 758.54784,372.74472 L 758.70468,374.65499 L 756.22284,374.85876 L 757.01694,384.53042 L 754.85849,384.70764 M 762.48253,372.24764 L 764.61625,371.87674 L 765.95767,379.59382 C 766.11102,380.47605 766.32182,381.05725 766.59009,381.33741 C 766.86244,381.61176 767.2737,381.70111 767.82386,381.60548 C 768.36906,381.51071 768.71817,381.28663 768.87121,380.93324 C 769.02919,380.57899 769.03021,379.95331 768.87428,379.0562 L 767.53803,371.36887 L 769.64201,371.00314 L 771.01574,378.90608 C 771.14927,379.67432 771.20244,380.24462 771.17527,380.61699 C 771.15217,380.98354 771.06228,381.3183 770.9056,381.62126 C 770.66808,382.07614 770.31421,382.44913 769.84399,382.74022 C 769.3729,383.02635 768.79041,383.22972 768.09652,383.35034 C 766.78804,383.57778 765.81457,383.45595 765.17611,382.98483 C 764.54174,382.50789 764.10179,381.56314 763.85625,380.15057 L 762.48253,372.24764 M 774.04446,375.19439 L 774.92426,374.98011 C 775.57922,374.82059 776.00773,374.58161 776.20977,374.26315 C 776.41061,373.93982 776.43544,373.46777 776.28426,372.84701 C 776.13187,372.22138 775.90432,371.81857 775.6016,371.63858 C 775.30257,371.45254 774.81336,371.44224 774.13395,371.60771 L 773.22482,371.82913 L 774.04446,375.19439 M 773.55998,382.03829 L 770.81001,370.74745 L 774.46121,369.85818 C 775.57562,369.58676 776.43794,369.64081 777.04815,370.0203 C 777.65835,370.39983 778.10155,371.15657 778.37774,372.29053 C 778.64916,373.40496 778.59004,374.29957 778.20039,374.97438 C 777.81441,375.64312 777.08622,376.10784 776.01579,376.36855 L 774.48346,376.74176 L 775.64952,381.52937 L 773.55998,382.03829 M 781.85885,373.85668 C 782.43679,375.6789 782.90654,376.7939 783.26811,377.20171 C 783.63294,377.60321 784.10307,377.71271 784.67851,377.5302 C 785.24435,377.35073 785.55737,376.99813 785.61756,376.47238 C 785.68102,375.94032 785.42074,374.75359 784.83671,372.9122 C 784.25268,371.07082 783.78065,369.94862 783.42061,369.54559 C 783.06057,369.14259 782.59523,369.03157 782.02459,369.21255 C 781.45395,369.39355 781.13766,369.75247 781.07572,370.28932 C 781.01377,370.82618 781.27482,372.0153 781.85885,373.85668 M 779.75132,374.52512 C 779.3787,373.35029 779.13651,372.39532 779.02474,371.66022 C 778.91146,370.92034 778.91603,370.33571 779.03845,369.90633 C 779.20004,369.30093 779.4696,368.81961 779.84712,368.46237 C 780.22464,368.10515 780.77784,367.81095 781.50672,367.57976 C 782.2356,367.34859 782.85724,367.27017 783.37165,367.3445 C 783.88605,367.41886 784.38614,367.65607 784.87191,368.05614 C 785.22247,368.34607 785.56152,368.82435 785.88907,369.49099 C 786.22141,370.15613 786.57313,371.07372 786.94424,372.24376 C 787.31381,373.40902 787.55525,374.36159 787.66853,375.10147 C 787.78029,375.83657 787.77888,376.42284 787.6643,376.86028 C 787.49791,377.46721 787.22596,377.94929 786.84844,378.30652 C 786.47092,378.66375 785.91772,378.95795 785.18884,379.18913 C 784.45995,379.42031 783.83831,379.49873 783.32391,379.42438 C 782.80951,379.35004 782.31182,379.11207 781.83084,378.71046 C 781.48332,378.43014 781.14339,377.95741 780.81105,377.29228 C 780.47719,376.62236 780.12394,375.69997 779.75132,374.52512 M 790.37286,377.18138 L 786.04898,366.39484 L 788.11523,365.56657 L 793.94784,371.98425 L 790.8679,364.46314 L 792.76605,363.70225 L 797.08993,374.48879 L 795.03769,375.31145 L 789.17845,368.88818 L 792.264,376.4233 L 790.37286,377.18138 M 803.83177,371.23138 L 799.29798,362.65138 L 797.09627,363.81479 L 796.2008,362.12014 L 802.51904,358.78149 L 803.41451,360.47615 L 801.2128,361.63956 L 805.74659,370.21956 L 803.83177,371.23138 M 808.9474,368.48648 L 802.74193,358.66113 L 804.56026,357.51271 L 806.99409,361.36629 L 809.50147,359.78268 L 807.06764,355.92911 L 808.88597,354.78069 L 815.09144,364.60604 L 813.27311,365.75446 L 810.4605,361.30115 L 807.95312,362.88475 L 810.76573,367.33806 L 808.9474,368.48648 M 816.69909,363.46176 L 809.69549,354.18842 L 814.45861,350.59112 L 815.62285,352.13266 L 812.57589,354.43384 L 814.19491,356.57755 L 817.03111,354.43554 L 818.14077,355.90482 L 815.30457,358.04683 L 817.23284,360.60001 L 820.35205,358.24425 L 821.53448,359.80988 L 816.69909,363.46176 M 822.67713,353.49027 L 824.22188,351.97236 L 824.74548,352.50522 C 825.24616,353.01475 825.65097,353.30111 825.95991,353.36429 C 826.26891,353.42036 826.5795,353.29502 826.89168,352.98826 C 827.21821,352.6674 827.38471,352.34158 827.39116,352.0108 C 827.40121,351.6765 827.24756,351.34788 826.93023,351.02493 C 826.68694,350.77734 826.4197,350.62381 826.12852,350.56434 C 825.83381,350.50128 825.35159,350.52374 824.68186,350.6317 L 823.3406,350.8494 C 822.19341,351.04568 821.3749,351.0812 820.88508,350.95595 C 820.39885,350.82719 819.92655,350.52956 819.46817,350.06308 C 818.78415,349.36697 818.45453,348.61881 818.47932,347.81861 C 818.50413,347.01843 818.87894,346.26221 819.60376,345.54996 C 820.37166,344.79543 821.1664,344.42709 821.98799,344.44495 C 822.80959,344.46283 823.60648,344.86468 824.37866,345.6505 C 824.45623,345.72945 824.51438,345.79222 824.5531,345.83879 C 824.59541,345.88186 824.63064,345.9213 824.65878,345.95711 L 823.19477,347.39569 L 822.97792,347.17501 C 822.53719,346.72649 822.14806,346.47762 821.81053,346.42841 C 821.47302,346.37921 821.13561,346.52033 820.79831,346.85176 C 820.55072,347.09506 820.42744,347.36078 820.42847,347.64893 C 820.42957,347.92998 820.55705,348.19968 820.81091,348.45802 C 821.15293,348.80609 821.84953,348.87979 822.90071,348.6791 C 822.91142,348.67565 822.92033,348.67395 822.92744,348.674 L 824.34377,348.41427 C 825.34509,348.22028 826.1297,348.19692 826.69759,348.34418 C 827.26195,348.48788 827.81563,348.83601 828.35862,349.3886 C 829.09906,350.14214 829.45497,350.935 829.42634,351.76717 C 829.3977,352.59934 828.98329,353.40857 828.18311,354.19485 C 827.35063,355.01287 826.5183,355.40756 825.68613,355.37892 C 824.85754,355.34676 824.00956,354.88932 823.14218,354.00661 C 823.05051,353.91332 822.90607,353.75197 822.70886,353.52257 L 822.67713,353.49027 M 831.66979,350.2265 L 822.76262,342.76274 L 826.59628,338.1877 L 828.07696,339.42843 L 825.62458,342.35507 L 827.68364,344.08046 L 829.96638,341.35625 L 831.37765,342.53882 L 829.0949,345.26303 L 831.54727,347.31798 L 834.0578,344.32194 L 835.56161,345.58205 L 831.66979,350.2265 M 833.9315,339.82257 L 834.9602,338.2955 L 830.39866,336.34178 L 833.9315,339.82257 M 836.06226,345.00652 L 827.88716,336.34225 L 829.5103,333.93274 L 840.62393,338.23486 L 839.32119,340.16873 L 836.57876,339.01279 L 835.18749,341.07808 L 837.29753,343.17279 L 836.06226,345.00652 M 837.44168,335.5568 L 838.4309,333.6302 L 839.09548,333.97143 C 839.73096,334.29773 840.20527,334.4423 840.51841,334.40515 C 840.82937,334.36123 841.0848,334.1446 841.28472,333.75525 C 841.49382,333.34801 841.54944,332.98637 841.45158,332.67032 C 841.35601,332.34982 841.10684,332.08616 840.70407,331.87935 C 840.39528,331.7208 840.09332,331.65907 839.79821,331.69416 C 839.49862,331.72695 839.04791,331.89987 838.44607,332.21291 L 837.24126,332.84124 C 836.21395,333.38823 835.44811,333.67927 834.94374,333.71437 C 834.44169,333.745 833.89977,333.61095 833.31798,333.31223 C 832.44979,332.86645 831.90168,332.25985 831.67364,331.49243 C 831.44563,330.72503 831.56369,329.88932 832.02785,328.98531 C 832.51959,328.02762 833.15824,327.4281 833.94379,327.18676 C 834.72935,326.94544 835.61217,327.07638 836.59224,327.5796 C 836.6907,327.63016 836.76563,327.67146 836.81703,327.7035 C 836.87074,327.73109 836.91658,327.75745 836.95455,327.7826 L 836.01704,329.6085 L 835.74181,329.46718 C 835.18241,329.17996 834.73477,329.06605 834.39889,329.12544 C 834.06302,329.18485 833.78709,329.42489 833.57108,329.84555 C 833.41254,330.15435 833.37905,330.44536 833.47062,330.71857 C 833.56002,330.98503 833.76582,331.20097 834.08803,331.36641 C 834.52214,331.58931 835.20659,331.44027 836.14138,330.91928 C 836.15045,330.91264 836.15837,330.90822 836.16514,330.90604 L 837.42801,330.21421 C 838.31757,329.71526 839.05505,329.44641 839.64044,329.40767 C 840.22136,329.36665 840.85641,329.52307 841.5456,329.87693 C 842.4854,330.35948 843.07252,331.00024 843.30696,331.79922 C 843.5414,332.5982 843.40241,333.49669 842.89,334.49466 C 842.3569,335.53292 841.69086,336.16927 840.89188,336.4037 C 840.09519,336.63367 839.14639,336.46602 838.04548,335.90075 C 837.92913,335.84101 837.74129,335.73325 837.48196,335.57748 L 837.44168,335.5568"
       style="font-size:15.45429134px;font-style:normal;font-variant:normal;font-weight:bold;font-stretch:normal;text-align:center;line-height:100%;writing-mode:lr-tb;text-anchor:middle;fill:#000000;fill-opacity:1;stroke:none;stroke-width:1px;stroke-linecap:butt;stroke-linejoin:miter;stroke-opacity:1;font-family:Swis721 Cn BT"
       transform="matrix(1.037575,0,0,1.152938,-28.43013,-57.78736)" />
  </g>
</svg>
