<?xml version="1.0" encoding="UTF-8" standalone="no"?>
<!DOCTYPE svg PUBLIC "-//W3C//DTD SVG 1.0//EN"
"http://www.w3.org/TR/2001/REC-SVG-20010904/DTD/svg10.dtd">
<!-- Created with Inkscape (http://www.inkscape.org/) --><svg height="496.06299" id="svg583" version="1.0" width="744.09448" x="0.0000000" xmlns="http://www.w3.org/2000/svg" xmlns:xlink="http://www.w3.org/1999/xlink" y="0.0000000">
  <metadata>
    <rdf:RDF xmlns:cc="http://web.resource.org/cc/" xmlns:dc="http://purl.org/dc/elements/1.1/" xmlns:rdf="http://www.w3.org/1999/02/22-rdf-syntax-ns#">
      <cc:Work rdf:about="">
        <dc:title>Lebanon</dc:title>
        <dc:description></dc:description>
        <dc:subject>
          <rdf:Bag>
            <rdf:li></rdf:li>
            <rdf:li>asia</rdf:li>
            <rdf:li>united_nations_member</rdf:li>
            <rdf:li>flag</rdf:li>
            <rdf:li>sign</rdf:li>
          </rdf:Bag>
        </dc:subject>
        <dc:publisher>
          <cc:Agent rdf:about="http://www.openclipart.org">
            <dc:title>Tobias Jakobs</dc:title>
          </cc:Agent>
        </dc:publisher>
        <dc:creator>
          <cc:Agent>
            <dc:title>Tobias Jakobs</dc:title>
          </cc:Agent>
        </dc:creator>
        <dc:rights>
          <cc:Agent>
            <dc:title>Tobias Jakobs</dc:title>
          </cc:Agent>
        </dc:rights>
        <dc:date></dc:date>
        <dc:format>image/svg+xml</dc:format>
        <dc:type rdf:resource="http://purl.org/dc/dcmitype/StillImage"/>
        <cc:license rdf:resource="http://web.resource.org/cc/PublicDomain"/>
        <dc:language>en</dc:language>
      </cc:Work>
      <cc:License rdf:about="http://web.resource.org/cc/PublicDomain">
        <cc:permits rdf:resource="http://web.resource.org/cc/Reproduction"/>
        <cc:permits rdf:resource="http://web.resource.org/cc/Distribution"/>
        <cc:permits rdf:resource="http://web.resource.org/cc/DerivativeWorks"/>
      </cc:License>
    </rdf:RDF>
  </metadata>
  <defs id="defs585"/>
  <g id="g709" transform="translate(0.000000,-1.525879e-5)">
    <rect height="124.01575" id="rect704" style="font-size:12.000000;fill:#ff0000;fill-opacity:1.0000000;fill-rule:evenodd;stroke-width:1.0000000pt;" width="744.09448" x="0.0000000" y="372.04724"/>
    <rect height="124.01575" id="rect707" style="font-size:12.000000;fill:#ff0000;fill-opacity:1.0000000;fill-rule:evenodd;stroke-width:1.0000000pt;" width="744.09448" x="0.0000000" y="0.0000000"/>
    <rect height="248.03146" id="rect708" style="font-size:12.000000;fill:#ffffff;fill-opacity:1.0000000;fill-rule:evenodd;stroke-width:1.0000000pt;" width="744.09448" x="0.0000000" y="124.01578"/>
  </g>
  <path d="M 368.26400,125.90400 C 360.69700,141.01200 355.65100,141.01200 343.04000,151.08500 C 337.99600,156.12100 330.42900,158.63900 340.51800,163.67600 C 330.42900,168.71100 325.38400,171.23000 320.33900,181.30200 C 320.33900,181.30200 322.86100,183.82000 322.86100,183.82000 C 322.86100,183.82000 332.44800,179.12100 332.95100,181.30200 C 334.62800,183.31500 320.33200,191.04000 318.48700,192.21400 C 316.64200,193.38800 307.72700,198.92900 307.72700,198.92900 C 295.11600,209.00100 287.54800,206.48200 279.98100,221.59100 C 279.98100,221.59100 305.20500,219.07400 305.20500,219.07400 C 310.25000,236.70000 292.59300,239.21800 279.98100,246.77200 C 279.98100,246.77200 259.80200,259.36300 259.80200,259.36300 C 264.84800,276.98900 279.98100,266.91700 292.59300,261.88000 C 292.59300,261.88000 295.11600,264.39900 295.11600,264.39900 C 295.11600,264.39900 295.11600,269.43500 295.11600,269.43500 C 295.11600,269.43500 269.89200,282.02600 269.89200,282.02600 C 269.89200,282.02600 240.11600,299.06300 239.62400,299.65200 C 239.42100,300.56400 239.62400,304.68800 239.62400,304.68800 C 249.71300,307.20600 264.84800,309.72500 274.93700,304.68800 C 287.54800,299.65200 290.07000,294.61600 305.20500,294.61600 C 287.54800,307.20600 274.93700,312.24300 254.75800,314.76000 C 254.75800,314.76000 254.75800,324.83300 254.75800,324.83300 C 269.89200,324.83300 279.98100,324.83300 292.59300,322.31500 C 292.59300,322.31500 325.38400,312.24300 325.38400,312.24300 C 332.95100,312.24300 340.51800,319.79700 337.99600,327.35100 C 330.42900,355.04900 300.16000,350.01400 290.07000,372.67600 C 290.07000,372.67600 330.42900,357.56800 330.42900,357.56800 C 340.51800,352.53200 350.60700,347.49600 363.21900,350.01400 C 378.35300,355.04900 378.35300,365.12300 398.53200,370.15800 C 398.53200,370.15800 393.48800,357.56800 393.48800,357.56800 C 398.53200,360.08600 403.57700,360.08600 408.62100,362.60400 C 421.23400,367.64100 423.75600,372.67600 438.88900,370.15800 C 426.27800,355.04900 423.75600,357.56800 413.66600,347.49600 C 403.57700,332.38700 398.53200,309.72500 413.66600,307.20600 C 413.66600,307.20600 431.32300,312.24300 431.32300,312.24300 C 448.97900,314.76000 448.97900,309.72500 474.20200,319.79700 C 489.33700,324.83300 494.38200,332.38700 512.03800,327.35100 C 504.47100,309.72500 476.72500,297.13400 459.06900,292.09800 C 479.24700,279.50700 474.20200,297.13400 501.94800,289.57900 C 501.94800,289.57900 501.94800,284.54400 501.94800,284.54400 C 481.77000,269.43500 474.20200,256.84500 446.45600,256.84500 C 446.45600,256.84500 489.33700,251.80800 489.33700,251.80800 C 489.33700,251.80800 489.33700,246.77200 489.33700,246.77200 C 489.33700,246.77200 447.04700,235.67700 446.06300,235.28300 C 446.35800,234.00500 447.39200,232.02200 450.20000,230.92600 C 458.23100,236.12500 482.51900,235.51900 483.89800,235.42100 C 483.18800,229.22500 471.68000,224.10900 461.59100,219.07400 C 461.59100,219.07400 418.39000,192.44600 418.17500,190.08900 C 419.03200,183.34000 435.91900,191.16100 454.02400,196.41000 C 448.97900,186.33800 438.88900,181.30200 428.80000,178.78400 C 428.80000,178.78400 443.93400,176.26600 443.93400,176.26600 C 433.84500,153.60300 408.62100,156.12100 393.48800,146.04900 C 383.39700,138.49500 383.39700,133.45800 368.26400,125.90400 z " id="selection_to_path" style="font-size:12.000000;fill:#007900;stroke:none;stroke-width:1.2375000;stroke-linecap:round;stroke-linejoin:round;"/>
  <path d="M 341.00900,293.63400 C 342.88100,287.63300 345.34600,282.32300 334.11400,277.20800 C 322.88100,272.09400 339.72800,297.66500 341.00900,293.63400 z " id="path593" style="font-size:12.000000;fill:#ffffff;fill-rule:evenodd;stroke:#ffffff;stroke-width:3.1187799;stroke-linecap:round;stroke-linejoin:round;"/>
  <path d="M 354.31200,281.63200 C 352.04800,281.92700 350.86200,290.19200 355.39400,292.45300 C 360.42100,293.23800 356.28300,281.73100 354.31200,281.63200 z " id="path594" style="font-size:12.000000;fill:#ffffff;fill-rule:evenodd;stroke:#ffffff;stroke-width:3.1187799;stroke-linecap:round;stroke-linejoin:round;"/>
  <path d="M 367.41600,280.74600 C 365.05000,281.43600 364.95200,293.04200 373.23000,290.97700 C 381.50600,288.91300 373.12900,279.76400 367.41600,280.74600 z " id="path595" style="font-size:12.000000;fill:#ffffff;fill-rule:evenodd;stroke:#ffffff;stroke-width:3.1187799;stroke-linecap:round;stroke-linejoin:round;"/>
  <path d="M 382.68900,250.94400 C 384.46200,248.09100 382.59100,236.38700 375.49500,241.30400 C 368.40200,246.22300 380.42200,251.73100 382.68900,250.94400 z " id="path597" style="font-size:12.000000;fill:#ffffff;fill-rule:evenodd;stroke:#ffffff;stroke-width:3.1187799;stroke-linecap:round;stroke-linejoin:round;"/>
  <path d="M 367.21700,241.20600 C 369.38600,240.41900 369.58300,233.23900 363.37600,235.10800 C 357.17100,236.97700 365.54500,242.68200 367.21700,241.20600 z " id="path598" style="font-size:12.000000;fill:#ffffff;fill-rule:evenodd;stroke:#ffffff;stroke-width:3.1187799;stroke-linecap:round;stroke-linejoin:round;"/>
  <path d="M 353.22800,244.05900 C 353.22800,244.05900 348.89200,238.05900 345.54200,239.33700 C 341.30500,243.37000 353.52300,244.15700 353.22800,244.05900 z " id="path599" style="font-size:12.000000;fill:#ffffff;fill-rule:evenodd;stroke:#ffffff;stroke-width:3.1187799;stroke-linecap:round;stroke-linejoin:round;"/>
  <path d="M 305.18500,263.23300 C 307.03100,263.40100 320.71300,260.97700 325.44200,255.66600 C 330.17100,250.35400 301.09700,257.93900 301.09700,258.03700 C 301.09700,258.13500 303.84400,262.73000 305.18500,263.23300 z " id="path600" style="font-size:12.000000;fill:#ffffff;fill-rule:evenodd;stroke:#ffffff;stroke-width:3.1187799;stroke-linecap:round;stroke-linejoin:round;"/>
  <path d="M 441.90600,229.36100 C 442.61100,228.10600 434.62300,222.41200 429.87600,224.65600 C 428.65400,228.86000 441.86600,230.22500 441.90600,229.36100 z " id="path601" style="font-size:12.000000;fill:#ffffff;fill-rule:evenodd;stroke:#ffffff;stroke-width:3.1187799;stroke-linecap:round;stroke-linejoin:round;"/>
  <path d="M 415.00500,215.82800 C 416.48400,213.66400 411.55800,204.81200 401.70500,209.73000 C 391.85200,214.64800 412.04900,219.27100 415.00500,215.82800 z " id="path602" style="font-size:12.000000;fill:#ffffff;fill-rule:evenodd;stroke:#ffffff;stroke-width:3.1187799;stroke-linecap:round;stroke-linejoin:round;"/>
  <path d="M 383.87200,210.61500 C 383.87200,210.61500 386.33400,202.64800 392.24700,204.22100 C 398.94800,209.33700 384.16700,210.91100 383.87200,210.61500 z " id="path603" style="font-size:12.000000;fill:#ffffff;fill-rule:evenodd;stroke:#ffffff;stroke-width:3.1187799;stroke-linecap:round;stroke-linejoin:round;"/>
  <path d="M 378.05800,204.61500 C 377.17000,202.35300 370.96300,203.73000 363.87000,208.35300 C 356.77400,212.97600 380.22500,209.73100 378.05800,204.61500 z " id="path604" style="font-size:12.000000;fill:#ffffff;fill-rule:evenodd;stroke:#ffffff;stroke-width:3.1187799;stroke-linecap:round;stroke-linejoin:round;"/>
  <path d="M 396.18600,183.17200 C 396.18600,183.17200 402.50600,180.34300 404.36400,183.17200 C 407.02500,187.40200 396.08800,183.27100 396.18600,183.17200 z " id="path605" style="font-size:12.000000;fill:#ffffff;fill-rule:evenodd;stroke:#ffffff;stroke-width:3.1187799;stroke-linecap:round;stroke-linejoin:round;"/>
  <path d="M 390.88300,180.40700 C 389.60200,177.84900 382.60900,177.60700 382.78800,181.30300 C 381.61600,184.19900 391.87600,183.66000 390.88300,180.40700 z " id="path606" style="font-size:12.000000;fill:#ffffff;fill-rule:evenodd;stroke:#ffffff;stroke-width:3.1187799;stroke-linecap:round;stroke-linejoin:round;"/>
  <path d="M 374.21400,180.41800 C 373.52500,178.94200 363.57600,180.44600 360.61900,186.41800 C 365.36500,188.72600 376.38400,184.15600 374.21400,180.41800 z " id="path607" style="font-size:12.000000;fill:#ffffff;fill-rule:evenodd;stroke:#ffffff;stroke-width:3.1187799;stroke-linecap:round;stroke-linejoin:round;"/>
  <path d="M 352.93300,186.51700 C 352.93300,186.51700 339.84400,194.51900 339.04000,200.38600 C 339.43700,205.45200 355.29600,191.23800 355.29600,191.23800 C 355.29600,191.23800 356.67600,185.63100 352.93300,186.51700 z " id="path608" style="font-size:12.000000;fill:#ffffff;fill-rule:evenodd;stroke:#ffffff;stroke-width:3.1187799;stroke-linecap:round;stroke-linejoin:round;"/>
  <path d="M 338.44900,179.23800 C 338.81500,177.61000 344.91600,173.83900 345.44400,174.12300 C 345.93800,175.76400 340.46100,180.20600 338.44900,179.23800 z " id="path609" style="font-size:12.000000;fill:#ffffff;fill-rule:evenodd;stroke:#ffffff;stroke-width:3.1187799;stroke-linecap:round;stroke-linejoin:round;"/>
  <path d="M 342.58600,209.82900 C 342.88100,207.46800 327.01800,207.66400 333.02900,214.94300 C 338.03400,221.04800 343.67100,210.91100 342.58600,209.82900 z " id="path610" style="font-size:12.000000;fill:#ffffff;fill-rule:evenodd;stroke:#ffffff;stroke-width:3.1187799;stroke-linecap:round;stroke-linejoin:round;"/>
  <path d="M 328.14300,220.27700 C 327.31600,218.68100 326.12600,214.42700 323.95400,214.03500 C 322.18400,213.93600 312.64500,215.90300 311.91600,217.51800 C 311.52200,218.79700 315.86400,226.65900 317.34300,226.85600 C 319.01800,227.54400 327.84800,221.06400 328.14300,220.27700 z " id="path611" style="font-size:12.000000;fill:#ffffff;fill-rule:evenodd;stroke:#ffffff;stroke-width:3.1187799;stroke-linecap:round;stroke-linejoin:round;"/>
  <path d="M 413.72400,273.66500 C 414.21600,271.99400 430.42600,266.39200 436.02300,271.75000 C 442.62300,280.80000 413.33100,276.51900 413.72400,273.66500 z " id="path612" style="font-size:12.000000;fill:#ffffff;fill-rule:evenodd;stroke:#ffffff;stroke-width:3.1187799;stroke-linecap:round;stroke-linejoin:round;"/>
  <path d="M 458.27900,284.26200 C 461.83100,278.25100 447.37200,271.12500 441.23500,277.99300 C 443.33300,286.24500 455.40800,289.23200 458.27900,284.26200 z " id="path613" style="font-size:12.000000;fill:#ffffff;fill-rule:evenodd;stroke:#ffffff;stroke-width:3.1187799;stroke-linecap:round;stroke-linejoin:round;"/>
</svg>
