<?xml version="1.0" encoding="UTF-8" standalone="no"?>
<!DOCTYPE svg PUBLIC "-//W3C//DTD SVG 20010904//EN"
"http://www.w3.org/TR/2001/REC-SVG-20010904/DTD/svg10.dtd"
[
 <!ATTLIST svg
  xmlns:xlink CDATA #FIXED "http://www.w3.org/1999/xlink">
]>
<!-- Created with Sodipodi ("http://www.sodipodi.com/") --><svg height="708.661" id="svg378" version="1" width="1062.99" x="0" xmlns="http://www.w3.org/2000/svg" xmlns:xlink="http://www.w3.org/1999/xlink" y="0">
  <metadata>
    <rdf:RDF xmlns:cc="http://web.resource.org/cc/" xmlns:dc="http://purl.org/dc/elements/1.1/" xmlns:rdf="http://www.w3.org/1999/02/22-rdf-syntax-ns#">
      <cc:Work rdf:about="">
        <dc:title> morocco</dc:title>
        <dc:description></dc:description>
        <dc:subject>
          <rdf:Bag>
            <rdf:li></rdf:li>
            <rdf:li>united_nations_member</rdf:li>
            <rdf:li>flag</rdf:li>
            <rdf:li>africa</rdf:li>
            <rdf:li>sign</rdf:li>
          </rdf:Bag>
        </dc:subject>
        <dc:publisher>
          <cc:Agent rdf:about="http://www.openclipart.org">
            <dc:title> Lauris Kaplinski</dc:title>
          </cc:Agent>
        </dc:publisher>
        <dc:creator>
          <cc:Agent>
            <dc:title>Lauris Kaplinski</dc:title>
          </cc:Agent>
        </dc:creator>
        <dc:rights>
          <cc:Agent>
            <dc:title> Lauris Kaplinski</dc:title>
          </cc:Agent>
        </dc:rights>
        <dc:date></dc:date>
        <dc:format>image/svg+xml</dc:format>
        <dc:type rdf:resource="http://purl.org/dc/dcmitype/StillImage"/>
        <cc:license rdf:resource="http://web.resource.org/cc/PublicDomain"/>
        <dc:language>en</dc:language>
      </cc:Work>
      <cc:License rdf:about="http://web.resource.org/cc/PublicDomain">
        <cc:permits rdf:resource="http://web.resource.org/cc/Reproduction"/>
        <cc:permits rdf:resource="http://web.resource.org/cc/Distribution"/>
        <cc:permits rdf:resource="http://web.resource.org/cc/DerivativeWorks"/>
      </cc:License>
    </rdf:RDF>
  </metadata>
  <defs id="defs380"/>
  <rect height="708.661" id="rect171" style="font-size:12;fill:#eb0013;fill-rule:evenodd;stroke-width:1pt;" width="1062.99" x="0" y="0"/>
  <path d="M 564.304 387.421 L 449.428 467.756 L 479.028 377.113 L 494.403 388.248 L 483.372 421.359 L 558.29 367.37 L 564.304 387.421 z M 576.088 334.956 L 616.188 469.723 L 540.888 413.531 L 556.376 402.554 L 583.173 422.661 L 555.167 334.203 L 576.088 334.956 z M 528.554 308.197 L 669.7 308.363 L 592.781 363.84 L 586.627 345.882 L 615.227 326.735 L 521.92 328.052 L 528.554 308.197 z M 488.646 344.226 L 533.34 209.262 L 564.101 302.049 L 545.119 302.289 L 533.788 266.748 L 505.438 356.726 L 488.646 344.226 z M 511.551 392.73 L 397.681 309.151 L 493.803 308.408 L 488.196 326.543 L 452.52 326.399 L 528.609 380.595 L 511.551 392.73 z " id="path401" style="font-size:12;fill:#0b5035;fill-rule:evenodd;stroke-width:1pt;"/>
</svg>
