<?xml version="1.0" encoding="UTF-8" standalone="no"?>
<!DOCTYPE svg PUBLIC "-//W3C//DTD SVG 20010904//EN"
"http://www.w3.org/TR/2001/REC-SVG-20010904/DTD/svg10.dtd">
<!-- Created with Sodipodi ("http://www.sodipodi.com/") --><svg height="140mm" id="svg378" sodipodi:docbase="/home/cschalle/sodipodi-flags/nations/" sodipodi:docname="/home/cschalle/sodipodi-flags/nations/mongolia.svg" sodipodi:version="0.32" width="280mm" xmlns="http://www.w3.org/2000/svg" xmlns:sodipodi="http://sodipodi.sourceforge.net/DTD/sodipodi-0.dtd" xmlns:xlink="http://www.w3.org/1999/xlink">
  <metadata>
    <rdf:RDF xmlns:cc="http://web.resource.org/cc/" xmlns:dc="http://purl.org/dc/elements/1.1/" xmlns:rdf="http://www.w3.org/1999/02/22-rdf-syntax-ns#">
      <cc:Work rdf:about="">
        <dc:title> mongolia</dc:title>
        <dc:description></dc:description>
        <dc:subject>
          <rdf:Bag>
            <rdf:li></rdf:li>
            <rdf:li>asia</rdf:li>
            <rdf:li>united_nations_member</rdf:li>
            <rdf:li>flag</rdf:li>
            <rdf:li>sign</rdf:li>
          </rdf:Bag>
        </dc:subject>
        <dc:publisher>
          <cc:Agent rdf:about="http://www.openclipart.org">
            <dc:title> Lauris Kaplinski</dc:title>
          </cc:Agent>
        </dc:publisher>
        <dc:creator>
          <cc:Agent>
            <dc:title>Lauris Kaplinski</dc:title>
          </cc:Agent>
        </dc:creator>
        <dc:rights>
          <cc:Agent>
            <dc:title> Lauris Kaplinski</dc:title>
          </cc:Agent>
        </dc:rights>
        <dc:date></dc:date>
        <dc:format>image/svg+xml</dc:format>
        <dc:type rdf:resource="http://purl.org/dc/dcmitype/StillImage"/>
        <cc:license rdf:resource="http://web.resource.org/cc/PublicDomain"/>
        <dc:language>en</dc:language>
      </cc:Work>
      <cc:License rdf:about="http://web.resource.org/cc/PublicDomain">
        <cc:permits rdf:resource="http://web.resource.org/cc/Reproduction"/>
        <cc:permits rdf:resource="http://web.resource.org/cc/Distribution"/>
        <cc:permits rdf:resource="http://web.resource.org/cc/DerivativeWorks"/>
      </cc:License>
    </rdf:RDF>
  </metadata>
  <defs id="defs380"/>
  <sodipodi:namedview id="base" snaptoguides="false">
    <sodipodi:guide id="guide203" orientation="horizontal" position="285.041046"/>
    <sodipodi:guide id="guide204" orientation="vertical" position="427.344666"/>
    <sodipodi:guide id="guide395" orientation="horizontal" position="318.585083"/>
  </sodipodi:namedview>
  <rect height="499.236368" id="rect171" style="font-size:12;fill:#d61517;fill-rule:evenodd;stroke-width:1pt;fill-opacity:1;" width="996.357317" x="0.000000" y="-0.000026"/>
  <rect height="200mm" id="rect403" style="font-size:12;fill:#018edf;fill-rule:evenodd;stroke-width:1pt;fill-opacity:1;" transform="matrix(0.937314,0.000000,0.000000,0.704478,0.000000,-1.525879e-5)" width="100mm" x="100mm" y="0"/>
  <path d="M 180.274 184.646 C 193.514 185.155 195.551 179.044 195.551 172.933 C 195.551 166.822 195.551 154.6 195.551 152.054 C 195.551 149.508 200.643 146.962 200.643 142.378 C 200.643 137.795 198.097 132.703 197.079 129.647 C 195.551 137.286 193.005 144.925 188.421 147.471 C 186.384 141.36 185.875 139.323 186.894 136.267 C 187.912 133.212 186.894 128.629 184.857 124.046 C 183.329 133.721 178.746 136.268 178.237 139.323 C 177.727 142.378 176.2 151.036 173.144 146.452 C 170.089 141.869 168.052 136.268 166.524 130.157 C 163.468 142.378 164.996 144.925 166.015 146.962 C 167.033 148.999 168.052 155.11 168.052 157.656 C 168.052 160.202 166.015 170.387 167.033 173.443 C 168.052 176.498 168.561 185.664 180.274 184.646 z " id="path226" style="font-size:12;fill:#ffd700;fill-rule:evenodd;stroke-width:1pt;fill-opacity:0.866667;" transform="matrix(0.937314,0.000000,0.000000,0.704478,0.000000,3.644928)"/>
  <path d="M 221.013306 236.079926 A 39.212036 39.212036 0 1 0 142.589233,236.079926 A 39.212 39.212 0 1 0 221.013 236.08 L 181.801270 236.079926 z" id="path227" sodipodi:cx="181.801270" sodipodi:cy="236.079926" sodipodi:rx="39.212036" sodipodi:ry="39.212036" sodipodi:type="arc" style="font-size:12;fill:#ffd700;fill-rule:evenodd;stroke-width:1pt;fill-opacity:0.866667;" transform="matrix(0.798177,0.000000,0.000000,0.599904,27.10620,23.15600)"/>
  <path d="M 226.422 260.093 C 209.532 283.908 177.003 290.527 152.883 274.562 C 146.525 270.355 141.875 265.644 137.452 259.611 C 141.441 276.731 153.533 288.851 170.266 293.178 C 194.896 299.545 220.054 284.723 226.422 260.093 z " id="path232" sodipodi:nodetypes="ccccc" style="font-size:12;fill:#ffd700;fill-rule:evenodd;stroke-width:1pt;fill-opacity:0.866667;" transform="matrix(0.978282,0.000000,0.000000,0.969300,-5.631165,-78.03106)"/>
  <rect height="19.372650" id="rect233" style="font-size:12;fill:#ffd700;fill-rule:evenodd;stroke-width:1pt;fill-opacity:0.866667;" width="93.121460" x="124.321648" y="355.959244"/>
  <path d="M 137.497 357.79 L 181.802 385.798 L 226.615 357.79 L 137.497 357.79 z " id="path235" sodipodi:nodetypes="cccc" style="font-size:12;fill:#ffd700;fill-rule:evenodd;stroke-width:1pt;fill-opacity:0.866667;" transform="matrix(0.937314,0.000000,0.000000,0.899687,0.000000,-102.8492)"/>
  <rect height="19.372671" id="rect249" style="font-size:12;fill:#ffd700;fill-rule:evenodd;stroke-width:1pt;fill-opacity:0.866667;" width="84.009102" x="128.877838" y="246.334043"/>
  <path d="M 137.497 357.79 L 181.802 385.798 L 226.615 357.79 L 137.497 357.79 z " id="path250" sodipodi:nodetypes="cccc" style="font-size:12;fill:#ffd700;fill-rule:evenodd;stroke-width:1pt;fill-opacity:0.866667;" transform="matrix(0.937314,0.000000,0.000000,0.704478,0.000000,135.6902)"/>
  <rect height="187.306814" id="rect251" style="font-size:12;fill:#ffd700;fill-rule:evenodd;stroke-width:1pt;fill-opacity:0.866667;" width="40.536169" x="66.032055" y="219.330838"/>
  <rect height="187.306808" id="rect612" style="font-size:12;fill:#ffd700;fill-rule:evenodd;stroke-width:1pt;fill-opacity:0.866667;" width="40.536167" x="232.788437" y="219.330803"/>
  <path d="M 219.003 427.256 C 220.445 449.06 216.382 476.568 205.908 479.119 C 195.181 481.521 188.043 478.353 183.235 471.996 C 179.457 465.622 178.584 450.101 185.342 444.66 C 192.794 438.155 188.265 414.402 182.828 407.668 C 177.21 400.086 169.433 393.456 160.969 390.021 C 192.997 383.162 218.045 401.325 219.003 427.256 z M 189.875 459.551 C 189.95 453.929 194.574 449.428 200.195 449.504 C 205.817 449.579 206.191 453.341 206.117 458.962 C 206.04 464.584 205.543 469.947 199.922 469.872 C 194.3 469.796 189.799 465.172 189.875 459.551 z M 141.919 452.316 C 140.185 430.533 148.115 403.433 158.553 400.742 C 169.247 398.196 174.871 412.098 179.764 418.39 C 183.627 424.712 183.032 438.892 176.348 444.423 C 168.984 451.027 174.553 475.8 183.262 480.502 C 188.98 488.008 191.423 486.09 203.198 489.742 C 171.265 497.03 143.225 478.232 141.919 452.316 z M 170.279 430.022 C 170.279 435.644 167.053 439.779 161.431 439.779 C 155.809 439.779 152.7 436.934 152.699 431.312 C 152.7 425.69 155.809 419.409 161.431 419.409 C 167.053 419.409 170.279 424.4 170.279 430.022 z " id="path633" sodipodi:nodetypes="cccccccccccccccccccccccc" style="font-size:12;fill:#ffd700;fill-rule:evenodd;stroke-width:0.625;fill-opacity:0.866667;" transform="matrix(-0.489416,-0.799394,0.600818,-0.367841,-7.320761,617.3574)"/>
</svg>
