<?xml version="1.0" encoding="UTF-8" standalone="no"?>
<!DOCTYPE svg PUBLIC "-//W3C//DTD SVG 1.0//EN"
"http://www.w3.org/TR/2001/REC-SVG-20010904/DTD/svg10.dtd">
<!-- Created with Sodipodi ("http://www.sodipodi.com/") --><svg height="140mm" id="svg672" sodipodi:docbase="/home/yemu/clipart/new" sodipodi:docname="/home/yemu/clipart/new/unknown.svg" sodipodi:version="0.33pre" width="210mm" xmlns="http://www.w3.org/2000/svg" xmlns:sodipodi="http://sodipodi.sourceforge.net/DTD/sodipodi-0.dtd" xmlns:xlink="http://www.w3.org/1999/xlink">
  <metadata>
    <rdf:RDF xmlns:cc="http://web.resource.org/cc/" xmlns:dc="http://purl.org/dc/elements/1.1/" xmlns:rdf="http://www.w3.org/1999/02/22-rdf-syntax-ns#">
      <cc:Work rdf:about="">
        <dc:title>China - Macao</dc:title>
        <dc:description></dc:description>
        <dc:subject>
          <rdf:Bag>
            <rdf:li></rdf:li>
            <rdf:li>asia</rdf:li>
            <rdf:li>flag</rdf:li>
            <rdf:li>china</rdf:li>
            <rdf:li>sign</rdf:li>
          </rdf:Bag>
        </dc:subject>
        <dc:publisher>
          <cc:Agent rdf:about="http://www.openclipart.org">
            <dc:title>Cezary Biele</dc:title>
          </cc:Agent>
        </dc:publisher>
        <dc:creator>
          <cc:Agent>
            <dc:title>Cezary Biele</dc:title>
          </cc:Agent>
        </dc:creator>
        <dc:rights>
          <cc:Agent>
            <dc:title>Cezary Biele</dc:title>
          </cc:Agent>
        </dc:rights>
        <dc:date></dc:date>
        <dc:format>image/svg+xml</dc:format>
        <dc:type rdf:resource="http://purl.org/dc/dcmitype/StillImage"/>
        <cc:license rdf:resource="http://web.resource.org/cc/PublicDomain"/>
        <dc:language>en</dc:language>
      </cc:Work>
      <cc:License rdf:about="http://web.resource.org/cc/PublicDomain">
        <cc:permits rdf:resource="http://web.resource.org/cc/Reproduction"/>
        <cc:permits rdf:resource="http://web.resource.org/cc/Distribution"/>
        <cc:permits rdf:resource="http://web.resource.org/cc/DerivativeWorks"/>
      </cc:License>
    </rdf:RDF>
  </metadata>
  <defs id="defs674"/>
  <sodipodi:namedview id="base" snaptogrid="false" snaptoguides="false"/>
  <rect height="496.062988" id="rect681" style="font-size:12;fill:#199d00;fill-rule:evenodd;stroke-width:1pt;stroke:none;stroke-opacity:1;fill-opacity:1;" transform="translate(0.000000,6.103516e-5)" width="744.094482" x="0.000000" y="0"/>
  <path d="M 370.795 277.772 C 359.132 285.892 346.931 293.071 335.268 301.191 C 320.653 302.225 306.48 302.372 291.422 301.634 C 291.422 301.634 259.977 296.32 252.005 282.59 C 251.562 281.261 262.191 276.389 262.191 276.389 C 278.283 287.757 296.146 297.796 329.511 296.32 C 288.322 292.629 260.42 269.894 252.005 248.93 C 274.297 233.281 311.205 233.576 341.469 255.13 C 332.021 243.32 300.428 230.181 276.807 233.872 C 273.411 230.328 270.459 225.899 267.063 222.356 C 294.227 216.303 332.021 233.724 345.898 248.044 C 331.283 224.571 320.653 197.997 337.926 165.666 C 341.321 168.914 345.16 172.162 348.555 175.41 C 335.564 199.178 340.288 226.933 350.77 246.272 C 332.611 208.774 347.226 171.719 371.142 153.708 C 399.044 170.538 407.017 215.27 390.63 247.159 C 399.93 241.844 407.46 201.983 394.616 175.41 C 397.569 171.867 400.521 168.324 403.474 164.781 C 422.814 190.911 411.151 232.986 395.059 248.93 C 407.312 238.3 439.052 217.485 476.108 222.357 C 473.155 225.9 468.431 229 465.478 232.543 C 435.066 231.362 410.413 244.353 399.488 255.573 C 426.209 237.858 463.116 228.999 490.28 248.93 C 477.732 282.442 442.152 292.481 412.774 295.433 C 437.723 297.352 460.902 289.971 479.651 276.832 C 483.194 278.751 486.737 280.671 490.28 282.59 C 482.308 290.119 470.793 297.648 454.406 299.862 C 438.61 301.929 423.699 301.339 407.903 301.634 C 395.65 293.662 383.048 285.743 370.795 277.772 z " id="path678" sodipodi:nodetypes="ccccccccccccccccccccccccccccc" style="font-size:12;fill:#feffff;fill-rule:evenodd;stroke-width:1pt;stroke-linejoin:round;"/>
  <path d="M 370.795 285.612 L 340.417 308.473 L 258.993 308.16 C 259.993 311.441 263.106 315.634 264.943 317.555 L 345.741 317.869 L 370.795 298.452 L 394.909 317.555 L 476.647 317.555 C 478.996 315.05 481.501 311.605 483.693 308.63 L 400.859 308.787 L 370.795 285.612 z " id="path683" sodipodi:nodetypes="ccccccccccc" style="font-size:12;fill:#ffffff;fill-rule:evenodd;stroke-width:1pt;"/>
  <path d="M 324.132 364.134 C 347.516 375.676 397.206 374.729 419.65 363.851 L 324.132 364.134 z " id="path687" sodipodi:nodetypes="ccc" style="font-size:12;fill:#ffffff;fill-rule:evenodd;stroke-width:0.951935pt;stroke-linejoin:round;"/>
  <path d="M 270.359 325.385 C 271.299 325.385 471.167 325.228 471.167 325.228 C 467.67 329.195 463.546 333.475 459.266 337.128 L 280.639 336.346 C 277.286 334.021 272.826 328.596 270.359 325.385 z " id="path688" sodipodi:nodetypes="ccccc" style="font-size:12;fill:#ffffff;fill-rule:evenodd;stroke-width:1pt;stroke-linejoin:round;"/>
  <path d="M 284.153 339.79 L 456.603 340.261 C 453.367 342.766 450.758 345.741 447.052 347.62 L 293.754 347.49 C 290.215 345.588 286.585 342.357 284.153 339.79 z " id="path689" sodipodi:nodetypes="ccccc" style="font-size:12;fill:#ffffff;fill-rule:evenodd;stroke-width:1pt;stroke-linejoin:round;"/>
  <path d="M 299.862 352.624 L 440.789 352.28 C 437.031 354.693 432.803 357.263 428.106 359.52 L 312.545 359.52 C 308.63 358.161 304.089 355.236 299.862 352.624 z " id="path690" sodipodi:nodetypes="ccccc" style="font-size:12;fill:#ffffff;fill-rule:evenodd;stroke-width:1.0493pt;stroke-linejoin:round;"/>
  <polygon id="polygon564" points="205.584,128.736 195.568,121.887 185.665,128.899 189.084,117.257 179.355,110.006 191.484,109.659 195.374,98.1653 199.452,109.594 211.585,109.742 201.976,117.151 205.584,128.736 " sodipodi:arg1="0.93428808" sodipodi:arg2="1.56260657" sodipodi:cx="195.512634" sodipodi:cy="115.109581" sodipodi:r1="16.9448261" sodipodi:r2="6.77793074" sodipodi:sides="5" sodipodi:type="star" style="font-size:12;fill:#feb700;fill-rule:evenodd;stroke-width:1pt;" transform="matrix(0.692721,0.271214,-0.271214,0.692721,338.0500,8.336662)"/>
  <polygon id="polygon714" points="205.584,128.736 195.568,121.887 185.665,128.899 189.084,117.257 179.355,110.006 191.484,109.659 195.374,98.1653 199.452,109.594 211.585,109.742 201.976,117.151 205.584,128.736 " sodipodi:arg1="0.93428808" sodipodi:arg2="1.56260657" sodipodi:cx="195.512634" sodipodi:cy="115.109581" sodipodi:r1="16.9448261" sodipodi:r2="6.77793074" sodipodi:sides="5" sodipodi:type="star" style="font-size:12;fill:#feb700;fill-rule:evenodd;stroke-width:1pt;" transform="matrix(1.005342,0.000000,0.000000,1.005342,175.1531,13.22089)"/>
  <polygon id="polygon715" points="205.584,128.736 195.568,121.887 185.665,128.899 189.084,117.257 179.355,110.006 191.484,109.659 195.374,98.1653 199.452,109.594 211.585,109.742 201.976,117.151 205.584,128.736 " sodipodi:arg1="0.93428808" sodipodi:arg2="1.56260657" sodipodi:cx="195.512634" sodipodi:cy="115.109581" sodipodi:r1="16.9448261" sodipodi:r2="6.77793074" sodipodi:sides="5" sodipodi:type="star" style="font-size:12;fill:#feb700;fill-rule:evenodd;stroke-width:1pt;" transform="matrix(0.729120,-0.147654,0.147654,0.729120,318.8847,139.2056)"/>
  <polygon id="polygon716" points="205.584,128.736 195.568,121.887 185.665,128.899 189.084,117.257 179.355,110.006 191.484,109.659 195.374,98.1653 199.452,109.594 211.585,109.742 201.976,117.151 205.584,128.736 " sodipodi:arg1="0.93428808" sodipodi:arg2="1.56260657" sodipodi:cx="195.512634" sodipodi:cy="115.109581" sodipodi:r1="16.9448261" sodipodi:r2="6.77793074" sodipodi:sides="5" sodipodi:type="star" style="font-size:12;fill:#feb700;fill-rule:evenodd;stroke-width:1pt;" transform="matrix(-0.692720,0.271214,0.271214,0.692720,403.8054,8.197807)"/>
  <polygon id="polygon717" points="205.584,128.736 195.568,121.887 185.665,128.899 189.084,117.257 179.355,110.006 191.484,109.659 195.374,98.1653 199.452,109.594 211.585,109.742 201.976,117.151 205.584,128.736 " sodipodi:arg1="0.93428808" sodipodi:arg2="1.56260657" sodipodi:cx="195.512634" sodipodi:cy="115.109581" sodipodi:r1="16.9448261" sodipodi:r2="6.77793074" sodipodi:sides="5" sodipodi:type="star" style="font-size:12;fill:#feb700;fill-rule:evenodd;stroke-width:1pt;" transform="matrix(-0.729120,-0.147654,-0.147654,0.729120,420.9945,138.8833)"/>
</svg>
