<?xml version="1.0" encoding="UTF-8" standalone="no"?>
<!DOCTYPE svg PUBLIC "-//W3C//DTD SVG 1.0//EN"
"http://www.w3.org/TR/2001/REC-SVG-20010904/DTD/svg10.dtd">
<!-- Created with Inkscape (http://www.inkscape.org/) --><svg height="496.06299" id="svg559" version="1.0" width="992.12598" x="0.0000000" xmlns="http://www.w3.org/2000/svg" xmlns:xlink="http://www.w3.org/1999/xlink" y="0.0000000">
  <metadata>
    <rdf:RDF xmlns:cc="http://web.resource.org/cc/" xmlns:dc="http://purl.org/dc/elements/1.1/" xmlns:rdf="http://www.w3.org/1999/02/22-rdf-syntax-ns#">
      <cc:Work rdf:about="">
        <dc:title></dc:title>
        <dc:description></dc:description>
        <dc:subject>
          <rdf:Bag>
            <rdf:li>micronesia</rdf:li>
            <rdf:li></rdf:li>
            <rdf:li>oceania</rdf:li>
            <rdf:li>flag</rdf:li>
            <rdf:li>sign</rdf:li>
          </rdf:Bag>
        </dc:subject>
        <dc:publisher>
          <cc:Agent rdf:about="http://www.openclipart.org">
            <dc:title></dc:title>
          </cc:Agent>
        </dc:publisher>
        <dc:creator>
          <cc:Agent>
            <dc:title></dc:title>
          </cc:Agent>
        </dc:creator>
        <dc:rights>
          <cc:Agent>
            <dc:title></dc:title>
          </cc:Agent>
        </dc:rights>
        <dc:date></dc:date>
        <dc:format>image/svg+xml</dc:format>
        <dc:type rdf:resource="http://purl.org/dc/dcmitype/StillImage"/>
        <cc:license rdf:resource=""/>
        <dc:language>en</dc:language>
      </cc:Work>
    </rdf:RDF>
  </metadata>
  <defs id="defs561"/>
  <rect height="496.06320" id="rect828" style="font-size:12.000000;fill:#426dce;fill-opacity:1.0000000;fill-rule:evenodd;stroke-width:1.0000000;" width="992.12598" x="0.0000000" y="3.3050790e-05"/>
  <g id="g1257">
    <path d="M 158.24430,201.73360 C 158.24430,201.73360 167.35690,192.09520 176.11900,193.93530 C 178.74770,183.77120 188.64890,182.98260 188.64890,182.98260 C 188.64890,182.98260 187.68510,171.76710 200.39010,169.31370 C 200.74060,161.69060 208.45130,155.38190 208.45130,155.38190 C 208.45130,155.38190 206.87410,143.55310 214.93530,140.83680 C 210.02850,131.46130 216.60010,124.62670 216.51250,124.45150 C 216.42490,124.27630 208.18850,109.64340 215.54860,105.43770 C 207.75030,98.866090 210.29140,91.418270 210.29140,91.418270 C 210.29140,91.418270 201.79210,89.227650 204.85880,79.063610 C 197.84910,77.836960 196.44720,66.533780 196.44720,66.533780 C 196.44720,66.533780 185.66970,68.724260 184.35540,59.348800 C 177.25810,60.487950 176.46950,53.478210 176.38190,53.478210 C 176.29430,53.478210 162.27480,57.245910 159.47090,46.643720 C 154.03850,49.447680 151.67260,44.453170 151.67260,44.453170 C 151.67260,44.453170 143.87430,48.308530 139.23040,40.860720 C 129.94260,46.643720 124.77290,40.597810 124.77290,40.597810 C 124.77290,40.597810 112.59350,48.658950 108.56290,42.437870 C 101.37790,49.710510 94.981610,46.556140 94.981610,46.556140 C 94.981610,46.556140 89.549070,56.194430 80.786930,53.741040 C 78.771630,62.678420 68.695180,62.853670 68.695180,62.853670 C 68.695180,62.853670 69.746630,70.739640 57.654880,72.842530 C 56.077700,82.130330 49.768960,83.707550 49.768960,83.707550 C 49.768960,83.707550 50.382300,92.732510 44.686910,95.624050 C 46.702210,100.70620 41.444920,106.92720 41.444920,106.92720 C 41.444920,106.92720 47.052690,113.93690 39.429630,121.82290 C 46.789830,123.75050 41.444920,136.45570 41.444920,136.45570 C 41.444920,136.45570 51.609010,141.01200 45.212650,149.42360 C 52.485220,151.78940 50.207060,157.57250 50.294690,160.98970 C 54.938620,163.09250 59.056830,162.04110 57.041540,171.41660 C 71.323810,172.99380 64.576970,180.87970 64.576970,180.87970 C 64.576970,180.87970 71.236200,181.14260 68.607560,186.39990 C 80.786940,186.13710 82.539360,195.51250 82.539360,195.51250 C 82.539360,195.51250 93.842540,192.53330 95.332080,196.91440 C 96.821650,201.29550 90.425290,230.82390 90.425290,230.82390 C 90.425290,230.82390 80.874560,230.82390 73.777220,223.20090 C 57.129160,222.76280 60.809250,211.81000 60.546390,211.81000 C 60.283530,211.81000 55.026240,213.82530 52.309980,204.71270 C 41.182060,206.99090 41.532540,197.61550 41.444920,197.52780 C 41.357300,197.44020 36.450510,195.24960 38.290550,190.60570 C 26.812150,191.65700 27.688360,180.44160 27.688360,180.44160 C 25.176550,179.41930 24.241920,177.08280 24.621610,174.74620 C 23.132050,174.22040 12.967970,174.04520 18.225250,160.63920 C 8.4992690,154.76850 14.545150,148.02170 14.545150,148.02170 C 14.545150,148.02170 1.1390780,141.09960 11.478400,133.12600 C 3.7677200,121.73520 12.091750,116.03990 12.091750,116.03990 C 12.091750,116.03990 1.4019420,105.17480 12.267000,97.464110 C 10.514570,80.991330 20.328170,77.048390 20.328170,77.048390 C 20.328170,77.048390 15.158510,63.642240 29.177930,58.034490 C 30.054140,44.453170 39.867740,44.102680 39.867740,44.102680 C 39.867740,44.102680 40.130600,33.325240 55.551970,34.376720 C 58.531090,24.738430 69.045660,26.666080 69.045660,26.666080 C 69.045660,26.666080 72.287660,15.012410 86.569950,20.620160 C 93.842480,6.4255210 104.62000,13.698090 104.62000,13.698090 C 104.62000,13.698090 111.45440,9.2293240 114.87170,10.631300 C 119.21090,3.1742550 128.44870,10.342220 134.42150,11.785320 C 136.58620,10.943500 144.31250,5.1111290 150.27070,12.471360 C 158.15670,7.3016810 164.90350,16.589550 164.90350,16.589550 C 164.90350,16.589550 175.76850,11.069530 180.85060,23.686950 C 203.89500,21.583980 200.56540,36.654860 200.56540,36.654860 C 200.56540,36.654860 218.70300,32.536670 214.76010,50.586670 C 231.23290,51.725740 229.56810,62.590840 229.56810,62.590840 C 229.56810,62.590840 239.99500,70.476650 235.43870,77.574050 C 244.72660,78.012210 241.30930,86.949590 241.30930,86.949590 C 241.30930,86.949590 248.40670,89.665880 242.53600,100.70610 C 256.11730,111.57110 245.16470,122.34870 245.07710,122.26100 C 244.98940,122.17340 252.34970,131.02310 245.69040,141.18720 C 247.70570,157.30960 239.55690,161.42770 239.55690,161.42770 C 239.55690,161.42770 241.65980,171.85470 232.54720,174.83380 C 232.37200,187.10080 220.80590,188.59040 220.80590,188.59040 C 220.80590,188.59040 223.87270,193.91890 212.39430,199.52670 C 211.94160,207.73490 199.95200,208.39280 199.95200,208.39280 C 199.95200,208.39280 198.81300,223.46360 183.56680,219.43310 C 179.86650,231.52510 162.01200,227.93240 161.66150,227.75720 C 161.31100,227.58190 158.24430,201.82130 158.24430,201.73360 z " id="path588" style="font-size:12.000000;fill:#ffffff;fill-rule:evenodd;stroke:#000000;stroke-width:1.0000000;" transform="matrix(1.919646,0.000000,0.000000,1.919646,249.6520,5.172104)"/>
    <path d="M 47.512150,57.125700 C 47.556750,57.125700 51.376300,60.438390 50.663000,65.431210 C 49.949800,70.424040 47.066350,77.364500 47.645850,82.535630 C 48.000130,84.608610 47.865980,88.322910 47.865980,88.322910 C 47.865980,88.322910 44.403380,83.402790 44.358780,78.142620 C 44.314180,72.882390 48.108310,67.887800 48.108310,64.009480 C 48.108310,60.131150 47.422950,57.036590 47.512150,57.125700 z " id="path711" style="font-size:12.000000;fill:#217900;fill-rule:evenodd;stroke:#000000;stroke-width:1.0000000;stroke-linejoin:round;" transform="matrix(1.919646,0.000000,0.000000,1.919646,249.6520,5.172104)"/>
    <path d="M 45.616650,58.611370 C 45.616650,58.611370 40.604420,63.396150 39.958920,68.046190 C 39.482320,70.443040 39.297330,81.611560 39.241000,86.568530 C 39.128350,88.089370 38.498010,94.092640 38.364210,96.277080 C 38.230510,98.461380 42.051220,92.548370 42.269640,87.733760 C 42.150080,82.750240 42.149780,72.253110 42.656730,70.675960 C 43.107360,68.648070 43.009200,66.407620 43.706300,64.373860 C 44.628600,61.551590 45.661250,58.655930 45.616650,58.611370 z " id="path712" style="font-size:12.000000;fill:#217900;fill-rule:evenodd;stroke:#000000;stroke-width:1.0000000;stroke-linejoin:round;" transform="matrix(1.919646,0.000000,0.000000,1.919646,249.6520,5.172104)"/>
    <g id="g771" style="font-size:12.000000;" transform="matrix(1.919646,0.000000,0.000000,1.919646,249.6520,5.172104)">
      <path d="M 155.87750,42.980160 C 155.87750,42.980160 162.37630,39.982340 164.23390,34.399460 C 166.09150,28.816580 158.60970,28.762770 157.62120,30.537380 C 156.63280,32.311990 158.46430,36.730320 157.99260,37.898410 C 157.52080,39.066450 154.87700,41.886340 155.87750,42.980160 z " id="path747" style="fill:#ffd200;fill-rule:evenodd;stroke:#ef8a10;stroke-width:1.0000000;"/>
      <path d="M 98.281380,45.017260 C 98.281380,45.017260 102.50020,39.235930 101.40640,33.454680 C 100.31260,27.673430 93.750080,31.267110 93.750080,33.298430 C 93.750080,35.329760 97.500080,38.298510 97.656380,39.548510 C 97.812580,40.798510 96.875080,44.548510 98.281380,45.017260 z " id="path748" style="fill:#ffd200;fill-opacity:1.0000000;fill-rule:evenodd;stroke:#ef8a10;stroke-width:1.0000000pt;stroke-linecap:butt;stroke-linejoin:miter;stroke-opacity:1.0000000;"/>
      <path d="M 86.875110,48.454730 C 86.875110,48.454730 91.093930,42.673400 90.000130,36.892150 C 88.906330,31.110900 82.343810,34.704580 82.343810,36.735900 C 82.343810,38.767230 86.093810,41.735980 86.250110,42.985980 C 86.406310,44.235980 85.468810,47.985980 86.875110,48.454730 z " id="path749" style="fill:#ffd200;fill-opacity:1.0000000;fill-rule:evenodd;stroke:#ef8a10;stroke-width:1.0000000pt;stroke-linecap:butt;stroke-linejoin:miter;stroke-opacity:1.0000000;"/>
      <path d="M 74.218850,52.360950 C 74.218850,52.360950 78.437670,46.579620 77.343870,40.798370 C 76.250070,35.017120 69.687550,38.610800 69.687550,40.642120 C 69.687550,42.673450 73.437550,45.642200 73.593850,46.892200 C 73.750050,48.142200 72.812550,51.892200 74.218850,52.360950 z " id="path750" style="fill:#ffd200;fill-opacity:1.0000000;fill-rule:evenodd;stroke:#ef8a10;stroke-width:1.0000000pt;stroke-linecap:butt;stroke-linejoin:miter;stroke-opacity:1.0000000;"/>
      <path d="M 65.312590,61.267170 C 65.312590,61.267170 69.531410,55.485840 68.437610,49.704590 C 67.343810,43.923340 60.781290,47.517020 60.781290,49.548340 C 60.781290,51.579670 64.531290,54.548420 64.687590,55.798420 C 64.843790,57.048420 63.906290,60.798420 65.312590,61.267170 z " id="path751" style="fill:#ffd200;fill-opacity:1.0000000;fill-rule:evenodd;stroke:#ef8a10;stroke-width:1.0000000pt;stroke-linecap:butt;stroke-linejoin:miter;stroke-opacity:1.0000000;"/>
      <path d="M 55.937580,69.860830 C 55.937580,69.860830 60.156400,64.079500 59.062600,58.298250 C 57.968800,52.517000 51.406280,56.110680 51.406280,58.142000 C 51.406280,60.173330 55.156280,63.142080 55.312580,64.392080 C 55.468780,65.642080 54.531280,69.392080 55.937580,69.860830 z " id="path753" style="fill:#ffd200;fill-opacity:1.0000000;fill-rule:evenodd;stroke:#ef8a10;stroke-width:1.0000000pt;stroke-linecap:butt;stroke-linejoin:miter;stroke-opacity:1.0000000;"/>
      <path d="M 77.492850,19.797600 C 77.492850,19.797600 71.874690,24.231400 71.373470,30.093830 C 70.872250,35.956250 78.159450,34.259790 78.705720,32.303310 C 79.252000,30.346810 76.438520,26.478950 76.624130,25.232970 C 76.809840,23.987010 78.721280,20.627280 77.492850,19.797600 z " id="path755" style="fill:#ffd200;fill-rule:evenodd;stroke:#ef8a10;stroke-width:1.0000000;"/>
      <path d="M 96.242870,14.016240 C 96.242870,14.016240 90.624710,18.450040 90.123490,24.312470 C 89.622270,30.174890 96.909470,28.478430 97.455740,26.521950 C 98.002020,24.565450 95.188540,20.697590 95.374150,19.451610 C 95.559860,18.205650 97.471300,14.845920 96.242870,14.016240 z " id="path756" style="fill:#ffd200;fill-rule:evenodd;stroke:#ef8a10;stroke-width:1.0000000;"/>
      <path d="M 26.369970,64.632100 C 26.369970,64.632100 27.556740,71.689990 32.456240,74.947930 C 37.355750,78.205860 39.371620,71.000490 37.918710,69.580880 C 36.465790,68.161260 31.721630,68.768740 30.718330,68.006970 C 29.715090,67.245110 27.688060,63.953830 26.369970,64.632100 z " id="path757" style="fill:#ffd200;fill-rule:evenodd;stroke:#ef8a10;stroke-width:1.0000000;"/>
      <path d="M 17.005510,88.597460 C 17.005510,88.597460 17.063590,95.754190 21.387560,99.744510 C 25.711540,103.73480 28.839240,96.937850 27.628560,95.306750 C 26.417880,93.675630 21.637300,93.526820 20.766790,92.616260 C 19.896350,91.705620 18.414120,88.135700 17.005510,88.597460 z " id="path758" style="fill:#ffd200;fill-rule:evenodd;stroke:#ef8a10;"/>
      <path d="M 38.610400,115.36920 C 38.610400,115.36920 36.056030,108.68350 30.610590,106.45500 C 25.165130,104.22650 24.608720,111.68780 26.312900,112.79330 C 28.017080,113.89870 32.548490,112.36820 33.682250,112.91740 C 34.815940,113.46660 37.451800,116.29380 38.610400,115.36920 z " id="path759" style="fill:#ffd200;fill-rule:evenodd;stroke:#ef8a10;"/>
      <path d="M 34.121820,103.79610 C 34.121820,103.79610 38.452450,98.098010 37.471390,92.296580 C 36.490310,86.495140 29.859110,89.960370 29.819520,91.991330 C 29.780020,94.022230 33.471540,97.063410 33.603420,98.316260 C 33.735260,99.569060 32.725000,103.30000 34.121820,103.79610 z " id="path760" style="fill:#ffd200;fill-rule:evenodd;stroke:#ef8a10;"/>
      <path d="M 169.15880,48.761380 C 169.15880,48.761380 175.65760,45.763560 177.51520,40.180680 C 179.37280,34.597800 171.89100,34.543990 170.90250,36.318600 C 169.91410,38.093210 171.74560,42.511540 171.27390,43.679630 C 170.80210,44.847670 168.15830,47.667560 169.15880,48.761380 z " id="path761" style="fill:#ffd200;fill-rule:evenodd;stroke:#ef8a10;stroke-width:1.0000000;"/>
      <path d="M 188.81420,58.562980 C 188.81420,58.562980 192.63690,52.512500 191.15890,46.817340 C 189.68090,41.122180 183.37350,45.146650 183.50930,47.173460 C 183.64520,49.200210 187.58530,51.911520 187.82490,53.148270 C 188.06430,54.385040 187.37970,58.189340 188.81420,58.562980 z " id="path762" style="fill:#ffd200;fill-rule:evenodd;stroke:#ef8a10;"/>
      <path d="M 242.44770,114.25060 C 242.44770,114.25060 239.88420,107.56860 234.43570,105.34760 C 228.98710,103.12650 228.44090,110.58850 230.14660,111.69170 C 231.85240,112.79470 236.38160,111.25810 237.51620,111.80560 C 238.65070,112.35330 241.29030,115.17700 242.44770,114.25060 z " id="path763" style="fill:#ffd200;fill-rule:evenodd;stroke:#ef8a10;"/>
      <path d="M 216.22280,118.39700 C 216.22280,118.39700 216.37150,111.24170 220.74560,107.30640 C 225.11980,103.37100 228.16110,110.20690 226.92990,111.82270 C 225.69860,113.43830 220.91680,113.52660 220.03460,114.42610 C 219.15270,115.32570 217.62560,118.87660 216.22280,118.39700 z " id="path765" style="fill:#ffd200;fill-rule:evenodd;stroke:#ef8a10;"/>
      <path d="M 212.00280,42.519740 C 212.00280,42.519740 205.31240,39.978370 200.02550,42.560760 C 194.73850,45.143220 199.93830,50.522840 201.89760,49.986220 C 203.85670,49.449470 205.72910,45.048630 206.89350,44.567400 C 208.05790,44.086480 211.92230,44.000070 212.00280,42.519740 z " id="path766" style="fill:#ffd200;fill-rule:evenodd;stroke:#ef8a10;"/>
      <path d="M 196.69030,29.707210 C 196.69030,29.707210 189.99990,27.165840 184.71300,29.748230 C 179.42600,32.330690 184.62580,37.710310 186.58510,37.173690 C 188.54420,36.636940 190.41660,32.236100 191.58100,31.754870 C 192.74540,31.273950 196.60980,31.187540 196.69030,29.707210 z " id="path767" style="fill:#ffd200;fill-rule:evenodd;stroke:#ef8a10;"/>
      <path d="M 173.85590,17.489380 C 173.85590,17.489380 168.18390,21.853890 167.61080,27.709790 C 167.03780,33.565820 174.34500,31.958740 174.91530,30.009000 C 175.48550,28.059350 172.71980,24.157510 172.92060,22.913680 C 173.12160,21.670010 175.07420,18.334090 173.85590,17.489380 z " id="path768" style="fill:#ffd200;fill-rule:evenodd;stroke:#ef8a10;"/>
      <path d="M 158.99360,13.911970 C 158.99360,13.911970 156.40700,20.585060 158.95370,25.889250 C 161.50040,31.193550 166.91500,26.030310 166.39160,24.067410 C 165.86820,22.104690 161.48000,20.202650 161.00680,19.034940 C 160.53370,17.867320 160.47340,14.002480 158.99360,13.911970 z " id="path769" style="fill:#ffd200;fill-rule:evenodd;stroke:#ef8a10;"/>
      <path d="M 116.81720,39.627280 C 116.81720,39.627280 121.44370,34.166840 120.77140,28.321480 C 120.09920,22.476020 113.29390,25.584880 113.14670,27.611020 C 112.99950,29.636990 116.52450,32.869390 116.58990,34.127640 C 116.65520,35.385770 115.44840,39.057860 116.81720,39.627280 z " id="path770" style="fill:#ffd200;fill-rule:evenodd;stroke:#ef8a10;"/>
    </g>
    <path d="M 141.99420,51.345980 C 141.99420,51.345980 153.08380,52.043910 153.62670,58.403020 C 154.16950,64.762120 150.99000,68.639600 150.99000,68.639600 C 150.99000,68.639600 152.38590,82.365880 141.52890,86.398540 C 129.89640,87.794490 111.67210,86.708760 111.67210,86.708760 C 111.67210,86.708760 106.32110,88.027190 104.14970,76.937480 C 101.97830,65.847780 101.35790,58.015290 101.35790,58.015290 C 101.35790,58.015290 102.44360,51.811220 110.27620,51.423490 C 118.10870,51.035770 141.91660,51.501080 141.99420,51.345980 z " id="path564" style="font-size:12.000000;fill:#8c8a8c;fill-rule:evenodd;stroke:#000000;stroke-width:1.0000000;" transform="matrix(1.919646,0.000000,0.000000,1.919646,249.6520,5.172104)"/>
    <path d="M 150.91240,68.562060 C 150.91240,68.562060 144.94110,76.006820 145.56150,79.031270" id="path565" style="font-size:12.000000;fill:none;fill-rule:evenodd;stroke:#000000;stroke-width:1.0000000;stroke-linecap:round;" transform="matrix(1.919646,0.000000,0.000000,1.919646,249.6520,5.172104)"/>
    <path d="M 142.92480,86.010820 C 144.39830,87.251590 145.79410,88.647460 146.10430,93.222960 C 146.41450,97.798460 146.72470,102.37390 146.72470,102.37390 L 154.47970,172.16890 L 161.30410,222.65400 L 161.76940,230.48660 C 161.76940,230.48660 160.14090,236.22530 155.56540,236.69060 C 152.23080,243.67010 134.16170,245.68650 132.37800,245.60890 C 130.74950,245.53140 125.01070,243.12730 121.52100,243.43750 C 118.03120,243.74760 111.98230,246.07410 109.26800,245.68640 C 106.55380,245.29870 100.42730,243.20480 99.341630,238.78450 C 91.741720,236.38040 90.500920,230.56410 90.500920,230.56410 L 98.721240,172.16890 L 106.70890,98.341290 C 106.70890,98.341290 107.63950,88.492430 111.59450,87.018970 C 115.70470,86.631240 136.95340,87.406690 142.92480,86.010820 z " id="path566" style="font-size:12.000000;fill:#8c8a8c;fill-rule:evenodd;stroke:#000000;stroke-width:1.0000000;" transform="matrix(1.919646,0.000000,0.000000,1.919646,249.6520,5.172104)"/>
    <path d="M 101.04770,187.05850 L 99.419180,238.70690" id="path567" style="font-size:12.000000;fill:none;fill-rule:evenodd;stroke:#000000;stroke-width:1.0000000;" transform="matrix(1.919646,0.000000,0.000000,1.919646,249.6520,5.172104)"/>
    <path d="M 151.22260,193.88290 L 155.79810,236.45790" id="path568" style="font-size:12.000000;fill:none;fill-rule:evenodd;stroke:#000000;stroke-width:1.0000000;" transform="matrix(1.919646,0.000000,0.000000,1.919646,249.6520,5.172104)"/>
    <path d="M 167.67459,179.16165 L 127.49303,152.09345 L 86.711528,179.29342 L 100.03813,132.71396 L 61.567241,102.33370 L 109.98509,100.61421 L 126.99028,54.638199 L 143.58755,100.15495 L 192.56822,102.12048 L 154.40806,131.97088 L 167.67459,179.16165 z " id="polygon563" style="font-size:12.000000;fill:#ffffff;fill-rule:evenodd;stroke:#000000;" transform="matrix(1.919646,0.000000,0.000000,1.919646,250.3412,8.618333)"/>
    <path d="M 233.09880,158.34890 L 233.26890,158.94470" id="path571" style="font-size:12.000000;fill:none;fill-rule:evenodd;stroke:#000000;" transform="matrix(-1.919646,0.000000,0.000000,1.919646,732.7516,8.766109)"/>
    <path d="M 233.09880,158.34890 L 233.26890,158.94470" id="path579" style="font-size:12.000000;fill:none;fill-rule:evenodd;stroke:#000000;" transform="matrix(1.919646,0.000000,0.000000,1.919646,249.6521,5.172045)"/>
    <path d="M 12.806320,90.494160 C 12.806320,90.494160 16.203920,95.198520 16.813740,97.899170 C 17.423570,100.59980 18.556100,105.91400 20.037100,108.09190 C 21.518110,110.26980 29.968540,122.37920 30.404130,127.43210 C 30.491240,130.74250 26.919410,136.40520 21.605220,136.49220 C 18.294740,136.40520 9.7571980,134.22730 9.4087270,126.90940 C 9.0602550,119.59150 12.022260,119.41720 12.370730,114.97420 C 12.719200,110.53120 12.806320,90.581280 12.806320,90.494160 z " id="path583" style="font-size:12.000000;fill:none;fill-rule:evenodd;stroke:#6b18b5;stroke-width:1.0000000;stroke-linejoin:round;" transform="matrix(1.919646,0.000000,0.000000,1.919646,249.6520,5.172104)"/>
    <path d="M 71.175420,26.434480 C 71.175420,26.434480 67.657820,26.685330 64.949680,28.153460 C 62.851390,29.447330 59.297160,31.308900 56.813150,34.752730 C 50.495940,39.677510 40.991860,41.975560 37.994660,46.066820 C 36.200460,48.850170 36.310670,55.544360 40.806280,58.379440 C 43.680180,60.024950 52.106660,62.599260 56.206100,56.527400 C 60.305540,50.455550 57.865150,48.767850 59.875550,44.790420 C 63.192720,35.673070 71.130170,26.508940 71.175420,26.434480 z " id="path584" style="font-size:12.000000;fill:none;fill-rule:evenodd;stroke:#6b18b5;stroke-linejoin:round;" transform="matrix(1.919646,0.000000,0.000000,1.919646,249.6520,5.172104)"/>
    <path d="M 156.50120,17.547680 C 156.50120,17.547680 153.87410,15.195160 150.93550,14.270940 C 148.54640,13.663560 144.56740,13.927760 140.45000,13.523710 C 132.51760,12.411190 124.34000,6.6744230 119.31590,7.3671720 C 116.06820,8.0143740 111.33580,12.750240 112.42630,17.952120 C 113.24330,21.161350 116.83250,27.652050 124.04630,26.373440 C 131.26000,25.094760 131.19780,23.521190 135.45370,22.198640 C 145.83400,16.378250 156.41630,17.567060 156.50120,17.547680 z " id="path585" style="font-size:12.000000;fill:none;fill-rule:evenodd;stroke:#6b18b5;stroke-linejoin:round;" transform="matrix(1.919646,0.000000,0.000000,1.919646,249.6520,5.172104)"/>
    <path d="M 241.12330,99.794160 C 241.71550,98.440550 240.62480,95.896300 239.85000,92.914890 C 239.09790,90.567250 237.97520,86.923680 235.22870,83.685300 C 231.96520,76.370240 232.52450,66.338650 229.27280,62.446590 C 227.00180,60.036470 220.47710,58.535840 216.64530,62.219010 C 214.35770,64.613650 209.83510,72.175140 214.74470,77.612920 C 219.65430,83.050540 221.79410,81.002270 225.17230,83.909070 C 233.22620,89.318770 237.17030,98.801880 241.12330,99.794160 z " id="path586" style="font-size:12.000000;fill:none;fill-rule:evenodd;stroke:#6b18b5;stroke-linejoin:round;" transform="matrix(1.919646,0.000000,0.000000,1.919646,249.6520,5.172104)"/>
    <path d="M 238.23620,163.69380 C 239.33600,162.17100 241.30530,159.23620 241.07110,156.79190 C 240.88570,154.85600 241.95830,148.98730 242.07550,146.42710 C 242.80340,138.45020 247.79650,131.97540 246.43870,125.04480 C 245.63540,121.83220 240.93010,117.24960 235.78710,118.59020 C 232.62100,119.56130 225.57190,123.44020 227.19760,130.58370 C 228.82350,137.72730 231.13160,137.60890 232.65820,141.79590 C 237.04080,150.45170 234.23660,160.73360 238.23620,163.69380 z " id="path587" style="font-size:12.000000;fill:none;fill-rule:evenodd;stroke:#6b18b5;stroke-linejoin:round;" transform="matrix(1.919646,0.000000,0.000000,1.919646,249.6520,5.172104)"/>
    <path d="M 179.53210,214.40690 C 179.53210,214.40690 178.17990,217.00730 183.58880,219.29570" id="path589" style="font-size:12.000000;fill:none;fill-rule:evenodd;stroke:#000000;stroke-width:1.0000000;" transform="matrix(1.919646,0.000000,0.000000,1.919646,249.6520,5.172104)"/>
    <path d="M 190.34980,208.26990 C 190.34980,208.26990 196.38280,206.81370 200.43940,208.26990" id="path590" style="font-size:12.000000;fill:none;fill-rule:evenodd;stroke:#000000;stroke-width:1.0000000;" transform="matrix(1.919646,0.000000,0.000000,1.919646,249.6520,5.172104)"/>
    <path d="M 208.34460,193.08350 C 208.34460,193.18760 207.51250,195.78800 212.29730,199.53260" id="path591" style="font-size:12.000000;fill:none;fill-rule:evenodd;stroke:#000000;stroke-width:1.0000000;" transform="matrix(1.919646,0.000000,0.000000,1.919646,249.6520,5.172104)"/>
    <path d="M 211.77720,186.32250 C 211.77720,186.32250 215.31370,188.92290 221.24270,188.81890" id="path592" style="font-size:12.000000;fill:none;fill-rule:evenodd;stroke:#000000;stroke-width:1.0000000;" transform="matrix(1.919646,0.000000,0.000000,1.919646,249.6520,5.172104)"/>
    <path d="M 176.09960,193.91570 C 176.09960,193.91570 176.30760,200.78070 172.77110,204.00520" id="path593" style="font-size:12.000000;fill:none;fill-rule:evenodd;stroke:#000000;stroke-width:1.0000000;" transform="matrix(1.919646,0.000000,0.000000,1.919646,249.6520,5.172104)"/>
    <path d="M 187.95740,183.30600 C 187.95740,183.30600 193.78230,184.76220 198.56710,182.36990" id="path594" style="font-size:12.000000;fill:none;fill-rule:evenodd;stroke:#000000;stroke-width:1.0000000;" transform="matrix(1.919646,0.000000,0.000000,1.919646,249.6520,5.172104)"/>
    <path d="M 225.29930,173.21640 C 225.29930,173.21640 226.54750,174.98470 232.99650,174.67270" id="path595" style="font-size:12.000000;fill:none;fill-rule:evenodd;stroke:#000000;stroke-width:1.0000000;" transform="matrix(1.919646,0.000000,0.000000,1.919646,249.6520,5.172104)"/>
    <path d="M 200.12740,169.15980 C 200.33540,169.26380 207.72050,171.65620 212.40130,169.47190" id="path596" style="font-size:12.000000;fill:none;fill-rule:evenodd;stroke:#000000;stroke-width:1.0000000;" transform="matrix(1.919646,0.000000,0.000000,1.919646,249.6520,5.172104)"/>
    <path d="M 214.89770,140.86740 C 214.89770,140.86740 215.20970,140.45130 217.49810,148.46060" id="path597" style="font-size:12.000000;fill:none;fill-rule:evenodd;stroke:#000000;stroke-width:1.0000000;" transform="matrix(1.919646,0.000000,0.000000,1.919646,249.6520,5.172104)"/>
    <path d="M 220.61860,118.29590 C 220.61860,118.29590 220.30650,122.56050 216.87400,124.43280" id="path598" style="font-size:12.000000;fill:none;fill-rule:evenodd;stroke:#000000;stroke-width:1.0000000;" transform="matrix(1.919646,0.000000,0.000000,1.919646,249.6520,5.172104)"/>
    <path d="M 242.56600,100.82110 C 242.56600,100.82110 237.57320,104.87770 238.50940,106.54200" id="path599" style="font-size:12.000000;fill:none;fill-rule:evenodd;stroke:#000000;stroke-width:1.0000000;" transform="matrix(1.919646,0.000000,0.000000,1.919646,249.6520,5.172104)"/>
    <path d="M 217.70610,97.908680 C 217.70610,97.908680 220.30650,102.27730 216.04190,105.29380" id="path600" style="font-size:12.000000;fill:none;fill-rule:evenodd;stroke:#000000;stroke-width:1.0000000;" transform="matrix(1.919646,0.000000,0.000000,1.919646,249.6520,5.172104)"/>
    <path d="M 205.12010,79.185760 C 205.12010,79.185760 209.59280,78.977630 211.56910,82.826280" id="path601" style="font-size:12.000000;fill:none;fill-rule:evenodd;stroke:#000000;stroke-width:1.0000000;" transform="matrix(1.919646,0.000000,0.000000,1.919646,249.6520,5.172104)"/>
    <path d="M 196.69480,66.495820 L 200.12740,66.495740" id="path602" style="font-size:12.000000;fill:none;fill-rule:evenodd;stroke:#000000;stroke-width:1.0000000;" transform="matrix(1.919646,0.000000,0.000000,1.919646,249.6520,5.172104)"/>
    <path d="M 214.48160,50.893300 C 214.48160,50.997280 215.41770,51.829350 213.64950,53.597690" id="path603" style="font-size:12.000000;fill:none;fill-rule:evenodd;stroke:#000000;stroke-width:1.0000000;" transform="matrix(1.919646,0.000000,0.000000,1.919646,249.6520,5.172104)"/>
    <path d="M 182.54860,51.309330 C 182.54860,51.309330 184.94100,55.053910 184.52490,59.630630" id="path604" style="font-size:12.000000;fill:none;fill-rule:evenodd;stroke:#000000;stroke-width:1.0000000;" transform="matrix(1.919646,0.000000,0.000000,1.919646,249.6520,5.172104)"/>
    <path d="M 196.38280,38.619350 C 197.42290,38.515370 200.95950,36.955080 200.95950,36.955080" id="path605" style="font-size:12.000000;fill:none;fill-rule:evenodd;stroke:#000000;stroke-width:1.0000000;" transform="matrix(1.919646,0.000000,0.000000,1.919646,249.6520,5.172104)"/>
    <path d="M 180.98830,23.745010 C 180.88430,23.745010 179.63610,28.425720 181.92450,30.090000" id="path606" style="font-size:12.000000;fill:none;fill-rule:evenodd;stroke:#000000;stroke-width:1.0000000;" transform="matrix(1.919646,0.000000,0.000000,1.919646,249.6520,5.172104)"/>
    <path d="M 175.26740,45.068440 C 175.26740,50.061260 179.22010,48.812940 176.51570,53.597720" id="path607" style="font-size:12.000000;fill:none;fill-rule:evenodd;stroke:#000000;stroke-width:1.0000000;" transform="matrix(1.919646,0.000000,0.000000,1.919646,249.6520,5.172104)"/>
    <path d="M 165.59390,40.907710 C 165.48990,40.907710 159.35300,45.692490 159.35300,46.524630" id="path608" style="font-size:12.000000;fill:none;fill-rule:evenodd;stroke:#000000;stroke-width:1.0000000;" transform="matrix(1.919646,0.000000,0.000000,1.919646,249.6520,5.172104)"/>
    <path d="M 149.57540,38.307310 C 149.57540,38.307310 152.17580,40.907640 151.55170,44.444240" id="path609" style="font-size:12.000000;fill:none;fill-rule:evenodd;stroke:#000000;stroke-width:1.0000000;" transform="matrix(1.919646,0.000000,0.000000,1.919646,249.6520,5.172104)"/>
    <path d="M 141.98220,36.227010 C 141.98220,36.227010 140.63000,40.179570 138.86180,41.219760" id="path610" style="font-size:12.000000;fill:none;fill-rule:evenodd;stroke:#000000;stroke-width:1.0000000;" transform="matrix(1.919646,0.000000,0.000000,1.919646,249.6520,5.172104)"/>
    <path d="M 128.14810,35.186810 C 128.04410,35.394870 125.96370,39.867520 124.50750,40.699660" id="path611" style="font-size:12.000000;fill:none;fill-rule:evenodd;stroke:#000000;stroke-width:1.0000000;" transform="matrix(1.919646,0.000000,0.000000,1.919646,249.6520,5.172104)"/>
    <path d="M 109.21710,35.290880 C 109.32110,35.290880 111.29740,39.451570 108.69700,42.468000" id="path612" style="font-size:12.000000;fill:none;fill-rule:evenodd;stroke:#000000;stroke-width:1.0000000;" transform="matrix(1.919646,0.000000,0.000000,1.919646,249.6520,5.172104)"/>
    <path d="M 104.84840,13.759510 C 104.95240,13.863490 105.26450,16.983920 103.28820,19.688390" id="path613" style="font-size:12.000000;fill:none;fill-rule:evenodd;stroke:#000000;stroke-width:1.0000000;" transform="matrix(1.919646,0.000000,0.000000,1.919646,249.6520,5.172104)"/>
    <path d="M 86.125490,20.832570 C 86.125490,20.936630 86.957630,24.369250 81.444760,25.513350" id="path614" style="font-size:12.000000;fill:none;fill-rule:evenodd;stroke:#000000;stroke-width:1.0000000;" transform="matrix(1.919646,0.000000,0.000000,1.919646,249.6520,5.172104)"/>
    <path d="M 75.515830,52.557570 C 75.619850,52.765550 80.820670,53.597690 80.820670,53.597690" id="path615" style="font-size:12.000000;fill:none;fill-rule:evenodd;stroke:#000000;stroke-width:1.0000000;" transform="matrix(1.919646,0.000000,0.000000,1.919646,249.6520,5.172104)"/>
    <path d="M 62.513790,64.623460 C 62.617810,64.519390 68.858790,62.647140 68.858790,62.647140" id="path616" style="font-size:12.000000;fill:none;fill-rule:evenodd;stroke:#000000;stroke-width:1.0000000;" transform="matrix(1.919646,0.000000,0.000000,1.919646,249.6520,5.172104)"/>
    <path d="M 52.424210,72.424670 C 52.632250,72.424670 56.792900,73.152820 57.833060,72.632720" id="path617" style="font-size:12.000000;fill:none;fill-rule:evenodd;stroke:#000000;stroke-width:1.0000000;" transform="matrix(1.919646,0.000000,0.000000,1.919646,249.6520,5.172104)"/>
    <path d="M 49.511760,76.273240 C 49.511760,76.273240 50.863970,77.001390 49.719790,83.970460" id="path618" style="font-size:12.000000;fill:none;fill-rule:evenodd;stroke:#000000;stroke-width:1.0000000;" transform="matrix(1.919646,0.000000,0.000000,1.919646,249.6520,5.172104)"/>
    <path d="M 29.228580,57.966430 L 31.724970,61.711010" id="path619" style="font-size:12.000000;fill:none;fill-rule:evenodd;stroke:#000000;stroke-width:1.0000000;" transform="matrix(1.919646,0.000000,0.000000,1.919646,249.6520,5.172104)"/>
    <path d="M 20.699240,77.209440 C 20.699240,77.105380 23.195630,80.953950 26.524160,81.682100" id="path620" style="font-size:12.000000;fill:none;fill-rule:evenodd;stroke:#000000;stroke-width:1.0000000;" transform="matrix(1.919646,0.000000,0.000000,1.919646,249.6520,5.172104)"/>
    <path d="M 40.358320,96.764500 C 40.462340,96.764500 44.414960,95.932280 45.039060,95.516250" id="path621" style="font-size:12.000000;fill:none;fill-rule:evenodd;stroke:#000000;stroke-width:1.0000000;" transform="matrix(1.919646,0.000000,0.000000,1.919646,249.6520,5.172104)"/>
    <path d="M 38.590040,110.91070 C 38.694060,110.91070 38.486030,108.31030 41.710530,106.54200" id="path622" style="font-size:12.000000;fill:none;fill-rule:evenodd;stroke:#000000;stroke-width:1.0000000;" transform="matrix(1.919646,0.000000,0.000000,1.919646,249.6520,5.172104)"/>
    <path d="M 34.325380,117.35970 C 34.325380,117.46370 37.341850,121.20830 39.422180,121.72840" id="path623" style="font-size:12.000000;fill:none;fill-rule:evenodd;stroke:#000000;stroke-width:1.0000000;" transform="matrix(1.919646,0.000000,0.000000,1.919646,249.6520,5.172104)"/>
    <path d="M 32.557100,124.53690 C 32.869150,124.43280 36.093650,121.62430 39.838240,121.83240" id="path624" style="font-size:12.000000;fill:none;fill-rule:evenodd;stroke:#000000;stroke-width:1.0000000;" transform="matrix(1.919646,0.000000,0.000000,1.919646,249.6520,5.172104)"/>
    <path d="M 31.516940,134.21030 C 31.516940,134.21030 31.620950,137.43490 41.190450,136.60280" id="path625" style="font-size:12.000000;fill:none;fill-rule:evenodd;stroke:#000000;stroke-width:1.0000000;" transform="matrix(1.919646,0.000000,0.000000,1.919646,249.6520,5.172104)"/>
    <path d="M 32.453080,145.54810 C 32.453080,145.44410 35.261520,139.09910 40.982420,136.70670" id="path626" style="font-size:12.000000;fill:none;fill-rule:evenodd;stroke:#000000;stroke-width:1.0000000;" transform="matrix(1.919646,0.000000,0.000000,1.919646,249.6520,5.172104)"/>
    <path d="M 40.150290,153.66140 C 40.150290,153.66140 40.982420,150.95690 45.767170,149.08470" id="path627" style="font-size:12.000000;fill:none;fill-rule:evenodd;stroke:#000000;stroke-width:1.0000000;" transform="matrix(1.919646,0.000000,0.000000,1.919646,249.6520,5.172104)"/>
    <path d="M 45.455120,164.37500 C 45.455120,164.37500 48.887660,161.56660 50.135860,161.15060" id="path628" style="font-size:12.000000;fill:none;fill-rule:evenodd;stroke:#000000;stroke-width:1.0000000;" transform="matrix(1.919646,0.000000,0.000000,1.919646,249.6520,5.172104)"/>
    <path d="M 49.719790,172.69640 C 49.719790,172.69640 51.800110,174.88070 57.000930,171.13610" id="path629" style="font-size:12.000000;fill:none;fill-rule:evenodd;stroke:#000000;stroke-width:1.0000000;" transform="matrix(1.919646,0.000000,0.000000,1.919646,249.6520,5.172104)"/>
    <path d="M 24.651860,174.46460 C 25.275960,174.36060 32.869150,172.59240 35.469560,176.54500" id="path630" style="font-size:12.000000;fill:none;fill-rule:evenodd;stroke:#000000;stroke-width:1.0000000;" transform="matrix(1.919646,0.000000,0.000000,1.919646,249.6520,5.172104)"/>
    <path d="M 27.668340,180.70560 C 27.668340,180.70560 35.677590,179.66540 36.717750,180.49760" id="path631" style="font-size:12.000000;fill:none;fill-rule:evenodd;stroke:#000000;stroke-width:1.0000000;" transform="matrix(1.919646,0.000000,0.000000,1.919646,249.6520,5.172104)"/>
    <path d="M 56.272820,182.36990 C 56.272820,182.36990 55.232650,184.55430 65.114200,180.91370" id="path632" style="font-size:12.000000;fill:none;fill-rule:evenodd;stroke:#000000;stroke-width:1.0000000;" transform="matrix(1.919646,0.000000,0.000000,1.919646,249.6520,5.172104)"/>
    <path d="M 68.546750,186.32250 C 66.778470,189.33890 68.962810,191.73130 66.674450,193.08350" id="path633" style="font-size:12.000000;fill:none;fill-rule:evenodd;stroke:#000000;stroke-width:1.0000000;" transform="matrix(1.919646,0.000000,0.000000,1.919646,249.6520,5.172104)"/>
    <path d="M 38.486030,190.48310 C 38.798080,190.27520 42.126600,189.13100 41.606520,184.34620" id="path634" style="font-size:12.000000;fill:none;fill-rule:evenodd;stroke:#000000;stroke-width:1.0000000;" transform="matrix(1.919646,0.000000,0.000000,1.919646,249.6520,5.172104)"/>
    <path d="M 41.502500,197.66030 C 41.918570,197.55630 47.431430,195.16390 48.575610,196.41210" id="path635" style="font-size:12.000000;fill:none;fill-rule:evenodd;stroke:#000000;stroke-width:1.0000000;" transform="matrix(1.919646,0.000000,0.000000,1.919646,249.6520,5.172104)"/>
    <path d="M 52.320190,204.62940 C 52.320190,204.62940 53.048310,199.74060 54.608550,199.22060" id="path636" style="font-size:12.000000;fill:none;fill-rule:evenodd;stroke:#000000;stroke-width:1.0000000;" transform="matrix(1.919646,0.000000,0.000000,1.919646,249.6520,5.172104)"/>
    <path d="M 60.641500,212.01450 C 60.641500,212.01450 65.218220,211.91050 67.194530,210.45430" id="path637" style="font-size:12.000000;fill:none;fill-rule:evenodd;stroke:#000000;stroke-width:1.0000000;" transform="matrix(1.919646,0.000000,0.000000,1.919646,249.6520,5.172104)"/>
    <path d="M 69.482880,195.47600 C 69.586900,195.58000 73.747560,197.76430 82.588940,195.58000" id="path638" style="font-size:12.000000;fill:none;fill-rule:evenodd;stroke:#000000;stroke-width:1.0000000;" transform="matrix(1.919646,0.000000,0.000000,1.919646,249.6520,5.172104)"/>
    <path d="M 72.811410,215.34310 C 72.811410,215.34310 74.059610,221.68800 73.955590,223.14430" id="path639" style="font-size:12.000000;fill:none;fill-rule:evenodd;stroke:#000000;stroke-width:1.0000000;" transform="matrix(1.919646,0.000000,0.000000,1.919646,249.6520,5.172104)"/>
    <g id="g915" style="font-size:12.000000;fill:#de2010;" transform="matrix(1.919646,0.000000,0.000000,1.919646,249.6520,3.738080)">
      <path d="M 232.84123 119.03140 A 4.1776280 5.8978271 0 1 0 224.48598,119.03140 A 4.1776280 5.8978271 0 1 0 232.84123 119.03140 z" id="path647" style="fill-opacity:1.0000000;fill-rule:evenodd;stroke:#000000;stroke-width:1.0000000pt;stroke-linecap:butt;stroke-linejoin:miter;stroke-opacity:1.0000000;" transform="matrix(0.963093,-0.120385,0.124033,0.992278,-6.447513,28.44685)"/>
      <path d="M 232.84123 119.03140 A 4.1776280 5.8978271 0 1 0 224.48598,119.03140 A 4.1776280 5.8978271 0 1 0 232.84123 119.03140 z" id="path648" style="fill-opacity:1.0000000;fill-rule:evenodd;stroke:#000000;stroke-width:1.0000000pt;stroke-linecap:butt;stroke-linejoin:miter;stroke-opacity:1.0000000;" transform="matrix(0.963093,-0.120385,0.124033,0.992278,-7.307613,17.87991)"/>
      <path d="M 232.84123 119.03140 A 4.1776280 5.8978271 0 1 0 224.48598,119.03140 A 4.1776280 5.8978271 0 1 0 232.84123 119.03140 z" id="path649" style="fill-opacity:1.0000000;fill-rule:evenodd;stroke:#000000;stroke-width:1.0000000pt;stroke-linecap:butt;stroke-linejoin:miter;stroke-opacity:1.0000000;" transform="matrix(0.948788,-0.204553,0.210751,0.977540,-16.44761,27.94469)"/>
      <path d="M 232.84123 119.03140 A 4.1776280 5.8978271 0 1 0 224.48598,119.03140 A 4.1776280 5.8978271 0 1 0 232.84123 119.03140 z" id="path650" style="fill-opacity:1.0000000;fill-rule:evenodd;stroke:#000000;stroke-width:1.0000000pt;stroke-linecap:butt;stroke-linejoin:miter;stroke-opacity:1.0000000;" transform="matrix(0.865296,-0.439662,0.452985,0.891519,-29.75283,81.13217)"/>
      <path d="M 232.84123 119.03140 A 4.1776280 5.8978271 0 1 0 224.48598,119.03140 A 4.1776280 5.8978271 0 1 0 232.84123 119.03140 z" id="path651" style="fill-opacity:1.0000000;fill-rule:evenodd;stroke:#000000;stroke-width:1.0000000pt;stroke-linecap:butt;stroke-linejoin:miter;stroke-opacity:1.0000000;" transform="matrix(0.865296,-0.439662,0.452985,0.891519,-33.93046,71.67111)"/>
      <path d="M 232.84123 119.03140 A 4.1776280 5.8978271 0 1 0 224.48598,119.03140 A 4.1776280 5.8978271 0 1 0 232.84123 119.03140 z" id="path652" style="fill-opacity:1.0000000;fill-rule:evenodd;stroke:#000000;stroke-width:1.0000000pt;stroke-linecap:butt;stroke-linejoin:miter;stroke-opacity:1.0000000;" transform="matrix(0.824956,-0.511358,0.526854,0.849957,-39.27391,83.79712)"/>
      <path d="M 232.84123 119.03140 A 4.1776280 5.8978271 0 1 0 224.48598,119.03140 A 4.1776280 5.8978271 0 1 0 232.84123 119.03140 z" id="path653" style="fill-opacity:1.0000000;fill-rule:evenodd;stroke:#000000;stroke-width:1.0000000pt;stroke-linecap:butt;stroke-linejoin:miter;stroke-opacity:1.0000000;" transform="matrix(0.771657,-0.588715,0.606556,0.795042,-42.96256,99.17577)"/>
      <path d="M 232.84123 119.03140 A 4.1776280 5.8978271 0 1 0 224.48598,119.03140 A 4.1776280 5.8978271 0 1 0 232.84123 119.03140 z" id="path654" style="fill-opacity:1.0000000;fill-rule:evenodd;stroke:#000000;stroke-width:1.0000000pt;stroke-linecap:butt;stroke-linejoin:miter;stroke-opacity:1.0000000;" transform="matrix(0.678166,-0.694357,0.715399,0.698717,-42.03540,126.6884)"/>
      <path d="M 232.84123 119.03140 A 4.1776280 5.8978271 0 1 0 224.48598,119.03140 A 4.1776280 5.8978271 0 1 0 232.84123 119.03140 z" id="path655" style="fill-opacity:1.0000000;fill-rule:evenodd;stroke:#000000;stroke-width:1.0000000pt;stroke-linecap:butt;stroke-linejoin:miter;stroke-opacity:1.0000000;" transform="matrix(0.611423,-0.753792,0.776636,0.629951,-42.66369,140.8465)"/>
      <path d="M 232.84123 119.03140 A 4.1776280 5.8978271 0 1 0 224.48598,119.03140 A 4.1776280 5.8978271 0 1 0 232.84123 119.03140 z" id="path656" style="fill-opacity:1.0000000;fill-rule:evenodd;stroke:#000000;stroke-width:1.0000000pt;stroke-linecap:butt;stroke-linejoin:miter;stroke-opacity:1.0000000;" transform="matrix(0.477798,-0.844837,0.870440,0.492276,-32.12083,172.1550)"/>
      <path d="M 232.84123 119.03140 A 4.1776280 5.8978271 0 1 0 224.48598,119.03140 A 4.1776280 5.8978271 0 1 0 232.84123 119.03140 z" id="path657" style="fill-opacity:1.0000000;fill-rule:evenodd;stroke:#000000;stroke-width:1.0000000pt;stroke-linecap:butt;stroke-linejoin:miter;stroke-opacity:1.0000000;" transform="matrix(0.398926,-0.884815,0.911630,0.411014,-29.18694,185.5629)"/>
      <path d="M 232.84123 119.03140 A 4.1776280 5.8978271 0 1 0 224.48598,119.03140 A 4.1776280 5.8978271 0 1 0 232.84123 119.03140 z" id="path658" style="fill-opacity:1.0000000;fill-rule:evenodd;stroke:#000000;stroke-width:1.0000000pt;stroke-linecap:butt;stroke-linejoin:miter;stroke-opacity:1.0000000;" transform="matrix(0.338708,-0.909569,0.937135,0.348971,-28.52852,194.5536)"/>
      <path d="M 232.84123 119.03140 A 4.1776280 5.8978271 0 1 0 224.48598,119.03140 A 4.1776280 5.8978271 0 1 0 232.84123 119.03140 z" id="path659" style="fill-opacity:1.0000000;fill-rule:evenodd;stroke:#000000;stroke-width:1.0000000pt;stroke-linecap:butt;stroke-linejoin:miter;stroke-opacity:1.0000000;" transform="matrix(0.268303,-0.932766,0.961035,0.276433,-25.47267,205.2976)"/>
      <path d="M 232.84123 119.03140 A 4.1776280 5.8978271 0 1 0 224.48598,119.03140 A 4.1776280 5.8978271 0 1 0 232.84123 119.03140 z" id="path660" style="fill-opacity:1.0000000;fill-rule:evenodd;stroke:#000000;stroke-width:1.0000000pt;stroke-linecap:butt;stroke-linejoin:miter;stroke-opacity:1.0000000;" transform="matrix(0.121447,-0.962959,0.992143,0.125126,-6.530337,228.3687)"/>
      <path d="M 232.84123 119.03140 A 4.1776280 5.8978271 0 1 0 224.48598,119.03140 A 4.1776280 5.8978271 0 1 0 232.84123 119.03140 z" id="path663" style="fill-opacity:1.0000000;fill-rule:evenodd;stroke:#000000;stroke-width:1.0000000pt;stroke-linecap:butt;stroke-linejoin:miter;stroke-opacity:1.0000000;" transform="matrix(3.894491e-2,-0.969806,0.999197,4.012356e-2,0.436840,239.4379)"/>
      <path d="M 232.84123 119.03140 A 4.1776280 5.8978271 0 1 0 224.48598,119.03140 A 4.1776280 5.8978271 0 1 0 232.84123 119.03140 z" id="path664" style="fill-opacity:1.0000000;fill-rule:evenodd;stroke:#000000;stroke-width:1.0000000pt;stroke-linecap:butt;stroke-linejoin:miter;stroke-opacity:1.0000000;" transform="matrix(3.894491e-2,-0.969806,0.999197,4.012356e-2,-10.00723,239.8066)"/>
      <path d="M 232.84123 119.03140 A 4.1776280 5.8978271 0 1 0 224.48598,119.03140 A 4.1776280 5.8978271 0 1 0 232.84123 119.03140 z" id="path665" style="fill-opacity:1.0000000;fill-rule:evenodd;stroke:#000000;stroke-width:1.0000000pt;stroke-linecap:butt;stroke-linejoin:miter;stroke-opacity:1.0000000;" transform="matrix(-0.216286,-0.946182,0.974857,-0.222842,40.07079,267.0575)"/>
      <path d="M 232.84123 119.03140 A 4.1776280 5.8978271 0 1 0 224.48598,119.03140 A 4.1776280 5.8978271 0 1 0 232.84123 119.03140 z" id="path667" style="fill-opacity:1.0000000;fill-rule:evenodd;stroke:#000000;stroke-width:1.0000000pt;stroke-linecap:butt;stroke-linejoin:miter;stroke-opacity:1.0000000;" transform="matrix(-0.293590,-0.925119,0.953155,-0.302489,49.51790,274.4248)"/>
      <path d="M 232.84123 119.03140 A 4.1776280 5.8978271 0 1 0 224.48598,119.03140 A 4.1776280 5.8978271 0 1 0 232.84123 119.03140 z" id="path669" style="fill-opacity:1.0000000;fill-rule:evenodd;stroke:#000000;stroke-width:1.0000000pt;stroke-linecap:butt;stroke-linejoin:miter;stroke-opacity:1.0000000;" transform="matrix(-0.401691,-0.883563,0.910340,-0.413866,69.62627,282.3576)"/>
      <path d="M 232.84123 119.03140 A 4.1776280 5.8978271 0 1 0 224.48598,119.03140 A 4.1776280 5.8978271 0 1 0 232.84123 119.03140 z" id="path670" style="fill-opacity:1.0000000;fill-rule:evenodd;stroke:#000000;stroke-width:1.0000000pt;stroke-linecap:butt;stroke-linejoin:miter;stroke-opacity:1.0000000;" transform="matrix(-0.475604,-0.846073,0.871714,-0.490019,81.29559,287.8874)"/>
      <path d="M 232.84123 119.03140 A 4.1776280 5.8978271 0 1 0 224.48598,119.03140 A 4.1776280 5.8978271 0 1 0 232.84123 119.03140 z" id="path672" style="fill-opacity:1.0000000;fill-rule:evenodd;stroke:#000000;stroke-width:1.0000000pt;stroke-linecap:butt;stroke-linejoin:miter;stroke-opacity:1.0000000;" transform="matrix(-0.564729,-0.789379,0.813302,-0.581845,99.41281,292.1202)"/>
      <path d="M 232.84123 119.03140 A 4.1776280 5.8978271 0 1 0 224.48598,119.03140 A 4.1776280 5.8978271 0 1 0 232.84123 119.03140 z" id="path673" style="fill-opacity:1.0000000;fill-rule:evenodd;stroke:#000000;stroke-width:1.0000000pt;stroke-linecap:butt;stroke-linejoin:miter;stroke-opacity:1.0000000;" transform="matrix(-0.629495,-0.738765,0.761154,-0.648574,111.8287,295.0017)"/>
      <path d="M 232.84123 119.03140 A 4.1776280 5.8978271 0 1 0 224.48598,119.03140 A 4.1776280 5.8978271 0 1 0 232.84123 119.03140 z" id="path674" style="fill-opacity:1.0000000;fill-rule:evenodd;stroke:#000000;stroke-width:1.0000000pt;stroke-linecap:butt;stroke-linejoin:miter;stroke-opacity:1.0000000;" transform="matrix(-0.680848,-0.691725,0.712688,-0.701484,121.7223,298.5299)"/>
      <path d="M 232.84123 119.03140 A 4.1776280 5.8978271 0 1 0 224.48598,119.03140 A 4.1776280 5.8978271 0 1 0 232.84123 119.03140 z" id="path675" style="fill-opacity:1.0000000;fill-rule:evenodd;stroke:#000000;stroke-width:1.0000000pt;stroke-linecap:butt;stroke-linejoin:miter;stroke-opacity:1.0000000;" transform="matrix(-0.736356,-0.632311,0.651473,-0.758675,135.1894,300.5982)"/>
      <path d="M 232.84123 119.03140 A 4.1776280 5.8978271 0 1 0 224.48598,119.03140 A 4.1776280 5.8978271 0 1 0 232.84123 119.03140 z" id="path676" style="fill-opacity:1.0000000;fill-rule:evenodd;stroke:#000000;stroke-width:1.0000000pt;stroke-linecap:butt;stroke-linejoin:miter;stroke-opacity:1.0000000;" transform="matrix(-0.799589,-0.550177,0.566849,-0.823825,153.8237,298.5415)"/>
      <path d="M 232.84123 119.03140 A 4.1776280 5.8978271 0 1 0 224.48598,119.03140 A 4.1776280 5.8978271 0 1 0 232.84123 119.03140 z" id="path677" style="fill-opacity:1.0000000;fill-rule:evenodd;stroke:#000000;stroke-width:1.0000000pt;stroke-linecap:butt;stroke-linejoin:miter;stroke-opacity:1.0000000;" transform="matrix(-0.882213,-0.404646,0.416907,-0.908952,185.7724,285.3494)"/>
      <path d="M 232.84123 119.03140 A 4.1776280 5.8978271 0 1 0 224.48598,119.03140 A 4.1776280 5.8978271 0 1 0 232.84123 119.03140 z" id="path678" style="fill-opacity:1.0000000;fill-rule:evenodd;stroke:#000000;stroke-width:1.0000000pt;stroke-linecap:butt;stroke-linejoin:miter;stroke-opacity:1.0000000;" transform="matrix(-0.915264,-0.323002,0.332788,-0.943004,199.4109,281.4235)"/>
      <path d="M 232.84123 119.03140 A 4.1776280 5.8978271 0 1 0 224.48598,119.03140 A 4.1776280 5.8978271 0 1 0 232.84123 119.03140 z" id="path680" style="fill-opacity:1.0000000;fill-rule:evenodd;stroke:#000000;stroke-width:1.0000000pt;stroke-linecap:butt;stroke-linejoin:miter;stroke-opacity:1.0000000;" transform="matrix(-0.966438,-7.186533e-2,9.236109e-2,-0.798217,236.4132,226.6072)"/>
      <path d="M 232.84123 119.03140 A 4.1776280 5.8978271 0 1 0 224.48598,119.03140 A 4.1776280 5.8978271 0 1 0 232.84123 119.03140 z" id="path679" style="fill-opacity:1.0000000;fill-rule:evenodd;stroke:#000000;stroke-width:1.0000000pt;stroke-linecap:butt;stroke-linejoin:miter;stroke-opacity:1.0000000;" transform="matrix(-0.946313,-0.215708,0.222242,-0.974994,217.2116,271.3869)"/>
    </g>
    <path d="M 224.14440,99.365020 C 225.42890,97.989900 226.62400,97.601070 228.13630,98.102550 C 227.60300,94.474840 226.45510,93.244050 225.05670,93.680870 C 223.65830,94.117690 223.02540,95.982590 224.14440,99.365020 z " id="path666" style="font-size:12.000000;fill:#ffe300;fill-rule:evenodd;stroke-width:1.0000000;" transform="matrix(1.919646,0.000000,0.000000,1.919646,249.6520,5.172104)"/>
    <path d="M 226.10880,110.31300 C 227.49330,109.03860 228.71440,108.74100 230.18460,109.35500 C 229.92620,105.69740 228.87420,104.38360 227.44690,104.71380 C 226.01960,105.04400 225.24800,106.85590 226.10880,110.31300 z " id="path668" style="font-size:12.000000;fill:#ffe300;fill-rule:evenodd;stroke-width:1.0000000;" transform="matrix(1.919646,0.000000,0.000000,1.919646,249.6520,5.172104)"/>
    <path d="M 221.46390,89.371360 C 222.35710,87.715100 223.41430,87.035510 225.00430,87.136470 C 223.56720,83.763140 222.14440,82.864240 220.90270,83.641880 C 219.66110,84.419520 219.52260,86.384020 221.46390,89.371360 z " id="path671" style="font-size:12.000000;fill:#ffe300;fill-rule:evenodd;stroke-width:1.0000000;" transform="matrix(1.919646,0.000000,0.000000,1.919646,249.6520,5.172104)"/>
    <path d="M 216.59260,79.407260 C 217.48580,77.751000 218.54300,77.071410 220.13300,77.172370 C 218.69590,73.799040 217.27310,72.900140 216.03140,73.677780 C 214.78980,74.455420 214.65130,76.419920 216.59260,79.407260 z " id="path681" style="font-size:12.000000;fill:#ffe300;fill-rule:evenodd;stroke-width:1.0000000;" transform="matrix(1.919646,0.000000,0.000000,1.919646,249.6520,5.172104)"/>
    <path d="M 204.90460,61.154950 C 205.52000,59.376660 206.45430,58.535980 208.03980,58.380080 C 206.07920,55.281590 204.53040,54.623060 203.42990,55.590150 C 202.32940,56.557240 202.50840,58.518460 204.90460,61.154950 z " id="path682" style="font-size:12.000000;fill:#ffe300;fill-rule:evenodd;stroke-width:1.0000000;" transform="matrix(1.919646,0.000000,0.000000,1.919646,249.6520,5.172104)"/>
    <path d="M 197.26810,53.200610 C 197.81590,51.400330 198.71770,50.524940 200.29620,50.309230 C 198.21990,47.287050 196.64730,46.687520 195.58420,47.695510 C 194.52100,48.703500 194.77400,50.656550 197.26810,53.200610 z " id="path683" style="font-size:12.000000;fill:#ffe300;fill-rule:evenodd;stroke-width:1.0000000;" transform="matrix(1.919646,0.000000,0.000000,1.919646,249.6520,5.172104)"/>
    <path d="M 181.21130,39.651820 C 181.17800,37.770340 181.76640,36.659750 183.20170,35.968380 C 180.29550,33.732580 178.61470,33.646530 177.91380,34.932940 C 177.21270,36.219400 178.05490,37.999570 181.21130,39.651820 z " id="path684" style="font-size:12.000000;fill:#ffe300;fill-rule:evenodd;stroke-width:1.0000000;" transform="matrix(1.919646,0.000000,0.000000,1.919646,249.6520,5.172104)"/>
    <path d="M 189.49180,45.916900 C 189.78480,44.058070 190.55660,43.066140 192.08990,42.633750 C 189.61480,39.928490 187.97430,39.552700 187.06120,40.698300 C 186.14790,41.843920 186.66920,43.743050 189.49180,45.916900 z " id="path685" style="font-size:12.000000;fill:#ffe300;fill-rule:evenodd;stroke-width:1.0000000;" transform="matrix(1.919646,0.000000,0.000000,1.919646,249.7937,5.172045)"/>
    <path d="M 171.67740,34.391060 C 171.45020,32.523060 171.92080,31.357690 173.27710,30.521910 C 170.15580,28.597910 168.47500,28.685750 167.91060,30.037610 C 167.34600,31.389550 168.36740,33.073320 171.67740,34.391060 z " id="path686" style="font-size:12.000000;fill:#ffe300;fill-rule:evenodd;stroke-width:1.0000000;" transform="matrix(1.919646,0.000000,0.000000,1.919646,249.6520,5.172104)"/>
    <path d="M 161.93620,30.138500 C 161.44400,28.322230 161.74300,27.101510 162.96570,26.080250 C 159.60120,24.622710 157.95030,24.950170 157.58520,26.368880 C 157.21980,27.787700 158.47170,29.307980 161.93620,30.138500 z " id="path687" style="font-size:12.000000;fill:#ffe300;fill-rule:evenodd;stroke-width:1.0000000;" transform="matrix(1.919646,0.000000,0.000000,1.919646,249.6520,5.172104)"/>
    <path d="M 151.43990,26.886320 C 150.79570,25.118240 150.99030,23.876590 152.12210,22.755490 C 148.64630,21.588000 147.02910,22.054040 146.78540,23.498570 C 146.54140,24.943230 147.91750,26.352070 151.43990,26.886320 z " id="path688" style="font-size:12.000000;fill:#ffe300;fill-rule:evenodd;stroke-width:1.0000000;" transform="matrix(1.919646,0.000000,0.000000,1.919646,249.6520,5.172104)"/>
    <path d="M 141.12720,24.890160 C 140.35680,23.173300 140.46110,21.920820 141.50890,20.720810 C 137.95770,19.807740 136.37850,20.389520 136.23990,21.847890 C 136.10100,23.306410 137.57540,24.612040 141.12720,24.890160 z " id="path689" style="font-size:12.000000;fill:#ffe300;fill-rule:evenodd;stroke-width:1.0000000;" transform="matrix(1.919646,0.000000,0.000000,1.919646,249.6520,5.172104)"/>
    <path d="M 130.20890,24.053140 C 129.26460,22.425420 129.23850,21.168880 130.15620,19.866690 C 126.52950,19.326760 125.01910,20.069150 125.03250,21.534030 C 125.04560,22.999090 126.64740,24.144800 130.20890,24.053140 z " id="path690" style="font-size:12.000000;fill:#ffe300;fill-rule:evenodd;stroke-width:1.0000000;" transform="matrix(1.919646,0.000000,0.000000,1.919646,249.6520,5.172104)"/>
    <path d="M 108.83010,25.663730 C 107.52130,24.311690 107.19310,23.098490 107.76970,21.613480 C 104.11980,21.963830 102.83300,23.048460 103.19910,24.466910 C 103.56500,25.885590 105.39580,26.611330 108.83010,25.663730 z " id="path691" style="font-size:12.000000;fill:#ffe300;fill-rule:evenodd;stroke-width:1.0000000;" transform="matrix(1.919646,0.000000,0.000000,1.919646,249.6520,5.172104)"/>
    <path d="M 119.43070,24.573910 C 118.31690,23.057150 118.15590,21.810690 118.92820,20.417390 C 115.26450,20.270500 113.84270,21.170980 114.01350,22.625930 C 114.18400,24.081080 115.89970,25.047940 119.43070,24.573910 z " id="path692" style="font-size:12.000000;fill:#ffe300;fill-rule:evenodd;stroke-width:1.0000000;" transform="matrix(1.919646,0.000000,0.000000,1.919646,249.5103,4.605256)"/>
    <path d="M 98.505850,27.894060 C 97.016730,26.743630 96.517980,25.590020 96.875720,24.037690 C 93.313760,24.907700 92.195750,26.165620 92.761440,27.516930 C 93.326950,28.868490 95.242890,29.324250 98.505850,27.894060 z " id="path693" style="font-size:12.000000;fill:#ffe300;fill-rule:evenodd;stroke-width:1.0000000;" transform="matrix(1.919646,0.000000,0.000000,1.919646,249.6520,5.172104)"/>
    <path d="M 78.736850,36.983840 C 77.056080,36.137690 76.346990,35.100020 76.402900,33.507990 C 73.071480,35.039700 72.213170,36.487330 73.025600,37.706360 C 73.837880,38.925660 75.805530,39.008620 78.736850,36.983840 z " id="path694" style="font-size:12.000000;fill:#ffe300;fill-rule:evenodd;stroke-width:1.0000000;" transform="matrix(1.919646,0.000000,0.000000,1.919646,249.6520,5.172104)"/>
    <path d="M 88.195480,32.114150 C 86.629910,31.070140 86.052090,29.954030 86.300940,28.380570 C 82.808160,29.496350 81.780390,30.829020 82.438750,32.137690 C 83.096940,33.446620 85.039950,33.767940 88.195480,32.114150 z " id="path695" style="font-size:12.000000;fill:#ffe300;fill-rule:evenodd;stroke-width:1.0000000;" transform="matrix(1.919646,0.000000,0.000000,1.919646,249.7937,5.172045)"/>
    <path d="M 61.006740,49.329230 C 59.186540,48.851930 58.276770,47.984810 57.999670,46.416090 C 55.060610,48.608450 54.522840,50.203170 55.571470,51.226120 C 56.620020,52.249360 58.561760,51.920440 61.006740,49.329230 z " id="path696" style="font-size:12.000000;fill:#ffe300;fill-rule:evenodd;stroke-width:1.0000000;" transform="matrix(1.919646,0.000000,0.000000,1.919646,249.6520,5.172104)"/>
    <path d="M 69.759010,42.553100 C 67.981760,41.934780 67.142650,40.999110 66.989200,39.413510 C 63.887550,41.369070 63.226590,42.916800 64.191930,44.018700 C 65.157160,45.120880 67.118690,44.944970 69.759010,42.553100 z " id="path697" style="font-size:12.000000;fill:#ffe300;fill-rule:evenodd;stroke-width:1.0000000;" transform="matrix(1.919646,0.000000,0.000000,1.919646,249.0853,4.888651)"/>
    <path d="M 53.487770,56.734650 C 51.631710,56.424790 50.646890,55.643970 50.228330,54.106930 C 47.500730,56.557390 47.110160,58.194390 48.247440,59.117780 C 49.384660,60.041470 51.288460,59.537390 53.487770,56.734650 z " id="path698" style="font-size:12.000000;fill:#ffe300;fill-rule:evenodd;stroke-width:1.0000000;" transform="matrix(1.919646,0.000000,0.000000,1.919646,249.6520,5.172104)"/>
    <path d="M 46.751150,65.474510 C 44.874630,65.334400 43.823000,64.646200 43.266650,63.153500 C 40.772740,65.841420 40.532370,67.507120 41.748770,68.323470 C 42.965140,69.140120 44.815330,68.465310 46.751150,65.474510 z " id="path699" style="font-size:12.000000;fill:#ffe300;fill-rule:evenodd;stroke-width:1.0000000;" transform="matrix(1.919646,0.000000,0.000000,1.919646,249.6520,5.172104)"/>
    <path d="M 41.116940,74.415500 C 39.241100,74.564400 38.096480,74.045360 37.318110,72.655470 C 35.265230,75.693590 35.282770,77.376450 36.609840,77.996900 C 37.936920,78.617650 39.661950,77.667470 41.116940,74.415500 z " id="path700" style="font-size:12.000000;fill:#ffe300;fill-rule:evenodd;stroke-width:1.0000000;" transform="matrix(1.919646,0.000000,0.000000,1.919646,249.6520,5.172104)"/>
    <path d="M 36.166710,83.961530 C 34.326050,84.352590 33.123750,83.986460 32.171610,82.709330 C 30.530320,85.988140 30.766080,87.654500 32.162440,88.097500 C 33.558850,88.540800 35.146000,87.374810 36.166710,83.961530 z " id="path701" style="font-size:12.000000;fill:#ffe300;fill-rule:evenodd;stroke-width:1.0000000;" transform="matrix(1.919646,0.000000,0.000000,1.919646,249.6520,5.172104)"/>
    <path d="M 32.208280,93.758380 C 30.452830,94.436130 29.207710,94.265110 28.065250,93.154960 C 26.964170,96.652400 27.460960,98.260360 28.909870,98.476530 C 30.358880,98.692990 31.741250,97.290260 32.208280,93.758380 z " id="path702" style="font-size:12.000000;fill:#ffe300;fill-rule:evenodd;stroke-width:1.0000000;" transform="matrix(1.919646,0.000000,0.000000,1.919646,249.6520,5.172104)"/>
    <path d="M 29.555050,104.67540 C 27.848910,105.46920 26.595130,105.38180 25.380920,104.35070 C 24.516440,107.91400 25.119760,109.48510 26.579900,109.60380 C 28.040140,109.72270 29.325510,108.23060 29.555050,104.67540 z " id="path703" style="font-size:12.000000;fill:#ffe300;fill-rule:evenodd;stroke-width:1.0000000;" transform="matrix(1.919646,0.000000,0.000000,1.919646,249.6520,5.172104)"/>
    <path d="M 28.477280,113.76310 C 26.871070,114.61380 25.619410,114.71430 24.306650,114.07120 C 23.828860,116.97520 24.593720,118.12300 26.053180,118.01930 C 27.512760,117.91570 28.627800,116.57530 28.477280,113.76310 z " id="path704" style="font-size:12.000000;fill:#ffe300;fill-rule:evenodd;stroke-width:1.0000000;" transform="matrix(1.919646,0.000000,0.000000,1.919646,249.6520,5.172104)"/>
    <path d="M 212.24380,70.532400 C 212.88610,68.763670 213.83300,67.937280 215.42070,67.805490 C 213.50740,64.677560 211.96880,63.995570 210.85370,64.945840 C 209.73870,65.896090 209.88790,67.859800 212.24380,70.532400 z " id="path705" style="font-size:12.000000;fill:#ffe300;fill-rule:evenodd;stroke-width:1.0000000;" transform="matrix(1.919646,0.000000,0.000000,1.919646,249.6520,5.172104)"/>
    <path d="M 227.30790,121.40440 C 228.69240,120.13000 229.91350,119.83240 231.38370,120.44640 C 231.12530,116.78880 230.07330,115.47500 228.64600,115.80520 C 227.21870,116.13540 226.44710,117.94730 227.30790,121.40440 z " id="path706" style="font-size:12.000000;fill:#ffe300;fill-rule:evenodd;stroke-width:1.0000000;" transform="matrix(1.919646,0.000000,0.000000,1.919646,249.6520,5.172104)"/>
    <path d="M 212.95250,61.867720 C 212.90790,61.867720 208.80670,65.968980 209.52000,70.961810 C 210.23320,75.954640 213.39830,82.106520 212.81880,87.277650 C 212.23920,92.448780 211.30310,95.881320 211.30310,95.881320 C 211.30310,95.881320 216.11760,90.398070 216.16220,85.137830 C 216.20680,79.877590 212.86330,72.967800 212.86330,69.089480 C 212.86330,65.211150 213.04170,61.778610 212.95250,61.867720 z " id="path709" style="font-size:12.000000;fill:#217900;fill-rule:evenodd;stroke:#000000;stroke-width:1.0000000;stroke-linejoin:round;" transform="matrix(1.919646,0.000000,0.000000,1.919646,249.6520,5.172104)"/>
    <path d="M 220.57550,78.629350 C 220.57550,78.629350 217.36580,80.992020 217.67790,86.430630 C 217.98990,91.869250 223.60680,101.85480 223.60680,101.85480 C 223.60680,101.85480 227.70810,110.28020 227.57430,112.46460 C 227.44060,114.64890 228.33220,110.36950 227.93100,105.55490 C 227.52980,100.74040 221.33330,90.130660 221.33330,90.130660 C 221.33330,90.130660 219.99590,87.946370 220.12970,84.335450 C 220.26340,80.724530 220.62010,78.673900 220.57550,78.629350 z " id="path710" style="font-size:12.000000;fill:#217900;fill-rule:evenodd;stroke:#000000;stroke-width:1.0000000;stroke-linejoin:round;" transform="matrix(1.919646,0.000000,0.000000,1.919646,249.6520,5.172104)"/>
    <path d="M 124.12637 11.239520 A 2.8276751 2.0375819 0 1 0 118.47102,11.239520 A 2.8276751 2.0375819 0 1 0 124.12637 11.239520 z" id="path713" style="font-size:12.000000;fill:#6b18b5;fill-rule:evenodd;stroke-width:1.0000000;" transform="matrix(1.919646,0.000000,0.000000,1.919646,249.6520,5.172104)"/>
    <path d="M 125.33224 15.980040 A 2.9108350 1.9544220 0 1 0 119.51057,15.980040 A 2.9108350 1.9544220 0 1 0 125.33224 15.980040 z" id="path714" style="font-size:12.000000;fill:#6b18b5;fill-rule:evenodd;stroke-width:1.0000000;" transform="matrix(1.919646,0.000000,0.000000,1.919646,249.6520,5.172104)"/>
    <path d="M 128.95000,10.366260 C 128.95000,10.366260 125.62330,12.861300 126.99560,13.859300 C 128.36780,14.857300 132.15190,11.696980 132.15190,11.696980 L 128.95000,10.366260 z " id="path715" style="font-size:12.000000;fill:#6b18b5;fill-rule:evenodd;stroke-width:1.0000000;" transform="matrix(1.919646,0.000000,0.000000,1.919646,249.6520,5.172104)"/>
    <path d="M 226.72254 67.491577 A 1.7452470 1.9832610 0 1 0 223.23205,67.491577 A 1.7452470 1.9832610 0 1 0 226.72254 67.491577 z" id="path716" style="font-size:12.000000;fill:#6b18b5;fill-rule:evenodd;stroke-width:1.0000000;" transform="matrix(1.919646,0.000000,0.000000,1.919646,249.6520,5.172104)"/>
    <path d="M 225.45326 62.731831 A 1.8245699 2.1418760 0 1 0 221.80412,62.731831 A 1.8245699 2.1418760 0 1 0 225.45326 62.731831 z" id="path717" style="font-size:12.000000;fill:#6b18b5;fill-rule:evenodd;stroke-width:1.0000000;" transform="matrix(1.919646,0.000000,0.000000,1.919646,249.6520,5.172104)"/>
    <path d="M 226.32585 72.409943 A 0.71395898 1.1106110 0 1 0 224.89793,72.409943 A 0.71395898 1.1106110 0 1 0 226.32585 72.409943 z" id="path718" style="font-size:12.000000;fill:#6b18b5;fill-rule:evenodd;stroke-width:1.0000000;" transform="matrix(1.919646,0.000000,0.000000,1.919646,249.6520,5.172104)"/>
    <path d="M 229.26106 63.763088 A 0.71395898 1.2693020 0 1 0 227.83314,63.763088 A 0.71395898 1.2693020 0 1 0 229.26106 63.763088 z" id="path719" style="font-size:12.000000;fill:#6b18b5;fill-rule:evenodd;stroke-width:1.0000000;" transform="matrix(1.919646,0.000000,0.000000,1.919646,249.6520,5.172104)"/>
    <path d="M 221.24886 64.635742 A 0.71395898 1.0312650 0 1 0 219.82094,64.635742 A 0.71395898 1.0312650 0 1 0 221.24886 64.635742 z" id="path720" style="font-size:12.000000;fill:#6b18b5;fill-rule:evenodd;stroke-width:1.0000000;" transform="matrix(1.919646,0.000000,0.000000,1.919646,249.6520,5.172104)"/>
    <path d="M 222.51804 71.458023 A 1.5072401 1.6659549 0 1 0 219.50356,71.458023 A 1.5072401 1.6659549 0 1 0 222.51804 71.458023 z" id="path721" style="font-size:12.000000;fill:#6b18b5;fill-rule:evenodd;stroke-width:1.0000000;" transform="matrix(1.919646,0.000000,0.000000,1.919646,249.6520,5.172104)"/>
    <path d="M 218.55166 68.443497 A 1.2692640 1.4279170 0 1 0 216.01313,68.443497 A 1.2692640 1.4279170 0 1 0 218.55166 68.443497 z" id="path722" style="font-size:12.000000;fill:#6b18b5;fill-rule:evenodd;stroke-width:1.0000000;" transform="matrix(1.919646,0.000000,0.000000,1.919646,249.6520,5.172104)"/>
    <path d="M 217.91701 64.397713 A 1.1106110 1.1899570 0 1 0 215.69579,64.397713 A 1.1106110 1.1899570 0 1 0 217.91701 64.397713 z" id="path723" style="font-size:12.000000;fill:#6b18b5;fill-rule:evenodd;stroke-width:1.0000000;" transform="matrix(1.919646,0.000000,0.000000,1.919646,249.6520,5.172104)"/>
    <path d="M 235.68673 87.085854 A 3.0938339 4.5217900 0 1 0 229.49906,87.085854 A 3.0938339 4.5217900 0 1 0 235.68673 87.085854 z" id="path724" style="font-size:12.000000;fill:#6b18b5;fill-rule:evenodd;stroke-width:1.0000000;" transform="matrix(1.794596,-1.166715,1.259553,1.662323,170.0382,298.4940)"/>
    <path d="M 240.60509 124.60850 A 3.4904940 4.8390961 0 1 0 233.62410,124.60850 A 3.4904940 4.8390961 0 1 0 240.60509 124.60850 z" id="path725" style="font-size:12.000000;fill:#6b18b5;fill-rule:evenodd;stroke-width:1.0000000;" transform="matrix(1.906049,0.228073,-0.228073,1.906049,281.4481,-47.51761)"/>
    <path d="M 240.60509 124.60850 A 3.4904940 4.8390961 0 1 0 233.62410,124.60850 A 3.4904940 4.8390961 0 1 0 240.60509 124.60850 z" id="path726" style="font-size:12.000000;fill:#6b18b5;fill-rule:evenodd;stroke-width:1.0000000;" transform="matrix(1.879236,0.391811,-0.391811,1.879236,310.1889,-38.99100)"/>
    <path d="M 246.11910 126.35140 A 1.5865940 1.9039150 0 1 0 242.94591,126.35140 A 1.5865940 1.9039150 0 1 0 246.11910 126.35140 z" id="path727" style="font-size:12.000000;fill:#6b18b5;fill-rule:evenodd;stroke-width:1.0000000;" transform="matrix(1.919646,0.000000,0.000000,1.919646,249.6520,5.172104)"/>
    <path d="M 242.23200,130.71450 L 238.97950,134.40330 C 238.97950,134.40330 235.92540,134.48260 236.08400,135.47420 C 236.24270,136.46580 240.28850,139.44070 240.24880,140.63060 C 240.20910,141.82060 242.94600,140.35300 242.94600,140.35300 C 242.94600,140.35300 245.12750,133.72900 245.12750,133.68930 C 245.12750,133.64960 245.00850,129.08810 243.81860,129.16750 C 242.62860,129.24680 242.30620,130.63030 242.23200,130.71450 z " id="path728" style="font-size:12.000000;fill:#6b18b5;fill-rule:evenodd;stroke-width:1.0000000;" transform="matrix(1.919646,0.000000,0.000000,1.919646,249.6520,5.172104)"/>
    <path d="M 28.293460 129.25560 A 1.5479710 1.5479280 0 1 0 25.197518,129.25560 A 1.5479710 1.5479280 0 1 0 28.293460 129.25560 z" id="path729" style="font-size:12.000000;fill:#6b18b5;fill-rule:evenodd;stroke-width:1.0000000;" transform="matrix(1.919646,0.000000,0.000000,1.919646,249.6520,5.172104)"/>
    <path d="M 29.755441 124.52570 A 1.5479710 1.6339869 0 1 0 26.659499,124.52570 A 1.5479710 1.6339869 0 1 0 29.755441 124.52570 z" id="path730" style="font-size:12.000000;fill:#6b18b5;fill-rule:evenodd;stroke-width:1.0000000;" transform="matrix(1.919646,0.000000,0.000000,1.919646,249.6520,5.172104)"/>
    <path d="M 17.199676 102.76810 A 1.8059660 2.5799561 0 1 0 13.587744,102.76810 A 1.8059660 2.5799561 0 1 0 17.199676 102.76810 z" id="path731" style="font-size:12.000000;fill:#6b18b5;fill-rule:evenodd;stroke-width:1.0000000;" transform="matrix(1.753074,-0.782158,0.782158,1.753074,171.8352,34.33068)"/>
    <path d="M 17.199676 102.76810 A 1.8059660 2.5799561 0 1 0 13.587744,102.76810 A 1.8059660 2.5799561 0 1 0 17.199676 102.76810 z" id="path732" style="font-size:12.000000;fill:#6b18b5;fill-rule:evenodd;stroke-width:1.0000000;" transform="matrix(2.408215,-1.013736,1.074458,2.272120,137.9018,11.87613)"/>
    <path d="M 17.199676 102.76810 A 1.8059660 2.5799561 0 1 0 13.587744,102.76810 A 1.8059660 2.5799561 0 1 0 17.199676 102.76810 z" id="path733" style="font-size:12.000000;fill:#6b18b5;fill-rule:evenodd;stroke-width:1.0000000;" transform="matrix(2.569613,0.539904,-0.348114,2.837949,289.2065,-53.26797)"/>
    <path d="M 17.199676 102.76810 A 1.8059660 2.5799561 0 1 0 13.587744,102.76810 A 1.8059660 2.5799561 0 1 0 17.199676 102.76810 z" id="path734" style="font-size:12.000000;fill:#6b18b5;fill-rule:evenodd;stroke-width:1.0000000;" transform="matrix(2.323288,1.223415,-1.112504,2.633908,359.3367,-41.16999)"/>
    <path d="M 15.393707 123.40770 A 1.7199670 1.8060300 0 1 0 11.953773,123.40770 A 1.7199670 1.8060300 0 1 0 15.393707 123.40770 z" id="path735" style="font-size:12.000000;fill:#6b18b5;fill-rule:evenodd;stroke-width:1.0000000;" transform="matrix(1.919646,0.000000,0.000000,1.919646,249.6520,5.172104)"/>
    <path d="M 14.017731 118.93580 A 1.5479710 1.6339869 0 1 0 10.921789,118.93580 A 1.5479710 1.6339869 0 1 0 14.017731 118.93580 z" id="path736" style="font-size:12.000000;fill:#6b18b5;fill-rule:evenodd;stroke-width:1.0000000;" transform="matrix(1.919646,0.000000,0.000000,1.919646,249.6520,5.172104)"/>
    <path d="M 14.533726 110.33600 A 1.2899760 2.7519989 0 1 0 11.953774,110.33600 A 1.2899760 2.7519989 0 1 0 14.533726 110.33600 z" id="path737" style="font-size:12.000000;fill:#6b18b5;fill-rule:evenodd;stroke-width:1.0000000;" transform="matrix(2.239588,0.000000,0.000000,1.919646,246.8180,5.172045)"/>
    <path d="M 14.533726 110.33600 A 1.2899760 2.7519989 0 1 0 11.953774,110.33600 A 1.2899760 2.7519989 0 1 0 14.533726 110.33600 z" id="path738" style="font-size:12.000000;fill:#6b18b5;fill-rule:evenodd;stroke-width:1.0000000;" transform="matrix(2.220009,0.295480,-0.253269,1.902865,283.9366,1.459497)"/>
    <path d="M 53.242825 42.302441 A 2.5353739 3.4349821 0 1 0 48.172077,42.302441 A 2.5353739 3.4349821 0 1 0 53.242825 42.302441 z" id="path739" style="font-size:12.000000;fill:#6b18b5;fill-rule:evenodd;stroke-width:1.0000000;" transform="matrix(1.910729,0.701335,-0.620683,2.159013,276.1250,-39.33913)"/>
    <path d="M 47.190649 51.298870 A 2.1264400 3.6804199 0 1 0 42.937769,51.298870 A 2.1264400 3.6804199 0 1 0 47.190649 51.298870 z" id="path740" style="font-size:12.000000;fill:#6b18b5;fill-rule:evenodd;stroke-width:1.0000000;" transform="matrix(1.421220,1.804604,-1.735936,1.477436,361.5573,-53.38762)"/>
    <path d="M 47.190649 51.298870 A 2.1264400 3.6804199 0 1 0 42.937769,51.298870 A 2.1264400 3.6804199 0 1 0 47.190649 51.298870 z" id="path741" style="font-size:12.000000;fill:#6b18b5;fill-rule:evenodd;stroke-width:1.0000000;" transform="matrix(1.405438,1.549195,-1.716659,1.268331,354.2930,-40.72799)"/>
    <path d="M 47.190649 51.298870 A 2.1264400 3.6804199 0 1 0 42.937769,51.298870 A 2.1264400 3.6804199 0 1 0 47.190649 51.298870 z" id="path742" style="font-size:12.000000;fill:#6b18b5;fill-rule:evenodd;stroke-width:1.0000000;" transform="matrix(0.947770,1.080943,-1.157645,0.884972,374.2653,-16.75979)"/>
    <path d="M 47.190649 51.298870 A 2.1264400 3.6804199 0 1 0 42.937769,51.298870 A 2.1264400 3.6804199 0 1 0 47.190649 51.298870 z" id="path743" style="font-size:12.000000;fill:#6b18b5;fill-rule:evenodd;stroke-width:1.0000000;" transform="matrix(1.256635,0.698264,-0.791643,1.223364,326.8129,1.181375)"/>
    <path d="M 47.190649 51.298870 A 2.1264400 3.6804199 0 1 0 42.937769,51.298870 A 2.1264400 3.6804199 0 1 0 47.190649 51.298870 z" id="path744" style="font-size:12.000000;fill:#6b18b5;fill-rule:evenodd;stroke-width:1.0000000;" transform="matrix(1.119131,1.151360,-1.244952,1.049184,376.9092,-21.91994)"/>
    <path d="M 47.190649 51.298870 A 2.1264400 3.6804199 0 1 0 42.937769,51.298870 A 2.1264400 3.6804199 0 1 0 47.190649 51.298870 z" id="path745" style="font-size:12.000000;fill:#6b18b5;fill-rule:evenodd;stroke-width:1.0000000;" transform="matrix(0.138643,1.137208,-1.163780,5.807697e-2,382.2329,54.44498)"/>
    <path d="M 47.190649 51.298870 A 2.1264400 3.6804199 0 1 0 42.937769,51.298870 A 2.1264400 3.6804199 0 1 0 47.190649 51.298870 z" id="path746" style="font-size:12.000000;fill:#6b18b5;fill-rule:evenodd;stroke-width:1.0000000;" transform="matrix(1.256635,0.698264,-0.791643,1.223364,354.9160,-22.68269)"/>
    <path d="M 204.28300,74.656670 C 204.28300,74.656670 208.10570,68.606190 206.62770,62.911030 C 205.14970,57.215870 198.84230,61.240340 198.97810,63.267150 C 199.11400,65.293900 203.05410,68.005210 203.29370,69.241960 C 203.53310,70.478730 202.84850,74.283030 204.28300,74.656670 z " id="path764" style="font-size:12.000000;fill:#ffd200;fill-rule:evenodd;stroke:#ef8a10;" transform="matrix(1.919646,0.000000,0.000000,1.919646,249.6520,5.172104)"/>
    <path d="M 131.28430,24.332430 C 131.28430,24.332430 145.05920,24.867480 145.14830,33.783260 C 145.10370,35.165250 145.14820,36.814500 144.65790,40.782010 C 147.37720,39.310990 149.20500,35.209730 148.84830,32.579570 C 148.89290,23.530120 136.54460,17.333600 131.28430,24.332430 z " id="path708" style="font-size:12.000000;fill:#217900;fill-rule:evenodd;stroke:#000000;stroke-width:1.2500000;stroke-linejoin:round;" transform="matrix(1.919646,0.000000,0.000000,1.919646,249.6520,5.172104)"/>
    <path d="M 122.54690,23.931240 C 122.54690,23.931240 133.64700,21.613130 133.73610,30.528920 C 133.82530,39.444700 130.21440,40.871170 130.21440,40.871170 C 130.21440,40.871170 138.72900,39.043400 138.77350,29.993940 C 138.81810,20.944490 127.80720,16.932420 122.54690,23.931240 z " id="path707" style="font-size:12.000000;fill:#217900;fill-rule:evenodd;stroke:#000000;stroke-width:1.2500000;stroke-linejoin:round;" transform="matrix(1.919646,0.000000,0.000000,1.919646,249.6520,5.172104)"/>
    <g id="g802" style="font-size:12.000000;" transform="matrix(1.919646,0.000000,0.000000,1.919646,249.6520,5.766954)">
      <path d="M 160.26160,215.96550 C 160.26160,215.96550 212.22010,201.28890 227.90880,137.52160 C 218.79920,202.97590 161.94850,223.72550 161.94850,223.72550 L 160.26160,215.96550 z " id="path640" style="fill:#f7df73;fill-opacity:1.0000000;fill-rule:evenodd;stroke:#000000;stroke-width:1.0000000pt;stroke-linecap:butt;stroke-linejoin:round;stroke-opacity:1.0000000;"/>
      <path d="M 165.58840,219.94010 C 167.19440,219.94010 171.16720,215.54460 173.44940,215.03750 C 175.73170,214.53040 175.98520,212.24800 173.36490,212.16360 C 170.74460,212.07910 168.46240,215.12200 168.46240,215.12200 C 168.46240,215.12200 166.18010,217.06620 163.81340,217.31980 C 161.44660,217.57340 162.96810,220.53170 165.58840,219.94010 z " id="path793" style="fill:#8c1800;fill-opacity:1.0000000;fill-rule:evenodd;stroke:none;stroke-width:1.0000000pt;stroke-linecap:butt;stroke-linejoin:miter;stroke-opacity:1.0000000;"/>
      <path d="M 195.51100,197.62500 C 195.51100,197.62500 190.10130,200.75240 190.86200,201.51320 C 191.62280,202.27400 196.44080,198.55480 196.52530,198.47030 C 196.60980,198.38570 198.55400,196.01900 195.51100,197.62500 z " id="path794" style="fill:#8c1800;fill-opacity:1.0000000;fill-rule:evenodd;stroke:#8c1800;stroke-width:1.0000000pt;stroke-linecap:butt;stroke-linejoin:miter;stroke-opacity:1.0000000;"/>
      <path d="M 176.66150,211.82550 C 176.66150,211.82550 175.05540,211.23380 179.19730,209.62780 C 183.33910,208.02180 183.08550,206.16220 184.43800,205.40140 C 185.79040,204.64070 188.66430,202.61200 189.25600,203.79540 C 189.84770,204.97880 186.21300,207.34560 185.36780,207.59920 C 184.52250,207.85280 180.38060,211.65650 179.19730,211.99460 C 178.01390,212.33270 177.16860,212.16370 176.66150,211.82550 z " id="path795" style="fill:#8c1800;fill-opacity:1.0000000;fill-rule:evenodd;stroke:none;stroke-width:1.0000000pt;stroke-linecap:butt;stroke-linejoin:miter;stroke-opacity:1.0000000;"/>
      <path d="M 203.54100,189.67940 C 199.99090,193.65220 199.99090,193.56770 199.99090,193.56770" id="path796" style="fill:none;fill-opacity:1.0000000;fill-rule:evenodd;stroke:#8c1800;stroke-width:1.6250000;stroke-linecap:round;stroke-linejoin:miter;stroke-opacity:1.0000000;"/>
      <path d="M 208.86630,183.17080 L 205.48520,187.31270" id="path797" style="fill:none;fill-opacity:1.0000000;fill-rule:evenodd;stroke:#8c1800;stroke-width:1.5000000;stroke-linecap:round;stroke-linejoin:miter;stroke-opacity:1.0000000;"/>
      <path d="M 214.19150,174.71810 L 210.38770,180.80410" id="path798" style="fill:none;fill-opacity:1.0000000;fill-rule:evenodd;stroke:#8c1800;stroke-width:1.3750000;stroke-linecap:round;stroke-linejoin:miter;stroke-opacity:1.0000000;"/>
      <path d="M 218.67140,166.09640 L 215.54390,172.35140" id="path799" style="fill:none;fill-opacity:1.0000000;fill-rule:evenodd;stroke:#8c1800;stroke-width:1.2500000;stroke-linecap:round;stroke-linejoin:miter;stroke-opacity:1.0000000;"/>
      <path d="M 220.70000,161.53200 L 219.68570,163.72970" id="path800" style="fill:none;fill-opacity:1.0000000;fill-rule:evenodd;stroke:#8c1800;stroke-width:1.2500000;stroke-linecap:round;stroke-linejoin:miter;stroke-opacity:1.0000000;"/>
      <path d="M 222.98230,155.53050 L 222.13700,158.15080" id="path801" style="fill:none;fill-opacity:1.0000000;fill-rule:evenodd;stroke:#8c1800;stroke-width:0.75000000;stroke-linecap:round;stroke-linejoin:miter;stroke-opacity:1.0000000;"/>
    </g>
    <g id="g813" style="font-size:12.000000;" transform="matrix(-1.902056,0.000000,0.000000,1.954154,731.3943,-4.333184)">
      <path d="M 160.26160,215.96550 C 160.26160,215.96550 212.22010,201.28890 227.90880,137.52160 C 218.79920,202.97590 161.94850,223.72550 161.94850,223.72550 L 160.26160,215.96550 z " id="path814" style="fill:#f7df73;fill-opacity:1.0000000;fill-rule:evenodd;stroke:#000000;stroke-width:1.0000000pt;stroke-linecap:butt;stroke-linejoin:round;stroke-opacity:1.0000000;"/>
      <path d="M 165.58840,219.94010 C 167.19440,219.94010 171.16720,215.54460 173.44940,215.03750 C 175.73170,214.53040 175.98520,212.24800 173.36490,212.16360 C 170.74460,212.07910 168.46240,215.12200 168.46240,215.12200 C 168.46240,215.12200 166.18010,217.06620 163.81340,217.31980 C 161.44660,217.57340 162.96810,220.53170 165.58840,219.94010 z " id="path815" style="fill:#8c1800;fill-opacity:1.0000000;fill-rule:evenodd;stroke:none;stroke-width:1.0000000pt;stroke-linecap:butt;stroke-linejoin:miter;stroke-opacity:1.0000000;"/>
      <path d="M 195.51100,197.62500 C 195.51100,197.62500 190.10130,200.75240 190.86200,201.51320 C 191.62280,202.27400 196.44080,198.55480 196.52530,198.47030 C 196.60980,198.38570 198.55400,196.01900 195.51100,197.62500 z " id="path816" style="fill:#8c1800;fill-opacity:1.0000000;fill-rule:evenodd;stroke:#8c1800;stroke-width:1.0000000pt;stroke-linecap:butt;stroke-linejoin:miter;stroke-opacity:1.0000000;"/>
      <path d="M 176.66150,211.82550 C 176.66150,211.82550 175.05540,211.23380 179.19730,209.62780 C 183.33910,208.02180 183.08550,206.16220 184.43800,205.40140 C 185.79040,204.64070 188.66430,202.61200 189.25600,203.79540 C 189.84770,204.97880 186.21300,207.34560 185.36780,207.59920 C 184.52250,207.85280 180.38060,211.65650 179.19730,211.99460 C 178.01390,212.33270 177.16860,212.16370 176.66150,211.82550 z " id="path817" style="fill:#8c1800;fill-opacity:1.0000000;fill-rule:evenodd;stroke:none;stroke-width:1.0000000pt;stroke-linecap:butt;stroke-linejoin:miter;stroke-opacity:1.0000000;"/>
      <path d="M 203.54100,189.67940 C 199.99090,193.65220 199.99090,193.56770 199.99090,193.56770" id="path818" style="fill:none;fill-opacity:1.0000000;fill-rule:evenodd;stroke:#8c1800;stroke-width:1.6250000;stroke-linecap:round;stroke-linejoin:miter;stroke-opacity:1.0000000;"/>
      <path d="M 208.86630,183.17080 L 205.48520,187.31270" id="path819" style="fill:none;fill-opacity:1.0000000;fill-rule:evenodd;stroke:#8c1800;stroke-width:1.5000000;stroke-linecap:round;stroke-linejoin:miter;stroke-opacity:1.0000000;"/>
      <path d="M 214.19150,174.71810 L 210.38770,180.80410" id="path820" style="fill:none;fill-opacity:1.0000000;fill-rule:evenodd;stroke:#8c1800;stroke-width:1.3750000;stroke-linecap:round;stroke-linejoin:miter;stroke-opacity:1.0000000;"/>
      <path d="M 218.67140,166.09640 L 215.54390,172.35140" id="path821" style="fill:none;fill-opacity:1.0000000;fill-rule:evenodd;stroke:#8c1800;stroke-width:1.2500000;stroke-linecap:round;stroke-linejoin:miter;stroke-opacity:1.0000000;"/>
      <path d="M 220.70000,161.53200 L 219.68570,163.72970" id="path822" style="fill:none;fill-opacity:1.0000000;fill-rule:evenodd;stroke:#8c1800;stroke-width:1.2500000;stroke-linecap:round;stroke-linejoin:miter;stroke-opacity:1.0000000;"/>
      <path d="M 222.98230,155.53050 L 222.13700,158.15080" id="path823" style="fill:none;fill-opacity:1.0000000;fill-rule:evenodd;stroke:#8c1800;stroke-width:0.75000000;stroke-linecap:round;stroke-linejoin:miter;stroke-opacity:1.0000000;"/>
    </g>
    <path d="M 230.37540,126.09470 C 230.63070,130.09460 234.54550,133.92400 233.01370,140.90260 C 231.05630,148.81730 224.16290,167.62510 225.35440,170.94420 C 223.31190,168.13570 223.65230,165.49750 223.48210,161.58270 C 223.31190,157.66800 229.18400,143.11520 229.69470,138.17920 C 229.69460,133.75390 230.12010,127.71160 230.37540,126.09470 z " id="path578" style="font-size:12.000000;fill:#217900;fill-rule:evenodd;stroke:#000000;stroke-width:1.2500000;stroke-linejoin:round;" transform="matrix(1.919646,0.000000,0.000000,1.919646,249.6521,5.172045)"/>
    <path d="M 230.37540,126.17980 C 230.37540,126.17980 236.75820,134.26460 236.41780,140.64740 C 236.07740,147.03020 232.50300,154.51920 233.69450,157.83830 C 231.65200,155.02980 231.14140,153.24260 230.97120,149.32790 C 230.80100,145.41320 234.12000,141.07280 233.43920,136.81770 C 232.75830,132.56250 230.29030,126.17980 230.37540,126.17980 z " id="path577" style="font-size:12.000000;fill:#217900;fill-rule:evenodd;stroke:#000000;stroke-width:1.2500000;stroke-linejoin:round;" transform="matrix(1.919646,0.000000,0.000000,1.919646,249.6521,5.172045)"/>
    <path d="M 230.37540,126.09470 C 230.63070,130.09460 233.60940,133.66870 232.07760,140.64730 C 230.12020,148.56190 223.14160,158.60410 224.24810,170.09320 C 222.20560,167.28460 221.60980,164.13580 221.43960,160.22100 C 221.26940,156.30630 229.18400,143.11520 229.69470,138.17920 C 229.69460,133.75390 230.12010,127.71160 230.37540,126.09470 z " id="path570" style="font-size:12.000000;fill:#217900;fill-rule:evenodd;stroke:#000000;stroke-width:1.2500000;stroke-linejoin:round;" transform="matrix(-1.919646,0.000000,0.000000,1.919646,732.7516,8.766109)"/>
    <path d="M 230.37540,126.17980 C 230.37540,126.17980 236.58800,134.00930 236.24760,140.39220 C 236.16250,144.64730 228.33290,162.43390 229.52440,165.75290 C 227.48190,162.94450 226.88620,163.28480 226.97140,159.02970 C 229.26920,148.13650 233.35410,141.15780 232.67330,136.90280 C 231.99240,132.64760 230.29030,126.17980 230.37540,126.17980 z " id="path569" style="font-size:12.000000;fill:#217900;fill-rule:evenodd;stroke:#000000;stroke-width:1.2500000;stroke-linejoin:round;" transform="matrix(-1.919646,0.000000,0.000000,1.919646,732.7516,8.766109)"/>
  </g>
</svg>
