<?xml version="1.0" encoding="UTF-8" standalone="no"?>
<!DOCTYPE svg PUBLIC "-//W3C//DTD SVG 20010904//EN"
"http://www.w3.org/TR/2001/REC-SVG-20010904/DTD/svg10.dtd"
[
 <!ATTLIST svg
  xmlns:xlink CDATA #FIXED "http://www.w3.org/1999/xlink">
]>
<!-- Created with Sodipodi ("http://www.sodipodi.com/") --><svg height="708.661" id="svg378" version="1" width="1062.99" x="0" xmlns="http://www.w3.org/2000/svg" xmlns:xlink="http://www.w3.org/1999/xlink" y="0">
  <metadata>
    <rdf:RDF xmlns:cc="http://web.resource.org/cc/" xmlns:dc="http://purl.org/dc/elements/1.1/" xmlns:rdf="http://www.w3.org/1999/02/22-rdf-syntax-ns#">
      <cc:Work rdf:about="">
        <dc:title></dc:title>
        <dc:description></dc:description>
        <dc:subject>
          <rdf:Bag>
            <rdf:li></rdf:li>
            <rdf:li>flag</rdf:li>
            <rdf:li>africa</rdf:li>
            <rdf:li>sign</rdf:li>
          </rdf:Bag>
        </dc:subject>
        <dc:publisher>
          <cc:Agent rdf:about="http://www.openclipart.org">
            <dc:title></dc:title>
          </cc:Agent>
        </dc:publisher>
        <dc:creator>
          <cc:Agent>
            <dc:title></dc:title>
          </cc:Agent>
        </dc:creator>
        <dc:rights>
          <cc:Agent>
            <dc:title></dc:title>
          </cc:Agent>
        </dc:rights>
        <dc:date></dc:date>
        <dc:format>image/svg+xml</dc:format>
        <dc:type rdf:resource="http://purl.org/dc/dcmitype/StillImage"/>
        <cc:license rdf:resource=""/>
        <dc:language>en</dc:language>
      </cc:Work>
    </rdf:RDF>
  </metadata>
  <defs id="defs380"/>
  <rect height="708.661" id="rect171" style="font-size:12;fill:#f41408;fill-rule:evenodd;stroke-width:1pt;" width="1062.99" x="0" y="0"/>
  <rect height="236.22" id="rect256" style="font-size:12;fill:#21873b;fill-rule:evenodd;stroke-width:1pt;" transform="translate(0,0.000281206)" width="1062.99" x="0" y="472.441"/>
  <rect height="236.22" id="rect255" style="font-size:12;fill-rule:evenodd;stroke-width:1pt;" width="1062.99" x="0" y="0"/>
  <path d="M 259.713 214.667 C 321.144 65.0663 492.415 -6.49242 642.016 54.9377 C 717.36 85.8764 770.729 139.223 801.699 214.555 L 259.713 214.667 z " id="path386" style="font-size:12;fill:#f31509;fill-rule:evenodd;stroke-width:1pt;" transform="matrix(0.502618,0,0,0.502618,270.878,106.136)"/>
  <path d="M 537.977 92.5913 C 532.011 60.5946 530.385 25.3444 530.927 19.3788 C 531.469 13.4134 534.723 12.3287 537.434 12.3287 C 540.146 12.3287 543.942 15.0403 543.942 19.3787 C 543.942 27.5135 543.943 60.5947 537.977 92.5913 z " id="path353" style="font-size:12;fill:#f31509;fill-rule:evenodd;stroke-width:1pt;" transform="matrix(0.255734,-0.966747,0.966747,0.255734,138.376,720.17)"/>
  <path d="M 537.977 92.5913 C 532.011 60.5946 530.385 25.3444 530.927 19.3788 C 531.469 13.4134 534.723 12.3287 537.434 12.3287 C 540.146 12.3287 543.942 15.0403 543.942 19.3787 C 543.942 27.5135 543.943 60.5947 537.977 92.5913 z " id="path354" style="font-size:12;fill:#f31509;fill-rule:evenodd;stroke-width:1pt;" transform="matrix(0.99999,0.00441702,-0.00441702,0.99999,0.414166,-2.34377)"/>
  <path d="M 537.977 92.5913 C 532.011 60.5946 530.385 25.3444 530.927 19.3788 C 531.469 13.4134 534.723 12.3287 537.434 12.3287 C 540.146 12.3287 543.942 15.0403 543.942 19.3787 C 543.942 27.5135 543.943 60.5947 537.977 92.5913 z " id="path355" style="font-size:12;fill:#f31509;fill-rule:evenodd;stroke-width:1pt;" transform="matrix(0.995934,0.0900828,-0.0900828,0.995934,26.5007,-47.3117)"/>
  <path d="M 537.977 92.5913 C 532.011 60.5946 530.385 25.3444 530.927 19.3788 C 531.469 13.4134 534.723 12.3287 537.434 12.3287 C 540.146 12.3287 543.942 15.0403 543.942 19.3787 C 543.942 27.5135 543.943 60.5947 537.977 92.5913 z " id="path356" style="font-size:12;fill:#f31509;fill-rule:evenodd;stroke-width:1pt;" transform="matrix(0.985144,0.171728,-0.171728,0.985144,54.3375,-88.2742)"/>
  <path d="M 537.977 92.5913 C 532.011 60.5946 530.385 25.3444 530.927 19.3788 C 531.469 13.4134 534.723 12.3287 537.434 12.3287 C 540.146 12.3287 543.942 15.0403 543.942 19.3787 C 543.942 27.5135 543.943 60.5947 537.977 92.5913 z " id="path357" style="font-size:12;fill:#f31509;fill-rule:evenodd;stroke-width:1pt;" transform="matrix(0.966217,0.257731,-0.257731,0.966217,87.7237,-129.382)"/>
  <path d="M 537.977 92.5913 C 532.011 60.5946 530.385 25.3444 530.927 19.3788 C 531.469 13.4134 534.723 12.3287 537.434 12.3287 C 540.146 12.3287 543.942 15.0403 543.942 19.3787 C 543.942 27.5135 543.943 60.5947 537.977 92.5913 z " id="path358" style="font-size:12;fill:#f31509;fill-rule:evenodd;stroke-width:1pt;" transform="matrix(0.939525,0.34248,-0.34248,0.939525,124.944,-167.72)"/>
  <path d="M 537.977 92.5913 C 532.011 60.5946 530.385 25.3444 530.927 19.3788 C 531.469 13.4134 534.723 12.3287 537.434 12.3287 C 540.146 12.3287 543.942 15.0403 543.942 19.3787 C 543.942 27.5135 543.943 60.5947 537.977 92.5913 z " id="path359" style="font-size:12;fill:#f31509;fill-rule:evenodd;stroke-width:1pt;" transform="matrix(0.906804,0.421551,-0.421551,0.906804,163.871,-201.38)"/>
  <path d="M 537.977 92.5913 C 532.011 60.5946 530.385 25.3444 530.927 19.3788 C 531.469 13.4134 534.723 12.3287 537.434 12.3287 C 540.146 12.3287 543.942 15.0403 543.942 19.3787 C 543.942 27.5135 543.943 60.5947 537.977 92.5913 z " id="path360" style="font-size:12;fill:#f31509;fill-rule:evenodd;stroke-width:1pt;" transform="matrix(0.866413,0.499327,-0.499327,0.866413,206.57,-232.272)"/>
  <path d="M 537.977 92.5913 C 532.011 60.5946 530.385 25.3444 530.927 19.3788 C 531.469 13.4134 534.723 12.3287 537.434 12.3287 C 540.146 12.3287 543.942 15.0403 543.942 19.3787 C 543.942 27.5135 543.943 60.5947 537.977 92.5913 z " id="path361" style="font-size:12;fill:#f31509;fill-rule:evenodd;stroke-width:1pt;" transform="matrix(0.819597,0.57294,-0.57294,0.819597,251.598,-259.194)"/>
  <path d="M 537.977 92.5913 C 532.011 60.5946 530.385 25.3444 530.927 19.3788 C 531.469 13.4134 534.723 12.3287 537.434 12.3287 C 540.146 12.3287 543.942 15.0403 543.942 19.3787 C 543.942 27.5135 543.943 60.5947 537.977 92.5913 z " id="path362" style="font-size:12;fill:#f31509;fill-rule:evenodd;stroke-width:1pt;" transform="matrix(0.766464,0.642287,-0.642287,0.766464,298.87,-282.118)"/>
  <path d="M 537.977 92.5913 C 532.011 60.5946 530.385 25.3444 530.927 19.3788 C 531.469 13.4134 534.723 12.3287 537.434 12.3287 C 540.146 12.3287 543.942 15.0403 543.942 19.3787 C 543.942 27.5135 543.943 60.5947 537.977 92.5913 z " id="path363" style="font-size:12;fill:#f31509;fill-rule:evenodd;stroke-width:1pt;" transform="matrix(0.707341,0.706872,-0.706872,0.707341,348.075,-300.866)"/>
  <path d="M 537.977 92.5913 C 532.011 60.5946 530.385 25.3444 530.927 19.3788 C 531.469 13.4134 534.723 12.3287 537.434 12.3287 C 540.146 12.3287 543.942 15.0403 543.942 19.3787 C 543.942 27.5135 543.943 60.5947 537.977 92.5913 z " id="path364" style="font-size:12;fill:#f31509;fill-rule:evenodd;stroke-width:1pt;" transform="matrix(0.642603,0.766199,-0.766199,0.642603,398.879,-315.273)"/>
  <path d="M 537.977 92.5913 C 532.011 60.5946 530.385 25.3444 530.927 19.3788 C 531.469 13.4134 534.723 12.3287 537.434 12.3287 C 540.146 12.3287 543.942 15.0403 543.942 19.3787 C 543.942 27.5135 543.943 60.5947 537.977 92.5913 z " id="path365" style="font-size:12;fill:#f31509;fill-rule:evenodd;stroke-width:1pt;" transform="matrix(0.5762,0.817309,-0.817309,0.5762,448.359,-324.814)"/>
  <path d="M 537.977 92.5913 C 532.011 60.5946 530.385 25.3444 530.927 19.3788 C 531.469 13.4134 534.723 12.3287 537.434 12.3287 C 540.146 12.3287 543.942 15.0403 543.942 19.3787 C 543.942 27.5135 543.943 60.5947 537.977 92.5913 z " id="path366" style="font-size:12;fill:#f31509;fill-rule:evenodd;stroke-width:1pt;" transform="matrix(0.504163,0.863609,-0.863609,0.504163,499.568,-330.25)"/>
  <path d="M 537.977 92.5913 C 532.011 60.5946 530.385 25.3444 530.927 19.3788 C 531.469 13.4134 534.723 12.3287 537.434 12.3287 C 540.146 12.3287 543.942 15.0403 543.942 19.3787 C 543.942 27.5135 543.943 60.5947 537.977 92.5913 z " id="path367" style="font-size:12;fill:#f31509;fill-rule:evenodd;stroke-width:1pt;" transform="matrix(0.422041,0.906577,-0.906577,0.422041,555.298,-331.174)"/>
  <path d="M 537.977 92.5913 C 532.011 60.5946 530.385 25.3444 530.927 19.3788 C 531.469 13.4134 534.723 12.3287 537.434 12.3287 C 540.146 12.3287 543.942 15.0403 543.942 19.3787 C 543.942 27.5135 543.943 60.5947 537.977 92.5913 z " id="path368" style="font-size:12;fill:#f31509;fill-rule:evenodd;stroke-width:1pt;" transform="matrix(0.342725,0.939436,-0.939436,0.342725,606.791,-327.422)"/>
  <path d="M 537.977 92.5913 C 532.011 60.5946 530.385 25.3444 530.927 19.3788 C 531.469 13.4134 534.723 12.3287 537.434 12.3287 C 540.146 12.3287 543.942 15.0403 543.942 19.3787 C 543.942 27.5135 543.943 60.5947 537.977 92.5913 z " id="path369" style="font-size:12;fill:#f31509;fill-rule:evenodd;stroke-width:1pt;" transform="matrix(0.25861,0.965982,-0.965982,0.25861,659.158,-318.982)"/>
  <path d="M 537.977 92.5913 C 532.011 60.5946 530.385 25.3444 530.927 19.3788 C 531.469 13.4134 534.723 12.3287 537.434 12.3287 C 540.146 12.3287 543.942 15.0403 543.942 19.3787 C 543.942 27.5135 543.943 60.5947 537.977 92.5913 z " id="path370" style="font-size:12;fill:#f31509;fill-rule:evenodd;stroke-width:1pt;" transform="matrix(0.996112,-0.0880929,0.0880929,0.996112,-21.6896,48.3893)"/>
  <path d="M 537.977 92.5913 C 532.011 60.5946 530.385 25.3444 530.927 19.3788 C 531.469 13.4134 534.723 12.3287 537.434 12.3287 C 540.146 12.3287 543.942 15.0403 543.942 19.3787 C 543.942 27.5135 543.943 60.5947 537.977 92.5913 z " id="path371" style="font-size:12;fill:#f31509;fill-rule:evenodd;stroke-width:1pt;" transform="matrix(0.98462,-0.174707,0.174707,0.98462,-38.8937,98.0365)"/>
  <path d="M 537.977 92.5913 C 532.011 60.5946 530.385 25.3444 530.927 19.3788 C 531.469 13.4134 534.723 12.3287 537.434 12.3287 C 540.146 12.3287 543.942 15.0403 543.942 19.3787 C 543.942 27.5135 543.943 60.5947 537.977 92.5913 z " id="path372" style="font-size:12;fill:#f31509;fill-rule:evenodd;stroke-width:1pt;" transform="matrix(0.965398,-0.260781,0.260781,0.965398,-51.7976,149.48)"/>
  <path d="M 537.977 92.5913 C 532.011 60.5946 530.385 25.3444 530.927 19.3788 C 531.469 13.4134 534.723 12.3287 537.434 12.3287 C 540.146 12.3287 543.942 15.0403 543.942 19.3787 C 543.942 27.5135 543.943 60.5947 537.977 92.5913 z " id="path373" style="font-size:12;fill:#f31509;fill-rule:evenodd;stroke-width:1pt;" transform="matrix(0.939769,-0.341809,0.341809,0.939769,-59.8969,199.941)"/>
  <path d="M 537.977 92.5913 C 532.011 60.5946 530.385 25.3444 530.927 19.3788 C 531.469 13.4134 534.723 12.3287 537.434 12.3287 C 540.146 12.3287 543.942 15.0403 543.942 19.3787 C 543.942 27.5135 543.943 60.5947 537.977 92.5913 z " id="path374" style="font-size:12;fill:#f31509;fill-rule:evenodd;stroke-width:1pt;" transform="matrix(0.907038,-0.421048,0.421048,0.907038,-63.6966,251.358)"/>
  <path d="M 537.977 92.5913 C 532.011 60.5946 530.385 25.3444 530.927 19.3788 C 531.469 13.4134 534.723 12.3287 537.434 12.3287 C 540.146 12.3287 543.942 15.0403 543.942 19.3787 C 543.942 27.5135 543.943 60.5947 537.977 92.5913 z " id="path375" style="font-size:12;fill:#f31509;fill-rule:evenodd;stroke-width:1pt;" transform="matrix(0.865427,-0.501036,0.501036,0.865427,-62.926,305.575)"/>
  <path d="M 537.977 92.5913 C 532.011 60.5946 530.385 25.3444 530.927 19.3788 C 531.469 13.4134 534.723 12.3287 537.434 12.3287 C 540.146 12.3287 543.942 15.0403 543.942 19.3787 C 543.942 27.5135 543.943 60.5947 537.977 92.5913 z " id="path376" style="font-size:12;fill:#f31509;fill-rule:evenodd;stroke-width:1pt;" transform="matrix(0.818947,-0.573869,0.573869,0.818947,-57.6084,357.26)"/>
  <path d="M 537.977 92.5913 C 532.011 60.5946 530.385 25.3444 530.927 19.3788 C 531.469 13.4134 534.723 12.3287 537.434 12.3287 C 540.146 12.3287 543.942 15.0403 543.942 19.3787 C 543.942 27.5135 543.943 60.5947 537.977 92.5913 z " id="path377" style="font-size:12;fill:#f31509;fill-rule:evenodd;stroke-width:1pt;" transform="matrix(0.766991,-0.641658,0.641658,0.766991,-48.0514,407.661)"/>
  <path d="M 537.977 92.5913 C 532.011 60.5946 530.385 25.3444 530.927 19.3788 C 531.469 13.4134 534.723 12.3287 537.434 12.3287 C 540.146 12.3287 543.942 15.0403 543.942 19.3787 C 543.942 27.5135 543.943 60.5947 537.977 92.5913 z " id="path378" style="font-size:12;fill:#f31509;fill-rule:evenodd;stroke-width:1pt;" transform="matrix(0.706724,-0.707489,0.707489,0.706724,-33.5076,459.256)"/>
  <path d="M 537.977 92.5913 C 532.011 60.5946 530.385 25.3444 530.927 19.3788 C 531.469 13.4134 534.723 12.3287 537.434 12.3287 C 540.146 12.3287 543.942 15.0403 543.942 19.3787 C 543.942 27.5135 543.943 60.5947 537.977 92.5913 z " id="path379" style="font-size:12;fill:#f31509;fill-rule:evenodd;stroke-width:1pt;" transform="matrix(0.644944,-0.764229,0.764229,0.644944,-15.696,506.384)"/>
  <path d="M 537.977 92.5913 C 532.011 60.5946 530.385 25.3444 530.927 19.3788 C 531.469 13.4134 534.723 12.3287 537.434 12.3287 C 540.146 12.3287 543.942 15.0403 543.942 19.3787 C 543.942 27.5135 543.943 60.5947 537.977 92.5913 z " id="path380" style="font-size:12;fill:#f31509;fill-rule:evenodd;stroke-width:1pt;" transform="matrix(0.57445,-0.81854,0.81854,0.57445,7.44682,554.562)"/>
  <path d="M 537.977 92.5913 C 532.011 60.5946 530.385 25.3444 530.927 19.3788 C 531.469 13.4134 534.723 12.3287 537.434 12.3287 C 540.146 12.3287 543.942 15.0403 543.942 19.3787 C 543.942 27.5135 543.943 60.5947 537.977 92.5913 z " id="path381" style="font-size:12;fill:#f31509;fill-rule:evenodd;stroke-width:1pt;" transform="matrix(0.498227,-0.867047,0.867047,0.498227,35.2305,601.175)"/>
  <path d="M 537.977 92.5913 C 532.011 60.5946 530.385 25.3444 530.927 19.3788 C 531.469 13.4134 534.723 12.3287 537.434 12.3287 C 540.146 12.3287 543.942 15.0403 543.942 19.3787 C 543.942 27.5135 543.943 60.5947 537.977 92.5913 z " id="path382" style="font-size:12;fill:#f31509;fill-rule:evenodd;stroke-width:1pt;" transform="matrix(0.420773,-0.907166,0.907166,0.420773,65.9405,643.622)"/>
  <path d="M 537.977 92.5913 C 532.011 60.5946 530.385 25.3444 530.927 19.3788 C 531.469 13.4134 534.723 12.3287 537.434 12.3287 C 540.146 12.3287 543.942 15.0403 543.942 19.3787 C 543.942 27.5135 543.943 60.5947 537.977 92.5913 z " id="path383" style="font-size:12;fill:#f31509;fill-rule:evenodd;stroke-width:1pt;" transform="matrix(0.343257,-0.939241,0.939241,0.343257,98.8568,681.77)"/>
  <path d="M 537.977 92.5913 C 532.011 60.5946 530.385 25.3444 530.927 19.3788 C 531.469 13.4134 534.723 12.3287 537.434 12.3287 C 540.146 12.3287 543.942 15.0403 543.942 19.3787 C 543.942 27.5135 543.943 60.5947 537.977 92.5913 z " id="path384" style="font-size:12;fill:#f31509;fill-rule:evenodd;stroke-width:1pt;" transform="matrix(0.255734,-0.966747,0.966747,0.255734,138.376,720.17)"/>
  <rect height="19.1738" id="rect385" style="font-size:12;fill-rule:evenodd;stroke-width:1pt;" width="527.661" x="275.335" y="214.745"/>
</svg>
