<?xml version="1.0" encoding="UTF-8" standalone="no"?>
<!DOCTYPE svg PUBLIC "-//W3C//DTD SVG 20010904//EN"
"http://www.w3.org/TR/2001/REC-SVG-20010904/DTD/svg10.dtd">
<!-- Created with Sodipodi ("http://www.sodipodi.com/") --><svg height="140mm" id="svg378" sodipodi:docbase="/home/cschalle/sodipodi-flags/nations/" sodipodi:docname="/home/cschalle/sodipodi-flags/nations/malaysia.svg" sodipodi:version="0.32" version="1" width="280mm" x="0" xmlns="http://www.w3.org/2000/svg" xmlns:sodipodi="http://sodipodi.sourceforge.net/DTD/sodipodi-0.dtd" xmlns:xlink="http://www.w3.org/1999/xlink" y="0">
  <metadata>
    <rdf:RDF xmlns:cc="http://web.resource.org/cc/" xmlns:dc="http://purl.org/dc/elements/1.1/" xmlns:rdf="http://www.w3.org/1999/02/22-rdf-syntax-ns#">
      <cc:Work rdf:about="">
        <dc:title>Malaysia</dc:title>
        <dc:description></dc:description>
        <dc:subject>
          <rdf:Bag>
            <rdf:li></rdf:li>
            <rdf:li>asia</rdf:li>
            <rdf:li>united_nations_member</rdf:li>
            <rdf:li>flag</rdf:li>
            <rdf:li>sign</rdf:li>
            <rdf:li>jalurgemilang</rdf:li>
          </rdf:Bag>
        </dc:subject>
        <dc:publisher>
          <cc:Agent rdf:about="http://www.openclipart.org">
            <dc:title> Lauris Kaplinski</dc:title>
          </cc:Agent>
        </dc:publisher>
        <dc:creator>
          <cc:Agent>
            <dc:title>Lauris Kaplinski</dc:title>
          </cc:Agent>
        </dc:creator>
        <dc:rights>
          <cc:Agent>
            <dc:title> Lauris Kaplinski</dc:title>
          </cc:Agent>
        </dc:rights>
        <dc:date></dc:date>
        <dc:format>image/svg+xml</dc:format>
        <dc:type rdf:resource="http://purl.org/dc/dcmitype/StillImage"/>
        <cc:license rdf:resource="http://web.resource.org/cc/PublicDomain"/>
        <dc:language>en</dc:language>
      </cc:Work>
      <cc:License rdf:about="http://web.resource.org/cc/PublicDomain">
        <cc:permits rdf:resource="http://web.resource.org/cc/Reproduction"/>
        <cc:permits rdf:resource="http://web.resource.org/cc/Distribution"/>
        <cc:permits rdf:resource="http://web.resource.org/cc/DerivativeWorks"/>
      </cc:License>
    </rdf:RDF>
  </metadata>
  <sodipodi:namedview gridoriginx="-2mm" gridoriginy="-8mm" id="base" showgrid="true"/>
  <defs id="defs380"/>
  <g id="g562" transform="matrix(0.933221,0.000000,0.000000,0.700385,0.000000,-0.272385)">
    <rect height="708.661" id="rect149" style="font-size:12;fill:#e80008;fill-rule:evenodd;stroke-width:1pt;" width="1062.99" x="0" y="0"/>
    <rect height="50.6186" id="rect299" style="font-size:12;fill:#ffffff;fill-rule:evenodd;stroke-width:1pt;" width="1062.99" x="0" y="50.6186"/>
    <rect height="50.6186" id="rect300" style="font-size:12;fill:#ffffff;fill-rule:evenodd;stroke-width:1pt;" width="1062.99" x="0" y="151.856"/>
    <rect height="50.6186" id="rect301" style="font-size:12;fill:#ffffff;fill-rule:evenodd;stroke-width:1pt;" width="1062.99" x="0" y="253.093"/>
    <rect height="50.6186" id="rect302" style="font-size:12;fill:#ffffff;fill-rule:evenodd;stroke-width:1pt;" width="1062.99" x="0" y="354.331"/>
    <rect height="50.6186" id="rect303" style="font-size:12;fill:#ffffff;fill-rule:evenodd;stroke-width:1pt;" width="1062.99" x="0" y="455.568"/>
    <rect height="50.6186" id="rect304" style="font-size:12;fill:#ffffff;fill-rule:evenodd;stroke-width:1pt;" width="1062.99" x="0" y="556.806"/>
    <rect height="50.6186" id="rect305" style="font-size:12;fill:#ffffff;fill-rule:evenodd;stroke-width:1pt;" transform="translate(0,-2.39696e-05)" width="1062.99" x="0" y="658.042"/>
    <rect height="405.794" id="rect298" style="font-size:12;fill:#000689;fill-rule:evenodd;stroke-width:1pt;" width="528.084" x="0" y="-0.908991"/>
  </g>
  <path d="M 256.536 331.013 C 184.713 370.979 94.9244 343.973 56.1157 271.585 C 17.3071 199.195 44.1016 108.7 115.925 69.5857 C 160.334 45.4008 209.11 44.9205 253.429 68.7092 C 228.422 62.6901 206.092 63.0137 181.827 70.2219 C 111.145 91.2197 70.5147 166.678 91.1343 238.657 C 111.754 310.635 185.854 352.01 256.536 331.013 z " id="path297" style="font-size:12;fill:#ffee00;fill-rule:evenodd;stroke-width:1pt;" transform="matrix(0.738255,0.000000,0.000000,0.738255,60.80084,-3.708168)"/>
  <polygon id="polygon291" points="337.045,329.314 326.535,251.974 282.119,316.155 306.206,241.914 238.342,280.467 292.255,224.029 214.384,229.319 287.446,201.862 214.992,172.841 292.731,179.804 240.044,122.22 307.063,162.223 284.578,87.4819 327.604,152.602 339.775,75.5066 350.285,152.846 394.701,88.6661 370.614,162.907 438.478,124.354 384.565,180.792 462.436,175.502 389.374,202.958 461.828,231.98 384.089,225.017 436.777,282.6 369.757,242.597 392.242,317.339 349.216,252.218 337.045,329.314 " style="font-size:12;fill:#ffee00;fill-rule:evenodd;stroke-width:1pt;" transform="matrix(0.824972,0.000000,0.000000,0.824972,33.90615,-26.22598)"/>
</svg>
