<?xml version="1.0" encoding="UTF-8" standalone="no"?>
<!DOCTYPE svg PUBLIC "-//W3C//DTD SVG 1.0//EN"
"http://www.w3.org/TR/2001/REC-SVG-20010904/DTD/svg10.dtd">
<!-- Created with Sodipodi ("http://www.sodipodi.com/") --><svg height="140mm" id="svg571" sodipodi:docbase="/home/tobias/Desktop/Flags" sodipodi:docname="/home/tobias/Desktop/Flags/Norfolk_Island_Australia.svg" sodipodi:version="0.33pre" width="280mm" xmlns="http://www.w3.org/2000/svg" xmlns:sodipodi="http://sodipodi.sourceforge.net/DTD/sodipodi-0.dtd" xmlns:xlink="http://www.w3.org/1999/xlink">
  <metadata>
    <rdf:RDF xmlns:cc="http://web.resource.org/cc/" xmlns:dc="http://purl.org/dc/elements/1.1/" xmlns:rdf="http://www.w3.org/1999/02/22-rdf-syntax-ns#">
      <cc:Work rdf:about="">
        <dc:title>Australia - Norfolk Islands</dc:title>
        <dc:description></dc:description>
        <dc:subject>
          <rdf:Bag>
            <rdf:li></rdf:li>
            <rdf:li>oceania</rdf:li>
            <rdf:li>australia</rdf:li>
            <rdf:li>flag</rdf:li>
            <rdf:li>sign</rdf:li>
          </rdf:Bag>
        </dc:subject>
        <dc:publisher>
          <cc:Agent rdf:about="http://www.openclipart.org">
            <dc:title>Tobias Jakobs</dc:title>
          </cc:Agent>
        </dc:publisher>
        <dc:creator>
          <cc:Agent>
            <dc:title>Tobias Jakobs</dc:title>
          </cc:Agent>
        </dc:creator>
        <dc:rights>
          <cc:Agent>
            <dc:title>Tobias Jakobs</dc:title>
          </cc:Agent>
        </dc:rights>
        <dc:date></dc:date>
        <dc:format>image/svg+xml</dc:format>
        <dc:type rdf:resource="http://purl.org/dc/dcmitype/StillImage"/>
        <cc:license rdf:resource="http://web.resource.org/cc/PublicDomain"/>
        <dc:language>en</dc:language>
      </cc:Work>
      <cc:License rdf:about="http://web.resource.org/cc/PublicDomain">
        <cc:permits rdf:resource="http://web.resource.org/cc/Reproduction"/>
        <cc:permits rdf:resource="http://web.resource.org/cc/Distribution"/>
        <cc:permits rdf:resource="http://web.resource.org/cc/DerivativeWorks"/>
      </cc:License>
    </rdf:RDF>
  </metadata>
  <defs id="defs573"/>
  <sodipodi:namedview id="base"/>
  <rect height="496.062988" id="rect609" style="font-size:12;fill:#ffffff;fill-rule:evenodd;stroke-width:1pt;fill-opacity:1;" width="388.240173" x="301.960639" y="0.000007"/>
  <path d="M 483.678 384.068 C 483.678 407.1 483.678 430.133 483.678 453.165 C 492.987 453.261 502.296 453.357 511.605 453.453 C 511.605 453.453 502.68 393.281 507.574 385.22 C 512.469 377.159 517.075 378.31 517.075 378.31 C 517.075 378.31 535.213 383.781 537.228 382.917 C 539.244 382.053 536.94 376.007 546.729 376.871 C 549.896 375.719 548.169 370.249 551.048 369.961 C 553.927 369.673 609.492 385.508 621.584 370.537 C 618.417 362.188 607.477 369.961 604.598 370.249 C 602.007 370.249 591.067 365.067 584.732 370.249 C 578.974 365.931 552.775 363.051 552.775 363.051 C 549.32 359.596 615.25 364.779 618.993 362.188 C 626.766 354.414 604.598 355.278 601.143 357.869 C 595.001 354.126 587.299 354.415 582.596 357.006 C 580.341 351.612 558.917 353.935 547.017 352.399 C 543.208 350.165 543.86 348.895 546.441 347.505 C 571.297 348.561 596.031 351.786 621.008 350.672 C 627.759 341.871 612.503 338.57 603.158 346.065 C 597.672 337.043 586.46 345.777 578.974 344.914 C 571.489 344.05 574.944 334.837 584.444 336.276 C 593.945 337.716 610.932 335.701 614.099 331.382 C 617.265 327.064 612.208 322.677 596.536 326.776 C 591.232 321.592 579.55 326.776 574.08 328.503 C 566.802 324.443 549.896 327.927 544.138 329.367 C 538.501 325.863 573.792 320.154 573.792 320.154 C 587.415 319.913 595.097 317.563 599.415 316.411 C 620.009 305.373 599.12 304.197 588.313 312.22 C 581.605 306.983 575.232 312.668 569.186 314.684 C 563.14 316.699 551.623 318.139 551.623 317.275 C 551.623 316.411 568.034 306.334 568.034 306.334 C 568.034 306.334 588.187 304.895 592.218 304.319 C 596.249 303.743 616.877 293.156 588.763 300.288 C 578.974 301.152 573.216 300.576 569.473 300.864 C 547.768 298.62 571.489 296.546 571.489 296.546 C 571.489 296.546 602.22 293.721 602.582 292.227 C 603.185 280.245 577.535 285.893 577.247 285.893 C 577.321 277.333 553.351 286.181 553.351 285.893 C 548.77 283.194 555.942 280.423 555.942 280.423 C 562.276 278.888 571.744 278.437 574.221 276.42 C 574.221 276.42 592.11 276.247 594.233 271.498 C 589.846 259.395 556.39 273.647 551.911 275.817 C 545.865 275.817 555.942 266.028 556.23 265.74 C 556.518 265.452 583.869 264.301 596.824 246.738 C 597.724 236.048 581.565 252.784 581.565 252.784 C 580.359 238.92 564.003 253.648 554.502 254.8 C 545.002 255.951 544.714 250.481 551.336 249.617 C 557.957 248.754 565.443 249.33 569.186 239.253 C 572.928 229.176 584.157 239.829 586.172 236.086 C 588.187 232.343 582.141 229.176 582.141 229.176 C 582.141 229.176 590.49 220.539 576.959 220.827 C 563.427 221.115 545.865 219.1 545.865 219.1 C 545.865 219.1 559.973 213.629 573.216 213.917 C 586.46 214.205 579.262 204.417 566.594 204.417 C 553.927 204.417 547.305 200.098 547.305 200.098 C 554.503 197.411 561.7 194.724 568.898 192.037 C 568.418 190.022 567.938 188.006 567.458 185.991 C 567.458 185.991 580.126 175.914 562.276 178.217 C 544.426 180.521 542.411 180.808 542.411 180.808 C 542.411 180.808 506.711 186.279 506.423 186.279 C 506.135 186.279 496.634 183.4 505.847 181.096 C 515.06 178.793 547.593 172.171 552.487 173.899 C 557.382 175.626 551.911 161.807 534.637 160.079 C 517.363 158.352 506.71 164.398 506.71 164.398 C 506.71 164.398 495.482 160.367 505.847 156.912 C 516.211 153.458 532.622 158.064 532.622 158.064 C 532.622 158.064 551.048 152.594 535.789 150.291 C 520.53 147.987 515.718 152.353 508.726 152.594 C 505.935 149.11 532.68 148.277 534.349 145.396 C 531.528 140.212 514.964 145.396 505.271 145.396 C 501.148 143.647 500.882 140.811 505.559 139.062 C 515.444 138.678 524.725 139.259 534.61 138.875 C 534.322 133.597 534.637 127.354 534.349 122.076 C 521.811 119.785 507.1 123.729 500.061 123.395 C 501.944 117.636 529.032 116.158 532.046 114.591 C 538.315 106.755 505.559 114.591 505.271 114.591 C 499.558 113.747 499.927 110.139 503.544 107.969 C 511.893 107.009 530.61 109.184 529.194 103.523 C 528.109 98.2183 516.211 101.059 511.317 102.211 C 506.423 103.362 499.225 102.499 499.225 102.499 C 496.091 98.2795 527.439 99.9957 527.152 96.7406 C 526.743 93.0033 507.286 95.5889 500.664 95.8769 C 495.49 92.307 525.518 89.9516 526 89.543 C 527.085 79.9722 505.847 89.543 501.816 89.543 C 497.785 89.543 499.801 83.497 499.801 83.497 C 499.801 83.497 508.15 79.7543 507.862 79.1785 C 507.574 78.6027 501.528 76.5874 500.952 76.5874 C 500.377 76.5874 500.952 69.9655 500.952 69.9655 C 500.952 69.9655 507.862 64.7833 507.286 63.3438 C 506.71 61.9042 499.225 64.4954 499.225 64.4954 C 499.225 62.576 499.225 60.6567 499.225 58.7373 C 499.225 58.7373 504.695 58.1615 505.271 55.5704 C 505.847 52.9792 498.649 52.6913 498.649 52.6913 C 497.689 42.6147 496.73 32.5381 495.77 22.4615 C 494.906 31.8663 494.043 41.2712 493.179 50.676 C 490.012 51.1559 486.845 51.6357 483.678 52.1155 C 483.678 52.1155 490.3 55.8583 491.452 59.601 C 492.603 63.3438 483.39 62.1921 483.39 62.1921 C 483.39 62.1921 490.876 68.526 491.452 70.8293 C 492.027 73.1325 481.087 73.7083 481.087 73.7083 C 481.087 73.7083 490.3 80.3301 490.876 84.0728 C 491.452 87.8156 490.876 89.8309 490.876 89.8309 C 490.876 89.8309 475.617 76.5873 465.828 80.3301 C 460.741 82.9878 477.482 84.2171 488.573 93.8616 C 488.547 96.0094 461.637 87.3071 460.646 92.7099 C 461.27 94.2136 489.381 98.2492 491.452 101.923 C 481.183 102.307 459.944 99.6761 460.646 103.074 C 458.5 106.997 480.705 104.77 490.012 107.969 C 492.74 111.069 492.455 113.688 487.709 114.015 C 478.739 109.726 458.679 106.523 458.631 111.999 C 458.753 113.461 479.369 112.512 486.845 117.47 C 476.866 119.74 443.017 112.85 442.803 116.205 C 443.767 117.772 449.13 124.667 458.343 124.379 C 467.556 124.091 488.86 128.122 490.3 131.001 C 491.739 133.88 462.661 124.955 451.721 130.137 C 440.781 135.32 483.102 132.153 490.012 138.487 C 496.922 144.821 476.193 137.911 476.193 137.911 C 476.193 137.911 447.402 133.88 443.084 135.895 C 438.765 137.911 433.871 142.517 433.871 142.517 C 433.871 142.517 436.75 148.275 439.629 147.124 C 442.508 145.972 438.765 150.579 438.765 150.579 C 438.765 150.579 479.072 160.367 487.997 169.004 C 496.922 177.642 436.75 155.473 436.75 155.473 C 436.75 155.473 412.566 164.398 438.189 164.974 C 435.241 169.287 439.629 171.883 439.629 171.883 C 439.629 171.883 482.239 180.808 486.557 187.718 C 490.876 194.628 457.479 181.096 449.993 177.354 C 442.508 173.611 421.203 179.657 421.491 181.096 C 421.779 182.536 431.856 184.551 432.143 187.142 C 432.431 189.733 419.764 190.597 419.764 192.9 C 419.764 195.204 473.602 206.432 487.997 218.524 C 502.392 230.616 445.675 204.129 445.675 204.129 C 445.675 204.129 448.842 208.447 445.675 209.599 C 442.508 210.75 431.28 193.476 412.854 204.129 C 409.498 208.512 428.928 211.996 433.871 212.478 C 432.183 216.818 430.704 218.236 437.614 222.554 C 444.523 226.873 424.082 216.221 424.082 216.796 C 424.082 217.372 425.522 224.282 425.522 224.282 C 419.143 219.1 411.44 217.535 404.217 222.842 C 404.217 222.842 403.929 228.025 411.414 231.192 C 407.327 239.543 416.021 236.95 429.84 244.723 C 409.301 239.355 407.672 249.33 422.355 251.633 C 437.038 253.936 477.344 255.376 486.845 267.755 C 496.346 280.135 473.347 263.008 470.723 262.573 C 470.147 262.861 469.571 268.907 469.571 268.907 C 463.429 265.352 457.769 262.158 450.422 260.652 C 449.846 261.803 449.994 263.437 449.418 264.588 C 442.751 259.78 436.93 256.419 427.249 255.951 C 426.865 257.487 426.481 259.022 426.097 260.558 C 426.097 260.558 418.036 250.481 402.201 260.558 C 393.359 266.897 435.598 262.861 442.508 270.347 C 449.418 277.832 443.947 278.984 443.947 278.984 C 438.189 276.873 432.431 274.761 426.673 272.65 C 426.673 272.65 406.232 268.907 400.474 273.513 C 394.716 278.12 484.542 289.348 487.133 301.728 C 488.88 308.442 466.022 294.679 446.251 288.772 C 445.483 290.979 444.715 293.187 443.947 295.394 C 443.947 295.394 436.096 287.507 427.249 286.181 C 426.961 286.181 428.976 293.955 428.976 293.955 C 428.976 293.955 406.808 283.59 395.58 289.06 C 384.351 294.53 434.735 297.409 439.341 302.592 C 443.947 307.774 424.082 299.137 422.355 302.592 C 420.627 306.047 396.155 296.258 396.443 300.864 C 396.731 305.471 399.898 308.062 399.898 308.062 C 399.898 308.062 450.857 312.956 452.585 319.002 C 454.312 325.048 424.37 315.547 424.37 315.547 C 424.37 315.547 421.491 319.866 423.794 321.881 C 426.097 323.897 406.52 310.365 408.247 319.29 C 401.898 316.762 385.503 308.926 387.806 314.972 C 390.109 321.018 434.159 329.655 434.159 329.655 C 434.159 329.655 414.869 331.094 415.733 335.989 C 390.918 320.871 391.549 330.518 392.125 330.806 C 392.701 331.094 360.168 322.745 384.639 335.989 C 409.111 349.232 397.883 346.929 398.171 347.217 C 398.459 347.505 400.762 353.839 400.186 353.839 C 399.61 353.839 383.488 345.201 378.018 344.626 C 372.547 344.05 346.636 351.823 374.275 363.915 C 401.914 376.007 418.9 361.036 434.159 362.764 C 449.418 364.491 456.615 367.082 455.176 371.977 C 453.736 376.871 439.588 355.938 424.697 374.046 C 407.758 370.694 396.262 368.749 405.006 381.197 C 377.343 370.859 360.455 384.356 395.292 389.827 C 429.525 390.836 450.569 381.477 450.569 381.477 C 450.569 381.477 456.327 392.13 464.677 384.644 C 473.026 377.159 473.314 387.523 473.602 387.523 C 473.889 387.523 481.663 384.068 481.663 384.068 C 482.335 384.068 483.006 384.068 483.678 384.068 z " id="path575" sodipodi:nodetypes="ccccccccccccccccccccccccccccccccccccccccccccccccccccccccccccccccccccccccccccccccccccccccccccccccccccccccccccccccccccccccccccccccccccccccccccccccccccccccccccccccccccccccccccccccccccccccccc" style="fill:#198200;fill-rule:evenodd;stroke:black;stroke-opacity:1;stroke-width:1.25;stroke-linejoin:round;stroke-linecap:round;fill-opacity:1;stroke-dasharray:none;"/>
  <path d="M 487.049 343.197 C 487.049 342.835 487.049 338.375 487.049 338.375 C 487.049 338.375 476.175 336.446 470.871 337.531 C 467.73 335.731 464.762 333.361 461.009 335.361 C 460.285 336.928 467.881 341.027 470.412 341.027 C 473.377 342.903 487.049 343.438 487.049 343.197 z " id="path580" sodipodi:nodetypes="cccccc" style="fill:#ffffff;fill-rule:evenodd;stroke:black;stroke-opacity:1;stroke-width:1pt;stroke-linejoin:round;stroke-linecap:round;fill-opacity:1;"/>
  <path d="M 486.928 351.033 C 486.928 351.033 476.053 347.057 471.713 351.638 C 472.423 356.508 484.517 358.869 487.049 357.543 C 489.581 356.217 487.049 351.274 486.928 351.033 z " id="path581" sodipodi:nodetypes="cccc" style="fill:#ffffff;fill-rule:evenodd;stroke:black;stroke-opacity:1;stroke-width:1pt;stroke-linejoin:round;stroke-linecap:round;fill-opacity:1;"/>
  <path d="M 505.253 352.962 L 505.253 356.338 C 505.253 356.338 518.273 358.869 520.564 356.097 C 522.854 353.324 510.196 351.516 505.253 352.962 z " id="path582" style="fill:#ffffff;fill-rule:evenodd;stroke:black;stroke-opacity:1;stroke-width:1pt;stroke-linejoin:round;stroke-linecap:round;fill-opacity:1;"/>
  <path d="M 504.653 339.509 L 505.133 343.318 C 505.133 343.318 516.344 345.849 520.684 339.701 C 525.024 333.553 510.832 339.75 504.653 339.509 z " id="path583" sodipodi:nodetypes="cccc" style="fill:#ffffff;fill-rule:evenodd;stroke:black;stroke-opacity:1;stroke-width:1pt;stroke-linejoin:round;stroke-linecap:round;fill-opacity:1;"/>
  <path d="M 505.253 326.44 L 505.253 328.971 C 505.253 328.971 513.692 330.298 515.621 326.681 C 517.55 323.064 505.494 326.681 505.253 326.44 z " id="path584" style="fill:#ffffff;fill-rule:evenodd;stroke:black;stroke-opacity:1;stroke-width:1pt;stroke-linejoin:round;stroke-linecap:round;fill-opacity:1;"/>
  <path d="M 487.626 318.653 C 486.328 316.801 481.745 312.214 469.448 310.888 C 460.902 310.86 484.885 323.463 487.626 318.653 z " id="path585" sodipodi:nodetypes="ccc" style="fill:#ffffff;fill-rule:evenodd;stroke:black;stroke-opacity:1;stroke-width:1pt;stroke-linejoin:round;stroke-linecap:round;fill-opacity:1;"/>
  <path d="M 505.012 305.825 C 505.012 305.825 504.53 309.321 504.65 309.321 C 504.771 309.321 533.584 300.761 540.335 301.364 C 546.365 299.659 547.569 295.457 547.327 295.457 C 542.181 291.706 517.309 298.471 505.012 305.825 z " id="path586" sodipodi:nodetypes="ccccc" style="fill:#ffffff;fill-rule:evenodd;stroke:black;stroke-opacity:1;stroke-width:1pt;stroke-linejoin:round;stroke-linecap:round;fill-opacity:1;"/>
  <path d="M 505.615 295.577 C 505.494 296.18 505.253 298.953 505.253 298.953 C 505.253 298.953 525.627 294.974 531.052 291.117 C 536.477 287.259 505.856 295.698 505.615 295.577 z " id="path587" style="fill:#ffffff;fill-rule:evenodd;stroke:black;stroke-opacity:1;stroke-width:1pt;stroke-linejoin:round;stroke-linecap:round;fill-opacity:1;"/>
  <path d="M 504.771 285.571 L 504.773 288.97 C 504.773 288.97 518.372 288.555 521.167 285.812 C 522.951 283.069 509.182 285.422 504.771 285.571 z " id="path588" sodipodi:nodetypes="cccc" style="fill:#ffffff;fill-rule:evenodd;stroke:black;stroke-opacity:1;stroke-width:1pt;stroke-linejoin:round;stroke-linecap:round;fill-opacity:1;"/>
  <path d="M 533.151 314.12 C 533.151 314.12 540.215 315.107 541.541 313.058 C 541.28 309.421 533.151 314.24 533.151 314.12 z " id="path589" sodipodi:nodetypes="ccc" style="fill:#ffffff;fill-rule:evenodd;stroke:black;stroke-opacity:1;stroke-width:1pt;stroke-linejoin:round;stroke-linecap:round;fill-opacity:1;"/>
  <path d="M 505.374 272.913 C 505.253 273.515 505.494 280.387 505.494 280.387 C 505.494 280.387 538.165 270.019 540.215 268.09 C 542.264 266.161 546.812 260.355 505.374 272.913 z " id="path590" sodipodi:nodetypes="cccc" style="fill:#ffffff;fill-rule:evenodd;stroke:black;stroke-opacity:1;stroke-width:1pt;stroke-linejoin:round;stroke-linecap:round;fill-opacity:1;"/>
  <path d="M 504.409 262.545 C 504.409 262.665 504.409 267.97 504.409 267.97 C 504.409 267.97 517.55 267.005 523.578 262.062 C 529.606 257.12 504.409 262.665 504.409 262.545 z " id="path591" style="fill:#ffffff;fill-rule:evenodd;stroke:black;stroke-opacity:1;stroke-width:1pt;stroke-linejoin:round;stroke-linecap:round;fill-opacity:1;"/>
  <path d="M 488.616 250.248 L 489.46 255.191 C 489.46 255.191 446.18 241.206 446.301 241.206 C 446.421 241.206 444.121 234.082 488.616 250.248 z " id="path592" sodipodi:nodetypes="cccc" style="fill:#ffffff;fill-rule:evenodd;stroke:black;stroke-opacity:1;stroke-width:1pt;stroke-linejoin:round;stroke-linecap:round;fill-opacity:1;"/>
  <path d="M 489.34 232.888 C 489.219 233.37 489.219 237.589 489.098 237.469 C 488.978 237.348 459.08 224.931 457.995 226.016 C 454.025 216.713 489.34 233.129 489.34 232.888 z " id="path593" sodipodi:nodetypes="cccc" style="fill:#ffffff;fill-rule:evenodd;stroke:black;stroke-opacity:1;stroke-width:1pt;stroke-linejoin:round;stroke-linecap:round;fill-opacity:1;"/>
  <path d="M 503.927 240.603 C 503.927 240.724 504.409 244.823 504.409 244.823 C 504.409 244.823 522.734 240.965 523.819 239.157 C 524.904 237.348 503.927 240.724 503.927 240.603 z " id="path594" style="fill:#ffffff;fill-rule:evenodd;stroke:black;stroke-opacity:1;stroke-width:1pt;stroke-linejoin:round;stroke-linecap:round;fill-opacity:1;"/>
  <path d="M 504.36 250.368 C 504.53 251.404 504.891 254.709 504.891 254.709 C 504.891 254.709 512.245 254.106 513.33 252.418 C 514.415 250.73 504.36 250.489 504.36 250.368 z " id="path595" sodipodi:nodetypes="cccc" style="fill:#ffffff;fill-rule:evenodd;stroke:black;stroke-opacity:1;stroke-width:1pt;stroke-linejoin:round;stroke-linecap:round;fill-opacity:1;"/>
  <path d="M 503.204 228.065 C 503.204 228.427 503.324 232.164 503.324 232.164 C 503.324 232.164 523.457 228.186 525.627 226.257 C 527.797 224.328 502.842 228.065 503.204 228.065 z " id="path596" style="fill:#ffffff;fill-rule:evenodd;stroke:black;stroke-opacity:1;stroke-width:1pt;stroke-linejoin:round;stroke-linecap:round;fill-opacity:1;"/>
  <path d="M 503.324 216.974 C 503.324 217.215 502.601 221.073 503.083 221.073 C 503.565 221.073 527.556 216.974 531.293 213.599 C 535.031 210.223 503.686 217.336 503.324 216.974 z " id="path597" style="fill:#ffffff;fill-rule:evenodd;stroke:black;stroke-opacity:1;stroke-width:1pt;stroke-linejoin:round;stroke-linecap:round;fill-opacity:1;"/>
  <path d="M 502.962 197.444 C 502.962 197.565 502.962 201.664 502.962 201.664 C 502.962 201.664 518.514 198.409 521.408 195.153 C 524.301 191.898 502.962 197.685 502.962 197.444 z " id="path598" style="fill:#ffffff;fill-rule:evenodd;stroke:black;stroke-opacity:1;stroke-width:1pt;stroke-linejoin:round;stroke-linecap:round;fill-opacity:1;"/>
  <path d="M 500.31 168.993 L 500.672 175.382 C 500.672 175.382 521.528 172.489 524.542 168.993 C 527.556 165.497 500.19 168.993 500.31 168.993 z " id="path599" style="fill:#ffffff;fill-rule:evenodd;stroke:black;stroke-opacity:1;stroke-width:1pt;stroke-linejoin:round;stroke-linecap:round;fill-opacity:1;"/>
  <path d="M 490.666 121.132 L 490.666 125.11 C 490.666 125.11 480.78 124.628 483.191 122.94 C 485.602 121.252 490.666 121.493 490.666 121.132 z " id="path600" style="fill:#ffffff;fill-rule:evenodd;stroke:black;stroke-opacity:1;stroke-width:1pt;stroke-linejoin:round;stroke-linecap:round;fill-opacity:1;"/>
  <path d="M 499.828 126.436 L 500.069 131.861 C 500.069 131.861 512.848 130.656 513.813 128.606 C 514.777 126.557 500.069 126.436 499.828 126.436 z " id="path601" style="fill:#ffffff;fill-rule:evenodd;stroke:black;stroke-opacity:1;stroke-width:1pt;stroke-linejoin:round;stroke-linecap:round;fill-opacity:1;"/>
  <path d="M 499.105 134.272 C 499.105 134.272 499.346 137.648 499.587 137.648 C 499.828 137.648 504.65 137.286 505.735 135.96 C 506.82 134.634 499.587 134.513 499.105 134.272 z " id="path602" style="fill:#ffffff;fill-rule:evenodd;stroke:black;stroke-opacity:1;stroke-width:1pt;stroke-linejoin:round;stroke-linecap:round;fill-opacity:1;"/>
  <path d="M 488.255 149.704 C 488.255 150.065 488.616 154.888 488.375 154.767 C 488.134 154.646 460.406 146.69 457.874 146.81 C 455.343 146.931 454.619 140.421 488.255 149.704 z " id="path603" style="fill:#ffffff;fill-rule:evenodd;stroke:black;stroke-opacity:1;stroke-width:1pt;stroke-linejoin:round;stroke-linecap:round;fill-opacity:1;"/>
  <path d="M 490.545 158.745 C 490.545 159.71 491.148 164.773 490.183 164.532 C 489.219 164.291 471.377 158.625 473.185 156.937 C 474.993 155.249 490.545 159.107 490.545 158.745 z " id="path604" style="fill:#ffffff;fill-rule:evenodd;stroke:black;stroke-opacity:1;stroke-width:1pt;stroke-linejoin:round;stroke-linecap:round;fill-opacity:1;"/>
  <path d="M 488.978 196.841 L 489.098 201.422 C 489.098 201.422 457.995 192.019 456.91 190.452 C 455.825 188.885 452.811 181.531 488.978 196.841 z " id="path605" style="fill:#ffffff;fill-rule:evenodd;stroke:black;stroke-opacity:1;stroke-width:1pt;stroke-linejoin:round;stroke-linecap:round;fill-opacity:1;"/>
  <path d="M 490.183 208.053 C 490.183 208.174 490.425 212.393 490.304 212.393 C 490.183 212.393 447.989 197.565 447.989 197.565 C 447.989 197.565 444.613 186.473 490.183 208.053 z " id="path606" style="fill:#ffffff;fill-rule:evenodd;stroke:black;stroke-opacity:1;stroke-width:1pt;stroke-linejoin:round;stroke-linecap:round;fill-opacity:1;"/>
  <path d="M 440.032 354.387 C 440.032 354.531 439.888 359.004 439.888 359.004 C 439.888 359.004 431.664 356.695 429.067 352.079 C 433.828 350.781 440.176 354.531 440.032 354.387 z " id="path607" sodipodi:nodetypes="cccc" style="fill:#ffffff;fill-rule:evenodd;stroke:black;stroke-opacity:1;stroke-width:1pt;stroke-linejoin:round;stroke-linecap:butt;fill-opacity:1;"/>
  <rect height="496.062988" id="rect608" style="font-size:12;fill:#198200;fill-rule:evenodd;stroke-width:1pt;fill-opacity:1;" width="301.960632" x="0.000000" y="-0.000072"/>
  <rect height="496.062988" id="rect610" style="font-size:12;fill:#198200;fill-rule:evenodd;stroke-width:1pt;fill-opacity:1;" width="301.925201" x="690.200816" y="-0.000134"/>
</svg>
