<?xml version="1.0" encoding="UTF-8" standalone="no"?>
<!DOCTYPE svg PUBLIC "-//W3C//DTD SVG 1.0//EN"
"http://www.w3.org/TR/2001/REC-SVG-20010904/DTD/svg10.dtd">
<!-- Created with Sodipodi ("http://www.sodipodi.com/") --><svg height="140mm" id="svg548" sodipodi:docbase="/home/tobias/Desktop/Flags" sodipodi:docname="/home/tobias/Desktop/Flags/French_Polynesia.svg" sodipodi:version="0.33pre" width="210mm" xmlns="http://www.w3.org/2000/svg" xmlns:sodipodi="http://sodipodi.sourceforge.net/DTD/sodipodi-0.dtd" xmlns:xlink="http://www.w3.org/1999/xlink">
  <metadata>
    <rdf:RDF xmlns:cc="http://web.resource.org/cc/" xmlns:dc="http://purl.org/dc/elements/1.1/" xmlns:rdf="http://www.w3.org/1999/02/22-rdf-syntax-ns#">
      <cc:Work rdf:about="">
        <dc:title>French Polynesia</dc:title>
        <dc:description></dc:description>
        <dc:subject>
          <rdf:Bag>
            <rdf:li></rdf:li>
            <rdf:li>polynesia</rdf:li>
            <rdf:li>oceania</rdf:li>
            <rdf:li>france</rdf:li>
            <rdf:li>flag</rdf:li>
            <rdf:li>sign</rdf:li>
          </rdf:Bag>
        </dc:subject>
        <dc:publisher>
          <cc:Agent rdf:about="http://www.openclipart.org">
            <dc:title>Tobias Jakobs</dc:title>
          </cc:Agent>
        </dc:publisher>
        <dc:creator>
          <cc:Agent>
            <dc:title>Tobias Jakobs</dc:title>
          </cc:Agent>
        </dc:creator>
        <dc:rights>
          <cc:Agent>
            <dc:title>Tobias Jakobs</dc:title>
          </cc:Agent>
        </dc:rights>
        <dc:date></dc:date>
        <dc:format>image/svg+xml</dc:format>
        <dc:type rdf:resource="http://purl.org/dc/dcmitype/StillImage"/>
        <cc:license rdf:resource="http://web.resource.org/cc/PublicDomain"/>
        <dc:language>en</dc:language>
      </cc:Work>
      <cc:License rdf:about="http://web.resource.org/cc/PublicDomain">
        <cc:permits rdf:resource="http://web.resource.org/cc/Reproduction"/>
        <cc:permits rdf:resource="http://web.resource.org/cc/Distribution"/>
        <cc:permits rdf:resource="http://web.resource.org/cc/DerivativeWorks"/>
      </cc:License>
    </rdf:RDF>
  </metadata>
  <defs id="defs550"/>
  <sodipodi:namedview id="base"/>
  <path d="M 327.898 352.155 C 327.898 352.155 339.1 343.073 350 343.073 C 360.9 343.073 363.928 350.641 371.497 351.246 C 379.066 351.852 385.423 343.677 394.81 343.375 C 404.196 343.073 416.004 350.035 416.004 350.035 L 374.828 362.45 L 327.898 352.155 z " id="path560" style="font-size:12;fill:#083d9c;fill-rule:evenodd;stroke:#083d9c;stroke-width:1.93772pt;"/>
  <path d="M 304.282 338.833 L 444.161 339.439 C 444.161 339.439 432.051 326.42 417.82 326.118 C 403.59 325.813 407.527 332.173 396.627 333.08 C 385.728 333.989 383.001 326.42 373.01 326.722 C 363.02 327.024 357.266 333.08 349.698 333.384 C 342.129 333.686 332.44 325.813 326.687 326.118 C 320.934 326.42 300.346 335.2 300.346 335.2 L 304.282 338.833 z " id="path561" style="font-size:12;fill:#083d9c;fill-rule:evenodd;stroke:#083d9c;stroke-width:1.93772pt;"/>
  <path d="M 286.42 322.18 L 458.997 322.787 C 461.721 318.851 450.519 309.465 440.226 308.556 C 431.746 308.858 425.693 317.336 418.729 317.64 C 411.765 317.942 403.894 308.858 396.021 309.163 C 388.15 309.465 379.975 317.64 372.102 317.64 C 364.231 317.64 358.478 308.858 348.487 308.858 C 338.496 308.858 333.954 318.547 326.385 317.942 C 318.814 317.336 312.154 308.254 304.888 308.254 C 297.622 308.254 285.511 319.153 283.089 318.547 C 280.667 317.942 286.115 323.089 286.42 322.18 z " id="path562" sodipodi:nodetypes="ccccccccccc" style="font-size:12;fill:#083d9c;fill-rule:evenodd;stroke:#083d9c;stroke-width:1.93772pt;"/>
  <path d="M 352.724 226.203 L 392.388 236.801 L 392.388 180.182 C 374.221 181.091 359.084 145.667 391.177 143.245 C 359.689 138.703 356.055 146.878 352.422 155.658 L 352.724 226.203 z " id="path563" sodipodi:nodetypes="cccccc" style="font-size:12;fill:#ff0000;fill-rule:evenodd;stroke:#000000;stroke-width:2.42215;stroke-linejoin:round;"/>
  <path d="M 327.596 267.38 L 417.216 267.682 " id="path564" style="font-size:12;fill:#083d9c;fill-rule:evenodd;stroke:#083d9c;stroke-width:4.84429;stroke-linecap:round;"/>
  <g id="g570" style="stroke:#000000;stroke-opacity:1;" transform="matrix(1.937716,0.000000,0.000000,1.937716,0.000000,-1.525879e-5)">
    <path d="M 171.25 126.893 L 176.719 134.237 " id="path565" style="fill:none;fill-rule:evenodd;stroke:#000000;stroke-opacity:1;stroke-width:2;stroke-linejoin:miter;stroke-linecap:round;fill-opacity:1;stroke-dasharray:none;"/>
    <path d="M 171.25 134.237 L 177.188 127.05 " id="path566" style="fill:none;fill-rule:evenodd;stroke:#000000;stroke-opacity:1;stroke-width:2;stroke-linejoin:miter;stroke-linecap:round;fill-opacity:1;stroke-dasharray:none;"/>
    <path d="M 174.375 126.424 L 174.219 130.955 " id="path567" style="fill:none;fill-rule:evenodd;stroke:#000000;stroke-opacity:1;stroke-width:2;stroke-linejoin:miter;stroke-linecap:round;fill-opacity:1;stroke-dasharray:none;"/>
  </g>
  <g id="g574" style="stroke:#000000;stroke-opacity:1;" transform="matrix(1.937716,0.000000,0.000000,1.937716,16.95502,-1.525879e-5)">
    <path d="M 171.25 126.893 L 176.719 134.237 " id="path575" style="fill:none;fill-rule:evenodd;stroke:#000000;stroke-opacity:1;stroke-width:2;stroke-linejoin:miter;stroke-linecap:round;fill-opacity:1;stroke-dasharray:none;"/>
    <path d="M 171.25 134.237 L 177.188 127.05 " id="path576" style="fill:none;fill-rule:evenodd;stroke:#000000;stroke-opacity:1;stroke-width:2;stroke-linejoin:miter;stroke-linecap:round;fill-opacity:1;stroke-dasharray:none;"/>
    <path d="M 174.375 126.424 L 174.219 130.955 " id="path577" style="fill:none;fill-rule:evenodd;stroke:#000000;stroke-opacity:1;stroke-width:2;stroke-linejoin:miter;stroke-linecap:round;fill-opacity:1;stroke-dasharray:none;"/>
  </g>
  <g id="g578" style="stroke:#000000;stroke-opacity:1;" transform="matrix(1.937716,0.000000,0.000000,1.937716,34.21280,-1.525879e-5)">
    <path d="M 171.25 126.893 L 176.719 134.237 " id="path579" style="fill:none;fill-rule:evenodd;stroke:#000000;stroke-opacity:1;stroke-width:2;stroke-linejoin:miter;stroke-linecap:round;fill-opacity:1;stroke-dasharray:none;"/>
    <path d="M 171.25 134.237 L 177.188 127.05 " id="path580" style="fill:none;fill-rule:evenodd;stroke:#000000;stroke-opacity:1;stroke-width:2;stroke-linejoin:miter;stroke-linecap:round;fill-opacity:1;stroke-dasharray:none;"/>
    <path d="M 174.375 126.424 L 174.219 130.955 " id="path581" style="fill:none;fill-rule:evenodd;stroke:#000000;stroke-opacity:1;stroke-width:2;stroke-linejoin:miter;stroke-linecap:round;fill-opacity:1;stroke-dasharray:none;"/>
  </g>
  <g id="g582" style="stroke:#000000;stroke-opacity:1;" transform="matrix(1.937716,0.000000,0.000000,1.937716,52.07613,-1.525879e-5)">
    <path d="M 171.25 126.893 L 176.719 134.237 " id="path583" style="fill:none;fill-rule:evenodd;stroke:#000000;stroke-opacity:1;stroke-width:2;stroke-linejoin:miter;stroke-linecap:round;fill-opacity:1;stroke-dasharray:none;"/>
    <path d="M 171.25 134.237 L 177.188 127.05 " id="path584" style="fill:none;fill-rule:evenodd;stroke:#000000;stroke-opacity:1;stroke-width:2;stroke-linejoin:miter;stroke-linecap:round;fill-opacity:1;stroke-dasharray:none;"/>
    <path d="M 174.375 126.424 L 174.219 130.955 " id="path585" style="fill:none;fill-rule:evenodd;stroke:#000000;stroke-opacity:1;stroke-width:2;stroke-linejoin:miter;stroke-linecap:round;fill-opacity:1;stroke-dasharray:none;"/>
  </g>
  <g id="g586" style="stroke:#000000;stroke-opacity:1;" transform="matrix(1.937716,0.000000,0.000000,1.937716,69.33392,-1.525879e-5)">
    <path d="M 171.25 126.893 L 176.719 134.237 " id="path587" style="fill:none;fill-rule:evenodd;stroke:#000000;stroke-opacity:1;stroke-width:2;stroke-linejoin:miter;stroke-linecap:round;fill-opacity:1;stroke-dasharray:none;"/>
    <path d="M 171.25 134.237 L 177.188 127.05 " id="path588" style="fill:none;fill-rule:evenodd;stroke:#000000;stroke-opacity:1;stroke-width:2;stroke-linejoin:miter;stroke-linecap:round;fill-opacity:1;stroke-dasharray:none;"/>
    <path d="M 174.375 126.424 L 174.219 130.955 " id="path589" style="fill:none;fill-rule:evenodd;stroke:#000000;stroke-opacity:1;stroke-width:2;stroke-linejoin:miter;stroke-linecap:round;fill-opacity:1;stroke-dasharray:none;"/>
  </g>
  <path d="M 267.345 268.288 L 305.493 268.591 L 305.493 244.672 L 261.894 242.554 L 267.345 268.288 z " id="path590" style="fill:#ef7d08;fill-rule:evenodd;stroke:none;stroke-opacity:1;stroke-width:1pt;stroke-linejoin:miter;stroke-linecap:butt;fill-opacity:1;"/>
  <path d="M 265.527 235.287 L 306.099 239.223 L 305.797 222.268 L 266.134 206.524 L 265.527 235.287 z " id="path591" style="fill:#ef7d08;fill-rule:evenodd;stroke:none;stroke-opacity:1;stroke-width:1pt;stroke-linejoin:miter;stroke-linecap:butt;fill-opacity:1;"/>
  <path d="M 273.702 201.377 L 304.888 216.515 L 309.341 211.866 C 309.341 211.866 306.473 209.89 306.615 208.072 C 306.669 206.233 309.5 205.954 309.554 203.958 C 309.606 202.119 306.347 201.898 306.312 200.058 C 306.099 198.064 308.824 195.926 308.824 195.926 L 280.667 171.402 L 273.702 201.377 z " id="path592" sodipodi:nodetypes="ccssssccc" style="fill:#ef7d08;fill-rule:evenodd;stroke:none;stroke-opacity:1;stroke-width:1pt;stroke-linejoin:miter;stroke-linecap:butt;fill-opacity:1;"/>
  <path d="M 478.374 268.591 L 438.106 268.591 L 437.804 245.278 L 482.007 241.947 L 478.374 268.591 z " id="path593" style="fill:#ef7d08;fill-rule:evenodd;stroke:none;stroke-opacity:1;stroke-width:1pt;stroke-linejoin:miter;stroke-linecap:butt;fill-opacity:1;"/>
  <path d="M 438.408 239.827 L 486.247 234.076 L 475.952 206.524 L 438.106 222.57 L 438.408 239.827 z " id="path594" style="fill:#ef7d08;fill-rule:evenodd;stroke:none;stroke-opacity:1;stroke-width:1pt;stroke-linejoin:miter;stroke-linecap:butt;fill-opacity:1;"/>
  <path d="M 473.227 198.955 L 438.711 217.121 C 438.207 215.152 437.779 213.259 435.382 211.67 C 435.382 211.67 437.5 210.459 437.5 208.339 C 437.5 206.221 434.775 205.917 434.775 204.706 C 434.775 203.495 437.273 202.437 437.424 199.711 C 437.122 197.819 434.775 195.171 435.229 194.64 L 462.025 174.127 L 473.227 198.955 z " id="path595" sodipodi:nodetypes="ccccccccc" style="fill:#ef7d08;fill-rule:evenodd;stroke:none;stroke-opacity:1;stroke-width:1pt;stroke-linejoin:miter;stroke-linecap:butt;fill-opacity:1;"/>
  <path d="M 398.445 239.374 L 415.702 238.618 L 416.004 231.652 L 398.445 239.374 z " id="path596" sodipodi:nodetypes="cccc" style="fill:#ef7d08;fill-rule:evenodd;stroke:none;stroke-opacity:1;stroke-width:1pt;stroke-linejoin:miter;stroke-linecap:butt;fill-opacity:1;"/>
  <path d="M 345.762 238.843 L 327.596 238.314 L 327.596 231.047 L 345.762 238.843 z " id="path597" sodipodi:nodetypes="cccc" style="fill:#ef7d08;fill-rule:evenodd;stroke:none;stroke-opacity:1;stroke-width:1pt;stroke-linejoin:miter;stroke-linecap:butt;fill-opacity:1;"/>
  <path d="M 345.687 236.725 L 327.596 227.414 C 327.596 223.378 327.596 219.34 327.596 215.304 C 327.596 215.304 325.476 215.606 325.779 213.184 C 325.879 208.138 339.075 222.394 345.838 227.036 L 345.687 236.725 z " id="path598" sodipodi:nodetypes="cccccc" style="fill:#ef7d08;fill-rule:evenodd;stroke:none;stroke-opacity:1;stroke-width:1pt;stroke-linejoin:miter;stroke-linecap:butt;fill-opacity:1;"/>
  <path d="M 398.443 235.589 L 398.369 227.718 C 398.369 227.718 414.716 212.959 418.198 210.233 C 418.198 213.261 416.307 215.606 416.307 215.606 L 416.307 227.112 L 398.443 235.589 z " id="path599" sodipodi:nodetypes="cccccc" style="fill:#ef7d08;fill-rule:evenodd;stroke:none;stroke-opacity:1;stroke-width:1pt;stroke-linejoin:miter;stroke-linecap:butt;fill-opacity:1;"/>
  <path d="M 292.475 169.283 C 292.777 169.586 310.819 189.638 310.819 189.638 C 311.325 187.738 315.485 187.449 319.723 187.752 C 323.963 188.054 327.342 187.468 327.342 190.496 C 327.342 193.523 325.191 193.093 325.191 195.213 C 325.191 197.333 328.414 197.155 328.414 199.877 C 328.414 202.602 326.077 202.046 326.065 204.156 C 326.058 205.9 328.503 205.993 328.503 205.993 L 345.685 222.646 L 345.76 204.857 L 310.337 149.3 L 292.475 169.283 z " id="path600" sodipodi:nodetypes="ccccsssscccc" style="fill:#ef7d08;fill-rule:evenodd;stroke:none;stroke-opacity:1;stroke-width:1pt;stroke-linejoin:miter;stroke-linecap:butt;fill-opacity:1;"/>
  <path d="M 320.818 148.246 C 321.087 149.054 344.811 197.312 344.811 197.312 C 344.811 197.312 345.08 152.02 349.124 149.594 L 342.385 137.192 L 320.818 148.246 z " id="path601" sodipodi:nodetypes="ccccc" style="fill:#ef7d08;fill-rule:evenodd;stroke:none;stroke-opacity:1;stroke-width:1pt;stroke-linejoin:miter;stroke-linecap:butt;fill-opacity:1;"/>
  <path d="M 425.15 150.133 L 398.36 197.926 L 398.395 177.783 C 398.395 177.783 400.617 174.396 397.112 174.666 C 393.608 174.935 389.295 174.396 389.295 174.396 L 400.078 136.653 L 425.15 150.133 z " id="path602" sodipodi:nodetypes="ccccccc" style="fill:#ef7d08;fill-rule:evenodd;stroke:none;stroke-opacity:1;stroke-width:1pt;stroke-linejoin:miter;stroke-linecap:butt;fill-opacity:1;"/>
  <path d="M 452.649 170.622 C 452.379 171.161 434.576 189.266 434.576 189.266 C 433.768 187.11 428.385 188.145 423.263 188.145 C 418.14 188.145 417.427 189.787 417.698 191.135 C 418.237 194.64 419.967 192.057 419.967 195.293 C 419.967 198.527 417.475 197.347 417.252 199.715 C 417.5 202.435 421.165 201.763 419.018 203.824 L 398.402 223.614 L 398.46 204.861 L 436.742 145.28 L 452.649 170.622 z " id="path603" sodipodi:nodetypes="ccccssscccc" style="fill:#ef7d08;fill-rule:evenodd;stroke:none;stroke-opacity:1;stroke-width:1pt;stroke-linejoin:miter;stroke-linecap:butt;fill-opacity:1;"/>
  <path d="M 361.526 277.382 C 352.899 291.671 329.836 287.433 324.443 277.458 C 322.827 277 323.783 215.914 323.783 215.914 C 323.783 215.914 321.206 214.74 321.087 212.862 C 320.969 210.965 324.591 210.793 324.591 208.365 C 324.591 205.939 320.892 206.89 320.818 204.448 C 320.834 202.113 324.767 202.435 324.591 200.277 C 324.383 197.845 320.186 198.205 320.008 195.963 C 319.872 194.182 323.01 192.629 323.882 191.828 C 323.318 191.856 320.967 191.793 320.952 191.785 C 318.75 191.83 316.547 191.875 314.346 191.92 C 309.653 191.925 314.427 192.943 314.358 195.651 C 314.315 197.42 311.978 198.597 311.769 200.135 C 311.695 201.714 315.113 202.823 315.156 204.718 C 315.195 206.409 311.798 206.524 311.92 208.095 C 312.131 210.754 314.929 211.339 314.887 212.949 C 314.844 214.557 311.122 215.17 311.112 216.453 C 311.242 218.935 311.651 279.268 311.651 279.268 C 317.582 310.002 351.82 317.82 361.526 277.382 z " id="path604" sodipodi:nodetypes="ccsssssscccsssssscc" style="font-size:12;fill:#ff0000;fill-rule:evenodd;stroke:#000000;stroke-width:2.42215;stroke-linejoin:round;"/>
  <path d="M 384.102 277.382 C 392.729 291.671 415.791 287.433 421.184 277.458 C 422.8 277 421.845 215.914 421.845 215.914 C 421.845 215.914 424.422 214.74 424.54 212.862 C 424.658 210.965 421.263 210.793 421.263 208.365 C 421.263 205.939 424.736 206.89 424.809 204.448 C 424.794 202.113 421.163 202.284 421.339 200.125 C 421.546 197.694 424.397 197.978 424.559 195.736 C 424.695 193.805 422.769 192.629 421.897 191.828 C 422.461 191.856 424.66 191.793 424.676 191.785 C 426.877 191.83 429.08 191.875 431.281 191.92 C 435.975 191.925 431.2 192.943 431.27 195.651 C 431.312 197.42 433.649 198.597 433.859 200.135 C 433.932 201.714 430.514 202.823 430.471 204.718 C 430.433 206.409 433.83 206.524 433.707 208.095 C 433.496 210.754 430.698 211.339 430.741 212.949 C 430.783 214.557 434.506 215.17 434.515 216.453 C 434.386 218.935 433.977 279.268 433.977 279.268 C 428.045 310.002 393.808 317.82 384.102 277.382 z " id="path606" sodipodi:nodetypes="ccsssssscccsssssscc" style="font-size:12;fill:#ff0000;fill-rule:evenodd;stroke:#000000;stroke-width:2.42215;stroke-linejoin:round;"/>
  <path d="M 353.149 305.481 L 391.673 305.458 C 391.973 305.155 383.048 292.153 372.417 293.07 C 360.574 293.38 352.529 305.481 353.149 305.481 z " id="path610" sodipodi:nodetypes="cccc" style="font-size:12;fill:#083d9c;fill-rule:evenodd;stroke:#083d9c;stroke-width:1.93772pt;"/>
  <path d="M 475.986 304.543 L 423.271 304.543 C 423.271 304.543 430.094 300.511 431.954 296.79 C 435.364 298.651 434.434 300.511 441.257 300.821 C 448.078 301.131 454.59 293.07 461.103 293.38 C 467.614 293.69 475.986 304.853 475.986 304.543 z " id="path611" sodipodi:nodetypes="cccccc" style="font-size:12;fill:#083d9c;fill-rule:evenodd;stroke:#083d9c;stroke-width:1.93772pt;"/>
  <path d="M 268.254 304.543 L 320.969 304.543 C 320.969 304.543 314.146 300.511 312.286 296.79 C 308.876 298.651 309.806 300.511 302.983 300.821 C 296.163 301.131 289.65 293.07 283.137 293.38 C 276.626 293.69 268.254 304.853 268.254 304.543 z " id="path612" sodipodi:nodetypes="cccccc" style="font-size:12;fill:#083d9c;fill-rule:evenodd;stroke:#083d9c;stroke-width:1.93772pt;"/>
  <path d="M 272.189 287.968 L 309.732 288.27 C 309.732 288.27 307.31 283.124 307.008 276.766 C 297.317 273.437 289.446 284.032 282.482 284.335 C 275.52 284.637 268.254 276.766 268.254 276.766 L 272.189 287.968 z " id="path613" sodipodi:nodetypes="cccccc" style="font-size:12;fill:#083d9c;fill-rule:evenodd;stroke:#083d9c;stroke-width:1.93772pt;"/>
  <path d="M 472.623 287.968 L 435.079 288.27 C 435.079 288.27 437.502 283.124 437.804 276.766 C 447.494 273.437 455.365 284.032 462.329 284.335 C 469.292 284.637 476.558 276.766 476.558 276.766 L 472.623 287.968 z " id="path614" sodipodi:nodetypes="cccccc" style="font-size:12;fill:#083d9c;fill-rule:evenodd;stroke:#083d9c;stroke-width:1.93772pt;"/>
  <path d="M 362.717 288.27 L 381.79 287.666 C 381.79 287.666 382.094 281.913 372.102 281.913 C 362.111 281.913 363.02 288.574 362.717 288.27 z " id="path615" style="font-size:12;fill:#083d9c;fill-rule:evenodd;stroke:#083d9c;stroke-width:1.93772pt;"/>
  <path d="M 351.211 280.097 C 354.542 278.279 357.569 276.464 359.689 272.224 L 346.669 272.526 C 346.669 272.526 340.616 276.161 337.587 280.097 L 351.211 280.097 z " id="path616" sodipodi:nodetypes="ccccc" style="font-size:12;fill:#083d9c;fill-rule:evenodd;stroke:#083d9c;stroke-width:1.93772pt;"/>
  <path d="M 393.296 280.097 C 389.965 278.279 386.939 276.464 384.819 272.224 L 397.838 272.526 C 397.838 272.526 403.892 276.161 406.92 280.097 L 393.296 280.097 z " id="path617" sodipodi:nodetypes="ccccc" style="font-size:12;fill:#083d9c;fill-rule:evenodd;stroke:#083d9c;stroke-width:1.93772pt;"/>
  <path d="M -6.073e-08 124.016 C -6.073e-08 124.016 -6.073e-08 372.047 -6.073e-08 372.047 C -6.073e-08 372.047 744.083 372.047 744.083 372.047 C 744.083 372.047 744.083 124.016 744.083 124.016 C 744.083 124.016 -6.073e-08 124.016 -6.073e-08 124.016 z M 360.415 139.64 C 375.917 139.64 389.481 139.64 404.983 145.499 C 492.18 172.841 503.806 295.88 426.298 342.753 C 412.734 352.517 399.17 356.424 383.668 358.376 C 372.042 358.376 360.415 358.376 348.789 356.424 C 263.53 338.846 236.401 225.572 300.346 166.982 C 317.786 151.358 337.163 143.545 360.415 139.64 z " fill="none" id="selection_to_path" stroke="black" stroke-width="1" style="font-size:12;fill:#ffffff;stroke:none;stroke-width:1.94535;fill-opacity:1;"/>
  <rect height="124.015739" id="rect618" style="font-size:12;fill:#de2010;fill-rule:evenodd;stroke-width:1pt;fill-opacity:1;" width="744.094482" x="0.000000" y="372.046921"/>
  <rect height="124.015739" id="rect619" style="font-size:12;fill:#de2010;fill-rule:evenodd;stroke-width:1pt;fill-opacity:1;" width="744.094482" x="0.000000" y="0.000016"/>
</svg>
