<?xml version="1.0" encoding="UTF-8" standalone="no"?>
<!-- Created with Inkscape (http://www.inkscape.org/) --><svg height="496.06299" id="svg548" version="1.0" width="992.12598" x="0.00000000" xmlns="http://www.w3.org/2000/svg" xmlns:svg="http://www.w3.org/2000/svg" y="0.00000000">
  <metadata>
    <rdf:RDF xmlns:cc="http://web.resource.org/cc/" xmlns:dc="http://purl.org/dc/elements/1.1/" xmlns:rdf="http://www.w3.org/1999/02/22-rdf-syntax-ns#">
      <cc:Work rdf:about="">
        <dc:title>Pitcairn Islands</dc:title>
        <dc:description></dc:description>
        <dc:subject>
          <rdf:Bag>
            <rdf:li></rdf:li>
            <rdf:li>flags</rdf:li>
            <rdf:li>polynesia</rdf:li>
            <rdf:li>oceania</rdf:li>
            <rdf:li>signs_and_symbols</rdf:li>
            <rdf:li>sign</rdf:li>
          </rdf:Bag>
        </dc:subject>
        <dc:publisher>
          <cc:Agent rdf:about="http://www.openclipart.org">
            <dc:title>Tobias Jakobs</dc:title>
          </cc:Agent>
        </dc:publisher>
        <dc:creator>
          <cc:Agent>
            <dc:title>Tobias Jakobs</dc:title>
          </cc:Agent>
        </dc:creator>
        <dc:rights>
          <cc:Agent>
            <dc:title>Tobias Jakobs</dc:title>
          </cc:Agent>
        </dc:rights>
        <dc:date></dc:date>
        <dc:format>image/svg+xml</dc:format>
        <dc:type rdf:resource="http://purl.org/dc/dcmitype/StillImage"/>
        <cc:license rdf:resource="http://web.resource.org/cc/PublicDomain"/>
        <dc:language>en</dc:language>
      </cc:Work>
      <cc:License rdf:about="http://web.resource.org/cc/PublicDomain">
        <cc:permits rdf:resource="http://web.resource.org/cc/Reproduction"/>
        <cc:permits rdf:resource="http://web.resource.org/cc/Distribution"/>
        <cc:permits rdf:resource="http://web.resource.org/cc/DerivativeWorks"/>
      </cc:License>
    </rdf:RDF>
  </metadata>
  <rect height="496.06299" id="rect877" style="font-size:12.000000px;fill:#000066;stroke-width:1.0000000pt" width="992.12598" x="0.00000000" y="-2.1934509e-005"/>
  <g id="g878" style="font-size:12.000000px" transform="matrix(8.267717,0.000000,0.000000,8.267722,0.000000,2.288818e-5)">
    <path d="M 0.00000000,0.00000000 L 0.00000000,3.3541000 L 53.291800,30.000000 L 60.000000,30.000000 L 60.000000,26.645900 L 6.7082000,0.00000000 L 0.00000000,0.00000000 z M 60.000000,0.00000000 L 60.000000,3.3540500 L 6.7082000,30.000000 L 0.00000000,30.000000 L 0.00000000,26.645800 L 53.291800,0.00000000 L 60.000000,0.00000000 z " id="path879" style="font-size:12.000000px;fill:#ffffff;stroke-width:1.0000000pt"/>
    <path d="M 25.000000,0.00000000 L 25.000000,30.000000 L 35.000000,30.000000 L 35.000000,0.00000000 L 25.000000,0.00000000 z M 0.00000000,10.000000 L 0.00000000,20.000000 L 60.000000,20.000000 L 60.000000,10.000000 L 0.00000000,10.000000 z " id="path880" style="font-size:12.000000px;fill:#ffffff;stroke-width:1.0000000pt"/>
    <path d="M 0.00000000,12.000000 L 0.00000000,18.000000 L 60.000000,18.000000 L 60.000000,12.000000 L 0.00000000,12.000000 z M 27.000000,0.00000000 L 27.000000,30.000000 L 33.000000,30.000000 L 33.000000,0.00000000 L 27.000000,0.00000000 z " id="path881" style="font-size:12.000000px;fill:#cc0000;stroke-width:1.0000000pt"/>
    <path d="M 0.00000000,30.000000 L 20.000000,20.000000 L 24.472100,20.000000 L 4.4721400,30.000000 L 0.00000000,30.000000 z M 0.00000000,0.00000000 L 20.000000,10.000000 L 15.527900,10.000000 L 0.00000000,2.2360700 L 0.00000000,0.00000000 z M 35.527900,10.000000 L 55.527900,0.00000000 L 60.000000,0.00000000 L 40.000000,10.000000 L 35.527900,10.000000 z M 60.000000,30.000000 L 40.000000,20.000000 L 44.472100,20.000000 L 60.000000,27.763900 L 60.000000,30.000000 z " id="path882" style="font-size:12.000000px;fill:#cc0000;stroke-width:1.0000000pt"/>
  </g>
  <g id="g635" transform="matrix(1.620386,0.000000,0.000000,1.620386,-506.0128,-166.3934)">
    <rect height="21.302704" id="rect634" style="font-size:12.000000px;fill:#5a5152;fill-opacity:1.0000000;fill-rule:evenodd;stroke:none;stroke-width:1.0000000;stroke-opacity:1.0000000" width="28.787476" x="766.89709" y="223.73390"/>
    <path d="M 790.48090,145.99310 C 790.48090,145.99310 776.51680,162.72370 776.64850,165.88530 C 776.78030,169.04690 771.24730,170.75960 771.24730,170.75960 C 771.24730,170.75960 752.14550,175.63380 748.19340,167.99310 C 744.24130,160.35230 744.50480,154.29250 750.56470,152.84340 C 756.62460,151.39430 758.20540,155.34640 758.20540,155.34640 C 758.20540,155.34640 760.97190,156.53200 765.18750,156.13680 C 769.40300,155.74160 772.69640,154.95120 779.67850,149.81350 C 786.66050,144.67570 791.27130,140.46020 793.64250,140.72360 C 796.01380,140.98710 797.19940,142.17280 797.06770,144.14880 C 796.93600,146.12480 790.48090,146.12480 790.48090,145.99310 z " id="path598" style="fill:#5a5152;fill-opacity:1.0000000;fill-rule:evenodd;stroke:#000000;stroke-width:1.0000000pt;stroke-linecap:butt;stroke-linejoin:miter;stroke-opacity:1.0000000"/>
    <path d="M 439.86824 66.577728 A 6.1916351 6.1916351 0 1 1  427.48497,66.577728 A 6.1916351 6.1916351 0 1 1  439.86824 66.577728 z" id="path604" style="fill:#5a5152;fill-opacity:1.0000000;fill-rule:evenodd;stroke:#000000;stroke-width:1.0000000pt;stroke-linecap:butt;stroke-linejoin:miter;stroke-opacity:1.0000000" transform="matrix(1.553188,0.000000,0.000000,1.553188,76.98320,66.82486)"/>
    <path d="M 439.86824 66.577728 A 6.1916351 6.1916351 0 1 1  427.48497,66.577728 A 6.1916351 6.1916351 0 1 1  439.86824 66.577728 z" id="path603" style="fill:#000063;fill-opacity:1.0000000;fill-rule:evenodd;stroke:#000000;stroke-width:1.0000000pt;stroke-linecap:butt;stroke-linejoin:miter;stroke-opacity:1.0000000" transform="translate(316.8880,103.6549)"/>
    <path d="M 756.25040,172.20760 C 753.61140,171.89570 750.74490,171.48460 748.19340,167.99310 C 747.37980,166.38130 747.29950,167.00130 746.97130,165.25430 C 752.39300,161.77890 757.45150,166.24800 756.25040,172.20760 z " id="path633" style="fill:#5a5152;fill-opacity:1.0000000;fill-rule:evenodd;stroke:#000000;stroke-width:1.0000000pt;stroke-linecap:butt;stroke-linejoin:miter;stroke-opacity:1.0000000"/>
    <path d="M 788.44280,192.58400 C 788.44280,192.58400 793.45940,192.19810 794.74570,193.74170 C 796.03200,195.28530 806.83680,227.44250 826.38850,227.05660 C 833.20580,226.79940 835.26390,222.68320 835.26390,222.68320 C 835.26390,222.68320 837.06470,231.43000 816.99850,235.41750 C 814.04010,235.16030 808.25180,231.94450 808.25180,231.94450 C 808.25180,231.94450 812.62520,237.86140 819.18520,238.89050 C 825.74530,239.91950 844.13930,243.77850 847.35500,246.60830 C 850.57080,249.43810 855.71590,254.19740 855.71590,254.19740 C 855.71590,254.19740 857.38810,265.90260 850.44220,268.21790 C 844.52530,259.85710 814.94050,250.08130 814.94050,250.08130 L 796.67510,238.11880 L 784.32670,217.79530 L 788.44280,192.58400 z " id="path624" style="fill:#316d3a;fill-opacity:1.0000000;fill-rule:evenodd;stroke:#000000;stroke-width:1.0000000pt;stroke-linecap:butt;stroke-linejoin:miter;stroke-opacity:1.0000000"/>
    <path d="M 768.70220,161.00020 C 768.70220,161.00020 781.80650,150.63080 783.62980,150.51680 C 785.45300,150.40280 795.13880,153.13760 795.13880,153.13760 L 786.13670,169.20470 L 765.73950,167.26750 L 768.70220,161.00020 z " id="path620" style="fill:#5a5152;fill-opacity:1.0000000;fill-rule:evenodd;stroke:#000000;stroke-width:1.0000000pt;stroke-linecap:butt;stroke-linejoin:miter;stroke-opacity:1.0000000"/>
    <path d="M 802.20540,152.31650 C 802.20540,152.31650 788.24130,169.04710 788.37300,172.20870 C 788.50480,175.37040 782.97180,177.08300 782.97180,177.08300 C 782.97180,177.08300 763.87000,181.95730 759.91790,174.31650 C 755.96580,166.67580 756.22930,160.61600 762.28920,159.16680 C 768.34910,157.71770 769.92990,161.66980 769.92990,161.66980 C 769.92990,161.66980 772.69640,162.85540 776.91200,162.46020 C 781.12750,162.06500 784.42090,161.27460 791.40300,156.13690 C 798.38500,150.99920 802.99580,146.78360 805.36700,147.04710 C 807.73830,147.31050 808.92390,148.49620 808.79220,150.47220 C 808.66050,152.44820 802.20540,152.44820 802.20540,152.31650 z " id="path597" style="fill:#5a5152;fill-opacity:1.0000000;fill-rule:evenodd;stroke:#000000;stroke-width:1.0000000pt;stroke-linecap:butt;stroke-linejoin:miter;stroke-opacity:1.0000000"/>
    <path d="M 750.69640,164.25030 L 750.56460,176.42430" id="path599" style="fill:none;fill-opacity:1.0000000;fill-rule:evenodd;stroke:#000000;stroke-width:1.0000000pt;stroke-linecap:butt;stroke-linejoin:miter;stroke-opacity:1.0000000"/>
    <path d="M 746.08560,173.65780 L 755.17540,166.54410" id="path600" style="fill:none;fill-opacity:1.0000000;fill-rule:evenodd;stroke:#000000;stroke-width:1.0000000pt;stroke-linecap:butt;stroke-linejoin:miter;stroke-opacity:1.0000000"/>
    <path d="M 754.78020,174.58000 L 746.34910,165.88530" id="path601" style="fill:none;fill-opacity:1.0000000;fill-rule:evenodd;stroke:#000000;stroke-width:1.0000000pt;stroke-linecap:butt;stroke-linejoin:miter;stroke-opacity:1.0000000"/>
    <path d="M 744.50480,170.23270 L 756.49280,170.62790" id="path602" style="fill:none;fill-opacity:1.0000000;fill-rule:evenodd;stroke:#000000;stroke-width:1.0000000pt;stroke-linecap:butt;stroke-linejoin:miter;stroke-opacity:1.0000000"/>
    <path d="M 774.40890,133.08300 L 777.57060,137.95730 C 777.57060,137.95730 783.36700,139.93330 784.94790,139.53810 C 786.52870,139.14290 790.48080,137.43020 792.98380,139.80150 C 795.48680,142.17280 793.37900,137.03510 793.37900,137.03510 L 796.54070,134.00520 C 796.54070,134.00520 791.79820,134.00520 790.34910,133.08300 C 788.90000,132.16080 785.47480,130.18470 784.02570,129.92130 C 782.57660,129.65790 777.70240,130.05310 777.70240,130.05310 L 774.40890,133.08300 z " id="path605" style="fill:#bd1429;fill-opacity:1.0000000;fill-rule:evenodd;stroke:#000000;stroke-width:1.0000000pt;stroke-linecap:butt;stroke-linejoin:miter;stroke-opacity:1.0000000"/>
    <path d="M 472.67068 31.272400 A 5.2694702 1.8442540 0 1 1  462.13174,31.272400 A 5.2694702 1.8442540 0 1 1  472.67068 31.272400 z" id="path606" style="fill:#efe763;fill-opacity:1.0000000;fill-rule:evenodd;stroke:#000000;stroke-width:1.0000000pt;stroke-linecap:butt;stroke-linejoin:miter;stroke-opacity:1.0000000" transform="matrix(0.994545,0.104313,-0.104313,0.994545,322.7000,55.06941)"/>
    <path d="M 771.64250,154.55600 C 771.64250,154.55600 764.26520,146.52010 765.97780,139.40630 C 767.69040,132.29260 770.06160,133.21470 770.06160,133.21470 C 770.06160,133.21470 773.48680,132.42420 771.90600,137.56200 C 774.27720,137.29860 776.78020,137.69380 776.78020,137.69380 C 776.78020,137.69380 779.67840,136.77170 775.06760,133.08300 C 777.57070,132.81950 778.49280,129.92130 778.49280,129.92130 C 778.49280,129.92130 774.93590,128.73560 774.54070,128.99920 C 774.14550,129.26270 772.30120,126.23270 771.24730,126.89140 C 770.19340,127.55000 771.24730,131.37050 771.24730,131.37050 C 771.24730,131.37050 766.50470,130.44820 765.97780,132.42430 C 765.45090,134.40040 765.84610,128.73570 765.84610,128.73570 C 765.84610,128.73570 767.42690,128.07710 767.16350,126.23270 C 766.90000,124.38840 761.36710,120.43630 756.62450,121.22670 C 752.67240,121.62190 743.31910,126.49620 742.92390,140.72370 C 748.06170,123.99310 764.26520,126.49620 764.26520,126.49620 C 764.26520,126.49620 761.63050,137.29850 762.02570,140.59200 C 762.42100,143.88540 768.21730,156.13690 768.21730,156.13690 L 771.64250,154.55600 z " id="path608" style="fill:#316d3a;fill-opacity:1.0000000;fill-rule:evenodd;stroke:#000000;stroke-width:1.2500000;stroke-linecap:butt;stroke-linejoin:round;stroke-dasharray:none;stroke-opacity:1.0000000"/>
    <path d="M 401.92970,135.64000 L 497.90150,135.44220 L 497.90150,196.67810 C 495.47020,224.82970 473.07680,254.90090 450.29950,267.31330 C 418.41610,246.95350 411.33380,230.07840 401.92970,200.69630 L 401.92970,135.64000 z " id="path571" style="font-size:12.000000px;fill:#42a6e6;fill-opacity:1.0000000;fill-rule:evenodd;stroke:#000000;stroke-width:1.2500000;stroke-linejoin:round" transform="translate(316.8880,103.6549)"/>
    <path d="M 449.91560,136.31350 L 492.88110,216.67220 C 487.16720,232.75720 472.49760,254.01380 450.29950,267.31330 C 431.93260,256.67090 414.80940,237.78320 409.26720,221.43470 L 449.91560,136.31350 z " id="path563" style="font-size:12.000000px;fill:#316d3a;fill-opacity:1.0000000;fill-rule:evenodd;stroke:#000000;stroke-width:1.2463310;stroke-linejoin:round" transform="translate(316.8880,103.6549)"/>
    <rect height="17.619780" id="rect565" style="font-size:12.000000px;fill:#7f7f7f;fill-rule:evenodd;stroke:#7f7f7f" transform="translate(316.8880,103.6549)" width="13.757870" x="443.72760" y="170.50670"/>
    <rect height="17.619781" id="rect564" style="font-size:12.000000px;fill:#ffffff;fill-rule:evenodd;stroke:#000000" transform="translate(316.8880,103.6549)" width="13.757874" x="442.52075" y="171.71353"/>
    <path d="M 451.74140,191.07050 L 451.64480,202.65600 L 467.86460,203.52490 C 467.86460,203.52490 468.05770,208.83490 467.86460,208.73840 C 467.67150,208.64190 453.86540,210.37970 453.67230,210.57280 C 453.47920,210.76590 453.57570,249.09490 453.57570,249.09490 C 453.57570,249.09490 467.76810,240.50230 467.67150,240.40570 C 467.57500,240.30910 462.36150,239.24710 462.36150,239.24710 C 462.36150,239.24710 470.37480,229.49600 474.14010,228.33740 C 475.10560,233.64740 474.81590,243.20550 474.71940,243.20550 C 474.62280,243.20550 471.05060,240.98500 469.69900,242.14350 C 468.34730,243.30200 450.87240,258.74950 450.87240,258.74950 C 450.87240,258.74950 433.39750,240.88840 430.98380,241.75730 C 428.57010,242.62620 426.34960,243.01240 426.34960,243.01240 L 426.54270,228.24080 C 426.54270,228.24080 437.83860,233.45430 438.61100,238.76440 C 435.81120,238.57120 434.45950,240.69530 434.45950,240.69530 L 447.49330,249.28800 L 447.39670,210.37970 L 433.39750,208.73840 L 433.10780,203.42830 L 446.43130,202.75250 C 446.43130,202.75250 440.25230,202.26980 440.25230,197.34590 C 440.25230,192.42210 444.98310,192.32550 444.98310,192.32550 L 449.52080,192.32550 L 449.52070,191.07040 L 451.74140,191.07050 z " id="path566" style="font-size:12.000000px;fill:#efe763;fill-opacity:1.0000000;fill-rule:evenodd;stroke:#000000;stroke-width:1.0000000;stroke-linejoin:round" transform="translate(316.8880,103.6549)"/>
    <path d="M 446.14169 197.53900 A 0.048278809 0.096549988 0 1 1  446.04514,197.53900 A 0.048278809 0.096549988 0 1 1  446.14169 197.53900 z" id="path567" style="font-size:12.000000px;fill:#808080;fill-rule:evenodd;stroke-width:1.0000000" transform="translate(316.8880,103.6549)"/>
    <path d="M 449.61734 197.53900 A 3.1860349 3.1860349 0 1 1  443.24527,197.53900 A 3.1860349 3.1860349 0 1 1  449.61734 197.53900 z" id="path568" style="font-size:12.000000px;fill:#296d3a;fill-opacity:1.0000000;fill-rule:evenodd;stroke:#000000;stroke-width:1.0000000" transform="matrix(0.909076,0.000000,0.000000,0.909076,357.4795,121.6160)"/>
    <path d="M 723.73520,318.57220 L 766.98810,239.59720 L 810.43400,318.95840 C 810.43400,318.95840 808.31000,325.13740 808.11690,325.13740 C 807.92380,325.13740 766.21570,254.46530 766.21570,254.46530 L 727.01780,326.29590 L 723.73520,318.57220 z " id="path569" style="font-size:12.000000px;fill:#efeb19;fill-opacity:1.0000000;fill-rule:evenodd;stroke:#000000;stroke-width:1.2500000;stroke-linejoin:round"/>
    <path d="M 823.67840,335.95720 C 822.22930,335.43030 817.48680,336.22060 814.58860,345.83740 C 809.05570,353.08290 799.04370,355.32250 799.04370,355.32250 L 805.23530,356.24460 L 805.10360,359.53800 L 807.60660,359.01110 L 806.68440,362.04100 L 809.97780,360.98720 L 810.10950,363.49020 L 811.03170,362.83140 L 810.90000,364.67580 L 814.72030,364.01710 C 814.72030,364.01710 814.72030,365.99310 814.85210,365.86140 C 814.98380,365.72970 816.82810,365.20270 816.82810,365.20270 L 818.54070,366.78350 L 819.72630,364.80750 L 824.20540,364.54400 C 824.20540,364.54400 820.78020,365.33450 821.57060,347.81350 C 828.68440,341.88530 825.12750,336.08900 823.67840,335.95720 z " id="path581" style="fill:#efe763;fill-opacity:1.0000000;fill-rule:evenodd;stroke:#000000;stroke-width:1.0000000pt;stroke-linecap:butt;stroke-linejoin:miter;stroke-opacity:1.0000000"/>
    <path d="M 809.71430,353.34640 L 805.36700,356.24460" id="path582" style="fill:none;fill-opacity:1.0000000;fill-rule:evenodd;stroke:#000000;stroke-width:1.0000000pt;stroke-linecap:butt;stroke-linejoin:miter;stroke-opacity:1.0000000"/>
    <path d="M 816.30120,348.20870 C 816.30120,348.20870 814.72030,353.74160 807.87000,359.01110" id="path583" style="fill:none;fill-opacity:1.0000000;fill-rule:evenodd;stroke:#000000;stroke-width:1.0000000pt;stroke-linecap:butt;stroke-linejoin:miter;stroke-opacity:1.0000000"/>
    <path d="M 816.56460,352.42420 C 816.56460,352.42420 811.82220,362.56800 811.29520,363.35840" id="path584" style="fill:none;fill-opacity:1.0000000;fill-rule:evenodd;stroke:#000000;stroke-width:1.0000000pt;stroke-linecap:butt;stroke-linejoin:miter;stroke-opacity:1.0000000"/>
    <path d="M 818.01380,352.29260 L 818.67240,366.65180" id="path585" style="fill:none;fill-opacity:1.0000000;fill-rule:evenodd;stroke:#000000;stroke-width:1.0000000pt;stroke-linecap:butt;stroke-linejoin:miter;stroke-opacity:1.0000000"/>
    <path d="M 814.85210,253.88540 C 814.85210,253.88540 837.11560,270.87950 827.23530,300.38840 C 822.36110,278.78350 814.85210,273.90930 814.85210,273.90930 L 814.85210,253.88540 z " id="path586" style="fill:#efe763;fill-opacity:1.0000000;fill-rule:evenodd;stroke:#000000;stroke-width:1.0000000pt;stroke-linecap:butt;stroke-linejoin:round;stroke-opacity:1.0000000"/>
    <path d="M 820.25320,259.41830 C 825.39100,264.81950 837.11550,275.75370 837.77420,293.93330 C 837.51070,298.14880 847.52270,307.50200 854.10960,299.99310 C 854.10960,302.49610 851.73830,317.64590 838.95980,308.68780 C 839.48680,326.86730 825.25920,336.74760 825.25920,336.74760 C 825.25920,336.74760 822.36100,335.56200 822.22930,335.43030 C 822.09760,335.29850 822.22930,317.77760 827.63050,311.19070 C 814.19340,313.82540 811.95390,302.49610 811.95390,302.49610 C 817.02580,303.35230 822.55870,303.35230 826.51080,301.11280 C 835.13230,282.86750 824.79820,265.01710 820.25320,259.41830 z " id="path588" style="fill:#316d3a;fill-opacity:1.0000000;fill-rule:evenodd;stroke:#000000;stroke-width:1.0000000pt;stroke-linecap:butt;stroke-linejoin:round;stroke-opacity:1.0000000"/>
    <path d="M 827.36700,161.93330 C 827.36700,161.93330 838.95990,155.21480 843.70240,164.30460 C 845.41490,167.99320 840.67240,173.39440 840.67240,173.39440 C 840.67240,173.39440 844.75620,175.63400 849.89400,172.73570 C 849.89400,183.01120 862.80420,181.95730 862.40900,181.43030 C 862.01370,180.90340 857.66650,175.50220 859.77420,170.89140 C 864.38490,169.31050 865.70240,165.35850 865.70240,165.35850 C 865.70240,165.35850 859.77420,165.75370 857.40300,162.19680 C 855.03170,158.63990 843.57060,153.50210 838.16940,153.23870 C 832.76820,152.97520 827.63050,160.48420 827.36700,161.93330 z " id="path589" style="fill:#316d3a;fill-opacity:1.0000000;fill-rule:evenodd;stroke:#000000;stroke-width:1.0000000pt;stroke-linecap:butt;stroke-linejoin:miter;stroke-opacity:1.0000000"/>
    <path d="M 841.72630,161.80160 C 841.59460,161.80160 838.30120,181.69380 847.91790,202.50820 C 849.10360,194.20870 855.29520,190.25660 855.29520,190.25660 C 855.29520,190.25660 858.32510,189.86140 857.40300,197.63390 C 860.82810,199.08300 868.33710,192.62790 869.52270,194.07700 C 870.70830,195.52610 872.42100,198.81950 863.46290,209.35840 C 866.88800,210.01710 867.94190,211.59790 867.94190,211.59790 C 867.94190,211.59790 865.30720,215.41830 858.98380,217.39430 C 852.66040,219.37040 855.55870,216.20870 851.47480,218.97520 C 847.39100,221.74160 841.46280,238.86730 817.48680,235.57400 C 838.30120,231.09500 835.40300,220.42430 835.40300,220.42430 C 835.40300,220.42430 835.13950,201.98120 816.82810,202.37640 C 813.66650,202.37640 814.58860,209.49010 814.58860,209.49010 C 814.58860,209.49010 805.36700,205.14280 809.97780,197.76560 C 803.52270,194.99910 794.69640,192.62790 793.77420,185.25070 C 799.30720,183.93320 808.66050,184.72370 808.66050,184.72370 C 808.66050,184.72370 805.36700,183.01120 807.47480,176.55610 C 809.58260,179.05910 815.90590,182.22080 818.54070,183.40640 C 821.17540,184.59200 833.16340,193.55000 834.48080,197.63390 C 835.79820,201.71770 827.10360,162.72380 827.10360,162.72380 C 827.10360,162.72380 835.79820,156.92720 841.72630,161.80160 z " id="path590" style="fill:#efe763;fill-opacity:1.0000000;fill-rule:evenodd;stroke:#000000;stroke-width:1.0000000pt;stroke-linecap:butt;stroke-linejoin:miter;stroke-opacity:1.0000000"/>
    <path d="M 709.33110,263.63380 C 709.33110,263.63380 701.95380,292.48410 706.56460,299.59790 C 712.09750,304.34050 722.24130,302.49610 722.24130,302.49610 C 722.24130,302.49610 720.92390,311.84940 708.27720,310.79550 C 713.94190,322.52010 712.62450,335.16680 712.62450,335.16680 C 712.62450,335.16680 720.66050,340.43630 720.39700,346.23270 C 720.13350,352.02900 733.70240,354.13680 733.70240,354.13680 L 731.59460,354.53200 L 731.85810,355.58590 L 729.61850,355.32250 L 729.48680,357.16680 L 728.03770,356.90330 L 728.56460,359.53800 L 726.45690,359.93330 L 725.79820,361.51410 L 723.69040,360.98720 L 723.95380,362.96320 L 718.94790,363.09490 L 719.21130,364.28060 L 714.73230,363.49020 L 713.41490,362.43620 L 711.17540,363.75360 C 711.17540,363.75360 714.73230,360.06500 713.41490,347.02310 C 708.93590,346.49620 709.19940,335.16670 709.19940,335.03500 C 709.19940,334.90330 695.10360,323.31050 696.42090,307.37040 C 681.66640,316.98720 681.13950,300.25660 681.13950,300.25660 C 681.13950,300.25660 686.27720,302.62780 688.91200,301.96920 C 691.54670,301.31050 697.60660,297.09490 698.26530,287.21470 C 698.92390,277.33450 709.46280,263.76560 709.33110,263.63380 z " id="path591" style="fill:#efe763;fill-opacity:1.0000000;fill-rule:evenodd;stroke:#000000;stroke-width:1.0000000pt;stroke-linecap:butt;stroke-linejoin:miter;stroke-opacity:1.0000000"/>
    <path d="M 717.23530,347.55000 L 726.85210,359.53800" id="path592" style="fill:none;fill-opacity:1.0000000;fill-rule:evenodd;stroke:#000000;stroke-width:1.0000000pt;stroke-linecap:butt;stroke-linejoin:miter;stroke-opacity:1.0000000"/>
    <path d="M 723.55860,351.89730 L 728.82810,357.29850" id="path593" style="fill:none;fill-opacity:1.0000000;fill-rule:evenodd;stroke:#000000;stroke-width:1.0000000pt;stroke-linecap:butt;stroke-linejoin:miter;stroke-opacity:1.0000000"/>
    <path d="M 716.31320,351.23860 C 716.31320,351.23860 721.97780,362.04100 721.84610,362.96320" id="path594" style="fill:none;fill-opacity:1.0000000;fill-rule:evenodd;stroke:#000000;stroke-width:1.0000000pt;stroke-linecap:butt;stroke-linejoin:miter;stroke-opacity:1.0000000"/>
    <path d="M 715.12750,352.55600 L 715.25920,363.88540" id="path595" style="fill:none;fill-opacity:1.0000000;fill-rule:evenodd;stroke:#000000;stroke-width:1.0000000pt;stroke-linecap:butt;stroke-linejoin:miter;stroke-opacity:1.0000000"/>
    <path d="M 717.91930,254.28060 C 717.91930,254.28060 715.71270,254.74160 710.73970,261.69080 C 708.58280,263.46370 702.37440,293.80160 706.72170,299.99320 C 712.51800,280.89140 718.44630,273.90930 718.44630,273.90930 L 717.91930,254.28060 z " id="path596" style="fill:#316d3a;fill-opacity:1.0000000;fill-rule:evenodd;stroke:#000000;stroke-width:1.0000000pt;stroke-linecap:butt;stroke-linejoin:round;stroke-opacity:1.0000000"/>
    <path d="M 746.87610,182.74770 C 746.87610,182.74770 746.74440,181.16670 744.24130,180.63980 C 741.73830,180.11300 748.45690,180.63980 748.58870,180.24460 C 748.72040,179.84940 748.58870,177.74170 748.58870,177.74170 C 748.58870,177.74170 751.35520,178.66380 752.27730,180.24460 C 752.93600,178.40030 752.27730,175.89730 752.27730,175.89730 C 752.27730,175.89730 755.30730,177.34650 754.91200,178.13690 C 754.51680,178.92730 756.09760,174.44830 756.75630,173.92130 C 757.54680,174.31650 758.07370,175.89730 758.07370,176.29250 C 758.07370,176.68780 760.84020,172.73570 762.55270,173.13090 C 764.26530,173.52610 762.02580,175.50220 762.55270,176.16080 C 763.47490,175.37040 764.39700,175.10690 765.84610,175.10690 C 767.29520,175.10690 768.21740,179.05900 768.21740,179.05900 C 768.21740,179.05900 769.13950,175.63380 770.19340,175.89730 C 771.24730,176.16080 772.43300,173.92130 772.43300,173.92130 L 774.93600,178.00520 L 774.80420,173.39440 C 774.80420,173.39440 778.22930,175.10700 778.22930,177.47820 C 778.22930,179.84940 780.20540,174.18480 782.18150,175.23870 C 781.65450,177.21470 780.33710,178.92720 781.52280,180.63980 C 782.97190,179.71770 782.84010,178.40040 782.84010,178.40040 L 786.66050,179.05900 L 786.52880,176.29250 L 788.24130,179.84940 C 788.24130,179.84940 789.69050,177.87340 791.13950,177.74170 C 790.74430,179.45420 789.55870,180.24460 789.55870,180.24460 L 792.98390,180.63980 L 791.53470,182.48420 L 796.27730,184.06510 C 796.27730,184.06510 789.29530,186.69980 787.97790,189.20280 C 786.26530,180.37640 777.70240,182.87940 777.70240,182.87940 C 773.61860,186.83150 783.46110,189.84420 774.55720,190.25670 C 767.53850,190.57580 770.78630,185.51420 769.00780,183.14290 C 766.50480,179.98120 760.31320,183.14290 760.31320,183.14290 C 763.21140,187.16080 763.06850,190.90710 758.76530,190.80010 C 754.57050,190.69900 750.82810,187.75360 750.43300,183.53810 C 749.51080,181.69380 746.74430,182.87940 746.87610,182.74770 z " id="path609" style="fill:#316d3a;fill-opacity:1.0000000;fill-rule:evenodd;stroke:#000000;stroke-width:1.0000000pt;stroke-linecap:butt;stroke-linejoin:miter;stroke-opacity:1.0000000"/>
    <path d="M 708.54070,161.93330 C 708.54070,161.93330 699.97780,154.55610 692.60060,161.80160 C 691.54670,169.83750 695.36700,173.39440 695.36700,173.39440 C 695.36700,173.39440 688.38500,175.10700 685.88200,171.28660 C 685.35510,183.14290 673.89400,181.56200 673.89400,181.56200 C 673.89400,181.56200 676.66050,178.13680 676.52870,170.62790 C 671.52270,170.10100 668.49280,163.77760 668.49280,163.77760 C 668.49280,163.77760 673.76220,165.22670 677.31910,163.11900 C 681.66640,155.34650 689.70240,155.47820 689.70240,155.47820 C 689.70240,155.47820 703.40300,146.78370 708.54070,161.93330 z " id="path610" style="fill:#efe763;fill-opacity:1.0000000;fill-rule:evenodd;stroke:#000000;stroke-width:1.0000000pt;stroke-linecap:butt;stroke-linejoin:miter;stroke-opacity:1.0000000"/>
    <path d="M 693.91800,160.61590 C 693.91800,160.61590 699.05570,172.99920 688.38500,202.63990 C 686.27720,191.96930 680.08560,189.33450 680.08560,189.33450 C 680.08560,189.33450 677.58260,193.94520 678.37300,196.31650 C 679.16350,198.68780 667.30720,195.26270 666.64850,193.81350 C 665.98980,192.36440 663.75040,201.45430 672.84010,208.30450 C 671.25920,210.14880 668.09760,211.20270 668.09760,211.20270 C 668.09760,211.20270 671.65450,216.86750 678.24130,216.60390 C 684.82810,216.34040 687.46280,221.21470 687.46280,221.21470 C 687.46280,221.21470 698.92390,240.97510 718.55270,234.52000 C 699.31920,231.62180 700.24130,222.79560 700.24130,218.71170 C 700.24130,214.62780 707.61860,201.32250 716.97180,201.58600 C 726.32510,201.84950 720.52870,210.01710 720.52870,210.01710 C 720.52870,210.01710 730.54070,205.14280 725.40300,196.84350 C 743.18730,193.81350 741.60660,184.46030 741.60660,184.46030 L 727.90600,183.80160 C 727.90600,183.80160 728.95990,178.00520 728.69640,175.76570 C 728.43290,173.52610 726.06170,180.24470 719.34310,181.56200 C 712.62450,182.87940 701.95390,196.84350 701.95390,196.84350 C 701.95390,196.84350 709.72640,168.65190 709.59460,162.72380 C 702.08550,156.26870 696.28920,157.98110 693.91800,160.61590 z " id="path611" style="fill:#316d3a;fill-opacity:1.0000000;fill-rule:evenodd;stroke:#000000;stroke-width:1.0000000pt;stroke-linecap:butt;stroke-linejoin:miter;stroke-opacity:1.0000000"/>
    <path d="M 747.66640,191.17880 C 747.66640,191.17880 731.06770,203.16690 730.67240,205.27460 C 730.27720,207.38240 744.63650,208.96320 755.83410,206.98720 C 764.00180,198.42430 784.55270,196.84350 784.55270,196.84350 C 784.55270,196.84350 782.31320,191.31060 780.20540,191.17880 C 778.09760,191.04700 747.40300,191.17880 747.66640,191.17880 z " id="path613" style="fill:#94928c;fill-opacity:1.0000000;fill-rule:evenodd;stroke:#000000;stroke-width:1.0000000pt;stroke-linecap:butt;stroke-linejoin:miter;stroke-opacity:1.0000000"/>
    <path d="M 747.53470,193.02310 L 737.65440,203.03510 C 737.65440,203.03510 746.87610,205.27450 754.78020,204.22070 C 759.12750,197.89740 775.06760,193.94530 775.06760,193.94530" id="path612" style="fill:none;fill-opacity:1.0000000;fill-rule:evenodd;stroke:#5a5152;stroke-width:1.0000000pt;stroke-linecap:butt;stroke-linejoin:miter;stroke-opacity:1.0000000"/>
    <path d="M 756.22930,191.31060 C 756.22930,191.31060 750.43290,187.49010 751.09160,184.06500 C 750.69640,181.95720 745.29520,183.01120 745.42690,186.96330 C 745.55870,190.91540 748.19340,191.17880 748.19340,191.17880 L 756.22930,191.31060 z " id="path616" style="fill:#efe763;fill-opacity:1.0000000;fill-rule:evenodd;stroke:#000000;stroke-width:1.0000000pt;stroke-linecap:butt;stroke-linejoin:miter;stroke-opacity:1.0000000"/>
    <path d="M 750.82810,184.19670 C 750.82810,184.19670 755.96590,180.11290 761.10360,183.53810" id="path617" style="fill:none;fill-opacity:1.0000000;fill-rule:evenodd;stroke:#000000;stroke-width:1.0000000pt;stroke-linecap:butt;stroke-linejoin:miter;stroke-opacity:1.0000000"/>
    <path d="M 769.66640,183.93330 C 769.66640,183.93330 774.27720,179.58590 778.09760,183.66980" id="path618" style="fill:none;fill-opacity:1.0000000;fill-rule:evenodd;stroke:#000000;stroke-width:1.0000000pt;stroke-linecap:butt;stroke-linejoin:miter;stroke-opacity:1.0000000"/>
    <path d="M 772.03770,190.12500 C 769.92990,188.28060 769.66640,190.12500 769.40300,183.53810 C 767.55870,179.45430 760.31310,183.27460 760.31310,183.27460 C 763.60650,186.56800 760.97190,190.52010 764.79220,191.17880 C 767.55870,191.04700 772.16940,190.52020 772.03770,190.12500 z " id="path619" style="fill:#efe763;fill-opacity:1.0000000;fill-rule:evenodd;stroke:#000000;stroke-width:1.0000000pt;stroke-linecap:butt;stroke-linejoin:miter;stroke-opacity:1.0000000"/>
    <path d="M 787.71430,191.44230 C 787.58260,191.17880 788.37300,180.77170 777.57060,183.14290 C 774.93600,186.04110 780.60060,188.14900 777.83410,191.04710 L 787.71430,191.44230 z " id="path621" style="fill:#efe763;fill-opacity:1.0000000;fill-rule:evenodd;stroke:#000000;stroke-width:1.0000000pt;stroke-linecap:butt;stroke-linejoin:miter;stroke-opacity:1.0000000"/>
    <path d="M 789.47190,210.84930 C 789.47190,210.84930 799.89080,221.78280 803.49250,222.81180 C 801.82030,223.58360 799.24770,223.19770 799.24770,223.19770 C 799.24770,223.19770 804.77870,229.88640 805.67920,234.51710 C 803.74980,234.51700 801.30580,233.87400 801.30580,233.87400 C 801.30580,233.87400 805.93640,240.04810 805.42190,245.32200 C 801.82030,244.16430 798.99040,240.94860 798.99040,240.94860 L 778.53840,217.66660 L 789.47190,210.84930 z " id="path623" style="fill:#efe763;fill-opacity:1.0000000;fill-rule:evenodd;stroke:#000000;stroke-width:1.0000000pt;stroke-linecap:butt;stroke-linejoin:miter;stroke-opacity:1.0000000"/>
    <path d="M 681.93780,251.49610 C 681.93780,251.49610 677.04990,263.71600 685.66810,267.31760 C 694.28620,270.91920 696.34430,262.30100 696.34430,262.30100 C 696.34430,262.30100 699.56000,268.08920 696.73020,271.94820 C 714.22370,276.06430 711.00800,288.92720 711.00800,288.92720 C 711.00800,288.92720 708.95000,285.06840 702.64710,286.22610 C 696.34430,287.38370 694.67210,283.78210 694.67210,283.78210 C 694.67210,283.78210 695.18660,293.68650 689.01240,294.07240 C 688.62650,292.91480 689.65560,290.59950 688.36930,289.44170 C 680.52290,284.55390 682.19510,277.35060 682.19510,277.35060 C 682.19510,277.35060 665.98780,267.70340 681.93780,251.49610 z " id="path625" style="fill:#316d3a;fill-opacity:1.0000000;fill-rule:evenodd;stroke:#000000;stroke-width:1.0000000pt;stroke-linecap:butt;stroke-linejoin:miter;stroke-opacity:1.0000000"/>
    <path d="M 700.84630,221.13970 L 700.84630,221.13970 C 700.84630,221.13970 698.91690,232.84490 719.75480,234.25980 C 721.68430,234.25980 728.11570,231.81590 728.11570,231.81590 C 728.11570,231.81590 722.07010,237.99000 713.19470,238.24730 C 704.31930,238.50460 684.38170,247.63730 683.61000,249.69530 C 682.83820,251.75340 676.27810,260.88600 686.05400,267.96070 C 690.29870,261.27190 718.21130,250.33850 718.21130,250.33850 L 738.53470,239.40500 L 763.36010,223.71220 L 746.38110,215.86590 L 715.76730,222.04000 L 700.84630,221.13970 z " id="path628" style="fill:#efe763;fill-opacity:1.0000000;fill-rule:evenodd;stroke:#000000;stroke-width:1.0000000pt;stroke-linecap:butt;stroke-linejoin:miter;stroke-opacity:1.0000000"/>
    <path d="M 855.03170,253.88540 C 855.03170,253.88540 859.77430,268.24460 845.67840,269.16680 C 842.38490,268.11290 839.88200,263.63380 839.88200,263.63380 C 839.88200,263.63380 834.48080,267.71770 839.35510,272.46020 C 820.38500,278.12480 824.73230,289.71760 824.73230,289.71760 C 824.73230,289.71760 828.15740,285.76560 830.26520,286.02910 C 832.37300,286.29250 831.97780,287.87330 834.61250,287.60990 C 837.24730,287.34640 842.38500,284.44830 842.38500,284.44830 C 842.38500,284.44830 841.98970,295.64580 847.65450,294.46010 C 846.07370,293.40630 847.39100,290.24460 847.39100,290.24460 C 847.39100,290.24460 852.00180,287.74160 853.18740,284.18470 C 854.37300,280.62780 853.31910,278.91530 853.31910,278.91530 C 853.31910,278.91530 861.48680,272.72370 860.82810,265.21470 C 860.16940,257.70570 855.03170,253.88540 855.03170,253.88540 z " id="path587" style="fill:#efe763;fill-opacity:1.0000000;fill-rule:evenodd;stroke:#000000;stroke-width:1.0000000pt;stroke-linecap:butt;stroke-linejoin:miter;stroke-opacity:1.0000000"/>
    <path d="M 743.03670,209.04850 C 743.03670,209.04850 729.27340,224.87000 701.23220,221.13960 C 723.99970,223.58360 731.84600,222.29730 731.84600,222.29730 C 731.84600,222.29730 732.48910,224.48410 730.04520,227.44250 C 739.04920,222.55460 743.42260,218.30980 746.76700,215.60860 C 753.32710,208.14810 743.16540,209.17710 743.03670,209.04850 z " id="path626" style="fill:#316d3a;fill-opacity:1.0000000;fill-rule:evenodd;stroke:#000000;stroke-width:1.0000000pt;stroke-linecap:butt;stroke-linejoin:miter;stroke-opacity:1.0000000"/>
    <path d="M 750.49720,224.74130 C 750.49720,224.74130 741.49310,237.34690 738.53470,239.01910 C 735.57620,240.69130 746.50970,245.96510 746.50970,245.96510 L 760.65890,234.77430 L 750.49720,224.74130 z " id="path627" style="fill:#316d3a;fill-opacity:1.0000000;fill-rule:evenodd;stroke:#000000;stroke-width:1.0000000pt;stroke-linecap:butt;stroke-linejoin:miter;stroke-opacity:1.0000000"/>
    <path d="M 752.40900,231.09490 C 752.40900,231.09490 745.16350,241.76550 750.43290,250.19670 C 753.06770,255.07100 771.37900,242.42420 776.78020,237.28650 C 778.49280,236.10090 782.31310,231.49010 787.45090,232.01710 C 792.58860,232.54400 794.03770,241.10690 797.85810,240.84340 C 801.67840,240.58000 796.01370,234.91530 796.01370,234.91530 C 796.01370,234.91530 788.50480,222.79550 789.16350,206.32840 L 784.28920,200.92730 C 784.28920,198.29260 784.42090,197.23860 784.42090,197.23860 C 774.54060,196.71170 758.07350,203.03500 756.22920,206.72370 C 751.61850,208.04100 747.13950,208.30450 742.00170,207.90930 C 748.58860,216.86730 753.59460,231.88530 752.40900,231.09490 z " id="path614" style="fill:#94928c;fill-opacity:1.0000000;fill-rule:evenodd;stroke:#000000;stroke-width:1.0000000pt;stroke-linecap:butt;stroke-linejoin:miter;stroke-opacity:1.0000000"/>
    <path d="M 784.68440,201.84950 C 784.68440,201.84950 769.00780,200.66380 759.91790,208.56800 C 760.31310,211.99310 759.65450,214.23260 759.65450,214.23260 L 758.60060,216.20870 L 757.28320,213.17880 C 757.28320,213.17880 757.01970,220.29260 756.88800,220.02910 C 756.75630,219.76560 753.33110,213.83740 753.33110,213.83740 C 753.33110,213.83740 757.01970,229.64580 755.96580,236.36440 C 759.39090,237.41830 764.39700,233.99320 764.39700,233.99320 C 764.39700,233.99320 765.97780,238.20870 755.96580,238.73570 C 754.25330,239.65780 753.85810,243.34640 753.85810,243.34640 C 753.85810,243.34640 752.40900,243.08300 753.85810,234.78360 C 753.91910,226.39900 743.62730,208.72210 743.62730,208.72210 C 743.62730,208.72210 752.40890,209.22660 755.96580,207.11880 C 759.43760,204.75570 766.16970,199.24960 784.55270,197.50220 C 785.60660,200.79560 784.55270,201.98120 784.68440,201.84950 z " id="path622" style="fill:#5a5152;fill-opacity:1.0000000;fill-rule:evenodd;stroke:none;stroke-width:1.0000000pt;stroke-linecap:butt;stroke-linejoin:miter;stroke-opacity:1.0000000"/>
    <path d="M 781.25930,191.57400 L 787.84610,191.44230 C 788.50480,193.02320 796.01370,201.05910 792.32510,208.30450 C 790.61250,206.46020 789.03170,204.74760 789.03170,204.74760 C 789.03170,204.74760 775.85810,218.05310 775.19940,203.03510 C 781.12750,206.98720 784.55270,203.56210 785.60660,201.71770 C 786.66050,199.87340 781.39100,191.70580 781.25930,191.57400 z " id="path615" style="fill:#efe763;fill-opacity:1.0000000;fill-rule:evenodd;stroke:#000000;stroke-width:1.0000000pt;stroke-linecap:butt;stroke-linejoin:miter;stroke-opacity:1.0000000"/>
    <path d="M 753.85810,150.86740 C 753.85810,150.86740 777.30720,141.25070 763.07960,134.00520 C 748.85210,126.75960 753.72630,151.26260 753.85810,150.86740 z " id="path607" style="fill:#316d3a;fill-opacity:1.0000000;fill-rule:evenodd;stroke:#000000;stroke-width:1.0000000pt;stroke-linecap:butt;stroke-linejoin:miter;stroke-opacity:1.0000000"/>
  </g>
</svg>
