<?xml version="1.0" encoding="UTF-8" standalone="no"?>
<!DOCTYPE svg PUBLIC "-//W3C//DTD SVG 1.0//EN"
"http://www.w3.org/TR/2001/REC-SVG-20010904/DTD/svg10.dtd">
<!-- Created with Sodipodi ("http://www.sodipodi.com/") --><svg height="140mm" id="svg1234" sodipodi:docbase="/home/yemu/clipart/newnewnew" sodipodi:docname="/home/yemu/clipart/newnewnew/rwanda.svg" sodipodi:version="0.33pre" width="210mm" xmlns="http://www.w3.org/2000/svg" xmlns:sodipodi="http://sodipodi.sourceforge.net/DTD/sodipodi-0.dtd" xmlns:xlink="http://www.w3.org/1999/xlink">
  <metadata>
    <rdf:RDF xmlns:cc="http://web.resource.org/cc/" xmlns:dc="http://purl.org/dc/elements/1.1/" xmlns:rdf="http://www.w3.org/1999/02/22-rdf-syntax-ns#">
      <cc:Work rdf:about="">
        <dc:title> rwanda</dc:title>
        <dc:description></dc:description>
        <dc:subject>
          <rdf:Bag>
            <rdf:li></rdf:li>
            <rdf:li>united_nations_member</rdf:li>
            <rdf:li>flag</rdf:li>
            <rdf:li>africa</rdf:li>
            <rdf:li>sign</rdf:li>
          </rdf:Bag>
        </dc:subject>
        <dc:publisher>
          <cc:Agent rdf:about="http://www.openclipart.org">
            <dc:title> Cezary Biele</dc:title>
          </cc:Agent>
        </dc:publisher>
        <dc:creator>
          <cc:Agent>
            <dc:title>Cezary Biele</dc:title>
          </cc:Agent>
        </dc:creator>
        <dc:rights>
          <cc:Agent>
            <dc:title> Cezary Biele</dc:title>
          </cc:Agent>
        </dc:rights>
        <dc:date></dc:date>
        <dc:format>image/svg+xml</dc:format>
        <dc:type rdf:resource="http://purl.org/dc/dcmitype/StillImage"/>
        <cc:license rdf:resource="http://web.resource.org/cc/PublicDomain"/>
        <dc:language>en</dc:language>
      </cc:Work>
      <cc:License rdf:about="http://web.resource.org/cc/PublicDomain">
        <cc:permits rdf:resource="http://web.resource.org/cc/Reproduction"/>
        <cc:permits rdf:resource="http://web.resource.org/cc/Distribution"/>
        <cc:permits rdf:resource="http://web.resource.org/cc/DerivativeWorks"/>
      </cc:License>
    </rdf:RDF>
  </metadata>
  <defs id="defs1236"/>
  <sodipodi:namedview id="base" showgrid="true" snaptogrid="false"/>
  <rect height="248.031494" id="rect1242" style="font-size:12;fill:#009af4;fill-rule:evenodd;stroke-width:1pt;fill-opacity:1;" width="744.094482" x="0.000000" y="-0.000008"/>
  <rect height="124.015747" id="rect1243" style="font-size:12;fill:#1c8f31;fill-rule:evenodd;stroke-width:1pt;fill-opacity:1;" width="744.094482" x="0.000000" y="372.047226"/>
  <rect height="124.015762" id="rect1244" style="font-size:12;fill:#efef00;fill-rule:evenodd;stroke-width:1pt;fill-opacity:1;" width="744.094482" x="0" y="248.031479"/>
  <polygon id="polygon1249" points="673.456,171.021 637.442,151.158 658.853,186.273 629.208,157.765 640.801,197.226 619.544,162.017 620.529,203.133 609.11,163.622 599.419,203.592 598.615,162.472 578.909,198.572 588.775,158.645 560.398,188.415 580.262,152.401 545.146,173.813 573.654,144.167 534.193,155.76 569.403,134.504 528.286,135.488 567.797,124.069 527.827,114.378 568.947,113.574 532.847,93.8686 572.774,103.735 543.004,75.357 579.018,95.2209 557.607,60.1052 587.252,88.6132 575.659,49.1525 596.916,84.3618 595.931,43.2452 607.35,82.7565 617.041,42.786 617.845,83.9066 637.551,47.8061 627.685,87.7337 656.062,57.9635 636.198,93.977 671.314,72.5658 642.806,102.211 682.267,90.6181 647.057,111.875 688.174,110.89 648.663,122.31 688.633,132 647.513,132.804 683.613,152.51 643.686,142.644 673.456,171.021 " sodipodi:arg1="0.63274837" sodipodi:arg2="0.76364803" sodipodi:cx="608.229980" sodipodi:cy="123.189224" sodipodi:r1="80.8845978" sodipodi:r2="40.4422989" sodipodi:sides="24" sodipodi:type="star" style="font-size:12;fill:#ffda00;fill-rule:evenodd;stroke-width:1pt;fill-opacity:1;" transform="translate(2.174187,1.630615)"/>
  <path d="M 639.755859 123.189224 A 30.982269 30.982243 0 1 0 577.791260,123.189224 A 30.9823 30.9822 0 1 0 639.756 123.189 L 608.773560 123.189224 z" id="path1251" sodipodi:cx="608.773560" sodipodi:cy="123.189224" sodipodi:rx="30.982269" sodipodi:ry="30.982243" sodipodi:type="arc" style="fill-rule:evenodd;stroke:none;fill:#0098f6;fill-opacity:1;stroke-opacity:1;stroke-width:1pt;stroke-linejoin:miter;stroke-linecap:butt;" transform="matrix(1.012406,0.000000,0.000000,1.012406,-5.921838,0.102333)"/>
  <path d="M 639.755859 123.189224 A 30.982269 30.982243 0 1 0 577.791260,123.189224 A 30.9823 30.9822 0 1 0 639.756 123.189 L 608.773560 123.189224 z" id="path1250" sodipodi:cx="608.773560" sodipodi:cy="123.189224" sodipodi:rx="30.982269" sodipodi:ry="30.982243" sodipodi:type="arc" style="fill-rule:evenodd;stroke:none;fill:#ffd900;fill-opacity:1;stroke-opacity:1;stroke-width:1pt;stroke-linejoin:miter;stroke-linecap:butt;" transform="matrix(0.813919,0.000000,0.000000,0.825781,114.9118,23.09256)"/>
</svg>
