<?xml version="1.0" encoding="UTF-8" standalone="no"?>
<!DOCTYPE svg PUBLIC "-//W3C//DTD SVG 20010904//EN"
"http://www.w3.org/TR/2001/REC-SVG-20010904/DTD/svg10.dtd">
<!-- Created with Sodipodi ("http://www.sodipodi.com/") --><svg height="140mm" id="svg548" sodipodi:docbase="/home/yemu/clipart/newnewnew" sodipodi:docname="/home/yemu/clipart/newnewnew/solomonislands.svg" sodipodi:version="0.33pre" width="280mm" xmlns="http://www.w3.org/2000/svg" xmlns:sodipodi="http://sodipodi.sourceforge.net/DTD/sodipodi-0.dtd" xmlns:xlink="http://www.w3.org/1999/xlink">
  <metadata>
    <rdf:RDF xmlns:cc="http://web.resource.org/cc/" xmlns:dc="http://purl.org/dc/elements/1.1/" xmlns:rdf="http://www.w3.org/1999/02/22-rdf-syntax-ns#">
      <cc:Work rdf:about="">
        <dc:title>Solomon Islands</dc:title>
        <dc:description></dc:description>
        <dc:subject>
          <rdf:Bag>
            <rdf:li>melanesia</rdf:li>
            <rdf:li></rdf:li>
            <rdf:li>oceania</rdf:li>
            <rdf:li>flag</rdf:li>
            <rdf:li>sign</rdf:li>
          </rdf:Bag>
        </dc:subject>
        <dc:publisher>
          <cc:Agent rdf:about="http://www.openclipart.org">
            <dc:title>Cezary Biele</dc:title>
          </cc:Agent>
        </dc:publisher>
        <dc:creator>
          <cc:Agent>
            <dc:title>Cezary Biele</dc:title>
          </cc:Agent>
        </dc:creator>
        <dc:rights>
          <cc:Agent>
            <dc:title>Cezary Biele</dc:title>
          </cc:Agent>
        </dc:rights>
        <dc:date></dc:date>
        <dc:format>image/svg+xml</dc:format>
        <dc:type rdf:resource="http://purl.org/dc/dcmitype/StillImage"/>
        <cc:license rdf:resource="http://web.resource.org/cc/PublicDomain"/>
        <dc:language>en</dc:language>
      </cc:Work>
      <cc:License rdf:about="http://web.resource.org/cc/PublicDomain">
        <cc:permits rdf:resource="http://web.resource.org/cc/Reproduction"/>
        <cc:permits rdf:resource="http://web.resource.org/cc/Distribution"/>
        <cc:permits rdf:resource="http://web.resource.org/cc/DerivativeWorks"/>
      </cc:License>
    </rdf:RDF>
  </metadata>
  <defs id="defs550">
    <sodipodi:namedview id="namedview1340"/>
    <defs id="defs380"/>
  </defs>
  <sodipodi:namedview id="base" showgrid="true" snaptogrid="true"/>
  <path d="M 6.34766e-05 491.386 L 956.693 0.000142659 L 6.34766e-05 0.000142659 L 6.34766e-05 491.386 z " id="path1338" sodipodi:nodetypes="cccc" style="font-size:12;fill-rule:evenodd;stroke-width:1pt;fill:#0000d6;fill-opacity:1;"/>
  <path d="M 992.126 -5.34058e-05 L 26.3264 496.063 L 992.126 496.063 L 992.126 -5.34058e-05 z " id="path552" sodipodi:nodetypes="cccc" style="font-size:12;fill-rule:evenodd;stroke-width:1pt;fill:#006000;fill-opacity:1;"/>
  <path d="M 119.055 2.35922e-16 L 112.677 2.35922e-16 L 0 56.4298 L 0 59.5276 L 6.37795 59.5276 L 119.055 3.20849 L 119.055 2.35922e-16 z " id="path558" sodipodi:nodetypes="ccccccc" style="font-size:12;fill:#ffcc00;fill-rule:evenodd;stroke-width:1pt;" transform="scale(8.333333,8.333333)"/>
  <polygon id="polygon1350" points="591.041,433.161 533.774,391.476 476.501,433.151 498.449,365.806 441.115,324.214 511.946,324.278 533.785,256.897 555.613,324.281 626.445,324.23 569.104,365.812 591.041,433.161 " style="font-size:12;fill:#ffffff;fill-rule:evenodd;stroke-width:1pt;fill-opacity:1;" transform="matrix(0.526233,0.000000,0.000000,0.495239,-211.7178,-118.3879)"/>
  <polygon id="polygon1351" points="591.041,433.161 533.774,391.476 476.501,433.151 498.449,365.806 441.115,324.214 511.946,324.278 533.785,256.897 555.613,324.281 626.445,324.23 569.104,365.812 591.041,433.161 " style="font-size:12;fill:#ffffff;fill-rule:evenodd;stroke-width:1pt;fill-opacity:1;" transform="matrix(0.526233,0.000000,0.000000,0.495239,-26.52567,-118.3879)"/>
  <polygon id="polygon1352" points="591.041,433.161 533.774,391.476 476.501,433.151 498.449,365.806 441.115,324.214 511.946,324.278 533.785,256.897 555.613,324.281 626.445,324.23 569.104,365.812 591.041,433.161 " style="font-size:12;fill:#ffffff;fill-rule:evenodd;stroke-width:1pt;fill-opacity:1;" transform="matrix(0.526233,0.000000,0.000000,0.495239,-26.52568,21.59556)"/>
  <polygon id="polygon1353" points="591.041,433.161 533.774,391.476 476.501,433.151 498.449,365.806 441.115,324.214 511.946,324.278 533.785,256.897 555.613,324.281 626.445,324.23 569.104,365.812 591.041,433.161 " style="font-size:12;fill:#ffffff;fill-rule:evenodd;stroke-width:1pt;fill-opacity:1;" transform="matrix(0.526233,0.000000,0.000000,0.495239,-118.5771,-47.57909)"/>
  <polygon id="polygon1354" points="591.041,433.161 533.774,391.476 476.501,433.151 498.449,365.806 441.115,324.214 511.946,324.278 533.785,256.897 555.613,324.281 626.445,324.23 569.104,365.812 591.041,433.161 " style="font-size:12;fill:#ffffff;fill-rule:evenodd;stroke-width:1pt;fill-opacity:1;" transform="matrix(0.526233,0.000000,0.000000,0.495239,-211.7178,21.59556)"/>
</svg>
