<?xml version="1.0" encoding="UTF-8" standalone="no"?>
<!-- Created with Inkscape (http://www.inkscape.org/) --><svg height="216.14172" id="svg1350" version="1.0" width="359.64566" x="0.00000000" xmlns="http://www.w3.org/2000/svg" xmlns:svg="http://www.w3.org/2000/svg" y="0.00000000">
  <metadata>
    <rdf:RDF xmlns:cc="http://web.resource.org/cc/" xmlns:dc="http://purl.org/dc/elements/1.1/" xmlns:rdf="http://www.w3.org/1999/02/22-rdf-syntax-ns#">
      <cc:Work rdf:about="">
        <dc:title> saint_helena</dc:title>
        <dc:description>HASH(0x861a740)</dc:description>
        <dc:subject>
          <rdf:Bag>
            <rdf:li>hash(0x87a4bb4)</rdf:li>
            <rdf:li></rdf:li>
            <rdf:li>flags</rdf:li>
            <rdf:li>hash(0x86524c0)</rdf:li>
            <rdf:li>signs_and_symbols</rdf:li>
            <rdf:li>africa</rdf:li>
            <rdf:li>hash(0x869cdb0)</rdf:li>
          </rdf:Bag>
        </dc:subject>
        <dc:publisher>
          <cc:Agent rdf:about="http://www.openclipart.org">
            <dc:title> Patricia Fidi</dc:title>
          </cc:Agent>
        </dc:publisher>
        <dc:creator>
          <cc:Agent>
            <dc:title> Patricia Fidi</dc:title>
          </cc:Agent>
        </dc:creator>
        <dc:rights>
          <cc:Agent>
            <dc:title> Patricia Fidi</dc:title>
          </cc:Agent>
        </dc:rights>
        <dc:date></dc:date>
        <dc:format>image/svg+xml</dc:format>
        <dc:type rdf:resource="http://purl.org/dc/dcmitype/StillImage"/>
        <cc:license rdf:resource="http://web.resource.org/cc/PublicDomain"/>
        <dc:language>en</dc:language>
      </cc:Work>
      <cc:License rdf:about="http://web.resource.org/cc/PublicDomain">
        <cc:permits rdf:resource="http://web.resource.org/cc/Reproduction"/>
        <cc:permits rdf:resource="http://web.resource.org/cc/Distribution"/>
        <cc:permits rdf:resource="http://web.resource.org/cc/DerivativeWorks"/>
      </cc:License>
    </rdf:RDF>
  </metadata>
  <rect height="108.12499" id="rect1310" style="font-size:12.000000px;fill:#ffffff;fill-rule:evenodd" transform="translate(9.478229e-2,0.193708)" width="181.36249" x="0.00000000" y="-0.00030399999"/>
  <path d="M 0.055719000,0.39258300 L 0.048164000,8.5858280 L 42.859070,34.929160 L 58.440040,34.909610 L 0.055719000,0.39258300 L 0.055719000,0.39258300 L 0.055719000,0.39258300 z " id="path549" style="font-size:12.000000px;fill:#cc0000"/>
  <path d="M 18.586120,0.59148700 L 71.016660,35.170880 L 71.094780,0.63054900 L 18.586120,0.59148700 L 18.586120,0.59148700 L 18.586120,0.59148700 z " id="path551" style="font-size:12.000000px;fill:#000066"/>
  <path d="M 78.094780,0.35367800 L 78.094780,42.619670 L 0.094782000,42.619670 L 0.094782000,66.704450 L 78.094780,66.704450 L 78.094780,108.85280 L 102.09480,108.85280 L 102.09480,66.704450 L 180.09480,66.704450 L 180.09480,42.619670 L 102.09480,42.619670 L 102.09480,0.31447700 L 78.094780,0.35367700 L 78.094780,0.35367800 z " id="path552" style="font-size:12.000000px;fill:#cc0000"/>
  <path d="M 109.09480,0.35353400 L 109.09480,31.470720 L 160.81540,0.32023100 L 109.09480,0.35353300 L 109.09480,0.35353400 z " id="path554" style="font-size:12.000000px;fill:#000066"/>
  <path d="M 110.59760,35.205780 L 124.87940,35.183270 L 181.27390,0.59726100 L 166.70440,0.65392900 L 110.71480,35.127650 L 110.71480,35.127650 L 110.59760,35.205780 L 110.59760,35.205780 z " id="path555" style="font-size:12.000000px;fill:#cc0000"/>
  <path d="M 180.66480,10.056240 L 138.29460,35.206290 L 180.09480,35.747750 L 180.09480,73.747750 L 144.09480,73.747750 L 179.76180,96.946750 L 180.28480,108.74770 L 161.23480,108.47470 L 109.09480,77.747750 L 109.09480,108.74770 L 71.094780,108.74770 L 71.094780,77.747750 L 22.184480,108.66470 L 0.094782000,108.74770 L 0.094782000,216.74770 L 360.09480,216.74770 L 360.09480,0.74775100 L 181.04480,0.55779800 M 0.094782000,12.747760 L 0.022001000,35.216920 L 37.687290,35.200880 L 0.094782000,12.747760 L 0.094782000,12.747760 L 0.094782000,12.747760 z " id="path556" style="font-size:12.000000px;fill:#000066"/>
  <path d="M 0.00000000,73.000000 L 0.00000000,96.000000 L 36.000000,73.240100 L 0.00000000,73.000000 z " id="path901" style="font-size:12.000000px;fill:#000066" transform="translate(9.478229e-2,0.193708)"/>
  <path d="M 138.72280,74.145050 L 123.71480,74.003690 L 180.28480,108.18950 L 179.91280,100.36840 L 138.72280,74.145050 z M 14.152480,108.76580 L 67.195080,74.964150 L 53.263480,75.076280 L 0.094783000,108.71530" id="path902" style="font-size:12.000000px;fill:#cc0000"/>
  <g id="g2423" style="font-size:12.000000px" transform="translate(-10.51181,2.403357)">
    <path d="M 273.00000,152.00000 L 274.00000,153.00000 L 273.00000,152.00000 M 267.00000,153.00000 L 268.00000,154.00000 L 267.00000,153.00000 z " id="path1514" style="font-size:12.000000px;fill:#0e0e6e"/>
    <path d="M 268.00000,153.00000 L 269.00000,154.00000 L 268.00000,153.00000 z " id="path1515" style="font-size:12.000000px;fill:#666677"/>
    <path d="M 269.00000,153.00000 L 270.00000,154.00000 L 269.00000,153.00000 z " id="path1516" style="font-size:12.000000px;fill:#a4a43d"/>
    <path d="M 270.00000,153.00000 L 271.00000,154.00000 L 270.00000,153.00000 z " id="path1341" style="font-size:12.000000px;fill:#99994e"/>
    <path d="M 271.00000,153.00000 L 272.00000,154.00000 L 271.00000,153.00000 z " id="path1518" style="font-size:12.000000px;fill:#32327b"/>
    <path d="M 269.00000,154.00000 L 270.00000,155.00000 L 269.00000,154.00000 z " id="path1519" style="font-size:12.000000px;fill:#262678"/>
    <path d="M 270.00000,154.00000 L 271.00000,155.00000 L 270.00000,154.00000 z " id="path1344" style="font-size:12.000000px;fill:#0e0e6e"/>
    <path d="M 460.19370,226.94690 C 507.75390,205.71580 582.10830,205.69830 628.99840,226.28300 C 629.66830,232.92330 629.66830,282.14250 629.66840,288.03120 C 631.67790,386.97040 590.41310,421.37800 544.86150,436.39470 C 485.72990,415.05180 458.26680,364.64870 458.85410,288.68360 C 458.85410,283.16860 460.19370,230.96020 460.19370,226.27710 L 460.19370,226.94690 L 460.19370,226.94690 L 460.19370,226.94690 L 460.19370,226.94690 L 460.19370,226.94690 L 460.19370,226.94690 z " id="path1646" style="font-size:12.000000px;fill:#00e2ff;fill-rule:evenodd;stroke:#ffffff;stroke-width:2.9875000" transform="matrix(0.382819,0.000000,0.000000,0.388885,67.76319,-11.33893)"/>
    <path d="M 461.67890,227.51970 C 519.54220,204.31300 589.87540,209.23260 627.49360,227.01470 C 628.83980,227.67290 628.69740,288.34050 628.16670,288.07500 L 460.29340,289.39140 L 461.67890,227.51970 L 461.67890,227.51970 L 461.67890,227.51970 L 461.67890,227.51970 L 461.67890,227.51970 L 461.67890,227.51970 z " id="path1465" style="font-size:12.000000px;fill:#ffd800;fill-rule:evenodd;stroke-width:1.0000000" transform="matrix(0.382819,0.000000,0.000000,0.388885,67.76319,-11.33893)"/>
    <g id="g797" style="font-size:12.000000px" transform="matrix(0.382819,0.000000,0.000000,0.388885,76.75702,57.86553)">
      <path d="M 507.84780,46.619720 C 503.33120,47.750020 505.85480,50.472260 497.27290,50.232240 C 491.16110,50.058670 491.19700,51.218260 498.58810,53.105770 C 500.58880,53.532100 504.23480,56.408620 503.99150,59.858470 C 504.06870,63.194050 504.07890,65.756070 504.49940,69.531630 C 505.34190,78.010410 511.31520,81.004640 513.48890,83.292770 C 514.48720,84.013670 515.66200,85.451890 515.21950,87.528460 C 514.95940,87.952350 514.81220,88.894420 514.15540,90.719990 C 513.95780,92.273100 512.99410,94.885030 512.22240,96.729510 C 503.48430,96.092760 501.04940,98.234180 501.01590,104.37420 C 502.94150,102.02570 503.57940,100.42830 505.63870,99.886470 C 504.95540,101.04250 503.55320,103.39320 505.31480,107.23240 C 505.77030,102.97430 507.94180,101.93260 509.28330,101.66830 C 508.66600,104.14650 509.35240,106.46260 511.39240,107.44590 C 511.60400,103.85810 510.64330,101.26550 513.41930,100.78750 C 514.75870,100.44000 516.13150,100.30720 518.09260,103.18270 C 517.96410,100.31160 517.52590,98.416600 515.59840,97.467800 C 514.45430,95.866090 516.91740,93.249820 518.07860,92.170560 C 518.97870,91.091310 521.11900,90.618520 521.69100,89.865190 C 522.26300,87.805860 522.26300,88.492280 523.06390,85.975340 C 523.86470,83.458400 526.12050,83.964610 526.69240,86.252750 C 526.74210,87.365490 528.32760,88.478240 529.12640,90.619580 C 528.48850,92.238460 528.15620,94.084240 527.94250,96.828840 C 521.85180,96.177900 519.19030,98.562930 518.83400,101.98990 C 521.74290,99.539790 526.41200,100.47140 524.69590,100.73460 C 523.11040,101.38980 518.96250,103.85800 521.00670,107.30010 C 521.74490,104.73460 523.57220,103.36290 525.77720,102.55010 C 525.63140,106.30820 526.79290,107.94250 528.66980,109.06500 C 528.45720,107.05320 527.55620,103.99770 529.65510,102.22090 C 531.02160,101.06410 534.36190,102.12270 537.41210,105.46770 C 537.71980,101.23790 535.02680,99.148100 530.92660,98.641970 C 530.61350,96.568600 531.25040,95.768890 531.56130,94.459690 C 532.13330,91.713940 532.36310,90.877460 533.27840,87.216490 C 534.19370,83.555530 539.06450,82.280810 542.38230,84.340130 C 545.70010,86.399460 548.65840,88.034900 552.09060,89.636540 C 554.73910,90.846410 558.93020,91.330030 561.34640,89.947590 C 563.14620,88.917920 555.41750,84.606860 552.71330,80.745010 C 554.50420,80.763780 557.09190,80.663070 558.62260,79.550400 C 558.66240,78.640820 554.65400,77.672200 552.48550,77.360380 C 553.84330,76.264950 562.26960,72.900620 554.52550,73.276290 C 549.26280,73.390730 541.54880,72.682190 539.08070,71.102600 C 536.10630,69.500890 529.35620,63.322980 526.95370,62.064510 C 524.55120,60.806050 522.94940,60.348430 522.94940,57.373890 C 522.26300,52.568820 518.74180,43.922120 507.84780,46.619720 L 507.84780,46.619720 L 507.84780,46.619720 L 507.84780,46.619720 L 507.84780,46.619720 L 507.84780,46.619720 L 507.84780,46.619720 L 507.84780,46.619720 L 507.84780,46.619720 L 507.84780,46.619720 L 507.84780,46.619720 L 507.84780,46.619720 L 507.84780,46.619720 L 507.84780,46.619720 L 507.84780,46.619720 L 507.84780,46.619720 L 507.84780,46.619720 L 507.84780,46.619720 L 507.84780,46.619720 L 507.84780,46.619720 L 507.84780,46.619720 L 507.84780,46.619720 L 507.84780,46.619720 L 507.84780,46.619720 L 507.84780,46.619720 L 507.84780,46.619720 L 507.84780,46.619720 L 507.84780,46.619720 z " id="path1132" style="fill:#ffffff;fill-opacity:1.0000000;fill-rule:evenodd;stroke:#000000;stroke-width:1.2500000;stroke-linecap:butt;stroke-linejoin:miter;stroke-dasharray:none;stroke-opacity:1.0000000"/>
      <path d="M 512.10342 51.666039 A 2.0288391 1.0741040 0 1 1  508.04575,51.666039 A 2.0288391 1.0741040 0 1 1  512.10342 51.666039 z" id="path787" style="fill:#000000;fill-opacity:1.0000000;fill-rule:evenodd;stroke:#000000;stroke-width:1.2500000;stroke-linecap:butt;stroke-linejoin:miter;stroke-dasharray:none;stroke-opacity:1.0000000" transform="translate(-0.477371,-0.954871)"/>
      <path d="M 511.30710,46.957400 C 516.67020,47.675170 519.87120,50.677110 520.79270,54.542620 C 522.45040,58.232570 521.59690,58.548810 520.79270,54.366990" id="path788" style="font-size:12.000000px;fill:none;fill-rule:evenodd;stroke:#990000;stroke-width:1.4829460"/>
      <path d="M 519.74030,88.140100 C 519.18710,88.383640 515.54260,87.480390 515.45810,87.528150 C 515.19800,87.952040 515.05080,88.894120 514.39400,90.719680 C 514.19640,92.272800 513.23270,94.884800 512.46100,96.729200 C 503.72290,96.092450 501.28800,98.233870 501.25450,104.37400 C 503.18010,102.02550 503.81800,100.42800 505.87730,99.886170 C 505.19400,101.04230 503.79180,103.39300 505.55340,107.23220 C 506.00890,102.97410 508.18040,101.93240 509.52190,101.66810 C 508.90460,104.14630 509.59100,106.46240 511.63100,107.44570 C 511.84260,103.85790 510.88190,101.26530 513.65790,100.78720 C 514.99730,100.43980 516.37010,100.30690 518.33120,103.18250 C 518.20270,100.31140 517.76450,98.416370 515.83700,97.467500 C 514.69290,95.865780 517.15600,93.249510 518.31720,92.170260 C 519.21730,91.091000 521.35760,90.618290 521.92960,89.864880 C 522.50160,87.805560 522.85970,88.969350 523.66060,86.452410 C 524.46130,83.935550 526.35910,83.964390 526.93100,86.252440 C 526.98070,87.365190 528.56620,88.477940 529.36500,90.619280 C 528.72710,92.238160 528.39480,94.083940 528.18110,96.828540 C 522.09040,96.177600 519.42890,98.562620 519.07260,101.98970 C 521.98150,99.539490 526.65060,100.47110 524.93450,100.73430 C 523.34900,101.38960 519.20110,103.85780 521.24530,107.29990 C 521.98350,104.73440 523.81080,103.36270 526.01580,102.54990 C 525.87000,106.30800 527.03150,107.94230 528.90840,109.06480 C 528.69580,107.05300 527.79480,103.99750 529.89370,102.22070 C 531.26020,101.06390 534.60050,102.12250 537.65070,105.46750 C 537.95840,101.23770 535.26540,99.147800 531.16520,98.641660 C 530.85210,96.568300 531.48900,95.768590 531.79990,94.459380 C 532.37190,91.713640 532.60170,90.877150 533.51700,87.216190 C 534.43230,83.555300 535.97250,80.976410 533.72420,82.265400 C 531.07480,95.304260 525.45200,84.053190 524.64200,83.954470 L 519.74030,88.140110 L 519.74030,88.140110 L 519.74030,88.140110 L 519.74030,88.140100 z " id="path794" style="font-size:12.000000px;fill:#000000;fill-opacity:1.0000000;fill-rule:evenodd;stroke:none;stroke-width:1.2500000"/>
      <path d="M 554.68830,83.767060 C 554.68830,84.090240 554.83100,85.195590 554.84460,85.954560 C 554.96850,87.004140 554.98260,87.865260 554.84460,88.923310 C 554.42670,89.228640 554.38970,89.540300 553.75080,89.704560 C 554.90940,90.101970 555.73530,90.294310 556.87580,90.329560 C 557.81330,90.329560 558.75080,90.329560 559.68830,90.329560 C 560.58820,90.185130 560.79060,89.950610 561.25080,89.235810 C 561.49450,88.522230 561.14030,88.272520 560.46960,87.829560 C 559.96310,87.395450 559.19710,86.783870 558.75080,86.267060 C 558.12250,85.811810 557.55740,85.337110 556.87580,84.860810 C 556.02090,84.426390 555.67220,84.108250 554.68830,83.767060 z " id="path770" style="fill:#000000;fill-opacity:1.0000000;fill-rule:evenodd;stroke:none;stroke-width:1.0000000pt;stroke-linecap:butt;stroke-linejoin:miter;stroke-opacity:1.0000000"/>
      <path d="M 525.91140,61.748200 C 525.91140,61.821900 525.94890,61.685710 525.24840,62.853090 C 524.54130,63.418810 524.03060,64.010240 523.03870,64.399870" id="path773" style="font-size:12.000000px;fill:none;fill-rule:evenodd;stroke:#000000;stroke-width:1.0000000;stroke-linecap:round"/>
      <path d="M 528.12110,63.957900 C 528.04750,64.031600 528.18780,63.874590 527.23720,65.062790 C 526.64250,65.954970 526.21700,66.297070 525.02750,66.388630" id="path775" style="font-size:12.000000px;fill:none;fill-rule:evenodd;stroke:#000100;stroke-width:1.0000000;stroke-linecap:round;stroke-opacity:1.0000000"/>
      <path d="M 530.33080,65.504680 C 530.33080,65.578380 530.36900,65.441060 529.66790,66.609570 C 529.12590,67.306520 528.68070,67.515720 528.12110,67.935410" id="path776" style="font-size:12.000000px;fill:none;fill-rule:evenodd;stroke:#000000;stroke-width:1.0000000;stroke-linecap:round;stroke-opacity:1.0000000"/>
      <path d="M 519.72420,67.493590 C 519.65060,67.493590 519.78700,67.455900 518.61940,68.156510 C 517.63400,68.497620 517.01260,68.598480 515.74680,68.598480 C 515.30480,68.598480 514.86290,68.598480 514.42090,68.598480" id="path782" style="fill:none;fill-opacity:1.0000000;fill-rule:evenodd;stroke:#000000;stroke-width:1.0000000pt;stroke-linecap:round;stroke-linejoin:miter;stroke-opacity:1.0000000"/>
      <path d="M 523.25980,69.703370 C 523.18610,69.776990 523.34090,69.638440 522.15490,70.587230 C 521.08840,70.747910 520.64210,71.177290 519.28230,71.250150 C 518.24080,71.448520 517.49740,71.692050 516.18870,71.692050 C 515.74680,71.692050 515.30480,71.692050 514.86290,71.692050" id="path783" style="fill:none;fill-opacity:1.0000000;fill-rule:evenodd;stroke:#000000;stroke-width:1.0000000pt;stroke-linecap:round;stroke-linejoin:miter;stroke-opacity:1.0000000"/>
      <path d="M 526.19610,71.849290 C 526.12240,71.922990 524.60090,73.630910 523.10250,74.058990 C 522.14050,74.478380 521.48520,74.706950 520.22990,74.721910 C 519.56410,74.756930 519.56970,74.907910 518.90400,74.942930" id="path784" style="font-size:12.000000px;fill:none;fill-rule:evenodd;stroke:#000000;stroke-width:1.0000000;stroke-linecap:round"/>
      <path d="M 528.40960,73.650820 C 528.33600,73.724440 528.49070,73.585970 527.30480,74.534680 C 526.46490,75.374600 525.79130,75.774840 524.43220,75.860520 C 523.90580,76.123660 523.22320,76.134800 522.66440,76.302490" id="path785" style="font-size:12.000000px;fill-rule:evenodd;stroke:#000000;stroke-width:1.5000000;stroke-linecap:round"/>
      <path d="M 512.59380,53.712400 C 515.16370,54.807850 517.41250,56.372840 518.53700,57.937740 C 519.50070,59.502650 519.50070,59.502650 519.50070,59.502650" id="path791" style="font-size:12.000000px;fill:none;fill-rule:evenodd;stroke:#990000;stroke-width:2.2249999;stroke-linecap:round;stroke-dasharray:none"/>
      <path d="M 510.66390,54.356000 C 514.10440,55.677490 517.18290,58.155210 517.72610,59.641800 C 518.26940,61.128460 517.00190,60.137330 516.09640,60.302510" id="path790" style="font-size:12.000000px;fill:none;fill-rule:evenodd;stroke:#000000;stroke-width:1.7000000;stroke-dasharray:none"/>
      <path d="M 524.45460,71.009600 C 524.36830,71.074520 522.56830,72.601170 520.93620,72.858350 C 519.87210,73.167190 519.15370,73.320770 517.82470,73.194660 C 517.11700,73.154680 517.10600,73.305360 516.39820,73.265460" id="path780" style="font-size:12.000000px;fill:none;fill-rule:evenodd;stroke:#ffbe00;stroke-width:2.5780170;stroke-linecap:round"/>
      <path d="M 521.72070,68.559190 C 521.63320,68.615800 519.78710,69.966350 518.23230,70.070500 C 517.20370,70.278630 516.51500,70.364610 515.28450,70.115740 C 514.62620,70.010220 514.60000,70.159070 513.94180,70.053560" id="path781" style="font-size:12.000000px;fill:none;fill-rule:evenodd;stroke:#ffbe00;stroke-width:2.5000000;stroke-linecap:round"/>
      <path d="M 518.63870,66.576190 C 518.59000,66.624100 517.11480,67.162360 516.20670,67.274200 C 515.04200,67.225600 514.76470,67.559690 514.13230,67.194020" id="path786" style="font-size:12.000000px;fill:none;fill-rule:evenodd;stroke:#ffbe00;stroke-width:1.8142110;stroke-linecap:round"/>
      <path d="M 525.79130,77.652280 C 525.68860,77.671130 523.46670,78.213730 521.99010,77.715760 C 520.96000,77.515030 520.29070,77.331310 519.24870,76.631160 C 518.68060,76.282120 514.35280,74.050370 514.57130,71.971130" id="path789" style="font-size:12.000000px;fill:none;fill-rule:evenodd;stroke:#ffbe00;stroke-width:2.5000000;stroke-linecap:round"/>
      <path d="M 509.12470,46.213990 C 516.45610,47.731860 515.24090,54.881360 505.30110,54.189830 C 504.84560,54.161300 519.07040,53.554380 515.38910,63.377080 C 511.21440,69.602280 513.58760,77.248150 522.23460,78.869400 C 528.35950,78.869400 558.33040,79.882050 558.51070,79.521790" id="path765" style="fill:none;fill-opacity:1.0000000;fill-rule:evenodd;stroke:#000000;stroke-width:1.2500000;stroke-linecap:butt;stroke-linejoin:miter;stroke-dasharray:none;stroke-opacity:1.0000000"/>
      <path d="M 518.32720,64.683780 C 520.30880,68.286610 553.58810,87.717680 553.58810,87.717680" id="path767" style="font-size:12.000000px;fill:none;fill-rule:evenodd;stroke:#000000;stroke-width:1.2500000;stroke-linecap:round"/>
      <path d="M 514.17970,60.394630 C 514.04260,61.041210 513.78900,61.543710 513.50590,62.127500 C 513.09540,62.931960 512.66960,63.724900 512.25890,64.529240 C 511.78140,65.441150 511.28520,66.267820 510.67430,67.059570 C 510.07260,67.734360 509.45030,68.373030 508.81290,68.999770 C 508.41700,69.379130 508.01800,69.754180 507.62180,70.132930 L 505.73170,68.206730 C 506.12120,67.841090 506.51200,67.477280 506.89980,67.108920 C 507.47110,66.545660 508.02820,65.970770 508.56740,65.364260 C 509.05760,64.747010 509.44230,64.090140 509.82100,63.370270 C 510.22790,62.568520 511.86140,59.712820 512.26050,58.905360 L 514.17970,60.394630 L 514.17970,60.394630 z " id="path793" style="font-size:12.000000px;stroke:#ffb300;stroke-width:1.5032279;stroke-linecap:round;stroke-linejoin:round"/>
      <path d="M 533.27770,70.364390 C 533.37970,70.465180 537.19540,73.560680 538.47240,74.599000 C 539.00090,75.152980 539.58620,75.417620 540.00030,76.111310" id="path796" style="font-size:12.000000px;fill:none;fill-rule:evenodd;stroke:#ffb300;stroke-width:4.2562432;stroke-linecap:round"/>
      <path d="M 518.79590,84.891360 C 517.88550,84.510610 517.23710,84.050370 516.47890,83.528680 C 515.44250,82.786860 514.42930,82.032080 513.39330,81.290210 C 512.22320,80.435890 511.18790,79.590610 510.25070,78.629560 C 509.48480,77.719940 508.78090,76.800020 508.10090,75.867540 C 507.69320,75.291820 507.29330,74.714140 506.88680,74.138290 L 510.52080,72.705800 C 510.91050,73.269560 511.29680,73.834130 511.69140,74.396920 C 512.30330,75.233250 512.93800,76.057880 513.62730,76.873610 C 514.35210,77.638500 515.17870,78.299400 516.10150,78.975860 C 517.13520,79.712610 520.74370,82.542460 521.78920,83.272560 L 518.79590,84.891360 L 518.79590,84.891360 z " id="path795" style="font-size:12.000000px;stroke:#990000;stroke-width:2.0216110;stroke-linecap:round;stroke-linejoin:round"/>
      <path d="M 538.78030,71.735690 C 538.83800,71.787800 538.89580,71.839830 538.95360,71.891940 C 538.51930,71.500400 538.72640,71.674960 539.47370,72.516940 C 540.03640,73.186490 540.47350,73.568580 541.03370,74.391940 C 541.52060,74.821470 541.83330,75.264590 541.90040,76.110690 C 541.22900,76.309280 540.06840,76.266940 539.12700,76.266940 C 538.34170,75.938270 537.59020,75.708320 537.04700,75.329440 C 536.37610,75.237430 535.82840,75.331350 535.31360,75.954440 C 535.31360,76.399310 535.26730,76.817170 535.48690,77.048190 C 535.74260,77.443320 535.66670,77.534260 536.18030,77.673190 C 536.70470,78.354950 537.11620,78.515400 538.26020,78.766940 C 539.19430,78.766940 540.20620,78.701020 541.03370,78.923190 C 542.05680,78.923190 543.24510,78.806380 544.15380,79.079440 C 545.23060,79.114080 546.15670,79.328230 547.27390,79.391940 C 548.36570,79.416580 549.27710,79.548190 550.39390,79.548190 C 550.76860,79.725950 551.50350,79.704440 552.12740,79.704440 C 553.37630,79.704440 554.60810,79.735260 555.76730,79.860690 C 556.89660,79.794700 557.19130,79.628830 557.50070,78.766940 C 557.25000,77.803420 556.69380,77.631990 555.59400,77.516940 C 554.58910,77.318800 553.58540,77.229390 552.64720,77.048190 C 551.73170,77.002340 552.58790,76.810150 552.82060,76.579440 C 553.59870,76.036610 554.37790,75.802920 555.24740,75.485690 C 555.96030,75.216450 556.51490,74.940040 556.98070,74.548190 C 557.30820,74.220050 557.39830,73.812030 557.15400,73.298190 C 556.20190,73.101200 555.21350,73.141940 554.20730,73.141940 C 552.91470,73.141940 551.65660,73.129270 550.39390,72.985690 C 549.01530,72.985690 547.49800,73.074880 546.23390,72.829440 C 545.01250,72.829440 543.94260,72.639770 542.76700,72.516940 C 541.75900,72.281950 541.08060,72.313230 540.16710,71.891940 C 539.65070,71.891940 539.34770,71.831590 538.78030,71.735690 z " id="path771" style="fill:#000000;fill-opacity:1.0000000;fill-rule:evenodd;stroke:none;stroke-width:1.0000000pt;stroke-linecap:butt;stroke-linejoin:miter;stroke-opacity:1.0000000"/>
      <path d="M 533.37410,67.902830 C 533.64750,67.643130 532.74470,68.559880 532.43390,68.904190 C 531.98130,69.462430 531.20330,69.641570 530.55180,69.924090" id="path777" style="font-size:12.000000px;fill:none;fill-rule:evenodd;stroke:#000000;stroke-width:1.1083430;stroke-linecap:round"/>
    </g>
    <g id="g1384" style="font-size:12.000000px" transform="matrix(0.382819,0.000000,0.000000,0.388885,158.0420,-20.87205)">
      <path d="M 283.72680,392.54260 C 281.95900,391.21690 247.48760,390.77480 243.95210,404.91700 C 257.65220,437.62070 302.28830,459.27600 309.35940,460.15980 C 316.87250,459.71790 361.50860,439.38860 376.09270,403.14930 C 372.11520,403.59120 358.41510,403.59110 350.46010,403.59120 C 344.27290,401.82340 316.87260,399.61360 302.28840,398.72990 C 297.42710,397.40420 288.58820,392.10070 283.72680,392.54260 L 283.72680,392.54260 z " id="path1374" style="fill:#007f00;fill-opacity:1.0000000;fill-rule:evenodd;stroke:none;stroke-width:1.0000000pt;stroke-linecap:butt;stroke-linejoin:miter;stroke-opacity:1.0000000"/>
      <path d="M 364.60220,413.31390 C 358.85700,413.75580 358.85700,413.31390 353.11170,411.10420 C 347.36650,408.89450 348.69230,409.77830 342.06320,410.22030 C 335.43410,410.66230 324.82740,410.66230 322.17580,411.54610 C 319.52410,412.43000 326.15330,412.87200 331.45660,413.31390 C 336.75990,413.75580 340.73730,416.84940 344.27290,416.84940 C 347.80840,416.84940 364.16030,413.75580 364.60220,413.31390 z " id="path1375" style="fill:#00b48c;fill-opacity:1.0000000;fill-rule:evenodd;stroke:none;stroke-width:1.0000000pt;stroke-linecap:butt;stroke-linejoin:miter;stroke-opacity:1.0000000"/>
      <path d="M 306.26590,419.50110 C 302.28840,421.26890 300.07870,423.03670 295.65930,422.15280 C 291.23990,421.26890 292.12370,423.47860 297.42700,424.36250 C 302.73040,425.24630 304.94010,425.24630 305.82390,423.03660 C 306.70780,420.82690 306.70780,419.50110 306.26590,419.50110 z " id="path1376" style="fill:#00b48c;fill-opacity:1.0000000;fill-rule:evenodd;stroke:none;stroke-width:1.0000000pt;stroke-linecap:butt;stroke-linejoin:miter;stroke-opacity:1.0000000"/>
      <path d="M 321.29190,418.61720 C 324.38550,417.29140 325.71130,417.29140 329.24690,419.50110 C 332.78240,421.71080 337.20180,420.38490 338.08570,425.24630 C 338.96960,430.10770 340.29540,430.99160 335.87600,429.22380 C 331.45660,427.45610 329.68880,426.57220 328.36300,424.80440 C 327.03720,423.03660 330.13070,423.03660 331.45660,423.03660 C 332.78240,423.03660 331.01460,421.71080 327.47910,421.71080 C 323.94360,421.71080 321.73390,419.05920 321.29190,418.61720 z " id="path1377" style="fill:#00b48c;fill-opacity:1.0000000;fill-rule:evenodd;stroke:none;stroke-width:1.0000000pt;stroke-linecap:butt;stroke-linejoin:miter;stroke-opacity:1.0000000"/>
      <path d="M 297.42700,427.01410 C 291.68180,427.45610 287.70430,430.10770 292.12370,431.87550 C 296.54320,433.64320 296.54310,432.75930 299.63670,431.87550 C 302.73040,430.99160 307.59170,431.43350 307.59170,431.43350 C 307.59170,431.43350 302.28840,433.20130 300.52060,434.52710 C 298.75290,435.85290 297.42710,437.17880 301.84650,437.17880 C 306.26590,437.17880 307.14980,434.96910 309.35950,432.75940 C 311.56920,430.54960 314.22080,424.80440 309.35950,426.13020 C 304.49810,427.45610 297.42700,427.45610 297.42700,427.01410 z " id="path1378" style="fill:#00b48c;fill-opacity:1.0000000;fill-rule:evenodd;stroke:none;stroke-width:1.0000000pt;stroke-linecap:butt;stroke-linejoin:miter;stroke-opacity:1.0000000"/>
      <path d="M 327.92100,438.94650 C 320.40800,437.17880 317.75640,433.20130 314.22080,435.41100 C 310.68530,437.62070 312.45300,439.83040 306.26590,440.71430 C 300.07870,441.59820 299.63670,442.48200 296.98510,441.15620 C 294.33340,439.83040 294.33340,440.71430 291.68180,441.59820 C 289.03010,442.48210 287.26240,443.80790 294.33340,444.24980 C 301.40450,444.69180 307.14980,444.24980 310.24340,446.90150 C 313.33690,449.55320 304.49810,449.99510 301.84650,449.55320 C 299.19480,449.11120 311.56920,453.08870 314.66280,452.64680 C 317.75640,452.20480 320.40810,453.53070 321.29190,450.87900 C 322.17580,448.22730 325.71130,449.11120 329.24690,446.90150 C 332.78240,444.69180 334.99210,444.24980 326.59520,444.69180 C 318.19830,445.13370 314.22080,448.22730 313.33690,444.69180 C 312.45310,441.15620 308.47560,438.94660 315.10470,439.83040 C 321.73390,440.71430 327.92100,439.38850 327.92100,438.94650 z " id="path1379" style="fill:#00b48c;fill-opacity:1.0000000;fill-rule:evenodd;stroke:none;stroke-width:1.0000000pt;stroke-linecap:butt;stroke-linejoin:miter;stroke-opacity:1.0000000"/>
      <path d="M 277.98160,400.93950 C 282.84290,400.05570 284.16880,398.72980 285.93650,400.05570 C 287.70430,401.38150 290.79790,399.17180 293.00760,401.38150 C 295.21730,403.59120 295.21730,406.24280 291.23990,406.24280 C 287.26240,406.24280 286.37850,405.35900 284.61070,403.59120 C 282.84290,401.82340 281.51710,402.70730 277.98160,400.93950 z " id="path1380" style="fill:#00b48c;fill-opacity:1.0000000;fill-rule:evenodd;stroke:none;stroke-width:1.0000000pt;stroke-linecap:butt;stroke-linejoin:miter;stroke-opacity:1.0000000"/>
      <path d="M 346.04060,421.71080 C 349.57620,419.50110 350.90200,419.05920 353.11170,420.82690 C 355.32150,422.59470 357.08920,423.92050 357.53120,423.92050 C 357.97310,423.92050 353.99570,424.36250 351.78590,424.80440 C 349.57620,425.24630 346.04060,422.59470 346.04060,421.71080 z " id="path1381" style="fill:#00b48c;fill-opacity:1.0000000;fill-rule:evenodd;stroke:none;stroke-width:1.0000000pt;stroke-linecap:butt;stroke-linejoin:miter;stroke-opacity:1.0000000"/>
      <path d="M 276.21380,426.13020 C 277.98160,424.80440 275.77190,424.80440 274.88800,423.92050 C 274.00410,423.03660 271.79440,424.36250 270.02660,424.80440 C 268.25890,425.24630 269.58470,427.45610 271.35240,427.45610 C 273.12020,427.45610 276.65580,426.57220 276.21380,426.13020 z " id="path1382" style="fill:#00b48c;fill-opacity:1.0000000;fill-rule:evenodd;stroke:none;stroke-width:1.0000000pt;stroke-linecap:butt;stroke-linejoin:miter;stroke-opacity:1.0000000"/>
      <path d="M 285.49460,434.08520 C 281.07520,434.08520 279.74940,435.85300 280.63320,436.29490 C 281.51710,436.73680 277.98160,440.27240 281.07520,439.83040 C 284.16880,439.38850 285.49460,439.83040 285.49460,438.06270 C 285.49460,436.29490 286.37850,435.41100 285.49460,434.08520 z " id="path1383" style="fill:#00b48c;fill-opacity:1.0000000;fill-rule:evenodd;stroke:none;stroke-width:1.0000000pt;stroke-linecap:butt;stroke-linejoin:miter;stroke-opacity:1.0000000"/>
    </g>
    <path d="M 378.08160,318.81930 C 377.86060,316.88600 378.52360,315.81190 379.84940,314.73770 C 381.17520,313.66350 383.82680,313.23370 383.82680,316.24140 C 383.82680,319.24920 385.81560,320.96770 387.80430,321.39740 C 389.79300,321.82700 392.22370,324.19020 391.78180,326.98320 C 391.33980,329.77600 392.66570,342.88050 394.65440,346.10320 C 396.64310,349.32570 403.71420,362.21570 404.81910,366.29760 C 405.92390,370.37920 407.69170,377.46870 404.59810,379.83200 C 401.50450,382.19510 399.73670,382.62480 395.98020,382.19520 C 392.22370,381.76530 391.33990,382.19500 389.79310,383.26940 C 388.24620,384.34360 387.36240,381.98050 387.58340,380.04690 C 387.80430,378.11330 386.47850,376.60950 385.81560,375.75020 C 385.15270,374.89090 383.82690,373.38710 384.04780,371.02380 C 384.26880,368.66070 384.04780,366.51230 382.28000,365.00860 C 380.51230,363.50460 379.62830,361.78620 379.40740,358.77840 C 379.18640,355.77060 378.08160,345.67350 376.31380,342.23640 C 374.54610,338.79880 373.44120,335.36160 371.45240,332.99840 C 369.46370,330.63510 368.73950,329.34700 368.80080,329.34640 C 372.63780,325.62460 376.92410,323.59630 378.08160,318.81930 L 378.08160,318.81930 L 378.08160,318.81930 z " id="path1419" style="font-size:12.000000px;fill-rule:evenodd;stroke:#000000;stroke-width:0.98601300" transform="matrix(0.382271,-2.079371e-2,2.046936e-2,0.388328,105.2737,-6.472448)"/>
    <path d="M 374.58650,324.15050 C 376.48240,322.06550 377.83430,320.56950 377.83430,318.83870 C 377.83430,317.10800 378.08000,315.80990 379.30860,315.16080 C 380.53700,314.51170 382.79620,312.98800 383.04170,314.93530 C 383.28750,316.88230 384.76160,320.77660 386.48160,320.99300 C 388.20140,321.20940 392.40280,322.73760 391.91150,327.93010 C 392.40290,331.39170 392.64860,335.29990 392.01030,337.02590 C 392.25600,338.97310 390.11900,340.25740 389.13630,338.09380 C 388.15350,335.93040 385.94210,329.22350 385.20520,333.11790 C 384.46810,337.01220 383.97660,342.85360 383.48540,346.09880 C 383.73090,349.34410 385.45090,350.42580 385.69650,347.18060 C 385.94210,343.93530 387.90770,338.95920 389.62760,342.85350 C 391.34740,346.74780 394.54140,349.77690 396.26130,353.67110 C 397.98110,357.56540 403.14070,365.13770 403.87750,367.73380 C 404.61460,370.33000 405.59760,372.92630 399.94670,369.24820 C 394.29570,365.57030 390.85600,358.43070 390.61030,355.61820 C 390.36470,352.80560 386.18790,346.96420 386.67930,350.42580 C 388.39910,353.45460 387.41630,355.83450 388.15350,358.64710 C 388.89040,361.45970 391.83870,362.75780 393.55860,366.21930 C 395.27850,369.68100 397.24400,372.27710 398.71810,374.22430 C 400.19230,376.17140 400.68360,376.38770 398.71810,376.82050 C 397.24400,377.25320 395.76980,377.90200 393.80440,376.17130 C 390.36470,375.52220 383.97660,367.73380 383.48540,366.00290 C 378.81720,362.10870 381.02830,361.02700 383.48530,361.02690 C 383.48530,359.07970 382.99380,359.07980 382.25690,357.78180 C 381.51970,356.48360 381.51970,356.05100 382.50250,354.32020 C 383.48540,352.58930 382.99390,352.37290 381.27400,350.64210 C 379.55420,348.91140 377.83430,348.26230 378.32580,345.01700 C 378.81720,341.77180 375.37750,338.74280 374.39470,338.31020 C 373.41200,337.87750 374.22180,335.30000 372.74750,333.78540 C 371.27340,332.27070 366.60820,331.17990 367.78570,330.08420 C 369.84710,328.32590 370.80520,327.01380 372.15580,325.91830 L 374.58650,324.15050 L 374.58650,324.15050 z " id="path1420" style="font-size:12.000000px;fill:#b30000;fill-rule:evenodd" transform="matrix(0.382271,-2.079371e-2,2.046936e-2,0.388328,105.2737,-6.472448)"/>
    <path d="M 377.19770,322.04200 C 377.19770,322.11360 377.19770,322.18520 377.19770,322.25680 C 377.19770,321.74660 377.17990,321.97260 377.41870,322.90130 C 377.88320,323.90960 378.14910,325.24530 378.52350,326.55350 C 379.01300,327.85490 379.63560,328.64830 379.84940,329.99070 C 379.84940,331.35790 379.80720,332.09310 379.18640,332.99840 C 378.53380,333.77090 377.88930,334.11370 376.97670,334.93190 C 376.84300,335.89440 376.57400,336.74350 376.53480,337.93960 C 376.70330,338.67710 376.75580,339.30390 376.75580,340.08790" id="path1421" style="font-size:12.000000px;fill:none;fill-rule:evenodd;stroke:#8c0000;stroke-width:0.98601300;stroke-linecap:round" transform="matrix(0.382271,-2.079371e-2,2.046936e-2,0.388328,105.2737,-6.472448)"/>
    <path d="M 390.01400,329.13150 C 390.01400,329.27470 390.01400,329.41780 390.01400,329.56100 C 390.01400,328.76620 390.04290,328.99100 389.79310,330.20560 C 389.79310,331.33820 389.82670,332.40840 390.01400,333.42810 C 390.07350,334.46910 390.28030,334.89870 390.89790,335.79120" id="path1423" style="font-size:12.000000px;fill:none;fill-rule:evenodd;stroke:#8c0000;stroke-width:0.98601300;stroke-linecap:round" transform="matrix(0.382271,-2.079371e-2,2.046936e-2,0.388328,105.2737,-6.472448)"/>
    <path d="M 389.57210,344.16970 C 389.42010,344.58350 388.75560,345.82950 388.68820,346.74770 C 388.57940,347.73500 388.33350,348.19210 388.24620,349.11090" id="path1424" style="font-size:12.000000px;fill:none;fill-rule:evenodd;stroke:#8d0000;stroke-width:1.3557680;stroke-linecap:round" transform="matrix(0.382271,-2.079371e-2,2.046936e-2,0.388328,105.2737,-6.472448)"/>
    <path d="M 392.26920,337.65430 C 392.93250,338.78800 392.70440,339.79660 392.70440,341.19770 C 393.12560,342.26130 393.26710,343.53190 393.61310,344.63060 C 394.20850,345.76600 394.51820,346.57120 395.16840,347.60600 C 395.95320,348.76560 396.25270,349.30950 396.96050,350.58130 C 397.31870,351.54190 397.63350,352.15600 398.30450,353.09860 C 398.61250,354.08550 399.15730,354.89050 399.87250,355.84520 C 400.33070,356.78130 400.67510,358.08710 401.21650,358.82030 C 401.79860,359.58500 402.57690,361.58680 402.99580,362.56870 C 403.68340,363.69770 403.92360,364.69270 404.36560,365.78070 C 404.72420,366.86700 405.02090,368.26400 405.47270,369.11920 C 405.81830,370.45040 406.14470,370.88080 406.14470,372.32340 C 406.14470,373.76250 406.12280,374.81180 406.17040,376.10380 C 405.84830,376.88020 405.99190,377.80990 405.47270,378.27400 C 405.20310,379.17930 404.29140,379.24190 403.90470,379.88400 C 403.21180,380.57890 401.82300,381.20060 400.84850,381.37550 C 399.64560,382.00460 398.51730,381.71480 397.05330,381.71480 C 395.85850,381.71480 395.01910,381.47800 393.82440,381.47800 C 392.37720,381.47800 391.82880,381.51210 390.91230,382.16460 C 389.93010,382.64060 389.57840,383.05640 388.67220,383.30900" id="path1438" style="font-size:12.000000px;fill:none;fill-rule:evenodd;stroke:#8c0000;stroke-width:1.0246710;stroke-linecap:round" transform="matrix(0.382271,-2.079371e-2,2.046936e-2,0.388328,105.2737,-6.472448)"/>
    <path d="M 235.11320,325.36750 C 237.32290,321.83190 239.97460,322.27390 240.41650,324.92550 C 240.85840,327.57710 241.52140,329.34490 242.84720,330.67070 C 244.17300,331.99650 245.27790,333.98540 245.94080,336.41580 C 247.70850,339.50960 250.58120,344.37100 252.34890,346.58060 C 254.11670,348.79020 257.21030,354.97760 258.09420,358.95510 C 258.97810,362.93260 260.30390,371.32930 261.62970,374.42290 C 262.95560,377.51660 264.72330,381.93610 266.04910,387.23920 C 267.37500,392.54250 266.93300,393.86840 270.91050,398.72980 C 274.88800,403.59120 279.74930,406.68480 280.19130,411.98790 C 280.63320,417.29150 283.28490,423.92040 279.30750,422.37370 C 276.65580,421.48980 275.99280,419.05910 274.44600,420.60580 C 272.45720,421.48970 269.80570,421.93170 268.47990,422.81570 C 267.15400,423.69950 265.57240,421.84800 263.39750,423.69960 C 261.52440,425.10380 258.82690,425.49260 257.05920,425.05080 C 228.36390,394.90970 226.93730,336.63700 226.93730,334.20630 L 235.11320,325.36750 L 235.11320,325.36750 L 235.11320,325.36750 z " id="path1395" style="font-size:12.000000px;fill:#b30000;fill-rule:evenodd;stroke:#000000;stroke-width:0.37500000" transform="matrix(0.382271,-2.079371e-2,2.046936e-2,0.388328,150.8493,-13.90812)"/>
    <path d="M 235.55520,341.27710 C 233.34550,345.25460 233.56650,345.03370 234.67130,348.79020 C 235.77620,352.54670 235.77620,355.86130 235.77620,358.07100 C 235.77620,360.28070 236.43910,360.50160 238.64880,360.50160 C 240.85850,360.50160 248.15060,360.05970 248.59250,367.13080 C 249.03440,371.55020 248.59250,376.19060 251.24420,378.40030 C 253.89580,380.61000 254.33770,384.80840 254.33770,387.46010 C 254.33770,390.11170 253.89580,390.33270 256.54750,392.98440 C 259.19910,395.63600 257.65230,397.84570 257.65230,401.38130 C 257.65230,404.91680 258.97810,408.23140 262.29270,408.23140 C 265.60730,408.23140 266.71210,407.78950 267.37500,409.55720 C 268.03800,411.32500 270.24770,412.20890 270.24770,410.44110 C 270.24770,408.67330 270.91060,405.80080 273.12030,410.44110 C 275.33000,415.08150 279.74950,422.15260 277.31880,420.82670 C 274.88810,419.50090 270.91060,421.48970 269.36370,422.81550 C 264.72340,421.93150 260.96680,425.46710 258.31520,424.80420 C 246.60370,415.52350 226.93730,377.73740 227.37920,334.20610 C 227.82130,330.89150 237.54390,323.37850 236.43910,325.58820 C 235.33420,327.79790 232.24060,331.77530 231.57770,333.54310 C 230.91480,335.31090 230.69380,336.85770 231.35680,338.18360 C 232.01970,339.50940 233.78740,341.05620 234.22940,339.06740 C 234.67130,337.07870 236.88100,336.41580 236.88100,337.74160 C 236.88100,339.06740 235.55520,341.05620 235.55520,341.27710 L 235.55520,341.27710 z " id="path1397" style="font-size:12.000000px;fill:#730000;fill-rule:evenodd;stroke-width:1.0000000" transform="matrix(0.382271,-2.079371e-2,2.046936e-2,0.388328,150.8493,-13.90812)"/>
    <path d="M 238.20690,369.34040 C 236.88110,365.58380 238.86980,364.25800 241.07950,364.03710 C 243.28920,363.81610 244.61510,365.36290 245.49900,367.35160 C 246.38280,369.34040 245.71990,371.99200 244.61510,371.99200 C 243.51020,371.99200 243.51020,372.87590 244.61510,375.08560 C 245.71990,377.29530 245.49900,379.28400 246.38280,382.59860 C 247.26670,385.91320 249.91840,388.78590 249.69740,390.55360 C 249.47640,392.32140 248.81350,392.32140 250.58130,393.64720 C 252.34900,394.97300 253.67490,396.07790 254.33780,397.84570 C 255.00070,399.61340 257.21040,404.91660 253.23290,400.93920 C 249.25550,396.96180 248.59250,395.85690 247.92960,397.40370 C 247.26670,398.95050 246.60380,398.06660 245.94090,394.53110 C 245.27800,390.99550 245.27800,390.99560 243.73120,389.89070 C 242.18440,388.78580 241.74250,387.68100 241.30050,385.69230 C 240.85850,383.70350 240.85860,383.70340 239.31180,381.93570 C 237.76500,380.16800 237.32300,381.49380 238.20690,378.62120 C 239.09080,375.74860 239.09080,374.42260 239.09080,372.65490 C 239.09080,370.88720 237.98590,369.34040 238.20690,369.34040 z " id="path1398" style="font-size:12.000000px;fill:#b30000;fill-rule:evenodd;stroke-width:1.0000000" transform="matrix(0.382271,-2.079371e-2,2.046936e-2,0.388328,150.8493,-13.90812)"/>
    <path d="M 255.22160,409.99910 C 255.22160,409.99910 259.64110,413.31370 262.07170,413.75570 C 264.50240,414.19760 264.50240,412.65080 266.27020,413.31370 C 268.03800,413.97660 267.15410,413.97660 267.81700,416.40730 C 268.47990,418.83800 267.37500,421.93160 265.60730,419.72190 C 263.83950,417.51220 264.06050,418.61700 262.51370,419.05900 C 260.96690,419.50090 260.96690,419.27990 258.53620,417.29120 C 256.10550,415.30250 253.89580,414.41860 254.33770,412.87180 C 254.77970,411.32500 255.22160,409.99910 255.22160,409.99910 z " id="path1399" style="font-size:12.000000px;fill:#b30000;fill-rule:evenodd;stroke-width:1.0000000" transform="matrix(0.382271,-2.079371e-2,2.046936e-2,0.388328,150.8493,-13.90812)"/>
    <path d="M 260.74590,380.83100 C 260.81960,380.90460 263.10860,384.50960 263.61860,385.69230 C 263.85020,386.79530 263.83950,388.02570 263.83950,389.44880 C 264.26310,390.84420 264.52220,391.06090 265.16540,392.32150 C 265.72190,393.47170 266.02220,394.80300 266.27020,395.85700 C 266.49640,396.91270 267.86000,397.28780 268.25890,398.06660 C 269.43050,398.91360 269.10920,400.68900 270.24770,401.60220 C 271.28900,402.77090 272.27340,403.64030 273.34130,404.47480 C 275.04180,405.64030 275.18310,406.69090 276.65590,408.01040 C 277.58130,409.48900 277.98170,410.20150 277.98170,411.98790 C 278.05170,413.42290 279.52850,414.68820 279.52850,416.18630 C 279.52850,417.36490 279.52850,419.20630 279.52850,420.38480" id="path1401" style="font-size:12.000000px;fill:none;fill-rule:evenodd;stroke:#730000;stroke-width:2.7500000;stroke-linecap:round" transform="matrix(0.382271,-2.079371e-2,2.046936e-2,0.388328,150.8493,-13.90812)"/>
    <path d="M 238.42780,323.82040 C 238.64820,324.08870 239.23050,325.08210 239.31170,326.03020 C 239.51350,326.95830 239.92440,328.12760 240.41660,329.12370 C 241.21840,330.57640 242.17780,331.94410 243.28920,333.32220 C 243.97150,334.52840 244.16750,335.62050 244.61500,336.85770 C 244.63190,338.29300 245.05640,339.13760 245.49890,340.39330 C 246.42000,342.14440 247.36590,343.49870 248.37150,344.81270 C 249.14290,345.99860 249.76210,346.75220 250.80220,347.90620 C 250.92650,348.40340 251.22910,348.52900 251.68610,348.79020 C 252.22730,349.92660 253.17620,350.90800 253.67480,352.10470 C 253.87280,353.80700 253.96970,355.54420 253.67480,357.18710 C 253.35060,358.98400 252.88760,359.99050 252.34900,361.60650 C 251.78100,362.82350 251.46510,363.66040 251.46510,365.14200" id="path1403" style="font-size:12.000000px;fill:none;fill-rule:evenodd;stroke:#730000;stroke-width:2.1250000;stroke-linecap:round" transform="matrix(0.382271,-2.079371e-2,2.046936e-2,0.388328,150.8493,-13.90812)"/>
    <path d="M 253.89570,357.84990 C 253.89570,357.99720 253.89570,358.14450 253.89570,358.29180 C 253.89570,357.40220 253.87440,357.70360 254.08900,359.17570 C 254.41150,359.95230 254.28240,361.56750 254.28240,362.71120 C 254.29890,364.29380 254.71100,365.03460 255.44250,366.24670 C 255.93600,366.99440 256.57430,367.90580 256.98940,368.89840" id="path1404" style="font-size:12.000000px;fill:none;fill-rule:evenodd;stroke:#720000;stroke-width:2.5724261;stroke-linecap:round" transform="matrix(0.382271,-2.079371e-2,2.046936e-2,0.388328,150.8493,-13.90812)"/>
    <path d="M 243.28920,334.86900 C 243.21550,334.94260 243.14190,335.01630 243.06820,335.08990 C 243.56970,334.58850 243.32780,334.77230 242.84730,335.97390 C 242.11970,337.11710 241.09740,338.11510 239.97460,338.62550 C 239.42110,339.81770 239.31170,340.70320 239.31170,342.16100 C 239.31170,342.78430 239.33770,343.37860 239.09070,343.70790" id="path1406" style="font-size:12.000000px;fill:none;fill-rule:evenodd;stroke:#730000;stroke-width:2.8750000" transform="matrix(0.382271,-2.079371e-2,2.046936e-2,0.388328,150.8493,-13.90812)"/>
    <path d="M 243.06820,335.97390 C 243.06820,336.51610 243.06820,338.51350 243.06820,339.73030 C 243.06820,341.13200 243.15300,341.88820 242.40530,343.04490 C 241.80900,344.07850 241.33830,344.53130 240.85850,345.69650 C 240.42200,346.98580 240.41660,348.06390 240.41660,349.45310 C 240.41660,349.96120 240.32100,350.34690 240.63760,350.55790" id="path1407" style="font-size:12.000000px;fill:none;fill-rule:evenodd;stroke:#720000;stroke-width:2.5000000" transform="matrix(0.382271,-2.079371e-2,2.046936e-2,0.388328,150.8493,-13.90812)"/>
    <path d="M 473.28960,398.06610 C 473.28960,398.64720 468.93150,412.88360 468.93150,412.88360 C 468.93150,412.88360 476.19500,413.46470 477.64770,413.46470 C 479.10030,413.46470 480.55300,411.43090 482.29630,411.43090 C 484.03950,411.43090 485.49220,410.55930 485.78280,409.10660 C 486.07330,407.65390 485.78280,399.22830 486.36390,398.35660 C 486.94490,397.48500 476.48550,399.22820 475.32330,398.64720 C 474.16120,398.06610 473.28960,397.77550 473.28960,398.06610 z " id="path1218" style="font-size:12.000000px;fill:#ffffff;fill-rule:evenodd;stroke-width:0.62500000;stroke-opacity:0.38219997" transform="matrix(0.384535,-1.717006e-2,1.699457e-2,0.388506,109.7353,-25.50565)"/>
    <path d="M 475.49900,413.34030 L 478.69500,398.21060" id="path1215" style="font-size:12.000000px;fill:none;fill-rule:evenodd;stroke:#fe0000;stroke-width:4.0170560" transform="matrix(0.384535,-1.717006e-2,1.699457e-2,0.388506,109.7353,-25.50565)"/>
    <path d="M 470.94320,406.82110 C 471.78100,407.21170 485.05570,403.98400 485.84380,404.26230" id="path1216" style="font-size:12.000000px;fill:none;fill-rule:evenodd;stroke:#fe0000;stroke-width:3.6636200" transform="matrix(0.384535,-1.717006e-2,1.699457e-2,0.388506,109.7353,-25.50565)"/>
    <path d="M 473.28960,398.06610 C 473.28960,398.64720 468.93150,412.88360 468.93150,412.88360 C 468.93150,412.88360 476.19500,413.46470 477.64770,413.46470 C 479.10030,413.46470 480.55300,411.43090 482.29630,411.43090 C 484.03950,411.43090 485.49220,410.55930 485.78280,409.10660 C 486.07330,407.65390 485.78280,399.22830 486.36390,398.35660 C 486.94490,397.48500 476.48550,399.22820 475.32330,398.64720 C 474.16120,398.06610 473.28960,397.77550 473.28960,398.06610 z " id="path1214" style="font-size:12.000000px;fill:none;fill-rule:evenodd;stroke:#000000;stroke-width:0.62500000" transform="matrix(0.384535,-1.717006e-2,1.699457e-2,0.388506,109.7353,-25.50565)"/>
    <path d="M 298.27670,120.77660 C 298.28740,121.02000 296.72570,127.06160 296.72570,127.06160 C 296.72570,127.06160 299.77440,127.16960 300.38200,127.14240 C 300.98960,127.11540 301.55990,126.23670 302.28910,126.20420 C 303.01820,126.17170 303.60990,125.77970 303.70480,125.16610 C 303.79960,124.55240 303.52360,121.03020 303.75060,120.65440 C 303.97770,120.27870 299.63480,121.20360 299.13800,120.98200 C 298.64130,120.76030 298.27140,120.65490 298.27670,120.77660 z " id="path1219" style="font-size:12.000000px;fill:none;fill-rule:evenodd;stroke:#00e4ff;stroke-width:0.31201801;stroke-opacity:1.0000000"/>
    <rect height="7.5772161" id="rect1212" style="font-size:12.000000px;fill:#b30000;fill-rule:evenodd;stroke:#000000;stroke-width:0.14886500;stroke-linecap:round;stroke-linejoin:round" transform="matrix(0.971026,0.238975,-0.231982,0.972720,0.000000,0.000000)" width="0.65489399" x="317.73941" y="45.890968"/>
    <path d="M 526.26580,305.15320 L 512.57940,333.19600" id="path822" style="font-size:12.000000px;fill:none;fill-rule:evenodd;stroke:#000000;stroke-width:0.62500000" transform="matrix(0.382819,0.000000,0.000000,0.388885,78.62153,3.778561)"/>
    <path d="M 528.86940,304.95020 L 517.94440,334.17970" id="path829" style="font-size:12.000000px;fill:none;fill-rule:evenodd;stroke:#000000;stroke-width:0.62500000" transform="matrix(0.382819,0.000000,0.000000,0.388885,78.62153,3.778561)"/>
    <path d="M 530.20280,305.33280 L 520.67320,335.04650" id="path830" style="font-size:12.000000px;fill:none;fill-rule:evenodd;stroke:#000000;stroke-width:0.62500000" transform="matrix(0.382819,0.000000,0.000000,0.388885,78.62153,3.778561)"/>
    <path d="M 527.42250,304.98100 L 515.17260,333.68040" id="path828" style="font-size:12.000000px;fill:none;fill-rule:evenodd;stroke:#000000;stroke-width:0.62500000" transform="matrix(0.382819,0.000000,0.000000,0.388885,78.62153,3.778561)"/>
    <g id="g929" style="font-size:12.000000px;stroke:#000000" transform="matrix(-0.376148,-7.228361e-2,-7.115610e-2,0.382108,473.3515,40.42628)">
      <path d="M 471.90680,310.01440 L 458.22040,338.05720" id="path930" style="font-size:12.000000px;fill:none;fill-rule:evenodd;stroke:#000000;stroke-width:0.62500000;stroke-opacity:1.0000000"/>
      <path d="M 474.51040,309.81140 L 463.58540,339.04090" id="path931" style="font-size:12.000000px;fill:none;fill-rule:evenodd;stroke:#000000;stroke-width:0.62500000;stroke-opacity:1.0000000"/>
      <path d="M 475.84380,310.19400 L 466.31420,339.90770" id="path932" style="font-size:12.000000px;fill:none;fill-rule:evenodd;stroke:#000000;stroke-width:0.62500000;stroke-opacity:1.0000000"/>
      <path d="M 459.77870,335.48760 L 467.57400,335.82590" id="path933" style="font-size:12.000000px;fill:none;fill-rule:evenodd;stroke:#000000;stroke-width:0.69498700;stroke-opacity:1.0000000"/>
      <path d="M 461.10450,332.83570 L 468.45780,333.17400" id="path934" style="font-size:12.000000px;fill:none;fill-rule:evenodd;stroke:#000000;stroke-width:0.67499697;stroke-opacity:1.0000000"/>
      <path d="M 461.98840,330.18420 L 469.34170,330.52250" id="path935" style="font-size:12.000000px;fill:none;fill-rule:evenodd;stroke:#000000;stroke-width:0.67499900;stroke-opacity:1.0000000"/>
      <path d="M 462.87220,328.19550 L 470.22550,328.53380" id="path936" style="font-size:12.000000px;fill:none;fill-rule:evenodd;stroke:#000000;stroke-width:0.67499799;stroke-opacity:1.0000000"/>
      <path d="M 463.97700,325.98570 L 470.66740,326.54490" id="path937" style="font-size:12.000000px;fill:none;fill-rule:evenodd;stroke:#000000;stroke-width:0.82779503;stroke-opacity:1.0000000"/>
      <path d="M 465.08170,323.77590 L 471.10930,324.11420" id="path938" style="font-size:12.000000px;fill:none;fill-rule:evenodd;stroke:#000000;stroke-width:0.61112499;stroke-opacity:1.0000000"/>
      <path d="M 465.96560,321.56610 L 472.43500,321.90440" id="path939" style="font-size:12.000000px;fill:none;fill-rule:evenodd;stroke:#000000;stroke-width:0.63313198;stroke-opacity:1.0000000"/>
      <path d="M 467.29140,319.35630 L 472.87700,319.69460" id="path940" style="font-size:12.000000px;fill:none;fill-rule:evenodd;stroke:#000000;stroke-width:0.58829498;stroke-opacity:1.0000000"/>
      <path d="M 468.17520,317.36750 L 473.31890,317.70580" id="path941" style="font-size:12.000000px;fill:none;fill-rule:evenodd;stroke:#000000;stroke-width:0.56454003;stroke-opacity:1.0000000"/>
      <path d="M 469.05900,315.59960 L 473.98170,315.93790" id="path942" style="font-size:12.000000px;fill:none;fill-rule:evenodd;stroke:#000000;stroke-width:0.55228198;stroke-opacity:1.0000000"/>
      <path d="M 469.94280,314.05270 L 474.86550,314.39100" id="path943" style="font-size:12.000000px;fill:none;fill-rule:evenodd;stroke:#000000;stroke-width:0.55228198;stroke-opacity:1.0000000"/>
      <path d="M 470.38480,312.72670 L 475.08650,313.28600" id="path944" style="font-size:12.000000px;fill:none;fill-rule:evenodd;stroke:#000000;stroke-width:0.69397497;stroke-opacity:1.0000000"/>
      <path d="M 472.84260,309.84230 L 460.59270,338.54170" id="path945" style="font-size:12.000000px;fill:none;fill-rule:evenodd;stroke:#000000;stroke-width:0.62500000;stroke-opacity:1.0000000"/>
    </g>
    <g id="g859" style="font-size:12.000000px;stroke:#000000" transform="matrix(0.302183,-5.240342e-2,5.716407e-2,0.277016,110.3383,63.55140)">
      <path d="M 471.90680,310.01440 L 458.22040,338.05720" id="path843" style="font-size:12.000000px;fill:none;fill-rule:evenodd;stroke:#000000;stroke-width:0.62500000;stroke-opacity:1.0000000"/>
      <path d="M 474.51040,309.81140 L 463.58540,339.04090" id="path844" style="font-size:12.000000px;fill:none;fill-rule:evenodd;stroke:#000000;stroke-width:0.62500000;stroke-opacity:1.0000000"/>
      <path d="M 475.84380,310.19400 L 466.31420,339.90770" id="path845" style="font-size:12.000000px;fill:none;fill-rule:evenodd;stroke:#000000;stroke-width:0.62500000;stroke-opacity:1.0000000"/>
      <path d="M 459.77870,335.48760 L 467.57400,335.82590" id="path846" style="font-size:12.000000px;fill:none;fill-rule:evenodd;stroke:#000000;stroke-width:0.69498700;stroke-opacity:1.0000000"/>
      <path d="M 461.10450,332.83570 L 468.45780,333.17400" id="path847" style="font-size:12.000000px;fill:none;fill-rule:evenodd;stroke:#000000;stroke-width:0.67499697;stroke-opacity:1.0000000"/>
      <path d="M 461.98840,330.18420 L 469.34170,330.52250" id="path848" style="font-size:12.000000px;fill:none;fill-rule:evenodd;stroke:#000000;stroke-width:0.67499900;stroke-opacity:1.0000000"/>
      <path d="M 462.87220,328.19550 L 470.22550,328.53380" id="path849" style="font-size:12.000000px;fill:none;fill-rule:evenodd;stroke:#000000;stroke-width:0.67499799;stroke-opacity:1.0000000"/>
      <path d="M 463.97700,325.98570 L 470.66740,326.54490" id="path850" style="font-size:12.000000px;fill:none;fill-rule:evenodd;stroke:#000000;stroke-width:0.82779503;stroke-opacity:1.0000000"/>
      <path d="M 465.08170,323.77590 L 471.10930,324.11420" id="path851" style="font-size:12.000000px;fill:none;fill-rule:evenodd;stroke:#000000;stroke-width:0.61112499;stroke-opacity:1.0000000"/>
      <path d="M 465.96560,321.56610 L 472.43500,321.90440" id="path852" style="font-size:12.000000px;fill:none;fill-rule:evenodd;stroke:#000000;stroke-width:0.63313198;stroke-opacity:1.0000000"/>
      <path d="M 467.29140,319.35630 L 472.87700,319.69460" id="path853" style="font-size:12.000000px;fill:none;fill-rule:evenodd;stroke:#000000;stroke-width:0.58829498;stroke-opacity:1.0000000"/>
      <path d="M 468.17520,317.36750 L 473.31890,317.70580" id="path854" style="font-size:12.000000px;fill:none;fill-rule:evenodd;stroke:#000000;stroke-width:0.56454003;stroke-opacity:1.0000000"/>
      <path d="M 469.05900,315.59960 L 473.98170,315.93790" id="path855" style="font-size:12.000000px;fill:none;fill-rule:evenodd;stroke:#000000;stroke-width:0.55228198;stroke-opacity:1.0000000"/>
      <path d="M 469.94280,314.05270 L 474.86550,314.39100" id="path856" style="font-size:12.000000px;fill:none;fill-rule:evenodd;stroke:#000000;stroke-width:0.55228198;stroke-opacity:1.0000000"/>
      <path d="M 470.38480,312.72670 L 475.08650,313.28600" id="path857" style="font-size:12.000000px;fill:none;fill-rule:evenodd;stroke:#000000;stroke-width:0.69397497;stroke-opacity:1.0000000"/>
      <path d="M 472.84260,309.84230 L 460.59270,338.54170" id="path858" style="font-size:12.000000px;fill:none;fill-rule:evenodd;stroke:#000000;stroke-width:0.62500000;stroke-opacity:1.0000000"/>
    </g>
    <g id="g912" style="font-size:12.000000px;stroke:#000000" transform="matrix(-0.371494,-3.183678e-2,-3.133351e-2,0.377461,478.3565,20.56833)">
      <path d="M 471.90680,310.01440 L 458.22040,338.05720" id="path913" style="font-size:12.000000px;fill:none;fill-rule:evenodd;stroke:#000000;stroke-width:0.62500000;stroke-opacity:1.0000000"/>
      <path d="M 474.51040,309.81140 L 463.58540,339.04090" id="path914" style="font-size:12.000000px;fill:none;fill-rule:evenodd;stroke:#000000;stroke-width:0.62500000;stroke-opacity:1.0000000"/>
      <path d="M 475.84380,310.19400 L 466.31420,339.90770" id="path915" style="font-size:12.000000px;fill:none;fill-rule:evenodd;stroke:#000000;stroke-width:0.62500000;stroke-opacity:1.0000000"/>
      <path d="M 459.77870,335.48760 L 467.57400,335.82590" id="path916" style="font-size:12.000000px;fill:none;fill-rule:evenodd;stroke:#000000;stroke-width:0.69498700;stroke-opacity:1.0000000"/>
      <path d="M 461.10450,332.83570 L 468.45780,333.17400" id="path917" style="font-size:12.000000px;fill:none;fill-rule:evenodd;stroke:#000000;stroke-width:0.67499697;stroke-opacity:1.0000000"/>
      <path d="M 461.98840,330.18420 L 469.34170,330.52250" id="path918" style="font-size:12.000000px;fill:none;fill-rule:evenodd;stroke:#000000;stroke-width:0.67499900;stroke-opacity:1.0000000"/>
      <path d="M 462.87220,328.19550 L 470.22550,328.53380" id="path919" style="font-size:12.000000px;fill:none;fill-rule:evenodd;stroke:#000000;stroke-width:0.67499799;stroke-opacity:1.0000000"/>
      <path d="M 463.97700,325.98570 L 470.66740,326.54490" id="path920" style="font-size:12.000000px;fill:none;fill-rule:evenodd;stroke:#000000;stroke-width:0.82779503;stroke-opacity:1.0000000"/>
      <path d="M 465.08170,323.77590 L 471.10930,324.11420" id="path921" style="font-size:12.000000px;fill:none;fill-rule:evenodd;stroke:#000000;stroke-width:0.61112499;stroke-opacity:1.0000000"/>
      <path d="M 465.96560,321.56610 L 472.43500,321.90440" id="path922" style="font-size:12.000000px;fill:none;fill-rule:evenodd;stroke:#000000;stroke-width:0.63313198;stroke-opacity:1.0000000"/>
      <path d="M 467.29140,319.35630 L 472.87700,319.69460" id="path923" style="font-size:12.000000px;fill:none;fill-rule:evenodd;stroke:#000000;stroke-width:0.58829498;stroke-opacity:1.0000000"/>
      <path d="M 468.17520,317.36750 L 473.31890,317.70580" id="path924" style="font-size:12.000000px;fill:none;fill-rule:evenodd;stroke:#000000;stroke-width:0.56454003;stroke-opacity:1.0000000"/>
      <path d="M 469.05900,315.59960 L 473.98170,315.93790" id="path925" style="font-size:12.000000px;fill:none;fill-rule:evenodd;stroke:#000000;stroke-width:0.55228198;stroke-opacity:1.0000000"/>
      <path d="M 469.94280,314.05270 L 474.86550,314.39100" id="path926" style="font-size:12.000000px;fill:none;fill-rule:evenodd;stroke:#000000;stroke-width:0.55228198;stroke-opacity:1.0000000"/>
      <path d="M 470.38480,312.72670 L 475.08650,313.28600" id="path927" style="font-size:12.000000px;fill:none;fill-rule:evenodd;stroke:#000000;stroke-width:0.69397497;stroke-opacity:1.0000000"/>
      <path d="M 472.84260,309.84230 L 460.59270,338.54170" id="path928" style="font-size:12.000000px;fill:none;fill-rule:evenodd;stroke:#000000;stroke-width:0.62500000;stroke-opacity:1.0000000"/>
    </g>
    <g id="g876" style="font-size:12.000000px;stroke:#000000" transform="matrix(0.381465,-3.268433e-2,3.217451e-2,0.387509,99.42419,18.28708)">
      <path d="M 471.90680,310.01440 L 458.22040,338.05720" id="path877" style="font-size:12.000000px;fill:none;fill-rule:evenodd;stroke:#000000;stroke-width:0.62500000;stroke-opacity:1.0000000"/>
      <path d="M 474.51040,309.81140 L 463.58540,339.04090" id="path878" style="font-size:12.000000px;fill:none;fill-rule:evenodd;stroke:#000000;stroke-width:0.62500000;stroke-opacity:1.0000000"/>
      <path d="M 475.84380,310.19400 L 466.31420,339.90770" id="path879" style="font-size:12.000000px;fill:none;fill-rule:evenodd;stroke:#000000;stroke-width:0.62500000;stroke-opacity:1.0000000"/>
      <path d="M 459.77870,335.48760 L 467.57400,335.82590" id="path880" style="font-size:12.000000px;fill:none;fill-rule:evenodd;stroke:#000000;stroke-width:0.69498700;stroke-opacity:1.0000000"/>
      <path d="M 461.10450,332.83570 L 468.45780,333.17400" id="path881" style="font-size:12.000000px;fill:none;fill-rule:evenodd;stroke:#000000;stroke-width:0.67499697;stroke-opacity:1.0000000"/>
      <path d="M 461.98840,330.18420 L 469.34170,330.52250" id="path882" style="font-size:12.000000px;fill:none;fill-rule:evenodd;stroke:#000000;stroke-width:0.67499900;stroke-opacity:1.0000000"/>
      <path d="M 462.87220,328.19550 L 470.22550,328.53380" id="path883" style="font-size:12.000000px;fill:none;fill-rule:evenodd;stroke:#000000;stroke-width:0.67499799;stroke-opacity:1.0000000"/>
      <path d="M 463.97700,325.98570 L 470.66740,326.54490" id="path884" style="font-size:12.000000px;fill:none;fill-rule:evenodd;stroke:#000000;stroke-width:0.82779503;stroke-opacity:1.0000000"/>
      <path d="M 465.08170,323.77590 L 471.10930,324.11420" id="path885" style="font-size:12.000000px;fill:none;fill-rule:evenodd;stroke:#000000;stroke-width:0.61112499;stroke-opacity:1.0000000"/>
      <path d="M 465.96560,321.56610 L 472.43500,321.90440" id="path886" style="font-size:12.000000px;fill:none;fill-rule:evenodd;stroke:#000000;stroke-width:0.63313198;stroke-opacity:1.0000000"/>
      <path d="M 467.29140,319.35630 L 472.87700,319.69460" id="path887" style="font-size:12.000000px;fill:none;fill-rule:evenodd;stroke:#000000;stroke-width:0.58829498;stroke-opacity:1.0000000"/>
      <path d="M 468.17520,317.36750 L 473.31890,317.70580" id="path888" style="font-size:12.000000px;fill:none;fill-rule:evenodd;stroke:#000000;stroke-width:0.56454003;stroke-opacity:1.0000000"/>
      <path d="M 469.05900,315.59960 L 473.98170,315.93790" id="path889" style="font-size:12.000000px;fill:none;fill-rule:evenodd;stroke:#000000;stroke-width:0.55228198;stroke-opacity:1.0000000"/>
      <path d="M 469.94280,314.05270 L 474.86550,314.39100" id="path890" style="font-size:12.000000px;fill:none;fill-rule:evenodd;stroke:#000000;stroke-width:0.55228198;stroke-opacity:1.0000000"/>
      <path d="M 470.38480,312.72670 L 475.08650,313.28600" id="path891" style="font-size:12.000000px;fill:none;fill-rule:evenodd;stroke:#000000;stroke-width:0.69397497;stroke-opacity:1.0000000"/>
      <path d="M 472.84260,309.84230 L 460.59270,338.54170" id="path892" style="font-size:12.000000px;fill:none;fill-rule:evenodd;stroke:#000000;stroke-width:0.62500000;stroke-opacity:1.0000000"/>
    </g>
    <g id="g893" style="font-size:12.000000px;stroke:#000000" transform="matrix(-0.381465,-3.268431e-2,-3.217448e-2,0.387509,476.5936,17.85740)">
      <path d="M 471.90680,310.01440 L 458.22040,338.05720" id="path894" style="font-size:12.000000px;fill:none;fill-rule:evenodd;stroke:#000000;stroke-width:0.62500000;stroke-opacity:1.0000000"/>
      <path d="M 474.51040,309.81140 L 463.58540,339.04090" id="path895" style="font-size:12.000000px;fill:none;fill-rule:evenodd;stroke:#000000;stroke-width:0.62500000;stroke-opacity:1.0000000"/>
      <path d="M 475.84380,310.19400 L 466.31420,339.90770" id="path896" style="font-size:12.000000px;fill:none;fill-rule:evenodd;stroke:#000000;stroke-width:0.62500000;stroke-opacity:1.0000000"/>
      <path d="M 459.77870,335.48760 L 467.57400,335.82590" id="path897" style="font-size:12.000000px;fill:none;fill-rule:evenodd;stroke:#000000;stroke-width:0.69498700;stroke-opacity:1.0000000"/>
      <path d="M 461.10450,332.83570 L 468.45780,333.17400" id="path898" style="font-size:12.000000px;fill:none;fill-rule:evenodd;stroke:#000000;stroke-width:0.67499697;stroke-opacity:1.0000000"/>
      <path d="M 461.98840,330.18420 L 469.34170,330.52250" id="path899" style="font-size:12.000000px;fill:none;fill-rule:evenodd;stroke:#000000;stroke-width:0.67499900;stroke-opacity:1.0000000"/>
      <path d="M 462.87220,328.19550 L 470.22550,328.53380" id="path900" style="font-size:12.000000px;fill:none;fill-rule:evenodd;stroke:#000000;stroke-width:0.67499799;stroke-opacity:1.0000000"/>
      <path d="M 463.97700,325.98570 L 470.66740,326.54490" id="path903" style="font-size:12.000000px;fill:none;fill-rule:evenodd;stroke:#000000;stroke-width:0.82779503;stroke-opacity:1.0000000"/>
      <path d="M 465.08170,323.77590 L 471.10930,324.11420" id="path904" style="font-size:12.000000px;fill:none;fill-rule:evenodd;stroke:#000000;stroke-width:0.61112499;stroke-opacity:1.0000000"/>
      <path d="M 465.96560,321.56610 L 472.43500,321.90440" id="path905" style="font-size:12.000000px;fill:none;fill-rule:evenodd;stroke:#000000;stroke-width:0.63313198;stroke-opacity:1.0000000"/>
      <path d="M 467.29140,319.35630 L 472.87700,319.69460" id="path906" style="font-size:12.000000px;fill:none;fill-rule:evenodd;stroke:#000000;stroke-width:0.58829498;stroke-opacity:1.0000000"/>
      <path d="M 468.17520,317.36750 L 473.31890,317.70580" id="path907" style="font-size:12.000000px;fill:none;fill-rule:evenodd;stroke:#000000;stroke-width:0.56454003;stroke-opacity:1.0000000"/>
      <path d="M 469.05900,315.59960 L 473.98170,315.93790" id="path908" style="font-size:12.000000px;fill:none;fill-rule:evenodd;stroke:#000000;stroke-width:0.55228198;stroke-opacity:1.0000000"/>
      <path d="M 469.94280,314.05270 L 474.86550,314.39100" id="path909" style="font-size:12.000000px;fill:none;fill-rule:evenodd;stroke:#000000;stroke-width:0.55228198;stroke-opacity:1.0000000"/>
      <path d="M 470.38480,312.72670 L 475.08650,313.28600" id="path910" style="font-size:12.000000px;fill:none;fill-rule:evenodd;stroke:#000000;stroke-width:0.69397497;stroke-opacity:1.0000000"/>
      <path d="M 472.84260,309.84230 L 460.59270,338.54170" id="path911" style="font-size:12.000000px;fill:none;fill-rule:evenodd;stroke:#000000;stroke-width:0.62500000;stroke-opacity:1.0000000"/>
    </g>
    <path d="M 550.48830,303.75840 L 555.81350,298.63630 L 561.39160,303.75840 L 550.48830,303.75840 L 550.48830,303.75840 z " id="path821" style="font-size:12.000000px;fill:none;fill-rule:evenodd;stroke:#000000;stroke-width:0.63897300" transform="matrix(0.382819,0.000000,0.000000,0.388885,78.62153,3.778561)"/>
    <path d="M 498.43710,291.24540 L 505.61230,285.63440 L 513.12810,291.24540 L 498.43710,291.24540 L 498.43710,291.24540 z " id="path811" style="font-size:12.000000px;fill:none;fill-rule:evenodd;stroke:#000000;stroke-width:0.77628797" transform="matrix(0.382819,0.000000,0.000000,0.388885,78.62153,3.778561)"/>
    <path d="M 496.75180,276.68570 L 505.56180,271.07470 L 514.79010,276.68570 L 496.75180,276.68570 L 496.75180,276.68570 z " id="path812" style="font-size:12.000000px;fill:none;fill-rule:evenodd;stroke:#000000;stroke-width:0.86018997" transform="matrix(0.382819,0.000000,0.000000,0.388885,78.62153,3.778561)"/>
    <path d="M 525.43660,268.81720 L 533.22840,262.43250 L 541.39010,268.81720 L 525.43660,268.81720 L 525.43660,268.81720 z " id="path819" style="font-size:12.000000px;fill:none;fill-rule:evenodd;stroke:#000000;stroke-width:0.86293000" transform="matrix(0.382819,0.000000,0.000000,0.388885,78.62153,3.778561)"/>
    <path d="M 498.12120,263.54320 L 505.29640,256.10640 L 512.81220,263.54320 L 498.12120,263.54320 L 498.12120,263.54320 z " id="path994" style="font-size:12.000000px;fill:none;fill-rule:evenodd;stroke:#000000;stroke-width:0.89370698" transform="matrix(0.382819,0.000000,0.000000,0.388885,78.62153,3.778561)"/>
    <path d="M 498.84640,307.06900 L 506.02160,299.63220 L 513.53740,307.06900 L 498.84640,307.06900 L 498.84640,307.06900 z " id="path810" style="font-size:12.000000px;fill:none;fill-rule:evenodd;stroke:#000000;stroke-width:0.89370698" transform="matrix(0.382819,0.000000,0.000000,0.388885,78.62153,3.778561)"/>
    <rect height="80.486366" id="rect809" style="font-size:12.000000px;fill:#b30000;fill-rule:evenodd;stroke:#000000;stroke-width:0.78381097;stroke-linecap:round;stroke-linejoin:round" transform="matrix(0.382819,0.000000,0.000000,0.388885,78.62153,3.778561)" width="1.7092010" x="504.82770" y="252.21480"/>
    <path d="M 519.45340,291.16710 C 519.46280,291.50690 519.88760,293.17050 519.69400,293.54450 C 518.99270,294.79620 515.29000,295.85970 513.86680,294.55030 C 512.58320,295.75530 508.91850,295.72120 507.40590,294.48010 C 505.93070,295.75890 502.48920,295.85970 501.41590,294.63490 C 500.24400,295.84360 496.87260,294.82640 496.13310,293.59300 C 495.97220,293.32460 495.76240,291.71020 495.72700,291.13120 L 495.72700,291.13120 L 495.72700,291.13120 L 495.72700,291.13120 L 495.72700,291.13120 C 495.72700,291.13120 519.44390,291.16710 519.45340,291.16710 L 519.45340,291.16710 L 519.45340,291.16710 L 519.45340,291.16710 L 519.45340,291.16710 z " id="path804" style="font-size:12.000000px;fill:#ffffff;fill-rule:evenodd;stroke:#000000;stroke-width:0.77848101" transform="matrix(0.382819,0.000000,0.000000,0.388885,78.62153,3.778561)"/>
    <path d="M 518.51530,263.35680 C 518.52480,263.72090 518.95110,265.25750 518.75500,265.65830 C 518.04440,266.99970 514.29710,268.38510 512.85520,266.98210 C 511.55480,268.27330 507.84190,268.23670 506.30940,266.90680 C 504.81480,268.27710 501.32800,268.38510 500.24070,267.07270 C 499.05330,268.36790 495.31770,267.34030 494.57110,266.02350 C 494.40530,265.73100 494.51280,263.93880 494.47700,263.31830 L 494.47700,263.31830 L 494.47700,263.31830 L 494.47700,263.31830 L 494.47700,263.31830 C 494.47700,263.31830 518.50560,263.35680 518.51530,263.35680 L 518.51530,263.35680 L 518.51530,263.35680 L 518.51530,263.35680 L 518.51530,263.35680 z " id="path806" style="font-size:12.000000px;fill:#ffffff;fill-rule:evenodd;stroke:#000000;stroke-width:0.81112999" transform="matrix(0.382819,0.000000,0.000000,0.388885,78.62153,3.778561)"/>
    <path d="M 520.07520,276.47950 C 520.08530,276.81930 520.83200,278.48280 520.62320,278.85700 C 519.86650,280.10860 515.58330,281.17210 514.04780,279.86270 C 512.66300,281.06770 508.70920,281.03360 507.07720,279.79250 C 505.48570,281.07130 501.77260,281.17210 500.61470,279.94730 C 499.35030,281.15600 495.06630,280.45840 494.26420,279.21850 C 494.09480,278.95660 494.51520,277.02260 494.47700,276.44360 L 494.47700,276.44360 L 494.47700,276.44360 L 494.47700,276.44360 L 494.47700,276.44360 C 494.47700,276.44360 520.06490,276.47950 520.07520,276.47950 L 520.07520,276.47950 L 520.07520,276.47950 L 520.07520,276.47950 L 520.07520,276.47950 z " id="path805" style="font-size:12.000000px;fill:#ffffff;fill-rule:evenodd;stroke:#000000;stroke-width:0.80860603" transform="matrix(0.382819,0.000000,0.000000,0.388885,78.62153,3.778561)"/>
    <path d="M 521.00960,306.80020 C 521.02040,307.21300 521.14970,308.80900 520.92560,309.26340 C 520.11360,310.78380 516.18920,312.50010 514.54150,310.90960 C 513.05540,312.37330 508.81240,312.33190 507.06120,310.82440 C 505.35320,312.37770 501.36870,312.50010 500.12600,311.01240 C 498.76920,312.48050 495.37650,310.87040 493.96030,309.32230 C 493.70780,309.04620 493.58050,307.45990 493.53950,306.75660 L 493.53950,306.75660 L 493.53950,306.75660 L 493.53950,306.75660 L 493.53950,306.75660 C 493.53950,306.75660 520.99860,306.80020 521.00960,306.80020 L 521.00960,306.80020 L 521.00960,306.80020 L 521.00960,306.80020 L 521.00960,306.80020 z " id="path801" style="font-size:12.000000px;fill:#ffffff;fill-rule:evenodd;stroke:#000000;stroke-width:0.92317998" transform="matrix(0.382819,0.000000,0.000000,0.388885,78.62153,3.778561)"/>
    <path d="M 546.46870,284.96050 L 555.27870,279.34950 L 564.50700,284.96050 L 546.46870,284.96050 L 546.46870,284.96050 z " id="path813" style="font-size:12.000000px;fill:none;fill-rule:evenodd;stroke:#000000;stroke-width:0.86018997" transform="matrix(0.382819,0.000000,0.000000,0.388885,78.62153,3.778561)"/>
    <path d="M 525.22620,285.65100 L 533.01800,279.26630 L 541.17970,285.65100 L 525.22620,285.65100 L 525.22620,285.65100 z " id="path814" style="font-size:12.000000px;fill:none;fill-rule:evenodd;stroke:#000000;stroke-width:0.86293000" transform="matrix(0.382819,0.000000,0.000000,0.388885,78.62153,3.778561)"/>
    <path d="M 550.11880,263.89380 L 555.65910,259.34780 L 561.46250,263.89380 L 550.11880,263.89380 L 550.11880,263.89380 z " id="path815" style="font-size:12.000000px;fill:none;fill-rule:evenodd;stroke:#000000;stroke-width:0.61400098" transform="matrix(0.382819,0.000000,0.000000,0.388885,78.62153,3.778561)"/>
    <path d="M 527.17120,256.52900 L 532.71150,251.98300 L 538.51490,256.52900 L 527.17120,256.52900 L 527.17120,256.52900 z " id="path816" style="font-size:12.000000px;fill:none;fill-rule:evenodd;stroke:#000000;stroke-width:0.61400098" transform="matrix(0.382819,0.000000,0.000000,0.388885,78.62153,3.778561)"/>
    <path d="M 525.64700,301.58510 L 533.43880,295.20040 L 541.60050,301.58510 L 525.64700,301.58510 L 525.64700,301.58510 z " id="path820" style="font-size:12.000000px;fill:none;fill-rule:evenodd;stroke:#000000;stroke-width:0.86293000" transform="matrix(0.382819,0.000000,0.000000,0.388885,78.62153,3.778561)"/>
    <rect height="82.590622" id="rect817" style="font-size:12.000000px;fill:#b30000;fill-rule:evenodd;stroke:#000000;stroke-width:0.79399103;stroke-linecap:round;stroke-linejoin:round" transform="matrix(0.382819,0.000000,0.000000,0.388885,78.62153,3.778561)" width="1.7092010" x="532.39301" y="250.74170"/>
    <rect height="67.440231" id="rect818" style="font-size:12.000000px;fill:#b30000;fill-rule:evenodd;stroke:#000000;stroke-width:0.71748000;stroke-linecap:round;stroke-linejoin:round" transform="matrix(0.382819,0.000000,0.000000,0.388885,78.62153,3.778561)" width="1.7092010" x="555.11859" y="252.21449"/>
    <path d="M 568.30730,285.00760 C 568.31710,285.43030 568.74640,287.41550 567.91880,288.50690 C 566.56290,289.43760 565.85400,291.78390 561.86830,290.15530 C 560.53290,291.65410 556.71990,291.61150 555.45900,289.12850 C 553.92420,290.71930 550.65630,290.84460 549.53970,289.32110 C 548.32030,290.82450 544.97690,289.71940 544.03030,288.25420 C 544.04000,287.85150 543.65730,285.68310 543.62060,284.96290 L 543.62060,284.96290 L 543.62060,284.96290 L 543.62060,284.96290 L 543.62060,284.96290 C 543.62060,284.96290 568.29750,285.00760 568.30730,285.00760 L 568.30730,285.00760 L 568.30730,285.00760 L 568.30730,285.00760 L 568.30730,285.00760 L 568.30730,285.00760 L 568.30730,285.00760 z " id="path803" style="font-size:12.000000px;fill:#ffffff;fill-rule:evenodd;stroke:#000000;stroke-width:0.88562101" transform="matrix(0.382819,0.000000,0.000000,0.388885,78.62153,3.778561)"/>
    <path d="M 568.46430,264.15990 C 568.47300,264.54710 568.57630,266.57350 568.39720,266.99960 C 567.74830,268.42570 564.61210,269.50660 563.29520,268.01480 C 562.10770,269.38760 558.71700,269.34870 557.31730,267.93470 C 555.95250,269.39180 552.76810,269.50660 551.77510,268.11110 C 550.69080,269.48820 546.49990,268.71020 545.65820,267.36810 L 543.32530,266.58870 L 543.01220,263.66260 C 543.01220,263.66260 568.45550,264.15990 568.46430,264.15990 L 568.46430,264.15990 L 568.46430,264.15990 L 568.46430,264.15990 L 568.46430,264.15990 L 568.46430,264.15990 L 568.46430,264.15990 z " id="path802" style="font-size:12.000000px;fill:#ffffff;fill-rule:evenodd;stroke:#000000;stroke-width:0.79929399" transform="matrix(0.382819,0.000000,0.000000,0.388885,78.62153,3.778561)"/>
    <path d="M 566.49030,303.70600 C 566.49810,303.97480 566.59070,306.03370 566.43020,306.32950 C 565.84860,307.31960 563.03790,307.41790 561.85770,306.38220 C 560.79340,307.33530 557.75460,307.30830 556.50020,306.32660 C 555.27700,307.33820 552.42310,307.41790 551.53320,306.44910 C 550.56140,307.40510 547.64730,306.36040 546.89290,305.42850 C 546.90060,305.17250 546.84520,304.13560 546.81590,303.67760 L 546.81590,303.67760 L 546.81590,303.67760 L 546.81590,303.67760 L 546.81590,303.67760 C 546.81590,303.67760 566.48240,303.70600 566.49030,303.70600 L 566.49030,303.70600 L 566.49030,303.70600 L 566.49030,303.70600 z " id="path807" style="font-size:12.000000px;fill:#ffffff;fill-rule:evenodd;stroke:#000000;stroke-width:0.63047898" transform="matrix(0.382819,0.000000,0.000000,0.388885,78.62153,3.778561)"/>
    <path d="M 544.41390,301.46650 C 544.42240,301.92470 544.42560,308.10710 537.82240,304.46290 C 536.66770,306.08770 530.40450,306.22850 529.43910,304.57710 C 528.38470,306.20660 523.65770,305.71380 523.15230,304.75160 C 523.16070,304.31510 523.10050,302.19880 523.06880,301.41810 L 523.06880,301.41810 L 523.06880,301.41810 L 523.06880,301.41810 L 523.06880,301.41810 C 523.06880,301.41810 544.40540,301.46650 544.41390,301.46650 L 544.41390,301.46650 L 544.41390,301.46650 L 544.41390,301.46650 L 544.41390,301.46650 z " id="path800" style="font-size:12.000000px;fill:#ffffff;fill-rule:evenodd;stroke:#000000;stroke-width:0.85740399" transform="matrix(0.382819,0.000000,0.000000,0.388885,78.62153,3.778561)"/>
    <path d="M 542.95030,285.36170 C 542.95870,285.70160 542.74460,287.36530 542.57290,287.73930 C 541.95090,288.99090 539.25800,290.05450 537.99580,288.74510 C 536.85760,289.95010 533.60760,289.91590 532.26610,288.67480 C 530.95790,289.95370 527.90570,290.05450 526.95400,288.82970 C 525.91460,290.03830 523.42430,289.59200 522.61740,288.41390 C 522.62570,288.09020 521.94020,285.90480 521.90890,285.32580 L 521.90890,285.32580 L 521.90890,285.32580 L 521.90890,285.32580 L 521.90890,285.32580 C 521.90890,285.32580 542.94190,285.36170 542.95030,285.36170 L 542.95030,285.36170 L 542.95030,285.36170 L 542.95030,285.36170 z " id="path799" style="font-size:12.000000px;fill:#ffffff;fill-rule:evenodd;stroke:#000000;stroke-width:0.73311800" transform="matrix(0.382819,0.000000,0.000000,0.388885,78.62153,3.778561)"/>
    <path d="M 544.40540,268.42040 C 544.41460,268.80760 544.52360,271.14690 544.33470,271.57310 C 543.64980,272.99920 540.96620,273.76690 539.57640,272.27510 C 538.32310,273.64800 534.74470,273.60910 533.26760,272.19510 C 531.82720,273.65210 528.46660,273.76690 527.41870,272.37150 C 526.27430,273.74860 523.46910,272.65740 522.58060,271.31530 C 522.58970,270.94630 521.89820,269.03920 521.86370,268.37950 L 521.86370,268.37950 L 521.86370,268.37950 L 521.86370,268.37950 L 521.86370,268.37950 C 521.86370,268.37950 545.02230,268.42040 545.03160,268.42040 L 545.03160,268.42040 L 545.03160,268.42040 L 544.40540,268.42040 L 544.40540,268.42040 z " id="path797" style="font-size:12.000000px;fill:#ffffff;fill-rule:evenodd;stroke:#000000;stroke-width:0.82111400" transform="matrix(0.382819,0.000000,0.000000,0.388885,78.62153,3.778561)"/>
    <path d="M 543.36380,256.38800 C 543.37160,256.65680 543.46420,258.08940 543.30370,258.38530 C 542.72210,259.37540 539.91140,260.09990 538.73120,259.06420 C 537.66690,260.01730 534.62810,259.99030 533.37370,259.00860 C 532.15050,260.02020 529.29660,260.09990 528.40670,259.13110 C 527.43490,260.08710 525.14700,259.35550 524.39260,258.42370 C 524.40030,258.16760 523.71870,256.81760 523.68940,256.35960 L 523.68940,256.35960 L 523.68940,256.35960 L 523.68940,256.35960 L 523.68940,256.35960 C 523.68940,256.35960 543.35590,256.38800 543.36380,256.38800 L 543.36380,256.38800 L 543.36380,256.38800 L 543.36380,256.38800 z " id="path798" style="font-size:12.000000px;fill:#ffffff;fill-rule:evenodd;stroke:#000000;stroke-width:0.63047898" transform="matrix(0.382819,0.000000,0.000000,0.388885,78.62153,3.778561)"/>
    <path d="M 514.13770,330.62640 L 521.93300,330.96470" id="path831" style="font-size:12.000000px;fill:none;fill-rule:evenodd;stroke:#000000;stroke-width:0.69498700" transform="matrix(0.382819,0.000000,0.000000,0.388885,78.62153,3.778561)"/>
    <path d="M 515.46350,327.97450 L 522.81680,328.31280" id="path832" style="font-size:12.000000px;fill:none;fill-rule:evenodd;stroke:#000000;stroke-width:0.67499697" transform="matrix(0.382819,0.000000,0.000000,0.388885,78.62153,3.778561)"/>
    <path d="M 516.34740,325.32300 L 523.70070,325.66130" id="path833" style="font-size:12.000000px;fill:none;fill-rule:evenodd;stroke:#000000;stroke-width:0.67499900" transform="matrix(0.382819,0.000000,0.000000,0.388885,78.62153,3.778561)"/>
    <path d="M 517.23120,323.33430 L 524.58450,323.67260" id="path834" style="font-size:12.000000px;fill:none;fill-rule:evenodd;stroke:#000000;stroke-width:0.67499799" transform="matrix(0.382819,0.000000,0.000000,0.388885,78.62153,3.778561)"/>
    <path d="M 518.33600,321.12450 L 525.02640,321.68370" id="path835" style="font-size:12.000000px;fill:none;fill-rule:evenodd;stroke:#000000;stroke-width:0.82779503" transform="matrix(0.382819,0.000000,0.000000,0.388885,78.62153,3.778561)"/>
    <path d="M 519.44070,318.91470 L 525.46830,319.25300" id="path836" style="font-size:12.000000px;fill:none;fill-rule:evenodd;stroke:#000000;stroke-width:0.61112499" transform="matrix(0.382819,0.000000,0.000000,0.388885,78.62153,3.778561)"/>
    <path d="M 520.32460,316.70490 L 526.79400,317.04320" id="path837" style="font-size:12.000000px;fill:none;fill-rule:evenodd;stroke:#000000;stroke-width:0.63313198" transform="matrix(0.382819,0.000000,0.000000,0.388885,78.62153,3.778561)"/>
    <path d="M 521.65040,314.49510 L 527.23600,314.83340" id="path838" style="font-size:12.000000px;fill:none;fill-rule:evenodd;stroke:#000000;stroke-width:0.58829498" transform="matrix(0.382819,0.000000,0.000000,0.388885,78.62153,3.778561)"/>
    <path d="M 522.53420,312.50630 L 527.67790,312.84460" id="path839" style="font-size:12.000000px;fill:none;fill-rule:evenodd;stroke:#000000;stroke-width:0.56454003" transform="matrix(0.382819,0.000000,0.000000,0.388885,78.62153,3.778561)"/>
    <path d="M 523.41800,310.73840 L 528.34070,311.07670" id="path840" style="font-size:12.000000px;fill:none;fill-rule:evenodd;stroke:#000000;stroke-width:0.55228198" transform="matrix(0.382819,0.000000,0.000000,0.388885,78.62153,3.778561)"/>
    <path d="M 524.30180,309.19150 L 529.22450,309.52980" id="path841" style="font-size:12.000000px;fill:none;fill-rule:evenodd;stroke:#000000;stroke-width:0.55228198" transform="matrix(0.382819,0.000000,0.000000,0.388885,78.62153,3.778561)"/>
    <path d="M 524.74380,307.86550 L 529.44550,308.42480" id="path842" style="font-size:12.000000px;fill:none;fill-rule:evenodd;stroke:#000000;stroke-width:0.69397497" transform="matrix(0.382819,0.000000,0.000000,0.388885,78.62153,3.778561)"/>
    <g id="g948" style="font-size:12.000000px" transform="matrix(0.382819,0.000000,0.000000,0.388885,78.79154,-8.670671)">
      <path d="M 553.52170,351.39290 C 551.82690,354.10460 551.14890,356.47720 547.58990,356.30780 C 544.03080,356.13840 540.81070,356.30780 539.45480,358.34160 C 538.09900,360.37530 535.21780,364.44280 530.64190,364.95130 C 526.58720,365.41920 522.80620,365.58390 516.57510,365.29010 C 511.07020,365.03750 505.03710,364.30800 501.83030,363.42600 C 498.95280,362.48250 492.43160,359.33000 489.96670,358.17210 C 488.02520,357.12670 472.67970,348.00330 470.64590,347.66430 C 471.83230,350.03710 487.18290,359.26050 489.62770,361.05330 C 492.33940,362.91750 497.42380,367.15450 500.13550,369.69670 C 504.71150,373.42530 506.71030,376.77410 510.81270,375.96750 C 514.91120,375.19350 517.79770,374.65750 520.64260,374.95060 C 523.53510,375.06170 527.09880,375.36060 528.43860,375.62860 C 529.96390,375.96750 535.21500,376.28810 538.26850,375.79800 C 540.75820,375.56800 573.18140,375.12010 574.87620,374.61160 C 576.57100,374.10320 578.43530,369.01880 579.79110,369.18830 C 581.14690,369.35780 581.14690,365.45970 582.16380,363.76490 C 583.18070,362.07010 583.85860,359.69750 582.50280,358.68050 C 581.14690,357.66360 581.48580,356.13820 582.67220,354.61290 C 583.85860,353.08770 585.38390,350.37600 583.18070,350.71490 C 580.97740,351.05400 553.52170,351.56240 553.52170,351.39290 L 553.52170,351.39290 L 553.52170,351.39290 L 553.52170,351.39290 L 553.52170,351.39290 L 553.52170,351.39290 L 553.52170,351.39290 L 553.52170,351.39290 z " id="path949" style="fill:#7f0000;fill-opacity:1.0000000;fill-rule:evenodd;stroke:#000000;stroke-width:0.50000000;stroke-linecap:butt;stroke-linejoin:miter;stroke-dasharray:none;stroke-opacity:1.0000000"/>
      <rect height="4.5759602" id="rect950" style="font-size:12.000000px;fill:#cb0000;fill-opacity:1.0000000;fill-rule:evenodd;stroke-width:1.0000000" width="5.9318218" x="554.36902" y="353.59589"/>
      <rect height="4.5759602" id="rect951" style="font-size:12.000000px;fill:#cb0000;fill-opacity:1.0000000;fill-rule:evenodd;stroke-width:1.0000000" width="5.9318209" x="561.14819" y="353.59570"/>
      <rect height="4.5759602" id="rect952" style="font-size:12.000000px;fill:#cb0000;fill-opacity:1.0000000;fill-rule:evenodd;stroke-width:1.0000000" width="5.9318209" x="568.09680" y="353.59561"/>
      <rect height="4.5759602" id="rect953" style="font-size:12.000000px;fill:#cb0000;fill-opacity:1.0000000;fill-rule:evenodd;stroke-width:1.0000000" width="5.9318209" x="575.04547" y="353.59561"/>
      <rect height="6.1013050" id="rect954" style="font-size:12.000000px;fill:#cb0000;fill-opacity:1.0000000;fill-rule:evenodd;stroke-width:1.0000000" width="5.5928831" x="575.21472" y="359.86600"/>
      <rect height="6.1013050" id="rect955" style="font-size:12.000000px;fill:#cb0000;fill-opacity:1.0000000;fill-rule:evenodd;stroke-width:1.0000000" width="5.5928831" x="568.26599" y="359.69641"/>
      <rect height="6.1013050" id="rect956" style="font-size:12.000000px;fill:#cb0000;fill-opacity:1.0000000;fill-rule:evenodd;stroke-width:1.0000000" width="5.5928831" x="561.48669" y="359.86591"/>
      <rect height="6.1013050" id="rect957" style="font-size:12.000000px;fill:#cb0000;fill-opacity:1.0000000;fill-rule:evenodd;stroke-width:1.0000000" width="5.5928831" x="554.87689" y="359.69641"/>
      <rect height="8.1350727" id="rect958" style="font-size:12.000000px;fill:#cb0000;fill-opacity:1.0000000;fill-rule:evenodd;stroke-width:1.0000000" width="4.2370238" x="545.55542" y="357.83200"/>
      <path d="M 543.18340,359.01950 L 543.18340,365.96810 L 537.08210,365.96810 L 543.18340,359.01950 z " id="path959" style="fill:#cb0000;fill-opacity:1.0000000;fill-rule:evenodd;stroke:none;stroke-width:1.0000000pt;stroke-linecap:butt;stroke-linejoin:miter;stroke-opacity:1.0000000"/>
      <path d="M 504.37250,370.20520 C 507.59260,369.35780 512.16860,371.22200 513.01600,372.23890 C 514.37180,371.22200 521.15100,371.22200 523.18480,372.57790 C 525.38800,371.22210 532.33670,370.88310 534.37050,372.57790 C 536.57370,371.22200 543.86140,370.54400 545.38670,372.23890 C 547.58990,370.71370 554.19960,371.90000 554.19960,372.06940" id="path946" style="font-size:12.000000px;fill:none;fill-rule:evenodd;stroke:#00b800;stroke-width:1.0000000"/>
      <path d="M 580.17810,366.98170 L 568.90650,366.98170 C 568.90650,366.98170 514.42670,367.29480 509.73020,367.29480 C 505.03360,367.29480 496.57990,363.53760 496.57990,363.53760" id="path947" style="fill:none;fill-opacity:1.0000000;fill-rule:evenodd;stroke:#cd0000;stroke-width:0.87500000;stroke-linecap:butt;stroke-linejoin:miter;stroke-dasharray:none;stroke-opacity:1.0000000"/>
    </g>
  </g>
</svg>
