<?xml version="1.0" encoding="UTF-8" standalone="no"?>
<!DOCTYPE svg PUBLIC "-//W3C//DTD SVG 20010904//EN"
"http://www.w3.org/TR/2001/REC-SVG-20010904/DTD/svg10.dtd">
<!-- Created with Sodipodi ("http://www.sodipodi.com/") --><svg height="140mm" id="svg548" sodipodi:docbase="/home/scarlet/" sodipodi:docname="/home/scarlet/turks and caicos.svg" sodipodi:version="0.32" width="280mm" xmlns="http://www.w3.org/2000/svg" xmlns:sodipodi="http://sodipodi.sourceforge.net/DTD/sodipodi-0.dtd" xmlns:xlink="http://www.w3.org/1999/xlink">
  <metadata>
    <rdf:RDF xmlns:cc="http://web.resource.org/cc/" xmlns:dc="http://purl.org/dc/elements/1.1/" xmlns:rdf="http://www.w3.org/1999/02/22-rdf-syntax-ns#">
      <cc:Work rdf:about="">
        <dc:title>Turks and Caicos</dc:title>
        <dc:description></dc:description>
        <dc:subject>
          <rdf:Bag>
            <rdf:li></rdf:li>
            <rdf:li>united_kingdom</rdf:li>
            <rdf:li>caribbean</rdf:li>
            <rdf:li>america</rdf:li>
            <rdf:li>flag</rdf:li>
            <rdf:li>sign</rdf:li>
          </rdf:Bag>
        </dc:subject>
        <dc:publisher>
          <cc:Agent rdf:about="http://www.openclipart.org">
            <dc:title>Caleb Moore</dc:title>
          </cc:Agent>
        </dc:publisher>
        <dc:creator>
          <cc:Agent>
            <dc:title>Caleb Moore</dc:title>
          </cc:Agent>
        </dc:creator>
        <dc:rights>
          <cc:Agent>
            <dc:title>Caleb Moore</dc:title>
          </cc:Agent>
        </dc:rights>
        <dc:date></dc:date>
        <dc:format>image/svg+xml</dc:format>
        <dc:type rdf:resource="http://purl.org/dc/dcmitype/StillImage"/>
        <cc:license rdf:resource="http://web.resource.org/cc/PublicDomain"/>
        <dc:language>en</dc:language>
      </cc:Work>
      <cc:License rdf:about="http://web.resource.org/cc/PublicDomain">
        <cc:permits rdf:resource="http://web.resource.org/cc/Reproduction"/>
        <cc:permits rdf:resource="http://web.resource.org/cc/Distribution"/>
        <cc:permits rdf:resource="http://web.resource.org/cc/DerivativeWorks"/>
      </cc:License>
    </rdf:RDF>
  </metadata>
  <defs id="defs550"/>
  <sodipodi:namedview id="base" showgrid="true" snaptogrid="false"/>
  <rect height="496.0630" id="rect877" style="font-size:12;fill:#000066;stroke-width:1pt;" width="992.1260" x="0" y="-2.193451e-5"/>
  <g id="g878" style="font-size:12;" transform="matrix(8.267717,0.000000,0.000000,8.267722,0.000000,2.288818e-5)">
    <path d="M 0 0 L 0 3.3541 L 53.2918 30 L 60 30 L 60 26.6459 L 6.7082 0 L 0 0 z M 60 0 L 60 3.35405 L 6.7082 30 L 0 30 L 0 26.6458 L 53.2918 0 L 60 0 z " id="path879" style="font-size:12;fill:#ffffff;stroke-width:1pt;"/>
    <path d="M 25 0 L 25 30 L 35 30 L 35 0 L 25 0 z M 0 10 L 0 20 L 60 20 L 60 10 L 0 10 z " id="path880" style="font-size:12;fill:#ffffff;stroke-width:1pt;"/>
    <path d="M 0 12 L 0 18 L 60 18 L 60 12 L 0 12 z M 27 0 L 27 30 L 33 30 L 33 0 L 27 0 z " id="path881" style="font-size:12;fill:#cc0000;stroke-width:1pt;"/>
    <path d="M 0 30 L 20 20 L 24.4721 20 L 4.47214 30 L 0 30 z M 0 0 L 20 10 L 15.5279 10 L 0 2.23607 L 0 0 z M 35.5279 10 L 55.5279 0 L 60 0 L 40 10 L 35.5279 10 z M 60 30 L 40 20 L 44.4721 20 L 60 27.7639 L 60 30 z " id="path882" style="font-size:12;fill:#cc0000;stroke-width:1pt;"/>
  </g>
  <g id="g1244">
    <path d="M 177.166 715.748 C 177.165 715.748 0.000390381 609.45 0.000390381 485.434 L 0.000390381 308.268 L 354.331 308.268 L 354.331 485.434 C 354.331 609.45 177.166 715.748 177.166 715.748 z " id="path662" sodipodi:nodetypes="cccccc" style="font-size:12;fill:#ffffff;fill-opacity:0.996078;fill-rule:evenodd;stroke:#000000;stroke-width:1pt;" transform="matrix(0.700000,0.000000,0.000000,0.695652,612.2704,-85.95042)"/>
    <path d="M 177.166 715.748 C 177.165 715.748 0.000390381 609.45 0.000390381 485.434 L 0.000390381 308.268 L 354.331 308.268 L 354.331 485.434 C 354.331 609.45 177.166 715.748 177.166 715.748 z " id="path665" sodipodi:nodetypes="cccccc" style="font-size:12;fill:#fdc300;fill-opacity:0.996081;fill-rule:evenodd;stroke:#000000;stroke-width:1.31546;" transform="matrix(0.665000,0.000000,0.000000,0.661196,618.4713,-69.16639)"/>
    <g id="g666" style="font-size:12;" transform="matrix(1.388345,0.000000,0.000000,1.350697,557.6492,93.66605)">
      <path d="M 115.308 127.43 C 115.308 126.969 115.308 125.227 115.308 124.141 C 115.308 123.182 115.308 122.223 115.308 121.264 C 115.712 120.37 115.851 119.42 115.925 118.386 C 116.149 117.489 116.229 116.506 116.336 115.714 C 116.625 114.704 116.806 113.963 117.158 113.042 C 117.227 112.15 117.334 111.312 117.569 110.37 C 117.871 109.69 118.46 108.643 118.802 108.109 C 119.817 107.481 120.456 106.992 121.474 106.465 C 122.283 105.942 122.843 105.52 123.735 105.232 C 124.672 104.63 125.395 103.985 126.407 103.382 C 127.262 102.849 127.842 102.777 129.079 102.765 C 130.063 102.765 131.098 102.684 131.957 102.971 C 133.069 103.01 133.996 103.366 134.835 103.587 C 135.527 103.864 136.377 104.241 137.301 104.615 C 138.245 105.067 138.454 105.597 139.356 106.465 C 139.551 107.29 139.862 107.853 140.179 108.52 C 140.513 109.227 140.769 109.758 141.206 110.576 C 141.504 111.205 141.885 112.127 142.234 113.042 C 142.419 113.904 142.696 115.122 143.056 115.714 C 143.056 116.698 142.975 117.732 143.262 118.592 C 143.303 119.743 143.633 120.186 143.673 121.264 C 143.831 121.991 143.878 122.939 143.878 123.936 C 143.878 124.895 143.878 125.854 143.878 126.813 C 143.863 128.078 143.613 128.356 142.851 128.869 C 142.008 129.734 141.588 129.954 141.001 130.719 C 140.349 131.137 139.747 131.523 138.74 131.746 C 137.766 132.071 136.616 132.013 135.657 132.363 C 134.375 132.363 133.207 132.485 131.957 132.568 C 130.458 132.707 128.871 132.792 127.435 132.98 C 126.328 133.111 125.243 133.303 124.146 132.98 C 123.425 132.812 122.335 132.65 121.474 132.363 C 120.53 132.29 119.837 132.075 118.802 131.952 C 117.877 131.5 116.949 131.144 115.925 130.924 C 115.419 130.347 115.117 129.859 114.897 128.869 C 114.291 128.667 115.094 127.81 115.308 127.43 z " id="path650" style="fill:#850b18;fill-rule:evenodd;stroke:#e8666f;stroke-opacity:0.996081;stroke-width:1pt;stroke-linejoin:miter;stroke-linecap:butt;fill-opacity:1;"/>
      <path d="M 121.269 107.904 C 121.228 108.184 121.062 110.167 120.858 110.781 C 120.45 111.073 120.002 111.57 120.241 111.809 C 121.52 111.856 121.633 111.969 121.68 113.248 C 121.314 114.083 120.859 114.661 120.447 115.303 C 119.627 115.821 119.431 116.156 120.241 116.947 C 121.285 117.145 121.567 117.837 122.091 118.386 C 121.795 119.233 121.247 119.55 120.652 120.236 C 120.029 120.66 119.591 121.109 119.419 122.086 C 119.061 122.877 119.008 123.33 119.008 124.347 C 119.965 124.648 119.973 124.845 120.241 125.786 C 120.652 126.243 120.528 126.548 121.063 126.608 " id="path651" style="fill:none;fill-rule:evenodd;stroke:black;stroke-opacity:1;stroke-width:1pt;stroke-linejoin:miter;stroke-linecap:butt;fill-opacity:1;"/>
      <path d="M 134.629 128.663 C 134.603 128.576 134.218 127.556 134.218 126.813 C 133.896 126.193 133.807 125.106 133.807 124.141 C 133.684 123.234 133.346 122.417 132.985 121.469 C 132.495 120.607 132.212 119.842 131.957 119.003 C 131.667 117.843 131.925 117.406 132.163 116.536 C 132.933 116.259 133.181 116.884 134.012 117.359 C 134.405 118.293 134.604 118.732 134.629 117.359 C 134.259 116.815 133.996 115.995 133.807 115.303 C 133.348 114.773 133.144 114.036 132.574 113.453 C 132.331 112.552 131.98 111.715 131.546 110.781 C 131.484 110.056 131.181 109.418 131.546 108.931 C 132.573 109.002 133.57 109 134.012 109.548 C 134.461 109.847 134.425 110.477 134.629 110.987 C 134.925 110.395 134.828 109.324 134.629 108.726 C 134.541 108.229 134.239 107.883 134.629 107.493 C 135.713 107.533 136.231 107.846 137.095 108.109 C 137.475 108.976 137.815 109.42 138.329 109.959 C 138.583 110.72 139.016 111.129 139.356 111.809 C 139.626 112.358 140.167 113.492 140.59 114.07 C 140.66 114.99 140.824 115.753 141.001 116.742 C 141.245 117.443 141.444 118.576 141.823 119.414 C 141.823 120.373 141.823 121.332 141.823 122.291 C 141.823 123.328 141.916 124.22 142.028 125.169 C 142.139 125.989 142.234 126.794 142.234 127.841 C 142.19 129.086 141.898 129.426 141.206 129.897 C 140.497 130.581 140.175 130.704 138.945 130.719 C 137.997 130.606 137.105 130.513 136.068 130.513 C 135.037 130.458 134.834 130.145 134.218 129.691 L 136.068 130.513 C 135.037 130.458 134.834 130.145 134.629 128.663 z " id="path652" style="fill:#000700;fill-rule:evenodd;stroke:none;stroke-opacity:1;stroke-width:1.25;stroke-linejoin:miter;stroke-linecap:butt;fill-opacity:1;stroke-dasharray:none;"/>
      <path d="M 112.431 132.157 C 112.435 132.165 113.295 133.062 113.869 133.391 C 114.531 133.777 115.234 133.87 116.13 134.213 C 117.365 134.444 117.766 134.716 118.802 135.241 C 119.472 135.558 119.599 135.838 120.652 135.857 C 121.512 136.144 122.546 136.063 123.53 136.063 C 124.609 136.05 125.086 135.857 126.202 135.857 C 127.161 135.857 128.12 135.857 129.079 135.857 C 130.039 135.857 130.998 135.857 131.957 135.857 C 132.952 136.023 133.847 135.981 134.835 135.652 C 135.887 135.639 136.611 135.503 137.301 135.035 C 138.322 134.997 138.945 134.807 139.973 134.624 C 140.807 134.386 141.512 134.213 142.645 134.213 C 143.596 133.812 144.378 133.611 144.906 132.98 C 145.516 132.544 145.603 131.822 146.139 131.335 C 146.139 130.084 146.124 129.679 145.317 129.074 C 144.775 128.591 144.065 128.236 143.262 128.047 C 141.998 128.062 141.908 128.416 140.795 128.663 C 140.225 129.051 139.257 129.048 138.329 129.28 C 137.438 129.412 136.651 129.697 135.862 130.102 C 134.797 130.29 134.368 130.513 133.19 130.513 C 132.27 130.82 131.234 130.744 130.313 130.513 C 129.353 130.513 128.394 130.513 127.435 130.513 C 126.356 130.513 125.507 130.351 124.558 130.102 C 123.558 130.102 122.526 130.046 121.886 129.691 C 120.831 129.691 120.02 129.522 119.008 129.485 C 118.235 129.191 117.18 128.785 116.13 128.663 C 115.183 128.663 114.109 128.652 113.458 128.869 C 112.581 129.206 112.369 129.766 112.225 130.719 C 111.691 130.897 112.265 131.716 112.431 132.157 z " id="path649" style="fill:#850b18;fill-rule:evenodd;stroke:#e8666f;stroke-opacity:0.996081;stroke-width:1pt;stroke-linejoin:miter;stroke-linecap:butt;fill-opacity:1;"/>
      <path d="M 145.728 132.157 C 145.728 132.509 145.788 133.954 145.934 134.624 C 147.085 134.712 147.282 135.009 148.195 135.446 C 148.404 136.075 148.402 137.302 148.606 138.118 C 148.877 138.691 149.159 139.256 149.839 139.557 C 151.043 139.665 151.226 140.042 151.483 141.201 C 151.731 141.9 151.881 142.743 152.305 143.257 C 152.505 144.106 152.767 144.639 153.333 145.106 C 153.672 145.615 153.923 145.434 153.95 146.34 C 153.95 147.287 153.939 148.362 154.155 149.012 C 154.507 149.754 154.454 150.019 155.594 150.039 C 156.083 150.759 156.4 150.782 156.416 152.095 C 156.533 153.074 156.715 153.934 156.827 154.767 C 156.827 155.505 156.771 156.386 157.033 156.822 C 157.817 157.136 157.838 157.808 158.472 158.261 C 158.941 159.178 159.075 160.022 159.088 161.139 C 159.088 162.186 159.183 162.991 159.294 163.811 C 159.772 164.638 160.083 164.993 160.322 165.866 C 160.322 166.814 160.31 167.888 160.527 168.538 C 160.715 169.565 161.245 169.514 161.555 170.388 C 161.846 170.969 161.76 172.161 161.76 173.06 C 161.76 174.081 161.785 174.753 162.171 175.321 C 162.779 175.564 163.296 175.477 163.405 176.349 C 163.5 177.477 163.889 177.835 164.021 178.815 C 163.912 180.016 163.395 179.8 163.199 180.871 C 163.213 182.004 163.599 182.713 163.816 183.543 C 164.164 184.176 164.834 184.526 165.049 185.187 C 165.049 186.08 165.044 187.052 164.843 187.653 C 164.009 188.007 163.85 188.74 164.432 189.503 C 165.04 190.097 165.415 190.329 165.46 191.559 C 165.446 192.769 165.314 193.337 164.638 193.82 C 164.187 194.615 163.829 194.948 163.61 196.081 C 163.058 196.795 162.788 197.259 161.966 197.725 C 161.054 197.939 160.754 198.314 159.705 198.547 C 159.347 197.989 158.717 197.055 158.472 196.286 C 157.952 195.537 157.518 194.789 157.033 193.82 C 157.033 192.789 157.062 192.091 156.622 191.559 C 155.944 191.333 155.731 190.552 155.389 189.914 C 155.21 189.146 154.791 188.187 154.566 187.448 C 154.35 186.798 154.361 185.724 154.361 184.776 C 154.32 183.678 154.068 183.071 153.539 182.104 C 153.024 181.394 152.624 180.38 152.305 179.637 C 151.896 178.624 151.689 177.981 151.689 176.76 C 151.87 175.927 151.868 175.091 151.689 174.088 C 151.502 173.042 151.291 172.522 151.278 171.416 C 150.991 170.556 150.933 169.472 150.867 168.538 C 150.458 167.636 150.178 166.677 150.045 165.661 C 149.591 164.812 149.358 164.336 149.222 163.194 C 149.05 162.229 148.848 161.348 148.811 160.317 C 148.354 159.777 148.009 158.907 147.578 158.056 C 147.366 157.101 147.167 156.705 147.167 155.589 C 146.774 154.687 146.51 154.151 146.345 153.123 C 145.962 152.129 145.65 151.486 145.317 150.451 C 145.317 149.423 145.317 148.395 145.317 147.367 C 145.021 146.479 144.895 145.396 144.7 144.49 C 144.349 143.573 144.204 142.916 143.878 142.229 C 143.667 141.278 143.442 140.511 143.056 139.557 C 142.827 138.527 142.394 137.845 141.823 136.885 C 141.604 135.9 141.185 135.382 140.795 134.418 C 141.906 134.339 142.578 134.175 143.056 133.596 C 144.025 133.579 144.36 133.349 145.112 133.185 L 143.056 133.596 C 144.025 133.579 144.36 133.349 145.728 132.157 z " id="path643" style="fill:#000700;fill-rule:evenodd;stroke:#fdc300;stroke-opacity:0.996081;stroke-width:0.375;stroke-linejoin:miter;stroke-linecap:butt;fill-opacity:1;stroke-dasharray:none;"/>
      <path d="M 112.842 133.391 C 112.773 133.391 112.705 133.391 112.636 133.391 C 113.241 133.391 112.877 133.333 112.225 134.418 C 111.746 134.933 111.931 135.312 110.992 135.446 C 110.463 136.024 110.106 136.353 109.964 137.296 C 110.53 137.981 110.478 138.797 109.759 139.557 C 109.102 140.004 108.564 140.129 108.114 140.79 C 108.101 141.874 107.886 142.415 107.703 143.257 C 107.145 143.655 106.859 144.42 106.47 145.106 C 105.943 145.465 105.232 145.848 104.826 146.34 C 104.298 147.027 104.329 147.876 104.003 148.806 C 103.708 149.43 103.295 150.155 102.976 150.862 C 102.458 151.748 102.15 152.825 101.537 153.328 C 101.662 154.251 101.86 154.743 101.331 155.383 C 101.141 156.113 100.704 157.172 100.304 157.644 C 100.146 158.372 100.098 159.32 100.098 160.317 C 99.9457 161.329 99.5749 161.73 98.865 162.577 C 98.4588 163.364 98.1218 163.812 98.0428 164.838 C 98.6543 164.991 98.4539 165.387 98.4539 166.072 C 97.9681 166.948 97.7567 167.561 96.8096 168.127 C 96.4473 168.863 96.3985 169.705 96.3985 170.799 C 96.3985 171.758 96.3985 172.717 96.3985 173.677 C 96.6062 174.632 96.6693 175.169 95.9874 175.732 C 95.5517 176.501 95.2084 176.99 95.1652 178.199 C 95.4385 179.155 95.5763 179.971 95.5763 181.076 C 95.9896 181.627 95.6351 182.216 95.1652 182.515 C 94.6762 183.234 94.3589 183.257 94.3431 184.57 C 94.0675 185.397 94.1251 186.306 94.5486 187.242 C 94.5625 188.397 94.891 188.84 94.3431 189.503 C 94.0931 190.253 93.7678 190.812 93.7265 191.97 C 94.0132 192.687 94.1375 193.318 94.1375 194.436 C 94.2367 195.527 94.7022 195.626 95.3708 196.081 C 95.7927 196.962 96.2521 197.35 97.0151 197.725 C 97.6878 198.156 98.1442 198.621 99.0705 198.958 C 99.7055 198.958 100.371 199.011 100.715 198.753 C 100.92 198.137 100.991 196.846 101.331 196.286 C 101.511 195.511 101.831 194.598 101.948 193.614 C 102.286 193.057 102.478 191.742 102.77 191.148 C 103.124 190.23 103.476 189.433 103.798 188.681 C 104.103 188.036 104.429 187.218 104.62 186.215 C 104.792 185.25 104.994 184.369 105.031 183.337 C 105.322 182.756 105.237 181.564 105.237 180.665 C 105.708 179.848 106.059 179.484 106.47 178.815 C 107.144 177.934 107.463 177.27 107.703 176.349 C 107.703 175.389 107.703 174.43 107.703 173.471 C 108.233 172.538 108.475 171.881 108.936 171.005 C 108.936 170.045 108.936 169.086 108.936 168.127 C 109.162 167.113 109.517 166.509 109.964 165.661 C 110.282 164.92 110.455 164.059 110.786 163.194 C 110.826 162.078 111.185 161.332 111.403 160.317 C 111.811 159.413 112.036 158.432 112.225 157.439 C 112.524 156.655 112.768 155.826 113.253 154.972 C 113.637 154.17 113.993 153.639 114.486 153.123 C 114.65 152.204 114.692 151.267 114.692 150.245 C 114.692 149.286 114.692 148.327 114.692 147.367 C 114.692 146.21 114.816 145.43 115.308 144.49 C 115.6 143.76 115.846 143.154 116.336 142.64 C 116.515 141.816 116.734 140.869 116.747 139.762 C 116.786 138.679 117.104 137.845 117.569 137.296 C 117.719 136.305 118.12 136.055 118.391 135.241 C 118.822 134.953 119.067 134.331 119.213 133.596 C 118.363 133.411 117.574 133.473 116.541 133.596 C 115.423 133.596 114.792 133.472 114.075 133.185 C 113.859 132.536 113.758 132.902 112.842 133.391 z " id="path644" style="fill:#000700;fill-rule:evenodd;stroke:#fdc300;stroke-opacity:0.996081;stroke-width:0.375;stroke-linejoin:miter;stroke-linecap:butt;fill-opacity:1;stroke-dasharray:none;"/>
      <path d="M 116.747 134.007 C 116.678 134.007 116.61 134.007 116.541 134.007 C 117.116 134.007 116.772 133.945 116.336 135.035 C 115.83 136.762 115.072 138.305 114.075 139.762 C 113.542 140.658 113.079 141.718 112.431 142.229 C 112.154 143.258 111.761 143.48 111.608 144.49 C 111.264 145.113 111.056 146.122 110.992 146.956 C 110.98 148.137 110.71 148.954 110.581 150.039 C 110.231 151.289 110.09 152.834 109.964 154.15 C 109.524 155.727 109.577 157.474 109.348 159.083 C 108.884 160.445 108.793 162.148 108.525 163.605 C 107.795 164.908 107.195 166.387 106.676 167.716 C 106.228 168.821 105.91 169.746 105.648 171.005 C 105.232 172.294 104.909 173.318 104.826 174.704 C 104.446 176.075 104.522 177.778 104.209 179.226 C 103.944 180.417 104.003 181.669 104.003 182.926 C 103.419 183.487 103.062 184.409 102.565 185.392 C 102.384 186.514 101.909 187.321 101.743 188.27 C 101.512 188.731 101.537 189.576 101.537 190.325 C 101.379 191.211 101.41 192.352 101.126 193.203 C 101.003 194.237 100.787 194.931 100.715 195.875 C 100.576 196.512 100.509 197.247 100.509 198.136 C 101.183 198.628 101.727 199.012 102.154 199.986 C 102.814 200.712 102.936 201.425 103.798 202.041 C 104.268 202.439 105.391 202.815 106.059 203.069 C 107.007 203.35 107.634 203.566 108.32 203.891 C 109.253 204.032 109.588 204.302 110.786 204.302 C 111.381 203.895 112.058 203.851 112.431 203.274 C 112.878 202.773 113.094 201.754 113.458 201.219 C 113.572 200.25 113.701 199.114 113.869 198.341 C 113.869 197.162 113.888 196.564 114.486 195.875 C 114.881 194.933 115.21 194.372 115.514 193.614 C 115.917 192.69 116.127 192.233 116.336 191.148 C 116.494 190.42 116.541 189.472 116.541 188.476 C 116.554 187.43 116.718 186.537 116.953 185.598 C 117.343 184.634 117.757 183.762 117.98 182.72 C 118.423 181.741 118.583 181.18 118.597 180.048 C 118.597 178.997 118.404 178.208 118.391 177.171 C 118.391 176.075 118.391 174.978 118.391 173.882 C 118.427 172.87 118.597 172.059 118.597 171.005 C 118.597 170.045 118.597 169.086 118.597 168.127 C 118.597 167.168 118.597 166.209 118.597 165.249 C 118.719 164.224 119.005 163.346 119.213 162.372 C 119.5 161.512 119.419 160.478 119.419 159.494 C 119.419 158.44 119.588 157.628 119.625 156.617 C 119.788 155.638 119.862 154.509 120.036 153.534 C 120.382 152.594 120.665 151.666 120.858 150.656 C 121.075 150.006 121.063 148.932 121.063 147.984 C 121.419 147.02 121.572 145.968 121.68 144.901 C 121.68 143.809 121.545 143.148 121.474 142.229 C 121.487 141.138 121.764 140.369 121.886 139.351 C 122.152 138.385 122.386 137.336 122.502 136.474 C 123.128 135.754 123.417 135.355 123.53 134.418 C 122.843 134.002 122.911 133.802 121.886 133.802 C 121.464 134.325 120.779 134.213 119.83 134.213 C 119.393 133.876 118.272 133.609 117.775 133.391 L 119.83 134.213 C 119.393 133.876 118.272 133.609 116.747 134.007 z " id="path646" style="fill:#000700;fill-rule:evenodd;stroke:#fdc300;stroke-opacity:0.996081;stroke-width:0.375;stroke-linejoin:miter;stroke-linecap:butt;fill-opacity:1;stroke-dasharray:none;"/>
      <path d="M 135.451 136.063 C 135.722 136.248 136.556 136.981 136.684 137.707 C 137.162 138.328 137.234 139.308 137.301 140.174 C 137.079 141.171 136.89 141.656 136.89 142.846 C 136.89 143.805 136.89 144.764 136.89 145.723 C 136.89 146.888 136.994 147.393 137.507 147.984 C 137.507 148.943 137.507 149.902 137.507 150.862 C 137.846 151.506 137.918 152.316 137.918 153.328 C 137.918 154.451 138.021 155.248 138.329 156.206 C 138.797 156.895 138.83 157.755 139.151 158.672 C 139.151 159.764 139.286 160.425 139.356 161.344 C 139.394 162.354 139.562 162.898 139.562 164.016 C 139.562 164.975 139.562 165.935 139.562 166.894 C 139.811 167.844 139.973 168.692 139.973 169.771 C 140.015 170.956 140.363 171.424 140.59 172.443 C 140.806 173.094 140.795 174.168 140.795 175.115 C 140.523 176.204 140.552 176.913 141.001 177.787 C 141.209 178.552 141.414 179.252 141.823 180.048 C 142.178 180.895 142.399 181.586 142.44 182.72 C 142.552 183.669 142.645 184.561 142.645 185.598 C 143.088 186.233 143.299 187.328 143.467 188.27 C 143.69 189.161 143.673 190.142 143.673 191.148 C 143.745 192.092 143.961 192.785 144.084 193.82 C 144.084 194.779 144.084 195.738 144.084 196.697 C 144.15 197.619 144.365 198.763 144.7 199.369 C 144.829 200.32 145.097 200.844 145.317 201.836 C 145.922 202.613 145.986 203.065 146.756 203.686 C 147.588 203.878 148.269 204.229 149.222 204.302 C 150.169 204.174 150.766 203.914 151.278 203.274 C 152.055 203.132 152.806 202.766 153.539 202.452 C 154.52 202.377 155.12 202.157 155.8 201.836 C 156.651 200.912 156.881 200.493 157.65 199.575 C 158.053 198.732 158.463 198.356 159.088 197.93 C 159.393 197.286 159.667 196.737 159.705 195.669 C 159.211 195.031 158.967 194.107 158.472 193.203 C 158.246 192.352 157.841 191.279 157.444 190.325 C 157.316 189.158 157.159 187.937 156.827 186.831 C 156.635 185.805 156.594 184.696 156.211 183.748 C 155.978 182.752 155.813 181.76 155.8 180.665 C 155.41 179.528 155.115 178.216 154.978 176.965 C 154.679 175.784 154.444 174.591 153.95 173.471 C 153.731 172.45 153.419 171.5 152.922 170.594 C 152.613 169.253 152.249 167.985 151.689 166.688 C 151.518 165.298 151.311 163.895 150.867 162.577 C 150.631 161.568 150.661 160.418 150.661 159.289 C 150.54 158.271 150.232 157.397 150.045 156.411 C 149.886 155.056 149.483 153.801 149.222 152.506 C 148.991 151.284 148.643 150.514 148.4 149.423 C 147.777 148.377 147.446 147.558 146.756 146.545 C 146.535 145.514 146.126 144.428 145.728 143.462 C 145.417 142.495 145.128 141.505 144.7 140.585 C 144.53 139.85 144.275 138.804 143.878 138.324 C 143.676 137.581 143.299 136.861 143.056 136.063 C 142.643 135.586 142.27 134.714 141.823 134.213 C 141.632 133.448 141.386 134.005 141.001 134.213 C 140.599 134.699 139.635 135.074 138.945 135.446 C 138.229 135.733 137.597 135.857 136.479 135.857 L 138.945 135.446 C 138.229 135.733 137.597 135.857 135.451 136.063 z " id="path645" style="fill:#000700;fill-rule:evenodd;stroke:#fdc300;stroke-opacity:0.996081;stroke-width:0.375;stroke-linejoin:miter;stroke-linecap:butt;fill-opacity:1;stroke-dasharray:none;" transform="translate(0.000000,-3.051758e-5)"/>
      <path d="M 122.297 134.829 C 122.297 135.254 122.297 137.075 122.297 138.118 C 122.245 139.344 122.091 140.356 122.091 141.612 C 122.055 142.622 121.723 143.572 121.474 144.284 C 121.371 145.052 121.348 146.103 121.063 146.956 C 121.063 148.048 120.929 148.709 120.858 149.628 C 120.593 150.687 120.53 151.4 120.241 152.506 C 119.961 153.532 119.643 154.546 119.419 155.589 C 118.973 156.575 118.79 157.841 118.391 158.878 C 118.292 160.114 118.186 161.297 118.186 162.577 C 117.949 163.526 117.98 164.593 117.98 165.661 C 117.98 166.688 117.98 167.716 117.98 168.744 C 117.98 169.909 118.106 171.207 117.775 172.238 C 117.654 173.328 117.357 174.276 117.158 175.321 C 116.995 176.301 116.953 177.321 116.953 178.404 C 116.953 179.432 116.953 180.459 116.953 181.487 C 116.953 182.603 116.785 183.497 116.747 184.57 C 116.634 185.52 116.502 186.518 116.336 187.448 C 115.964 188.366 115.857 189.395 115.514 190.325 C 115.406 191.23 115.263 192.395 114.897 192.997 C 114.861 194.009 114.692 194.821 114.692 195.875 C 114.528 196.794 114.486 197.73 114.486 198.753 C 114.171 199.699 114.087 200.386 114.075 201.425 C 114.075 202.543 114.199 203.174 114.486 203.891 C 115.066 204.613 115.891 204.997 116.336 205.535 C 117.357 205.907 117.449 206.269 118.597 206.358 C 119.247 206.574 120.321 206.563 121.269 206.563 C 122.228 206.563 123.187 206.563 124.146 206.563 C 125.106 206.563 126.065 206.563 127.024 206.563 C 128.112 206.364 128.049 205.834 128.463 204.713 C 128.899 204.071 129.196 202.881 129.696 202.041 C 129.878 201.255 130.107 200.444 130.107 199.369 C 130.064 198.2 129.663 198.091 129.285 197.108 C 129.047 196.043 129.285 195.178 129.285 194.025 C 129.322 193.015 129.491 192.471 129.491 191.353 C 129.813 190.421 129.985 189.537 130.313 188.476 C 130.313 187.258 130.505 186.192 130.518 184.981 C 130.518 183.998 130.599 182.963 130.313 182.104 C 130.313 180.88 130.243 179.74 130.107 178.61 C 129.82 177.749 129.916 176.611 129.696 175.732 C 129.696 174.497 129.584 173.133 129.902 172.032 C 130.271 170.859 130.708 170.028 130.724 168.744 C 130.065 167.69 129.703 167.073 129.285 165.661 C 128.863 164.495 128.817 163.734 129.285 162.577 C 129.562 161.501 129.822 160.608 129.902 159.494 C 129.902 158.489 129.919 157.508 129.696 156.617 C 129.378 155.626 129.119 154.69 129.079 153.534 C 129.079 152.506 129.079 151.478 129.079 150.451 C 129.079 149.255 129.052 148.032 129.285 146.956 C 129.285 145.96 129.332 145.012 129.491 144.284 C 129.697 143.321 129.911 142.295 130.313 141.407 C 130.313 140.359 130.218 139.555 130.107 138.735 C 130.107 137.617 129.939 137.073 129.902 136.063 C 129.793 135.224 129.523 135.446 128.668 135.446 C 127.931 135.184 127.282 135.035 126.202 135.035 C 125.349 134.92 124.552 134.697 123.53 134.624 C 122.976 134.624 123.388 134.611 122.297 134.829 z " id="path647" style="fill:#000700;fill-rule:evenodd;stroke:#fdc300;stroke-opacity:0.996081;stroke-width:0.375;stroke-linejoin:miter;stroke-linecap:butt;fill-opacity:1;stroke-dasharray:none;"/>
      <path d="M 129.491 135.652 C 129.491 136.113 129.491 137.855 129.491 138.94 C 129.491 139.899 129.491 140.859 129.491 141.818 C 129.491 142.846 129.491 143.873 129.491 144.901 C 129.274 146.025 129.079 146.688 129.079 147.984 C 128.898 148.817 128.9 149.653 129.079 150.656 C 129.079 151.615 129.079 152.575 129.079 153.534 C 129.079 154.561 129.079 155.589 129.079 156.617 C 129.079 157.755 129.18 158.707 129.491 159.7 C 129.561 160.681 129.696 161.529 129.696 162.577 C 129.784 163.563 130.107 164.075 130.107 165.249 C 130.419 166.219 130.349 167.363 130.107 168.333 C 129.839 169.003 129.728 169.851 129.491 170.799 C 129.264 171.705 129.148 172.712 129.079 173.677 C 129.079 174.636 129.079 175.595 129.079 176.554 C 129.151 177.683 129.45 178.503 129.491 179.637 C 129.731 180.599 129.731 181.553 129.491 182.515 C 129.392 183.729 129.163 184.837 129.079 186.009 C 129.079 187.037 129.079 188.064 129.079 189.092 C 129.117 190.102 129.285 190.646 129.285 191.764 C 129.285 192.723 129.285 193.683 129.285 194.642 C 129.285 195.753 129.291 196.596 128.874 197.519 C 128.84 198.474 128.668 199.206 128.668 200.191 C 129.057 200.763 129.253 201.531 129.696 202.041 C 129.822 203.101 130.046 203.757 130.518 204.302 C 130.75 205.151 131.122 205.518 131.751 205.946 C 132.284 206.386 132.982 206.358 134.012 206.358 C 134.56 206.631 135.811 206.678 136.479 206.769 C 137.206 206.927 138.154 206.974 139.151 206.974 C 140.101 206.805 141.072 206.553 141.823 206.358 C 142.661 206.238 142.657 205.965 143.673 205.946 C 144.258 205.346 144.53 205.241 144.906 204.302 C 145.473 203.649 145.688 202.969 145.728 201.836 C 145.554 200.712 145.145 199.985 145.112 198.753 C 144.749 197.686 144.495 196.879 144.495 195.669 C 144.144 194.993 144.084 193.824 144.084 192.792 C 143.87 191.578 143.869 190.157 143.673 188.887 C 143.398 187.689 143.378 186.371 143.262 185.187 C 142.922 184.169 142.952 182.908 142.645 181.898 C 142.089 180.702 141.695 179.499 141.206 178.199 C 141.015 176.527 140.768 174.89 140.384 173.266 C 140.384 171.964 140.384 170.662 140.384 169.36 C 140.554 168.105 140.913 167.097 141.001 165.866 C 141.001 164.396 141.033 162.894 140.795 161.55 C 140.259 160.746 139.849 159.669 139.356 158.672 C 139.019 157.46 138.625 156.347 138.534 154.972 C 138.224 153.937 137.931 153.047 137.918 151.889 C 137.918 150.739 137.769 149.723 137.712 148.601 C 137.999 147.741 137.918 146.707 137.918 145.723 C 137.702 144.896 137.262 143.79 136.89 142.846 C 136.707 141.775 136.479 140.949 136.479 139.762 C 136.479 138.803 136.479 137.844 136.479 136.885 C 136.374 135.73 135.983 135.549 134.835 135.446 C 133.851 135.446 132.816 135.365 131.957 135.652 C 130.966 135.652 130.533 135.773 129.491 135.652 z " id="path648" style="fill:#000700;fill-rule:evenodd;stroke:#fdc300;stroke-opacity:0.996081;stroke-width:0.375;stroke-linejoin:miter;stroke-linecap:butt;fill-opacity:1;stroke-dasharray:none;"/>
    </g>
    <g id="g689" style="font-size:12;" transform="matrix(1.388345,0.000000,0.000000,1.350697,557.6492,97.04273)">
      <path d="M 55.2428 80.0881 C 58.4006 86.4175 76.0142 92.9044 79.1078 97.7658 C 82.2014 102.627 87.5047 113.234 90.5983 112.35 C 93.6919 111.466 100.763 104.395 100.763 104.395 C 100.763 104.395 96.3435 56.6652 93.6919 56.2232 C 91.0402 55.7812 89.7144 56.2231 87.9466 55.7812 C 86.1788 55.3393 85.295 53.5716 85.295 52.6877 C 85.295 51.8037 84.4111 50.0361 82.6433 49.1521 C 80.8755 48.2682 77.7819 49.152 77.34 47.3843 C 76.898 45.6166 76.898 43.4068 75.5722 42.5229 C 74.2464 41.6391 71.1528 40.7551 70.2689 39.8713 C 69.385 38.9874 67.1753 36.3357 67.1753 36.3357 C 67.1753 36.3357 63.6398 42.081 63.6398 42.9649 C 63.6398 43.8488 61.872 49.1522 62.3139 50.478 C 62.7559 51.8037 64.9656 55.3392 65.4075 55.7812 C 65.8495 56.2232 65.4075 58.4329 64.0817 59.7587 C 62.7559 61.0846 58.7784 60.2006 57.8945 61.5265 C 57.0106 62.8523 54.359 65.5039 55.2428 66.3878 C 56.1267 67.2718 60.1042 64.1781 60.9881 64.1781 C 61.872 64.1781 66.7334 65.504 66.7334 65.504 C 66.7334 65.504 64.0817 67.2717 62.7559 68.5975 C 61.43 69.9234 63.6398 72.5751 62.3139 73.017 C 60.9881 73.4589 53.823 77.6844 55.2428 80.0881 z " id="path678" sodipodi:nodetypes="ccccccccccccccccccccccs" style="fill:#e974af;fill-rule:evenodd;stroke:#e8666f;stroke-opacity:1;stroke-width:1pt;stroke-linejoin:miter;stroke-linecap:butt;fill-opacity:0.996078;"/>
      <path d="M 80.4336 77.8784 C 79.9916 87.1592 88.3886 88.043 89.7144 95.1141 C 91.0402 102.185 93.2499 108.814 95.9016 108.372 C 98.5532 107.93 97.6694 105.279 98.9952 104.837 C 100.321 104.395 99.8791 107.047 102.089 106.605 C 104.298 106.163 105.182 99.5335 106.508 97.7658 C 107.834 95.998 116.231 91.5786 116.673 88.043 C 117.115 84.5075 114.463 85.3914 114.021 82.2978 C 113.579 79.2042 115.347 75.6686 114.905 73.9009 C 114.463 72.1331 113.137 73.0171 112.695 70.8073 C 112.253 68.5975 114.905 67.7137 114.021 65.504 C 113.137 63.2943 109.16 61.9684 108.718 60.6426 C 108.276 59.3168 110.044 59.3168 109.602 57.549 C 109.16 55.7812 104.298 53.5715 103.857 52.2457 C 103.415 50.9198 97.6694 40.3133 94.5758 40.7552 C 91.4822 41.1971 87.9466 48.2682 88.3886 50.036 C 88.8305 51.8037 90.5983 62.4103 88.8305 65.062 C 87.0627 67.7137 79.9916 72.575 80.4336 77.8784 z " id="path679" style="fill:#e974af;fill-rule:evenodd;stroke:#e8666f;stroke-opacity:1;stroke-width:1pt;stroke-linejoin:miter;stroke-linecap:butt;fill-opacity:0.996081;"/>
      <path d="M 97.6694 49.1521 C 100.321 49.594 97.6694 54.4553 97.6694 56.6651 C 97.6694 58.8749 99.4371 64.1782 99.8791 66.8298 C 100.321 69.4814 96.3435 76.9945 97.2274 80.088 C 98.1113 83.1818 101.647 88.043 101.647 90.6947 C 101.647 93.3464 101.205 104.837 101.205 104.837 L 98.1113 104.395 C 98.1113 104.395 97.2274 95.1142 97.2274 91.1367 C 97.2274 87.1592 92.808 84.5075 92.808 80.972 C 92.808 77.4364 96.7855 71.2492 96.3435 69.0395 C 95.9016 66.8298 94.1338 58.8749 94.1338 56.2232 C 94.1338 53.5715 98.5532 50.036 97.6694 49.1521 z " id="path680" sodipodi:nodetypes="cccccccccccc" style="fill:#f4aacf;fill-rule:evenodd;stroke:none;stroke-opacity:1;stroke-width:1pt;stroke-linejoin:miter;stroke-linecap:butt;fill-opacity:1;"/>
      <path d="M 63.7502 85.7962 C 65.6252 83.6087 66.8752 82.6712 67.8127 82.0462 C 68.7502 81.4212 70.3128 82.9837 71.8753 81.4212 C 73.4378 79.8587 73.1253 76.7337 74.6878 74.8587 C 76.2503 72.9837 78.1253 72.9837 78.1253 72.9837 " id="path681" style="fill:none;fill-rule:evenodd;stroke:#e7646d;stroke-opacity:1;stroke-width:1pt;stroke-linejoin:miter;stroke-linecap:butt;fill-opacity:1;"/>
      <path d="M 86.5628 55.4836 C 85.6253 55.7961 81.2503 57.0461 80.0003 57.0461 C 78.7503 57.0461 76.8753 55.1711 76.8753 53.9211 C 76.8753 52.6711 78.1253 52.0461 78.1253 50.7961 C 78.1253 49.5461 75.0003 50.1711 74.3753 48.6086 C 73.7503 47.0461 75.0003 47.046 74.6878 45.796 C 74.3753 44.546 71.2503 42.3585 71.2503 42.3585 " id="path682" style="fill:none;fill-rule:evenodd;stroke:#e7646d;stroke-opacity:1;stroke-width:1pt;stroke-linejoin:miter;stroke-linecap:butt;fill-opacity:1;"/>
      <path d="M 64.3752 42.671 C 64.6877 42.671 66.8752 42.671 67.5002 43.296 C 68.1252 43.921 69.0627 45.4835 69.0627 45.4835 " id="path683" style="fill:none;fill-rule:evenodd;stroke:#e7646d;stroke-opacity:1;stroke-width:1pt;stroke-linejoin:miter;stroke-linecap:butt;fill-opacity:1;"/>
      <path d="M 63.7502 47.6711 C 64.0627 47.6711 67.5002 47.9836 68.1252 47.6711 C 68.7502 47.3586 70.0003 47.9836 70.0003 47.9836 " id="path684" style="fill:none;fill-rule:evenodd;stroke:#e7646d;stroke-opacity:1;stroke-width:1pt;stroke-linejoin:miter;stroke-linecap:butt;fill-opacity:1;"/>
      <path d="M 65.0002 52.6711 C 65.3127 52.3586 66.8752 51.7336 68.1252 51.4211 C 69.3752 51.1086 70.6253 52.0461 70.6253 52.0461 " id="path685" style="fill:none;fill-rule:evenodd;stroke:#e7646d;stroke-opacity:1;stroke-width:1pt;stroke-linejoin:miter;stroke-linecap:butt;fill-opacity:1;"/>
      <path d="M 66.8752 55.7961 C 68.1252 55.7961 70.6253 53.2961 70.6253 53.2961 " id="path686" style="fill:none;fill-rule:evenodd;stroke:#e7646d;stroke-opacity:1;stroke-width:1pt;stroke-linejoin:miter;stroke-linecap:butt;fill-opacity:1;"/>
      <path d="M 67.1877 57.3586 C 67.1877 57.3586 68.7503 58.2961 69.6878 58.6086 C 70.6253 58.9211 73.1253 57.6711 73.1253 57.6711 " id="path687" style="fill:none;fill-rule:evenodd;stroke:#e7646d;stroke-opacity:1;stroke-width:1pt;stroke-linejoin:miter;stroke-linecap:butt;fill-opacity:1;"/>
      <path d="M 66.8752 65.7961 C 67.1877 65.7961 69.6878 63.6086 71.5628 62.9836 C 73.4378 62.3586 74.3753 61.1086 74.3753 61.1086 " id="path688" style="fill:none;fill-rule:evenodd;stroke:#e7646d;stroke-opacity:1;stroke-width:1pt;stroke-linejoin:miter;stroke-linecap:butt;fill-opacity:1;"/>
    </g>
    <g id="g1070" style="font-size:12;" transform="translate(3.308029,-3.051758e-5)">
      <path d="M 779.408 912.595 C 779.408 912.595 779.288 1016.19 779.408 1091.83 C 779.528 1167.46 799.23 1196.74 833.67 1195.42 C 868.11 1194.09 874.778 1136.59 868.201 1103.34 C 861.624 1070.08 814.961 904.373 814.961 904.373 L 779.408 912.595 z " id="path577" sodipodi:nodetypes="cccccc" style="font-size:12;fill:#b95a1e;fill-rule:evenodd;stroke:#000000;stroke-width:4.375;" transform="matrix(6.308398e-2,-4.073591e-2,3.863361e-2,6.651678e-2,712.0953,209.8693)"/>
      <path d="M 779.408 912.595 C 779.408 912.595 779.288 1016.19 779.408 1091.83 C 779.528 1167.46 799.23 1196.74 833.67 1195.42 C 868.11 1194.09 874.778 1136.59 868.201 1103.34 C 861.624 1070.08 814.961 904.373 814.961 904.373 L 779.408 912.595 z " id="path576" sodipodi:nodetypes="cccccc" style="font-size:12;fill:#b95a1e;fill-rule:evenodd;stroke:#000000;stroke-width:4.375;" transform="matrix(7.236112e-2,-1.619858e-2,1.536260e-2,7.629874e-2,725.1523,182.3482)"/>
      <path d="M 779.408 912.595 C 779.408 912.595 779.288 1016.19 779.408 1091.83 C 779.528 1167.46 799.23 1196.74 833.67 1195.42 C 868.11 1194.09 874.778 1136.59 868.201 1103.34 C 861.624 1070.08 814.961 904.373 814.961 904.373 L 779.408 912.595 z " id="path575" sodipodi:nodetypes="cccccc" style="font-size:12;fill:#b95a1e;fill-rule:evenodd;stroke:#000000;stroke-width:4.375;" transform="matrix(7.397390e-2,0.000000,0.000000,7.799929e-2,736.2345,168.4202)"/>
      <path d="M 779.528 255.118 C 939.096 253.724 956.693 219.686 956.693 219.686 C 956.693 219.686 992.123 148.82 974.409 131.102 C 956.692 113.386 779.528 113.386 779.528 113.386 L 779.528 255.118 z " id="path574" sodipodi:nodetypes="ccscc" style="font-size:12;fill:#b95a1e;fill-rule:evenodd;stroke:#000000;stroke-width:5.55369;" transform="matrix(4.590620e-2,0.000000,0.000000,7.799929e-2,758.1140,219.5496)"/>
      <path d="M 779.528 255.118 C 885.827 255.118 903.544 219.686 903.544 219.686 C 903.544 219.686 938.974 148.82 921.26 131.102 C 903.543 113.386 779.528 113.386 779.528 113.386 L 779.528 255.118 z " id="path570" sodipodi:nodetypes="ccscc" style="font-size:12;fill:#b95a1e;fill-rule:evenodd;stroke:#000000;stroke-width:4.375;" transform="matrix(7.397390e-2,0.000000,0.000000,7.799929e-2,736.2344,214.0221)"/>
      <path d="M 779.528 255.118 C 868.111 255.118 921.261 219.685 921.261 219.685 C 921.261 219.685 956.691 148.819 938.977 131.101 C 921.26 113.385 779.528 113.386 779.528 113.386 L 779.528 255.118 z " id="path569" sodipodi:nodetypes="ccscc" style="font-size:12;fill:#b95a1e;fill-rule:evenodd;stroke:#000000;stroke-width:4.375;" transform="matrix(7.397390e-2,0.000000,0.000000,7.799929e-2,736.2344,208.4946)"/>
      <path d="M 832.677 113.386 C 832.677 113.386 903.543 24.8032 1027.56 -63.7795 C 1151.57 -152.362 1241.29 -220.501 1257.87 -205.512 C 1257.87 -187.795 1151.57 -99.2126 1062.99 -28.3465 C 974.409 42.5196 868.11 148.819 868.11 148.819 L 832.677 113.386 z " id="path554" sodipodi:nodetypes="cscscc" style="font-size:12;fill:#b95a1e;fill-rule:evenodd;stroke:#000000;stroke-width:3.92724;" transform="matrix(9.180368e-2,0.000000,0.000000,7.799929e-2,721.8746,168.5821)"/>
      <path d="M 832.677 113.386 C 832.677 113.386 902.727 61.3608 1037.06 -10.6298 C 1169.29 -74.5475 1355.95 -63.7795 1355.95 -46.0629 C 1338.24 -28.3465 1178.79 -28.3464 1072.49 24.8032 C 971.023 75.5351 868.11 148.819 868.11 148.819 L 832.677 113.386 z " id="path557" sodipodi:nodetypes="cscscc" style="font-size:12;fill:#b95a1e;fill-rule:evenodd;stroke:#000000;stroke-width:3.92724;" transform="matrix(9.180368e-2,0.000000,0.000000,7.799929e-2,722.6294,174.1096)"/>
      <path d="M 832.677 113.386 C 832.677 113.386 894.352 78.3179 1037.06 24.8032 C 1178.78 -28.3464 1366.93 7.08656 1366.93 24.8032 C 1349.22 42.5196 1196.5 31.7514 1090.2 60.2363 C 980.207 87.9936 868.11 148.819 868.11 148.819 L 832.677 113.386 z " id="path558" sodipodi:nodetypes="cscscc" style="font-size:12;fill:#b95a1e;fill-rule:evenodd;stroke:#000000;stroke-width:3.92724;" transform="matrix(9.180368e-2,0.000000,0.000000,7.799929e-2,722.6986,183.6280)"/>
      <path d="M 832.677 113.386 C 832.677 113.386 903.756 42.4102 1055.15 24.8032 C 1207.48 7.08672 1331.5 113.386 1331.5 131.102 C 1313.79 148.819 1172.05 53.1275 1065.75 66.8135 C 953.132 80.4679 868.11 148.819 868.11 148.819 L 832.677 113.386 z " id="path559" sodipodi:nodetypes="cscscc" style="font-size:12;fill:#b95a1e;fill-rule:evenodd;stroke:#000000;stroke-width:3.92724;" transform="matrix(9.180368e-2,0.000000,0.000000,7.799929e-2,723.3170,193.2940)"/>
      <path d="M 779.528 255.118 C 939.096 253.724 938.977 209.61 938.977 209.61 C 938.977 209.61 974.407 138.744 956.693 121.026 C 938.976 103.31 779.528 113.386 779.528 113.386 L 779.528 255.118 z " id="path568" sodipodi:nodetypes="ccscc" style="font-size:12;fill:#b95a1e;fill-rule:evenodd;stroke:#000000;stroke-width:4.375;" transform="matrix(7.397390e-2,0.000000,0.000000,7.799929e-2,736.2344,201.5853)"/>
      <path d="M 779.528 255.118 C 939.096 253.724 956.693 219.686 956.693 219.686 C 956.693 219.686 992.123 148.82 974.409 131.102 C 956.692 113.386 779.528 113.386 779.528 113.386 L 779.528 255.118 z " id="path567" sodipodi:nodetypes="ccscc" style="font-size:12;fill:#b95a1e;fill-rule:evenodd;stroke:#000000;stroke-width:4.375;" transform="matrix(7.397390e-2,0.000000,0.000000,7.799929e-2,736.2344,196.0577)"/>
      <path d="M 779.528 255.118 C 939.096 253.724 974.41 219.685 974.41 219.685 C 974.41 219.685 1009.84 148.819 992.126 131.102 C 974.409 113.386 779.528 113.386 779.528 113.386 L 779.528 255.118 z " id="path565" sodipodi:nodetypes="ccscc" style="font-size:12;fill:#b95a1e;fill-rule:evenodd;stroke:#000000;stroke-width:4.375;" transform="matrix(7.397390e-2,0.000000,0.000000,7.799929e-2,736.2344,189.1483)"/>
      <path d="M 779.528 255.118 C 939.096 253.724 992.126 219.685 992.126 219.685 C 992.126 219.685 1009.84 148.819 992.126 131.102 C 974.409 113.386 779.528 113.386 779.528 113.386 L 779.528 255.118 z " id="path566" sodipodi:nodetypes="ccscc" style="font-size:12;fill:#b95a1e;fill-rule:evenodd;stroke:#000000;stroke-width:4.375;" transform="matrix(7.397390e-2,0.000000,0.000000,7.799929e-2,736.2345,182.2390)"/>
      <path d="M 832.677 113.386 C 832.677 113.386 946.883 24.8032 946.883 -46.0629 C 946.883 -116.929 896.534 -187.795 882.258 -223.228 C 910.81 -223.228 975.434 -116.929 975.434 -46.0629 C 975.434 31.3807 868.11 148.819 868.11 148.819 L 832.677 113.386 z " id="path560" sodipodi:nodetypes="cscscc" style="font-size:12;fill:#b95a1e;fill-rule:evenodd;stroke:#000000;stroke-width:3.92724;" transform="matrix(9.180368e-2,0.000000,0.000000,7.799929e-2,720.0775,162.8927)"/>
      <path d="M 832.677 113.386 C 832.677 113.386 818.401 60.2364 818.401 -46.0629 C 818.401 -170.079 881.402 -248.956 904.055 -276.378 C 909.953 -248.956 846.953 -152.362 846.953 -46.0629 C 846.953 31.3808 868.11 148.819 868.11 148.819 L 832.677 113.386 z " id="path561" sodipodi:nodetypes="cscscc" style="font-size:12;fill:#b95a1e;fill-rule:evenodd;stroke:#000000;stroke-width:3.92724;" transform="matrix(9.180368e-2,0.000000,0.000000,7.799929e-2,720.0775,162.8927)"/>
      <path d="M 779.528 255.118 C 939.096 253.724 992.126 219.685 992.126 219.685 C 992.126 219.685 992.126 148.819 974.41 131.102 C 956.693 113.386 779.528 113.386 779.528 113.386 L 779.528 255.118 z " id="path564" sodipodi:nodetypes="ccscc" style="font-size:12;fill:#b95a1e;fill-rule:evenodd;stroke:#000000;stroke-width:4.375;" transform="matrix(7.397390e-2,0.000000,0.000000,7.799929e-2,736.2344,175.3296)"/>
      <path d="M 779.528 255.118 C 939.096 253.724 974.409 219.685 974.409 219.685 C 974.409 219.685 974.409 148.819 956.693 131.102 C 938.976 113.386 779.528 113.386 779.528 113.386 L 779.528 255.118 z " id="path563" sodipodi:nodetypes="ccscc" style="font-size:12;fill:#b95a1e;fill-rule:evenodd;stroke:#000000;stroke-width:4.375;" transform="matrix(7.397390e-2,0.000000,0.000000,7.799929e-2,736.2345,168.4202)"/>
      <path d="M 318.898 1318.11 C 373.963 1195.79 389.764 981.496 389.764 946.063 C 389.764 846.281 356.816 360.957 354.331 166.535 C 351.846 -27.887 478.346 -134.646 602.362 -134.646 C 708.661 -134.646 779.528 -63.7795 779.528 42.5197 L 726.378 42.5197 C 726.378 -28.3465 673.228 -81.496 602.362 -81.496 C 496.063 -81.496 414.368 2.24297 407.48 166.535 C 399.875 356.421 428.796 849.48 425.197 981.496 C 421.598 1113.52 373.963 1231.22 318.898 1318.11 z " id="path553" sodipodi:nodetypes="csssccsssc" style="font-size:12;fill:#b95a1e;fill-rule:evenodd;stroke:#fdc301;stroke-width:11.0255;stroke-opacity:1;stroke-dasharray:none;" transform="matrix(-7.397390e-2,0.000000,0.000000,7.799929e-2,851.5640,168.4202)"/>
      <path d="M 779.408 912.595 C 779.408 912.595 779.288 1016.19 779.408 1091.83 C 779.528 1167.46 799.23 1196.74 833.67 1195.42 C 868.11 1194.09 874.778 1136.59 868.201 1103.34 C 861.624 1070.08 814.961 904.373 814.961 904.373 L 779.408 912.595 z " id="path578" sodipodi:nodetypes="cccccc" style="font-size:12;fill:#b95a1e;fill-rule:evenodd;stroke:#000000;stroke-width:4.375;" transform="matrix(-6.308398e-2,-4.073591e-2,-3.863361e-2,6.651678e-2,875.6903,209.8693)"/>
      <path d="M 779.528 32.8841 C 903.664 33.0247 957.295 135.273 956.994 133.188 L 921.26 166.535 C 902.275 184.252 779.528 184.252 781.052 184.161 L 779.528 32.8841 z " id="path562" sodipodi:nodetypes="ccscc" style="font-size:12;fill:#b95a1e;fill-rule:evenodd;stroke:#000000;stroke-width:4.375;" transform="matrix(7.397390e-2,0.000000,0.000000,7.799929e-2,736.2345,168.4202)"/>
      <path d="M 779.408 912.595 C 779.408 912.595 779.288 1016.19 779.408 1091.83 C 779.528 1167.46 799.23 1196.74 833.67 1195.42 C 868.11 1194.09 874.778 1136.59 868.201 1103.34 C 861.624 1070.08 814.961 904.373 814.961 904.373 L 779.408 912.595 z " id="path579" sodipodi:nodetypes="cccccc" style="font-size:12;fill:#b95a1e;fill-rule:evenodd;stroke:#000000;stroke-width:4.375;" transform="matrix(-7.236112e-2,-1.619858e-2,-1.536260e-2,7.629874e-2,862.6333,182.3482)"/>
      <path d="M 779.408 912.595 C 779.408 912.595 779.288 1016.19 779.408 1091.83 C 779.528 1167.46 799.23 1196.74 833.67 1195.42 C 868.11 1194.09 874.778 1136.59 868.201 1103.34 C 861.624 1070.08 814.961 904.373 814.961 904.373 L 779.408 912.595 z " id="path580" sodipodi:nodetypes="cccccc" style="font-size:12;fill:#b95a1e;fill-rule:evenodd;stroke:#000000;stroke-width:4.375;" transform="matrix(-7.397390e-2,0.000000,0.000000,7.799929e-2,851.5511,168.4202)"/>
      <path d="M 779.528 255.118 C 939.096 253.724 956.693 219.686 956.693 219.686 C 956.693 219.686 992.123 148.82 974.409 131.102 C 956.692 113.386 779.528 113.386 779.528 113.386 L 779.528 255.118 z " id="path581" sodipodi:nodetypes="ccscc" style="font-size:12;fill:#b95a1e;fill-rule:evenodd;stroke:#000000;stroke-width:5.55369;" transform="matrix(-4.590620e-2,0.000000,0.000000,7.799929e-2,829.6716,219.5496)"/>
      <path d="M 779.528 255.118 C 885.827 255.118 903.544 219.686 903.544 219.686 C 903.544 219.686 938.974 148.82 921.26 131.102 C 903.543 113.386 779.528 113.386 779.528 113.386 L 779.528 255.118 z " id="path582" sodipodi:nodetypes="ccscc" style="font-size:12;fill:#b95a1e;fill-rule:evenodd;stroke:#000000;stroke-width:4.375;" transform="matrix(-7.397390e-2,0.000000,0.000000,7.799929e-2,851.5511,214.0221)"/>
      <path d="M 779.528 255.118 C 868.111 255.118 921.261 219.685 921.261 219.685 C 921.261 219.685 956.691 148.819 938.977 131.101 C 921.26 113.385 779.528 113.386 779.528 113.386 L 779.528 255.118 z " id="path583" sodipodi:nodetypes="ccscc" style="font-size:12;fill:#b95a1e;fill-rule:evenodd;stroke:#000000;stroke-width:4.375;" transform="matrix(-7.397390e-2,0.000000,0.000000,7.799929e-2,851.5511,208.4946)"/>
      <path d="M 832.677 113.386 C 832.677 113.386 903.543 24.8032 1027.56 -63.7795 C 1151.57 -152.362 1241.29 -220.501 1257.87 -205.512 C 1257.87 -187.795 1151.57 -99.2126 1062.99 -28.3465 C 974.409 42.5196 868.11 148.819 868.11 148.819 L 832.677 113.386 z " id="path584" sodipodi:nodetypes="cscscc" style="font-size:12;fill:#b95a1e;fill-rule:evenodd;stroke:#000000;stroke-width:3.92724;" transform="matrix(-9.180368e-2,0.000000,0.000000,7.799929e-2,865.9109,168.5821)"/>
      <path d="M 832.677 113.386 C 832.677 113.386 902.727 61.3608 1037.06 -10.6298 C 1169.29 -74.5475 1355.95 -63.7795 1355.95 -46.0629 C 1338.24 -28.3465 1178.79 -28.3464 1072.49 24.8032 C 971.023 75.5351 868.11 148.819 868.11 148.819 L 832.677 113.386 z " id="path585" sodipodi:nodetypes="cscscc" style="font-size:12;fill:#b95a1e;fill-rule:evenodd;stroke:#000000;stroke-width:3.92724;" transform="matrix(-9.180368e-2,0.000000,0.000000,7.799929e-2,865.1562,174.1096)"/>
      <path d="M 832.677 113.386 C 832.677 113.386 894.352 78.3179 1037.06 24.8032 C 1178.78 -28.3464 1366.93 7.08656 1366.93 24.8032 C 1349.22 42.5196 1196.5 31.7514 1090.2 60.2363 C 980.207 87.9936 868.11 148.819 868.11 148.819 L 832.677 113.386 z " id="path586" sodipodi:nodetypes="cscscc" style="font-size:12;fill:#b95a1e;fill-rule:evenodd;stroke:#000000;stroke-width:3.92724;" transform="matrix(-9.180368e-2,0.000000,0.000000,7.799929e-2,865.0870,183.6280)"/>
      <path d="M 832.677 113.386 C 832.677 113.386 903.756 42.4102 1055.15 24.8032 C 1207.48 7.08672 1331.5 113.386 1331.5 131.102 C 1313.79 148.819 1172.05 53.1275 1065.75 66.8135 C 953.132 80.4679 868.11 148.819 868.11 148.819 L 832.677 113.386 z " id="path587" sodipodi:nodetypes="cscscc" style="font-size:12;fill:#b95a1e;fill-rule:evenodd;stroke:#000000;stroke-width:3.92724;" transform="matrix(-9.180368e-2,0.000000,0.000000,7.799929e-2,864.4686,193.2940)"/>
      <path d="M 779.528 255.118 C 939.096 253.724 938.977 209.61 938.977 209.61 C 938.977 209.61 974.407 138.744 956.693 121.026 C 938.976 103.31 779.528 113.386 779.528 113.386 L 779.528 255.118 z " id="path588" sodipodi:nodetypes="ccscc" style="font-size:12;fill:#b95a1e;fill-rule:evenodd;stroke:#000000;stroke-width:4.375;" transform="matrix(-7.397390e-2,0.000000,0.000000,7.799929e-2,851.5511,201.5853)"/>
      <path d="M 779.528 255.118 C 939.096 253.724 956.693 219.686 956.693 219.686 C 956.693 219.686 992.123 148.82 974.409 131.102 C 956.692 113.386 779.528 113.386 779.528 113.386 L 779.528 255.118 z " id="path589" sodipodi:nodetypes="ccscc" style="font-size:12;fill:#b95a1e;fill-rule:evenodd;stroke:#000000;stroke-width:4.375;" transform="matrix(-7.397390e-2,0.000000,0.000000,7.799929e-2,851.5511,196.0577)"/>
      <path d="M 779.528 255.118 C 939.096 253.724 974.41 219.685 974.41 219.685 C 974.41 219.685 1009.84 148.819 992.126 131.102 C 974.409 113.386 779.528 113.386 779.528 113.386 L 779.528 255.118 z " id="path590" sodipodi:nodetypes="ccscc" style="font-size:12;fill:#b95a1e;fill-rule:evenodd;stroke:#000000;stroke-width:4.375;" transform="matrix(-7.397390e-2,0.000000,0.000000,7.799929e-2,851.5511,189.1483)"/>
      <path d="M 779.528 255.118 C 939.096 253.724 992.126 219.685 992.126 219.685 C 992.126 219.685 1009.84 148.819 992.126 131.102 C 974.409 113.386 779.528 113.386 779.528 113.386 L 779.528 255.118 z " id="path591" sodipodi:nodetypes="ccscc" style="font-size:12;fill:#b95a1e;fill-rule:evenodd;stroke:#000000;stroke-width:4.375;" transform="matrix(-7.397390e-2,0.000000,0.000000,7.799929e-2,851.5511,182.2390)"/>
      <path d="M 832.677 113.386 C 832.677 113.386 946.883 24.8032 946.883 -46.0629 C 946.883 -116.929 896.534 -187.795 882.258 -223.228 C 910.81 -223.228 975.434 -116.929 975.434 -46.0629 C 975.434 31.3807 868.11 148.819 868.11 148.819 L 832.677 113.386 z " id="path592" sodipodi:nodetypes="cscscc" style="font-size:12;fill:#b95a1e;fill-rule:evenodd;stroke:#000000;stroke-width:3.92724;" transform="matrix(-9.180368e-2,0.000000,0.000000,7.799929e-2,867.7081,162.8927)"/>
      <path d="M 832.677 113.386 C 832.677 113.386 818.401 60.2364 818.401 -46.0629 C 818.401 -170.079 881.402 -248.956 904.055 -276.378 C 909.953 -248.956 846.953 -152.362 846.953 -46.0629 C 846.953 31.3808 868.11 148.819 868.11 148.819 L 832.677 113.386 z " id="path593" sodipodi:nodetypes="cscscc" style="font-size:12;fill:#b95a1e;fill-rule:evenodd;stroke:#000000;stroke-width:3.92724;" transform="matrix(-9.180368e-2,0.000000,0.000000,7.799929e-2,867.7081,162.8927)"/>
      <path d="M 779.528 255.118 C 939.096 253.724 992.126 219.685 992.126 219.685 C 992.126 219.685 992.126 148.819 974.41 131.102 C 956.693 113.386 779.528 113.386 779.528 113.386 L 779.528 255.118 z " id="path594" sodipodi:nodetypes="ccscc" style="font-size:12;fill:#b95a1e;fill-rule:evenodd;stroke:#000000;stroke-width:4.375;" transform="matrix(-7.397390e-2,0.000000,0.000000,7.799929e-2,851.5511,175.3296)"/>
      <path d="M 779.528 255.118 C 939.096 253.724 974.409 219.685 974.409 219.685 C 974.409 219.685 974.409 148.819 956.693 131.102 C 938.976 113.386 779.528 113.386 779.528 113.386 L 779.528 255.118 z " id="path595" sodipodi:nodetypes="ccscc" style="font-size:12;fill:#b95a1e;fill-rule:evenodd;stroke:#000000;stroke-width:4.375;" transform="matrix(-7.397390e-2,0.000000,0.000000,7.799929e-2,851.5511,168.4202)"/>
      <path d="M 318.898 1318.11 C 373.963 1195.79 389.764 981.496 389.764 946.063 C 389.764 846.281 356.816 360.957 354.331 166.535 C 351.846 -27.887 478.346 -134.646 602.362 -134.646 C 708.661 -134.646 779.528 -63.7795 779.528 42.5197 L 726.378 42.5197 C 726.378 -28.3465 673.228 -81.496 602.362 -81.496 C 496.063 -81.496 414.368 2.24297 407.48 166.535 C 399.875 356.421 428.796 849.48 425.197 981.496 C 421.598 1113.52 373.963 1231.22 318.898 1318.11 z " id="path597" sodipodi:nodetypes="csssccsssc" style="font-size:12;fill:#b95a1e;fill-rule:evenodd;stroke:#fdc301;stroke-width:11.0255;stroke-opacity:1;stroke-dasharray:none;" transform="matrix(7.397390e-2,0.000000,0.000000,7.799929e-2,736.2217,168.4202)"/>
      <path d="M 779.528 32.8841 C 903.664 33.0247 957.295 135.273 956.994 133.188 L 921.26 166.535 C 902.275 184.252 779.528 184.252 781.052 184.161 L 779.528 32.8841 z " id="path596" sodipodi:nodetypes="ccscc" style="font-size:12;fill:#b95a1e;fill-rule:evenodd;stroke:#000000;stroke-width:4.375;" transform="matrix(-7.397390e-2,0.000000,0.000000,7.799929e-2,851.5511,168.4202)"/>
    </g>
  </g>
</svg>
