<?xml version="1.0" encoding="UTF-8" standalone="no"?>
<!DOCTYPE svg PUBLIC "-//W3C//DTD SVG 20010904//EN"
"http://www.w3.org/TR/2001/REC-SVG-20010904/DTD/svg10.dtd"
[
 <!ATTLIST svg
  xmlns:xlink CDATA #FIXED "http://www.w3.org/1999/xlink">
]>
<!-- Created with Sodipodi ("http://www.sodipodi.com/") --><svg height="496.062988" id="svg2498" version="1" width="992.125977" x="0.00000000" xmlns="http://www.w3.org/2000/svg" xmlns:xlink="http://www.w3.org/1999/xlink" y="0.00000000">
  <metadata>
    <rdf:RDF xmlns:cc="http://web.resource.org/cc/" xmlns:dc="http://purl.org/dc/elements/1.1/" xmlns:rdf="http://www.w3.org/1999/02/22-rdf-syntax-ns#">
      <cc:Work rdf:about="">
        <dc:title>Tuvalu</dc:title>
        <dc:description></dc:description>
        <dc:subject>
          <rdf:Bag>
            <rdf:li></rdf:li>
            <rdf:li>polynesia</rdf:li>
            <rdf:li>united_nations_member</rdf:li>
            <rdf:li>oceania</rdf:li>
            <rdf:li>flag</rdf:li>
            <rdf:li>sign</rdf:li>
          </rdf:Bag>
        </dc:subject>
        <dc:publisher>
          <cc:Agent rdf:about="http://www.openclipart.org">
            <dc:title>Cezary Biele</dc:title>
          </cc:Agent>
        </dc:publisher>
        <dc:creator>
          <cc:Agent>
            <dc:title>Cezary Biele</dc:title>
          </cc:Agent>
        </dc:creator>
        <dc:rights>
          <cc:Agent>
            <dc:title>Cezary Biele</dc:title>
          </cc:Agent>
        </dc:rights>
        <dc:date></dc:date>
        <dc:format>image/svg+xml</dc:format>
        <dc:type rdf:resource="http://purl.org/dc/dcmitype/StillImage"/>
        <cc:license rdf:resource="http://web.resource.org/cc/PublicDomain"/>
        <dc:language>en</dc:language>
      </cc:Work>
      <cc:License rdf:about="http://web.resource.org/cc/PublicDomain">
        <cc:permits rdf:resource="http://web.resource.org/cc/Reproduction"/>
        <cc:permits rdf:resource="http://web.resource.org/cc/Distribution"/>
        <cc:permits rdf:resource="http://web.resource.org/cc/DerivativeWorks"/>
      </cc:License>
    </rdf:RDF>
  </metadata>
  <defs id="defs2500"/>
  <rect height="248.100128" id="rect1310" style="font-size:12;fill:#ffffff;fill-rule:evenodd;stroke-width:1pt;" width="499.547363" x="0.01325400" y="0.00000000"/>
  <path d="M 0.0132547 0.000331199 L -0.00755504 18.621 L 119.202 79.8743 L 164.056 81.1739 L 0.0132547 0.000331199 z " id="path549" style="font-size:12;fill:#cc0000;"/>
  <path d="M 51.0535 0.000331199 L 195.577 75.491 L 195.577 0.000331199 L 51.0535 0.000331199 z " id="path551" style="font-size:12;fill:#000066;"/>
  <path d="M 214.858 0.000331199 L 214.858 96.3722 L 0.0132547 96.3722 L 0.0132547 151.442 L 214.858 151.442 L 214.858 247.814 L 280.964 247.814 L 280.964 151.442 L 495.808 151.442 L 495.808 96.3722 L 280.964 96.3722 L 280.964 0.000331199 L 214.858 0.000331199 z " id="path552" style="font-size:12;fill:#cc0000;"/>
  <path d="M 300.244 0.000331199 L 300.244 71.132 L 441.628 0.551338 L 300.244 0.000331199 z " id="path554" style="font-size:12;fill:#000066;"/>
  <path d="M 304.708 78.8874 L 344.474 78.5668 L 498.949 0.551338 L 457.957 1.21916 L 304.708 78.8874 z " id="path555" style="font-size:12;fill:#cc0000;"/>
  <path d="M 0.0132547 167.504 L 0.0132547 220.279 L 99.1722 168.055 L 0.0132547 167.504 z " id="path700" style="font-size:12;fill:#000066;"/>
  <path d="M 381.851 169.683 L 340.515 169.362 L 496.331 246.942 L 495.306 229.193 L 381.851 169.683 z M 38.7339 248.25 L 184.835 171.542 L 146.462 171.796 L 0.0132553 248.135 " id="path701" style="font-size:12;fill:#cc0000;"/>
  <path d="M 497.901 21.7952 L 379.905 80.3105 L 496.331 80.7462 L 496.331 167.94 L 397.172 167.94 L 495.414 221.171 L 496.856 248.25 L 444.382 247.623 L 300.767 177.118 L 300.767 248.25 L 196.1 248.25 L 196.1 177.118 L 61.3808 248.059 L 0.536507 248.25 L 0.536507 496.063 L 992.126 496.063 L 992.126 0.436192 L 498.949 0.00033043 M 0.536507 27.9711 L 0.0132547 79.4385 L 104.405 80.7462 L 0.536507 27.9711 z " id="path556" style="font-size:12;fill:#000066;"/>
  <rect height="496.062988" id="rect3302" style="font-size:12;fill:#009fca;fill-rule:evenodd;stroke-width:1pt;" width="496.062988" x="496.062988" y="0.00000000"/>
  <rect height="248.031479" id="rect3303" style="font-size:12;fill:#009fca;fill-rule:evenodd;stroke-width:1pt;" width="523.487488" x="0.00000000" y="248.031448"/>
  <polygon id="polygon136" points="591.041,433.161 533.774,391.476 476.501,433.151 498.449,365.806 441.115,324.214 511.946,324.278 533.785,256.897 555.613,324.281 626.445,324.23 569.104,365.812 591.041,433.161 " style="font-size:12;fill:#fff40d;fill-rule:evenodd;stroke-width:1pt;" transform="matrix(0.498761,0.000000,0.000000,0.469385,657.6627,-98.25990)"/>
  <polygon id="polygon3314" points="591.041,433.161 533.774,391.476 476.501,433.151 498.449,365.806 441.115,324.214 511.946,324.278 533.785,256.897 555.613,324.281 626.445,324.23 569.104,365.812 591.041,433.161 " style="font-size:12;fill:#fff40d;fill-rule:evenodd;stroke-width:1pt;" transform="matrix(0.498761,0.000000,0.000000,0.469385,569.0006,153.8731)"/>
  <polygon id="polygon3315" points="591.041,433.161 533.774,391.476 476.501,433.151 498.449,365.806 441.115,324.214 511.946,324.278 533.785,256.897 555.613,324.281 626.445,324.23 569.104,365.812 591.041,433.161 " style="font-size:12;fill:#fff40d;fill-rule:evenodd;stroke-width:1pt;" transform="matrix(0.498761,0.000000,0.000000,0.469385,657.6628,96.79682)"/>
  <polygon id="polygon3317" points="591.041,433.161 533.774,391.476 476.501,433.151 498.449,365.806 441.115,324.214 511.946,324.278 533.785,256.897 555.613,324.281 626.445,324.23 569.104,365.812 591.041,433.161 " style="font-size:12;fill:#fff40d;fill-rule:evenodd;stroke-width:1pt;" transform="matrix(0.498761,0.000000,0.000000,0.469385,276.4154,279.6626)"/>
  <polygon id="polygon3319" points="591.041,433.161 533.774,391.476 476.501,433.151 498.449,365.806 441.115,324.214 511.946,324.278 533.785,256.897 555.613,324.281 626.445,324.23 569.104,365.812 591.041,433.161 " style="font-size:12;fill:#fff40d;fill-rule:evenodd;stroke-width:1pt;" transform="matrix(-0.498761,6.107859e-17,-5.748118e-17,-0.469385,910.8340,486.0882)"/>
  <polygon id="polygon3320" points="591.041,433.161 533.774,391.476 476.501,433.151 498.449,365.806 441.115,324.214 511.946,324.278 533.785,256.897 555.613,324.281 626.445,324.23 569.104,365.812 591.041,433.161 " style="font-size:12;fill:#fff40d;fill-rule:evenodd;stroke-width:1pt;" transform="matrix(-0.498761,6.107859e-17,-5.748118e-17,-0.469385,1015.012,342.0122)"/>
  <polygon id="polygon3321" points="591.041,433.161 533.774,391.476 476.501,433.151 498.449,365.806 441.115,324.214 511.946,324.278 533.785,256.897 555.613,324.281 626.445,324.23 569.104,365.812 591.041,433.161 " style="font-size:12;fill:#fff40d;fill-rule:evenodd;stroke-width:1pt;" transform="matrix(-0.498761,6.107859e-17,-5.748118e-17,-0.469385,1102.566,312.0887)"/>
  <polygon id="polygon3322" points="591.041,433.161 533.774,391.476 476.501,433.151 498.449,365.806 441.115,324.214 511.946,324.278 533.785,256.897 555.613,324.281 626.445,324.23 569.104,365.812 591.041,433.161 " style="font-size:12;fill:#fff40d;fill-rule:evenodd;stroke-width:1pt;" transform="matrix(-0.498761,6.107859e-17,-5.748118e-17,-0.469385,1015.012,561.4510)"/>
  <polygon id="polygon3323" points="591.041,433.161 533.774,391.476 476.501,433.151 498.449,365.806 441.115,324.214 511.946,324.278 533.785,256.897 555.613,324.281 626.445,324.23 569.104,365.812 591.041,433.161 " style="font-size:12;fill:#fff40d;fill-rule:evenodd;stroke-width:1pt;" transform="matrix(-0.498761,6.107859e-17,-5.748118e-17,-0.469385,910.8340,586.9413)"/>
</svg>
