<?xml version="1.0" encoding="UTF-8" standalone="no"?>
<!DOCTYPE svg PUBLIC "-//W3C//DTD SVG 20010904//EN"
"http://www.w3.org/TR/2001/REC-SVG-20010904/DTD/svg10.dtd">
<!-- Created with Sodipodi ("http://www.sodipodi.com/") --><!-- /Creative Commons Public Domain --><!--

--><svg height="130" id="svg153" sodipodi:docname="C:\Documents and Settings\Daniel\My Documents\US_flag.svg" sodipodi:version="0.29win" width="247" xmlns="http://www.w3.org/2000/svg" xmlns:sodipodi="http://sodipodi.sourceforge.net/DTD/sodipodi-0.dtd" xmlns:xlink="http://www.w3.org/1999/xlink">
  <metadata>
    <rdf:RDF xmlns:cc="http://web.resource.org/cc/" xmlns:dc="http://purl.org/dc/elements/1.1/" xmlns:rdf="http://www.w3.org/1999/02/22-rdf-syntax-ns#">
      <cc:Work rdf:about="">
        <dc:title>United States</dc:title>
        <dc:description></dc:description>
        <dc:subject>
          <rdf:Bag>
            <rdf:li></rdf:li>
            <rdf:li>united_nations_member</rdf:li>
            <rdf:li>america</rdf:li>
            <rdf:li>flag</rdf:li>
            <rdf:li>unitedstates</rdf:li>
            <rdf:li>north_america</rdf:li>
            <rdf:li>sign</rdf:li>
          </rdf:Bag>
        </dc:subject>
        <dc:publisher>
          <cc:Agent rdf:about="http://www.openclipart.org">
            <dc:title>Daniel McRae</dc:title>
          </cc:Agent>
        </dc:publisher>
        <dc:creator>
          <cc:Agent>
            <dc:title>Daniel McRae</dc:title>
          </cc:Agent>
        </dc:creator>
        <dc:rights>
          <cc:Agent>
            <dc:title>Daniel McRae</dc:title>
          </cc:Agent>
        </dc:rights>
        <dc:date></dc:date>
        <dc:format>image/svg+xml</dc:format>
        <dc:type rdf:resource="http://purl.org/dc/dcmitype/StillImage"/>
        <cc:license rdf:resource="http://web.resource.org/cc/PublicDomain"/>
        <dc:language>en</dc:language>
      </cc:Work>
      <cc:License rdf:about="http://web.resource.org/cc/PublicDomain">
        <cc:permits rdf:resource="http://web.resource.org/cc/Reproduction"/>
        <cc:permits rdf:resource="http://web.resource.org/cc/Distribution"/>
        <cc:permits rdf:resource="http://web.resource.org/cc/DerivativeWorks"/>
      </cc:License>
    </rdf:RDF>
  </metadata>
  <desc>
    The United States of America flag, produced by Daniel McRae
  </desc>
  <defs id="defs155"/>
  <sodipodi:namedview id="base"/>
  <g id="g390">
    <g id="g169" style="font-size:12;fill:#bd3d44;fill-opacity:1;">
      <rect height="10.000000" id="rect156" style="font-size:12;fill:#bd3d44;fill-rule:evenodd;stroke-width:1pt;fill-opacity:1;" width="247.000000" x="0.000000" y="0.000000"/>
      <rect height="10.000000" id="rect158" style="font-size:12;fill:#bd3d44;fill-rule:evenodd;stroke-width:1pt;fill-opacity:1;" width="247.000000" x="0.000000" y="20.000000"/>
      <rect height="10" id="rect160" style="font-size:12;fill:#bd3d44;fill-rule:evenodd;stroke-width:1pt;fill-opacity:1;" width="247" x="0" y="40"/>
      <rect height="10" id="rect162" style="font-size:12;fill:#bd3d44;fill-rule:evenodd;stroke-width:1pt;fill-opacity:1;" width="247" x="0" y="60"/>
      <rect height="10.000000" id="rect164" style="font-size:12;fill:#bd3d44;fill-rule:evenodd;stroke-width:1pt;fill-opacity:1;" width="247.000000" x="0.000000" y="80.000000"/>
      <rect height="10" id="rect166" style="font-size:12;fill:#bd3d44;fill-rule:evenodd;stroke-width:1pt;fill-opacity:1;" width="247" x="0" y="100"/>
      <rect height="10" id="rect168" style="font-size:12;fill:#bd3d44;fill-rule:evenodd;stroke-width:1pt;fill-opacity:1;" width="247" x="0" y="120"/>
    </g>
    <g id="g177" style="font-size:12;fill:#ffffff;">
      <rect height="10" id="rect157" style="font-size:12;fill:#ffffff;fill-rule:evenodd;stroke-width:1pt;fill-opacity:1;" width="247" x="0" y="10"/>
      <rect height="10" id="rect159" style="font-size:12;fill:#ffffff;fill-rule:evenodd;stroke-width:1pt;fill-opacity:1;" width="247" x="0" y="30"/>
      <rect height="10" id="rect161" style="font-size:12;fill:#ffffff;fill-rule:evenodd;stroke-width:1pt;fill-opacity:1;" width="247" x="0" y="50"/>
      <rect height="10" id="rect163" style="font-size:12;fill:#ffffff;fill-rule:evenodd;stroke-width:1pt;fill-opacity:1;" width="247" x="0" y="70"/>
      <rect height="10" id="rect165" style="font-size:12;fill:#ffffff;fill-rule:evenodd;stroke-width:1pt;fill-opacity:1;" width="247" x="0" y="90"/>
      <rect height="10" id="rect167" style="font-size:12;fill:#ffffff;fill-rule:evenodd;stroke-width:1pt;fill-opacity:1;" width="247" x="0" y="110"/>
    </g>
  </g>
  <rect height="70" id="rect200" style="font-size:12;fill:#192f5d;fill-rule:evenodd;stroke-width:1pt;" width="98.8" x="0" y="0"/>
  <g id="g274">
    <g id="g218">
      <g id="g194">
        <polygon id="polygon207" points="0,-4.004 0.898954009,-1.2373040455 3.808030291,-1.2373040455 1.454538141067,0.4726080910 2.35349215,3.2393040455 0,1.529391909 -2.35349215,3.2393040455 -1.454538141067,0.472608091 -3.808030291,-1.2373040455 -0.898954009,-1.2373040455 0,-4.004 " sodipodi:arg1="-1.570796" sodipodi:arg2="-0.942477796" sodipodi:cx="0.000000" sodipodi:cy="0.000000" sodipodi:r1="4.004000" sodipodi:r2="1.529391909" sodipodi:sides="5" sodipodi:type="star" style="font-size:12;fill:#ffffff;fill-opacity:1;fill-rule:evenodd;stroke:none;stroke-width:0.125;stroke-dasharray:none;" transform="translate(8.2333333333,7)"/>
        <polygon id="polygon188" points="0,-4.004 0.898954009,-1.2373040455 3.808030291,-1.2373040455 1.454538141067,0.4726080910 2.35349215,3.2393040455 0,1.529391909 -2.35349215,3.2393040455 -1.454538141067,0.472608091 -3.808030291,-1.2373040455 -0.898954009,-1.2373040455 0,-4.004 " sodipodi:arg1="-1.570796" sodipodi:arg2="-0.942477796" sodipodi:cx="0.000000" sodipodi:cy="0.000000" sodipodi:r1="4.004000" sodipodi:r2="1.529391909" sodipodi:sides="5" sodipodi:type="star" style="font-size:12;fill:#ffffff;fill-opacity:1;fill-rule:evenodd;stroke:none;stroke-width:0.125;stroke-dasharray:none;" transform="translate(24.7,7)"/>
        <polygon id="polygon189" points="0,-4.004 0.898954009,-1.2373040455 3.808030291,-1.2373040455 1.454538141067,0.4726080910 2.35349215,3.2393040455 0,1.529391909 -2.35349215,3.2393040455 -1.454538141067,0.472608091 -3.808030291,-1.2373040455 -0.898954009,-1.2373040455 0,-4.004 " sodipodi:arg1="-1.570796" sodipodi:arg2="-0.942477796" sodipodi:cx="0.000000" sodipodi:cy="0.000000" sodipodi:r1="4.004000" sodipodi:r2="1.529391909" sodipodi:sides="5" sodipodi:type="star" style="font-size:12;fill:#ffffff;fill-opacity:1;fill-rule:evenodd;stroke:none;stroke-width:0.125;stroke-dasharray:none;" transform="translate(41.16666666667,7)"/>
        <polygon id="polygon190" points="0,-4.004 0.898954009,-1.2373040455 3.808030291,-1.2373040455 1.454538141067,0.4726080910 2.35349215,3.2393040455 0,1.529391909 -2.35349215,3.2393040455 -1.454538141067,0.472608091 -3.808030291,-1.2373040455 -0.898954009,-1.2373040455 0,-4.004 " sodipodi:arg1="-1.570796" sodipodi:arg2="-0.942477796" sodipodi:cx="0.000000" sodipodi:cy="0.000000" sodipodi:r1="4.004000" sodipodi:r2="1.529391909" sodipodi:sides="5" sodipodi:type="star" style="font-size:12;fill:#ffffff;fill-opacity:1;fill-rule:evenodd;stroke:none;stroke-width:0.125;stroke-dasharray:none;" transform="translate(57.63333333,7)"/>
        <polygon id="polygon191" points="0,-4.004 0.898954009,-1.2373040455 3.808030291,-1.2373040455 1.454538141067,0.4726080910 2.35349215,3.2393040455 0,1.529391909 -2.35349215,3.2393040455 -1.454538141067,0.472608091 -3.808030291,-1.2373040455 -0.898954009,-1.2373040455 0,-4.004 " sodipodi:arg1="-1.570796" sodipodi:arg2="-0.942477796" sodipodi:cx="0.000000" sodipodi:cy="0.000000" sodipodi:r1="4.004000" sodipodi:r2="1.529391909" sodipodi:sides="5" sodipodi:type="star" style="font-size:12;fill:#ffffff;fill-opacity:1;fill-rule:evenodd;stroke:none;stroke-width:0.125;stroke-dasharray:none;" transform="translate(74.1,7)"/>
        <polygon id="polygon192" points="0,-4.004 0.898954009,-1.2373040455 3.808030291,-1.2373040455 1.454538141067,0.4726080910 2.35349215,3.2393040455 0,1.529391909 -2.35349215,3.2393040455 -1.454538141067,0.472608091 -3.808030291,-1.2373040455 -0.898954009,-1.2373040455 0,-4.004 " sodipodi:arg1="-1.570796" sodipodi:arg2="-0.942477796" sodipodi:cx="0.000000" sodipodi:cy="0.000000" sodipodi:r1="4.004000" sodipodi:r2="1.529391909" sodipodi:sides="5" sodipodi:type="star" style="font-size:12;fill:#ffffff;fill-opacity:1;fill-rule:evenodd;stroke:none;stroke-width:0.125;stroke-dasharray:none;" transform="translate(90.5666666666667,7)"/>
      </g>
      <g id="g205">
        <polygon id="polygon193" points="0,-4.004 0.898954009,-1.2373040455 3.808030291,-1.2373040455 1.454538141067,0.4726080910 2.35349215,3.2393040455 0,1.529391909 -2.35349215,3.2393040455 -1.454538141067,0.472608091 -3.808030291,-1.2373040455 -0.898954009,-1.2373040455 0,-4.004 " sodipodi:arg1="-1.570796" sodipodi:arg2="-0.942477796" sodipodi:cx="0.000000" sodipodi:cy="0.000000" sodipodi:r1="4.004000" sodipodi:r2="1.529391909" sodipodi:sides="5" sodipodi:type="star" style="font-size:12;fill:#ffffff;fill-opacity:1;fill-rule:evenodd;stroke:none;stroke-width:0.125;stroke-dasharray:none;" transform="translate(16.46666666667,14)"/>
        <polygon id="polygon201" points="0,-4.004 0.898954009,-1.2373040455 3.808030291,-1.2373040455 1.454538141067,0.4726080910 2.35349215,3.2393040455 0,1.529391909 -2.35349215,3.2393040455 -1.454538141067,0.472608091 -3.808030291,-1.2373040455 -0.898954009,-1.2373040455 0,-4.004 " sodipodi:arg1="-1.570796" sodipodi:arg2="-0.942477796" sodipodi:cx="0.000000" sodipodi:cy="0.000000" sodipodi:r1="4.004000" sodipodi:r2="1.529391909" sodipodi:sides="5" sodipodi:type="star" style="font-size:12;fill:#ffffff;fill-opacity:1;fill-rule:evenodd;stroke:none;stroke-width:0.125;stroke-dasharray:none;" transform="translate(32.93333333333,14)"/>
        <polygon id="polygon202" points="0,-4.004 0.898954009,-1.2373040455 3.808030291,-1.2373040455 1.454538141067,0.4726080910 2.35349215,3.2393040455 0,1.529391909 -2.35349215,3.2393040455 -1.454538141067,0.472608091 -3.808030291,-1.2373040455 -0.898954009,-1.2373040455 0,-4.004 " sodipodi:arg1="-1.570796" sodipodi:arg2="-0.942477796" sodipodi:cx="0.000000" sodipodi:cy="0.000000" sodipodi:r1="4.004000" sodipodi:r2="1.529391909" sodipodi:sides="5" sodipodi:type="star" style="font-size:12;fill:#ffffff;fill-opacity:1;fill-rule:evenodd;stroke:none;stroke-width:0.125;stroke-dasharray:none;" transform="translate(49.4,14)"/>
        <polygon id="polygon203" points="0,-4.004 0.898954009,-1.2373040455 3.808030291,-1.2373040455 1.454538141067,0.4726080910 2.35349215,3.2393040455 0,1.529391909 -2.35349215,3.2393040455 -1.454538141067,0.472608091 -3.808030291,-1.2373040455 -0.898954009,-1.2373040455 0,-4.004 " sodipodi:arg1="-1.570796" sodipodi:arg2="-0.942477796" sodipodi:cx="0.000000" sodipodi:cy="0.000000" sodipodi:r1="4.004000" sodipodi:r2="1.529391909" sodipodi:sides="5" sodipodi:type="star" style="font-size:12;fill:#ffffff;fill-opacity:1;fill-rule:evenodd;stroke:none;stroke-width:0.125;stroke-dasharray:none;" transform="translate(65.86666666667,14)"/>
        <polygon id="polygon204" points="0,-4.004 0.898954009,-1.2373040455 3.808030291,-1.2373040455 1.454538141067,0.4726080910 2.35349215,3.2393040455 0,1.529391909 -2.35349215,3.2393040455 -1.454538141067,0.472608091 -3.808030291,-1.2373040455 -0.898954009,-1.2373040455 0,-4.004 " sodipodi:arg1="-1.570796" sodipodi:arg2="-0.942477796" sodipodi:cx="0.000000" sodipodi:cy="0.000000" sodipodi:r1="4.004000" sodipodi:r2="1.529391909" sodipodi:sides="5" sodipodi:type="star" style="font-size:12;fill:#ffffff;fill-opacity:1;fill-rule:evenodd;stroke:none;stroke-width:0.125;stroke-dasharray:none;" transform="translate(82.3333333333,14)"/>
      </g>
    </g>
    <g id="g232" transform="translate(0,14)">
      <g id="g233">
        <polygon id="polygon234" points="0,-4.004 0.898954009,-1.2373040455 3.808030291,-1.2373040455 1.454538141067,0.4726080910 2.35349215,3.2393040455 0,1.529391909 -2.35349215,3.2393040455 -1.454538141067,0.472608091 -3.808030291,-1.2373040455 -0.898954009,-1.2373040455 0,-4.004 " sodipodi:arg1="-1.570796" sodipodi:arg2="-0.942477796" sodipodi:cx="0.000000" sodipodi:cy="0.000000" sodipodi:r1="4.004000" sodipodi:r2="1.529391909" sodipodi:sides="5" sodipodi:type="star" style="font-size:12;fill:#ffffff;fill-opacity:1;fill-rule:evenodd;stroke:none;stroke-width:0.125;stroke-dasharray:none;" transform="translate(8.2333333333,7)"/>
        <polygon id="polygon235" points="0,-4.004 0.898954009,-1.2373040455 3.808030291,-1.2373040455 1.454538141067,0.4726080910 2.35349215,3.2393040455 0,1.529391909 -2.35349215,3.2393040455 -1.454538141067,0.472608091 -3.808030291,-1.2373040455 -0.898954009,-1.2373040455 0,-4.004 " sodipodi:arg1="-1.570796" sodipodi:arg2="-0.942477796" sodipodi:cx="0.000000" sodipodi:cy="0.000000" sodipodi:r1="4.004000" sodipodi:r2="1.529391909" sodipodi:sides="5" sodipodi:type="star" style="font-size:12;fill:#ffffff;fill-opacity:1;fill-rule:evenodd;stroke:none;stroke-width:0.125;stroke-dasharray:none;" transform="translate(24.7,7)"/>
        <polygon id="polygon236" points="0,-4.004 0.898954009,-1.2373040455 3.808030291,-1.2373040455 1.454538141067,0.4726080910 2.35349215,3.2393040455 0,1.529391909 -2.35349215,3.2393040455 -1.454538141067,0.472608091 -3.808030291,-1.2373040455 -0.898954009,-1.2373040455 0,-4.004 " sodipodi:arg1="-1.570796" sodipodi:arg2="-0.942477796" sodipodi:cx="0.000000" sodipodi:cy="0.000000" sodipodi:r1="4.004000" sodipodi:r2="1.529391909" sodipodi:sides="5" sodipodi:type="star" style="font-size:12;fill:#ffffff;fill-opacity:1;fill-rule:evenodd;stroke:none;stroke-width:0.125;stroke-dasharray:none;" transform="translate(41.16666666667,7)"/>
        <polygon id="polygon237" points="0,-4.004 0.898954009,-1.2373040455 3.808030291,-1.2373040455 1.454538141067,0.4726080910 2.35349215,3.2393040455 0,1.529391909 -2.35349215,3.2393040455 -1.454538141067,0.472608091 -3.808030291,-1.2373040455 -0.898954009,-1.2373040455 0,-4.004 " sodipodi:arg1="-1.570796" sodipodi:arg2="-0.942477796" sodipodi:cx="0.000000" sodipodi:cy="0.000000" sodipodi:r1="4.004000" sodipodi:r2="1.529391909" sodipodi:sides="5" sodipodi:type="star" style="font-size:12;fill:#ffffff;fill-opacity:1;fill-rule:evenodd;stroke:none;stroke-width:0.125;stroke-dasharray:none;" transform="translate(57.63333333,7)"/>
        <polygon id="polygon238" points="0,-4.004 0.898954009,-1.2373040455 3.808030291,-1.2373040455 1.454538141067,0.4726080910 2.35349215,3.2393040455 0,1.529391909 -2.35349215,3.2393040455 -1.454538141067,0.472608091 -3.808030291,-1.2373040455 -0.898954009,-1.2373040455 0,-4.004 " sodipodi:arg1="-1.570796" sodipodi:arg2="-0.942477796" sodipodi:cx="0.000000" sodipodi:cy="0.000000" sodipodi:r1="4.004000" sodipodi:r2="1.529391909" sodipodi:sides="5" sodipodi:type="star" style="font-size:12;fill:#ffffff;fill-opacity:1;fill-rule:evenodd;stroke:none;stroke-width:0.125;stroke-dasharray:none;" transform="translate(74.1,7)"/>
        <polygon id="polygon239" points="0,-4.004 0.898954009,-1.2373040455 3.808030291,-1.2373040455 1.454538141067,0.4726080910 2.35349215,3.2393040455 0,1.529391909 -2.35349215,3.2393040455 -1.454538141067,0.472608091 -3.808030291,-1.2373040455 -0.898954009,-1.2373040455 0,-4.004 " sodipodi:arg1="-1.570796" sodipodi:arg2="-0.942477796" sodipodi:cx="0.000000" sodipodi:cy="0.000000" sodipodi:r1="4.004000" sodipodi:r2="1.529391909" sodipodi:sides="5" sodipodi:type="star" style="font-size:12;fill:#ffffff;fill-opacity:1;fill-rule:evenodd;stroke:none;stroke-width:0.125;stroke-dasharray:none;" transform="translate(90.5666666666667,7)"/>
      </g>
      <g id="g240">
        <polygon id="polygon241" points="0,-4.004 0.898954009,-1.2373040455 3.808030291,-1.2373040455 1.454538141067,0.4726080910 2.35349215,3.2393040455 0,1.529391909 -2.35349215,3.2393040455 -1.454538141067,0.472608091 -3.808030291,-1.2373040455 -0.898954009,-1.2373040455 0,-4.004 " sodipodi:arg1="-1.570796" sodipodi:arg2="-0.942477796" sodipodi:cx="0.000000" sodipodi:cy="0.000000" sodipodi:r1="4.004000" sodipodi:r2="1.529391909" sodipodi:sides="5" sodipodi:type="star" style="font-size:12;fill:#ffffff;fill-opacity:1;fill-rule:evenodd;stroke:none;stroke-width:0.125;stroke-dasharray:none;" transform="translate(16.46666666667,14)"/>
        <polygon id="polygon242" points="0,-4.004 0.898954009,-1.2373040455 3.808030291,-1.2373040455 1.454538141067,0.4726080910 2.35349215,3.2393040455 0,1.529391909 -2.35349215,3.2393040455 -1.454538141067,0.472608091 -3.808030291,-1.2373040455 -0.898954009,-1.2373040455 0,-4.004 " sodipodi:arg1="-1.570796" sodipodi:arg2="-0.942477796" sodipodi:cx="0.000000" sodipodi:cy="0.000000" sodipodi:r1="4.004000" sodipodi:r2="1.529391909" sodipodi:sides="5" sodipodi:type="star" style="font-size:12;fill:#ffffff;fill-opacity:1;fill-rule:evenodd;stroke:none;stroke-width:0.125;stroke-dasharray:none;" transform="translate(32.93333333333,14)"/>
        <polygon id="polygon243" points="0,-4.004 0.898954009,-1.2373040455 3.808030291,-1.2373040455 1.454538141067,0.4726080910 2.35349215,3.2393040455 0,1.529391909 -2.35349215,3.2393040455 -1.454538141067,0.472608091 -3.808030291,-1.2373040455 -0.898954009,-1.2373040455 0,-4.004 " sodipodi:arg1="-1.570796" sodipodi:arg2="-0.942477796" sodipodi:cx="0.000000" sodipodi:cy="0.000000" sodipodi:r1="4.004000" sodipodi:r2="1.529391909" sodipodi:sides="5" sodipodi:type="star" style="font-size:12;fill:#ffffff;fill-opacity:1;fill-rule:evenodd;stroke:none;stroke-width:0.125;stroke-dasharray:none;" transform="translate(49.4,14)"/>
        <polygon id="polygon244" points="0,-4.004 0.898954009,-1.2373040455 3.808030291,-1.2373040455 1.454538141067,0.4726080910 2.35349215,3.2393040455 0,1.529391909 -2.35349215,3.2393040455 -1.454538141067,0.472608091 -3.808030291,-1.2373040455 -0.898954009,-1.2373040455 0,-4.004 " sodipodi:arg1="-1.570796" sodipodi:arg2="-0.942477796" sodipodi:cx="0.000000" sodipodi:cy="0.000000" sodipodi:r1="4.004000" sodipodi:r2="1.529391909" sodipodi:sides="5" sodipodi:type="star" style="font-size:12;fill:#ffffff;fill-opacity:1;fill-rule:evenodd;stroke:none;stroke-width:0.125;stroke-dasharray:none;" transform="translate(65.86666666667,14)"/>
        <polygon id="polygon245" points="0,-4.004 0.898954009,-1.2373040455 3.808030291,-1.2373040455 1.454538141067,0.4726080910 2.35349215,3.2393040455 0,1.529391909 -2.35349215,3.2393040455 -1.454538141067,0.472608091 -3.808030291,-1.2373040455 -0.898954009,-1.2373040455 0,-4.004 " sodipodi:arg1="-1.570796" sodipodi:arg2="-0.942477796" sodipodi:cx="0.000000" sodipodi:cy="0.000000" sodipodi:r1="4.004000" sodipodi:r2="1.529391909" sodipodi:sides="5" sodipodi:type="star" style="font-size:12;fill:#ffffff;fill-opacity:1;fill-rule:evenodd;stroke:none;stroke-width:0.125;stroke-dasharray:none;" transform="translate(82.3333333333,14)"/>
      </g>
    </g>
    <g id="g246" transform="translate(0,28)">
      <g id="g247">
        <polygon id="polygon248" points="0,-4.004 0.898954009,-1.2373040455 3.808030291,-1.2373040455 1.454538141067,0.4726080910 2.35349215,3.2393040455 0,1.529391909 -2.35349215,3.2393040455 -1.454538141067,0.472608091 -3.808030291,-1.2373040455 -0.898954009,-1.2373040455 0,-4.004 " sodipodi:arg1="-1.570796" sodipodi:arg2="-0.942477796" sodipodi:cx="0.000000" sodipodi:cy="0.000000" sodipodi:r1="4.004000" sodipodi:r2="1.529391909" sodipodi:sides="5" sodipodi:type="star" style="font-size:12;fill:#ffffff;fill-opacity:1;fill-rule:evenodd;stroke:none;stroke-width:0.125;stroke-dasharray:none;" transform="translate(8.2333333333,7)"/>
        <polygon id="polygon249" points="0,-4.004 0.898954009,-1.2373040455 3.808030291,-1.2373040455 1.454538141067,0.4726080910 2.35349215,3.2393040455 0,1.529391909 -2.35349215,3.2393040455 -1.454538141067,0.472608091 -3.808030291,-1.2373040455 -0.898954009,-1.2373040455 0,-4.004 " sodipodi:arg1="-1.570796" sodipodi:arg2="-0.942477796" sodipodi:cx="0.000000" sodipodi:cy="0.000000" sodipodi:r1="4.004000" sodipodi:r2="1.529391909" sodipodi:sides="5" sodipodi:type="star" style="font-size:12;fill:#ffffff;fill-opacity:1;fill-rule:evenodd;stroke:none;stroke-width:0.125;stroke-dasharray:none;" transform="translate(24.7,7)"/>
        <polygon id="polygon250" points="0,-4.004 0.898954009,-1.2373040455 3.808030291,-1.2373040455 1.454538141067,0.4726080910 2.35349215,3.2393040455 0,1.529391909 -2.35349215,3.2393040455 -1.454538141067,0.472608091 -3.808030291,-1.2373040455 -0.898954009,-1.2373040455 0,-4.004 " sodipodi:arg1="-1.570796" sodipodi:arg2="-0.942477796" sodipodi:cx="0.000000" sodipodi:cy="0.000000" sodipodi:r1="4.004000" sodipodi:r2="1.529391909" sodipodi:sides="5" sodipodi:type="star" style="font-size:12;fill:#ffffff;fill-opacity:1;fill-rule:evenodd;stroke:none;stroke-width:0.125;stroke-dasharray:none;" transform="translate(41.16666666667,7)"/>
        <polygon id="polygon251" points="0,-4.004 0.898954009,-1.2373040455 3.808030291,-1.2373040455 1.454538141067,0.4726080910 2.35349215,3.2393040455 0,1.529391909 -2.35349215,3.2393040455 -1.454538141067,0.472608091 -3.808030291,-1.2373040455 -0.898954009,-1.2373040455 0,-4.004 " sodipodi:arg1="-1.570796" sodipodi:arg2="-0.942477796" sodipodi:cx="0.000000" sodipodi:cy="0.000000" sodipodi:r1="4.004000" sodipodi:r2="1.529391909" sodipodi:sides="5" sodipodi:type="star" style="font-size:12;fill:#ffffff;fill-opacity:1;fill-rule:evenodd;stroke:none;stroke-width:0.125;stroke-dasharray:none;" transform="translate(57.63333333,7)"/>
        <polygon id="polygon252" points="0,-4.004 0.898954009,-1.2373040455 3.808030291,-1.2373040455 1.454538141067,0.4726080910 2.35349215,3.2393040455 0,1.529391909 -2.35349215,3.2393040455 -1.454538141067,0.472608091 -3.808030291,-1.2373040455 -0.898954009,-1.2373040455 0,-4.004 " sodipodi:arg1="-1.570796" sodipodi:arg2="-0.942477796" sodipodi:cx="0.000000" sodipodi:cy="0.000000" sodipodi:r1="4.004000" sodipodi:r2="1.529391909" sodipodi:sides="5" sodipodi:type="star" style="font-size:12;fill:#ffffff;fill-opacity:1;fill-rule:evenodd;stroke:none;stroke-width:0.125;stroke-dasharray:none;" transform="translate(74.1,7)"/>
        <polygon id="polygon253" points="0,-4.004 0.898954009,-1.2373040455 3.808030291,-1.2373040455 1.454538141067,0.4726080910 2.35349215,3.2393040455 0,1.529391909 -2.35349215,3.2393040455 -1.454538141067,0.472608091 -3.808030291,-1.2373040455 -0.898954009,-1.2373040455 0,-4.004 " sodipodi:arg1="-1.570796" sodipodi:arg2="-0.942477796" sodipodi:cx="0.000000" sodipodi:cy="0.000000" sodipodi:r1="4.004000" sodipodi:r2="1.529391909" sodipodi:sides="5" sodipodi:type="star" style="font-size:12;fill:#ffffff;fill-opacity:1;fill-rule:evenodd;stroke:none;stroke-width:0.125;stroke-dasharray:none;" transform="translate(90.5666666666667,7)"/>
      </g>
      <g id="g254">
        <polygon id="polygon255" points="0,-4.004 0.898954009,-1.2373040455 3.808030291,-1.2373040455 1.454538141067,0.4726080910 2.35349215,3.2393040455 0,1.529391909 -2.35349215,3.2393040455 -1.454538141067,0.472608091 -3.808030291,-1.2373040455 -0.898954009,-1.2373040455 0,-4.004 " sodipodi:arg1="-1.570796" sodipodi:arg2="-0.942477796" sodipodi:cx="0.000000" sodipodi:cy="0.000000" sodipodi:r1="4.004000" sodipodi:r2="1.529391909" sodipodi:sides="5" sodipodi:type="star" style="font-size:12;fill:#ffffff;fill-opacity:1;fill-rule:evenodd;stroke:none;stroke-width:0.125;stroke-dasharray:none;" transform="translate(16.46666666667,14)"/>
        <polygon id="polygon256" points="0,-4.004 0.898954009,-1.2373040455 3.808030291,-1.2373040455 1.454538141067,0.4726080910 2.35349215,3.2393040455 0,1.529391909 -2.35349215,3.2393040455 -1.454538141067,0.472608091 -3.808030291,-1.2373040455 -0.898954009,-1.2373040455 0,-4.004 " sodipodi:arg1="-1.570796" sodipodi:arg2="-0.942477796" sodipodi:cx="0.000000" sodipodi:cy="0.000000" sodipodi:r1="4.004000" sodipodi:r2="1.529391909" sodipodi:sides="5" sodipodi:type="star" style="font-size:12;fill:#ffffff;fill-opacity:1;fill-rule:evenodd;stroke:none;stroke-width:0.125;stroke-dasharray:none;" transform="translate(32.93333333333,14)"/>
        <polygon id="polygon257" points="0,-4.004 0.898954009,-1.2373040455 3.808030291,-1.2373040455 1.454538141067,0.4726080910 2.35349215,3.2393040455 0,1.529391909 -2.35349215,3.2393040455 -1.454538141067,0.472608091 -3.808030291,-1.2373040455 -0.898954009,-1.2373040455 0,-4.004 " sodipodi:arg1="-1.570796" sodipodi:arg2="-0.942477796" sodipodi:cx="0.000000" sodipodi:cy="0.000000" sodipodi:r1="4.004000" sodipodi:r2="1.529391909" sodipodi:sides="5" sodipodi:type="star" style="font-size:12;fill:#ffffff;fill-opacity:1;fill-rule:evenodd;stroke:none;stroke-width:0.125;stroke-dasharray:none;" transform="translate(49.4,14)"/>
        <polygon id="polygon258" points="0,-4.004 0.898954009,-1.2373040455 3.808030291,-1.2373040455 1.454538141067,0.4726080910 2.35349215,3.2393040455 0,1.529391909 -2.35349215,3.2393040455 -1.454538141067,0.472608091 -3.808030291,-1.2373040455 -0.898954009,-1.2373040455 0,-4.004 " sodipodi:arg1="-1.570796" sodipodi:arg2="-0.942477796" sodipodi:cx="0.000000" sodipodi:cy="0.000000" sodipodi:r1="4.004000" sodipodi:r2="1.529391909" sodipodi:sides="5" sodipodi:type="star" style="font-size:12;fill:#ffffff;fill-opacity:1;fill-rule:evenodd;stroke:none;stroke-width:0.125;stroke-dasharray:none;" transform="translate(65.86666666667,14)"/>
        <polygon id="polygon259" points="0,-4.004 0.898954009,-1.2373040455 3.808030291,-1.2373040455 1.454538141067,0.4726080910 2.35349215,3.2393040455 0,1.529391909 -2.35349215,3.2393040455 -1.454538141067,0.472608091 -3.808030291,-1.2373040455 -0.898954009,-1.2373040455 0,-4.004 " sodipodi:arg1="-1.570796" sodipodi:arg2="-0.942477796" sodipodi:cx="0.000000" sodipodi:cy="0.000000" sodipodi:r1="4.004000" sodipodi:r2="1.529391909" sodipodi:sides="5" sodipodi:type="star" style="font-size:12;fill:#ffffff;fill-opacity:1;fill-rule:evenodd;stroke:none;stroke-width:0.125;stroke-dasharray:none;" transform="translate(82.3333333333,14)"/>
      </g>
    </g>
    <g id="g260" transform="translate(0,42)">
      <g id="g261">
        <polygon id="polygon262" points="0,-4.004 0.898954009,-1.2373040455 3.808030291,-1.2373040455 1.454538141067,0.4726080910 2.35349215,3.2393040455 0,1.529391909 -2.35349215,3.2393040455 -1.454538141067,0.472608091 -3.808030291,-1.2373040455 -0.898954009,-1.2373040455 0,-4.004 " sodipodi:arg1="-1.570796" sodipodi:arg2="-0.942477796" sodipodi:cx="0.000000" sodipodi:cy="0.000000" sodipodi:r1="4.004000" sodipodi:r2="1.529391909" sodipodi:sides="5" sodipodi:type="star" style="font-size:12;fill:#ffffff;fill-opacity:1;fill-rule:evenodd;stroke:none;stroke-width:0.125;stroke-dasharray:none;" transform="translate(8.2333333333,7)"/>
        <polygon id="polygon263" points="0,-4.004 0.898954009,-1.2373040455 3.808030291,-1.2373040455 1.454538141067,0.4726080910 2.35349215,3.2393040455 0,1.529391909 -2.35349215,3.2393040455 -1.454538141067,0.472608091 -3.808030291,-1.2373040455 -0.898954009,-1.2373040455 0,-4.004 " sodipodi:arg1="-1.570796" sodipodi:arg2="-0.942477796" sodipodi:cx="0.000000" sodipodi:cy="0.000000" sodipodi:r1="4.004000" sodipodi:r2="1.529391909" sodipodi:sides="5" sodipodi:type="star" style="font-size:12;fill:#ffffff;fill-opacity:1;fill-rule:evenodd;stroke:none;stroke-width:0.125;stroke-dasharray:none;" transform="translate(24.7,7)"/>
        <polygon id="polygon264" points="0,-4.004 0.898954009,-1.2373040455 3.808030291,-1.2373040455 1.454538141067,0.4726080910 2.35349215,3.2393040455 0,1.529391909 -2.35349215,3.2393040455 -1.454538141067,0.472608091 -3.808030291,-1.2373040455 -0.898954009,-1.2373040455 0,-4.004 " sodipodi:arg1="-1.570796" sodipodi:arg2="-0.942477796" sodipodi:cx="0.000000" sodipodi:cy="0.000000" sodipodi:r1="4.004000" sodipodi:r2="1.529391909" sodipodi:sides="5" sodipodi:type="star" style="font-size:12;fill:#ffffff;fill-opacity:1;fill-rule:evenodd;stroke:none;stroke-width:0.125;stroke-dasharray:none;" transform="translate(41.16666666667,7)"/>
        <polygon id="polygon265" points="0,-4.004 0.898954009,-1.2373040455 3.808030291,-1.2373040455 1.454538141067,0.4726080910 2.35349215,3.2393040455 0,1.529391909 -2.35349215,3.2393040455 -1.454538141067,0.472608091 -3.808030291,-1.2373040455 -0.898954009,-1.2373040455 0,-4.004 " sodipodi:arg1="-1.570796" sodipodi:arg2="-0.942477796" sodipodi:cx="0.000000" sodipodi:cy="0.000000" sodipodi:r1="4.004000" sodipodi:r2="1.529391909" sodipodi:sides="5" sodipodi:type="star" style="font-size:12;fill:#ffffff;fill-opacity:1;fill-rule:evenodd;stroke:none;stroke-width:0.125;stroke-dasharray:none;" transform="translate(57.63333333,7)"/>
        <polygon id="polygon266" points="0,-4.004 0.898954009,-1.2373040455 3.808030291,-1.2373040455 1.454538141067,0.4726080910 2.35349215,3.2393040455 0,1.529391909 -2.35349215,3.2393040455 -1.454538141067,0.472608091 -3.808030291,-1.2373040455 -0.898954009,-1.2373040455 0,-4.004 " sodipodi:arg1="-1.570796" sodipodi:arg2="-0.942477796" sodipodi:cx="0.000000" sodipodi:cy="0.000000" sodipodi:r1="4.004000" sodipodi:r2="1.529391909" sodipodi:sides="5" sodipodi:type="star" style="font-size:12;fill:#ffffff;fill-opacity:1;fill-rule:evenodd;stroke:none;stroke-width:0.125;stroke-dasharray:none;" transform="translate(74.1,7)"/>
        <polygon id="polygon267" points="0,-4.004 0.898954009,-1.2373040455 3.808030291,-1.2373040455 1.454538141067,0.4726080910 2.35349215,3.2393040455 0,1.529391909 -2.35349215,3.2393040455 -1.454538141067,0.472608091 -3.808030291,-1.2373040455 -0.898954009,-1.2373040455 0,-4.004 " sodipodi:arg1="-1.570796" sodipodi:arg2="-0.942477796" sodipodi:cx="0.000000" sodipodi:cy="0.000000" sodipodi:r1="4.004000" sodipodi:r2="1.529391909" sodipodi:sides="5" sodipodi:type="star" style="font-size:12;fill:#ffffff;fill-opacity:1;fill-rule:evenodd;stroke:none;stroke-width:0.125;stroke-dasharray:none;" transform="translate(90.5666666666667,7)"/>
      </g>
      <g id="g268">
        <polygon id="polygon269" points="0,-4.004 0.898954009,-1.2373040455 3.808030291,-1.2373040455 1.454538141067,0.4726080910 2.35349215,3.2393040455 0,1.529391909 -2.35349215,3.2393040455 -1.454538141067,0.472608091 -3.808030291,-1.2373040455 -0.898954009,-1.2373040455 0,-4.004 " sodipodi:arg1="-1.570796" sodipodi:arg2="-0.942477796" sodipodi:cx="0.000000" sodipodi:cy="0.000000" sodipodi:r1="4.004000" sodipodi:r2="1.529391909" sodipodi:sides="5" sodipodi:type="star" style="font-size:12;fill:#ffffff;fill-opacity:1;fill-rule:evenodd;stroke:none;stroke-width:0.125;stroke-dasharray:none;" transform="translate(16.46666666667,14)"/>
        <polygon id="polygon270" points="0,-4.004 0.898954009,-1.2373040455 3.808030291,-1.2373040455 1.454538141067,0.4726080910 2.35349215,3.2393040455 0,1.529391909 -2.35349215,3.2393040455 -1.454538141067,0.472608091 -3.808030291,-1.2373040455 -0.898954009,-1.2373040455 0,-4.004 " sodipodi:arg1="-1.570796" sodipodi:arg2="-0.942477796" sodipodi:cx="0.000000" sodipodi:cy="0.000000" sodipodi:r1="4.004000" sodipodi:r2="1.529391909" sodipodi:sides="5" sodipodi:type="star" style="font-size:12;fill:#ffffff;fill-opacity:1;fill-rule:evenodd;stroke:none;stroke-width:0.125;stroke-dasharray:none;" transform="translate(32.93333333333,14)"/>
        <polygon id="polygon271" points="0,-4.004 0.898954009,-1.2373040455 3.808030291,-1.2373040455 1.454538141067,0.4726080910 2.35349215,3.2393040455 0,1.529391909 -2.35349215,3.2393040455 -1.454538141067,0.472608091 -3.808030291,-1.2373040455 -0.898954009,-1.2373040455 0,-4.004 " sodipodi:arg1="-1.570796" sodipodi:arg2="-0.942477796" sodipodi:cx="0.000000" sodipodi:cy="0.000000" sodipodi:r1="4.004000" sodipodi:r2="1.529391909" sodipodi:sides="5" sodipodi:type="star" style="font-size:12;fill:#ffffff;fill-opacity:1;fill-rule:evenodd;stroke:none;stroke-width:0.125;stroke-dasharray:none;" transform="translate(49.4,14)"/>
        <polygon id="polygon272" points="0,-4.004 0.898954009,-1.2373040455 3.808030291,-1.2373040455 1.454538141067,0.4726080910 2.35349215,3.2393040455 0,1.529391909 -2.35349215,3.2393040455 -1.454538141067,0.472608091 -3.808030291,-1.2373040455 -0.898954009,-1.2373040455 0,-4.004 " sodipodi:arg1="-1.570796" sodipodi:arg2="-0.942477796" sodipodi:cx="0.000000" sodipodi:cy="0.000000" sodipodi:r1="4.004000" sodipodi:r2="1.529391909" sodipodi:sides="5" sodipodi:type="star" style="font-size:12;fill:#ffffff;fill-opacity:1;fill-rule:evenodd;stroke:none;stroke-width:0.125;stroke-dasharray:none;" transform="translate(65.86666666667,14)"/>
        <polygon id="polygon273" points="0,-4.004 0.898954009,-1.2373040455 3.808030291,-1.2373040455 1.454538141067,0.4726080910 2.35349215,3.2393040455 0,1.529391909 -2.35349215,3.2393040455 -1.454538141067,0.472608091 -3.808030291,-1.2373040455 -0.898954009,-1.2373040455 0,-4.004 " sodipodi:arg1="-1.570796" sodipodi:arg2="-0.942477796" sodipodi:cx="0.000000" sodipodi:cy="0.000000" sodipodi:r1="4.004000" sodipodi:r2="1.529391909" sodipodi:sides="5" sodipodi:type="star" style="font-size:12;fill:#ffffff;fill-opacity:1;fill-rule:evenodd;stroke:none;stroke-width:0.125;stroke-dasharray:none;" transform="translate(82.3333333333,14)"/>
      </g>
    </g>
    <g id="g211" transform="translate(0,56)">
      <polygon id="polygon212" points="0,-4.004 0.898954009,-1.2373040455 3.808030291,-1.2373040455 1.454538141067,0.4726080910 2.35349215,3.2393040455 0,1.529391909 -2.35349215,3.2393040455 -1.454538141067,0.472608091 -3.808030291,-1.2373040455 -0.898954009,-1.2373040455 0,-4.004 " sodipodi:arg1="-1.570796" sodipodi:arg2="-0.942477796" sodipodi:cx="0.000000" sodipodi:cy="0.000000" sodipodi:r1="4.004000" sodipodi:r2="1.529391909" sodipodi:sides="5" sodipodi:type="star" style="font-size:12;fill:#ffffff;fill-opacity:1;fill-rule:evenodd;stroke:none;stroke-width:0.125;stroke-dasharray:none;" transform="translate(8.2333333333,7)"/>
      <polygon id="polygon213" points="0,-4.004 0.898954009,-1.2373040455 3.808030291,-1.2373040455 1.454538141067,0.4726080910 2.35349215,3.2393040455 0,1.529391909 -2.35349215,3.2393040455 -1.454538141067,0.472608091 -3.808030291,-1.2373040455 -0.898954009,-1.2373040455 0,-4.004 " sodipodi:arg1="-1.570796" sodipodi:arg2="-0.942477796" sodipodi:cx="0.000000" sodipodi:cy="0.000000" sodipodi:r1="4.004000" sodipodi:r2="1.529391909" sodipodi:sides="5" sodipodi:type="star" style="font-size:12;fill:#ffffff;fill-opacity:1;fill-rule:evenodd;stroke:none;stroke-width:0.125;stroke-dasharray:none;" transform="translate(24.7,7)"/>
      <polygon id="polygon214" points="0,-4.004 0.898954009,-1.2373040455 3.808030291,-1.2373040455 1.454538141067,0.4726080910 2.35349215,3.2393040455 0,1.529391909 -2.35349215,3.2393040455 -1.454538141067,0.472608091 -3.808030291,-1.2373040455 -0.898954009,-1.2373040455 0,-4.004 " sodipodi:arg1="-1.570796" sodipodi:arg2="-0.942477796" sodipodi:cx="0.000000" sodipodi:cy="0.000000" sodipodi:r1="4.004000" sodipodi:r2="1.529391909" sodipodi:sides="5" sodipodi:type="star" style="font-size:12;fill:#ffffff;fill-opacity:1;fill-rule:evenodd;stroke:none;stroke-width:0.125;stroke-dasharray:none;" transform="translate(41.16666666667,7)"/>
      <polygon id="polygon215" points="0,-4.004 0.898954009,-1.2373040455 3.808030291,-1.2373040455 1.454538141067,0.4726080910 2.35349215,3.2393040455 0,1.529391909 -2.35349215,3.2393040455 -1.454538141067,0.472608091 -3.808030291,-1.2373040455 -0.898954009,-1.2373040455 0,-4.004 " sodipodi:arg1="-1.570796" sodipodi:arg2="-0.942477796" sodipodi:cx="0.000000" sodipodi:cy="0.000000" sodipodi:r1="4.004000" sodipodi:r2="1.529391909" sodipodi:sides="5" sodipodi:type="star" style="font-size:12;fill:#ffffff;fill-opacity:1;fill-rule:evenodd;stroke:none;stroke-width:0.125;stroke-dasharray:none;" transform="translate(57.63333333,7)"/>
      <polygon id="polygon216" points="0,-4.004 0.898954009,-1.2373040455 3.808030291,-1.2373040455 1.454538141067,0.4726080910 2.35349215,3.2393040455 0,1.529391909 -2.35349215,3.2393040455 -1.454538141067,0.472608091 -3.808030291,-1.2373040455 -0.898954009,-1.2373040455 0,-4.004 " sodipodi:arg1="-1.570796" sodipodi:arg2="-0.942477796" sodipodi:cx="0.000000" sodipodi:cy="0.000000" sodipodi:r1="4.004000" sodipodi:r2="1.529391909" sodipodi:sides="5" sodipodi:type="star" style="font-size:12;fill:#ffffff;fill-opacity:1;fill-rule:evenodd;stroke:none;stroke-width:0.125;stroke-dasharray:none;" transform="translate(74.1,7)"/>
      <polygon id="polygon217" points="0,-4.004 0.898954009,-1.2373040455 3.808030291,-1.2373040455 1.454538141067,0.4726080910 2.35349215,3.2393040455 0,1.529391909 -2.35349215,3.2393040455 -1.454538141067,0.472608091 -3.808030291,-1.2373040455 -0.898954009,-1.2373040455 0,-4.004 " sodipodi:arg1="-1.570796" sodipodi:arg2="-0.942477796" sodipodi:cx="0.000000" sodipodi:cy="0.000000" sodipodi:r1="4.004000" sodipodi:r2="1.529391909" sodipodi:sides="5" sodipodi:type="star" style="font-size:12;fill:#ffffff;fill-opacity:1;fill-rule:evenodd;stroke:none;stroke-width:0.125;stroke-dasharray:none;" transform="translate(90.5666666666667,7)"/>
    </g>
  </g>
</svg>
