<?xml version="1.0" encoding="UTF-8" standalone="no"?>
<!DOCTYPE svg PUBLIC "-//W3C//DTD SVG 20010904//EN"
"http://www.w3.org/TR/2001/REC-SVG-20010904/DTD/svg10.dtd">
<!-- Created with Sodipodi ("http://www.sodipodi.com/") --><svg height="140mm" id="svg548" sodipodi:docbase="/home/scarlet/sodipodi-flags/nations/" sodipodi:docname="/home/scarlet/sodipodi-flags/nations/uzbekistan.svg" sodipodi:version="0.32" width="280mm" xmlns="http://www.w3.org/2000/svg" xmlns:sodipodi="http://sodipodi.sourceforge.net/DTD/sodipodi-0.dtd" xmlns:xlink="http://www.w3.org/1999/xlink">
  <metadata>
    <rdf:RDF xmlns:cc="http://web.resource.org/cc/" xmlns:dc="http://purl.org/dc/elements/1.1/" xmlns:rdf="http://www.w3.org/1999/02/22-rdf-syntax-ns#">
      <cc:Work rdf:about="">
        <dc:title>Uzbekistan</dc:title>
        <dc:description></dc:description>
        <dc:subject>
          <rdf:Bag>
            <rdf:li></rdf:li>
            <rdf:li>asia</rdf:li>
            <rdf:li>united_nations_member</rdf:li>
            <rdf:li>uzbekistan</rdf:li>
            <rdf:li>flag</rdf:li>
            <rdf:li>sign</rdf:li>
          </rdf:Bag>
        </dc:subject>
        <dc:publisher>
          <cc:Agent rdf:about="http://www.openclipart.org">
            <dc:title>Cezary Biele</dc:title>
          </cc:Agent>
        </dc:publisher>
        <dc:creator>
          <cc:Agent>
            <dc:title>Cezary Biele</dc:title>
          </cc:Agent>
        </dc:creator>
        <dc:rights>
          <cc:Agent>
            <dc:title>Cezary Biele</dc:title>
          </cc:Agent>
        </dc:rights>
        <dc:date></dc:date>
        <dc:format>image/svg+xml</dc:format>
        <dc:type rdf:resource="http://purl.org/dc/dcmitype/StillImage"/>
        <cc:license rdf:resource="http://web.resource.org/cc/PublicDomain"/>
        <dc:language>en</dc:language>
      </cc:Work>
      <cc:License rdf:about="http://web.resource.org/cc/PublicDomain">
        <cc:permits rdf:resource="http://web.resource.org/cc/Reproduction"/>
        <cc:permits rdf:resource="http://web.resource.org/cc/Distribution"/>
        <cc:permits rdf:resource="http://web.resource.org/cc/DerivativeWorks"/>
      </cc:License>
    </rdf:RDF>
  </metadata>
  <defs id="defs550"/>
  <sodipodi:namedview id="base" showgrid="true" snaptogrid="false" snaptoguides="false"/>
  <rect height="496.062964" id="rect568" style="font-size:12;fill:#ffffff;fill-rule:evenodd;stroke-width:1pt;fill-opacity:1;" width="992.125916" x="0.000000" y="-0.000325"/>
  <rect height="171.702827" id="rect558" style="font-size:12;fill:#94acd4;fill-rule:evenodd;stroke-width:1pt;fill-opacity:1;" width="992.126038" x="0.000000" y="-0.000015"/>
  <rect height="11.373683" id="rect555" style="font-size:12;fill:#b73000;fill-rule:evenodd;stroke-width:1pt;fill-opacity:1;" width="992.126038" x="0.000000" y="160.329083"/>
  <rect height="160.329145" id="rect557" style="font-size:12;fill:#00a900;fill-rule:evenodd;stroke-width:1pt;fill-opacity:1;" width="992.126038" x="0.000000" y="335.733861"/>
  <rect height="11.373683" id="rect556" style="font-size:12;fill:#b73000;fill-rule:evenodd;stroke-width:1pt;fill-opacity:1;" width="992.126038" x="0.000000" y="335.733923"/>
  <polygon id="polygon561" points="205.584,128.736 195.568,121.887 185.665,128.899 189.084,117.257 179.355,110.006 191.484,109.659 195.374,98.1653 199.452,109.594 211.585,109.742 201.976,117.151 205.584,128.736 " sodipodi:arg1="0.93428808" sodipodi:arg2="1.56260657" sodipodi:cx="195.512634" sodipodi:cy="115.109581" sodipodi:r1="16.9448261" sodipodi:r2="6.77793074" sodipodi:sides="5" sodipodi:type="star" style="font-size:12;fill:#feffff;fill-rule:evenodd;stroke-width:1pt;fill-opacity:1;" transform="matrix(0.922891,0.000000,0.000000,0.927987,71.37953,-68.42821)"/>
  <polygon id="polygon562" points="205.584,128.736 195.568,121.887 185.665,128.899 189.084,117.257 179.355,110.006 191.484,109.659 195.374,98.1653 199.452,109.594 211.585,109.742 201.976,117.151 205.584,128.736 " sodipodi:arg1="0.93428808" sodipodi:arg2="1.56260657" sodipodi:cx="195.512634" sodipodi:cy="115.109581" sodipodi:r1="16.9448261" sodipodi:r2="6.77793074" sodipodi:sides="5" sodipodi:type="star" style="font-size:12;fill:#feffff;fill-rule:evenodd;stroke-width:1pt;fill-opacity:1;" transform="matrix(0.922891,0.000000,0.000000,0.927987,27.81035,17.29559)"/>
  <polygon id="polygon563" points="205.584,128.736 195.568,121.887 185.665,128.899 189.084,117.257 179.355,110.006 191.484,109.659 195.374,98.1653 199.452,109.594 211.585,109.742 201.976,117.151 205.584,128.736 " sodipodi:arg1="0.93428808" sodipodi:arg2="1.56260657" sodipodi:cx="195.512634" sodipodi:cy="115.109581" sodipodi:r1="16.9448261" sodipodi:r2="6.77793074" sodipodi:sides="5" sodipodi:type="star" style="font-size:12;fill:#feffff;fill-rule:evenodd;stroke-width:1pt;fill-opacity:1;" transform="matrix(0.922891,0.000000,0.000000,0.927987,71.79846,17.29559)"/>
  <polygon id="polygon564" points="205.584,128.736 195.568,121.887 185.665,128.899 189.084,117.257 179.355,110.006 191.484,109.659 195.374,98.1653 199.452,109.594 211.585,109.742 201.976,117.151 205.584,128.736 " sodipodi:arg1="0.93428808" sodipodi:arg2="1.56260657" sodipodi:cx="195.512634" sodipodi:cy="115.109581" sodipodi:r1="16.9448261" sodipodi:r2="6.77793074" sodipodi:sides="5" sodipodi:type="star" style="font-size:12;fill:#feffff;fill-rule:evenodd;stroke-width:1pt;fill-opacity:1;" transform="matrix(0.922891,0.000000,0.000000,0.927987,112.4351,17.29559)"/>
  <polygon id="polygon565" points="205.584,128.736 195.568,121.887 185.665,128.899 189.084,117.257 179.355,110.006 191.484,109.659 195.374,98.1653 199.452,109.594 211.585,109.742 201.976,117.151 205.584,128.736 " sodipodi:arg1="0.93428808" sodipodi:arg2="1.56260657" sodipodi:cx="195.512634" sodipodi:cy="115.109581" sodipodi:r1="16.9448261" sodipodi:r2="6.77793074" sodipodi:sides="5" sodipodi:type="star" style="font-size:12;fill:#feffff;fill-rule:evenodd;stroke-width:1pt;fill-opacity:1;" transform="matrix(0.922891,0.000000,0.000000,0.927987,150.1392,17.29559)"/>
  <polygon id="polygon566" points="205.584,128.736 195.568,121.887 185.665,128.899 189.084,117.257 179.355,110.006 191.484,109.659 195.374,98.1653 199.452,109.594 211.585,109.742 201.976,117.151 205.584,128.736 " sodipodi:arg1="0.93428808" sodipodi:arg2="1.56260657" sodipodi:cx="195.512634" sodipodi:cy="115.109581" sodipodi:r1="16.9448261" sodipodi:r2="6.77793074" sodipodi:sides="5" sodipodi:type="star" style="font-size:12;fill:#feffff;fill-rule:evenodd;stroke-width:1pt;fill-opacity:1;" transform="matrix(0.922891,0.000000,0.000000,0.927987,-18.27242,17.29559)"/>
  <polygon id="polygon567" points="205.584,128.736 195.568,121.887 185.665,128.899 189.084,117.257 179.355,110.006 191.484,109.659 195.374,98.1653 199.452,109.594 211.585,109.742 201.976,117.151 205.584,128.736 " sodipodi:arg1="0.93428808" sodipodi:arg2="1.56260657" sodipodi:cx="195.512634" sodipodi:cy="115.109581" sodipodi:r1="16.9448261" sodipodi:r2="6.77793074" sodipodi:sides="5" sodipodi:type="star" style="font-size:12;fill:#feffff;fill-rule:evenodd;stroke-width:1pt;fill-opacity:1;" transform="matrix(0.922891,0.000000,0.000000,0.927987,26.97249,-25.25041)"/>
  <polygon id="polygon568" points="205.584,128.736 195.568,121.887 185.665,128.899 189.084,117.257 179.355,110.006 191.484,109.659 195.374,98.1653 199.452,109.594 211.585,109.742 201.976,117.151 205.584,128.736 " sodipodi:arg1="0.93428808" sodipodi:arg2="1.56260657" sodipodi:cx="195.512634" sodipodi:cy="115.109581" sodipodi:r1="16.9448261" sodipodi:r2="6.77793074" sodipodi:sides="5" sodipodi:type="star" style="font-size:12;fill:#feffff;fill-rule:evenodd;stroke-width:1pt;fill-opacity:1;" transform="matrix(0.922891,0.000000,0.000000,0.927987,71.37953,-25.25041)"/>
  <polygon id="polygon569" points="205.584,128.736 195.568,121.887 185.665,128.899 189.084,117.257 179.355,110.006 191.484,109.659 195.374,98.1653 199.452,109.594 211.585,109.742 201.976,117.151 205.584,128.736 " sodipodi:arg1="0.93428808" sodipodi:arg2="1.56260657" sodipodi:cx="195.512634" sodipodi:cy="115.109581" sodipodi:r1="16.9448261" sodipodi:r2="6.77793074" sodipodi:sides="5" sodipodi:type="star" style="font-size:12;fill:#feffff;fill-rule:evenodd;stroke-width:1pt;fill-opacity:1;" transform="matrix(0.922891,0.000000,0.000000,0.927987,113.2729,-25.25041)"/>
  <polygon id="polygon570" points="205.584,128.736 195.568,121.887 185.665,128.899 189.084,117.257 179.355,110.006 191.484,109.659 195.374,98.1653 199.452,109.594 211.585,109.742 201.976,117.151 205.584,128.736 " sodipodi:arg1="0.93428808" sodipodi:arg2="1.56260657" sodipodi:cx="195.512634" sodipodi:cy="115.109581" sodipodi:r1="16.9448261" sodipodi:r2="6.77793074" sodipodi:sides="5" sodipodi:type="star" style="font-size:12;fill:#feffff;fill-rule:evenodd;stroke-width:1pt;fill-opacity:1;" transform="matrix(0.922891,0.000000,0.000000,0.927987,149.7202,-25.25041)"/>
  <polygon id="polygon571" points="205.584,128.736 195.568,121.887 185.665,128.899 189.084,117.257 179.355,110.006 191.484,109.659 195.374,98.1653 199.452,109.594 211.585,109.742 201.976,117.151 205.584,128.736 " sodipodi:arg1="0.93428808" sodipodi:arg2="1.56260657" sodipodi:cx="195.512634" sodipodi:cy="115.109581" sodipodi:r1="16.9448261" sodipodi:r2="6.77793074" sodipodi:sides="5" sodipodi:type="star" style="font-size:12;fill:#feffff;fill-rule:evenodd;stroke-width:1pt;fill-opacity:1;" transform="matrix(0.922891,0.000000,0.000000,0.927987,149.3013,-68.42821)"/>
  <polygon id="polygon572" points="205.584,128.736 195.568,121.887 185.665,128.899 189.084,117.257 179.355,110.006 191.484,109.659 195.374,98.1653 199.452,109.594 211.585,109.742 201.976,117.151 205.584,128.736 " sodipodi:arg1="0.93428808" sodipodi:arg2="1.56260657" sodipodi:cx="195.512634" sodipodi:cy="115.109581" sodipodi:r1="16.9448261" sodipodi:r2="6.77793074" sodipodi:sides="5" sodipodi:type="star" style="font-size:12;fill:#feffff;fill-rule:evenodd;stroke-width:1pt;fill-opacity:1;" transform="matrix(0.922891,0.000000,0.000000,0.927987,112.8540,-68.42821)"/>
  <path d="M 142.438 28.5322 C 93.0037 15.0564 61.6884 49.8629 62.1597 81.0559 C 62.6309 112.249 91.5373 145.275 136.154 137.036 C 66.0521 169.713 30.2003 118.252 31.6297 77.3903 C 34.0916 29.0962 88.6747 -10.289 142.438 28.5322 z " id="path575" sodipodi:nodetypes="csccc" style="fill:#ffffff;fill-rule:evenodd;stroke:none;stroke-opacity:1;stroke-width:1pt;stroke-linejoin:miter;stroke-linecap:butt;fill-opacity:1;" transform="matrix(1.000000,0.000000,0.000000,1.005521,0.000000,-2.738701)"/>
</svg>
