<?xml version="1.0" encoding="UTF-8" standalone="no"?>
<!DOCTYPE svg PUBLIC "-//W3C//DTD SVG 20010904//EN"
"http://www.w3.org/TR/2001/REC-SVG-20010904/DTD/svg10.dtd">
<!-- Created with Sodipodi ("http://www.sodipodi.com/") --><svg height="140" id="svg378" sodipodi:docbase="/home/sigge/" sodipodi:docname="/home/sigge/venezuela.svg" sodipodi:version="0.32" version="1.0" width="210" x="0" xmlns="http://www.w3.org/2000/svg" xmlns:sodipodi="http://sodipodi.sourceforge.net/DTD/sodipodi-0.dtd" xmlns:xlink="http://www.w3.org/1999/xlink" y="0">
  <metadata>
    <rdf:RDF xmlns:cc="http://web.resource.org/cc/" xmlns:dc="http://purl.org/dc/elements/1.1/" xmlns:rdf="http://www.w3.org/1999/02/22-rdf-syntax-ns#">
      <cc:Work rdf:about="">
        <dc:title>Venezuela</dc:title>
        <dc:description></dc:description>
        <dc:subject>
          <rdf:Bag>
            <rdf:li></rdf:li>
            <rdf:li>united_nations_member</rdf:li>
            <rdf:li>latin_america</rdf:li>
            <rdf:li>america</rdf:li>
            <rdf:li>south_america</rdf:li>
            <rdf:li>flag</rdf:li>
            <rdf:li>sign</rdf:li>
          </rdf:Bag>
        </dc:subject>
        <dc:publisher>
          <cc:Agent rdf:about="http://www.openclipart.org">
            <dc:title>Sigge Kotliar</dc:title>
          </cc:Agent>
        </dc:publisher>
        <dc:creator>
          <cc:Agent>
            <dc:title>Sigge Kotliar</dc:title>
          </cc:Agent>
        </dc:creator>
        <dc:rights>
          <cc:Agent>
            <dc:title>Sigge Kotliar</dc:title>
          </cc:Agent>
        </dc:rights>
        <dc:date></dc:date>
        <dc:format>image/svg+xml</dc:format>
        <dc:type rdf:resource="http://purl.org/dc/dcmitype/StillImage"/>
        <cc:license rdf:resource="http://web.resource.org/cc/PublicDomain"/>
        <dc:language>en</dc:language>
      </cc:Work>
      <cc:License rdf:about="http://web.resource.org/cc/PublicDomain">
        <cc:permits rdf:resource="http://web.resource.org/cc/Reproduction"/>
        <cc:permits rdf:resource="http://web.resource.org/cc/Distribution"/>
        <cc:permits rdf:resource="http://web.resource.org/cc/DerivativeWorks"/>
      </cc:License>
    </rdf:RDF>
  </metadata>
  <sodipodi:namedview id="base"/>
  <defs id="defs380"/>
  <rect height="46.539520" id="rect171" style="font-size:12;fill:#dc0000;fill-rule:evenodd;stroke-width:1pt;fill-opacity:1;" width="209.824849" x="0.198321" y="93.475708"/>
  <rect height="46.539516" id="rect256" style="font-size:12;fill-rule:evenodd;stroke-width:1pt;fill:#ffcb00;fill-opacity:1;" width="209.824849" x="0.198321" y="0.396680"/>
  <rect height="46.539516" id="rect255" style="font-size:12;fill:#0000ba;fill-rule:evenodd;stroke-width:1pt;fill-opacity:1;" width="209.824849" x="0.198321" y="46.936192"/>
  <g id="g595" transform="translate(0.221634,0.731773)">
    <path d="M 266.186 534.45 L 255.778 527.018 L 245.421 534.523 L 249.273 522.327 L 238.935 514.796 L 251.725 514.691 L 255.692 502.532 L 259.744 514.663 L 272.534 514.679 L 262.249 522.281 L 266.186 534.45 z " id="path575" style="font-size:12;fill:#ffffff;fill-rule:evenodd;stroke-width:0.112872;fill-opacity:1;" transform="matrix(0.359332,0.000000,0.000000,0.324940,13.10641,-111.6294)"/>
    <path d="M 266.186 534.45 L 255.778 527.018 L 245.421 534.523 L 249.273 522.327 L 238.935 514.796 L 251.725 514.691 L 255.692 502.532 L 259.744 514.663 L 272.534 514.679 L 262.249 522.281 L 266.186 534.45 z " id="path576" style="font-size:12;fill:#ffffff;fill-rule:evenodd;stroke-width:0.112872;" transform="matrix(0.359332,0.000000,0.000000,0.324940,31.71735,-109.5615)"/>
    <path d="M 266.186 534.45 L 255.778 527.018 L 245.421 534.523 L 249.273 522.327 L 238.935 514.796 L 251.725 514.691 L 255.692 502.532 L 259.744 514.663 L 272.534 514.679 L 262.249 522.281 L 266.186 534.45 z " id="path577" style="font-size:12;fill:#ffffff;fill-rule:evenodd;stroke-width:0.112872;" transform="matrix(0.359332,0.000000,0.000000,0.324940,47.84687,-100.4628)"/>
    <path d="M 266.186 534.45 L 255.778 527.018 L 245.421 534.523 L 249.273 522.327 L 238.935 514.796 L 251.725 514.691 L 255.692 502.532 L 259.744 514.663 L 272.534 514.679 L 262.249 522.281 L 266.186 534.45 z " id="path578" style="font-size:12;fill:#ffffff;fill-rule:evenodd;stroke-width:0.112872;" transform="matrix(0.359332,0.000000,0.000000,0.324940,56.94556,-86.81480)"/>
    <path d="M 266.186 534.45 L 255.778 527.018 L 245.421 534.523 L 249.273 522.327 L 238.935 514.796 L 251.725 514.691 L 255.692 502.532 L 259.744 514.663 L 272.534 514.679 L 262.249 522.281 L 266.186 534.45 z " id="path579" style="font-size:12;fill:#ffffff;fill-rule:evenodd;stroke-width:0.112872;" transform="matrix(-0.359332,0.000000,0.000000,0.324940,178.2826,-109.5616)"/>
    <path d="M 266.186 534.45 L 255.778 527.018 L 245.421 534.523 L 249.273 522.327 L 238.935 514.796 L 251.725 514.691 L 255.692 502.532 L 259.744 514.663 L 272.534 514.679 L 262.249 522.281 L 266.186 534.45 z " id="path580" style="font-size:12;fill:#ffffff;fill-rule:evenodd;stroke-width:0.112872;" transform="matrix(-0.359332,0.000000,0.000000,0.324940,162.1530,-100.4628)"/>
    <path d="M 266.186 534.45 L 255.778 527.018 L 245.421 534.523 L 249.273 522.327 L 238.935 514.796 L 251.725 514.691 L 255.692 502.532 L 259.744 514.663 L 272.534 514.679 L 262.249 522.281 L 266.186 534.45 z " id="path581" style="font-size:12;fill:#ffffff;fill-rule:evenodd;stroke-width:0.112872;" transform="matrix(-0.359332,0.000000,0.000000,0.324940,153.0544,-86.81480)"/>
  </g>
</svg>
