<?xml version="1.0" encoding="UTF-8" standalone="no"?>
<!-- Created with Inkscape (http://www.inkscape.org/) --><svg height="496.06299" id="svg559" version="1.0" width="992.12598" x="0.00000000" xmlns="http://www.w3.org/2000/svg" xmlns:svg="http://www.w3.org/2000/svg" xmlns:xlink="http://www.w3.org/1999/xlink" y="0.00000000">
  <metadata>
    <rdf:RDF xmlns:cc="http://web.resource.org/cc/" xmlns:dc="http://purl.org/dc/elements/1.1/" xmlns:rdf="http://www.w3.org/1999/02/22-rdf-syntax-ns#">
      <cc:Work rdf:about="">
        <dc:title>British Virgin Islands</dc:title>
        <dc:description></dc:description>
        <dc:subject>
          <rdf:Bag>
            <rdf:li></rdf:li>
            <rdf:li>united_kingdom</rdf:li>
            <rdf:li>flags</rdf:li>
            <rdf:li>america</rdf:li>
            <rdf:li>caribbean</rdf:li>
            <rdf:li>signs_and_symbols</rdf:li>
            <rdf:li>sign</rdf:li>
          </rdf:Bag>
        </dc:subject>
        <dc:publisher>
          <cc:Agent rdf:about="http://www.openclipart.org">
            <dc:title>Tobias Jakobs</dc:title>
          </cc:Agent>
        </dc:publisher>
        <dc:creator>
          <cc:Agent>
            <dc:title>Tobias Jakobs</dc:title>
          </cc:Agent>
        </dc:creator>
        <dc:rights>
          <cc:Agent>
            <dc:title>Tobias Jakobs</dc:title>
          </cc:Agent>
        </dc:rights>
        <dc:date></dc:date>
        <dc:format>image/svg+xml</dc:format>
        <dc:type rdf:resource="http://purl.org/dc/dcmitype/StillImage"/>
        <cc:license rdf:resource="http://web.resource.org/cc/PublicDomain"/>
        <dc:language>en</dc:language>
      </cc:Work>
      <cc:License rdf:about="http://web.resource.org/cc/PublicDomain">
        <cc:permits rdf:resource="http://web.resource.org/cc/Reproduction"/>
        <cc:permits rdf:resource="http://web.resource.org/cc/Distribution"/>
        <cc:permits rdf:resource="http://web.resource.org/cc/DerivativeWorks"/>
      </cc:License>
    </rdf:RDF>
  </metadata>
  <defs>
    <linearGradient id="linearGradient570">
      <stop id="stop571" offset="0.00000000" style="stop-color:#ff0000;stop-opacity:1.0000000"/>
      <stop id="stop572" offset="1.0000000" style="stop-color:#ffff00;stop-opacity:1.0000000"/>
    </linearGradient>
    <linearGradient id="linearGradient573" x1="0.96899199" x2="0.023255819" xlink:href="#linearGradient570" y1="0.64062500" y2="0.63281202"/>
    <linearGradient id="linearGradient574" x1="0.96370798" x2="-0.090907082" xlink:href="#linearGradient570" y1="0.76573402" y2="0.41406500"/>
  </defs>
  <rect height="496.06296" id="rect877" style="font-size:12.000000px;fill:#000066;stroke-width:1.0000000pt" width="992.12598" x="0.00000000" y="3.8999999e-005"/>
  <g id="g826" transform="matrix(1.248293,0.000000,0.000000,1.248293,583.4077,106.3681)">
    <path d="M 46.769230,10.208440 L 212.61540,9.5930480 L 212.30770,157.28530 C 212.30770,157.28530 218.15380,179.74690 142.76920,213.90070 C 169.84610,211.13150 199.38460,182.20840 199.38460,182.20840 C 199.38460,182.20840 211.38460,166.82390 217.23080,175.43920 C 223.07690,184.05450 228.61540,188.36220 232.92310,191.74690 C 237.23080,195.13150 240.61530,204.36230 234.15380,211.13150 C 227.69230,217.90070 217.53840,218.82380 214.76920,210.51610 C 210.46150,212.67000 183.99990,244.67000 129.84610,246.20840 C 74.769230,245.28530 44.615380,210.20840 44.615380,210.20840 C 44.615380,210.20840 37.230760,221.90080 26.769230,212.67000 C 16.615380,200.66990 24.307690,192.97760 24.307690,192.97760 C 24.307690,192.97760 32.923070,188.05460 35.384610,184.66990 C 39.384620,180.05450 40.615390,173.90070 47.384610,173.90070 C 55.384610,174.51610 58.461530,180.97760 58.461530,180.97760 C 58.461530,180.97760 86.153840,210.20850 116.00000,213.90070 C 48.615330,181.59300 46.153840,161.59300 46.461530,156.66990 L 46.769230,10.208440 z " id="path824" style="fill:#ffffff;fill-opacity:1.0000000;fill-rule:evenodd;stroke:none;stroke-width:1.0000000pt;stroke-linecap:butt;stroke-linejoin:miter;stroke-opacity:1.0000000"/>
    <path d="M 50.769230,14.208450 L 208.92310,13.285370 L 208.92310,155.43920 C 209.23080,173.90080 178.15390,192.67000 129.53850,216.66990 C 79.384610,190.82370 50.461530,175.13150 50.153840,155.13150 L 50.769230,14.208450 z " id="path779" style="fill:#006129;fill-opacity:1.0000000;fill-rule:evenodd;stroke:#000000;stroke-width:1.0000000pt;stroke-linecap:butt;stroke-linejoin:miter;stroke-opacity:1.0000000"/>
    <g id="g584" transform="translate(0.000000,0.314758)">
      <path d="M 69.786280,170.52960 L 79.121670,156.81870 L 88.502560,170.55830" id="path585" style="fill:none;fill-opacity:1.0000000;fill-rule:evenodd;stroke:#f7c600;stroke-width:1.0000000pt;stroke-linecap:butt;stroke-linejoin:miter;stroke-opacity:1.0000000"/>
      <path d="M 80.922043 156.72391 A 1.7056201 1.7055510 0 1 1  77.510803,156.72391 A 1.7056201 1.7055510 0 1 1  80.922043 156.72391 z" id="path586" style="fill:#f7c600;fill-opacity:1.0000000;fill-rule:evenodd;stroke:#000000;stroke-width:0.57499999;stroke-linecap:butt;stroke-linejoin:miter;stroke-dasharray:none;stroke-opacity:1.0000000" transform="matrix(1.086991,0.000000,0.000000,1.087005,-6.965268,-4.956314)"/>
      <path d="M 71.541150,180.65620 L 86.013950,180.69740 C 86.013950,180.69740 86.240880,178.81910 84.502220,177.67750 C 92.082760,176.63510 90.113430,169.94860 96.462100,169.56960 C 97.693940,169.75910 93.145630,172.41230 93.145630,172.41230 C 93.145630,172.41230 89.317890,175.11350 91.060980,176.48680 C 92.444850,177.57710 93.050870,175.82360 93.240390,174.49700 C 93.429900,173.17040 99.399540,172.31760 98.546750,168.52740 C 97.125400,165.40040 88.786830,170.61190 88.786830,170.61190 L 82.837750,170.57890 C 82.466820,169.91120 80.827290,167.23370 79.134120,167.22130 C 77.125370,167.29460 75.710430,170.61190 75.710430,170.61190 L 67.087590,170.61190 L 62.255010,170.61190 C 62.255010,170.61190 61.793690,174.06430 68.616170,174.72760 C 70.152210,176.73370 71.342920,177.29420 72.678230,177.81350 C 71.788020,178.55540 71.537410,179.45290 71.541150,180.65620 z " id="path587" style="fill:#f7c600;fill-opacity:1.0000000;fill-rule:evenodd;stroke:#000000;stroke-width:0.62500000;stroke-linecap:butt;stroke-linejoin:miter;stroke-dasharray:none;stroke-opacity:1.0000000"/>
      <path d="M 72.583470,177.71870 L 84.638110,177.67760" id="path588" style="fill:none;fill-opacity:1.0000000;fill-rule:evenodd;stroke:#000000;stroke-width:0.62500000;stroke-linecap:butt;stroke-linejoin:miter;stroke-dasharray:none;stroke-opacity:1.0000000"/>
      <path d="M 67.062320,170.61130 C 67.062320,170.61130 68.026710,176.24940 72.477750,177.58470" id="path589" style="fill:none;fill-opacity:1.0000000;fill-rule:evenodd;stroke:#000000;stroke-width:0.62500000;stroke-linecap:butt;stroke-linejoin:miter;stroke-dasharray:none;stroke-opacity:1.0000000"/>
      <path d="M 66.320470,170.53730 C 66.765570,168.38600 67.581600,168.01500 68.471810,165.27020 C 68.620180,162.59960 66.320470,162.89630 66.988130,161.19010 C 68.175070,159.33550 67.581600,157.55510 65.356080,156.14560 C 65.801190,158.59370 62.462910,160.89340 62.462910,162.89630 C 62.462910,164.89930 64.169140,164.45420 63.946590,167.49580 C 64.094960,169.27610 63.501490,168.83110 63.353120,170.53730 L 66.320470,170.53730 z " id="path590" style="fill:url(#linearGradient574);fill-opacity:1.0000000;fill-rule:evenodd;stroke:#000000;stroke-width:0.62500000;stroke-linecap:butt;stroke-linejoin:miter;stroke-dasharray:none;stroke-opacity:1.0000000"/>
      <path d="M 80.922043 156.72391 A 1.7056201 1.7055510 0 1 1  77.510803,156.72391 A 1.7056201 1.7055510 0 1 1  80.922043 156.72391 z" id="path591" style="fill:#f7c600;fill-opacity:1.0000000;fill-rule:evenodd;stroke:#000000;stroke-width:0.62500000;stroke-linecap:butt;stroke-linejoin:miter;stroke-dasharray:none;stroke-opacity:1.0000000" transform="translate(-7.418633e-2,0.445068)"/>
    </g>
    <g id="g592" transform="translate(-0.524559,-27.90660)">
      <path d="M 69.786280,170.52960 L 79.121670,156.81870 L 88.502560,170.55830" id="path593" style="fill:none;fill-opacity:1.0000000;fill-rule:evenodd;stroke:#f7c600;stroke-width:1.0000000pt;stroke-linecap:butt;stroke-linejoin:miter;stroke-opacity:1.0000000"/>
      <path d="M 80.922043 156.72391 A 1.7056201 1.7055510 0 1 1  77.510803,156.72391 A 1.7056201 1.7055510 0 1 1  80.922043 156.72391 z" id="path594" style="fill:#f7c600;fill-opacity:1.0000000;fill-rule:evenodd;stroke:#000000;stroke-width:0.57499999;stroke-linecap:butt;stroke-linejoin:miter;stroke-dasharray:none;stroke-opacity:1.0000000" transform="matrix(1.086991,0.000000,0.000000,1.087005,-6.965268,-4.956314)"/>
      <path d="M 71.541150,180.65620 L 86.013950,180.69740 C 86.013950,180.69740 86.240880,178.81910 84.502220,177.67750 C 92.082760,176.63510 90.113430,169.94860 96.462100,169.56960 C 97.693940,169.75910 93.145630,172.41230 93.145630,172.41230 C 93.145630,172.41230 89.317890,175.11350 91.060980,176.48680 C 92.444850,177.57710 93.050870,175.82360 93.240390,174.49700 C 93.429900,173.17040 99.399540,172.31760 98.546750,168.52740 C 97.125400,165.40040 88.786830,170.61190 88.786830,170.61190 L 82.837750,170.57890 C 82.466820,169.91120 80.827290,167.23370 79.134120,167.22130 C 77.125370,167.29460 75.710430,170.61190 75.710430,170.61190 L 67.087590,170.61190 L 62.255010,170.61190 C 62.255010,170.61190 61.793690,174.06430 68.616170,174.72760 C 70.152210,176.73370 71.342920,177.29420 72.678230,177.81350 C 71.788020,178.55540 71.537410,179.45290 71.541150,180.65620 z " id="path595" style="fill:#f7c600;fill-opacity:1.0000000;fill-rule:evenodd;stroke:#000000;stroke-width:0.62500000;stroke-linecap:butt;stroke-linejoin:miter;stroke-dasharray:none;stroke-opacity:1.0000000"/>
      <path d="M 72.583470,177.71870 L 84.638110,177.67760" id="path596" style="fill:none;fill-opacity:1.0000000;fill-rule:evenodd;stroke:#000000;stroke-width:0.62500000;stroke-linecap:butt;stroke-linejoin:miter;stroke-dasharray:none;stroke-opacity:1.0000000"/>
      <path d="M 67.062320,170.61130 C 67.062320,170.61130 68.026710,176.24940 72.477750,177.58470" id="path597" style="fill:none;fill-opacity:1.0000000;fill-rule:evenodd;stroke:#000000;stroke-width:0.62500000;stroke-linecap:butt;stroke-linejoin:miter;stroke-dasharray:none;stroke-opacity:1.0000000"/>
      <path d="M 66.320470,170.53730 C 66.765570,168.38600 67.581600,168.01500 68.471810,165.27020 C 68.620180,162.59960 66.320470,162.89630 66.988130,161.19010 C 68.175070,159.33550 67.581600,157.55510 65.356080,156.14560 C 65.801190,158.59370 62.462910,160.89340 62.462910,162.89630 C 62.462910,164.89930 64.169140,164.45420 63.946590,167.49580 C 64.094960,169.27610 63.501490,168.83110 63.353120,170.53730 L 66.320470,170.53730 z " id="path598" style="fill:url(#linearGradient574);fill-opacity:1.0000000;fill-rule:evenodd;stroke:#000000;stroke-width:0.62500000;stroke-linecap:butt;stroke-linejoin:miter;stroke-dasharray:none;stroke-opacity:1.0000000"/>
      <path d="M 80.922043 156.72391 A 1.7056201 1.7055510 0 1 1  77.510803,156.72391 A 1.7056201 1.7055510 0 1 1  80.922043 156.72391 z" id="path599" style="fill:#f7c600;fill-opacity:1.0000000;fill-rule:evenodd;stroke:#000000;stroke-width:0.62500000;stroke-linecap:butt;stroke-linejoin:miter;stroke-dasharray:none;stroke-opacity:1.0000000" transform="translate(-7.418633e-2,0.445068)"/>
    </g>
    <g id="g600" transform="translate(98.64761,-53.56006)">
      <path d="M 69.786280,170.52960 L 79.121670,156.81870 L 88.502560,170.55830" id="path601" style="fill:none;fill-opacity:1.0000000;fill-rule:evenodd;stroke:#f7c600;stroke-width:1.0000000pt;stroke-linecap:butt;stroke-linejoin:miter;stroke-opacity:1.0000000"/>
      <path d="M 80.922043 156.72391 A 1.7056201 1.7055510 0 1 1  77.510803,156.72391 A 1.7056201 1.7055510 0 1 1  80.922043 156.72391 z" id="path602" style="fill:#f7c600;fill-opacity:1.0000000;fill-rule:evenodd;stroke:#000000;stroke-width:0.57499999;stroke-linecap:butt;stroke-linejoin:miter;stroke-dasharray:none;stroke-opacity:1.0000000" transform="matrix(1.086991,0.000000,0.000000,1.087005,-6.965268,-4.956314)"/>
      <path d="M 71.541150,180.65620 L 86.013950,180.69740 C 86.013950,180.69740 86.240880,178.81910 84.502220,177.67750 C 92.082760,176.63510 90.113430,169.94860 96.462100,169.56960 C 97.693940,169.75910 93.145630,172.41230 93.145630,172.41230 C 93.145630,172.41230 89.317890,175.11350 91.060980,176.48680 C 92.444850,177.57710 93.050870,175.82360 93.240390,174.49700 C 93.429900,173.17040 99.399540,172.31760 98.546750,168.52740 C 97.125400,165.40040 88.786830,170.61190 88.786830,170.61190 L 82.837750,170.57890 C 82.466820,169.91120 80.827290,167.23370 79.134120,167.22130 C 77.125370,167.29460 75.710430,170.61190 75.710430,170.61190 L 67.087590,170.61190 L 62.255010,170.61190 C 62.255010,170.61190 61.793690,174.06430 68.616170,174.72760 C 70.152210,176.73370 71.342920,177.29420 72.678230,177.81350 C 71.788020,178.55540 71.537410,179.45290 71.541150,180.65620 z " id="path603" style="fill:#f7c600;fill-opacity:1.0000000;fill-rule:evenodd;stroke:#000000;stroke-width:0.62500000;stroke-linecap:butt;stroke-linejoin:miter;stroke-dasharray:none;stroke-opacity:1.0000000"/>
      <path d="M 72.583470,177.71870 L 84.638110,177.67760" id="path604" style="fill:none;fill-opacity:1.0000000;fill-rule:evenodd;stroke:#000000;stroke-width:0.62500000;stroke-linecap:butt;stroke-linejoin:miter;stroke-dasharray:none;stroke-opacity:1.0000000"/>
      <path d="M 67.062320,170.61130 C 67.062320,170.61130 68.026710,176.24940 72.477750,177.58470" id="path605" style="fill:none;fill-opacity:1.0000000;fill-rule:evenodd;stroke:#000000;stroke-width:0.62500000;stroke-linecap:butt;stroke-linejoin:miter;stroke-dasharray:none;stroke-opacity:1.0000000"/>
      <path d="M 66.320470,170.53730 C 66.765570,168.38600 67.581600,168.01500 68.471810,165.27020 C 68.620180,162.59960 66.320470,162.89630 66.988130,161.19010 C 68.175070,159.33550 67.581600,157.55510 65.356080,156.14560 C 65.801190,158.59370 62.462910,160.89340 62.462910,162.89630 C 62.462910,164.89930 64.169140,164.45420 63.946590,167.49580 C 64.094960,169.27610 63.501490,168.83110 63.353120,170.53730 L 66.320470,170.53730 z " id="path606" style="fill:url(#linearGradient574);fill-opacity:1.0000000;fill-rule:evenodd;stroke:#000000;stroke-width:0.62500000;stroke-linecap:butt;stroke-linejoin:miter;stroke-dasharray:none;stroke-opacity:1.0000000"/>
      <path d="M 80.922043 156.72391 A 1.7056201 1.7055510 0 1 1  77.510803,156.72391 A 1.7056201 1.7055510 0 1 1  80.922043 156.72391 z" id="path607" style="fill:#f7c600;fill-opacity:1.0000000;fill-rule:evenodd;stroke:#000000;stroke-width:0.62500000;stroke-linecap:butt;stroke-linejoin:miter;stroke-dasharray:none;stroke-opacity:1.0000000" transform="translate(-7.418633e-2,0.445068)"/>
    </g>
    <g id="g608" transform="translate(1.783512,-80.99216)">
      <path d="M 69.786280,170.52960 L 79.121670,156.81870 L 88.502560,170.55830" id="path609" style="fill:none;fill-opacity:1.0000000;fill-rule:evenodd;stroke:#f7c600;stroke-width:1.0000000pt;stroke-linecap:butt;stroke-linejoin:miter;stroke-opacity:1.0000000"/>
      <path d="M 80.922043 156.72391 A 1.7056201 1.7055510 0 1 1  77.510803,156.72391 A 1.7056201 1.7055510 0 1 1  80.922043 156.72391 z" id="path610" style="fill:#f7c600;fill-opacity:1.0000000;fill-rule:evenodd;stroke:#000000;stroke-width:0.57499999;stroke-linecap:butt;stroke-linejoin:miter;stroke-dasharray:none;stroke-opacity:1.0000000" transform="matrix(1.086991,0.000000,0.000000,1.087005,-6.965268,-4.956314)"/>
      <path d="M 71.541150,180.65620 L 86.013950,180.69740 C 86.013950,180.69740 86.240880,178.81910 84.502220,177.67750 C 92.082760,176.63510 90.113430,169.94860 96.462100,169.56960 C 97.693940,169.75910 93.145630,172.41230 93.145630,172.41230 C 93.145630,172.41230 89.317890,175.11350 91.060980,176.48680 C 92.444850,177.57710 93.050870,175.82360 93.240390,174.49700 C 93.429900,173.17040 99.399540,172.31760 98.546750,168.52740 C 97.125400,165.40040 88.786830,170.61190 88.786830,170.61190 L 82.837750,170.57890 C 82.466820,169.91120 80.827290,167.23370 79.134120,167.22130 C 77.125370,167.29460 75.710430,170.61190 75.710430,170.61190 L 67.087590,170.61190 L 62.255010,170.61190 C 62.255010,170.61190 61.793690,174.06430 68.616170,174.72760 C 70.152210,176.73370 71.342920,177.29420 72.678230,177.81350 C 71.788020,178.55540 71.537410,179.45290 71.541150,180.65620 z " id="path611" style="fill:#f7c600;fill-opacity:1.0000000;fill-rule:evenodd;stroke:#000000;stroke-width:0.62500000;stroke-linecap:butt;stroke-linejoin:miter;stroke-dasharray:none;stroke-opacity:1.0000000"/>
      <path d="M 72.583470,177.71870 L 84.638110,177.67760" id="path612" style="fill:none;fill-opacity:1.0000000;fill-rule:evenodd;stroke:#000000;stroke-width:0.62500000;stroke-linecap:butt;stroke-linejoin:miter;stroke-dasharray:none;stroke-opacity:1.0000000"/>
      <path d="M 67.062320,170.61130 C 67.062320,170.61130 68.026710,176.24940 72.477750,177.58470" id="path613" style="fill:none;fill-opacity:1.0000000;fill-rule:evenodd;stroke:#000000;stroke-width:0.62500000;stroke-linecap:butt;stroke-linejoin:miter;stroke-dasharray:none;stroke-opacity:1.0000000"/>
      <path d="M 66.320470,170.53730 C 66.765570,168.38600 67.581600,168.01500 68.471810,165.27020 C 68.620180,162.59960 66.320470,162.89630 66.988130,161.19010 C 68.175070,159.33550 67.581600,157.55510 65.356080,156.14560 C 65.801190,158.59370 62.462910,160.89340 62.462910,162.89630 C 62.462910,164.89930 64.169140,164.45420 63.946590,167.49580 C 64.094960,169.27610 63.501490,168.83110 63.353120,170.53730 L 66.320470,170.53730 z " id="path614" style="fill:url(#linearGradient574);fill-opacity:1.0000000;fill-rule:evenodd;stroke:#000000;stroke-width:0.62500000;stroke-linecap:butt;stroke-linejoin:miter;stroke-dasharray:none;stroke-opacity:1.0000000"/>
      <path d="M 80.922043 156.72391 A 1.7056201 1.7055510 0 1 1  77.510803,156.72391 A 1.7056201 1.7055510 0 1 1  80.922043 156.72391 z" id="path615" style="fill:#f7c600;fill-opacity:1.0000000;fill-rule:evenodd;stroke:#000000;stroke-width:0.62500000;stroke-linecap:butt;stroke-linejoin:miter;stroke-dasharray:none;stroke-opacity:1.0000000" transform="translate(-7.418633e-2,0.445068)"/>
    </g>
    <g id="g616" transform="translate(1.993339,-107.9546)">
      <path d="M 69.786280,170.52960 L 79.121670,156.81870 L 88.502560,170.55830" id="path617" style="fill:none;fill-opacity:1.0000000;fill-rule:evenodd;stroke:#f7c600;stroke-width:1.0000000pt;stroke-linecap:butt;stroke-linejoin:miter;stroke-opacity:1.0000000"/>
      <path d="M 80.922043 156.72391 A 1.7056201 1.7055510 0 1 1  77.510803,156.72391 A 1.7056201 1.7055510 0 1 1  80.922043 156.72391 z" id="path618" style="fill:#f7c600;fill-opacity:1.0000000;fill-rule:evenodd;stroke:#000000;stroke-width:0.57499999;stroke-linecap:butt;stroke-linejoin:miter;stroke-dasharray:none;stroke-opacity:1.0000000" transform="matrix(1.086991,0.000000,0.000000,1.087005,-6.965268,-4.956314)"/>
      <path d="M 71.541150,180.65620 L 86.013950,180.69740 C 86.013950,180.69740 86.240880,178.81910 84.502220,177.67750 C 92.082760,176.63510 90.113430,169.94860 96.462100,169.56960 C 97.693940,169.75910 93.145630,172.41230 93.145630,172.41230 C 93.145630,172.41230 89.317890,175.11350 91.060980,176.48680 C 92.444850,177.57710 93.050870,175.82360 93.240390,174.49700 C 93.429900,173.17040 99.399540,172.31760 98.546750,168.52740 C 97.125400,165.40040 88.786830,170.61190 88.786830,170.61190 L 82.837750,170.57890 C 82.466820,169.91120 80.827290,167.23370 79.134120,167.22130 C 77.125370,167.29460 75.710430,170.61190 75.710430,170.61190 L 67.087590,170.61190 L 62.255010,170.61190 C 62.255010,170.61190 61.793690,174.06430 68.616170,174.72760 C 70.152210,176.73370 71.342920,177.29420 72.678230,177.81350 C 71.788020,178.55540 71.537410,179.45290 71.541150,180.65620 z " id="path619" style="fill:#f7c600;fill-opacity:1.0000000;fill-rule:evenodd;stroke:#000000;stroke-width:0.62500000;stroke-linecap:butt;stroke-linejoin:miter;stroke-dasharray:none;stroke-opacity:1.0000000"/>
      <path d="M 72.583470,177.71870 L 84.638110,177.67760" id="path620" style="fill:none;fill-opacity:1.0000000;fill-rule:evenodd;stroke:#000000;stroke-width:0.62500000;stroke-linecap:butt;stroke-linejoin:miter;stroke-dasharray:none;stroke-opacity:1.0000000"/>
      <path d="M 67.062320,170.61130 C 67.062320,170.61130 68.026710,176.24940 72.477750,177.58470" id="path621" style="fill:none;fill-opacity:1.0000000;fill-rule:evenodd;stroke:#000000;stroke-width:0.62500000;stroke-linecap:butt;stroke-linejoin:miter;stroke-dasharray:none;stroke-opacity:1.0000000"/>
      <path d="M 66.320470,170.53730 C 66.765570,168.38600 67.581600,168.01500 68.471810,165.27020 C 68.620180,162.59960 66.320470,162.89630 66.988130,161.19010 C 68.175070,159.33550 67.581600,157.55510 65.356080,156.14560 C 65.801190,158.59370 62.462910,160.89340 62.462910,162.89630 C 62.462910,164.89930 64.169140,164.45420 63.946590,167.49580 C 64.094960,169.27610 63.501490,168.83110 63.353120,170.53730 L 66.320470,170.53730 z " id="path622" style="fill:url(#linearGradient574);fill-opacity:1.0000000;fill-rule:evenodd;stroke:#000000;stroke-width:0.62500000;stroke-linecap:butt;stroke-linejoin:miter;stroke-dasharray:none;stroke-opacity:1.0000000"/>
      <path d="M 80.922043 156.72391 A 1.7056201 1.7055510 0 1 1  77.510803,156.72391 A 1.7056201 1.7055510 0 1 1  80.922043 156.72391 z" id="path623" style="fill:#f7c600;fill-opacity:1.0000000;fill-rule:evenodd;stroke:#000000;stroke-width:0.62500000;stroke-linecap:butt;stroke-linejoin:miter;stroke-dasharray:none;stroke-opacity:1.0000000" transform="translate(-7.418633e-2,0.445068)"/>
    </g>
    <g id="g624" transform="translate(2.505107,-135.3109)">
      <path d="M 69.786280,170.52960 L 79.121670,156.81870 L 88.502560,170.55830" id="path625" style="fill:none;fill-opacity:1.0000000;fill-rule:evenodd;stroke:#f7c600;stroke-width:1.0000000pt;stroke-linecap:butt;stroke-linejoin:miter;stroke-opacity:1.0000000"/>
      <path d="M 80.922043 156.72391 A 1.7056201 1.7055510 0 1 1  77.510803,156.72391 A 1.7056201 1.7055510 0 1 1  80.922043 156.72391 z" id="path626" style="fill:#f7c600;fill-opacity:1.0000000;fill-rule:evenodd;stroke:#000000;stroke-width:0.57499999;stroke-linecap:butt;stroke-linejoin:miter;stroke-dasharray:none;stroke-opacity:1.0000000" transform="matrix(1.086991,0.000000,0.000000,1.087005,-6.965268,-4.956314)"/>
      <path d="M 71.541150,180.65620 L 86.013950,180.69740 C 86.013950,180.69740 86.240880,178.81910 84.502220,177.67750 C 92.082760,176.63510 90.113430,169.94860 96.462100,169.56960 C 97.693940,169.75910 93.145630,172.41230 93.145630,172.41230 C 93.145630,172.41230 89.317890,175.11350 91.060980,176.48680 C 92.444850,177.57710 93.050870,175.82360 93.240390,174.49700 C 93.429900,173.17040 99.399540,172.31760 98.546750,168.52740 C 97.125400,165.40040 88.786830,170.61190 88.786830,170.61190 L 82.837750,170.57890 C 82.466820,169.91120 80.827290,167.23370 79.134120,167.22130 C 77.125370,167.29460 75.710430,170.61190 75.710430,170.61190 L 67.087590,170.61190 L 62.255010,170.61190 C 62.255010,170.61190 61.793690,174.06430 68.616170,174.72760 C 70.152210,176.73370 71.342920,177.29420 72.678230,177.81350 C 71.788020,178.55540 71.537410,179.45290 71.541150,180.65620 z " id="path627" style="fill:#f7c600;fill-opacity:1.0000000;fill-rule:evenodd;stroke:#000000;stroke-width:0.62500000;stroke-linecap:butt;stroke-linejoin:miter;stroke-dasharray:none;stroke-opacity:1.0000000"/>
      <path d="M 72.583470,177.71870 L 84.638110,177.67760" id="path628" style="fill:none;fill-opacity:1.0000000;fill-rule:evenodd;stroke:#000000;stroke-width:0.62500000;stroke-linecap:butt;stroke-linejoin:miter;stroke-dasharray:none;stroke-opacity:1.0000000"/>
      <path d="M 67.062320,170.61130 C 67.062320,170.61130 68.026710,176.24940 72.477750,177.58470" id="path629" style="fill:none;fill-opacity:1.0000000;fill-rule:evenodd;stroke:#000000;stroke-width:0.62500000;stroke-linecap:butt;stroke-linejoin:miter;stroke-dasharray:none;stroke-opacity:1.0000000"/>
      <path d="M 66.320470,170.53730 C 66.765570,168.38600 67.581600,168.01500 68.471810,165.27020 C 68.620180,162.59960 66.320470,162.89630 66.988130,161.19010 C 68.175070,159.33550 67.581600,157.55510 65.356080,156.14560 C 65.801190,158.59370 62.462910,160.89340 62.462910,162.89630 C 62.462910,164.89930 64.169140,164.45420 63.946590,167.49580 C 64.094960,169.27610 63.501490,168.83110 63.353120,170.53730 L 66.320470,170.53730 z " id="path630" style="fill:url(#linearGradient574);fill-opacity:1.0000000;fill-rule:evenodd;stroke:#000000;stroke-width:0.62500000;stroke-linecap:butt;stroke-linejoin:miter;stroke-dasharray:none;stroke-opacity:1.0000000"/>
      <path d="M 80.922043 156.72391 A 1.7056201 1.7055510 0 1 1  77.510803,156.72391 A 1.7056201 1.7055510 0 1 1  80.922043 156.72391 z" id="path631" style="fill:#f7c600;fill-opacity:1.0000000;fill-rule:evenodd;stroke:#000000;stroke-width:0.62500000;stroke-linecap:butt;stroke-linejoin:miter;stroke-dasharray:none;stroke-opacity:1.0000000" transform="translate(-7.418633e-2,0.445068)"/>
    </g>
    <g id="g632" transform="translate(99.38946,-134.8658)">
      <path d="M 69.786280,170.52960 L 79.121670,156.81870 L 88.502560,170.55830" id="path633" style="fill:none;fill-opacity:1.0000000;fill-rule:evenodd;stroke:#f7c600;stroke-width:1.0000000pt;stroke-linecap:butt;stroke-linejoin:miter;stroke-opacity:1.0000000"/>
      <path d="M 80.922043 156.72391 A 1.7056201 1.7055510 0 1 1  77.510803,156.72391 A 1.7056201 1.7055510 0 1 1  80.922043 156.72391 z" id="path634" style="fill:#f7c600;fill-opacity:1.0000000;fill-rule:evenodd;stroke:#000000;stroke-width:0.57499999;stroke-linecap:butt;stroke-linejoin:miter;stroke-dasharray:none;stroke-opacity:1.0000000" transform="matrix(1.086991,0.000000,0.000000,1.087005,-6.965268,-4.956314)"/>
      <path d="M 71.541150,180.65620 L 86.013950,180.69740 C 86.013950,180.69740 86.240880,178.81910 84.502220,177.67750 C 92.082760,176.63510 90.113430,169.94860 96.462100,169.56960 C 97.693940,169.75910 93.145630,172.41230 93.145630,172.41230 C 93.145630,172.41230 89.317890,175.11350 91.060980,176.48680 C 92.444850,177.57710 93.050870,175.82360 93.240390,174.49700 C 93.429900,173.17040 99.399540,172.31760 98.546750,168.52740 C 97.125400,165.40040 88.786830,170.61190 88.786830,170.61190 L 82.837750,170.57890 C 82.466820,169.91120 80.827290,167.23370 79.134120,167.22130 C 77.125370,167.29460 75.710430,170.61190 75.710430,170.61190 L 67.087590,170.61190 L 62.255010,170.61190 C 62.255010,170.61190 61.793690,174.06430 68.616170,174.72760 C 70.152210,176.73370 71.342920,177.29420 72.678230,177.81350 C 71.788020,178.55540 71.537410,179.45290 71.541150,180.65620 z " id="path635" style="fill:#f7c600;fill-opacity:1.0000000;fill-rule:evenodd;stroke:#000000;stroke-width:0.62500000;stroke-linecap:butt;stroke-linejoin:miter;stroke-dasharray:none;stroke-opacity:1.0000000"/>
      <path d="M 72.583470,177.71870 L 84.638110,177.67760" id="path636" style="fill:none;fill-opacity:1.0000000;fill-rule:evenodd;stroke:#000000;stroke-width:0.62500000;stroke-linecap:butt;stroke-linejoin:miter;stroke-dasharray:none;stroke-opacity:1.0000000"/>
      <path d="M 67.062320,170.61130 C 67.062320,170.61130 68.026710,176.24940 72.477750,177.58470" id="path637" style="fill:none;fill-opacity:1.0000000;fill-rule:evenodd;stroke:#000000;stroke-width:0.62500000;stroke-linecap:butt;stroke-linejoin:miter;stroke-dasharray:none;stroke-opacity:1.0000000"/>
      <path d="M 66.320470,170.53730 C 66.765570,168.38600 67.581600,168.01500 68.471810,165.27020 C 68.620180,162.59960 66.320470,162.89630 66.988130,161.19010 C 68.175070,159.33550 67.581600,157.55510 65.356080,156.14560 C 65.801190,158.59370 62.462910,160.89340 62.462910,162.89630 C 62.462910,164.89930 64.169140,164.45420 63.946590,167.49580 C 64.094960,169.27610 63.501490,168.83110 63.353120,170.53730 L 66.320470,170.53730 z " id="path638" style="fill:url(#linearGradient574);fill-opacity:1.0000000;fill-rule:evenodd;stroke:#000000;stroke-width:0.62500000;stroke-linecap:butt;stroke-linejoin:miter;stroke-dasharray:none;stroke-opacity:1.0000000"/>
      <path d="M 80.922043 156.72391 A 1.7056201 1.7055510 0 1 1  77.510803,156.72391 A 1.7056201 1.7055510 0 1 1  80.922043 156.72391 z" id="path639" style="fill:#f7c600;fill-opacity:1.0000000;fill-rule:evenodd;stroke:#000000;stroke-width:0.62500000;stroke-linecap:butt;stroke-linejoin:miter;stroke-dasharray:none;stroke-opacity:1.0000000" transform="translate(-7.418633e-2,0.445068)"/>
    </g>
    <g id="g640" transform="translate(98.49924,-108.0111)">
      <path d="M 69.786280,170.52960 L 79.121670,156.81870 L 88.502560,170.55830" id="path641" style="fill:none;fill-opacity:1.0000000;fill-rule:evenodd;stroke:#f7c600;stroke-width:1.0000000pt;stroke-linecap:butt;stroke-linejoin:miter;stroke-opacity:1.0000000"/>
      <path d="M 80.922043 156.72391 A 1.7056201 1.7055510 0 1 1  77.510803,156.72391 A 1.7056201 1.7055510 0 1 1  80.922043 156.72391 z" id="path642" style="fill:#f7c600;fill-opacity:1.0000000;fill-rule:evenodd;stroke:#000000;stroke-width:0.57499999;stroke-linecap:butt;stroke-linejoin:miter;stroke-dasharray:none;stroke-opacity:1.0000000" transform="matrix(1.086991,0.000000,0.000000,1.087005,-6.965268,-4.956314)"/>
      <path d="M 71.541150,180.65620 L 86.013950,180.69740 C 86.013950,180.69740 86.240880,178.81910 84.502220,177.67750 C 92.082760,176.63510 90.113430,169.94860 96.462100,169.56960 C 97.693940,169.75910 93.145630,172.41230 93.145630,172.41230 C 93.145630,172.41230 89.317890,175.11350 91.060980,176.48680 C 92.444850,177.57710 93.050870,175.82360 93.240390,174.49700 C 93.429900,173.17040 99.399540,172.31760 98.546750,168.52740 C 97.125400,165.40040 88.786830,170.61190 88.786830,170.61190 L 82.837750,170.57890 C 82.466820,169.91120 80.827290,167.23370 79.134120,167.22130 C 77.125370,167.29460 75.710430,170.61190 75.710430,170.61190 L 67.087590,170.61190 L 62.255010,170.61190 C 62.255010,170.61190 61.793690,174.06430 68.616170,174.72760 C 70.152210,176.73370 71.342920,177.29420 72.678230,177.81350 C 71.788020,178.55540 71.537410,179.45290 71.541150,180.65620 z " id="path643" style="fill:#f7c600;fill-opacity:1.0000000;fill-rule:evenodd;stroke:#000000;stroke-width:0.62500000;stroke-linecap:butt;stroke-linejoin:miter;stroke-dasharray:none;stroke-opacity:1.0000000"/>
      <path d="M 72.583470,177.71870 L 84.638110,177.67760" id="path644" style="fill:none;fill-opacity:1.0000000;fill-rule:evenodd;stroke:#000000;stroke-width:0.62500000;stroke-linecap:butt;stroke-linejoin:miter;stroke-dasharray:none;stroke-opacity:1.0000000"/>
      <path d="M 67.062320,170.61130 C 67.062320,170.61130 68.026710,176.24940 72.477750,177.58470" id="path645" style="fill:none;fill-opacity:1.0000000;fill-rule:evenodd;stroke:#000000;stroke-width:0.62500000;stroke-linecap:butt;stroke-linejoin:miter;stroke-dasharray:none;stroke-opacity:1.0000000"/>
      <path d="M 66.320470,170.53730 C 66.765570,168.38600 67.581600,168.01500 68.471810,165.27020 C 68.620180,162.59960 66.320470,162.89630 66.988130,161.19010 C 68.175070,159.33550 67.581600,157.55510 65.356080,156.14560 C 65.801190,158.59370 62.462910,160.89340 62.462910,162.89630 C 62.462910,164.89930 64.169140,164.45420 63.946590,167.49580 C 64.094960,169.27610 63.501490,168.83110 63.353120,170.53730 L 66.320470,170.53730 z " id="path646" style="fill:url(#linearGradient574);fill-opacity:1.0000000;fill-rule:evenodd;stroke:#000000;stroke-width:0.62500000;stroke-linecap:butt;stroke-linejoin:miter;stroke-dasharray:none;stroke-opacity:1.0000000"/>
      <path d="M 80.922043 156.72391 A 1.7056201 1.7055510 0 1 1  77.510803,156.72391 A 1.7056201 1.7055510 0 1 1  80.922043 156.72391 z" id="path647" style="fill:#f7c600;fill-opacity:1.0000000;fill-rule:evenodd;stroke:#000000;stroke-width:0.62500000;stroke-linecap:butt;stroke-linejoin:miter;stroke-dasharray:none;stroke-opacity:1.0000000" transform="translate(-7.418633e-2,0.445068)"/>
    </g>
    <g id="g648" transform="translate(97.31230,-80.56300)">
      <path d="M 69.786280,170.52960 L 79.121670,156.81870 L 88.502560,170.55830" id="path649" style="fill:none;fill-opacity:1.0000000;fill-rule:evenodd;stroke:#f7c600;stroke-width:1.0000000pt;stroke-linecap:butt;stroke-linejoin:miter;stroke-opacity:1.0000000"/>
      <path d="M 80.922043 156.72391 A 1.7056201 1.7055510 0 1 1  77.510803,156.72391 A 1.7056201 1.7055510 0 1 1  80.922043 156.72391 z" id="path650" style="fill:#f7c600;fill-opacity:1.0000000;fill-rule:evenodd;stroke:#000000;stroke-width:0.57499999;stroke-linecap:butt;stroke-linejoin:miter;stroke-dasharray:none;stroke-opacity:1.0000000" transform="matrix(1.086991,0.000000,0.000000,1.087005,-6.965268,-4.956314)"/>
      <path d="M 71.541150,180.65620 L 86.013950,180.69740 C 86.013950,180.69740 86.240880,178.81910 84.502220,177.67750 C 92.082760,176.63510 90.113430,169.94860 96.462100,169.56960 C 97.693940,169.75910 93.145630,172.41230 93.145630,172.41230 C 93.145630,172.41230 89.317890,175.11350 91.060980,176.48680 C 92.444850,177.57710 93.050870,175.82360 93.240390,174.49700 C 93.429900,173.17040 99.399540,172.31760 98.546750,168.52740 C 97.125400,165.40040 88.786830,170.61190 88.786830,170.61190 L 82.837750,170.57890 C 82.466820,169.91120 80.827290,167.23370 79.134120,167.22130 C 77.125370,167.29460 75.710430,170.61190 75.710430,170.61190 L 67.087590,170.61190 L 62.255010,170.61190 C 62.255010,170.61190 61.793690,174.06430 68.616170,174.72760 C 70.152210,176.73370 71.342920,177.29420 72.678230,177.81350 C 71.788020,178.55540 71.537410,179.45290 71.541150,180.65620 z " id="path651" style="fill:#f7c600;fill-opacity:1.0000000;fill-rule:evenodd;stroke:#000000;stroke-width:0.62500000;stroke-linecap:butt;stroke-linejoin:miter;stroke-dasharray:none;stroke-opacity:1.0000000"/>
      <path d="M 72.583470,177.71870 L 84.638110,177.67760" id="path652" style="fill:none;fill-opacity:1.0000000;fill-rule:evenodd;stroke:#000000;stroke-width:0.62500000;stroke-linecap:butt;stroke-linejoin:miter;stroke-dasharray:none;stroke-opacity:1.0000000"/>
      <path d="M 67.062320,170.61130 C 67.062320,170.61130 68.026710,176.24940 72.477750,177.58470" id="path653" style="fill:none;fill-opacity:1.0000000;fill-rule:evenodd;stroke:#000000;stroke-width:0.62500000;stroke-linecap:butt;stroke-linejoin:miter;stroke-dasharray:none;stroke-opacity:1.0000000"/>
      <path d="M 66.320470,170.53730 C 66.765570,168.38600 67.581600,168.01500 68.471810,165.27020 C 68.620180,162.59960 66.320470,162.89630 66.988130,161.19010 C 68.175070,159.33550 67.581600,157.55510 65.356080,156.14560 C 65.801190,158.59370 62.462910,160.89340 62.462910,162.89630 C 62.462910,164.89930 64.169140,164.45420 63.946590,167.49580 C 64.094960,169.27610 63.501490,168.83110 63.353120,170.53730 L 66.320470,170.53730 z " id="path654" style="fill:url(#linearGradient574);fill-opacity:1.0000000;fill-rule:evenodd;stroke:#000000;stroke-width:0.62500000;stroke-linecap:butt;stroke-linejoin:miter;stroke-dasharray:none;stroke-opacity:1.0000000"/>
      <path d="M 80.922043 156.72391 A 1.7056201 1.7055510 0 1 1  77.510803,156.72391 A 1.7056201 1.7055510 0 1 1  80.922043 156.72391 z" id="path655" style="fill:#f7c600;fill-opacity:1.0000000;fill-rule:evenodd;stroke:#000000;stroke-width:0.62500000;stroke-linecap:butt;stroke-linejoin:miter;stroke-dasharray:none;stroke-opacity:1.0000000" transform="translate(-7.418633e-2,0.445068)"/>
    </g>
    <path d="M 69.786280,170.52960 L 79.121670,156.81870 L 88.502560,170.55830" id="path657" style="font-size:12.000000px;fill:none;fill-rule:evenodd;stroke:#f7c600;stroke-width:1.0000000" transform="translate(98.49926,0.594299)"/>
    <path d="M 80.922043 156.72391 A 1.7056201 1.7055510 0 1 1  77.510803,156.72391 A 1.7056201 1.7055510 0 1 1  80.922043 156.72391 z" id="path658" style="font-size:12.000000px;fill:#f7c600;fill-rule:evenodd;stroke:#000000;stroke-width:0.57499999" transform="matrix(1.086991,0.000000,0.000000,1.087005,91.53399,-4.362015)"/>
    <path d="M 71.541150,180.65620 L 86.013950,180.69740 C 86.013950,180.69740 86.240880,178.81910 84.502220,177.67750 C 92.082760,176.63510 90.113430,169.94860 96.462100,169.56960 C 97.693940,169.75910 93.145630,172.41230 93.145630,172.41230 C 93.145630,172.41230 89.317890,175.11350 91.060980,176.48680 C 92.444850,177.57710 93.050870,175.82360 93.240390,174.49700 C 93.429900,173.17040 99.399540,172.31760 98.546750,168.52740 C 97.125400,165.40040 88.786830,170.61190 88.786830,170.61190 L 82.837750,170.57890 C 82.466820,169.91120 80.827290,167.23370 79.134120,167.22130 C 77.125370,167.29460 75.710430,170.61190 75.710430,170.61190 L 67.087590,170.61190 L 62.255010,170.61190 C 62.255010,170.61190 61.793690,174.06430 68.616170,174.72760 C 70.152210,176.73370 71.342920,177.29420 72.678230,177.81350 C 71.788020,178.55540 71.537410,179.45290 71.541150,180.65620 z " id="path659" style="font-size:12.000000px;fill:#f7c600;fill-rule:evenodd;stroke:#000000;stroke-width:0.62500000" transform="translate(98.49926,0.594299)"/>
    <path d="M 72.583470,177.71870 L 84.638110,177.67760" id="path660" style="font-size:12.000000px;fill:none;fill-rule:evenodd;stroke:#000000;stroke-width:0.62500000" transform="translate(98.49926,0.594299)"/>
    <path d="M 67.062320,170.61130 C 67.062320,170.61130 68.026710,176.24940 72.477750,177.58470" id="path661" style="font-size:12.000000px;fill:none;fill-rule:evenodd;stroke:#000000;stroke-width:0.62500000" transform="translate(98.49926,0.594299)"/>
    <path d="M 66.320470,170.53730 C 66.765570,168.38600 67.581600,168.01500 68.471810,165.27020 C 68.620180,162.59960 66.320470,162.89630 66.988130,161.19010 C 68.175070,159.33550 67.581600,157.55510 65.356080,156.14560 C 65.801190,158.59370 62.462910,160.89340 62.462910,162.89630 C 62.462910,164.89930 64.169140,164.45420 63.946590,167.49580 C 64.094960,169.27610 63.501490,168.83110 63.353120,170.53730 L 66.320470,170.53730 z " id="path662" style="font-size:12.000000px;fill:url(#linearGradient574);fill-rule:evenodd;stroke:#000000;stroke-width:0.62500000;stroke-dasharray:none" transform="translate(98.49926,0.594299)"/>
    <path d="M 80.922043 156.72391 A 1.7056201 1.7055510 0 1 1  77.510803,156.72391 A 1.7056201 1.7055510 0 1 1  80.922043 156.72391 z" id="path663" style="font-size:12.000000px;fill:#f7c600;fill-rule:evenodd;stroke:#000000;stroke-width:0.62500000" transform="translate(98.42507,1.039367)"/>
    <g id="g664" transform="translate(98.35089,-26.55704)">
      <path d="M 69.786280,170.52960 L 79.121670,156.81870 L 88.502560,170.55830" id="path665" style="fill:none;fill-opacity:1.0000000;fill-rule:evenodd;stroke:#f7c600;stroke-width:1.0000000pt;stroke-linecap:butt;stroke-linejoin:miter;stroke-opacity:1.0000000"/>
      <path d="M 80.922043 156.72391 A 1.7056201 1.7055510 0 1 1  77.510803,156.72391 A 1.7056201 1.7055510 0 1 1  80.922043 156.72391 z" id="path666" style="fill:#f7c600;fill-opacity:1.0000000;fill-rule:evenodd;stroke:#000000;stroke-width:0.57499999;stroke-linecap:butt;stroke-linejoin:miter;stroke-dasharray:none;stroke-opacity:1.0000000" transform="matrix(1.086991,0.000000,0.000000,1.087005,-6.965268,-4.956314)"/>
      <path d="M 71.541150,180.65620 L 86.013950,180.69740 C 86.013950,180.69740 86.240880,178.81910 84.502220,177.67750 C 92.082760,176.63510 90.113430,169.94860 96.462100,169.56960 C 97.693940,169.75910 93.145630,172.41230 93.145630,172.41230 C 93.145630,172.41230 89.317890,175.11350 91.060980,176.48680 C 92.444850,177.57710 93.050870,175.82360 93.240390,174.49700 C 93.429900,173.17040 99.399540,172.31760 98.546750,168.52740 C 97.125400,165.40040 88.786830,170.61190 88.786830,170.61190 L 82.837750,170.57890 C 82.466820,169.91120 80.827290,167.23370 79.134120,167.22130 C 77.125370,167.29460 75.710430,170.61190 75.710430,170.61190 L 67.087590,170.61190 L 62.255010,170.61190 C 62.255010,170.61190 61.793690,174.06430 68.616170,174.72760 C 70.152210,176.73370 71.342920,177.29420 72.678230,177.81350 C 71.788020,178.55540 71.537410,179.45290 71.541150,180.65620 z " id="path667" style="fill:#f7c600;fill-opacity:1.0000000;fill-rule:evenodd;stroke:#000000;stroke-width:0.62500000;stroke-linecap:butt;stroke-linejoin:miter;stroke-dasharray:none;stroke-opacity:1.0000000"/>
      <path d="M 72.583470,177.71870 L 84.638110,177.67760" id="path668" style="fill:none;fill-opacity:1.0000000;fill-rule:evenodd;stroke:#000000;stroke-width:0.62500000;stroke-linecap:butt;stroke-linejoin:miter;stroke-dasharray:none;stroke-opacity:1.0000000"/>
      <path d="M 67.062320,170.61130 C 67.062320,170.61130 68.026710,176.24940 72.477750,177.58470" id="path669" style="fill:none;fill-opacity:1.0000000;fill-rule:evenodd;stroke:#000000;stroke-width:0.62500000;stroke-linecap:butt;stroke-linejoin:miter;stroke-dasharray:none;stroke-opacity:1.0000000"/>
      <path d="M 66.320470,170.53730 C 66.765570,168.38600 67.581600,168.01500 68.471810,165.27020 C 68.620180,162.59960 66.320470,162.89630 66.988130,161.19010 C 68.175070,159.33550 67.581600,157.55510 65.356080,156.14560 C 65.801190,158.59370 62.462910,160.89340 62.462910,162.89630 C 62.462910,164.89930 64.169140,164.45420 63.946590,167.49580 C 64.094960,169.27610 63.501490,168.83110 63.353120,170.53730 L 66.320470,170.53730 z " id="path670" style="fill:url(#linearGradient574);fill-opacity:1.0000000;fill-rule:evenodd;stroke:#000000;stroke-width:0.62500000;stroke-linecap:butt;stroke-linejoin:miter;stroke-dasharray:none;stroke-opacity:1.0000000"/>
      <path d="M 80.922043 156.72391 A 1.7056201 1.7055510 0 1 1  77.510803,156.72391 A 1.7056201 1.7055510 0 1 1  80.922043 156.72391 z" id="path671" style="fill:#f7c600;fill-opacity:1.0000000;fill-rule:evenodd;stroke:#000000;stroke-width:0.62500000;stroke-linecap:butt;stroke-linejoin:miter;stroke-dasharray:none;stroke-opacity:1.0000000" transform="translate(-7.418633e-2,0.445068)"/>
    </g>
    <g id="g576" transform="translate(19.47813,-51.79271)">
      <path d="M 69.786280,170.52960 L 79.121670,156.81870 L 88.502560,170.55830" id="path563" style="fill:none;fill-opacity:1.0000000;fill-rule:evenodd;stroke:#f7c600;stroke-width:1.0000000pt;stroke-linecap:butt;stroke-linejoin:miter;stroke-opacity:1.0000000"/>
      <path d="M 80.922043 156.72391 A 1.7056201 1.7055510 0 1 1  77.510803,156.72391 A 1.7056201 1.7055510 0 1 1  80.922043 156.72391 z" id="path564" style="fill:#f7c600;fill-opacity:1.0000000;fill-rule:evenodd;stroke:#000000;stroke-width:0.57499999;stroke-linecap:butt;stroke-linejoin:miter;stroke-dasharray:none;stroke-opacity:1.0000000" transform="matrix(1.086991,0.000000,0.000000,1.087005,-6.965268,-4.956314)"/>
      <path d="M 71.541150,180.65620 L 86.013950,180.69740 C 86.013950,180.69740 86.240880,178.81910 84.502220,177.67750 C 92.082760,176.63510 90.113430,169.94860 96.462100,169.56960 C 97.693940,169.75910 93.145630,172.41230 93.145630,172.41230 C 93.145630,172.41230 89.317890,175.11350 91.060980,176.48680 C 92.444850,177.57710 93.050870,175.82360 93.240390,174.49700 C 93.429900,173.17040 99.399540,172.31760 98.546750,168.52740 C 97.125400,165.40040 88.786830,170.61190 88.786830,170.61190 L 82.837750,170.57890 C 82.466820,169.91120 80.827290,167.23370 79.134120,167.22130 C 77.125370,167.29460 75.710430,170.61190 75.710430,170.61190 L 67.087590,170.61190 L 62.255010,170.61190 C 62.255010,170.61190 61.793690,174.06430 68.616170,174.72760 C 70.152210,176.73370 71.342920,177.29420 72.678230,177.81350 C 71.788020,178.55540 71.537410,179.45290 71.541150,180.65620 z " id="path565" style="fill:#f7c600;fill-opacity:1.0000000;fill-rule:evenodd;stroke:#000000;stroke-width:0.62500000;stroke-linecap:butt;stroke-linejoin:miter;stroke-dasharray:none;stroke-opacity:1.0000000"/>
      <path d="M 72.583470,177.71870 L 84.638110,177.67760" id="path566" style="fill:none;fill-opacity:1.0000000;fill-rule:evenodd;stroke:#000000;stroke-width:0.62500000;stroke-linecap:butt;stroke-linejoin:miter;stroke-dasharray:none;stroke-opacity:1.0000000"/>
      <path d="M 67.062320,170.61130 C 67.062320,170.61130 68.026710,176.24940 72.477750,177.58470" id="path568" style="fill:none;fill-opacity:1.0000000;fill-rule:evenodd;stroke:#000000;stroke-width:0.62500000;stroke-linecap:butt;stroke-linejoin:miter;stroke-dasharray:none;stroke-opacity:1.0000000"/>
      <path d="M 66.320470,170.53730 C 66.765570,168.38600 67.581600,168.01500 68.471810,165.27020 C 68.620180,162.59960 66.320470,162.89630 66.988130,161.19010 C 68.175070,159.33550 67.581600,157.55510 65.356080,156.14560 C 65.801190,158.59370 62.462910,160.89340 62.462910,162.89630 C 62.462910,164.89930 64.169140,164.45420 63.946590,167.49580 C 64.094960,169.27610 63.501490,168.83110 63.353120,170.53730 L 66.320470,170.53730 z " id="path569" style="fill:url(#linearGradient574);fill-opacity:1.0000000;fill-rule:evenodd;stroke:#000000;stroke-width:0.62500000;stroke-linecap:butt;stroke-linejoin:miter;stroke-dasharray:none;stroke-opacity:1.0000000"/>
      <path d="M 80.922043 156.72391 A 1.7056201 1.7055510 0 1 1  77.510803,156.72391 A 1.7056201 1.7055510 0 1 1  80.922043 156.72391 z" id="path575" style="fill:#f7c600;fill-opacity:1.0000000;fill-rule:evenodd;stroke:#000000;stroke-width:0.62500000;stroke-linecap:butt;stroke-linejoin:miter;stroke-dasharray:none;stroke-opacity:1.0000000" transform="translate(-7.418633e-2,0.445068)"/>
    </g>
    <g id="g729">
      <path d="M 139.21830,183.90010 C 139.21830,183.90010 142.99510,192.60780 147.29650,187.25730 C 151.59790,181.90680 150.02430,179.59870 150.02430,179.59870 L 140.37230,174.35310 L 137.53970,180.33310 L 139.21830,183.90010 z " id="path718" style="fill:#f7c600;fill-opacity:1.0000000;fill-rule:evenodd;stroke:#000000;stroke-width:0.62500000;stroke-linecap:butt;stroke-linejoin:miter;stroke-dasharray:none;stroke-opacity:1.0000000"/>
      <path d="M 147.50640,182.74600 C 147.50640,182.74600 148.13580,182.85100 148.66040,181.90680 C 149.18500,180.96260 147.50640,180.54280 146.77200,179.49370 L 145.93270,181.17240 L 147.50640,182.74600 z " id="path678" style="fill:#ffc6b5;fill-opacity:1.0000000;fill-rule:evenodd;stroke:#000000;stroke-width:0.62500000;stroke-linecap:butt;stroke-linejoin:miter;stroke-dasharray:none;stroke-opacity:1.0000000"/>
      <path d="M 125.68470,180.43800 L 117.18680,185.05410 C 117.18680,185.05410 112.99030,185.89330 112.67560,185.05410 C 112.36080,184.21480 112.78050,183.48040 114.98360,183.37550 C 117.18680,183.27060 123.16680,177.81510 123.16680,177.81510 L 125.68470,180.43800 z " id="path675" style="fill:#ffc6b5;fill-opacity:1.0000000;fill-rule:evenodd;stroke:#000000;stroke-width:0.62500000;stroke-linecap:butt;stroke-linejoin:miter;stroke-dasharray:none;stroke-opacity:1.0000000"/>
      <path d="M 125.78960,29.469500 C 125.78960,29.469500 125.99940,31.462830 126.10430,32.511950 C 126.20920,33.561070 124.42570,35.764210 124.32080,35.659300 C 124.21590,35.554400 123.37660,35.764210 123.48150,36.393710 C 123.58640,37.023210 124.84540,37.233020 124.84540,37.233020 C 124.84540,37.233020 124.32080,39.436160 124.84540,39.541060 C 125.36990,39.645970 123.48150,42.373780 124.84540,43.108110 C 126.20920,43.842440 128.51730,44.786650 129.56640,44.576840 C 130.61550,44.367030 129.56640,48.668410 129.56640,48.668410 L 126.62890,54.963120 L 142.78530,53.284580 L 139.42810,47.934010 C 139.42810,47.934010 137.85450,46.884890 138.27410,43.842440 C 138.69380,40.799990 138.06430,27.056550 138.06430,27.056550 L 126.52400,25.482830 L 125.78960,29.469500 z " id="path674" style="fill:#ffc6b5;fill-opacity:1.0000000;fill-rule:evenodd;stroke:#000000;stroke-width:0.62500000;stroke-linecap:butt;stroke-linejoin:miter;stroke-dasharray:none;stroke-opacity:1.0000000"/>
      <path d="M 122.85200,53.389510 C 122.85200,53.389510 117.60640,55.802540 117.81620,62.307050 C 116.45240,68.601760 115.71800,74.896470 115.71800,74.896470 C 115.71800,74.896470 109.52820,81.925510 107.63980,84.443440 C 105.75140,86.961360 102.91870,92.101970 101.86960,93.465880 C 100.82050,94.829790 96.728940,99.341050 96.833840,101.01960 C 96.938750,102.69810 95.889630,110.14700 99.981190,110.98620 C 101.03030,111.40580 104.38750,102.38340 104.38750,102.38340 C 104.38750,102.38340 104.59730,98.501740 103.44330,97.767330 C 102.28930,97.032930 105.96120,94.515000 105.96120,94.515000 C 105.96120,94.515000 112.99030,89.374310 114.56400,88.115390 C 116.13770,86.856460 120.43910,82.030490 120.43910,82.030490 L 122.85200,53.389510 z " id="path672" style="fill:#ffc6b5;fill-opacity:1.0000000;fill-rule:evenodd;stroke:#000000;stroke-width:0.62500000;stroke-linecap:butt;stroke-linejoin:miter;stroke-dasharray:none;stroke-opacity:1.0000000"/>
      <path d="M 128.83200,48.458630 C 128.83200,48.458630 130.19590,52.130580 133.23830,51.501080 C 136.28080,50.871580 139.84780,48.039020 139.84780,48.039020 C 139.84780,48.039020 142.68040,47.934110 143.10010,48.353730 C 143.51970,48.773350 150.75860,55.802380 150.54880,58.005600 C 150.33900,60.208820 147.19160,59.579240 146.03760,61.048050 C 144.88360,62.516860 142.99510,66.188740 143.51970,68.916470 C 144.04430,71.644210 145.61790,75.211260 145.40810,76.575090 C 145.19830,77.938920 144.04430,78.358540 144.04430,79.092940 C 144.04430,79.827350 144.98850,81.086350 144.98850,82.450180 C 144.98850,83.814010 143.72950,85.807270 143.93940,87.171170 C 144.14920,88.535080 144.25410,92.521670 144.25410,92.521670 L 143.93940,110.98620 C 143.93940,110.98620 144.98850,111.61560 145.09340,112.66480 C 145.19830,113.71390 152.22740,144.24330 152.22740,144.24330 C 152.22740,144.24330 151.91270,145.18750 151.17830,145.08260 C 150.44390,144.97770 154.01090,149.80360 154.11580,151.16750 C 154.22070,152.53140 157.78780,163.23250 157.68280,164.70120 C 157.57790,166.16990 157.05340,169.42220 156.73860,169.52710 C 156.42390,169.63200 159.04670,176.24150 158.62700,177.29060 C 158.20740,178.33970 153.90600,178.23480 153.90600,178.23480 L 152.75200,178.02500 C 152.75200,178.02500 152.85690,179.38890 152.01760,179.49380 C 151.17830,179.59870 144.98850,179.17900 144.98850,179.17900 C 144.98850,179.17900 143.20500,181.90670 142.15590,181.80180 C 141.10670,181.69690 139.74290,179.80850 139.42810,180.12330 C 139.11340,180.43800 140.37240,182.22140 140.05760,182.74600 C 139.74290,183.27060 134.39240,184.42470 133.34320,181.90680 C 132.29410,179.38890 133.97270,180.01830 133.65800,179.49380 C 133.34320,178.96920 130.93030,177.60540 130.19590,178.02500 C 129.46150,178.44460 132.08430,179.07410 131.97940,180.12330 C 131.87450,181.17240 129.67130,182.74600 128.83200,182.74600 C 127.99270,182.74600 125.99940,178.86430 123.06190,179.28400 C 120.12430,179.70360 118.23590,180.43800 118.23590,180.43800 C 118.23590,180.43800 114.77380,181.90670 113.30500,181.59200 C 111.83630,181.27730 111.20680,180.12320 111.20680,179.49380 C 111.20680,178.86430 112.25590,176.13660 112.15100,175.29730 C 112.04610,174.45800 111.20680,173.61870 111.20680,172.35970 C 111.20680,171.10080 113.61980,166.79940 113.61980,166.79940 L 113.51490,147.49560 C 113.51490,147.49560 111.31170,147.49550 111.20680,146.13170 C 111.10190,144.76790 114.56400,115.60230 115.08850,113.71390 C 115.61310,111.82550 116.97700,105.11110 116.97700,105.11110 C 116.97700,105.11110 115.40330,105.84550 115.29840,105.11110 C 115.19350,104.37670 120.01940,87.695770 120.01940,87.695770 C 120.01940,87.695770 120.85870,79.407650 120.85870,77.204510 C 120.85870,75.001370 120.43910,71.958920 120.43910,71.958920 C 120.43910,71.958920 116.13190,70.135570 116.03270,67.342830 C 115.63880,62.899480 120.12430,60.418550 120.64890,58.949810 C 121.17340,57.481080 122.74710,53.074800 122.74710,53.074800 C 122.74710,53.074800 125.05520,49.088130 128.83200,48.458630 z " id="path679" style="fill:#ffffff;fill-opacity:1.0000000;fill-rule:evenodd;stroke:#000000;stroke-width:0.62500000;stroke-linecap:butt;stroke-linejoin:miter;stroke-dasharray:none;stroke-opacity:1.0000000"/>
      <path d="M 127.25830,181.69690 C 127.25830,181.69690 117.08190,187.04750 115.61310,187.46710 C 114.14430,187.88670 113.20010,185.68360 114.66890,185.26390 C 116.13770,184.84430 118.44570,184.63440 118.44570,184.63440 C 118.44570,184.63440 114.98360,181.90670 115.08850,181.80180 C 115.19350,181.69690 119.80960,180.01840 119.91450,180.01840 C 120.01940,180.01840 121.38330,182.74600 122.32750,182.53620 C 123.27170,182.32640 125.99940,180.22820 125.99940,180.22820 C 125.99940,180.22820 127.46820,181.90680 127.25830,181.69690 z " id="path717" style="fill:#f7c600;fill-opacity:1.0000000;fill-rule:evenodd;stroke:#000000;stroke-width:0.62500000;stroke-linecap:butt;stroke-linejoin:miter;stroke-dasharray:none;stroke-opacity:1.0000000"/>
      <path d="M 141.59530,184.63440 C 142.55750,185.87530 142.93370,188.02760 145.13690,186.76870 C 147.34000,185.50980 144.00830,183.17310 144.00830,183.17310 L 141.59530,184.63440 z " id="path676" style="fill:#ffc6b5;fill-opacity:1.0000000;fill-rule:evenodd;stroke:#000000;stroke-width:0.62500000;stroke-linecap:butt;stroke-linejoin:miter;stroke-dasharray:none;stroke-opacity:1.0000000"/>
      <path d="M 145.61800,184.42460 C 145.61800,184.42460 146.66710,185.26390 147.61130,184.31970 C 148.55550,183.37550 145.72280,181.38220 145.72280,181.38220 L 144.35900,182.95590 L 145.61800,184.42460 z " id="path677" style="fill:#ffc6b5;fill-opacity:1.0000000;fill-rule:evenodd;stroke:#000000;stroke-width:0.62500000;stroke-linecap:butt;stroke-linejoin:miter;stroke-dasharray:none;stroke-opacity:1.0000000"/>
      <path d="M 142.47060,52.550170 C 142.47060,52.550170 133.13340,58.530170 133.34320,60.628400" id="path680" style="fill:none;fill-opacity:1.0000000;fill-rule:evenodd;stroke:#000000;stroke-width:0.62500000;stroke-linecap:butt;stroke-linejoin:miter;stroke-dasharray:none;stroke-opacity:1.0000000"/>
      <path d="M 144.56880,53.599290 C 144.56880,53.599290 142.47060,55.907330 142.36570,55.907330" id="path681" style="fill:none;fill-opacity:1.0000000;fill-rule:evenodd;stroke:#000000;stroke-width:0.62500000;stroke-linecap:butt;stroke-linejoin:miter;stroke-dasharray:none;stroke-opacity:1.0000000"/>
      <path d="M 147.40150,56.117220 C 147.40150,56.117220 142.78530,59.894070 143.51970,62.307020" id="path682" style="fill:none;fill-opacity:1.0000000;fill-rule:evenodd;stroke:#000000;stroke-width:0.62500000;stroke-linecap:butt;stroke-linejoin:miter;stroke-dasharray:none;stroke-opacity:1.0000000"/>
      <path d="M 125.57970,52.025650 C 125.57970,52.025650 124.21590,54.858220 124.53060,55.802430 C 124.84540,56.746640 127.15340,60.313690 127.46820,62.516830 C 127.78290,64.719970 127.46820,66.293690 127.46820,66.293690" id="path683" style="fill:none;fill-opacity:1.0000000;fill-rule:evenodd;stroke:#000000;stroke-width:0.62500000;stroke-linecap:butt;stroke-linejoin:miter;stroke-dasharray:none;stroke-opacity:1.0000000"/>
      <path d="M 123.16680,57.271240 C 123.16680,57.271240 123.58640,60.628480 124.21590,61.257900 C 124.84540,61.887330 126.52400,64.719970 126.73380,65.873990" id="path684" style="fill:none;fill-opacity:1.0000000;fill-rule:evenodd;stroke:#000000;stroke-width:0.62500000;stroke-linecap:butt;stroke-linejoin:miter;stroke-dasharray:none;stroke-opacity:1.0000000"/>
      <path d="M 122.32750,71.224490 C 122.32750,71.224490 125.05520,72.588470 127.57310,67.342800" id="path685" style="fill:none;fill-opacity:1.0000000;fill-rule:evenodd;stroke:#000000;stroke-width:0.62500000;stroke-linecap:butt;stroke-linejoin:miter;stroke-dasharray:none;stroke-opacity:1.0000000"/>
      <path d="M 131.66460,63.670850 C 131.55970,63.670850 129.67130,68.811540 133.02850,70.699970 C 136.38570,72.588390 138.90360,72.378510 140.37230,71.853990 C 141.84110,71.329470 143.41480,70.385250 143.41480,70.385250" id="path686" style="fill:none;fill-opacity:1.0000000;fill-rule:evenodd;stroke:#000000;stroke-width:0.62500000;stroke-linecap:butt;stroke-linejoin:miter;stroke-dasharray:none;stroke-opacity:1.0000000"/>
      <path d="M 130.19590,69.965560 C 130.19590,69.965560 130.40570,76.889850 140.58220,83.709080" id="path687" style="fill:none;fill-opacity:1.0000000;fill-rule:evenodd;stroke:#000000;stroke-width:0.62500000;stroke-linecap:butt;stroke-linejoin:miter;stroke-dasharray:none;stroke-opacity:1.0000000"/>
      <path d="M 130.61550,76.470150 C 130.61550,76.470150 130.51060,82.554980 134.49730,85.282710" id="path688" style="fill:none;fill-opacity:1.0000000;fill-rule:evenodd;stroke:#000000;stroke-width:0.62500000;stroke-linecap:butt;stroke-linejoin:miter;stroke-dasharray:none;stroke-opacity:1.0000000"/>
      <path d="M 128.51730,69.336140 C 128.51730,69.336140 125.47480,78.358510 123.06190,79.302720" id="path689" style="fill:none;fill-opacity:1.0000000;fill-rule:evenodd;stroke:#000000;stroke-width:0.62500000;stroke-linecap:butt;stroke-linejoin:miter;stroke-dasharray:none;stroke-opacity:1.0000000"/>
      <path d="M 127.57310,75.945560 C 127.57310,75.945560 127.46820,82.450150 126.62890,84.758190" id="path690" style="fill:none;fill-opacity:1.0000000;fill-rule:evenodd;stroke:#000000;stroke-width:0.62500000;stroke-linecap:butt;stroke-linejoin:miter;stroke-dasharray:none;stroke-opacity:1.0000000"/>
      <path d="M 125.78960,86.331830 C 125.78960,86.331830 127.88780,88.954670 130.19590,88.744860 C 132.50390,88.535050 133.44810,85.807240 135.02180,86.226930 C 136.59550,86.646620 138.06430,87.905620 141.73620,87.590840" id="path691" style="fill:none;fill-opacity:1.0000000;fill-rule:evenodd;stroke:#000000;stroke-width:0.62500000;stroke-linecap:butt;stroke-linejoin:miter;stroke-dasharray:none;stroke-opacity:1.0000000"/>
      <path d="M 136.49060,90.318500 C 136.49060,90.318500 136.49060,95.668990 137.43480,96.193590 C 138.37900,96.718190 137.95940,101.64900 137.95940,101.64900" id="path692" style="fill:none;fill-opacity:1.0000000;fill-rule:evenodd;stroke:#000000;stroke-width:0.62500000;stroke-linecap:butt;stroke-linejoin:miter;stroke-dasharray:none;stroke-opacity:1.0000000"/>
      <path d="M 123.69130,87.800640 C 123.69130,87.800640 123.58640,92.836500 122.95690,94.619950 C 122.32750,96.403400 121.06850,99.445920 121.27840,102.06870" id="path693" style="fill:none;fill-opacity:1.0000000;fill-rule:evenodd;stroke:#000000;stroke-width:0.62500000;stroke-linecap:butt;stroke-linejoin:miter;stroke-dasharray:none;stroke-opacity:1.0000000"/>
      <path d="M 117.29170,105.00610 C 117.81620,104.79630 119.59980,103.22270 119.59980,103.22270" id="path694" style="fill:none;fill-opacity:1.0000000;fill-rule:evenodd;stroke:#000000;stroke-width:0.62500000;stroke-linecap:butt;stroke-linejoin:miter;stroke-dasharray:none;stroke-opacity:1.0000000"/>
      <path d="M 120.54400,104.37670 C 120.54400,104.37670 116.03270,123.68060 117.29170,135.22090" id="path695" style="fill:none;fill-opacity:1.0000000;fill-rule:evenodd;stroke:#000000;stroke-width:0.62500000;stroke-linecap:butt;stroke-linejoin:miter;stroke-dasharray:none;stroke-opacity:1.0000000"/>
      <path d="M 121.59310,105.32090 C 121.59310,105.32090 119.28500,119.79880 120.33410,122.52650" id="path696" style="fill:none;fill-opacity:1.0000000;fill-rule:evenodd;stroke:#000000;stroke-width:0.62500000;stroke-linecap:butt;stroke-linejoin:miter;stroke-dasharray:none;stroke-opacity:1.0000000"/>
      <path d="M 120.43910,104.90130 C 120.54400,104.90130 129.25170,105.53070 129.25170,105.53070" id="path697" style="fill:none;fill-opacity:1.0000000;fill-rule:evenodd;stroke:#000000;stroke-width:0.62500000;stroke-linecap:butt;stroke-linejoin:miter;stroke-dasharray:none;stroke-opacity:1.0000000"/>
      <path d="M 130.51060,104.37670 C 130.51060,104.37670 132.92360,105.63570 136.28080,105.42580" id="path698" style="fill:none;fill-opacity:1.0000000;fill-rule:evenodd;stroke:#000000;stroke-width:0.62500000;stroke-linecap:butt;stroke-linejoin:miter;stroke-dasharray:none;stroke-opacity:1.0000000"/>
      <path d="M 129.46150,111.40580 C 129.46150,111.40580 129.04180,136.16510 128.41240,141.62050" id="path699" style="fill:none;fill-opacity:1.0000000;fill-rule:evenodd;stroke:#000000;stroke-width:0.62500000;stroke-linecap:butt;stroke-linejoin:miter;stroke-dasharray:none;stroke-opacity:1.0000000"/>
      <path d="M 142.36570,117.07110 C 142.36570,117.07110 145.09340,138.78790 146.66710,140.78120" id="path700" style="fill:none;fill-opacity:1.0000000;fill-rule:evenodd;stroke:#000000;stroke-width:0.62500000;stroke-linecap:butt;stroke-linejoin:miter;stroke-dasharray:none;stroke-opacity:1.0000000"/>
      <path d="M 137.12010,119.79880 C 137.12010,119.79880 138.79870,138.99770 139.74290,140.67630" id="path701" style="fill:none;fill-opacity:1.0000000;fill-rule:evenodd;stroke:#000000;stroke-width:0.62500000;stroke-linecap:butt;stroke-linejoin:miter;stroke-dasharray:none;stroke-opacity:1.0000000"/>
      <path d="M 113.30510,147.39070 C 113.30510,147.39070 116.55730,146.34150 119.49480,143.19420 C 122.85210,147.70540 127.99270,143.40410 127.99270,143.40410 C 127.99270,143.40410 135.96600,148.85950 139.53310,142.77460 C 144.98850,146.34160 147.71620,142.25000 147.71620,142.25000 C 147.71620,142.25000 149.70960,145.29240 151.17830,144.97770" id="path702" style="fill:none;fill-opacity:1.0000000;fill-rule:evenodd;stroke:#000000;stroke-width:0.62500000;stroke-linecap:butt;stroke-linejoin:miter;stroke-dasharray:none;stroke-opacity:1.0000000"/>
      <path d="M 142.47060,147.07590 C 142.47060,147.07590 146.56220,166.27490 152.64710,171.73030" id="path703" style="fill:none;fill-opacity:1.0000000;fill-rule:evenodd;stroke:#000000;stroke-width:0.62500000;stroke-linecap:butt;stroke-linejoin:miter;stroke-dasharray:none;stroke-opacity:1.0000000"/>
      <path d="M 121.38330,145.08260 C 121.38330,145.08260 121.90780,161.13420 122.85200,172.46460" id="path704" style="fill:none;fill-opacity:1.0000000;fill-rule:evenodd;stroke:#000000;stroke-width:0.62500000;stroke-linecap:butt;stroke-linejoin:miter;stroke-dasharray:none;stroke-opacity:1.0000000"/>
      <path d="M 120.64890,163.23240 C 120.64890,163.23240 120.12430,173.72360 119.49480,174.45800" id="path705" style="fill:none;fill-opacity:1.0000000;fill-rule:evenodd;stroke:#000000;stroke-width:0.62500000;stroke-linecap:butt;stroke-linejoin:miter;stroke-dasharray:none;stroke-opacity:1.0000000"/>
      <path d="M 114.45910,175.50710 C 114.45910,175.50710 115.61310,180.01840 121.38330,175.82190 C 127.15340,171.62530 127.25830,177.39560 127.46820,178.02500 C 127.67800,178.65440 128.62220,183.16570 130.82530,179.38890" id="path707" style="fill:none;fill-opacity:1.0000000;fill-rule:evenodd;stroke:#000000;stroke-width:0.62500000;stroke-linecap:butt;stroke-linejoin:miter;stroke-dasharray:none;stroke-opacity:1.0000000"/>
      <path d="M 135.44150,173.19910 C 135.44150,173.19910 134.49730,182.53610 142.78530,175.71690 C 151.07340,168.89770 152.43720,175.61210 152.64700,177.71030" id="path708" style="fill:none;fill-opacity:1.0000000;fill-rule:evenodd;stroke:#000000;stroke-width:0.62500000;stroke-linecap:butt;stroke-linejoin:miter;stroke-dasharray:none;stroke-opacity:1.0000000"/>
      <path d="M 125.47480,28.840100 C 125.47480,28.840100 127.78290,29.154740 129.04180,28.420410 C 130.30080,27.686080 131.76960,27.371370 132.81870,28.840100 C 133.86780,30.308840 134.60220,30.203930 134.60220,30.203930 C 134.60220,30.203930 133.02850,34.085620 134.60220,34.505310 C 136.17590,34.925000 136.91020,34.924930 137.01520,35.449520 C 137.12010,35.974120 135.65130,37.128070 136.07090,37.652660 C 136.49060,38.177260 137.22500,38.806760 137.32990,39.226380 C 137.43480,39.646000 136.38570,41.429440 136.70040,41.849140 C 137.01520,42.268830 137.95940,43.947450 138.58880,43.947450 C 139.21830,43.947450 138.79870,46.570280 140.68710,45.940780 C 142.57550,45.311280 142.47060,43.632660 142.47060,43.632660 C 142.47060,43.632660 144.46390,43.317950 144.98850,41.534420 C 145.51300,39.750900 146.77200,39.331280 146.77200,39.331280 C 146.77200,39.331280 149.28990,37.967450 145.93270,35.869220 C 145.93270,21.181490 136.28080,22.755200 136.28080,22.755200 C 136.28080,22.755200 135.12670,20.132290 133.23830,20.447080 C 131.34990,20.761870 131.24500,22.965090 129.88110,22.755200 C 128.51730,22.545320 128.20260,21.601180 128.09760,21.706090 C 127.99270,21.810990 126.83870,23.909150 126.83870,24.433750 C 126.83870,24.958340 123.16680,23.699340 123.48150,26.427080 C 123.79620,29.154820 125.57970,29.049910 125.47480,28.840100 z " id="path709" style="fill:#9c5100;fill-opacity:1.0000000;fill-rule:evenodd;stroke:#000000;stroke-width:0.62500000;stroke-linecap:butt;stroke-linejoin:miter;stroke-dasharray:none;stroke-opacity:1.0000000"/>
      <path d="M 135.54640,25.273060 C 135.54640,25.273060 134.81200,29.889140 139.74290,29.469530 C 139.11340,31.987460 141.00180,32.826770 141.00180,32.826770" id="path710" style="fill:none;fill-opacity:1.0000000;fill-rule:evenodd;stroke:#000000;stroke-width:0.62500000;stroke-linecap:butt;stroke-linejoin:miter;stroke-dasharray:none;stroke-opacity:1.0000000"/>
      <path d="M 144.67370,35.659300 C 144.77870,35.659300 146.87690,37.023130 144.56880,38.701750" id="path711" style="fill:none;fill-opacity:1.0000000;fill-rule:evenodd;stroke:#000000;stroke-width:0.62500000;stroke-linecap:butt;stroke-linejoin:miter;stroke-dasharray:none;stroke-opacity:1.0000000"/>
      <path d="M 137.53980,39.331210 C 137.53980,39.331210 138.58880,40.590210 139.74290,40.275500 C 140.89690,39.960780 142.78530,41.429520 142.78530,41.429520 C 142.78530,41.429520 144.35900,41.954040 144.56880,41.639330" id="path712" style="fill:none;fill-opacity:1.0000000;fill-rule:evenodd;stroke:#000000;stroke-width:0.62500000;stroke-linecap:butt;stroke-linejoin:miter;stroke-dasharray:none;stroke-opacity:1.0000000"/>
      <path d="M 131.14010,43.317920 C 131.14010,43.317920 134.70710,44.681820 137.01520,39.016540" id="path713" style="fill:none;fill-opacity:1.0000000;fill-rule:evenodd;stroke:#000000;stroke-width:0.62500000;stroke-linecap:butt;stroke-linejoin:miter;stroke-dasharray:none;stroke-opacity:1.0000000"/>
      <path d="M 124.53060,37.337920 L 126.62890,37.442830" id="path714" style="fill:none;fill-opacity:1.0000000;fill-rule:evenodd;stroke:#000000;stroke-width:0.62500000;stroke-linecap:butt;stroke-linejoin:miter;stroke-dasharray:none;stroke-opacity:1.0000000"/>
      <path d="M 124.84540,39.436160 L 126.73380,39.436160 L 125.05520,40.170560" id="path715" style="fill:none;fill-opacity:1.0000000;fill-rule:evenodd;stroke:#000000;stroke-width:0.62500000;stroke-linecap:butt;stroke-linejoin:round;stroke-dasharray:none;stroke-opacity:1.0000000"/>
      <path d="M 127.46820,33.561070 C 127.78290,33.561070 128.93690,33.141370 129.14680,33.456160 C 129.35660,33.770950 127.88780,33.980760 127.46820,33.561070 z " id="path716" style="fill:none;fill-opacity:1.0000000;fill-rule:evenodd;stroke:#000000;stroke-width:1.1250000;stroke-linecap:butt;stroke-linejoin:round;stroke-dasharray:none;stroke-opacity:1.0000000"/>
      <path d="M 150.12920,58.486710 C 150.23410,58.486710 153.59130,68.873060 154.01090,71.495820 C 154.43060,74.118580 155.79440,84.609760 155.26990,86.078570 C 154.74530,87.547380 149.39480,94.576420 148.76530,96.359940 C 148.13580,98.143460 144.35900,104.96280 144.35900,104.96280 C 144.35900,104.96280 143.41480,111.67720 142.99510,111.99190 C 142.57550,112.30670 144.07820,113.95470 143.93940,114.50980 C 143.73120,115.13430 140.89690,118.07680 139.63800,117.76210 C 138.37900,117.44730 136.38570,115.97850 136.28080,114.61470 C 136.17590,113.25090 136.38570,108.73960 137.32990,107.58560 C 138.27410,106.43160 143.20500,94.786300 143.51970,94.051900 C 143.83440,93.317490 148.03090,84.190220 148.13580,82.616500 C 148.24080,81.042790 146.83040,77.403790 145.34670,76.068500 C 142.04470,66.350330 143.34210,60.489730 150.12920,58.486710 z " id="path673" style="fill:#ffc6b5;fill-opacity:1.0000000;fill-rule:evenodd;stroke:#000000;stroke-width:0.62500000;stroke-linecap:butt;stroke-linejoin:miter;stroke-dasharray:none;stroke-opacity:1.0000000"/>
      <path d="M 101.25440,103.50060 L 101.41860,108.09830" id="path726" style="fill:none;fill-opacity:1.0000000;fill-rule:evenodd;stroke:#000000;stroke-width:0.62500000;stroke-linecap:butt;stroke-linejoin:miter;stroke-dasharray:none;stroke-opacity:1.0000000"/>
      <path d="M 96.942180,103.15970 C 96.942180,103.15970 99.889900,108.08950 99.643590,110.71670" id="path727" style="fill:none;fill-opacity:1.0000000;fill-rule:evenodd;stroke:#000000;stroke-width:0.62500000;stroke-linecap:butt;stroke-linejoin:miter;stroke-dasharray:none;stroke-opacity:1.0000000"/>
      <path d="M 136.45110,113.46040 C 136.45110,113.46040 138.65510,113.22880 138.58570,116.90850 C 139.99310,112.33740 142.85490,112.22880 142.85490,112.22880" id="path728" style="fill:none;fill-opacity:1.0000000;fill-rule:evenodd;stroke:#000000;stroke-width:0.62500000;stroke-linecap:butt;stroke-linejoin:round;stroke-dasharray:none;stroke-opacity:1.0000000"/>
    </g>
    <path d="M 128.92310,218.51610 C 173.23080,217.28530 201.84610,185.28530 201.53840,184.97760 C 201.23080,184.66990 207.38460,176.05450 212.30770,177.28530 C 217.23080,178.51610 224.30770,192.97760 232.92310,196.05450 C 237.23070,202.82370 231.69230,208.97760 229.84610,210.20840 C 228.00000,211.43920 219.69230,214.82380 218.46150,209.90070 C 217.23080,204.97760 214.76920,205.90070 214.76920,205.90070 C 214.76920,205.90070 175.38460,244.36220 129.84610,242.82380 C 82.769220,243.13150 44.000000,205.90070 44.000000,205.90070 L 40.615380,209.59300 C 40.615380,209.59300 36.923070,213.59300 35.076920,213.28530 C 33.230770,212.97760 25.230770,207.74690 24.615380,202.51610 C 24.000000,197.28530 29.538460,193.90070 29.538460,193.90070 C 29.538460,193.90070 43.076930,183.43910 44.615380,177.90070 C 47.692300,174.82380 53.538460,180.05450 53.538460,180.05450 C 53.538460,180.05450 89.230770,220.97760 128.92310,218.51610 z " id="path780" style="fill:#f7c600;fill-opacity:1.0000000;fill-rule:evenodd;stroke:#000000;stroke-width:1.0000000pt;stroke-linecap:butt;stroke-linejoin:miter;stroke-opacity:1.0000000"/>
    <path d="M 28.618690,194.71670 C 28.618690,194.71670 32.279930,193.74030 33.622390,195.26590 C 34.964840,196.79140 44.178960,205.82250 44.178960,205.82250" id="path782" style="fill:none;fill-opacity:1.0000000;fill-rule:evenodd;stroke:#000000;stroke-width:1.0000000pt;stroke-linecap:butt;stroke-linejoin:miter;stroke-opacity:1.0000000"/>
    <path d="M 36.978520,198.98820 L 33.317280,201.73410 C 33.317280,201.73410 42.531410,203.56450 40.456710,209.60570" id="path783" style="fill:none;fill-opacity:1.0000000;fill-rule:evenodd;stroke:#000000;stroke-width:1.0000000pt;stroke-linecap:butt;stroke-linejoin:miter;stroke-opacity:1.0000000"/>
    <path d="M 229.62080,194.41160 C 229.62080,194.41160 227.79010,193.43520 224.92220,195.57100 C 222.05420,197.70670 214.79270,205.82250 214.79270,205.82250" id="path784" style="fill:none;fill-opacity:1.0000000;fill-rule:evenodd;stroke:#000000;stroke-width:1.0000000pt;stroke-linecap:butt;stroke-linejoin:miter;stroke-opacity:1.0000000"/>
    <path d="M 221.38300,198.74410 L 225.34930,201.79510 C 225.34930,201.79510 217.05050,202.34430 218.88110,210.21600" id="path785" style="fill:none;fill-opacity:1.0000000;fill-rule:evenodd;stroke:#000000;stroke-width:1.0000000pt;stroke-linecap:butt;stroke-linejoin:miter;stroke-opacity:1.0000000"/>
    <text id="text786" style="font-size:22.000000px;font-style:normal;font-weight:bold;line-height:100.00000%;writing-mode:lr-tb;text-anchor:start;fill:#000000;fill-opacity:1.0000000;stroke:none;stroke-width:1.0000000pt;stroke-linecap:butt;stroke-linejoin:miter;stroke-opacity:1.0000000;font-family:Times New Roman" transform="matrix(0.756654,0.653816,-0.653816,0.756654,0.000000,0.000000)" x="177.26051" y="120.60745">
      <tspan id="tspan815" x="177.26051" y="120.60745">V</tspan>
    </text>
    <text id="text789" style="font-size:22.000000px;font-style:normal;font-weight:bold;line-height:100.00000%;writing-mode:lr-tb;text-anchor:start;fill:#000000;fill-opacity:1.0000000;stroke:none;stroke-width:1.0000000pt;stroke-linecap:butt;stroke-linejoin:miter;stroke-opacity:1.0000000;font-family:Times New Roman" transform="matrix(0.873377,0.487045,-0.487045,0.873377,0.000000,0.000000)" x="172.522" y="157.60931">
      <tspan id="tspan819" x="172.522" y="157.60931">I</tspan>
    </text>
    <text id="text792" style="font-size:22.000000px;font-style:normal;font-weight:bold;line-height:100.00000%;writing-mode:lr-tb;text-anchor:start;fill:#000000;fill-opacity:1.0000000;stroke:none;stroke-width:1.0000000pt;stroke-linecap:butt;stroke-linejoin:miter;stroke-opacity:1.0000000;font-family:Times New Roman" transform="matrix(0.892446,0.451154,-0.451154,0.892446,0.000000,0.000000)" x="181.04662" y="163.47052">
      <tspan id="tspan793">G</tspan>
    </text>
    <text id="text795" style="font-size:22.000000px;font-style:normal;font-weight:bold;line-height:100.00000%;writing-mode:lr-tb;text-anchor:start;fill:#000000;fill-opacity:1.0000000;stroke:none;stroke-width:1.0000000pt;stroke-linecap:butt;stroke-linejoin:miter;stroke-opacity:1.0000000;font-family:Times New Roman" transform="matrix(0.999028,-4.408645e-2,4.408645e-2,0.999028,0.000000,0.000000)" x="118.02248" y="243.34079">
      <tspan id="tspan796">L</tspan>
    </text>
    <text id="text798" style="font-size:22.000000px;font-style:normal;font-weight:bold;line-height:100.00000%;writing-mode:lr-tb;text-anchor:start;fill:#000000;fill-opacity:1.0000000;stroke:none;stroke-width:1.0000000pt;stroke-linecap:butt;stroke-linejoin:miter;stroke-opacity:1.0000000;font-family:Times New Roman" transform="matrix(0.964353,-0.264621,0.264621,0.964353,0.000000,0.000000)" x="83.985771" y="267.10434">
      <tspan id="tspan799">A</tspan>
    </text>
    <text id="text801" style="font-size:22.000000px;font-style:normal;font-weight:bold;line-height:100.00000%;writing-mode:lr-tb;text-anchor:start;fill:#000000;fill-opacity:1.0000000;stroke:none;stroke-width:1.0000000pt;stroke-linecap:butt;stroke-linejoin:miter;stroke-opacity:1.0000000;font-family:Times New Roman" transform="matrix(0.873361,-0.487073,0.487073,0.873361,0.000000,0.000000)" x="41.664467" y="285.00021">
      <tspan id="tspan802">T</tspan>
    </text>
    <text id="text804" style="font-size:22.000000px;font-style:normal;font-weight:bold;line-height:100.00000%;writing-mode:lr-tb;text-anchor:start;fill:#000000;fill-opacity:1.0000000;stroke:none;stroke-width:1.0000000pt;stroke-linecap:butt;stroke-linejoin:miter;stroke-opacity:1.0000000;font-family:Times New Roman" transform="matrix(0.749285,-0.662248,0.662248,0.749285,0.000000,0.000000)" x="2.9277532" y="291.45557">
      <tspan id="tspan805">E</tspan>
    </text>
    <text id="text821" style="font-size:22.000000px;font-style:normal;font-weight:bold;line-height:100.00000%;writing-mode:lr-tb;text-anchor:start;fill:#000000;fill-opacity:1.0000000;stroke:none;stroke-width:1.0000000pt;stroke-linecap:butt;stroke-linejoin:miter;stroke-opacity:1.0000000;font-family:Times New Roman" transform="matrix(0.997332,7.300235e-2,-7.300235e-2,0.997332,0.000000,0.000000)" x="129.99249" y="227.76569">
      <tspan id="tspan822" x="129.99249" y="227.76569">I</tspan>
    </text>
  </g>
  <g id="g878" style="font-size:12.000000px" transform="matrix(8.267717,0.000000,0.000000,8.267722,0.000000,2.288818e-5)">
    <path d="M 0.00000000,0.00000000 L 0.00000000,3.3541000 L 53.291800,30.000000 L 60.000000,30.000000 L 60.000000,26.645900 L 6.7082000,0.00000000 L 0.00000000,0.00000000 z M 60.000000,0.00000000 L 60.000000,3.3540500 L 6.7082000,30.000000 L 0.00000000,30.000000 L 0.00000000,26.645800 L 53.291800,0.00000000 L 60.000000,0.00000000 z " id="path879" style="font-size:12.000000px;fill:#ffffff;stroke-width:1.0000000pt"/>
    <path d="M 25.000000,0.00000000 L 25.000000,30.000000 L 35.000000,30.000000 L 35.000000,0.00000000 L 25.000000,0.00000000 z M 0.00000000,10.000000 L 0.00000000,20.000000 L 60.000000,20.000000 L 60.000000,10.000000 L 0.00000000,10.000000 z " id="path880" style="font-size:12.000000px;fill:#ffffff;stroke-width:1.0000000pt"/>
    <path d="M 0.00000000,12.000000 L 0.00000000,18.000000 L 60.000000,18.000000 L 60.000000,12.000000 L 0.00000000,12.000000 z M 27.000000,0.00000000 L 27.000000,30.000000 L 33.000000,30.000000 L 33.000000,0.00000000 L 27.000000,0.00000000 z " id="path881" style="font-size:12.000000px;fill:#cc0000;stroke-width:1.0000000pt"/>
    <path d="M 0.00000000,30.000000 L 20.000000,20.000000 L 24.472100,20.000000 L 4.4721400,30.000000 L 0.00000000,30.000000 z M 0.00000000,0.00000000 L 20.000000,10.000000 L 15.527900,10.000000 L 0.00000000,2.2360700 L 0.00000000,0.00000000 z M 35.527900,10.000000 L 55.527900,0.00000000 L 60.000000,0.00000000 L 40.000000,10.000000 L 35.527900,10.000000 z M 60.000000,30.000000 L 40.000000,20.000000 L 44.472100,20.000000 L 60.000000,27.763900 L 60.000000,30.000000 z " id="path882" style="font-size:12.000000px;fill:#cc0000;stroke-width:1.0000000pt"/>
  </g>
</svg>
