<?xml version="1.0" encoding="UTF-8" standalone="no"?>
<!DOCTYPE svg PUBLIC "-//W3C//DTD SVG 20010904//EN"
"http://www.w3.org/TR/2001/REC-SVG-20010904/DTD/svg10.dtd">
<!-- Created with Sodipodi ("http://www.sodipodi.com/") --><svg height="140mm" id="svg559" sodipodi:docbase="/home/tobias/Desktop/Flags" sodipodi:docname="/home/tobias/Desktop/Flags/VIRGIN_ISLANDS_US.svg" sodipodi:version="0.33" width="210mm" xmlns="http://www.w3.org/2000/svg" xmlns:sodipodi="http://sodipodi.sourceforge.net/DTD/sodipodi-0.dtd" xmlns:xlink="http://www.w3.org/1999/xlink">
  <metadata>
    <rdf:RDF xmlns:cc="http://web.resource.org/cc/" xmlns:dc="http://purl.org/dc/elements/1.1/" xmlns:rdf="http://www.w3.org/1999/02/22-rdf-syntax-ns#">
      <cc:Work rdf:about="">
        <dc:title>Clipart by Tobias Jakobs - United States - US Virgin Islands</dc:title>
        <dc:description></dc:description>
        <dc:subject>
          <rdf:Bag>
            <rdf:li></rdf:li>
            <rdf:li>america</rdf:li>
            <rdf:li>0xa0f5150</rdf:li>
            <rdf:li>flag</rdf:li>
            <rdf:li>unitedstates</rdf:li>
            <rdf:li>north_america</rdf:li>
            <rdf:li>sign</rdf:li>
          </rdf:Bag>
        </dc:subject>
        <dc:publisher>
          <cc:Agent rdf:about="http://www.openclipart.org">
            <dc:title>Tobias Jakobs</dc:title>
          </cc:Agent>
        </dc:publisher>
        <dc:creator>
          <cc:Agent>
            <dc:title>Tobias Jakobs</dc:title>
          </cc:Agent>
        </dc:creator>
        <dc:rights>
          <cc:Agent>
            <dc:title>Tobias Jakobs</dc:title>
          </cc:Agent>
        </dc:rights>
        <dc:date></dc:date>
        <dc:format>image/svg+xml</dc:format>
        <dc:type rdf:resource="http://purl.org/dc/dcmitype/StillImage"/>
        <cc:license rdf:resource="http://web.resource.org/cc/PublicDomain"/>
        <dc:language>en</dc:language>
      </cc:Work>
      <cc:License rdf:about="http://web.resource.org/cc/PublicDomain">
        <cc:permits rdf:resource="http://web.resource.org/cc/Reproduction"/>
        <cc:permits rdf:resource="http://web.resource.org/cc/Distribution"/>
        <cc:permits rdf:resource="http://web.resource.org/cc/DerivativeWorks"/>
      </cc:License>
    </rdf:RDF>
  </metadata>
  <defs id="defs561"/>
  <sodipodi:namedview id="base"/>
  <path d="M 437.9615 178.5944 C 437.9615 175.1741 436.8509 168.5331 433.2360 166.2338 C 428.5951 163.8203 428.5951 162.3352 428.2237 159.1793 C 427.8526 156.0233 436.0205 150.0828 436.0205 150.0828 C 436.0205 150.0828 428.5951 146.7411 425.8106 147.1123 C 423.0261 147.4839 417.6426 148.0406 416.9000 148.7832 C 416.1576 149.5259 412.0735 135.4170 414.6725 133.1894 C 417.2713 130.9615 422.6548 138.3874 422.6548 138.3874 C 422.6548 138.3874 426.1819 130.2191 413.7443 114.6249 C 418.0141 84.17945 389.6117 77.12515 383.1145 77.31072 C 377.7310 76.56810 363.8085 81.58053 361.5809 88.26360 C 354.5267 90.67695 354.1554 96.80332 354.1554 96.80332 C 354.1554 96.80332 339.6758 99.40197 337.8195 112.0258 C 346.3588 104.9715 351.9279 112.7686 351.9279 112.7686 C 351.9279 112.7686 359.3532 117.9663 363.2515 118.1522 C 367.1497 118.3379 359.5389 131.1471 357.3112 133.3750 C 355.0836 135.6026 345.8019 144.1423 346.1731 144.6992 C 346.5444 145.2560 353.4128 147.2982 353.0416 150.4540 C 352.6704 153.6102 331.8792 163.2634 332.9930 165.6767 C 338.3765 164.0060 342.5743 165.2924 342.5743 165.2924 C 343.3247 170.5635 341.2249 176.6328 337.6428 178.5974 L 437.9615 178.5944 z " id="path592" sodipodi:nodetypes="cccccccccccccccccccscc" style="font-size:12.000;fill:#f7f308;fill-rule:evenodd;stroke:#000000;stroke-width:1.483554;"/>
  <path d="M 432.4588 317.7055 C 432.4588 317.7055 433.4045 328.8654 428.6758 333.5942 C 449.6710 334.9183 461.0196 356.2926 461.2087 361.3998 C 461.3979 366.5067 454.7778 370.4789 454.7778 370.4789 C 454.7778 370.4789 457.0475 379.5582 448.3469 381.0715 C 448.5358 389.7725 442.4835 389.7725 442.4835 389.7725 C 442.4835 389.7725 440.2137 396.9602 433.2154 396.5819 C 431.1347 406.9853 420.3536 406.7962 420.3536 406.7962 C 420.3536 406.7962 414.1118 421.9285 404.8436 416.0647 C 398.9801 428.9270 383.4703 428.3596 377.6068 416.0647 C 374.3915 415.8756 367.2040 420.2259 362.8537 407.3636 C 353.2072 409.0660 349.4245 396.7711 349.4245 396.7711 C 349.4245 396.7711 342.9935 396.2038 340.5345 389.7725 C 332.9689 388.2592 334.2929 380.6932 334.2929 380.6932 C 334.2929 380.6932 326.7271 378.6126 326.9163 370.2898 C 320.8636 366.6959 321.4310 360.2648 321.4310 360.2648 C 321.4310 360.2648 326.1597 337.9447 353.5856 333.2159 C 349.2352 326.9740 349.8028 317.8947 349.8028 317.8947 L 432.4588 317.7055 z " id="path661" sodipodi:nodetypes="ccccccccccccccccccc" style="font-size:12.000;fill:#f7f308;fill-rule:evenodd;stroke:#000000;stroke-width:1.483554;stroke-linecap:round;stroke-linejoin:round;"/>
  <g id="g638" style="fill:#f7f308;fill-opacity:1.0000;" transform="matrix(-1.483523,0,0,1.483587,758.8501,27.39851)">
    <path d="M 308.5777 109.3757 C 308.5777 109.3757 318.6549 120.2164 323.6935 112.1241 C 328.7322 104.0317 316.6700 101.7414 316.5173 101.5887 C 316.3646 101.4361 309.4938 99.29855 308.8830 86.62560 C 308.2723 73.95264 323.9989 65.70763 328.4268 64.63882 C 332.8547 63.57002 345.8330 63.57002 345.8330 63.57002 C 345.8330 63.57002 393.3182 52.11868 398.2041 48.60687 C 403.0901 45.09506 447.9797 36.85005 447.9797 36.85005 C 447.9797 36.85005 455.1559 35.93391 454.5451 42.34673 C 453.9344 48.75954 447.9797 49.52293 447.9797 49.52293 C 447.9797 49.52293 453.0183 53.49274 452.4075 57.00455 C 451.7968 60.51636 447.9797 66.16562 440.0400 65.24956 C 440.9560 77.76985 423.5500 79.75471 423.5500 79.75471 C 423.5500 79.75471 421.7177 97.77168 405.6857 96.85555 C 401.8685 109.2230 387.5161 109.6811 387.5161 109.6811 C 387.5161 109.6811 380.7980 118.0788 371.0261 118.6895 C 365.3767 132.7367 353.1619 128.7668 353.1619 128.7668 C 353.1619 128.7668 354.0780 137.6226 348.4286 137.6226 C 351.3296 147.6999 340.4890 149.0739 336.3665 147.0891 C 335.2977 149.2267 331.6331 155.7922 323.2355 151.6697 C 318.1969 159.1512 309.9518 155.6395 309.9518 155.6395 C 309.9518 155.6395 308.1196 161.5943 300.9434 159.3039 C 293.7672 157.0136 308.7304 109.6811 308.5777 109.3757 z " id="path639" sodipodi:nodetypes="ccccccccccccccccccccccc" style="fill:#f7f308;fill-rule:evenodd;stroke:black;stroke-opacity:1;stroke-width:1pt;stroke-linejoin:round;stroke-linecap:butt;fill-opacity:1.0000;"/>
    <path d="M 339.7255 72.42581 C 339.7255 72.42581 328.5795 73.64735 329.9537 90.90077 " id="path640" style="fill:#f7f308;fill-rule:evenodd;stroke:black;stroke-opacity:1;stroke-width:1pt;stroke-linejoin:round;stroke-linecap:round;fill-opacity:1.0000;"/>
    <path d="M 382.1721 54.56158 C 382.1721 54.56158 403.5482 69.21933 363.5445 73.79994 " id="path641" style="fill:#f7f308;fill-rule:evenodd;stroke:black;stroke-opacity:1;stroke-width:1pt;stroke-linejoin:round;stroke-linecap:round;fill-opacity:1.0000;"/>
    <path d="M 376.0647 71.81511 C 376.2174 72.12044 386.1420 83.87718 367.8197 87.38899 C 376.5227 95.63408 360.1854 98.38234 360.1854 98.38234 C 360.1854 98.38234 363.5445 107.0855 353.7726 109.3757 C 356.9790 118.3842 346.4437 117.9261 346.4437 117.9261 C 346.4437 117.9261 346.1384 128.9194 333.6181 128.7668 C 333.7708 136.2484 325.0677 136.7064 325.0677 136.7064 C 325.0677 136.7064 322.4721 144.7987 314.0743 142.3558 C 313.1582 148.0051 307.3562 146.7837 307.3562 146.7837 " id="path642" sodipodi:nodetypes="ccccccccc" style="fill:#f7f308;fill-rule:evenodd;stroke:black;stroke-opacity:1;stroke-width:1pt;stroke-linejoin:round;stroke-linecap:round;fill-opacity:1.0000;"/>
    <path d="M 309.7992 155.7921 C 309.7992 155.7921 309.3411 148.0052 311.1733 146.4783 " id="path643" style="fill:#f7f308;fill-rule:evenodd;stroke:black;stroke-opacity:1;stroke-width:1pt;stroke-linejoin:round;stroke-linecap:round;fill-opacity:1.0000;"/>
    <path d="M 323.6935 151.5169 C 323.5408 151.3643 320.0291 144.3407 321.2506 143.1192 " id="path644" style="fill:#f7f308;fill-rule:evenodd;stroke:black;stroke-opacity:1;stroke-width:1pt;stroke-linejoin:round;stroke-linecap:round;fill-opacity:1.0000;"/>
    <path d="M 336.5191 147.0891 L 327.0526 137.7752 " id="path645" style="fill:#f7f308;fill-rule:evenodd;stroke:black;stroke-opacity:1;stroke-width:1pt;stroke-linejoin:round;stroke-linecap:round;fill-opacity:1.0000;"/>
    <path d="M 348.4286 137.9279 C 348.2759 137.7752 334.0762 128.9195 334.0762 128.9195 " id="path646" style="fill:#f7f308;fill-rule:evenodd;stroke:black;stroke-opacity:1;stroke-width:1pt;stroke-linejoin:round;stroke-linecap:round;fill-opacity:1.0000;"/>
    <path d="M 353.4673 128.9195 C 353.3146 128.7668 345.3749 125.4078 345.0695 122.5067 " id="path647" style="fill:#f7f308;fill-rule:evenodd;stroke:black;stroke-opacity:1;stroke-width:1pt;stroke-linejoin:round;stroke-linecap:round;fill-opacity:1.0000;"/>
    <path d="M 371.0261 118.6895 C 371.0261 118.6895 351.7877 122.8120 348.4286 118.3841 " id="path648" style="fill:#f7f308;fill-rule:evenodd;stroke:black;stroke-opacity:1;stroke-width:1pt;stroke-linejoin:round;stroke-linecap:round;fill-opacity:1.0000;"/>
    <path d="M 387.0581 109.5284 C 386.2947 109.5284 358.2005 112.5821 355.6049 109.0703 " id="path649" style="fill:#f7f308;fill-rule:evenodd;stroke:black;stroke-opacity:1;stroke-width:1pt;stroke-linejoin:round;stroke-linecap:round;fill-opacity:1.0000;"/>
    <path d="M 405.6857 96.85551 C 405.2277 96.70277 372.4002 102.9629 363.0864 98.22964 " id="path650" style="fill:#f7f308;fill-rule:evenodd;stroke:black;stroke-opacity:1;stroke-width:1pt;stroke-linejoin:round;stroke-linecap:round;fill-opacity:1.0000;"/>
    <path d="M 421.4124 79.90735 C 420.6489 79.90735 377.7442 90.29004 371.3314 87.08363 " id="path651" style="fill:#f7f308;fill-rule:evenodd;stroke:black;stroke-opacity:1;stroke-width:1pt;stroke-linejoin:round;stroke-linecap:round;fill-opacity:1.0000;"/>
    <path d="M 437.7497 64.94420 C 437.4443 64.94420 386.6000 76.85368 380.1872 71.96774 " id="path652" style="fill:#f7f308;fill-rule:evenodd;stroke:black;stroke-opacity:1;stroke-width:1pt;stroke-linejoin:round;stroke-linecap:round;fill-opacity:1.0000;"/>
    <path d="M 444.3152 50.43904 C 444.1625 50.43904 395.6085 66.31833 391.4860 62.34853 " id="path653" style="fill:#f7f308;fill-rule:evenodd;stroke:black;stroke-opacity:1;stroke-width:1pt;stroke-linejoin:round;stroke-linecap:round;fill-opacity:1.0000;"/>
  </g>
  <g id="g622" style="fill:#f7f308;fill-opacity:1.0000;" transform="matrix(1.483523,0,0,1.483587,24.09617,27.91796)">
    <path d="M 308.5777 109.3757 C 308.5777 109.3757 318.6549 120.2164 323.6935 112.1241 C 328.7322 104.0317 316.6700 101.7414 316.5173 101.5887 C 316.3646 101.4361 309.4938 99.29855 308.8830 86.62560 C 308.2723 73.95264 323.9989 65.70763 328.4268 64.63882 C 332.8547 63.57002 345.8330 63.57002 345.8330 63.57002 C 345.8330 63.57002 393.3182 52.11868 398.2041 48.60687 C 403.0901 45.09506 447.9797 36.85005 447.9797 36.85005 C 447.9797 36.85005 455.1559 35.93391 454.5451 42.34673 C 453.9344 48.75954 447.9797 49.52293 447.9797 49.52293 C 447.9797 49.52293 453.0183 53.49274 452.4075 57.00455 C 451.7968 60.51636 447.9797 66.16562 440.0400 65.24956 C 440.9560 77.76985 423.5500 79.75471 423.5500 79.75471 C 423.5500 79.75471 421.7177 97.77168 405.6857 96.85555 C 401.8685 109.2230 387.5161 109.6811 387.5161 109.6811 C 387.5161 109.6811 380.7980 118.0788 371.0261 118.6895 C 365.3767 132.7367 353.1619 128.7668 353.1619 128.7668 C 353.1619 128.7668 354.0780 137.6226 348.4286 137.6226 C 351.3296 147.6999 340.4890 149.0739 336.3665 147.0891 C 335.2977 149.2267 331.6331 155.7922 323.2355 151.6697 C 318.1969 159.1512 309.9518 155.6395 309.9518 155.6395 C 309.9518 155.6395 308.1196 161.5943 300.9434 159.3039 C 293.7672 157.0136 308.7304 109.6811 308.5777 109.3757 z " id="path607" sodipodi:nodetypes="ccccccccccccccccccccccc" style="fill:#f7f308;fill-rule:evenodd;stroke:black;stroke-opacity:1;stroke-width:1pt;stroke-linejoin:round;stroke-linecap:butt;fill-opacity:1.0000;"/>
    <path d="M 339.7255 72.42581 C 339.7255 72.42581 328.5795 73.64735 329.9537 90.90077 " id="path608" style="fill:#f7f308;fill-rule:evenodd;stroke:black;stroke-opacity:1;stroke-width:1pt;stroke-linejoin:round;stroke-linecap:round;fill-opacity:1.0000;"/>
    <path d="M 382.1721 54.56158 C 382.1721 54.56158 403.5482 69.21933 363.5445 73.79994 " id="path609" style="fill:#f7f308;fill-rule:evenodd;stroke:black;stroke-opacity:1;stroke-width:1pt;stroke-linejoin:round;stroke-linecap:round;fill-opacity:1.0000;"/>
    <path d="M 376.0647 71.81511 C 376.2174 72.12044 386.1420 83.87718 367.8197 87.38899 C 376.5227 95.63408 360.1854 98.38234 360.1854 98.38234 C 360.1854 98.38234 363.5445 107.0855 353.7726 109.3757 C 356.9790 118.3842 346.4437 117.9261 346.4437 117.9261 C 346.4437 117.9261 346.1384 128.9194 333.6181 128.7668 C 333.7708 136.2484 325.0677 136.7064 325.0677 136.7064 C 325.0677 136.7064 322.4721 144.7987 314.0743 142.3558 C 313.1582 148.0051 307.3562 146.7837 307.3562 146.7837 " id="path610" sodipodi:nodetypes="ccccccccc" style="fill:#f7f308;fill-rule:evenodd;stroke:black;stroke-opacity:1;stroke-width:1pt;stroke-linejoin:round;stroke-linecap:round;fill-opacity:1.0000;"/>
    <path d="M 309.7992 155.7921 C 309.7992 155.7921 309.3411 148.0052 311.1733 146.4783 " id="path611" style="fill:#f7f308;fill-rule:evenodd;stroke:black;stroke-opacity:1;stroke-width:1pt;stroke-linejoin:round;stroke-linecap:round;fill-opacity:1.0000;"/>
    <path d="M 323.6935 151.5169 C 323.5408 151.3643 320.0291 144.3407 321.2506 143.1192 " id="path612" style="fill:#f7f308;fill-rule:evenodd;stroke:black;stroke-opacity:1;stroke-width:1pt;stroke-linejoin:round;stroke-linecap:round;fill-opacity:1.0000;"/>
    <path d="M 336.5191 147.0891 L 327.0526 137.7752 " id="path613" style="fill:#f7f308;fill-rule:evenodd;stroke:black;stroke-opacity:1;stroke-width:1pt;stroke-linejoin:round;stroke-linecap:round;fill-opacity:1.0000;"/>
    <path d="M 348.4286 137.9279 C 348.2759 137.7752 334.0762 128.9195 334.0762 128.9195 " id="path614" style="fill:#f7f308;fill-rule:evenodd;stroke:black;stroke-opacity:1;stroke-width:1pt;stroke-linejoin:round;stroke-linecap:round;fill-opacity:1.0000;"/>
    <path d="M 353.4673 128.9195 C 353.3146 128.7668 345.3749 125.4078 345.0695 122.5067 " id="path615" style="fill:#f7f308;fill-rule:evenodd;stroke:black;stroke-opacity:1;stroke-width:1pt;stroke-linejoin:round;stroke-linecap:round;fill-opacity:1.0000;"/>
    <path d="M 371.0261 118.6895 C 371.0261 118.6895 351.7877 122.8120 348.4286 118.3841 " id="path616" style="fill:#f7f308;fill-rule:evenodd;stroke:black;stroke-opacity:1;stroke-width:1pt;stroke-linejoin:round;stroke-linecap:round;fill-opacity:1.0000;"/>
    <path d="M 387.0581 109.5284 C 386.2947 109.5284 358.2005 112.5821 355.6049 109.0703 " id="path617" style="fill:#f7f308;fill-rule:evenodd;stroke:black;stroke-opacity:1;stroke-width:1pt;stroke-linejoin:round;stroke-linecap:round;fill-opacity:1.0000;"/>
    <path d="M 405.6857 96.85551 C 405.2277 96.70277 372.4002 102.9629 363.0864 98.22964 " id="path618" style="fill:#f7f308;fill-rule:evenodd;stroke:black;stroke-opacity:1;stroke-width:1pt;stroke-linejoin:round;stroke-linecap:round;fill-opacity:1.0000;"/>
    <path d="M 421.4124 79.90735 C 420.6489 79.90735 377.7442 90.29004 371.3314 87.08363 " id="path619" style="fill:#f7f308;fill-rule:evenodd;stroke:black;stroke-opacity:1;stroke-width:1pt;stroke-linejoin:round;stroke-linecap:round;fill-opacity:1.0000;"/>
    <path d="M 437.7497 64.94420 C 437.4443 64.94420 386.6000 76.85368 380.1872 71.96774 " id="path620" style="fill:#f7f308;fill-rule:evenodd;stroke:black;stroke-opacity:1;stroke-width:1pt;stroke-linejoin:round;stroke-linecap:round;fill-opacity:1.0000;"/>
    <path d="M 444.3152 50.43904 C 444.1625 50.43904 395.6085 66.31833 391.4860 62.34853 " id="path621" style="fill:#f7f308;fill-rule:evenodd;stroke:black;stroke-opacity:1;stroke-width:1pt;stroke-linejoin:round;stroke-linecap:round;fill-opacity:1.0000;"/>
  </g>
  <path d="M 568.4330 217.6413 C 568.4330 217.6413 564.0039 280.9377 563.7894 280.7933 C 563.5749 280.6488 554.5515 269.7357 554.5515 269.7357 L 526.7051 357.0384 L 533.2143 376.0829 L 517.0010 429.2464 L 503.6302 412.2856 L 482.0292 420.9711 L 499.3682 364.9789 L 515.3865 353.4684 L 544.2309 267.4618 L 528.2224 269.4659 L 568.4330 217.6413 z " id="path572" sodipodi:nodetypes="ccccccccccccc" style="font-size:12.000;fill:#8cc2ef;fill-rule:evenodd;stroke:#000000;stroke-width:1.483554;"/>
  <path d="M 629.9723 243.7482 C 629.9723 243.7482 596.2919 297.5218 596.1705 297.2933 C 596.0492 297.0651 593.2195 283.1901 593.2195 283.1901 L 537.8750 334.5297 L 478.7773 391.5547 L 478.6138 379.8095 L 458.3930 377.3131 L 485.1400 356.8475 L 498.8366 354.5907 L 585.1813 276.3287 L 570.1118 270.5667 L 629.9723 243.7482 z " id="path571" sodipodi:nodetypes="cccccccccccc" style="font-size:12.000;fill:#8cc2ef;fill-rule:evenodd;stroke:#000000;stroke-width:1.483554;"/>
  <path d="M 478.8173 379.7165 C 479.1832 378.9536 509.5468 353.0102 509.5468 353.0102 " id="path574" style="font-size:12.000;fill:none;fill-rule:evenodd;stroke:#000000;stroke-width:1.515011;"/>
  <path d="M 611.9779 198.2589 C 611.9779 198.2589 595.5157 259.5371 595.3329 259.3542 C 595.1499 259.1715 588.3823 246.7330 588.3823 246.7330 L 521.6189 361.4241 L 524.3625 381.3625 L 500.4010 425.2634 L 490.5237 406.0567 L 467.6597 410.4469 L 493.2675 363.9851 L 511.1929 355.7534 L 578.6877 242.5256 L 562.5915 241.4282 L 611.9779 198.2589 z " id="path570" style="font-size:12.000;fill:#8cc2ef;fill-rule:evenodd;stroke:#000000;stroke-width:1.483554;"/>
  <path d="M 490.8897 405.3256 C 490.8897 404.9597 513.9366 364.7172 513.9366 364.7172 " id="path573" style="font-size:12.000;fill:none;fill-rule:evenodd;stroke:#000000;stroke-width:1.483554;"/>
  <path d="M 37.63169 186.7351 L 77.87254 186.9182 L 73.84847 196.6128 L 91.40804 266.1227 L 112.6260 196.7957 L 105.1265 186.7352 L 147.0137 186.7352 L 138.0508 196.4301 L 103.4804 295.7558 L 112.4430 308.7431 L 72.20221 308.7431 L 81.16491 295.7558 L 47.32607 196.7955 L 37.63169 186.7351 z " id="path563" sodipodi:nodetypes="cccccccccccccc" style="font-size:12.000;fill:#8cc2ef;fill-rule:evenodd;stroke:#000000;stroke-width:1.483554;"/>
  <path d="M 654.9625 189.1132 L 693.1912 189.1132 L 686.9722 197.7103 L 686.7894 298.8654 L 695.3863 308.3773 L 654.9625 308.3773 L 663.0106 298.1339 L 662.8279 197.8932 L 654.9625 189.1132 z " id="path566" sodipodi:nodetypes="ccccccccc" style="font-size:12.000;fill:#8cc2ef;fill-rule:evenodd;stroke:#000000;stroke-width:1.483554;"/>
  <path d="M 353.5862 97.64021 C 353.5862 97.64021 358.4886 103.7972 360.3128 104.3674 C 362.1369 104.9373 372.3978 109.9540 371.8279 113.3745 C 371.2577 116.7949 364.5311 118.5052 364.5311 118.5052 " id="path583" style="font-size:12.000;fill:none;fill-rule:evenodd;stroke:#000000;stroke-width:1.483554;"/>
  <path d="M 361.6809 88.51911 L 371.9417 98.32448 C 371.9417 98.32448 373.7659 106.7614 381.0626 106.0775 C 388.3593 105.3934 387.3332 102.3148 387.3332 102.3148 C 387.3332 102.3148 378.5544 96.15820 371.5997 97.64021 " id="path584" style="font-size:12.000;fill:none;fill-rule:evenodd;stroke:#000000;stroke-width:1.483554;"/>
  <path d="M 299.1163 397.5377 L 312.8209 386.1555 C 312.8209 386.1555 309.8013 379.8834 298.8840 380.1157 C 288.6638 372.9149 271.0105 355.9575 271.0105 355.9575 L 262.1838 332.0316 C 262.1838 332.0316 269.3845 329.9411 271.0105 324.1338 C 272.6364 318.3265 270.5459 311.1256 269.8490 310.4286 C 269.1522 309.7317 261.9515 311.5901 259.8611 314.6098 C 257.7704 317.6297 254.5185 329.2443 249.6407 325.2952 C 244.7628 321.3463 250.3374 316.9328 250.3374 316.9328 C 250.3374 316.9328 255.2154 310.8933 254.9830 307.6411 C 254.7508 304.3890 248.4793 294.6328 247.7823 294.4006 C 247.0855 294.1683 245.6919 307.1765 243.8336 308.5703 C 241.9754 309.9642 239.4203 315.7713 235.7037 312.5193 C 231.9873 309.2672 237.5620 304.3890 237.5620 304.3890 C 237.5620 304.3890 248.0147 298.8142 237.7941 280.4633 C 234.7746 288.3612 228.9678 293.4714 228.9678 293.4714 C 228.9678 293.4714 226.1802 298.3496 223.6252 294.1683 C 221.0702 289.9871 226.6447 286.0383 226.6447 286.0383 C 226.6447 286.0383 235.7037 280.6956 235.9361 272.7975 C 236.1682 264.8997 225.0188 255.8403 225.0188 255.8403 C 225.0188 255.8403 224.3221 270.4746 220.8379 272.3329 C 217.3537 274.1912 215.9598 277.2113 212.0112 273.9591 C 208.0623 270.7069 215.0308 263.5060 215.0308 263.5060 C 215.0308 263.5060 227.1095 251.4268 226.4125 244.4582 C 225.7157 237.4895 225.0188 236.3280 225.0188 236.3280 C 225.0188 236.3280 215.9598 241.9030 214.7986 244.6905 C 213.6372 247.4780 209.9206 257.4664 205.2749 254.4465 C 202.0231 250.7300 208.0623 243.5289 208.0623 243.5289 C 208.0623 243.5289 212.4756 238.6506 212.2434 236.5602 C 212.0112 234.4694 208.5268 228.1978 201.7907 222.1583 C 200.8617 220.3000 200.3972 212.8667 200.3972 212.8667 C 200.3972 212.8667 195.2870 218.9064 195.5194 222.1583 C 195.7515 225.4104 195.0546 231.9143 195.7515 239.1155 C 196.4485 246.3164 190.1768 236.7925 190.1768 236.7925 L 191.3382 213.5635 C 191.3382 213.5635 182.5115 202.8782 171.8265 198.9292 C 175.7755 204.7365 175.5431 210.3113 175.5431 210.3113 C 175.5431 210.3113 171.1298 219.8353 171.1298 222.3904 C 171.1298 224.9458 176.2399 236.0956 185.7636 243.5289 C 171.3620 227.9656 153.4764 233.0758 148.1340 230.0561 C 150.6891 233.0758 158.3545 244.4582 157.4253 247.4780 C 156.4962 250.4976 171.1298 256.7695 171.1298 256.7695 L 186.6927 257.0019 C 186.6927 257.0019 194.3579 262.3443 195.0546 265.8288 C 195.7515 269.3133 183.9052 259.3248 179.2596 259.5570 C 174.6140 259.7893 162.3031 257.9310 162.3031 257.9310 C 162.3031 257.9310 169.7361 264.8997 169.9684 267.9196 C 170.2006 270.9392 173.4526 277.9079 177.8660 279.7664 C 182.2793 281.6246 194.1255 282.3216 194.1255 282.3216 C 194.1255 282.3216 199.2357 279.3019 200.1648 282.5538 C 201.0940 285.8059 193.4287 288.3610 193.4287 288.3610 C 193.4287 288.3610 185.5311 288.3612 182.9761 286.2705 C 180.4210 284.1798 179.9564 280.6954 168.5747 279.3016 C 167.4133 288.8257 174.8462 298.5817 174.8462 298.5817 C 174.8462 298.5817 206.2040 296.0267 205.9719 302.7631 C 205.7396 309.4994 179.9564 303.4599 179.0273 301.3692 C 178.0982 299.2787 180.1888 314.6099 186.2280 317.8620 C 192.2673 321.1139 205.7396 319.4881 207.3656 318.7912 C 208.9916 318.0943 215.0308 317.3975 215.0308 320.8818 C 215.0308 324.3661 184.3697 327.1536 183.9052 326.2243 C 183.4406 325.2952 188.5508 338.0712 200.8617 337.3744 C 213.1727 336.6775 218.5151 332.9607 218.5151 332.9607 C 218.5151 332.9607 225.9480 331.5670 226.6447 334.5870 C 227.3416 337.6066 219.2120 339.0004 219.2120 339.0004 C 219.2120 339.0004 199.7003 339.4649 199.0036 338.5357 C 198.3066 337.6066 203.4168 350.8472 217.1213 350.6149 C 227.3416 349.6857 228.0384 345.2721 230.1290 344.5754 C 233.1487 343.8785 239.6527 343.8786 240.5817 344.1108 C 241.5108 344.3431 257.7704 355.7253 257.7704 355.7253 L 299.1163 397.5377 z " id="path585" sodipodi:nodetypes="ccccccccccccccccccccccccccccccccccccccccccccccccccccccccccccccccccccccc" style="font-size:12.000;fill:#219e4a;fill-rule:evenodd;stroke:#000000;stroke-width:1.483554;stroke-linejoin:round;"/>
  <path d="M 179.2596 214.0280 C 179.2596 214.0280 178.7950 236.3280 189.9446 243.0645 " id="path593" style="font-size:12.000;fill:none;fill-rule:evenodd;stroke:#000000;stroke-width:1.483554;stroke-linecap:round;stroke-linejoin:round;"/>
  <path d="M 202.7199 231.6822 C 202.7199 231.6822 210.1530 243.0645 197.6098 247.2456 " id="path594" style="font-size:12.000;fill:none;fill-rule:evenodd;stroke:#000000;stroke-width:1.483554;stroke-linecap:round;stroke-linejoin:round;"/>
  <path d="M 164.1613 239.3477 C 164.1613 239.3477 163.2322 252.1237 185.7636 251.1945 " id="path595" style="font-size:12.000;fill:none;fill-rule:evenodd;stroke:#000000;stroke-width:1.483554;stroke-linecap:round;stroke-linejoin:round;"/>
  <path d="M 219.9087 250.4976 C 219.9087 250.4976 216.1922 259.5569 207.1332 259.0924 " id="path596" style="font-size:12.000;fill:none;fill-rule:evenodd;stroke:#000000;stroke-width:1.483554;stroke-linecap:round;stroke-linejoin:round;"/>
  <path d="M 228.2707 270.9392 C 228.2707 272.1007 229.8969 284.4120 218.0505 284.1798 " id="path597" style="font-size:12.000;fill:none;fill-rule:evenodd;stroke:#000000;stroke-width:1.483554;stroke-linecap:round;stroke-linejoin:round;"/>
  <path d="M 171.5944 265.8288 C 171.5944 265.8288 186.4604 275.1205 193.1964 274.4236 " id="path598" style="font-size:12.000;fill:none;fill-rule:evenodd;stroke:#000000;stroke-width:1.483554;stroke-linecap:round;stroke-linejoin:round;"/>
  <path d="M 174.8462 288.3610 C 174.8462 288.3610 181.8147 295.7943 194.5901 293.9361 " id="path599" style="font-size:12.000;fill:none;fill-rule:evenodd;stroke:#000000;stroke-width:1.483554;stroke-linecap:round;stroke-linejoin:round;"/>
  <path d="M 236.1682 293.4714 C 236.1682 294.4006 233.8455 301.6017 228.7354 302.5310 " id="path600" style="font-size:12.000;fill:none;fill-rule:evenodd;stroke:#000000;stroke-width:1.483554;stroke-linecap:round;stroke-linejoin:round;"/>
  <path d="M 186.4604 309.9642 C 186.4604 309.9642 192.0351 317.1652 206.6688 313.2161 " id="path601" style="font-size:12.000;fill:none;fill-rule:evenodd;stroke:#000000;stroke-width:1.483554;stroke-linecap:round;stroke-linejoin:round;"/>
  <path d="M 250.1052 306.9442 C 250.1052 306.9442 247.7823 318.3265 241.7431 318.5588 " id="path602" style="font-size:12.000;fill:none;fill-rule:evenodd;stroke:#000000;stroke-width:1.483554;stroke-linecap:round;stroke-linejoin:round;"/>
  <path d="M 264.2743 319.2557 C 264.2743 319.2557 259.6287 332.9607 247.7823 330.8702 " id="path603" style="font-size:12.000;fill:none;fill-rule:evenodd;stroke:#000000;stroke-width:1.483554;stroke-linecap:round;stroke-linejoin:round;"/>
  <path d="M 209.6883 343.6460 C 209.6883 343.6460 214.3339 347.8276 225.7157 342.7171 " id="path604" style="font-size:12.000;fill:none;fill-rule:evenodd;stroke:#000000;stroke-width:1.483554;stroke-linecap:round;stroke-linejoin:round;"/>
  <path d="M 196.9129 329.7088 C 197.8421 329.7088 203.6490 334.5867 217.5860 327.1536 " id="path605" style="font-size:12.000;fill:none;fill-rule:evenodd;stroke:#000000;stroke-width:1.483554;stroke-linecap:round;stroke-linejoin:round;"/>
  <path d="M 299.0941 380.4663 C 299.0941 380.4663 290.4153 384.3524 298.8351 397.4360 " id="path606" style="font-size:12.000;fill:none;fill-rule:evenodd;stroke:#000000;stroke-width:1.483554;stroke-linecap:round;stroke-linejoin:round;"/>
  <path d="M 469.5925 266.3246 C 469.5925 266.3246 478.7141 275.0813 478.8964 276.9059 C 479.0789 278.7304 481.2682 287.3048 483.6398 288.5820 C 486.0112 289.8591 495.3153 297.3390 496.5924 300.2580 C 497.8694 303.1771 506.0787 315.5828 506.0787 315.5828 C 506.0787 315.5828 513.7408 331.2727 518.8489 332.5498 C 523.9570 333.8268 538.3690 331.6377 541.2879 338.5702 C 544.2067 345.5030 543.4771 355.5370 543.4771 355.5370 C 543.4771 355.5370 540.0109 358.6386 538.3690 356.8141 C 536.7272 354.9897 533.8082 365.9361 528.7001 362.8347 C 521.7424 348.0184 503.5325 350.4367 503.5325 350.4367 C 503.5325 350.4367 507.5380 344.2257 491.3018 338.7526 C 465.9438 343.1313 458.4641 316.6777 458.4641 316.6777 L 444.0306 304.1585 L 469.5925 266.3246 z " id="path654" sodipodi:nodetypes="ccccccccccccccc" style="font-size:12.000;fill:#f7f308;fill-rule:evenodd;stroke:#000000;stroke-width:1.483554;"/>
  <path d="M 454.9981 303.9069 L 466.3087 309.1976 L 465.3966 299.5284 " id="path655" style="font-size:12.000;fill:#f7f308;fill-rule:evenodd;stroke:#000000;stroke-width:1.483554;"/>
  <path d="M 471.0521 302.4472 L 481.4505 307.5557 L 477.2546 299.1634 " id="path656" style="font-size:12.000;fill:#f7f308;fill-rule:evenodd;stroke:#000000;stroke-width:1.483554;"/>
  <path d="M 470.5046 288.7646 L 480.7207 294.2375 L 475.9776 283.6561 " id="path657" style="font-size:12.000;fill:#f7f308;fill-rule:evenodd;stroke:#000000;stroke-width:1.483554;"/>
  <path d="M 486.7410 338.9352 C 486.7410 338.9352 475.0654 323.6102 475.2478 323.6102 C 475.4304 323.6102 495.1329 327.4416 495.1329 327.4416 L 487.8355 311.7517 L 505.8962 316.4951 " id="path658" style="font-size:12.000;fill:#f7f308;fill-rule:evenodd;stroke:#000000;stroke-width:1.483554;"/>
  <path d="M 520.3082 341.3069 C 520.3082 341.3069 531.8014 343.8610 531.4366 363.0169 " id="path659" style="font-size:12.000;fill:#f7f308;fill-rule:evenodd;stroke:#000000;stroke-width:1.483554;"/>
  <path d="M 526.3285 338.3878 C 526.3285 338.3878 538.7340 337.6581 538.0042 356.9966 " id="path660" style="font-size:12.000;fill:#f7f308;fill-rule:evenodd;stroke:#000000;stroke-width:1.483554;"/>
  <path d="M 312.3795 268.6983 C 312.3795 268.6983 303.2579 277.4552 303.0756 279.2797 C 302.8931 281.1042 299.1906 288.5436 296.8191 289.8209 C 294.4476 291.0979 286.2784 299.3345 285.0014 302.2534 C 283.7244 305.1726 275.8933 317.9566 275.8933 317.9566 C 275.8933 317.9566 266.9072 330.9984 261.7991 332.2753 C 255.5563 332.7960 243.6031 334.0114 240.6841 340.9440 C 237.7653 347.8767 242.2779 358.4782 245.6825 358.4782 C 250.7894 360.7479 253.1206 363.0928 254.7626 361.2684 C 257.5393 362.0922 255.9513 364.4684 261.0596 361.3671 C 257.1770 356.3916 257.5914 351.5830 261.4836 350.3227 C 265.3659 348.9942 271.6881 354.9028 271.6881 354.9028 C 271.6881 354.9028 273.9903 344.1590 290.2266 338.6860 C 315.5846 343.0645 322.3984 322.6011 324.1735 317.7202 C 328.1722 312.2784 334.3895 310.8302 339.4976 307.3853 L 312.3795 268.6983 z " id="path670" sodipodi:nodetypes="ccccccccccsccccc" style="font-size:12.000;fill:#f7f308;fill-rule:evenodd;stroke:#000000;stroke-width:1.483554;"/>
  <path d="M 327.4176 304.0620 L 315.6633 310.2402 L 316.5755 301.9021 " id="path671" sodipodi:nodetypes="ccc" style="font-size:12.000;fill:none;fill-rule:evenodd;stroke:#000000;stroke-width:1.483554;stroke-linecap:round;stroke-linejoin:round;"/>
  <path d="M 311.8075 302.3805 L 300.7433 307.4889 L 305.8268 298.8749 " id="path672" sodipodi:nodetypes="ccc" style="font-size:12.000;fill:none;fill-rule:evenodd;stroke:#000000;stroke-width:1.483554;stroke-linecap:round;stroke-linejoin:round;"/>
  <path d="M 312.1330 288.9196 L 302.5825 293.0615 L 305.9945 286.0299 " id="path673" sodipodi:nodetypes="ccc" style="font-size:12.000;fill:none;fill-rule:evenodd;stroke:#000000;stroke-width:1.483554;stroke-linecap:round;stroke-linejoin:round;"/>
  <path d="M 295.6748 338.8683 C 297.4497 335.3185 306.4629 324.2090 306.2805 324.2090 C 306.0980 324.2090 287.7267 328.0404 287.7267 328.0404 L 293.6928 312.5723 L 277.6287 315.7628 " id="path674" sodipodi:nodetypes="ccccc" style="font-size:12.000;fill:none;fill-rule:evenodd;stroke:#000000;stroke-width:1.483554;stroke-linecap:round;stroke-linejoin:round;"/>
  <path d="M 262.4204 341.2216 C 262.4204 341.2216 248.4683 343.7756 253.9399 361.0402 " id="path675" sodipodi:nodetypes="cc" style="font-size:12.000;fill:none;fill-rule:evenodd;stroke:#000000;stroke-width:1.483554;stroke-linecap:round;stroke-linejoin:round;"/>
  <path d="M 256.4001 338.8700 C 256.4001 338.8700 241.1575 339.2752 246.4268 358.2354 " id="path676" sodipodi:nodetypes="cc" style="font-size:12.000;fill:none;fill-rule:evenodd;stroke:#000000;stroke-width:1.483554;"/>
  <path d="M 424.3255 324.8933 C 424.3255 324.7039 429.4324 337.7557 418.4620 340.0255 C 446.6445 337.9449 454.5887 370.1007 454.5887 370.1007 " id="path662" sodipodi:nodetypes="ccc" style="font-size:12.000;fill:none;fill-rule:evenodd;stroke:#000000;stroke-width:1.854442;stroke-linecap:round;stroke-linejoin:round;"/>
  <path d="M 417.8946 329.6221 C 417.8946 329.6221 420.3536 339.0797 412.2202 343.8085 C 441.7268 350.2396 448.5360 380.8823 448.5360 380.8823 " id="path663" sodipodi:nodetypes="ccc" style="font-size:12.000;fill:none;fill-rule:evenodd;stroke:#000000;stroke-width:1.483554;stroke-linecap:round;stroke-linejoin:round;"/>
  <path d="M 411.6528 333.9725 C 411.6528 334.3509 414.4900 346.2675 405.2219 348.1590 C 423.5690 343.2409 442.6725 389.7725 442.6725 389.7725 " id="path664" sodipodi:nodetypes="ccc" style="font-size:12.000;fill:none;fill-rule:evenodd;stroke:#000000;stroke-width:1.483554;stroke-linecap:round;stroke-linejoin:round;"/>
  <path d="M 402.7631 339.2689 C 402.7631 339.2689 407.4917 348.3480 398.7911 351.1854 C 415.2465 352.8876 420.5427 406.9855 420.5427 406.9855 " id="path665" sodipodi:nodetypes="ccc" style="font-size:12.000;fill:none;fill-rule:evenodd;stroke:#000000;stroke-width:1.483554;stroke-linecap:round;stroke-linejoin:round;"/>
  <path d="M 397.0888 342.4843 C 397.0888 342.4843 399.7366 352.5095 391.2253 355.5358 C 408.4374 346.4568 405.2219 416.4430 405.2219 416.4430 " id="path666" sodipodi:nodetypes="ccc" style="font-size:12.000;fill:none;fill-rule:evenodd;stroke:#000000;stroke-width:1.483554;stroke-linecap:round;stroke-linejoin:round;"/>
  <path d="M 385.7402 343.0519 C 385.7402 343.0519 382.1463 353.6444 390.0904 355.7249 C 374.3915 351.3746 377.4177 416.4430 377.4177 416.4430 " id="path667" sodipodi:nodetypes="ccc" style="font-size:12.000;fill:none;fill-rule:evenodd;stroke:#000000;stroke-width:1.483554;stroke-linecap:round;stroke-linejoin:round;"/>
  <path d="M 378.3634 338.8905 C 378.3634 338.8905 375.9047 348.5373 385.5509 353.4552 C 369.4738 343.2411 362.8537 407.7419 362.8537 407.7419 " id="path668" sodipodi:nodetypes="ccc" style="font-size:12.000;fill:none;fill-rule:evenodd;stroke:#000000;stroke-width:1.483554;stroke-linecap:round;stroke-linejoin:round;"/>
  <path d="M 403.8980 347.7808 C 403.8980 347.7808 433.2152 375.9644 433.0261 396.7711 " id="path669" style="font-size:12.000;fill:none;fill-rule:evenodd;stroke:#000000;stroke-width:1.483554;stroke-linecap:round;stroke-linejoin:round;"/>
  <path d="M 357.5577 325.0825 C 357.5577 325.2716 353.9639 340.2146 364.3668 340.5929 " id="path677" style="font-size:12.000;fill:none;fill-rule:evenodd;stroke:#000000;stroke-width:1.483554;stroke-linecap:round;stroke-linejoin:round;"/>
  <path d="M 364.9342 330.5677 C 364.9342 330.9461 362.0971 343.2409 370.4194 343.8085 " id="path678" style="font-size:12.000;fill:none;fill-rule:evenodd;stroke:#000000;stroke-width:1.483554;stroke-linecap:round;stroke-linejoin:round;"/>
  <path d="M 371.5542 334.1617 C 371.5542 334.1617 366.4474 346.4567 378.9309 348.1590 " id="path679" style="font-size:12.000;fill:none;fill-rule:evenodd;stroke:#000000;stroke-width:1.483554;stroke-linecap:round;stroke-linejoin:round;"/>
  <path d="M 377.9851 348.3481 C 377.7960 348.3481 353.5856 370.8572 349.8028 396.9602 " id="path680" style="font-size:12.000;fill:none;fill-rule:evenodd;stroke:#000000;stroke-width:1.483554;stroke-linecap:round;stroke-linejoin:round;"/>
  <path d="M 373.4457 346.0783 C 373.2566 346.0783 342.6152 365.1826 340.5345 389.5832 " id="path681" style="font-size:12.000;fill:none;fill-rule:evenodd;stroke:#000000;stroke-width:1.483554;stroke-linecap:round;stroke-linejoin:round;"/>
  <path d="M 366.6365 342.8626 C 366.6365 342.8626 332.5906 362.7238 334.1038 380.6932 " id="path682" style="font-size:12.000;fill:none;fill-rule:evenodd;stroke:#000000;stroke-width:1.483554;stroke-linecap:round;stroke-linejoin:round;"/>
  <path d="M 358.5033 338.5122 C 358.5033 338.5122 333.1579 343.2411 326.9163 370.4789 " id="path683" style="font-size:12.000;fill:none;fill-rule:evenodd;stroke:#000000;stroke-width:1.483554;stroke-linecap:round;stroke-linejoin:round;"/>
  <path d="M 305.0503 164.2362 C 305.0503 164.2362 329.5606 177.7723 347.1201 177.0406 C 364.6799 176.3088 391.0193 164.9678 391.0193 164.9678 C 391.0193 164.9678 414.4321 178.1379 433.4550 176.3088 C 452.4780 174.4798 478.8173 164.2362 478.8173 164.2362 C 494.5480 242.7699 458.6969 313.2556 391.0193 344.9618 C 319.1955 312.1580 284.3201 233.2583 305.0503 164.2362 z " id="path689" sodipodi:nodetypes="csssscs" style="font-size:12.000;fill:none;fill-rule:evenodd;stroke:#000000;stroke-width:1.483554;"/>
  <g id="g697" transform="matrix(1.483523,0,0,1.483587,24.09617,27.91796)">
    <path d="M 189.3831 91.88431 C 189.3831 91.88431 205.9048 101.0082 217.7412 100.5150 C 229.5777 100.0217 247.3323 92.37747 247.3323 92.37747 C 247.3323 92.37747 263.1142 101.2547 275.9370 100.0218 C 288.7599 98.78891 306.5145 91.88431 306.5145 91.88431 C 317.1180 144.8194 292.9519 192.3297 247.3323 213.7010 C 198.9180 191.5899 175.4095 138.4081 189.3831 91.88431 z " id="path581" sodipodi:nodetypes="csssscs" style="fill:#bd0029;fill-rule:evenodd;stroke:black;stroke-opacity:1;stroke-width:1pt;stroke-linejoin:miter;stroke-linecap:butt;fill-opacity:1.0000;"/>
    <path d="M 189.3831 91.88431 C 189.3831 91.88431 193.5135 94.16527 199.1235 96.38458 C 204.7335 98.60397 211.8230 100.7616 217.7412 100.5150 C 229.5777 100.0217 247.3323 92.37747 247.3323 92.37747 C 247.3323 92.37747 263.1142 101.2547 275.9370 100.0218 C 288.7599 98.78891 306.5145 91.88431 306.5145 91.88431 C 309.1038 107.2552 310.3983 115.1050 308.1173 130.3527 L 186.0849 129.6438 C 184.5334 114.4270 184.6156 108.2416 189.3831 91.88431 z " id="path582" sodipodi:nodetypes="cccsscccc" style="fill:#3a59a5;fill-rule:evenodd;stroke:black;stroke-opacity:1;stroke-width:1pt;stroke-linejoin:miter;stroke-linecap:butt;fill-opacity:1.0000;"/>
    <path d="M 193.7436 130.2257 L 193.6655 159.0746 L 201.7127 173.4886 L 201.6346 130.2257 L 193.7436 130.2257 z " id="path586" sodipodi:nodetypes="ccccc" style="font-size:12.000;fill:#ffffff;fill-rule:evenodd;fill-opacity:1.0000;"/>
    <path d="M 213.9490 130.3262 L 214.0423 189.7815 L 221.9333 196.9690 L 221.8400 130.3262 L 213.9490 130.3262 z " id="path587" sodipodi:nodetypes="ccccc" style="font-size:12.000;fill:#ffffff;fill-rule:evenodd;fill-opacity:1.0000;"/>
    <path d="M 233.7697 130.5463 L 233.7697 206.3032 L 241.7388 210.6391 L 241.6607 130.5463 L 233.7697 130.5463 z " id="path588" sodipodi:nodetypes="ccccc" style="font-size:12.000;fill:#ffffff;fill-rule:evenodd;fill-opacity:1.0000;"/>
    <path d="M 302.0426 130.8742 L 302.2133 155.5542 L 294.7220 170.7093 L 294.1516 130.8742 L 302.0426 130.8742 z " id="path589" sodipodi:nodetypes="ccccc" style="font-size:12.000;fill:#ffffff;fill-rule:evenodd;fill-opacity:1.0000;"/>
    <path d="M 282.4857 130.6967 L 282.2071 188.0212 L 274.5014 195.3014 L 274.5947 130.6967 L 282.4857 130.6967 z " id="path590" sodipodi:nodetypes="ccccc" style="font-size:12.000;fill:#ffffff;fill-rule:evenodd;fill-opacity:1.0000;"/>
    <path d="M 261.9239 130.6389 L 262.0165 205.3767 L 253.9548 210.3611 L 254.0329 130.6389 L 261.9239 130.6389 z " id="path591" sodipodi:nodetypes="ccccc" style="font-size:12.000;fill:#ffffff;fill-rule:evenodd;fill-opacity:1.0000;"/>
  </g>
  <path d="M 305.0503 164.2362 C 305.0503 164.2362 329.5606 177.7723 347.1201 177.0406 C 364.6799 176.3088 391.0193 164.9678 391.0193 164.9678 C 391.0193 164.9678 414.4321 178.1379 433.4550 176.3088 C 452.4780 174.4798 478.8173 164.2362 478.8173 164.2362 C 494.5480 242.7699 458.6969 313.2556 391.0193 344.9618 C 319.1955 312.1580 284.3201 233.2583 305.0503 164.2362 z " id="path707" sodipodi:nodetypes="csssscs" style="font-size:12.000;fill:none;fill-rule:evenodd;stroke:#000000;stroke-width:1.483554;"/>
</svg>
