<?xml version="1.0" encoding="UTF-8" standalone="no"?>
<!DOCTYPE svg PUBLIC "-//W3C//DTD SVG 20010904//EN"
"http://www.w3.org/TR/2001/REC-SVG-20010904/DTD/svg10.dtd"
[
 <!ATTLIST svg
  xmlns:xlink CDATA #FIXED "http://www.w3.org/1999/xlink">
]>
<!-- Created with Sodipodi ("http://www.sodipodi.com/") --><!-- Creative Commons Public Domain --><!--

--><svg height="499.606293" id="svg548" version="1" width="749.409424" x="0.00000000" xmlns="http://www.w3.org/2000/svg" xmlns:xlink="http://www.w3.org/1999/xlink" y="0.00000000">
  <metadata>
    <rdf:RDF xmlns:cc="http://web.resource.org/cc/" xmlns:dc="http://purl.org/dc/elements/1.1/" xmlns:rdf="http://www.w3.org/1999/02/22-rdf-syntax-ns#">
      <cc:Work rdf:about="">
        <dc:title> south_africa</dc:title>
        <dc:description></dc:description>
        <dc:subject>
          <rdf:Bag>
            <rdf:li></rdf:li>
            <rdf:li>united_nations_member</rdf:li>
            <rdf:li>flag</rdf:li>
            <rdf:li>africa</rdf:li>
            <rdf:li>sign</rdf:li>
          </rdf:Bag>
        </dc:subject>
        <dc:publisher>
          <cc:Agent rdf:about="http://www.openclipart.org">
            <dc:title> Farrel Lifson</dc:title>
          </cc:Agent>
        </dc:publisher>
        <dc:creator>
          <cc:Agent>
            <dc:title>Farrel Lifson</dc:title>
          </cc:Agent>
        </dc:creator>
        <dc:rights>
          <cc:Agent>
            <dc:title> Farrel Lifson</dc:title>
          </cc:Agent>
        </dc:rights>
        <dc:date></dc:date>
        <dc:format>image/svg+xml</dc:format>
        <dc:type rdf:resource="http://purl.org/dc/dcmitype/StillImage"/>
        <cc:license rdf:resource="http://web.resource.org/cc/PublicDomain"/>
        <dc:language>en</dc:language>
      </cc:Work>
      <cc:License rdf:about="http://web.resource.org/cc/PublicDomain">
        <cc:permits rdf:resource="http://web.resource.org/cc/Reproduction"/>
        <cc:permits rdf:resource="http://web.resource.org/cc/Distribution"/>
        <cc:permits rdf:resource="http://web.resource.org/cc/DerivativeWorks"/>
      </cc:License>
    </rdf:RDF>
  </metadata>
  <defs id="defs550"/>
  <g id="g603" style="font-size:12;" transform="matrix(1.998266,0.000000,0.000000,1.998801,-74.83725,-1553.702)">
    <path d="M 37.4511 976.386 L 37.4511 828.261 L 147.729 902.283 L 37.4511 976.386 z " id="path581" style="fill-rule:evenodd;stroke-width:1pt;"/>
    <path d="M 112.695 1027.27 L 236.503 943.964 L 412.481 943.964 L 412.481 1027.27 L 112.695 1027.27 z " id="path597" style="fill:#0000cc;fill-rule:evenodd;stroke-width:1pt;"/>
    <path d="M 112.695 777.323 L 412.481 777.323 L 412.481 860.643 L 236.503 860.643 C 236.503 860.643 114.345 776.499 112.695 777.323 z " id="path598" style="fill:#ff0000;fill-rule:evenodd;stroke-width:1pt;"/>
    <path d="M 37.4511 808.573 C 37.4511 808.573 37.4511 828.261 37.4511 828.261 L 147.729 902.283 L 37.4511 976.386 L 37.4511 996.073 L 176.35 902.283 L 37.4511 808.573 z " id="path599" style="fill:#ffcc00;fill-rule:evenodd;stroke-width:1pt;"/>
    <path d="M 37.4511 808.573 L 37.4511 777.323 L 83.7891 777.323 L 230.928 876.854 L 412.481 876.854 L 412.481 927.753 L 230.928 927.753 L 83.7891 1027.27 L 37.4511 1027.27 L 37.4511 996.073 L 176.35 902.283 L 37.4511 808.573 z " id="path600" style="fill:#009933;fill-rule:evenodd;stroke-width:1pt;"/>
    <path d="M 83.7891 777.323 L 112.695 777.323 L 236.503 860.643 L 412.481 860.643 L 412.481 876.854 L 230.928 876.854 L 83.7891 777.323 z " id="path601" style="fill:#ffffff;fill-rule:evenodd;stroke-width:1pt;"/>
    <path d="M 83.7891 1027.27 L 112.695 1027.27 L 236.503 943.964 L 412.481 943.964 L 412.481 927.753 L 230.928 927.753 L 83.7891 1027.27 z " id="path602" style="fill:#ffffff;fill-rule:evenodd;stroke-width:1pt;"/>
  </g>
</svg>
